<?xml version="1.0" encoding="utf-8"?>
<!-- Generator: Adobe Illustrator 21.0.0, SVG Export Plug-In . SVG Version: 6.00 Build 0)  -->
<svg version="1.1" id="Layer_1" xmlns="http://www.w3.org/2000/svg" xmlns:xlink="http://www.w3.org/1999/xlink" x="0px" y="0px"
	 viewBox="0 0 547.6 429" style="enable-background:new 0 0 547.6 429;" xml:space="preserve">
<style type="text/css">
	.st0{opacity:0.7;}
	.st1{fill:#C9DFFF;}
	.st2{opacity:0.8;}
	.st3{opacity:0.6;}
	.st4{opacity:0.5;}
	.st5{opacity:0.4;}
	.st6{opacity:0.3;}
	.st7{opacity:0.2;}
	.st8{opacity:0.1;}
	.st9{opacity:5.000000e-02;}
	.st10{opacity:3.000000e-02;}
	.st11{opacity:0.15;fill:#0B0244;enable-background:new    ;}
	.st12{opacity:0.3;fill:#0B0244;enable-background:new    ;}
	.st13{fill:#FFFFFF;}
	.st14{opacity:0.5;fill:#FDFDFD;enable-background:new    ;}
	.st15{fill:#B3D2FF;}
	.st16{fill:#FDFDFD;}
	.st17{opacity:0.7;fill:url(#SVGID_1_);enable-background:new    ;}
	.st18{display:none;opacity:0.4;}
	.st19{display:inline;opacity:0.5;fill:url(#SVGID_2_);enable-background:new    ;}
	.st20{display:inline;opacity:0.7;fill:url(#SVGID_3_);enable-background:new    ;}
	.st21{display:inline;fill:#312A91;}
	.st22{fill:#588BFB;}
	.st23{opacity:0.5;fill:url(#SVGID_4_);enable-background:new    ;}
	.st24{fill:#3C91E5;}
	.st25{fill:#47ACE5;}
	.st26{fill:#FCCC6B;}
	.st27{fill:none;stroke:url(#SVGID_5_);stroke-miterlimit:10;stroke-dasharray:0.825,1.6438;}
	.st28{fill:none;stroke:url(#SVGID_6_);stroke-miterlimit:10;stroke-dasharray:0.825,1.6438;}
	.st29{fill:none;stroke:url(#SVGID_7_);stroke-miterlimit:10;stroke-dasharray:0.825,1.6438;}
	.st30{fill:none;stroke:url(#SVGID_8_);stroke-miterlimit:10;stroke-dasharray:0.825,1.6438;}
	.st31{fill:none;stroke:url(#SVGID_9_);stroke-miterlimit:10;stroke-dasharray:0.825,1.6438;}
	.st32{fill:none;stroke:url(#SVGID_10_);stroke-miterlimit:10;stroke-dasharray:0.825,1.6438;}
	.st33{fill:none;stroke:url(#SVGID_11_);stroke-miterlimit:10;stroke-dasharray:0.825,1.6438;}
	.st34{fill:none;stroke:url(#SVGID_12_);stroke-miterlimit:10;stroke-dasharray:0.825,1.6438;}
	.st35{fill:none;stroke:url(#SVGID_13_);stroke-miterlimit:10;stroke-dasharray:0.825,1.6438;}
	.st36{opacity:0.5;fill:url(#SVGID_14_);enable-background:new    ;}
	.st37{opacity:0.15;fill:url(#SVGID_15_);enable-background:new    ;}
	.st38{fill:url(#SVGID_16_);}
	.st39{opacity:0.5;fill:url(#SVGID_17_);enable-background:new    ;}
	.st40{fill:url(#SVGID_18_);}
	.st41{opacity:0.5;fill:url(#SVGID_19_);enable-background:new    ;}
	.st42{opacity:0.15;fill:url(#SVGID_20_);enable-background:new    ;}
	.st43{fill:url(#SVGID_21_);}
	.st44{opacity:0.5;fill:url(#SVGID_22_);enable-background:new    ;}
	.st45{fill:url(#SVGID_23_);}
	.st46{fill:#9AC3F4;}
	.st47{fill:#79B1E0;}
	.st48{opacity:0.15;fill:url(#SVGID_24_);enable-background:new    ;}
	.st49{fill:url(#SVGID_25_);}
	.st50{opacity:0.5;fill:url(#SVGID_26_);enable-background:new    ;}
	.st51{fill:url(#SVGID_27_);}
	.st52{opacity:0.75;}
	.st53{fill:url(#SVGID_28_);}
	.st54{fill:url(#SVGID_29_);}
	.st55{fill:url(#SVGID_30_);}
	.st56{fill:url(#SVGID_31_);}
	.st57{fill:url(#SVGID_32_);}
	.st58{fill:url(#SVGID_33_);}
	.st59{fill:url(#SVGID_34_);}
	.st60{opacity:0.71;fill:#3C91E5;enable-background:new    ;}
	.st61{opacity:0.51;fill:#3C91E5;enable-background:new    ;}
	.st62{opacity:0.69;fill:#3C91E5;enable-background:new    ;}
	.st63{opacity:0.49;fill:#3C91E5;enable-background:new    ;}
	.st64{fill:#2D73AD;}
	.st65{opacity:0.71;fill:url(#SVGID_35_);enable-background:new    ;}
	.st66{fill:url(#SVGID_36_);}
	.st67{opacity:0.51;fill:url(#SVGID_37_);enable-background:new    ;}
	.st68{opacity:0.69;fill:#C9DFFF;enable-background:new    ;}
	.st69{opacity:0.5;fill:#C9DFFF;enable-background:new    ;}
	.st70{fill:#DAEEF4;}
	.st71{fill:url(#SVGID_38_);}
	.st72{fill:#86DBDB;}
	.st73{fill:#6F6DFF;}
	.st74{fill:url(#SVGID_39_);}
	.st75{fill:none;stroke:#2775FF;stroke-width:0.7936;stroke-linecap:round;stroke-linejoin:round;}
	.st76{fill:none;stroke:#C9DFFF;stroke-width:0.7936;stroke-linecap:round;stroke-linejoin:round;stroke-dasharray:0.9682,1.9285;}
	.st77{fill:none;stroke:#4C91CC;stroke-width:0.7936;stroke-linecap:round;stroke-linejoin:round;stroke-dasharray:0.9682,1.9285;}
	.st78{opacity:0.5;fill:#A6A6FF;enable-background:new    ;}
	.st79{fill:#C0C0FF;}
	.st80{fill:#A0ECEF;}
	.st81{fill:#CACAFF;}
	.st82{fill:url(#SVGID_40_);}
	.st83{opacity:0.5;fill:#3C91E5;enable-background:new    ;}
	.st84{opacity:0.5;fill:#E2E9F0;enable-background:new    ;}
	.st85{fill:url(#SVGID_41_);}
	.st86{fill:none;stroke:#8FC7FF;stroke-miterlimit:10;}
	.st87{fill:none;stroke:#A9CAFF;stroke-miterlimit:10;}
	.st88{fill:url(#SVGID_42_);}
	.st89{fill:url(#SVGID_43_);}
	.st90{fill:url(#SVGID_44_);}
	.st91{fill:url(#SVGID_45_);}
	.st92{fill:url(#SVGID_46_);}
	.st93{fill:url(#SVGID_47_);}
	.st94{fill:url(#SVGID_48_);}
	.st95{fill:url(#SVGID_49_);}
	.st96{fill:url(#SVGID_50_);}
	.st97{fill:url(#SVGID_51_);}
	.st98{fill:url(#SVGID_52_);}
	.st99{fill:url(#SVGID_53_);}
	.st100{fill:url(#SVGID_54_);}
	.st101{fill:url(#SVGID_55_);}
	.st102{fill:url(#SVGID_56_);}
	.st103{fill:url(#SVGID_57_);}
	.st104{fill:url(#SVGID_58_);}
	.st105{fill:url(#SVGID_59_);}
	.st106{fill:url(#SVGID_60_);}
	.st107{fill:url(#SVGID_61_);}
	.st108{fill:url(#SVGID_62_);}
	.st109{fill:url(#SVGID_63_);}
	.st110{fill:url(#SVGID_64_);}
	.st111{fill:url(#SVGID_65_);}
	.st112{fill:url(#SVGID_66_);}
	.st113{fill:url(#SVGID_67_);}
	.st114{fill:url(#SVGID_68_);}
	.st115{fill:url(#SVGID_69_);}
	.st116{fill:url(#SVGID_70_);}
	.st117{fill:url(#SVGID_71_);}
	.st118{fill:url(#SVGID_72_);}
	.st119{fill:url(#SVGID_73_);}
	.st120{fill:url(#SVGID_74_);}
	.st121{fill:url(#SVGID_75_);}
	.st122{fill:url(#SVGID_76_);}
	.st123{fill:url(#SVGID_77_);}
	.st124{fill:url(#SVGID_78_);}
	.st125{fill:url(#SVGID_79_);}
	.st126{fill:url(#SVGID_80_);}
	.st127{fill:url(#SVGID_81_);}
	.st128{fill:url(#SVGID_82_);}
	.st129{fill:url(#SVGID_83_);}
	.st130{fill:url(#SVGID_84_);}
	.st131{fill:url(#SVGID_85_);}
	.st132{fill:url(#SVGID_86_);}
	.st133{fill:url(#SVGID_87_);}
	.st134{fill:url(#SVGID_88_);}
	.st135{fill:url(#SVGID_89_);}
	.st136{opacity:0.5;fill:url(#SVGID_90_);enable-background:new    ;}
	.st137{opacity:0.9;}
	.st138{fill:#B6E2FF;}
	.st139{opacity:0.9;fill:#B6E2FF;enable-background:new    ;}
	.st140{opacity:0.6;fill:#B6E2FF;enable-background:new    ;}
	.st141{opacity:0.3;fill:#B6E2FF;enable-background:new    ;}
	.st142{opacity:0.2;fill:#B6E2FF;enable-background:new    ;}
	.st143{display:none;enable-background:new    ;}
	.st144{font-family:'HelveticaNeue-Bold';}
	.st145{font-size:125px;}
	.st146{fill:url(#SVGID_91_);}
	.st147{fill:url(#SVGID_92_);}
	.st148{fill:url(#SVGID_93_);}
	.st149{fill:url(#SVGID_94_);}
	.st150{fill:url(#SVGID_95_);}
	.st151{fill:url(#SVGID_96_);}
	.st152{fill:url(#SVGID_97_);}
	.st153{fill:url(#SVGID_98_);}
	.st154{fill:url(#SVGID_99_);}
	.st155{fill:url(#SVGID_100_);}
	.st156{fill:url(#SVGID_101_);}
</style>
<g>
	<g>
		<g class="st0">
			<path class="st1" d="M319.6,333.7c-50.9,5.9-106.6-14.2-124.2-44.7s9.4-60.1,60.3-66s106.6,14.2,124.2,44.7
				C397.5,298.2,370.4,327.9,319.6,333.7z M259.4,229.5c-44.9,5.2-68.8,31.3-53.2,58.3s64.8,44.7,109.7,39.5s68.8-31.3,53.2-58.3
				S304.3,224.3,259.4,229.5z"/>
		</g>
		<g class="st0">
			<path class="st1" d="M313.2,322.8c-40.8,4.7-85.5-11.4-99.6-35.8c-14.1-24.5,7.6-48.2,48.3-52.9c40.8-4.7,85.5,11.4,99.6,35.8
				S354,318,313.2,322.8z M265.7,240.5c-34.8,4-53.4,24.3-41.3,45.2c12.1,20.9,50.2,34.6,85.1,30.6s53.4-24.3,41.3-45.2
				C338.7,250.2,300.6,236.4,265.7,240.5z"/>
		</g>
		<g class="st2">
			<path class="st1" d="M306.7,311.4c-30.3,3.5-63.6-8.5-74.1-26.7s5.6-35.9,36-39.4s63.6,8.5,74.1,26.7
				C353.1,290.2,337,307.9,306.7,311.4z M272.3,251.8c-24.4,2.8-37.4,17-28.9,31.7s35.2,24.3,59.6,21.4c24.4-2.8,37.4-17,28.9-31.7
				S296.7,249,272.3,251.8z"/>
		</g>
		<g class="st3">
			<path class="st1" d="M325.4,343.8c-60.2,6.9-126-16.8-146.9-52.9s11.1-71.1,71.3-78.1c60.2-6.9,126,16.8,146.9,52.9
				C417.5,301.9,385.5,336.9,325.4,343.8z M253.6,219.4c-54.2,6.3-83,37.8-64.2,70.3s78.2,53.9,132.4,47.6s83-37.8,64.2-70.3
				C367.1,234.5,307.8,213.1,253.6,219.4z"/>
		</g>
		<g class="st4">
			<path class="st1" d="M331.3,354.1c-69.6,8-145.9-19.4-170-61.2s12.9-82.3,82.5-90.3s145.9,19.4,170,61.2S401,346.1,331.3,354.1z
				 M247.6,209.1c-63.7,7.4-97.5,44.4-75.5,82.6c22.1,38.2,91.8,63.3,155.5,55.9s97.5-44.4,75.5-82.6
				C381,226.8,311.3,201.7,247.6,209.1z"/>
		</g>
		<g class="st5">
			<path class="st1" d="M337.4,364.7c-79.3,9.2-166.2-22.1-193.7-69.7s14.7-93.8,94-102.9c79.3-9.2,166.2,22.1,193.7,69.7
				C459,309.4,416.8,355.5,337.4,364.7z M241.5,198.5c-73.4,8.5-112.4,51.2-87,95.2s105.8,73,179.2,64.5s112.4-51.2,87-95.2
				C395.3,219,314.9,190.1,241.5,198.5z"/>
		</g>
		<g class="st6">
			<path class="st1" d="M343.9,375.8c-89.5,10.3-187.6-25-218.6-78.7S141.8,191.3,231.4,181c89.5-10.3,187.6,25,218.6,78.7
				S433.4,365.5,343.9,375.8z M235.1,187.4c-83.6,9.7-128,58.3-99.1,108.5c29,50.1,120.5,83.1,204.1,73.4s128-58.3,99.1-108.5
				C410.2,210.7,318.7,177.8,235.1,187.4z"/>
		</g>
		<g class="st7">
			<path class="st1" d="M350.6,387.6c-100.3,11.6-210.3-28-245-88.2c-34.8-60.2,18.6-118.6,118.9-130.2
				c100.3-11.6,210.3,28,245,88.2C504.4,317.6,451,376,350.6,387.6z M228.3,175.7c-94.4,10.9-144.6,65.8-111.9,122.5
				s136.1,93.9,230.5,83s144.6-65.8,111.9-122.5S322.7,164.8,228.3,175.7z"/>
		</g>
		<g class="st8">
			<path class="st1" d="M357.7,399.8c-111.6,12.9-233.8-31.1-272.5-98c-38.6-67,20.7-132,132.3-144.8
				c111.6-12.9,233.8,31.1,272.5,98C528.6,322,469.3,386.9,357.7,399.8z M221.2,163.4C115.6,175.6,59.4,237.1,96,300.5
				s152.3,105,257.9,92.8s161.8-73.7,125.2-137.1S326.9,151.2,221.2,163.4z"/>
		</g>
		<g class="st9">
			<path class="st1" d="M365.1,412.6C241.8,426.8,106.7,378.2,64,304.2s22.9-145.8,146.2-160s258.4,34.4,301.1,108.4
				C554,326.5,488.4,398.3,365.1,412.6z M213.9,150.7C96.5,164.2,34.1,232.5,74.7,303S244,419.6,361.3,406.1s179.8-81.9,139.1-152.3
				S331.2,137.1,213.9,150.7z"/>
		</g>
		<g class="st10">
			<path class="st1" d="M372.5,426c-65.4,7.6-135.8-0.6-198-23c-62.3-22.4-109.1-56.4-131.7-95.6s-18.5-79.1,11.7-112.2
				s82.9-55.5,148.3-63c65.4-7.6,135.8,0.6,198,23c62.3,22.4,109.1,56.4,131.7,95.6S551,329.9,520.8,363
				C490.7,396.1,438,418.5,372.5,426z M206.6,138.7c-129.1,14.9-197.8,90-153,167.5s186.1,128.4,315.3,113.4
				c129.1-14.9,197.8-90.1,153-167.5S335.7,123.8,206.6,138.7z"/>
		</g>
	</g>
</g>
<g>
	<path class="st11" d="M237.6,405l-108.4-62.6c-4.1-2.3-3.5-6.4,1.1-9.1l207.9-120c4.7-2.7,11.8-3,15.8-0.7l108.4,62.6
		c4.1,2.3,3.5,6.4-1.1,9.1l-207.9,120C248.7,407,241.6,407.3,237.6,405z"/>
	<polygon class="st12" points="446.8,248.6 417.3,231.6 446.8,214.5 476.3,231.6 	"/>
	<g>
		<g>
			<path class="st13" d="M487.9,233.7l-15.7,2.7l-110.4-63.7c-4.6-2.7-12.6-2.3-17.9,0.7L131.2,296.2l-27.6,4.8v9l0,0
				c0,1.7,1,3.4,3.1,4.6l123,71c4.6,2.7,12.6,2.3,17.9-0.7l235.8-136.1c2.9-1.7,4.4-3.8,4.4-5.8l0,0v-9.3L487.9,233.7L487.9,233.7z"
				/>
			<path class="st14" d="M487.9,233.7l-15.7,2.7l-110.4-63.7c-4.6-2.7-12.6-2.3-17.9,0.7L131.2,296.2l-27.6,4.8v9l0,0
				c0,1.7,1,3.4,3.1,4.6l123,71c4.6,2.7,12.6,2.3,17.9-0.7l235.8-136.1c2.9-1.7,4.4-3.8,4.4-5.8l0,0v-9.3L487.9,233.7L487.9,233.7z"
				/>
			<path class="st15" d="M483.5,243.2L247.7,379.3c-5.3,3.1-13.3,3.4-17.9,0.7l-123-71c-2.1-1.2-3.1-2.9-3.1-4.6l0,0v2.4l0,0
				c0,1.7,1,3.4,3.1,4.6l123,71c4.6,2.7,12.6,2.3,17.9-0.7l235.8-136.1c2.9-1.7,4.4-3.8,4.4-5.8l0,0v-2.4l0,0
				C487.8,239.4,486.4,241.5,483.5,243.2z"/>
			<path class="st16" d="M229.8,376.5l-123-71c-4.6-2.7-4-7.3,1.3-10.4L343.8,159c5.3-3.1,13.3-3.4,17.9-0.7l123,71
				c4.6,2.7,4,7.3-1.3,10.4l-235.7,136C242.4,378.8,234.4,379.1,229.8,376.5z"/>
			
				<linearGradient id="SVGID_1_" gradientUnits="userSpaceOnUse" x1="103.7034" y1="442.6419" x2="487.7966" y2="442.6419" gradientTransform="matrix(1 0 0 -1 0 710)">
				<stop  offset="0" style="stop-color:#1E339D"/>
				<stop  offset="1" style="stop-color:#1651BA"/>
			</linearGradient>
			<path class="st17" d="M229.8,376.5l-123-71c-4.6-2.7-4-7.3,1.3-10.4L343.8,159c5.3-3.1,13.3-3.4,17.9-0.7l123,71
				c4.6,2.7,4,7.3-1.3,10.4l-235.7,136C242.4,378.8,234.4,379.1,229.8,376.5z"/>
		</g>
		<g class="st18">
			
				<radialGradient id="SVGID_2_" cx="99.8649" cy="404.3618" r="154.6577" gradientTransform="matrix(1 0 0 -1 0 710)" gradientUnits="userSpaceOnUse">
				<stop  offset="0" style="stop-color:#42E8E0"/>
				<stop  offset="0.1022" style="stop-color:#3CCACE"/>
				<stop  offset="0.3445" style="stop-color:#2F87A5"/>
				<stop  offset="0.564" style="stop-color:#255385"/>
				<stop  offset="0.7534" style="stop-color:#1E2D6E"/>
				<stop  offset="0.905" style="stop-color:#1A1660"/>
				<stop  offset="1" style="stop-color:#180D5B"/>
			</radialGradient>
			<path class="st19" d="M487.9,231.9l-15.7,2.7l-110.4-63.7c-4.6-2.7-12.6-2.3-17.9,0.7L131.2,294.3l-27.6,4.8v1.7l0,0
				c0,1.7,1,3.4,3.1,4.6l123,71c4.6,2.7,12.6,2.3,17.9-0.7l235.8-136.1c2.9-1.7,4.4-3.8,4.4-5.8l0,0v-1.9L487.9,231.9L487.9,231.9z"
				/>
			
				<radialGradient id="SVGID_3_" cx="108.5268" cy="442.5299" r="319.1781" gradientTransform="matrix(1 0 0 -1 0 710)" gradientUnits="userSpaceOnUse">
				<stop  offset="0" style="stop-color:#42E8E0"/>
				<stop  offset="0.1022" style="stop-color:#3CCACE"/>
				<stop  offset="0.3445" style="stop-color:#2F87A5"/>
				<stop  offset="0.564" style="stop-color:#255385"/>
				<stop  offset="0.7534" style="stop-color:#1E2D6E"/>
				<stop  offset="0.905" style="stop-color:#1A1660"/>
				<stop  offset="1" style="stop-color:#180D5B"/>
			</radialGradient>
			<path class="st20" d="M229.8,374.6l-123-71c-4.6-2.7-4-7.3,1.3-10.4l235.8-136.1c5.3-3.1,13.3-3.4,17.9-0.7l123,71
				c4.6,2.7,4,7.3-1.3,10.4l-235.8,136C242.4,376.9,234.4,377.2,229.8,374.6z"/>
			<path class="st21" d="M229.8,374.6l-123-71c-4.6-2.7-4-7.3,1.3-10.4l235.8-136.1c5.3-3.1,13.3-3.4,17.9-0.7l123,71
				c4.6,2.7,4,7.3-1.3,10.4l-235.8,136C242.4,376.9,234.4,377.2,229.8,374.6z"/>
		</g>
		<g>
			<path class="st22" d="M172.7,348.2L172.7,348.2c0,1.1-0.7,1.6-1.5,1.1l-9.6-5.6c-0.8-0.5-1.5-1.7-1.5-2.8l0,0
				c0-1.1,0.7-1.6,1.5-1.1l9.6,5.6C172,345.9,172.7,347.1,172.7,348.2z"/>
			<g>
				<g>
					<path class="st22" d="M199.7,363.8c0,0.9-0.6,1.2-1.4,0.8c-0.8-0.4-1.4-1.5-1.4-2.4s0.6-1.2,1.4-0.8
						C199.1,361.9,199.7,363,199.7,363.8z"/>
					<path class="st22" d="M205.2,367c0,0.9-0.6,1.2-1.4,0.8c-0.8-0.4-1.4-1.5-1.4-2.4s0.6-1.2,1.4-0.8
						C204.6,365,205.2,366.1,205.2,367z"/>
					<path class="st22" d="M210.6,370.1c0,0.9-0.6,1.2-1.4,0.8c-0.8-0.4-1.4-1.5-1.4-2.4s0.6-1.2,1.4-0.8
						C210,368.2,210.6,369.2,210.6,370.1z"/>
				</g>
				<g>
					<path class="st22" d="M124.8,320.6c0,0.9-0.6,1.2-1.4,0.8c-0.8-0.4-1.4-1.5-1.4-2.4s0.6-1.2,1.4-0.8
						C124.2,318.7,124.8,319.7,124.8,320.6z"/>
					<path class="st22" d="M130.3,323.7c0,0.9-0.6,1.2-1.4,0.8c-0.8-0.4-1.4-1.5-1.4-2.4s0.6-1.2,1.4-0.8
						C129.7,321.8,130.3,322.9,130.3,323.7z"/>
					<path class="st22" d="M135.7,326.9c0,0.9-0.6,1.2-1.4,0.8c-0.8-0.4-1.4-1.5-1.4-2.4s0.6-1.2,1.4-0.8
						C135.1,324.9,135.7,326,135.7,326.9z"/>
				</g>
			</g>
		</g>
		
			<radialGradient id="SVGID_4_" cx="133.8477" cy="427.204" r="261.207" gradientTransform="matrix(1 0 0 -1 0 710)" gradientUnits="userSpaceOnUse">
			<stop  offset="0" style="stop-color:#67EFEE"/>
			<stop  offset="0.234" style="stop-color:#62D0F2"/>
			<stop  offset="0.5654" style="stop-color:#5DABF7"/>
			<stop  offset="0.8325" style="stop-color:#5993FA"/>
			<stop  offset="1" style="stop-color:#588BFB"/>
		</radialGradient>
		<path class="st23" d="M229.8,374.6l-123-71c-4.6-2.7-4-7.3,1.3-10.4l235.8-136.1c5.3-3.1,13.3-3.4,17.9-0.7l123,71
			c4.6,2.7,4,7.3-1.3,10.4l-235.8,136C242.4,376.9,234.4,377.2,229.8,374.6z"/>
		<path class="st15" d="M229.8,374.6l-123-71c-4.6-2.7-4-7.3,1.3-10.4l235.8-136.1c5.3-3.1,13.3-3.4,17.9-0.7l123,71
			c4.6,2.7,4,7.3-1.3,10.4l-235.8,136C242.4,376.9,234.4,377.2,229.8,374.6z"/>
		<path class="st13" d="M256,352.4l-111.2-64.2c-4.2-2.4-3.6-6.6,1.2-9.4l198.2-114.5c4.8-2.8,12.1-3.1,16.2-0.7l111.2,64.2
			c4.2,2.4,3.6,6.6-1.2,9.4L272.2,351.7C267.4,354.5,260.1,354.8,256,352.4z"/>
		<path class="st24" d="M231.9,374.5l-123-71c-5-3-5.9-6.2,1.3-10.4L345.9,157c2.4-1.4,5.3-2.2,8.3-2.4c-3.6,0-7.4,0.8-10.4,2.5
			L108.1,293.2c-5.3,3.1-5.9,7.7-1.3,10.4l123,71c2.5,1.5,6.1,2,9.7,1.7C236.6,376.3,233.9,375.7,231.9,374.5z"/>
	</g>
	<path class="st25" d="M313,365.3c-0.1,0-0.2,0-0.3-0.1l-18.6-10.7c-0.2-0.1-0.3-0.5-0.2-0.7c0.1-0.2,0.5-0.3,0.7-0.2l18.6,10.7
		c0.2,0.1,0.3,0.5,0.2,0.7C313.3,365.2,313.1,365.3,313,365.3z"/>
	<path class="st25" d="M392.3,319.3c-0.1,0-0.2,0-0.3-0.1l-18.6-10.7c-0.2-0.1-0.3-0.5-0.2-0.7c0.1-0.2,0.5-0.3,0.7-0.2l18.6,10.7
		c0.2,0.1,0.3,0.5,0.2,0.7C392.6,319.2,392.4,319.3,392.3,319.3z"/>
	<path class="st25" d="M470.4,274.2c-0.1,0-0.2,0-0.3-0.1l-18.6-10.7c-0.2-0.1-0.3-0.5-0.2-0.7c0.1-0.2,0.5-0.3,0.7-0.2l18.6,10.7
		c0.2,0.1,0.3,0.5,0.2,0.7C470.7,274.1,470.5,274.2,470.4,274.2z"/>
	<g>
		<path class="st26" d="M454.2,338c0.5,0.3,0.5,0.7,0,1s-1.3,0.3-1.7,0c-0.5-0.3-0.5-0.7,0-1C452.9,337.8,453.7,337.8,454.2,338z"/>
		<path class="st26" d="M456.9,336.5c0.5,0.3,0.5,0.7,0,1s-1.3,0.3-1.7,0c-0.5-0.3-0.5-0.7,0-1C455.7,336.2,456.4,336.2,456.9,336.5
			z"/>
		<path class="st26" d="M459.6,334.9c0.5,0.3,0.5,0.7,0,1s-1.3,0.3-1.7,0c-0.5-0.3-0.5-0.7,0-1S459.2,334.6,459.6,334.9z"/>
	</g>
	<g>
		<path class="st26" d="M533.7,292c0.5,0.3,0.5,0.7,0,1s-1.3,0.3-1.7,0c-0.5-0.3-0.5-0.7,0-1C532.5,291.8,533.2,291.8,533.7,292z"/>
		<path class="st26" d="M536.4,290.5c0.5,0.3,0.5,0.7,0,1s-1.3,0.3-1.7,0c-0.5-0.3-0.5-0.7,0-1S536,290.2,536.4,290.5z"/>
		<path class="st26" d="M539.2,288.9c0.5,0.3,0.5,0.7,0,1s-1.3,0.3-1.7,0c-0.5-0.3-0.5-0.7,0-1C537.9,288.6,538.7,288.6,539.2,288.9
			z"/>
	</g>
</g>
<g>
	
		<linearGradient id="SVGID_5_" gradientUnits="userSpaceOnUse" x1="36.1701" y1="302.7981" x2="36.1701" y2="536.4006" gradientTransform="matrix(1 0 0 -1 0 710)">
		<stop  offset="0" style="stop-color:#56CCC5"/>
		<stop  offset="1" style="stop-color:#FFFFFF;stop-opacity:0"/>
	</linearGradient>
	<path class="st27" d="M36.1,173.6C36,252,36,329,36.3,407.2"/>
	
		<linearGradient id="SVGID_6_" gradientUnits="userSpaceOnUse" x1="86.1701" y1="332.7982" x2="86.1701" y2="581.2006" gradientTransform="matrix(1 0 0 -1 0 710)">
		<stop  offset="0" style="stop-color:#56CCC5"/>
		<stop  offset="1" style="stop-color:#FFFFFF;stop-opacity:0"/>
	</linearGradient>
	<path class="st28" d="M86.1,128.8C86,212,86,294,86.3,377.2"/>
	
		<linearGradient id="SVGID_7_" gradientUnits="userSpaceOnUse" x1="136.1701" y1="359.7982" x2="136.1701" y2="611.0006" gradientTransform="matrix(1 0 0 -1 0 710)">
		<stop  offset="0" style="stop-color:#56CCC5"/>
		<stop  offset="1" style="stop-color:#FFFFFF;stop-opacity:0"/>
	</linearGradient>
	<path class="st29" d="M136.1,99c-0.1,84-0.1,167,0.2,251.2"/>
	
		<linearGradient id="SVGID_8_" gradientUnits="userSpaceOnUse" x1="186.1803" y1="398.7982" x2="186.1803" y2="650.6012" gradientTransform="matrix(1 0 0 -1 0 710)">
		<stop  offset="0" style="stop-color:#56CCC5"/>
		<stop  offset="1" style="stop-color:#FFFFFF;stop-opacity:0"/>
	</linearGradient>
	<path class="st30" d="M186.2,59.4C186,143,186,227,186.3,311.2"/>
	
		<linearGradient id="SVGID_9_" gradientUnits="userSpaceOnUse" x1="236.1803" y1="427.7982" x2="236.1803" y2="674.6012" gradientTransform="matrix(1 0 0 -1 0 710)">
		<stop  offset="0" style="stop-color:#56CCC5"/>
		<stop  offset="1" style="stop-color:#FFFFFF;stop-opacity:0"/>
	</linearGradient>
	<path class="st31" d="M236.2,35.4C236,117,236,200,236.3,282.2"/>
	
		<linearGradient id="SVGID_10_" gradientUnits="userSpaceOnUse" x1="382.1803" y1="509.7976" x2="382.1803" y2="697.4016" gradientTransform="matrix(1 0 0 -1 0 710)">
		<stop  offset="0" style="stop-color:#56CCC5"/>
		<stop  offset="1" style="stop-color:#FFFFFF;stop-opacity:0"/>
	</linearGradient>
	<path class="st32" d="M382.2,12.6C382,75,382,138,382.3,200.2"/>
	
		<linearGradient id="SVGID_11_" gradientUnits="userSpaceOnUse" x1="432.1803" y1="515.7971" x2="432.1803" y2="669.402" gradientTransform="matrix(1 0 0 -1 0 710)">
		<stop  offset="0" style="stop-color:#56CCC5"/>
		<stop  offset="1" style="stop-color:#FFFFFF;stop-opacity:0"/>
	</linearGradient>
	<path class="st33" d="M432.2,40.6C432,92,432,143,432.3,194.2"/>
	
		<linearGradient id="SVGID_12_" gradientUnits="userSpaceOnUse" x1="482.1701" y1="545.7956" x2="482.1701" y2="649.2015" gradientTransform="matrix(1 0 0 -1 0 710)">
		<stop  offset="0" style="stop-color:#56CCC5"/>
		<stop  offset="1" style="stop-color:#FFFFFF;stop-opacity:0"/>
	</linearGradient>
	<path class="st34" d="M482.1,60.8C482,95,482,130,482.3,164.2"/>
	
		<linearGradient id="SVGID_13_" gradientUnits="userSpaceOnUse" x1="532.2" y1="575.7972" x2="532.2" y2="629.2" gradientTransform="matrix(1 0 0 -1 0 710)">
		<stop  offset="0" style="stop-color:#56CCC5"/>
		<stop  offset="1" style="stop-color:#FFFFFF;stop-opacity:0"/>
	</linearGradient>
	<path class="st35" d="M532.1,80.8c0,17.8,0.1,35.6,0.2,53.4"/>
</g>
<g class="st4">
	
		<linearGradient id="SVGID_14_" gradientUnits="userSpaceOnUse" x1="480.9643" y1="510.8728" x2="400.9643" y2="729.8727" gradientTransform="matrix(1 0 0 -1 0 710)">
		<stop  offset="0" style="stop-color:#5F73E5"/>
		<stop  offset="1.698226e-02" style="stop-color:#6496E6;stop-opacity:0.98"/>
		<stop  offset="0.1886" style="stop-color:#ABCCED;stop-opacity:0.81"/>
		<stop  offset="0.36" style="stop-color:#C8D1F4;stop-opacity:0.64"/>
		<stop  offset="0.5286" style="stop-color:#D8F1F9;stop-opacity:0.4714"/>
		<stop  offset="0.6933" style="stop-color:#EEF9FC;stop-opacity:0.3067"/>
		<stop  offset="0.8525" style="stop-color:#FBFDFE;stop-opacity:0.1475"/>
		<stop  offset="1" style="stop-color:#FFFFFF;stop-opacity:0"/>
	</linearGradient>
	<polygon class="st36" points="354.4,48 354.4,232 423.1,190.5 430.2,195.2 547.6,126.3 547.6,2.2 	"/>
</g>
<g>
	
		<linearGradient id="SVGID_15_" gradientUnits="userSpaceOnUse" x1="369.7683" y1="352.5372" x2="454.4278" y2="352.5372" gradientTransform="matrix(1 0 0 -1 0 710)">
		<stop  offset="0" style="stop-color:#0B0244"/>
		<stop  offset="1" style="stop-color:#0B0244"/>
	</linearGradient>
	<path class="st37" d="M407.2,380.9l-35.6-20.6c-2.7-1.6-2.4-4.3,0.8-6.1l34.1-19.7c3.1-1.8,7.8-2,10.6-0.4l35.6,20.6
		c2.7,1.6,2.4,4.3-0.8,6.1l-34.1,19.7C414.7,382.2,409.9,382.4,407.2,380.9z"/>
	<linearGradient id="SVGID_16_" gradientUnits="userSpaceOnUse" x1="359.4907" y1="344.6" x2="464.6231" y2="344.6">
		<stop  offset="0" style="stop-color:#E6F0FF"/>
		<stop  offset="0.3214" style="stop-color:#E0ECFF"/>
		<stop  offset="0.7488" style="stop-color:#CFE1FF"/>
		<stop  offset="1" style="stop-color:#C2D9FF"/>
	</linearGradient>
	<path class="st38" d="M464.6,341.3V333h-21.3l-25.2-14.5c-3.4-1.9-9.2-1.7-13.1,0.5l-24.2,14h-21.3v8.7l0,0
		c-0.1,1.3,0.6,2.6,2.2,3.5l44.2,25.5c3.4,1.9,9.2,1.7,13.1-0.5l42.3-24.4C463.7,344.5,464.8,342.9,464.6,341.3z"/>
	
		<linearGradient id="SVGID_17_" gradientUnits="userSpaceOnUse" x1="336.3592" y1="365.4" x2="441.4916" y2="365.4" gradientTransform="matrix(1 0 0 -1 0 710)">
		<stop  offset="0" style="stop-color:#6772EF"/>
		<stop  offset="8.404534e-02" style="stop-color:#599FE5"/>
		<stop  offset="0.3269" style="stop-color:#9CA8EF"/>
		<stop  offset="0.6038" style="stop-color:#C2C6EF"/>
		<stop  offset="0.8258" style="stop-color:#D9E9F0"/>
		<stop  offset="0.9649" style="stop-color:#E2E9F0"/>
		<stop  offset="1" style="stop-color:#4677FF"/>
	</linearGradient>
	<path class="st39" d="M464.6,341.3V333h-21.3l-25.2-14.5c-3.4-1.9-9.2-1.7-13.1,0.5l-24.2,14h-21.3v8.7l0,0
		c-0.1,1.3,0.6,2.6,2.2,3.5l44.2,25.5c3.4,1.9,9.2,1.7,13.1-0.5l42.3-24.4C463.7,344.5,464.8,342.9,464.6,341.3z"/>
	
		<linearGradient id="SVGID_18_" gradientUnits="userSpaceOnUse" x1="412.1" y1="365.3563" x2="464.6063" y2="365.3563" gradientTransform="matrix(1 0 0 -1 0 710)">
		<stop  offset="0" style="stop-color:#FDFEFF"/>
		<stop  offset="1" style="stop-color:#E2E9F0"/>
	</linearGradient>
	<path class="st40" d="M418.2,318.5c-1.6-0.9-3.8-1.4-6.1-1.3v54.9c2.5-0.1,5-0.7,7-1.8l42.3-24.4c2.2-1.3,3.3-3,3.2-4.5V333h-21.3
		L418.2,318.5z"/>
	<path class="st22" d="M406,362.1l-44.2-25.5c-3.4-1.9-2.9-5.3,0.9-7.6l42.3-24.4c3.9-2.2,9.7-2.5,13.1-0.5l44.2,25.5
		c3.4,1.9,2.9,5.3-0.9,7.6l-42.3,24.4C415.3,363.8,409.4,364,406,362.1z"/>
	<path class="st15" d="M406,362.1l-44.2-25.5c-3.4-1.9-2.9-5.3,0.9-7.6l42.3-24.4c3.9-2.2,9.7-2.5,13.1-0.5l44.2,25.5
		c3.4,1.9,2.9,5.3-0.9,7.6l-42.3,24.4C415.3,363.8,409.4,364,406,362.1z"/>
	<path class="st13" d="M407.2,356.4l-35.6-20.6c-2.7-1.6-2.4-4.3,0.8-6.1l34.1-19.7c3.1-1.8,7.8-2,10.6-0.4l35.6,20.6
		c2.7,1.6,2.4,4.3-0.8,6.1L417.8,356C414.7,357.8,409.9,358,407.2,356.4z"/>
	<path class="st24" d="M372.4,332.4l34.1-19.7c3.1-1.8,7.8-2,10.6-0.4l35.6,20.6c0.7,0.4,1.1,0.8,1.4,1.3c0.8-1.4,0.3-3-1.4-4
		L417,309.7c-2.7-1.6-7.4-1.4-10.6,0.4l-34.1,19.7c-2.4,1.4-3.1,3.2-2.2,4.8C370.6,333.8,371.3,333.1,372.4,332.4z"/>
	
		<linearGradient id="SVGID_19_" gradientUnits="userSpaceOnUse" x1="359.5908" y1="376.8979" x2="413.2187" y2="376.8979" gradientTransform="matrix(1 0 0 -1 0 710)">
		<stop  offset="0" style="stop-color:#42E8E0"/>
		<stop  offset="0.3131" style="stop-color:#31DFCB"/>
		<stop  offset="0.7348" style="stop-color:#1FD6B3"/>
		<stop  offset="1" style="stop-color:#18D2AB"/>
	</linearGradient>
	<path class="st41" d="M407.5,362.1l-44.2-25.5c-3.4-1.9-4.2-4.8,0.9-7.6l42.3-24.4c1.9-1.1,4.3-1.7,6.6-1.8
		c-2.8-0.1-5.8,0.5-8.1,1.8L362.8,329c-3.9,2.2-4.3,5.6-0.9,7.6l44.2,25.5c1.7,1,4.1,1.4,6.5,1.3
		C410.6,363.3,408.9,362.9,407.5,362.1z"/>
	<path class="st15" d="M461.5,340.8l-42.3,24.4c-3.9,2.2-9.7,2.5-13.1,0.5l-44.2-25.5c-1.6-0.9-2.3-2.2-2.2-3.5l0,0v1.8l0,0
		c-0.1,1.3,0.6,2.6,2.2,3.5l44.2,25.5c3.4,1.9,9.2,1.7,13.1-0.5l42.3-24.4c2.2-1.3,3.3-3,3.2-4.5v-1.8
		C464.8,337.8,463.7,339.5,461.5,340.8z"/>
</g>
<g>
	
		<linearGradient id="SVGID_20_" gradientUnits="userSpaceOnUse" x1="291.8683" y1="308.4" x2="376.5276" y2="308.4" gradientTransform="matrix(1 0 0 -1 0 710)">
		<stop  offset="0" style="stop-color:#0B0244"/>
		<stop  offset="1" style="stop-color:#0B0244"/>
	</linearGradient>
	<path class="st42" d="M329.3,425l-35.6-20.6c-2.7-1.6-2.4-4.3,0.8-6.1l34.1-19.7c3.1-1.8,7.8-2,10.6-0.4l35.6,20.6
		c2.7,1.6,2.4,4.3-0.8,6.1l-34.1,19.7C336.7,426.4,332,426.6,329.3,425z"/>
	<linearGradient id="SVGID_21_" gradientUnits="userSpaceOnUse" x1="281.5907" y1="388.8" x2="386.7068" y2="388.8">
		<stop  offset="0" style="stop-color:#E6F0FF"/>
		<stop  offset="0.3214" style="stop-color:#E0ECFF"/>
		<stop  offset="0.7488" style="stop-color:#CFE1FF"/>
		<stop  offset="1" style="stop-color:#C2D9FF"/>
	</linearGradient>
	<path class="st43" d="M386.7,385.4v-8.2h-21.3l-25.2-14.5c-3.4-1.9-9.2-1.7-13.1,0.5l-24.2,14h-21.3v8.7l0,0
		c-0.1,1.3,0.6,2.6,2.2,3.5l44.2,25.5c3.4,1.9,9.2,1.7,13.1-0.5l42.3-24.4C385.8,388.7,386.8,387,386.7,385.4z"/>
	
		<linearGradient id="SVGID_22_" gradientUnits="userSpaceOnUse" x1="258.4421" y1="321.2" x2="363.5583" y2="321.2" gradientTransform="matrix(1 0 0 -1 0 710)">
		<stop  offset="0" style="stop-color:#67EFEE"/>
		<stop  offset="8.369665e-03" style="stop-color:#68EFEE"/>
		<stop  offset="0.3269" style="stop-color:#9CECEF"/>
		<stop  offset="0.6038" style="stop-color:#C2EBEF"/>
		<stop  offset="0.8258" style="stop-color:#D9E9F0"/>
		<stop  offset="0.9649" style="stop-color:#E2E9F0"/>
		<stop  offset="1" style="stop-color:#2CA192"/>
	</linearGradient>
	<path class="st44" d="M386.7,385.4v-8.2h-21.3l-25.2-14.5c-3.4-1.9-9.2-1.7-13.1,0.5l-24.2,14h-21.3v8.7l0,0
		c-0.1,1.3,0.6,2.6,2.2,3.5l44.2,25.5c3.4,1.9,9.2,1.7,13.1-0.5l42.3-24.4C385.8,388.7,386.8,387,386.7,385.4z"/>
	
		<linearGradient id="SVGID_23_" gradientUnits="userSpaceOnUse" x1="334.2" y1="321.1563" x2="386.7062" y2="321.1563" gradientTransform="matrix(1 0 0 -1 0 710)">
		<stop  offset="0" style="stop-color:#FDFEFF"/>
		<stop  offset="1" style="stop-color:#E2E9F0"/>
	</linearGradient>
	<path class="st45" d="M340.3,362.7c-1.6-0.9-3.8-1.4-6.1-1.3v54.9c2.5-0.1,5-0.7,7-1.8l42.3-24.4c2.2-1.3,3.3-3,3.2-4.5v-8.2h-21.3
		L340.3,362.7z"/>
	<path class="st22" d="M328.1,406.2l-44.2-25.5c-3.4-1.9-2.9-5.3,0.9-7.6l42.3-24.4c3.9-2.2,9.7-2.5,13.1-0.5l44.2,25.5
		c3.4,1.9,2.9,5.3-0.9,7.6l-42.3,24.4C337.3,407.9,331.5,408.1,328.1,406.2z"/>
	<path class="st15" d="M328.1,406.2l-44.2-25.5c-3.4-1.9-2.9-5.3,0.9-7.6l42.3-24.4c3.9-2.2,9.7-2.5,13.1-0.5l44.2,25.5
		c3.4,1.9,2.9,5.3-0.9,7.6l-42.3,24.4C337.3,407.9,331.5,408.1,328.1,406.2z"/>
	<path class="st46" d="M329.3,400.6L293.7,380c-2.7-1.6-2.4-4.3,0.8-6.1l34.1-19.7c3.1-1.8,7.8-2,10.6-0.4l35.6,20.6
		c2.7,1.6,2.4,4.3-0.8,6.1l-34.1,19.7C336.7,401.9,332,402.1,329.3,400.6z"/>
	<path class="st47" d="M294.5,376.6l34.1-19.7c3.1-1.8,7.8-2,10.6-0.4l35.6,20.6c0.7,0.4,1.1,0.8,1.4,1.3c0.8-1.4,0.3-3-1.4-4
		l-35.6-20.6c-2.7-1.6-7.4-1.4-10.6,0.4l-34.1,19.7c-2.4,1.4-3.1,3.2-2.2,4.8C292.7,377.9,293.4,377.2,294.5,376.6z"/>
	<path class="st47" d="M329.6,406.2l-44.2-25.5c-3.4-1.9-4.2-4.8,0.9-7.6l42.3-24.4c1.9-1.1,4.3-1.7,6.6-1.8
		c-2.8-0.1-5.8,0.5-8.1,1.8l-42.3,24.4c-3.9,2.2-4.3,5.6-0.9,7.6l44.2,25.5c1.7,1,4.1,1.4,6.5,1.3C332.7,407.4,331,407,329.6,406.2z
		"/>
	<path class="st15" d="M383.5,384.9l-42.3,24.4c-3.9,2.2-9.7,2.5-13.1,0.5l-44.2-25.5c-1.6-0.9-2.3-2.2-2.2-3.5l0,0v1.8l0,0
		c-0.1,1.3,0.6,2.6,2.2,3.5l44.2,25.5c3.4,1.9,9.2,1.7,13.1-0.5l42.3-24.4c2.2-1.3,3.3-3,3.2-4.5v-1.8
		C386.8,382,385.8,383.6,383.5,384.9z"/>
</g>
<g>
	
		<linearGradient id="SVGID_24_" gradientUnits="userSpaceOnUse" x1="446.5683" y1="398.5" x2="531.2277" y2="398.5" gradientTransform="matrix(1 0 0 -1 0 710)">
		<stop  offset="0" style="stop-color:#0B0244"/>
		<stop  offset="1" style="stop-color:#0B0244"/>
	</linearGradient>
	<path class="st48" d="M484,334.9l-35.6-20.6c-2.7-1.6-2.4-4.3,0.8-6.1l34.1-19.7c3.1-1.8,7.8-2,10.6-0.4l35.6,20.6
		c2.7,1.6,2.4,4.3-0.8,6.1l-34.1,19.7C491.4,336.3,486.7,336.5,484,334.9z"/>
	<linearGradient id="SVGID_25_" gradientUnits="userSpaceOnUse" x1="436.3907" y1="298.7" x2="541.4063" y2="298.7">
		<stop  offset="0" style="stop-color:#E6F0FF"/>
		<stop  offset="0.3214" style="stop-color:#E0ECFF"/>
		<stop  offset="0.7488" style="stop-color:#CFE1FF"/>
		<stop  offset="1" style="stop-color:#C2D9FF"/>
	</linearGradient>
	<path class="st49" d="M541.4,295.3v-8.2h-21.3L495,272.6c-3.4-1.9-9.2-1.7-13.1,0.5l-24.2,14h-21.3v8.7l0,0
		c-0.1,1.3,0.6,2.6,2.2,3.5l44.2,25.5c3.4,1.9,9.2,1.7,13.1-0.5l42.3-24.4C540.4,298.6,541.5,296.9,541.4,295.3z"/>
	
		<linearGradient id="SVGID_26_" gradientUnits="userSpaceOnUse" x1="413.1108" y1="411.3" x2="518.1265" y2="411.3" gradientTransform="matrix(1 0 0 -1 0 710)">
		<stop  offset="0" style="stop-color:#67EFEE"/>
		<stop  offset="8.369665e-03" style="stop-color:#68EFEE"/>
		<stop  offset="0.3269" style="stop-color:#9CECEF"/>
		<stop  offset="0.6038" style="stop-color:#C2EBEF"/>
		<stop  offset="0.8258" style="stop-color:#D9E9F0"/>
		<stop  offset="0.9649" style="stop-color:#E2E9F0"/>
		<stop  offset="1" style="stop-color:#2CA192"/>
	</linearGradient>
	<path class="st50" d="M541.4,295.3v-8.2h-21.3L495,272.6c-3.4-1.9-9.2-1.7-13.1,0.5l-24.2,14h-21.3v8.7l0,0
		c-0.1,1.3,0.6,2.6,2.2,3.5l44.2,25.5c3.4,1.9,9.2,1.7,13.1-0.5l42.3-24.4C540.4,298.6,541.5,296.9,541.4,295.3z"/>
	
		<linearGradient id="SVGID_27_" gradientUnits="userSpaceOnUse" x1="488.9" y1="411.2563" x2="541.4063" y2="411.2563" gradientTransform="matrix(1 0 0 -1 0 710)">
		<stop  offset="0" style="stop-color:#FDFEFF"/>
		<stop  offset="1" style="stop-color:#E2E9F0"/>
	</linearGradient>
	<path class="st51" d="M495,272.6c-1.6-0.9-3.8-1.4-6.1-1.3v54.9c2.5-0.1,5-0.7,7-1.8l42.3-24.4c2.2-1.3,3.3-3,3.2-4.5v-8.2h-21.3
		L495,272.6z"/>
	<path class="st22" d="M482.8,316.1l-44.2-25.5c-3.4-1.9-2.9-5.3,0.9-7.6l42.3-24.4c3.9-2.2,9.7-2.5,13.1-0.5l44.2,25.5
		c3.4,1.9,2.9,5.3-0.9,7.6l-42.3,24.4C492,317.8,486.2,318.1,482.8,316.1z"/>
	<path class="st15" d="M482.8,316.1l-44.2-25.5c-3.4-1.9-2.9-5.3,0.9-7.6l42.3-24.4c3.9-2.2,9.7-2.5,13.1-0.5l44.2,25.5
		c3.4,1.9,2.9,5.3-0.9,7.6l-42.3,24.4C492,317.8,486.2,318.1,482.8,316.1z"/>
	<path class="st46" d="M484,310.5l-35.6-20.6c-2.7-1.6-2.4-4.3,0.8-6.1l34.1-19.7c3.1-1.8,7.8-2,10.6-0.4l35.6,20.6
		c2.7,1.6,2.4,4.3-0.8,6.1L494.5,310C491.4,311.8,486.7,312,484,310.5z"/>
	<path class="st47" d="M449.1,286.5l34.1-19.7c3.1-1.8,7.8-2,10.6-0.4l35.6,20.6c0.7,0.4,1.1,0.8,1.4,1.3c0.8-1.4,0.3-3-1.4-4
		l-35.6-20.6c-2.7-1.6-7.4-1.4-10.6,0.4l-34.1,19.7c-2.4,1.4-3.1,3.2-2.2,4.8C447.3,287.8,448.1,287.1,449.1,286.5z"/>
	<path class="st47" d="M484.3,316.1l-44.2-25.5c-3.4-1.9-4.2-4.8,0.9-7.6l42.3-24.4c1.9-1.1,4.3-1.7,6.6-1.8
		c-2.8-0.1-5.8,0.5-8.1,1.8L439.5,283c-3.9,2.2-4.3,5.6-0.9,7.6l44.2,25.5c1.7,1,4.1,1.4,6.5,1.3
		C487.4,317.3,485.6,316.9,484.3,316.1z"/>
	<path class="st15" d="M538.2,294.8l-42.3,24.4c-3.9,2.2-9.7,2.5-13.1,0.5l-44.2-25.5c-1.6-0.9-2.3-2.2-2.2-3.5l0,0v1.8l0,0
		c-0.1,1.3,0.6,2.6,2.2,3.5l44.2,25.5c3.4,1.9,9.2,1.7,13.1-0.5l42.3-24.4c2.2-1.3,3.3-3,3.2-4.5v-1.8
		C541.5,291.9,540.4,293.5,538.2,294.8z"/>
</g>
<g>
	<g>
		<path class="st13" d="M497.6,293.9l-4.6-2l-3.3,2l3.6,2.6l-4.2,2.5l-17.3-14.3l5-3l25,9.7L497.6,293.9z M478.4,285.4l8,5.9
			l2.4-1.4L478.4,285.4z"/>
		<path class="st13" d="M503.5,290.4l-21.2-12l4.2-2.5l21.2,12L503.5,290.4z"/>
	</g>
</g>
<g class="st52">
	
		<linearGradient id="SVGID_28_" gradientUnits="userSpaceOnUse" x1="400.8" y1="215.5701" x2="417.2592" y2="215.5701" gradientTransform="matrix(1 0 0 1 0 130)">
		<stop  offset="0" style="stop-color:#165DCB"/>
		<stop  offset="1" style="stop-color:#0E7AE7"/>
	</linearGradient>
	<path class="st53" d="M415,344.1c1.3,0.7,2,1.4,2.2,2.1s-0.1,1.3-1,1.9l-3.5,2.1l-11.9-6.8l2.6-1.5l0.8-0.4
		c0.3-0.1,0.5-0.2,0.8-0.3c0.9-0.3,1.8-0.3,2.9-0.2c1.3,0.1,2.6,0.6,3.9,1.3L415,344.1z M406.8,342.9c-0.5,0-0.9,0.2-1.4,0.4
		l7.5,4.3c0.6-0.3,0.9-0.7,0.9-0.9c0-0.3-0.2-0.5-0.6-0.7l-4.1-2.4C408.3,343.1,407.6,342.8,406.8,342.9z"/>
	
		<linearGradient id="SVGID_29_" gradientUnits="userSpaceOnUse" x1="410.1" y1="211.2" x2="427" y2="211.2" gradientTransform="matrix(1 0 0 1 0 130)">
		<stop  offset="0" style="stop-color:#165DCB"/>
		<stop  offset="1" style="stop-color:#0E7AE7"/>
	</linearGradient>
	<path class="st54" d="M424.7,343.2l-2.6-1.1l-1.9,1.1l2,1.5l-2.4,1.4l-9.7-8.1l2.8-1.7l14.1,5.5L424.7,343.2z M413.9,338.4l4.5,3.4
		l1.3-0.8L413.9,338.4z"/>
	
		<linearGradient id="SVGID_30_" gradientUnits="userSpaceOnUse" x1="414.9" y1="206.2" x2="431.1" y2="206.2" gradientTransform="matrix(1 0 0 1 0 130)">
		<stop  offset="0" style="stop-color:#165DCB"/>
		<stop  offset="1" style="stop-color:#0E7AE7"/>
	</linearGradient>
	<path class="st55" d="M421.5,334l9.6,5.5l-2.4,1.4l-9.6-5.5l-1.9,1.1l-2.3-1.3l6.3-3.7l2.3,1.3L421.5,334z"/>
	
		<linearGradient id="SVGID_31_" gradientUnits="userSpaceOnUse" x1="423" y1="203.6" x2="439.9" y2="203.6" gradientTransform="matrix(1 0 0 1 0 130)">
		<stop  offset="0" style="stop-color:#165DCB"/>
		<stop  offset="1" style="stop-color:#0E7AE7"/>
	</linearGradient>
	<path class="st56" d="M437.6,335.6l-2.6-1.1l-1.9,1.1l2,1.5l-2.4,1.4l-9.7-8.1l2.8-1.7l14.1,5.5L437.6,335.6z M426.8,330.8l4.5,3.4
		l1.3-0.8L426.8,330.8z"/>
</g>
<g>
	<path class="st13" d="M329.4,392l-19-10.8l3.8-2.2l19,10.8L329.4,392z"/>
	<path class="st13" d="M337.8,377.1l1.3,0.8l1.6,1l0.8,0.5l0.5,0.4c1.3,1.1,1.8,2.1,1.7,3c-0.2,0.9-1,1.8-2.5,2.7
		c-1.6,0.9-3.3,1.4-5.1,1.3c-1.5-0.1-3.2-0.5-5.1-1.3c-1.1-0.5-2.8-1.4-5-2.6s-3.7-2.2-4.6-2.8c-1.5-1.1-2.2-2-2.3-2.9
		c-0.1-1.1,0.7-2.1,2.3-3.1c1.7-1,3.4-1.5,5.2-1.4c1.8,0.1,3.8,0.6,6,1.7l1.7,0.9l1.4,0.8l1,0.5L337.8,377.1z M331.5,378l-1.8-1
		c-1.2-0.7-2.2-1-3-1.1c-0.7-0.1-1.3,0.1-2,0.4c-0.6,0.4-0.4,1,0.6,1.8l0.7,0.5l1.3,0.8l3.1,1.8l2.8,1.6c0.8,0.5,1.5,0.8,2,0.9
		c1,0.3,1.8,0.2,2.5-0.2c0.7-0.4,0.6-1-0.2-1.7c-0.4-0.3-1.1-0.8-2-1.3l-2.3-1.3L331.5,378z"/>
	<path class="st13" d="M339.1,368.5l15.3,8.7l-3.8,2.2l-15.3-8.7l-3,1.8l-3.7-2.1l10-5.9l3.7,2.1L339.1,368.5z"/>
</g>
<g class="st52">
	
		<linearGradient id="SVGID_32_" gradientUnits="userSpaceOnUse" x1="386.5" y1="202.8" x2="404.5047" y2="202.8" gradientTransform="matrix(1 0 0 1 0 130)">
		<stop  offset="0" style="stop-color:#165DCB"/>
		<stop  offset="1" style="stop-color:#0E7AE7"/>
	</linearGradient>
	<path class="st57" d="M404.3,333.3c0.3,0.6,0.3,1.2-0.2,1.8l-0.2,0.2l-0.3,0.2l-4.1,2.5l-13-7.3l2.8-1.6l0.6-0.3
		c0.2-0.1,0.4-0.2,0.6-0.3c0.2-0.1,0.4-0.2,0.5-0.3c0.1,0,0.1,0,0.2-0.1c0.1,0,0.2,0,0.2-0.1c0.7-0.3,1.6-0.4,2.4-0.4
		c0.9,0.1,1.7,0.3,2.4,0.7c0.8,0.4,1.3,0.8,1.5,1.2c0.2,0.3,0.3,0.7,0.4,1.2c0.8-0.1,1.5-0.1,2.3,0c0.7,0.1,1.4,0.4,2.1,0.8
		C403.4,332.2,404,332.7,404.3,333.3z M392.6,329.9c-0.4,0.1-0.9,0.2-1.4,0.5l3,1.7c0.5-0.3,0.8-0.6,0.9-0.9s-0.2-0.7-0.8-1
		C393.7,329.9,393.2,329.8,392.6,329.9z M397.9,332.7c-0.5,0.1-1,0.3-1.5,0.6l3.4,1.9c0.6-0.4,0.9-0.7,1-1c0-0.4-0.3-0.7-1-1.1
		C399.2,332.8,398.6,332.6,397.9,332.7z"/>
	
		<linearGradient id="SVGID_33_" gradientUnits="userSpaceOnUse" x1="394.9" y1="198.6" x2="410.4" y2="198.6" gradientTransform="matrix(1 0 0 1 0 130)">
		<stop  offset="0" style="stop-color:#165DCB"/>
		<stop  offset="1" style="stop-color:#0E7AE7"/>
	</linearGradient>
	<path class="st58" d="M407.9,333l-13-7.3l2.5-1.5l13,7.3L407.9,333z"/>
	
		<linearGradient id="SVGID_34_" gradientUnits="userSpaceOnUse" x1="400.7045" y1="194.6735" x2="418.9" y2="194.6735" gradientTransform="matrix(1 0 0 1 0 130)">
		<stop  offset="0" style="stop-color:#165DCB"/>
		<stop  offset="1" style="stop-color:#0E7AE7"/>
	</linearGradient>
	<path class="st59" d="M417.2,327.4l-0.9-0.4c0.1,0.3,0,0.7-0.1,1s-0.3,0.5-0.6,0.6l-0.2,0.1l-0.4,0.2l-0.5,0.2l-0.4,0.1
		c-0.8,0.2-1.7,0.2-2.7,0.1c-0.8-0.1-1.6-0.4-2.5-0.7c-0.8-0.4-1.9-0.9-3.2-1.7c-1.5-0.8-2.4-1.4-2.7-1.6c-1.2-0.8-2-1.6-2.2-2.2
		c-0.3-0.8,0.1-1.6,1.3-2.2c1.1-0.7,2.3-1,3.6-0.9c1.3,0,2.8,0.6,4.5,1.5l-2.4,1.5c-0.7-0.4-1.2-0.6-1.5-0.7c-0.7-0.2-1.2-0.3-1.6,0
		c-0.3,0.2-0.3,0.5,0,1c0.3,0.3,1.7,1.1,4.4,2.6l1.5,0.8l1,0.5c0.2,0.1,0.4,0.2,0.6,0.2s0.4,0.1,0.7,0l0.5-0.1
		c0.1-0.1,0.2-0.2,0.3-0.3v-0.1v-0.2c0-0.3-0.4-0.6-1-1h-0.1l-1-0.6l-1,0.6l-2.3-1.3l3.5-2.1l7.1,4L417.2,327.4z"/>
</g>
<g>
	<g id="Layer_1_1_">
		<g class="st4">
			<polygon class="st13" points="179.7,273.9 187.8,278.5 196.6,274.5 188.5,269.6 			"/>
			<polygon class="st13" points="187.5,288.3 196.3,284 196.6,274.5 187.8,278.5 			"/>
			<polygon class="st13" points="179.7,273.9 187.8,278.5 187.5,288.3 179.4,283.4 			"/>
			<polygon class="st60" points="179.7,273.9 187.8,278.5 196.6,274.5 188.5,269.6 			"/>
			<polygon class="st24" points="187.5,288.3 196.3,284 196.6,274.5 187.8,278.5 			"/>
			<polygon class="st61" points="179.7,273.9 187.8,278.5 187.5,288.3 179.4,283.4 			"/>
		</g>
		<polygon class="st13" points="262.2,321.1 267.3,323.9 272.7,321.4 267.6,318.4 		"/>
		<polygon class="st13" points="267,330 272.5,327.3 272.7,321.4 267.3,323.9 		"/>
		<polygon class="st13" points="262.2,321.1 267.3,323.9 267,330 262,326.9 		"/>
		<polygon class="st62" points="262.2,321.1 267.3,323.9 272.7,321.4 267.6,318.4 		"/>
		<polygon class="st24" points="267,330 272.5,327.3 272.7,321.4 267.3,323.9 		"/>
		<polygon class="st63" points="262.2,321.1 267.3,323.9 267,330 262,326.9 		"/>
		<polygon class="st13" points="406.9,232.9 417.2,238.7 428.2,233.6 417.9,227.5 		"/>
		<polygon class="st13" points="416.7,251.1 427.8,245.6 428.2,233.6 417.2,238.7 		"/>
		<polygon class="st13" points="406.9,232.9 417.2,238.7 416.7,251.1 406.5,244.9 		"/>
		<polygon class="st62" points="406.9,232.9 417.2,238.7 428.2,233.6 417.9,227.5 		"/>
		<polygon class="st24" points="416.7,251.1 427.8,245.6 428.2,233.6 417.2,238.7 		"/>
		<polygon class="st63" points="406.9,232.9 417.2,238.7 416.7,251.1 406.5,244.9 		"/>
		<g class="st4">
			<polygon class="st13" points="408.3,65.2 416.4,69.8 425.1,65.7 417,60.9 			"/>
			<polygon class="st13" points="416.1,79.6 424.8,75.3 425.1,65.7 416.4,69.8 			"/>
			<polygon class="st13" points="408.3,65.2 416.4,69.8 416.1,79.6 407.9,74.7 			"/>
			<polygon class="st60" points="408.3,65.2 416.4,69.8 425.1,65.7 417,60.9 			"/>
			<polygon class="st64" points="416.1,79.6 424.8,75.3 425.1,65.7 416.4,69.8 			"/>
			<polygon class="st61" points="408.3,65.2 416.4,69.8 416.1,79.6 407.9,74.7 			"/>
		</g>
		<g class="st4">
			<polygon class="st13" points="328.1,22.1 333.4,24.8 338.9,22.1 333.6,19.2 			"/>
			<polygon class="st13" points="333.4,31.1 338.9,28.2 338.9,22.1 333.4,24.8 			"/>
			<polygon class="st13" points="328.1,22.1 333.4,24.8 333.4,31.1 328.1,28.2 			"/>
			
				<linearGradient id="SVGID_35_" gradientUnits="userSpaceOnUse" x1="328.0819" y1="-360" x2="338.8671" y2="-360" gradientTransform="matrix(1 0 0 1 0 382)">
				<stop  offset="0" style="stop-color:#6F6DFF"/>
				<stop  offset="1" style="stop-color:#60D5DE"/>
			</linearGradient>
			<polygon class="st65" points="328.1,22.1 333.4,24.8 338.9,22.1 333.6,19.2 			"/>
			
				<linearGradient id="SVGID_36_" gradientUnits="userSpaceOnUse" x1="333.3753" y1="-355.4" x2="338.8671" y2="-355.4" gradientTransform="matrix(1 0 0 1 0 382)">
				<stop  offset="0" style="stop-color:#6F6DFF"/>
				<stop  offset="1" style="stop-color:#60D5DE"/>
			</linearGradient>
			<polygon class="st66" points="333.4,31.1 338.9,28.2 338.9,22.1 333.4,24.8 			"/>
			
				<linearGradient id="SVGID_37_" gradientUnits="userSpaceOnUse" x1="328.0819" y1="-355.4" x2="333.3753" y2="-355.4" gradientTransform="matrix(1 0 0 1 0 382)">
				<stop  offset="0" style="stop-color:#6F6DFF"/>
				<stop  offset="1" style="stop-color:#60D5DE"/>
			</linearGradient>
			<polygon class="st67" points="328.1,22.1 333.4,24.8 333.4,31.1 328.1,28.2 			"/>
		</g>
		<polygon class="st1" points="309.9,207.4 312,32.5 395.8,82.2 395.8,255 		"/>
		<polygon class="st68" points="313.1,204.3 315.2,29.3 399,79 399,251.9 		"/>
		<polygon class="st69" points="317.9,201.9 319.9,26.9 403.8,76.6 403.8,249.5 		"/>
		<path class="st70" d="M276.2,155.1c0-0.3,0-0.5,0-0.8h0.8c-0.1-0.6-0.2-1.2-0.4-1.8h-0.8c-0.1-0.5-0.3-1-0.5-1.5h0.6
			c-0.3-0.6-0.6-1.2-0.9-1.8h-0.7c-0.2-0.4-0.5-0.8-0.8-1.1l0.4-0.7c-0.4-0.5-0.8-0.9-1.3-1.3h-0.1l0,0h-0.1l0,0h-0.1l0,0h-0.2l0,0
			H272l0,0h-0.1l0,0h0.1l0,0l0,0l0,0h-0.1l0,0h-0.1c-0.2-0.1-0.3-0.2-0.4-0.3v-1.1c-0.4-0.2-0.9-0.4-1.3-0.5h-1l-0.2-0.6
			c-0.3,0-0.6,0.1-0.8,0.3h-1.8c-0.1,0-0.2,0.1-0.3,0.1l0.2,0.3h-1c-0.3,0.4-0.5,0.8-0.6,1.2l0.8,0.8l-0.1,0.2h-0.1l0,0h-0.3l0,0
			h-0.3l0,0h-0.3l0,0h-0.1c0,0.6,0,1.1,0,1.7l0.8,0.3c0,0.4,0.1,0.8,0.2,1.2h-0.7c0.2,0.6,0.4,1.2,0.7,1.8l0.7-0.2
			c0.2,0.5,0.5,1,0.8,1.5l-0.5,0.5c0.3,0.6,0.7,1.1,1.1,1.6h0.7c0.2,0.2,0.5,0.5,0.7,0.7l-0.2,0.9c0.2,0.2,0.4,0.3,0.7,0.5l0,0
			c0.2,0.1,0.4,0.3,0.7,0.4h1.1l0.2,1c0.4,0.1,0.8,0.1,1.2,0.1h1l0.1,0.1h1.8c0.3-0.2,0.6-0.5,0.9-0.8l-0.5-0.7h0.2l0,0l0,0l0,0h0.2
			l0,0h0.1l0,0h0.2l0,0h0.1l0,0h0.2l0,0l0,0c0.2-0.5,0.2-1,0.3-1.5l0,0L276.2,155.1z M271.3,154.8c-1.4-1.1-2.2-2.7-2.2-4.5
			c0-0.2,0.1-0.5,0.1-0.7c0.2,0.1,0.4,0.2,0.6,0.3c1.4,1.1,2.2,2.7,2.2,4.5c0,0.2-0.1,0.5-0.1,0.7
			C271.7,155.1,271.5,155,271.3,154.8L271.3,154.8z"/>
		
			<linearGradient id="SVGID_38_" gradientUnits="userSpaceOnUse" x1="264.1" y1="-229.15" x2="275.2344" y2="-229.15" gradientTransform="matrix(1 0 0 1 0 382)">
			<stop  offset="0" style="stop-color:#6F6DFF"/>
			<stop  offset="1" style="stop-color:#60D5DE"/>
		</linearGradient>
		<path class="st71" d="M274.4,156c0-0.5,0-1,0-1.5l0.8,0.3c-0.1-0.6-0.2-1.2-0.4-1.8H274c-0.2-0.5-0.3-1.1-0.6-1.6l0.7-0.2
			c-0.3-0.6-0.6-1.2-0.9-1.8l-0.5,0.5c-0.3-0.5-0.6-0.9-1-1.3l0.4-0.7c-0.4-0.5-0.8-0.9-1.3-1.3l-0.2,0.9c-0.2-0.2-0.4-0.3-0.6-0.4
			c-0.2-0.1-0.4-0.2-0.6-0.3v-1.1c-0.4-0.2-0.9-0.4-1.3-0.5l0.2,1.1c-0.3-0.1-0.7-0.1-1.1,0l-0.4-1.2c-0.4,0.1-0.8,0.2-1.1,0.4
			l0.6,1.1c-0.3,0.2-0.5,0.4-0.7,0.7l-0.7-1c-0.3,0.4-0.5,0.8-0.6,1.2l0.8,0.8c-0.1,0.4-0.2,0.8-0.2,1.3l0,0l-0.8-0.6
			c0,0.6,0,1.1,0,1.7l0.8,0.3c0.1,0.5,0.2,1.1,0.3,1.6h-0.8c0.2,0.6,0.4,1.2,0.7,1.8l0.7-0.2c0.2,0.5,0.5,1,0.8,1.5l-0.5,0.5
			c0.3,0.6,0.7,1.1,1.1,1.6l0.4-0.7c0.3,0.4,0.7,0.8,1.1,1.1l-0.2,0.9c0.2,0.2,0.4,0.3,0.7,0.5l0,0c0.2,0.1,0.4,0.3,0.7,0.4v-1
			c0.4,0.2,0.7,0.3,1.1,0.4l0.2,1.1c0.4,0.1,0.8,0.1,1.2,0.1l-0.4-1.2c0.3,0,0.6-0.2,0.9-0.3l0.6,1.1c0.3-0.2,0.6-0.5,0.9-0.8
			l-0.7-1c0.2-0.3,0.4-0.6,0.5-1l0.8,0.8c0.2-0.5,0.2-1,0.3-1.5l0,0L274.4,156z M269.4,155.7c-1.4-1.1-2.2-2.8-2.2-4.5
			c0.1-1.6,1.3-2.2,2.6-1.3c1.4,1.1,2.2,2.7,2.2,4.5C271.9,156,270.8,156.6,269.4,155.7z"/>
		<polygon class="st72" points="266.9,145.2 268.8,144.3 269,144.8 268.1,145.2 268.3,145.8 267.3,146.3 		"/>
		<path class="st73" d="M270,144.3h-1l-0.8,0.4l1.3,0.5l1.8-0.9c-0.4-0.2-0.9-0.4-1.3-0.5l0,0V144.3z"/>
		<polygon class="st72" points="271.4,145.9 269.5,146.8 269.5,145.7 271.3,144.8 		"/>
		<path class="st73" d="M272.6,145.8h-0.9l-1,0.5l1.3,1.3l1.8-0.9c-0.4-0.5-0.8-0.9-1.3-1.3l0,0v0.4H272.6z"/>
		<polygon class="st72" points="271.7,148.6 272.1,147.9 273.9,147 273.6,147.8 		"/>
		<path class="st73" d="M275.1,148.6h-0.7l-1.2,0.6l1,2l1.2-0.6h0.6c-0.3-0.6-0.6-1.2-0.9-1.8V148.6z"/>
		<path class="st73" d="M275.2,154.9l1.1-0.5h0.8c-0.1-0.6-0.2-1.2-0.4-1.8l-1.8,0.9L275.2,154.9z"/>
		<polygon class="st72" points="276.7,152.2 275.9,152.1 274,153 274.8,153.1 		"/>
		<polygon class="st72" points="275.2,156.6 277.1,155.7 276.2,155.2 274.4,156 		"/>
		<path class="st73" d="M276.8,157.2L276.8,157.2c0.2-0.5,0.2-1,0.3-1.5l0,0l-1.9,0.9l-0.3,1.5l0.8-0.4h0.3l0,0l0,0l0,0h0.2l0,0h0.1
			l0,0h0.2l0,0h0.1l0,0h0.2L276.8,157.2L276.8,157.2z"/>
		<path class="st73" d="M275.3,159.2L275.3,159.2c0.3-0.2,0.6-0.5,0.9-0.8l-1.8,0.9l-0.9,0.8h1.8V159.2z"/>
		<polygon class="st24" points="259.2,271.6 231.2,255 231.2,81.1 241.6,76 242.6,249.9 267.5,266.4 		"/>
		<polygon class="st15" points="260.2,94.6 268.5,89.4 241.6,76 231.2,81.1 		"/>
		<polygon class="st46" points="337.9,263.3 346.8,257 368.9,268.5 358.6,274.7 		"/>
		<polygon class="st15" points="310.3,249.9 319,244.4 348.6,262.3 339.7,268.2 		"/>
		<linearGradient id="SVGID_39_" gradientUnits="userSpaceOnUse" x1="331.7" y1="216.25" x2="379.3" y2="216.25">
			<stop  offset="0" style="stop-color:#DBEFFF"/>
			<stop  offset="1" style="stop-color:#DBEFFF"/>
		</linearGradient>
		<polygon class="st74" points="331.7,236.4 333.7,170.2 379.3,197.1 379.3,262.3 		"/>
		<polyline class="st75" points="339.3,190.8 339.4,195.5 365.3,242.1 365.3,247.3 		"/>
		<polyline class="st75" points="347.7,195.5 347.7,200.7 370.5,241.1 370.2,246.3 		"/>
		<polyline class="st75" points="355.1,201.1 355.1,203.5 375,238.4 375,248.7 		"/>
		<line class="st76" x1="211.1" y1="88.9" x2="311.5" y2="32"/>
		<line class="st76" x1="201.5" y1="279.4" x2="323.4" y2="209.8"/>
		<line class="st77" x1="276.3" y1="147.9" x2="402.6" y2="75.4"/>
		<line class="st76" x1="206.9" y1="103.4" x2="329.1" y2="32"/>
		<polyline class="st76" points="333.2,169.6 270.1,206.9 270.1,273.2 314.6,300.1 314.6,234.9 271.1,210 		"/>
		
			<ellipse transform="matrix(0.5744 -0.8186 0.8186 0.5744 -33.1386 346.1291)" class="st78" cx="316.3" cy="204.9" rx="2.4" ry="3.6"/>
		
			<ellipse transform="matrix(0.7071 -0.7071 0.7071 0.7071 62.7215 236.0286)" class="st78" cx="316.3" cy="42.3" rx="2.4" ry="3.6"/>
		
			<ellipse transform="matrix(0.7071 -0.7071 0.7071 0.7071 54.5099 299.0062)" class="st78" cx="388.2" cy="83.7" rx="2.4" ry="3.6"/>
		<ellipse class="st79" cx="339.4" cy="187.2" rx="2.4" ry="3.6"/>
		<ellipse class="st79" cx="347.9" cy="191.6" rx="2.4" ry="3.6"/>
		<ellipse class="st79" cx="356" cy="197.6" rx="2.4" ry="3.6"/>
		<ellipse class="st80" cx="365.3" cy="248.3" rx="2.4" ry="3.6"/>
		<ellipse class="st81" cx="369.9" cy="250.3" rx="2.4" ry="3.6"/>
		<ellipse class="st81" cx="374.6" cy="252.4" rx="2.4" ry="3.6"/>
		<linearGradient id="SVGID_40_" gradientUnits="userSpaceOnUse" x1="258.9367" y1="120.475" x2="360.7" y2="120.475">
			<stop  offset="0" style="stop-color:#C7DDFF"/>
			<stop  offset="0.3214" style="stop-color:#ADCDFF"/>
			<stop  offset="0.7488" style="stop-color:#7EC6FF"/>
			<stop  offset="1" style="stop-color:#7DB5FF"/>
		</linearGradient>
		<path class="st82" d="M276.2,143.2c0,0-5.6,1.6-8.7-2.4s-4.8-3.2-5.6-7.1c-0.8-4-2-4.4-2.8-8.3c-0.8-4,1.6-4,1.6-5.6
			s-2.4-3.2-1.6-4.8c1.1-2,1.9-4.1,2.4-6.3c0.8-3.2,1.6-6.3,3.2-7.1c1.6-0.8,4.8-3.2,4.8-4s0-3.2,1.6-4.8c1.6-1.6,4-2.4,4-3.2
			s0-3.2,0.8-4s3.2-3.2,4.8-4c1.6-0.8,8.7-1.6,9.5-2.4s0.8-2.4,3.2-3.2c2.5-1,5.2-1.5,7.9-1.6c3.2,0,3.2-1.6,5.6-1.6s4,1.6,6.3,1.6
			h6.3c1.6,0,6.3,1.6,9.5,3.2s1.6,4.8,6.3,4.8c5,0.1,9.6,2.4,12.7,6.3c3.2,4,6.3,4,6.3,4s4.8,0.8,4.8,4.8s1.6,4,1.6,5.6
			s-0.8,32.5-0.8,32.5s-2.4,1.6-3.2,3.2c-0.8,1.6-0.4,9.5-4.8,10.3c-6.8,1.2-4.4,7.9-10.3,8.7c-2.1,0.3-2.4-0.8-5.6,0s-4,4.8-4,6.3
			s-0.4,4-2.8,4c0,0-4.4,0.8-4.4-4s0-5.6-0.8-7.1s-3.2-1.6-4.8-1.6c-1.6,0-4.8-1.6-5.6-3.2c-0.8-1.6-7.1-0.8-8.7,1.6
			c-1.6,2.4-5.6,2.4-6.3,0.8s-12.7,4-16.7-2.4C278.2,145.9,282.9,149.1,276.2,143.2z"/>
		<path class="st75" d="M275,141.6c0,0,2.4-2.4,1.6-4.8c-0.8-2.4-2.4-3.2-1.6-5.6c0.8-2.4,3.2-3.2,3.2-5.6s-0.8-6.3,1.6-9.5
			s5.6-5.6,6.3-7.1c0.8-1.6,0-4.8,4-7.9c4-3.2,4-7.1,6.3-7.9c2.4-0.8,6.3-1.6,8.7-3.2c2.4-1.6,3.2-3.2,5.6-4s7.1-4,11.1-4
			c3.1-0.1,6.1-0.7,9-1.6"/>
		<path class="st75" d="M281.3,142.4c0,0,9.5,4.8,13.5,0s8.7-14.3,1.6-15.1c-7.1-0.8-7.1,3.2-7.1,3.2"/>
		<path class="st75" d="M298,140c0,0,13.5,4.8,19-0.8c5.6-5.6,5.6-8.7,5.6-8.7s-2.4-3.2-4-1.6c-1.6,1.6-5.6,4.8-10.3,1.6"/>
		<path class="st75" d="M318.6,127.3c0,0,0.8-1.6,0-5.6s-5.6-4.8-5.6-4.8s1.6-2.4-0.8-4"/>
		<path class="st75" d="M317,105.9c0,0,4.8,5.6,5.6,10.3"/>
		<path class="st75" d="M295.6,125.7c0,0,0-4.8,0.8-5.6c0.8-0.8,7.9-4,8.7-6.3c0.8-2.4,0.8-7.1,5.6-10.3s11.9-4,12.7-5.6"/>
		<path class="st75" d="M308.3,95.5c0,0,5.6,1.6,4.8,4.8"/>
		<path class="st75" d="M321.8,100.3c0,0,6.3,5.6,6.3,11.9"/>
		<path class="st75" d="M329.7,100.3c0,0,4.8,1.6,6.3,4c1.6,2.4,0.8,6.3,0.8,6.3c1.2,1.4,2,3,2.4,4.8c0.8,3.2,1.6,15.1-1.6,18.3
			c-2,1.9-4.5,3.3-7.1,4c0,0,0.8-0.8,0.8-5.6s-4-7.9-4-7.9"/>
		<path class="st75" d="M322.6,118.6c0,0,5.6-1.6,7.1,0.8c1.6,2.4,2.4,4.8,0.8,6.3"/>
		<path class="st75" d="M318.6,139.2c0,0,1.6,2.4,2.4,2.4s4-0.8,4.8,0.8"/>
		<path class="st75" d="M282.1,150.3c1.5,0.5,3.1,0.8,4.8,0.8c2.4,0,3.2-1.6,5.6-1.6s2.4,0.8,4.8,1.6s3.2-1.6,5.6-1.6"/>
		<path class="st75" d="M310.7,144c0,0,1.6,3.2,6.3,4.8"/>
		<path class="st75" d="M315.5,151.9c0,0,5.6-0.8,10.3-6.3"/>
		<path class="st75" d="M321,150.3c3.4,2,7.3,2.5,11.1,1.6c6.3-1.6,7.1-7.9,5.6-9.5"/>
		<path class="st75" d="M329.7,144.8c0,0,8.7-1.6,10.3-4.8s-1.6-4.8-1.6-4.8"/>
		<path class="st75" d="M341.6,137.6c0,0,8.7-0.8,8.7-6.3"/>
		<path class="st75" d="M341.6,130.5c0,0,2.4-4,5.6-4.8s7.1-4,6.3-7.1c-0.8-3.2-4-2.4-3.2-7.1s0.8-4.8-2.4-8.7s-1.6-7.1-4-8.7
			s-7.1-4-14.3-4.8"/>
		<path class="st75" d="M313.1,86.8c0,0,5.6,1.6,7.9,4.8c0,0,4-1.6,6.3-0.8c2.4,0.8,6.3,5.6,4,7.9"/>
		<path class="st75" d="M290.9,112.2c0,0,3.2,0.8,7.9-1.6"/>
		<path class="st75" d="M304.3,100.3c0,0,0,0.8-3.2,1.6c-3.2,0.8-7.1-2.4-10.3,0"/>
		<path class="st75" d="M347.2,96.3c0,0,3.2,2.4,4,4"/>
		<path class="st75" d="M352.8,100.3c0.8,0.8,5.6,1.6,5.6,4c0,1.6-0.3,3.2-0.8,4.8"/>
		<path class="st75" d="M263.1,122.5c0,0,1.6,2.4,2.4,2.4s2.4-3.2,2.4-3.2"/>
		<path class="st75" d="M265.5,118.6c0,0-1.6-11.9,4-13.5s4.8,3.2,4.8,4.8"/>
		<path class="st75" d="M275,91.6c0,0-4,2.4-3.2,4.8s2.4,4,0.8,4.8"/>
		<path class="st75" d="M275.8,97.9c0,0,0,0.8,1.6,1.6c1.6,0.8,7.1,2.4,6.3,5.6"/>
		<path class="st75" d="M282.1,92.4c0.8,0,7.9-0.8,10.3,1.6"/>
		<path class="st75" d="M281.3,86.8c0,0,4.8-7.9,17.5-2.4"/>
		<path class="st75" d="M296.4,76.5c0,0,2.4,1.6,7.1,1.6c4.8,0,9.1,1,12.1,5.6"/>
		<path class="st75" d="M312.3,76.5c0,0,4.8-0.8,6.3,3.2"/>
		<path class="st75" d="M269.4,122.5c-0.4,1.1-0.1,2.4,0.8,3.2c1.6,1.6,5.6,3.2,5.6,3.2"/>
		<path class="st75" d="M285.3,118.6c1.4,1.5,1.7,3.7,0.8,5.6c-1.6,3.2-2.4,4,0,5.6"/>
		<path class="st75" d="M265.5,124.9c0,0-1.6,5.6,7.1,5.6"/>
		<path class="st75" d="M263.1,111.4c0,0-3.2,3.2-3.2,5.6"/>
		<path class="st75" d="M269.4,136c0,0,1.6,2.4,5.6,0.8"/>
		<path class="st75" d="M338.5,148.7c0,0,6.3-0.8,7.1-5.6c0.8-4.8,2.4-4.8,2.4-4.8"/>
		<path class="st75" d="M352.8,105.9c0,0,1.6,2.4,2.4,7.1c0,0,1.6,1.6,2.4,0"/>
		<polygon class="st15" points="335.7,86.4 357.9,100.7 368.2,95.2 346,81.7 		"/>
		<polygon class="st15" points="368.2,95.2 368.2,269 357.9,275.3 357.9,100.7 		"/>
		<ellipse class="st24" cx="362.9" cy="113.7" rx="2.4" ry="3.6"/>
		<ellipse class="st24" cx="362.9" cy="134.4" rx="2.4" ry="3.6"/>
		<line class="st76" x1="298" y1="310.4" x2="392.2" y2="254.5"/>
		<line class="st76" x1="274.2" y1="317.7" x2="403.6" y2="239"/>
		<polygon class="st83" points="209.5,264.4 211.6,89.4 295.4,139.1 295.4,312 		"/>
		<polygon class="st84" points="204,265.2 206,90.2 289.9,139.9 289.9,312.8 		"/>
		
			<ellipse transform="matrix(0.5342 -0.8454 0.8454 0.5342 -26.1668 442.2626)" class="st78" cx="388.2" cy="244.9" rx="2.4" ry="3.6"/>
		<polygon class="st15" points="301.1,65.9 333.3,84.8 342.8,80.1 311.1,61 		"/>
	</g>
</g>
<g>
	<path class="st13" d="M133.8,303.6c-0.9-0.2-1.9-0.6-2.8-1.1c-1.3-0.8-1.9-1.6-1.9-2.4c0-0.9,0.7-1.7,1.9-2.4
		c1.3-0.8,2.9-1.2,4.5-1.2c1.7,0,3.2,0.4,4.5,1.2c0.8,0.5,1.4,0.9,1.8,1.4l-1.8,1c-0.2-0.5-0.7-1-1.4-1.4c-0.8-0.5-1.7-0.7-2.7-0.7
		s-1.9,0.2-2.7,0.7s-1.2,1-1.3,1.5c0,0.5,0.3,1,1.1,1.5c0.7,0.4,1.6,0.7,2.6,0.9L133.8,303.6z"/>
	<path class="st13" d="M140.8,308.2c-1.2-0.7-1.8-1.5-1.8-2.4s0.7-1.7,1.9-2.4c1.3-0.8,2.8-1.2,4.4-1.2c1.6,0,3,0.3,4.3,1.1
		c1.2,0.7,1.8,1.5,1.7,2.4c0,0.9-0.7,1.7-2,2.4c-1.3,0.8-2.8,1.1-4.4,1.2C143.4,309.2,142,308.9,140.8,308.2z M147.9,304.2
		c-0.7-0.4-1.4-0.6-2.3-0.5c-0.9,0.1-1.7,0.3-2.6,0.8c-0.8,0.5-1.3,1-1.4,1.5c-0.1,0.5,0.2,0.9,0.8,1.3c0.7,0.4,1.4,0.5,2.3,0.5
		c0.9,0,1.7-0.3,2.5-0.8c0.9-0.5,1.4-1,1.5-1.5C148.9,305,148.6,304.5,147.9,304.2z"/>
	<path class="st13" d="M148.9,312.7l8.4-4.8l3,1.7c3,1.7,3.1,3.4,0.4,5c-1.3,0.8-2.8,1.1-4.4,1.1c-1.6,0-3.1-0.4-4.4-1.2
		L148.9,312.7z M157.6,309.9l-5.3,3.1l0.9,0.5c0.8,0.5,1.7,0.7,2.7,0.7s1.9-0.3,2.7-0.7c0.8-0.5,1.2-1,1.2-1.5s-0.4-1-1.3-1.5
		L157.6,309.9z"/>
	<path class="st13" d="M163.5,321.4c-1.2-0.7-1.8-1.5-1.8-2.4s0.7-1.7,1.9-2.4c1.3-0.8,2.8-1.2,4.4-1.2s3,0.3,4.3,1.1
		c1.2,0.7,1.8,1.5,1.7,2.4c0,0.9-0.7,1.7-2,2.4c-1.3,0.8-2.8,1.1-4.4,1.2C166.1,322.5,164.7,322.1,163.5,321.4z M170.7,317.4
		c-0.7-0.4-1.4-0.6-2.3-0.5c-0.9,0.1-1.7,0.3-2.6,0.8c-0.8,0.5-1.3,1-1.4,1.5c-0.1,0.5,0.2,0.9,0.8,1.3c0.7,0.4,1.4,0.5,2.3,0.5
		c0.9,0,1.7-0.3,2.5-0.8c0.9-0.5,1.4-1,1.5-1.5C171.6,318.2,171.3,317.8,170.7,317.4z"/>
	<path class="st13" d="M171.5,325.6l1.9-1.1c0.1,0.4,0.2,0.7,0.5,1s0.6,0.6,1,0.8c0.2,0.1,0.5,0.2,0.7,0.3c0.2,0.1,0.4,0.1,0.6,0.2
		c0.2,0,0.4,0,0.5,0c0.2,0,0.3-0.1,0.4-0.1c0.2-0.1,0.3-0.2,0.3-0.3c0-0.1,0-0.3,0-0.4c-0.1-0.2-0.1-0.3-0.3-0.5
		c-0.1-0.2-0.3-0.4-0.4-0.6c-0.4-0.5-0.5-1-0.5-1.4c0.1-0.4,0.4-0.8,1-1.1c0.4-0.3,0.9-0.4,1.4-0.5s1-0.1,1.5,0s1,0.2,1.5,0.4
		c0.5,0.2,1,0.4,1.4,0.7c0.4,0.3,0.8,0.5,1.1,0.7s0.5,0.5,0.7,0.7l-1.8,1c0-0.1-0.1-0.3-0.2-0.4c-0.1-0.1-0.2-0.3-0.3-0.4
		s-0.3-0.3-0.4-0.4c-0.2-0.1-0.3-0.2-0.5-0.3c-0.2-0.1-0.4-0.2-0.6-0.3c-0.2-0.1-0.4-0.1-0.6-0.2c-0.2,0-0.4,0-0.5,0
		c-0.2,0-0.3,0.1-0.4,0.1c-0.1,0.1-0.2,0.2-0.3,0.3c0,0.1,0,0.2,0,0.4c0,0.1,0.1,0.3,0.2,0.5c0.1,0.2,0.2,0.4,0.4,0.6
		c0.2,0.3,0.3,0.5,0.5,0.8c0.1,0.2,0.2,0.5,0.1,0.7c0,0.2-0.1,0.4-0.2,0.6s-0.4,0.4-0.7,0.6c-0.5,0.3-1,0.4-1.5,0.5s-1,0.1-1.5,0
		s-1-0.2-1.5-0.4c-0.5-0.2-1-0.4-1.4-0.7c-0.5-0.3-0.9-0.5-1.2-0.8C171.9,326.1,171.7,325.8,171.5,325.6z"/>
	<path class="st13" d="M188.1,335.6l-2.1-1.2l1.3-1.4l-3-1.7l-2.5,0.7l-2-1.2l11.5-3.1l2.2,1.3L188.1,335.6z M188.3,331.9l1.9-2.2
		c0.1-0.2,0.4-0.3,0.6-0.5l0,0c-0.3,0.1-0.6,0.2-0.9,0.3l-3.8,1.1L188.3,331.9z"/>
	<path class="st13" d="M210,340.4l-2.4-1.4l-6.9,3.9l-1.9-1.1l6.9-3.9l-2.4-1.4l1.5-0.9l6.7,3.9L210,340.4z"/>
	<path class="st13" d="M211.7,349.4l-5-2.9l8.4-4.8l4.8,2.8l-1.5,0.9l-3-1.7l-1.9,1.1l2.7,1.6l-1.5,0.9l-2.7-1.6l-1.9,1.1l3.1,1.8
		L211.7,349.4z"/>
	<path class="st13" d="M221.8,354.9c-0.9-0.2-1.9-0.6-2.8-1.1c-1.3-0.8-1.9-1.6-1.9-2.4c0-0.9,0.7-1.7,1.9-2.4
		c1.3-0.8,2.9-1.2,4.5-1.2c1.7,0,3.2,0.4,4.5,1.2c0.8,0.5,1.4,0.9,1.8,1.4l-1.8,1c-0.2-0.5-0.7-1-1.4-1.4c-0.8-0.5-1.7-0.7-2.7-0.7
		s-1.9,0.2-2.7,0.7s-1.2,1-1.3,1.5c0,0.5,0.3,1,1.1,1.5c0.7,0.4,1.6,0.7,2.6,0.9L221.8,354.9z"/>
	<path class="st13" d="M232.6,361.6l-1.9-1.1l3.4-2l-3.5-2l-3.4,2l-1.9-1.1l8.4-4.8l1.9,1.1l-3.4,1.9l3.5,2l3.4-1.9l1.9,1.1
		L232.6,361.6z"/>
</g>
<g class="st6">
	
		<linearGradient id="SVGID_41_" gradientUnits="userSpaceOnUse" x1="228.9375" y1="339.2776" x2="124.9374" y2="647.2776" gradientTransform="matrix(1 0 0 -1 0 710)">
		<stop  offset="0" style="stop-color:#5FB1E5"/>
		<stop  offset="1.698226e-02" style="stop-color:#64B3E6;stop-opacity:0.983"/>
		<stop  offset="0.1886" style="stop-color:#93CAED;stop-opacity:0.8114"/>
		<stop  offset="0.36" style="stop-color:#BADDF4;stop-opacity:0.64"/>
		<stop  offset="0.5286" style="stop-color:#D8ECF9;stop-opacity:0.4714"/>
		<stop  offset="0.6933" style="stop-color:#EEF7FC;stop-opacity:0.3067"/>
		<stop  offset="0.8525" style="stop-color:#FBFDFE;stop-opacity:0.1475"/>
		<stop  offset="1" style="stop-color:#FFFFFF;stop-opacity:0"/>
	</linearGradient>
	<path class="st85" d="M354.4,6L0,190.1V429l153.5-87.4v-11c0,0-1.2-0.1,1.2-0.6s81.9-46.7,81.9-46.7V107.2l117.7-59.9V6H354.4z"/>
</g>
<path class="st86" d="M0,429l151.8-86.4c0,0,1.8-1.1,1.8-3s0-7.2,0-7.2s-0.5-1.5,2.2-2.9s78.9-45.1,78.9-45.1s2.1-1.1,2.1-5.3
	c0-4.2,0-167.1,0-167.1s-0.4-4.6,2.7-6.2c3.1-1.6,106.7-60.5,106.7-60.5s4.5-1.8,6.7,1"/>
<path class="st87" d="M547.6,126.3l-117.4,69c0,0-4.6-6.3-9.8-3.1c-5.3,3.2-17.8,10.8-17.8,10.8"/>
<g>
	<g>
		<g>
			
				<linearGradient id="SVGID_42_" gradientUnits="userSpaceOnUse" x1="89.7" y1="613.5676" x2="89.7" y2="417.0606" gradientTransform="matrix(1 0 0 -1 0 710)">
				<stop  offset="0" style="stop-color:#67EFEE"/>
				<stop  offset="0.234" style="stop-color:#62D0F2"/>
				<stop  offset="0.5654" style="stop-color:#5DABF7"/>
				<stop  offset="0.8325" style="stop-color:#5993FA"/>
				<stop  offset="1" style="stop-color:#588BFB"/>
			</linearGradient>
			<path class="st88" d="M91.8,160c0,1.3-0.9,2.9-2.1,3.6c-1.1,0.7-2.1,0.1-2.1-1.2s0.9-2.9,2.1-3.6C90.9,158.1,91.8,158.7,91.8,160
				z"/>
			
				<linearGradient id="SVGID_43_" gradientUnits="userSpaceOnUse" x1="96.5" y1="613.5676" x2="96.5" y2="417.0606" gradientTransform="matrix(1 0 0 -1 0 710)">
				<stop  offset="0" style="stop-color:#67EFEE"/>
				<stop  offset="0.234" style="stop-color:#62D0F2"/>
				<stop  offset="0.5654" style="stop-color:#5DABF7"/>
				<stop  offset="0.8325" style="stop-color:#5993FA"/>
				<stop  offset="1" style="stop-color:#588BFB"/>
			</linearGradient>
			<path class="st89" d="M98.6,156.1c0,1.3-0.9,2.9-2.1,3.6c-1.1,0.7-2.1,0.1-2.1-1.2s0.9-2.9,2.1-3.6S98.6,154.7,98.6,156.1z"/>
			
				<linearGradient id="SVGID_44_" gradientUnits="userSpaceOnUse" x1="103.3" y1="613.5676" x2="103.3" y2="417.0606" gradientTransform="matrix(1 0 0 -1 0 710)">
				<stop  offset="0" style="stop-color:#67EFEE"/>
				<stop  offset="0.234" style="stop-color:#62D0F2"/>
				<stop  offset="0.5654" style="stop-color:#5DABF7"/>
				<stop  offset="0.8325" style="stop-color:#5993FA"/>
				<stop  offset="1" style="stop-color:#588BFB"/>
			</linearGradient>
			<path class="st90" d="M105.4,152.1c0,1.3-0.9,2.9-2.1,3.6c-1.1,0.7-2.1,0.1-2.1-1.2s0.9-2.9,2.1-3.6
				C104.5,150.3,105.4,150.8,105.4,152.1z"/>
			
				<linearGradient id="SVGID_45_" gradientUnits="userSpaceOnUse" x1="134.5" y1="613.5676" x2="134.5" y2="417.0606" gradientTransform="matrix(1 0 0 -1 0 710)">
				<stop  offset="0" style="stop-color:#67EFEE"/>
				<stop  offset="0.234" style="stop-color:#62D0F2"/>
				<stop  offset="0.5654" style="stop-color:#5DABF7"/>
				<stop  offset="0.8325" style="stop-color:#5993FA"/>
				<stop  offset="1" style="stop-color:#588BFB"/>
			</linearGradient>
			<polygon class="st91" points="160.5,122.7 108.5,152.7 108.5,148 160.5,118 			"/>
		</g>
		<g>
			
				<linearGradient id="SVGID_46_" gradientUnits="userSpaceOnUse" x1="89.7" y1="613.5676" x2="89.7" y2="417.0606" gradientTransform="matrix(1 0 0 -1 0 710)">
				<stop  offset="0" style="stop-color:#67EFEE"/>
				<stop  offset="0.234" style="stop-color:#62D0F2"/>
				<stop  offset="0.5654" style="stop-color:#5DABF7"/>
				<stop  offset="0.8325" style="stop-color:#5993FA"/>
				<stop  offset="1" style="stop-color:#588BFB"/>
			</linearGradient>
			<path class="st92" d="M91.8,171.2c0,1.3-0.9,2.9-2.1,3.6c-1.1,0.7-2.1,0.1-2.1-1.2s0.9-2.9,2.1-3.6
				C90.9,169.3,91.8,169.8,91.8,171.2z"/>
			
				<linearGradient id="SVGID_47_" gradientUnits="userSpaceOnUse" x1="96.5" y1="613.5676" x2="96.5" y2="417.0606" gradientTransform="matrix(1 0 0 -1 0 710)">
				<stop  offset="0" style="stop-color:#67EFEE"/>
				<stop  offset="0.234" style="stop-color:#62D0F2"/>
				<stop  offset="0.5654" style="stop-color:#5DABF7"/>
				<stop  offset="0.8325" style="stop-color:#5993FA"/>
				<stop  offset="1" style="stop-color:#588BFB"/>
			</linearGradient>
			<path class="st93" d="M98.6,167.2c0,1.3-0.9,2.9-2.1,3.6c-1.1,0.7-2.1,0.1-2.1-1.2s0.9-2.9,2.1-3.6
				C97.7,165.4,98.6,165.9,98.6,167.2z"/>
			
				<linearGradient id="SVGID_48_" gradientUnits="userSpaceOnUse" x1="103.3" y1="613.5676" x2="103.3" y2="417.0606" gradientTransform="matrix(1 0 0 -1 0 710)">
				<stop  offset="0" style="stop-color:#67EFEE"/>
				<stop  offset="0.234" style="stop-color:#62D0F2"/>
				<stop  offset="0.5654" style="stop-color:#5DABF7"/>
				<stop  offset="0.8325" style="stop-color:#5993FA"/>
				<stop  offset="1" style="stop-color:#588BFB"/>
			</linearGradient>
			<path class="st94" d="M105.4,163.3c0,1.3-0.9,2.9-2.1,3.6s-2.1,0.1-2.1-1.2s0.9-2.9,2.1-3.6S105.4,162,105.4,163.3z"/>
			
				<linearGradient id="SVGID_49_" gradientUnits="userSpaceOnUse" x1="134.5" y1="613.5676" x2="134.5" y2="417.0606" gradientTransform="matrix(1 0 0 -1 0 710)">
				<stop  offset="0" style="stop-color:#67EFEE"/>
				<stop  offset="0.234" style="stop-color:#62D0F2"/>
				<stop  offset="0.5654" style="stop-color:#5DABF7"/>
				<stop  offset="0.8325" style="stop-color:#5993FA"/>
				<stop  offset="1" style="stop-color:#588BFB"/>
			</linearGradient>
			<polygon class="st95" points="160.5,133.9 108.5,163.9 108.5,159.1 160.5,129.1 			"/>
		</g>
		<g>
			
				<linearGradient id="SVGID_50_" gradientUnits="userSpaceOnUse" x1="89.7" y1="613.5676" x2="89.7" y2="417.0606" gradientTransform="matrix(1 0 0 -1 0 710)">
				<stop  offset="0" style="stop-color:#67EFEE"/>
				<stop  offset="0.234" style="stop-color:#62D0F2"/>
				<stop  offset="0.5654" style="stop-color:#5DABF7"/>
				<stop  offset="0.8325" style="stop-color:#5993FA"/>
				<stop  offset="1" style="stop-color:#588BFB"/>
			</linearGradient>
			<path class="st96" d="M91.8,182.3c0,1.3-0.9,2.9-2.1,3.6c-1.1,0.7-2.1,0.1-2.1-1.2s0.9-2.9,2.1-3.6
				C90.9,180.5,91.8,181,91.8,182.3z"/>
			
				<linearGradient id="SVGID_51_" gradientUnits="userSpaceOnUse" x1="96.5" y1="613.5676" x2="96.5" y2="417.0606" gradientTransform="matrix(1 0 0 -1 0 710)">
				<stop  offset="0" style="stop-color:#67EFEE"/>
				<stop  offset="0.234" style="stop-color:#62D0F2"/>
				<stop  offset="0.5654" style="stop-color:#5DABF7"/>
				<stop  offset="0.8325" style="stop-color:#5993FA"/>
				<stop  offset="1" style="stop-color:#588BFB"/>
			</linearGradient>
			<path class="st97" d="M98.6,178.4c0,1.3-0.9,2.9-2.1,3.6c-1.1,0.7-2.1,0.1-2.1-1.2s0.9-2.9,2.1-3.6
				C97.7,176.6,98.6,177.1,98.6,178.4z"/>
			
				<linearGradient id="SVGID_52_" gradientUnits="userSpaceOnUse" x1="103.3" y1="613.5676" x2="103.3" y2="417.0606" gradientTransform="matrix(1 0 0 -1 0 710)">
				<stop  offset="0" style="stop-color:#67EFEE"/>
				<stop  offset="0.234" style="stop-color:#62D0F2"/>
				<stop  offset="0.5654" style="stop-color:#5DABF7"/>
				<stop  offset="0.8325" style="stop-color:#5993FA"/>
				<stop  offset="1" style="stop-color:#588BFB"/>
			</linearGradient>
			<path class="st98" d="M105.4,174.5c0,1.3-0.9,2.9-2.1,3.6c-1.1,0.7-2.1,0.1-2.1-1.2s0.9-2.9,2.1-3.6
				C104.5,172.7,105.4,173.2,105.4,174.5z"/>
			
				<linearGradient id="SVGID_53_" gradientUnits="userSpaceOnUse" x1="134.5" y1="613.5676" x2="134.5" y2="417.0606" gradientTransform="matrix(1 0 0 -1 0 710)">
				<stop  offset="0" style="stop-color:#67EFEE"/>
				<stop  offset="0.234" style="stop-color:#62D0F2"/>
				<stop  offset="0.5654" style="stop-color:#5DABF7"/>
				<stop  offset="0.8325" style="stop-color:#5993FA"/>
				<stop  offset="1" style="stop-color:#588BFB"/>
			</linearGradient>
			<polygon class="st99" points="160.5,145.1 108.5,175.1 108.5,170.3 160.5,140.3 			"/>
		</g>
		<g>
			
				<linearGradient id="SVGID_54_" gradientUnits="userSpaceOnUse" x1="89.7" y1="613.5676" x2="89.7" y2="417.0606" gradientTransform="matrix(1 0 0 -1 0 710)">
				<stop  offset="0" style="stop-color:#67EFEE"/>
				<stop  offset="0.234" style="stop-color:#62D0F2"/>
				<stop  offset="0.5654" style="stop-color:#5DABF7"/>
				<stop  offset="0.8325" style="stop-color:#5993FA"/>
				<stop  offset="1" style="stop-color:#588BFB"/>
			</linearGradient>
			<path class="st100" d="M91.8,193.5c0,1.3-0.9,2.9-2.1,3.6c-1.1,0.7-2.1,0.1-2.1-1.2s0.9-2.9,2.1-3.6
				C90.9,191.7,91.8,192.2,91.8,193.5z"/>
			
				<linearGradient id="SVGID_55_" gradientUnits="userSpaceOnUse" x1="96.5" y1="613.5676" x2="96.5" y2="417.0606" gradientTransform="matrix(1 0 0 -1 0 710)">
				<stop  offset="0" style="stop-color:#67EFEE"/>
				<stop  offset="0.234" style="stop-color:#62D0F2"/>
				<stop  offset="0.5654" style="stop-color:#5DABF7"/>
				<stop  offset="0.8325" style="stop-color:#5993FA"/>
				<stop  offset="1" style="stop-color:#588BFB"/>
			</linearGradient>
			<path class="st101" d="M98.6,189.6c0,1.3-0.9,2.9-2.1,3.6c-1.1,0.7-2.1,0.1-2.1-1.2s0.9-2.9,2.1-3.6
				C97.7,187.8,98.6,188.3,98.6,189.6z"/>
			
				<linearGradient id="SVGID_56_" gradientUnits="userSpaceOnUse" x1="103.3" y1="613.5676" x2="103.3" y2="417.0606" gradientTransform="matrix(1 0 0 -1 0 710)">
				<stop  offset="0" style="stop-color:#67EFEE"/>
				<stop  offset="0.234" style="stop-color:#62D0F2"/>
				<stop  offset="0.5654" style="stop-color:#5DABF7"/>
				<stop  offset="0.8325" style="stop-color:#5993FA"/>
				<stop  offset="1" style="stop-color:#588BFB"/>
			</linearGradient>
			<path class="st102" d="M105.4,185.7c0,1.3-0.9,2.9-2.1,3.6c-1.1,0.7-2.1,0.1-2.1-1.2s0.9-2.9,2.1-3.6
				C104.5,183.8,105.4,184.4,105.4,185.7z"/>
			
				<linearGradient id="SVGID_57_" gradientUnits="userSpaceOnUse" x1="134.5" y1="613.5676" x2="134.5" y2="417.0606" gradientTransform="matrix(1 0 0 -1 0 710)">
				<stop  offset="0" style="stop-color:#67EFEE"/>
				<stop  offset="0.234" style="stop-color:#62D0F2"/>
				<stop  offset="0.5654" style="stop-color:#5DABF7"/>
				<stop  offset="0.8325" style="stop-color:#5993FA"/>
				<stop  offset="1" style="stop-color:#588BFB"/>
			</linearGradient>
			<polygon class="st103" points="160.5,156.3 108.5,186.3 108.5,181.5 160.5,151.5 			"/>
		</g>
		<g>
			
				<linearGradient id="SVGID_58_" gradientUnits="userSpaceOnUse" x1="89.7" y1="613.5676" x2="89.7" y2="417.0606" gradientTransform="matrix(1 0 0 -1 0 710)">
				<stop  offset="0" style="stop-color:#67EFEE"/>
				<stop  offset="0.234" style="stop-color:#62D0F2"/>
				<stop  offset="0.5654" style="stop-color:#5DABF7"/>
				<stop  offset="0.8325" style="stop-color:#5993FA"/>
				<stop  offset="1" style="stop-color:#588BFB"/>
			</linearGradient>
			<path class="st104" d="M91.8,204.7c0,1.3-0.9,2.9-2.1,3.6c-1.1,0.7-2.1,0.1-2.1-1.2s0.9-2.9,2.1-3.6
				C90.9,202.9,91.8,203.4,91.8,204.7z"/>
			
				<linearGradient id="SVGID_59_" gradientUnits="userSpaceOnUse" x1="96.5" y1="613.5676" x2="96.5" y2="417.0606" gradientTransform="matrix(1 0 0 -1 0 710)">
				<stop  offset="0" style="stop-color:#67EFEE"/>
				<stop  offset="0.234" style="stop-color:#62D0F2"/>
				<stop  offset="0.5654" style="stop-color:#5DABF7"/>
				<stop  offset="0.8325" style="stop-color:#5993FA"/>
				<stop  offset="1" style="stop-color:#588BFB"/>
			</linearGradient>
			<path class="st105" d="M98.6,200.8c0,1.3-0.9,2.9-2.1,3.6c-1.1,0.7-2.1,0.1-2.1-1.2s0.9-2.9,2.1-3.6S98.6,199.5,98.6,200.8z"/>
			
				<linearGradient id="SVGID_60_" gradientUnits="userSpaceOnUse" x1="103.3" y1="613.5676" x2="103.3" y2="417.0606" gradientTransform="matrix(1 0 0 -1 0 710)">
				<stop  offset="0" style="stop-color:#67EFEE"/>
				<stop  offset="0.234" style="stop-color:#62D0F2"/>
				<stop  offset="0.5654" style="stop-color:#5DABF7"/>
				<stop  offset="0.8325" style="stop-color:#5993FA"/>
				<stop  offset="1" style="stop-color:#588BFB"/>
			</linearGradient>
			<path class="st106" d="M105.4,196.9c0,1.3-0.9,2.9-2.1,3.6c-1.1,0.7-2.1,0.1-2.1-1.2s0.9-2.9,2.1-3.6
				C104.5,195,105.4,195.5,105.4,196.9z"/>
			
				<linearGradient id="SVGID_61_" gradientUnits="userSpaceOnUse" x1="134.5" y1="613.5676" x2="134.5" y2="417.0606" gradientTransform="matrix(1 0 0 -1 0 710)">
				<stop  offset="0" style="stop-color:#67EFEE"/>
				<stop  offset="0.234" style="stop-color:#62D0F2"/>
				<stop  offset="0.5654" style="stop-color:#5DABF7"/>
				<stop  offset="0.8325" style="stop-color:#5993FA"/>
				<stop  offset="1" style="stop-color:#588BFB"/>
			</linearGradient>
			<polygon class="st107" points="160.5,167.4 108.5,197.4 108.5,192.7 160.5,162.7 			"/>
		</g>
		<g>
			
				<linearGradient id="SVGID_62_" gradientUnits="userSpaceOnUse" x1="89.7" y1="613.5676" x2="89.7" y2="417.0606" gradientTransform="matrix(1 0 0 -1 0 710)">
				<stop  offset="0" style="stop-color:#67EFEE"/>
				<stop  offset="0.234" style="stop-color:#62D0F2"/>
				<stop  offset="0.5654" style="stop-color:#5DABF7"/>
				<stop  offset="0.8325" style="stop-color:#5993FA"/>
				<stop  offset="1" style="stop-color:#588BFB"/>
			</linearGradient>
			<path class="st108" d="M91.8,215.9c0,1.3-0.9,2.9-2.1,3.6c-1.1,0.7-2.1,0.1-2.1-1.2s0.9-2.9,2.1-3.6
				C90.9,214,91.8,214.6,91.8,215.9z"/>
			
				<linearGradient id="SVGID_63_" gradientUnits="userSpaceOnUse" x1="96.5" y1="613.5676" x2="96.5" y2="417.0606" gradientTransform="matrix(1 0 0 -1 0 710)">
				<stop  offset="0" style="stop-color:#67EFEE"/>
				<stop  offset="0.234" style="stop-color:#62D0F2"/>
				<stop  offset="0.5654" style="stop-color:#5DABF7"/>
				<stop  offset="0.8325" style="stop-color:#5993FA"/>
				<stop  offset="1" style="stop-color:#588BFB"/>
			</linearGradient>
			<path class="st109" d="M98.6,212c0,1.3-0.9,2.9-2.1,3.6c-1.1,0.7-2.1,0.1-2.1-1.2s0.9-2.9,2.1-3.6
				C97.7,210.1,98.6,210.6,98.6,212z"/>
			
				<linearGradient id="SVGID_64_" gradientUnits="userSpaceOnUse" x1="103.3" y1="613.5676" x2="103.3" y2="417.0606" gradientTransform="matrix(1 0 0 -1 0 710)">
				<stop  offset="0" style="stop-color:#67EFEE"/>
				<stop  offset="0.234" style="stop-color:#62D0F2"/>
				<stop  offset="0.5654" style="stop-color:#5DABF7"/>
				<stop  offset="0.8325" style="stop-color:#5993FA"/>
				<stop  offset="1" style="stop-color:#588BFB"/>
			</linearGradient>
			<path class="st110" d="M105.4,208c0,1.3-0.9,2.9-2.1,3.6s-2.1,0.1-2.1-1.2s0.9-2.9,2.1-3.6S105.4,206.7,105.4,208z"/>
			
				<linearGradient id="SVGID_65_" gradientUnits="userSpaceOnUse" x1="134.5" y1="613.5676" x2="134.5" y2="417.0606" gradientTransform="matrix(1 0 0 -1 0 710)">
				<stop  offset="0" style="stop-color:#67EFEE"/>
				<stop  offset="0.234" style="stop-color:#62D0F2"/>
				<stop  offset="0.5654" style="stop-color:#5DABF7"/>
				<stop  offset="0.8325" style="stop-color:#5993FA"/>
				<stop  offset="1" style="stop-color:#588BFB"/>
			</linearGradient>
			<polygon class="st111" points="160.5,178.6 108.5,208.6 108.5,203.9 160.5,173.9 			"/>
		</g>
		<g>
			
				<linearGradient id="SVGID_66_" gradientUnits="userSpaceOnUse" x1="89.7" y1="613.5676" x2="89.7" y2="417.0606" gradientTransform="matrix(1 0 0 -1 0 710)">
				<stop  offset="0" style="stop-color:#67EFEE"/>
				<stop  offset="0.234" style="stop-color:#62D0F2"/>
				<stop  offset="0.5654" style="stop-color:#5DABF7"/>
				<stop  offset="0.8325" style="stop-color:#5993FA"/>
				<stop  offset="1" style="stop-color:#588BFB"/>
			</linearGradient>
			<path class="st112" d="M91.8,227.1c0,1.3-0.9,2.9-2.1,3.6c-1.1,0.7-2.1,0.1-2.1-1.2s0.9-2.9,2.1-3.6S91.8,225.7,91.8,227.1z"/>
			
				<linearGradient id="SVGID_67_" gradientUnits="userSpaceOnUse" x1="96.5" y1="613.5676" x2="96.5" y2="417.0606" gradientTransform="matrix(1 0 0 -1 0 710)">
				<stop  offset="0" style="stop-color:#67EFEE"/>
				<stop  offset="0.234" style="stop-color:#62D0F2"/>
				<stop  offset="0.5654" style="stop-color:#5DABF7"/>
				<stop  offset="0.8325" style="stop-color:#5993FA"/>
				<stop  offset="1" style="stop-color:#588BFB"/>
			</linearGradient>
			<path class="st113" d="M98.6,223.1c0,1.3-0.9,2.9-2.1,3.6c-1.1,0.7-2.1,0.1-2.1-1.2s0.9-2.9,2.1-3.6
				C97.7,221.3,98.6,221.8,98.6,223.1z"/>
			
				<linearGradient id="SVGID_68_" gradientUnits="userSpaceOnUse" x1="103.3" y1="613.5676" x2="103.3" y2="417.0606" gradientTransform="matrix(1 0 0 -1 0 710)">
				<stop  offset="0" style="stop-color:#67EFEE"/>
				<stop  offset="0.234" style="stop-color:#62D0F2"/>
				<stop  offset="0.5654" style="stop-color:#5DABF7"/>
				<stop  offset="0.8325" style="stop-color:#5993FA"/>
				<stop  offset="1" style="stop-color:#588BFB"/>
			</linearGradient>
			<path class="st114" d="M105.4,219.2c0,1.3-0.9,2.9-2.1,3.6s-2.1,0.1-2.1-1.2s0.9-2.9,2.1-3.6S105.4,217.9,105.4,219.2z"/>
			
				<linearGradient id="SVGID_69_" gradientUnits="userSpaceOnUse" x1="134.5" y1="613.5676" x2="134.5" y2="417.0606" gradientTransform="matrix(1 0 0 -1 0 710)">
				<stop  offset="0" style="stop-color:#67EFEE"/>
				<stop  offset="0.234" style="stop-color:#62D0F2"/>
				<stop  offset="0.5654" style="stop-color:#5DABF7"/>
				<stop  offset="0.8325" style="stop-color:#5993FA"/>
				<stop  offset="1" style="stop-color:#588BFB"/>
			</linearGradient>
			<polygon class="st115" points="160.5,189.8 108.5,219.8 108.5,215 160.5,185 			"/>
		</g>
		<g>
			
				<linearGradient id="SVGID_70_" gradientUnits="userSpaceOnUse" x1="89.7" y1="613.5676" x2="89.7" y2="417.0606" gradientTransform="matrix(1 0 0 -1 0 710)">
				<stop  offset="0" style="stop-color:#67EFEE"/>
				<stop  offset="0.234" style="stop-color:#62D0F2"/>
				<stop  offset="0.5654" style="stop-color:#5DABF7"/>
				<stop  offset="0.8325" style="stop-color:#5993FA"/>
				<stop  offset="1" style="stop-color:#588BFB"/>
			</linearGradient>
			<path class="st116" d="M91.8,238.2c0,1.3-0.9,2.9-2.1,3.6c-1.1,0.7-2.1,0.1-2.1-1.2s0.9-2.9,2.1-3.6
				C90.9,236.4,91.8,236.9,91.8,238.2z"/>
			
				<linearGradient id="SVGID_71_" gradientUnits="userSpaceOnUse" x1="96.5" y1="613.5676" x2="96.5" y2="417.0606" gradientTransform="matrix(1 0 0 -1 0 710)">
				<stop  offset="0" style="stop-color:#67EFEE"/>
				<stop  offset="0.234" style="stop-color:#62D0F2"/>
				<stop  offset="0.5654" style="stop-color:#5DABF7"/>
				<stop  offset="0.8325" style="stop-color:#5993FA"/>
				<stop  offset="1" style="stop-color:#588BFB"/>
			</linearGradient>
			<path class="st117" d="M98.6,234.3c0,1.3-0.9,2.9-2.1,3.6c-1.1,0.7-2.1,0.1-2.1-1.2s0.9-2.9,2.1-3.6
				C97.7,232.5,98.6,233,98.6,234.3z"/>
			
				<linearGradient id="SVGID_72_" gradientUnits="userSpaceOnUse" x1="103.3" y1="613.5676" x2="103.3" y2="417.0606" gradientTransform="matrix(1 0 0 -1 0 710)">
				<stop  offset="0" style="stop-color:#67EFEE"/>
				<stop  offset="0.234" style="stop-color:#62D0F2"/>
				<stop  offset="0.5654" style="stop-color:#5DABF7"/>
				<stop  offset="0.8325" style="stop-color:#5993FA"/>
				<stop  offset="1" style="stop-color:#588BFB"/>
			</linearGradient>
			<path class="st118" d="M105.4,230.4c0,1.3-0.9,2.9-2.1,3.6c-1.1,0.7-2.1,0.1-2.1-1.2s0.9-2.9,2.1-3.6
				C104.5,228.6,105.4,229.1,105.4,230.4z"/>
			
				<linearGradient id="SVGID_73_" gradientUnits="userSpaceOnUse" x1="134.5" y1="613.5676" x2="134.5" y2="417.0606" gradientTransform="matrix(1 0 0 -1 0 710)">
				<stop  offset="0" style="stop-color:#67EFEE"/>
				<stop  offset="0.234" style="stop-color:#62D0F2"/>
				<stop  offset="0.5654" style="stop-color:#5DABF7"/>
				<stop  offset="0.8325" style="stop-color:#5993FA"/>
				<stop  offset="1" style="stop-color:#588BFB"/>
			</linearGradient>
			<polygon class="st119" points="160.5,201 108.5,231 108.5,226.2 160.5,196.2 			"/>
		</g>
		<g>
			
				<linearGradient id="SVGID_74_" gradientUnits="userSpaceOnUse" x1="89.7" y1="613.5676" x2="89.7" y2="417.0606" gradientTransform="matrix(1 0 0 -1 0 710)">
				<stop  offset="0" style="stop-color:#67EFEE"/>
				<stop  offset="0.234" style="stop-color:#62D0F2"/>
				<stop  offset="0.5654" style="stop-color:#5DABF7"/>
				<stop  offset="0.8325" style="stop-color:#5993FA"/>
				<stop  offset="1" style="stop-color:#588BFB"/>
			</linearGradient>
			<path class="st120" d="M91.8,249.4c0,1.3-0.9,2.9-2.1,3.6c-1.1,0.7-2.1,0.1-2.1-1.2s0.9-2.9,2.1-3.6
				C90.9,247.6,91.8,248.1,91.8,249.4z"/>
			
				<linearGradient id="SVGID_75_" gradientUnits="userSpaceOnUse" x1="96.5" y1="613.5676" x2="96.5" y2="417.0606" gradientTransform="matrix(1 0 0 -1 0 710)">
				<stop  offset="0" style="stop-color:#67EFEE"/>
				<stop  offset="0.234" style="stop-color:#62D0F2"/>
				<stop  offset="0.5654" style="stop-color:#5DABF7"/>
				<stop  offset="0.8325" style="stop-color:#5993FA"/>
				<stop  offset="1" style="stop-color:#588BFB"/>
			</linearGradient>
			<path class="st121" d="M98.6,245.5c0,1.3-0.9,2.9-2.1,3.6c-1.1,0.7-2.1,0.1-2.1-1.2s0.9-2.9,2.1-3.6
				C97.7,243.7,98.6,244.2,98.6,245.5z"/>
			
				<linearGradient id="SVGID_76_" gradientUnits="userSpaceOnUse" x1="103.3" y1="613.5676" x2="103.3" y2="417.0606" gradientTransform="matrix(1 0 0 -1 0 710)">
				<stop  offset="0" style="stop-color:#67EFEE"/>
				<stop  offset="0.234" style="stop-color:#62D0F2"/>
				<stop  offset="0.5654" style="stop-color:#5DABF7"/>
				<stop  offset="0.8325" style="stop-color:#5993FA"/>
				<stop  offset="1" style="stop-color:#588BFB"/>
			</linearGradient>
			<path class="st122" d="M105.4,241.6c0,1.3-0.9,2.9-2.1,3.6c-1.1,0.7-2.1,0.1-2.1-1.2s0.9-2.9,2.1-3.6S105.4,240.3,105.4,241.6z"
				/>
			
				<linearGradient id="SVGID_77_" gradientUnits="userSpaceOnUse" x1="134.5" y1="613.5676" x2="134.5" y2="417.0606" gradientTransform="matrix(1 0 0 -1 0 710)">
				<stop  offset="0" style="stop-color:#67EFEE"/>
				<stop  offset="0.234" style="stop-color:#62D0F2"/>
				<stop  offset="0.5654" style="stop-color:#5DABF7"/>
				<stop  offset="0.8325" style="stop-color:#5993FA"/>
				<stop  offset="1" style="stop-color:#588BFB"/>
			</linearGradient>
			<polygon class="st123" points="160.5,212.2 108.5,242.2 108.5,237.4 160.5,207.4 			"/>
		</g>
		<g>
			
				<linearGradient id="SVGID_78_" gradientUnits="userSpaceOnUse" x1="89.7" y1="613.5676" x2="89.7" y2="417.0606" gradientTransform="matrix(1 0 0 -1 0 710)">
				<stop  offset="0" style="stop-color:#67EFEE"/>
				<stop  offset="0.234" style="stop-color:#62D0F2"/>
				<stop  offset="0.5654" style="stop-color:#5DABF7"/>
				<stop  offset="0.8325" style="stop-color:#5993FA"/>
				<stop  offset="1" style="stop-color:#588BFB"/>
			</linearGradient>
			<path class="st124" d="M91.8,260.6c0,1.3-0.9,2.9-2.1,3.6c-1.1,0.7-2.1,0.1-2.1-1.2c0-1.3,0.9-2.9,2.1-3.6
				C90.9,258.8,91.8,259.3,91.8,260.6z"/>
			
				<linearGradient id="SVGID_79_" gradientUnits="userSpaceOnUse" x1="96.5" y1="613.5676" x2="96.5" y2="417.0606" gradientTransform="matrix(1 0 0 -1 0 710)">
				<stop  offset="0" style="stop-color:#67EFEE"/>
				<stop  offset="0.234" style="stop-color:#62D0F2"/>
				<stop  offset="0.5654" style="stop-color:#5DABF7"/>
				<stop  offset="0.8325" style="stop-color:#5993FA"/>
				<stop  offset="1" style="stop-color:#588BFB"/>
			</linearGradient>
			<path class="st125" d="M98.6,256.7c0,1.3-0.9,2.9-2.1,3.6c-1.1,0.7-2.1,0.1-2.1-1.2c0-1.3,0.9-2.9,2.1-3.6
				C97.7,254.8,98.6,255.4,98.6,256.7z"/>
			
				<linearGradient id="SVGID_80_" gradientUnits="userSpaceOnUse" x1="103.3" y1="613.5676" x2="103.3" y2="417.0606" gradientTransform="matrix(1 0 0 -1 0 710)">
				<stop  offset="0" style="stop-color:#67EFEE"/>
				<stop  offset="0.234" style="stop-color:#62D0F2"/>
				<stop  offset="0.5654" style="stop-color:#5DABF7"/>
				<stop  offset="0.8325" style="stop-color:#5993FA"/>
				<stop  offset="1" style="stop-color:#588BFB"/>
			</linearGradient>
			<path class="st126" d="M105.4,252.8c0,1.3-0.9,2.9-2.1,3.6c-1.2,0.7-2.1,0.1-2.1-1.2s0.9-2.9,2.1-3.6
				C104.5,250.9,105.4,251.4,105.4,252.8z"/>
			
				<linearGradient id="SVGID_81_" gradientUnits="userSpaceOnUse" x1="134.5" y1="613.5676" x2="134.5" y2="417.0606" gradientTransform="matrix(1 0 0 -1 0 710)">
				<stop  offset="0" style="stop-color:#67EFEE"/>
				<stop  offset="0.234" style="stop-color:#62D0F2"/>
				<stop  offset="0.5654" style="stop-color:#5DABF7"/>
				<stop  offset="0.8325" style="stop-color:#5993FA"/>
				<stop  offset="1" style="stop-color:#588BFB"/>
			</linearGradient>
			<polygon class="st127" points="160.5,223.3 108.5,253.3 108.5,248.6 160.5,218.6 			"/>
		</g>
		<g>
			
				<linearGradient id="SVGID_82_" gradientUnits="userSpaceOnUse" x1="89.7" y1="613.5676" x2="89.7" y2="417.0606" gradientTransform="matrix(1 0 0 -1 0 710)">
				<stop  offset="0" style="stop-color:#67EFEE"/>
				<stop  offset="0.234" style="stop-color:#62D0F2"/>
				<stop  offset="0.5654" style="stop-color:#5DABF7"/>
				<stop  offset="0.8325" style="stop-color:#5993FA"/>
				<stop  offset="1" style="stop-color:#588BFB"/>
			</linearGradient>
			<path class="st128" d="M91.8,271.8c0,1.3-0.9,2.9-2.1,3.6c-1.1,0.7-2.1,0.1-2.1-1.2c0-1.3,0.9-2.9,2.1-3.6
				C90.9,269.9,91.8,270.5,91.8,271.8z"/>
			
				<linearGradient id="SVGID_83_" gradientUnits="userSpaceOnUse" x1="96.5" y1="613.5676" x2="96.5" y2="417.0606" gradientTransform="matrix(1 0 0 -1 0 710)">
				<stop  offset="0" style="stop-color:#67EFEE"/>
				<stop  offset="0.234" style="stop-color:#62D0F2"/>
				<stop  offset="0.5654" style="stop-color:#5DABF7"/>
				<stop  offset="0.8325" style="stop-color:#5993FA"/>
				<stop  offset="1" style="stop-color:#588BFB"/>
			</linearGradient>
			<path class="st129" d="M98.6,267.9c0,1.3-0.9,2.9-2.1,3.6c-1.1,0.7-2.1,0.1-2.1-1.2c0-1.3,0.9-2.9,2.1-3.6
				C97.7,266,98.6,266.5,98.6,267.9z"/>
			
				<linearGradient id="SVGID_84_" gradientUnits="userSpaceOnUse" x1="103.3" y1="613.5676" x2="103.3" y2="417.0606" gradientTransform="matrix(1 0 0 -1 0 710)">
				<stop  offset="0" style="stop-color:#67EFEE"/>
				<stop  offset="0.234" style="stop-color:#62D0F2"/>
				<stop  offset="0.5654" style="stop-color:#5DABF7"/>
				<stop  offset="0.8325" style="stop-color:#5993FA"/>
				<stop  offset="1" style="stop-color:#588BFB"/>
			</linearGradient>
			<path class="st130" d="M105.4,263.9c0,1.3-0.9,2.9-2.1,3.6s-2.1,0.1-2.1-1.2c0-1.3,0.9-2.9,2.1-3.6
				C104.5,262.1,105.4,262.6,105.4,263.9z"/>
			
				<linearGradient id="SVGID_85_" gradientUnits="userSpaceOnUse" x1="134.5" y1="613.5676" x2="134.5" y2="417.0606" gradientTransform="matrix(1 0 0 -1 0 710)">
				<stop  offset="0" style="stop-color:#67EFEE"/>
				<stop  offset="0.234" style="stop-color:#62D0F2"/>
				<stop  offset="0.5654" style="stop-color:#5DABF7"/>
				<stop  offset="0.8325" style="stop-color:#5993FA"/>
				<stop  offset="1" style="stop-color:#588BFB"/>
			</linearGradient>
			<polygon class="st131" points="160.5,234.5 108.5,264.5 108.5,259.8 160.5,229.8 			"/>
		</g>
		<g>
			
				<linearGradient id="SVGID_86_" gradientUnits="userSpaceOnUse" x1="89.7" y1="613.5676" x2="89.7" y2="417.0606" gradientTransform="matrix(1 0 0 -1 0 710)">
				<stop  offset="0" style="stop-color:#67EFEE"/>
				<stop  offset="0.234" style="stop-color:#62D0F2"/>
				<stop  offset="0.5654" style="stop-color:#5DABF7"/>
				<stop  offset="0.8325" style="stop-color:#5993FA"/>
				<stop  offset="1" style="stop-color:#588BFB"/>
			</linearGradient>
			<path class="st132" d="M91.8,283c0,1.3-0.9,2.9-2.1,3.6c-1.1,0.7-2.1,0.1-2.1-1.2c0-1.3,0.9-2.9,2.1-3.6
				C90.9,281.1,91.8,281.6,91.8,283z"/>
			
				<linearGradient id="SVGID_87_" gradientUnits="userSpaceOnUse" x1="96.5" y1="613.5676" x2="96.5" y2="417.0606" gradientTransform="matrix(1 0 0 -1 0 710)">
				<stop  offset="0" style="stop-color:#67EFEE"/>
				<stop  offset="0.234" style="stop-color:#62D0F2"/>
				<stop  offset="0.5654" style="stop-color:#5DABF7"/>
				<stop  offset="0.8325" style="stop-color:#5993FA"/>
				<stop  offset="1" style="stop-color:#588BFB"/>
			</linearGradient>
			<path class="st133" d="M98.6,279c0,1.3-0.9,2.9-2.1,3.6c-1.1,0.7-2.1,0.1-2.1-1.2c0-1.3,0.9-2.9,2.1-3.6
				C97.7,277.2,98.6,277.7,98.6,279z"/>
			
				<linearGradient id="SVGID_88_" gradientUnits="userSpaceOnUse" x1="103.3" y1="613.5676" x2="103.3" y2="417.0606" gradientTransform="matrix(1 0 0 -1 0 710)">
				<stop  offset="0" style="stop-color:#67EFEE"/>
				<stop  offset="0.234" style="stop-color:#62D0F2"/>
				<stop  offset="0.5654" style="stop-color:#5DABF7"/>
				<stop  offset="0.8325" style="stop-color:#5993FA"/>
				<stop  offset="1" style="stop-color:#588BFB"/>
			</linearGradient>
			<path class="st134" d="M105.4,275.1c0,1.3-0.9,2.9-2.1,3.6c-1.1,0.7-2.1,0.1-2.1-1.2c0-1.3,0.9-2.9,2.1-3.6
				C104.5,273.3,105.4,273.8,105.4,275.1z"/>
			
				<linearGradient id="SVGID_89_" gradientUnits="userSpaceOnUse" x1="134.5" y1="613.5676" x2="134.5" y2="417.0606" gradientTransform="matrix(1 0 0 -1 0 710)">
				<stop  offset="0" style="stop-color:#67EFEE"/>
				<stop  offset="0.234" style="stop-color:#62D0F2"/>
				<stop  offset="0.5654" style="stop-color:#5DABF7"/>
				<stop  offset="0.8325" style="stop-color:#5993FA"/>
				<stop  offset="1" style="stop-color:#588BFB"/>
			</linearGradient>
			<polygon class="st135" points="160.5,245.7 108.5,275.7 108.5,270.9 160.5,240.9 			"/>
		</g>
	</g>
	
		<linearGradient id="SVGID_90_" gradientUnits="userSpaceOnUse" x1="180.65" y1="613.5676" x2="180.65" y2="417.0606" gradientTransform="matrix(1 0 0 -1 0 710)">
		<stop  offset="0" style="stop-color:#679BEE"/>
		<stop  offset="0.234" style="stop-color:#62B4F2"/>
		<stop  offset="0.5654" style="stop-color:#5DABF7"/>
		<stop  offset="0.8325" style="stop-color:#5993FA"/>
		<stop  offset="1" style="stop-color:#588BFB"/>
	</linearGradient>
	<polygon class="st136" points="195.9,225.5 165.4,243.1 165.4,115.6 195.9,98 	"/>
</g>
<g>
	<g class="st137">
		
			<ellipse transform="matrix(0.5463 -0.8376 0.8376 0.5463 -262.6823 332.2624)" class="st138" cx="175.4" cy="408.6" rx="2.6" ry="2.6"/>
		
			<ellipse transform="matrix(0.5463 -0.8376 0.8376 0.5463 -252.9341 323.9792)" class="st138" cx="172.6" cy="395.5" rx="1.3" ry="1.3"/>
		
			<ellipse transform="matrix(0.5463 -0.8376 0.8376 0.5463 -246.9999 335.6613)" class="st138" cx="186.3" cy="395.8" rx="3.8" ry="3.8"/>
	</g>
	<ellipse transform="matrix(0.5463 -0.8376 0.8376 0.5463 11.1155 483.7769)" class="st139" cx="452.1" cy="231.6" rx="3" ry="3"/>
	<ellipse transform="matrix(0.5463 -0.8376 0.8376 0.5463 -25.1081 118.5804)" class="st140" cx="96.9" cy="82.5" rx="3" ry="3"/>
	<ellipse transform="matrix(0.5463 -0.8376 0.8376 0.5463 45.0408 140.816)" class="st140" cx="152.5" cy="28.8" rx="3" ry="3"/>
	
		<ellipse transform="matrix(0.5463 -0.8376 0.8376 0.5463 2.5877 177.6886)" class="st139" cx="165.3" cy="86.5" rx="1.8" ry="1.8"/>
	
		<ellipse transform="matrix(0.5463 -0.8376 0.8376 0.5463 63.7711 162.9478)" class="st141" cx="182.3" cy="22.6" rx="1.8" ry="1.8"/>
	
		<ellipse transform="matrix(0.5463 -0.8376 0.8376 0.5463 56.58 461.4399)" class="st141" cx="454.2" cy="178.5" rx="1.8" ry="1.8"/>
	
		<ellipse transform="matrix(0.5463 -0.8376 0.8376 0.5463 75.6703 475.4887)" class="st142" cx="476.7" cy="167.9" rx="1.9" ry="1.9"/>
	
		<ellipse transform="matrix(0.5463 -0.8376 0.8376 0.5463 77.8519 528.8973)" class="st142" cx="527.1" cy="192.6" rx="1.2" ry="1.2"/>
	
		<ellipse transform="matrix(0.5463 -0.8376 0.8376 0.5463 84.1344 525.1318)" class="st142" cx="526.8" cy="184.9" rx="2.5" ry="2.5"/>
	
		<ellipse transform="matrix(0.5463 -0.8376 0.8376 0.5463 79.5356 470.8823)" class="st142" cx="474.4" cy="162" rx="1.3" ry="1.3"/>
	<g class="st137">
		<ellipse transform="matrix(0.5463 -0.8376 0.8376 0.5463 -242.88 199.5046)" class="st138" cx="62.7" cy="323.9" rx="3" ry="3"/>
		
			<ellipse transform="matrix(0.5463 -0.8376 0.8376 0.5463 -229.0718 189.5614)" class="st138" cx="60.4" cy="306.2" rx="2.1" ry="2.1"/>
	</g>
	<g class="st137">
		<ellipse transform="matrix(0.5463 -0.8376 0.8376 0.5463 145.4711 436.3893)" class="st138" cx="475.5" cy="83.9" rx="3" ry="3"/>
		
			<ellipse transform="matrix(0.5463 -0.8376 0.8376 0.5463 159.3606 426.3747)" class="st138" cx="473.2" cy="66.1" rx="2.1" ry="2.1"/>
	</g>
</g>
<text transform="matrix(0.1732 -0.1 0 1 53.7053 121.7387)" class="st143 st144 st145">Cng Ngh 4.0</text>
<g>
	<linearGradient id="SVGID_91_" gradientUnits="userSpaceOnUse" x1="90.8" y1="137.0129" x2="90.8" y2="112.5856">
		<stop  offset="0" style="stop-color:#4277E5"/>
		<stop  offset="1" style="stop-color:#3C91E5"/>
	</linearGradient>
	<path class="st146" d="M94.5,119.2c-0.1-1-0.5-1.7-1.1-2s-1.4-0.3-2.2,0.2c-1,0.6-1.8,1.4-2.4,2.5s-1.1,2.3-1.4,3.5
		s-0.4,2.5-0.4,3.8c0,2,0.3,3.5,1,4.5s1.7,1.1,3.2,0.3c1-0.6,1.8-1.5,2.4-2.7s1-2.6,1.1-4.1l3.3-1.9c-0.2,2.8-0.9,5.3-2.1,7.6
		s-2.8,4-4.7,5.1c-2.3,1.3-4.2,1.4-5.5,0c-1.4-1.3-2.1-3.6-2.1-6.8c0-3.3,0.7-6.4,2.1-9.3s3.2-5.1,5.5-6.4c1.7-1,3.2-1.2,4.5-0.5
		c1.2,0.6,2,2.1,2.2,4.4L94.5,119.2z"/>
	<linearGradient id="SVGID_92_" gradientUnits="userSpaceOnUse" x1="106" y1="127.8936" x2="106" y2="104.3">
		<stop  offset="0" style="stop-color:#4277E5"/>
		<stop  offset="1" style="stop-color:#3C91E5"/>
	</linearGradient>
	<path class="st147" d="M101.8,127.4c-1-0.9-1.6-2.5-1.6-5s0.5-4.8,1.6-6.9s2.5-3.7,4.2-4.7c1.8-1,3.2-1.1,4.2-0.2
		c1.1,0.9,1.6,2.6,1.6,5c0,2.5-0.5,4.8-1.6,6.8c-1.1,2.1-2.5,3.6-4.2,4.6C104.3,128,102.8,128.2,101.8,127.4z M104.6,105.9l2.8-1.6
		l2.4,2.9l-2.5,1.5L106,107l-1.4,3.2l-2.3,1.4L104.6,105.9z M103.9,116.6c-0.4,1.2-0.6,2.5-0.6,3.9s0.2,2.5,0.6,3.2s1.1,0.8,2.1,0.2
		c1-0.6,1.7-1.4,2.1-2.6s0.6-2.5,0.6-3.9s-0.2-2.5-0.6-3.2s-1.1-0.8-2.1-0.2C105,114.6,104.4,115.5,103.9,116.6z"/>
	<linearGradient id="SVGID_93_" gradientUnits="userSpaceOnUse" x1="119.65" y1="122" x2="119.65" y2="101.5575">
		<stop  offset="0" style="stop-color:#4277E5"/>
		<stop  offset="1" style="stop-color:#3C91E5"/>
	</linearGradient>
	<path class="st148" d="M114.4,106.4l2.9-1.7v2.2h0.1c0.8-2.2,1.9-3.7,3.4-4.6s2.6-1,3.2-0.2c0.6,0.7,0.9,2.2,0.9,4.3v9.5l-3.1,1.8
		v-8.8c0-1.3-0.1-2.2-0.4-2.6s-0.8-0.5-1.5,0c-0.8,0.5-1.4,1.2-1.8,2.1s-0.6,2.2-0.6,3.7v8.1l-3.1,1.8V106.4z"/>
	<linearGradient id="SVGID_94_" gradientUnits="userSpaceOnUse" x1="133.15" y1="118.0735" x2="133.15" y2="92.6">
		<stop  offset="0" style="stop-color:#4277E5"/>
		<stop  offset="1" style="stop-color:#3C91E5"/>
	</linearGradient>
	<path class="st149" d="M138.7,106.9c0,0.6,0,1.2-0.1,1.8c-0.1,0.6-0.2,1.3-0.5,2.1c-0.2,0.8-0.6,1.5-1,2.3s-1,1.4-1.7,2.2
		c-0.7,0.7-1.6,1.4-2.6,2c-1.2,0.7-2.4,0.9-3.3,0.7c-1-0.3-1.5-1.2-1.6-2.8l3.1-1.8c0.2,1.3,1,1.5,2.3,0.8c0.8-0.5,1.5-1.2,1.9-2.1
		s0.6-2,0.6-3.1v-2l0,0c-0.3,1-0.8,1.8-1.4,2.6c-0.6,0.7-1.3,1.3-2,1.7c-1.6,0.9-2.8,0.9-3.6-0.1s-1.2-2.6-1.2-4.9
		c0-2.1,0.4-4.2,1.3-6.2c0.9-2,2-3.4,3.5-4.3s2.6-0.7,3.3,0.6l0,0v-2.1l2.9-1.7v14.3H138.7z M133.2,107.4c0.8-0.5,1.5-1.3,1.9-2.4
		c0.5-1.1,0.7-2.2,0.7-3.4c0-1.4-0.2-2.4-0.6-3.1s-1.1-0.7-2-0.2c-0.8,0.5-1.4,1.3-1.9,2.3c-0.4,1.1-0.6,2.3-0.6,3.5
		c0,0.8,0.1,1.5,0.2,2.1c0.1,0.6,0.4,1,0.8,1.2C132.1,107.8,132.6,107.8,133.2,107.4z"/>
	<linearGradient id="SVGID_95_" gradientUnits="userSpaceOnUse" x1="155.35" y1="101.9" x2="155.35" y2="73.1">
		<stop  offset="0" style="stop-color:#4277E5"/>
		<stop  offset="1" style="stop-color:#3C91E5"/>
	</linearGradient>
	<path class="st150" d="M148.8,80.6l3.4-2l6.5,10.6l0,0V74.9l3.2-1.8v21.4l-3.4,2L152,85.8l0,0v14.3l-3.2,1.8V80.6z"/>
	<linearGradient id="SVGID_96_" gradientUnits="userSpaceOnUse" x1="170.35" y1="96.5735" x2="170.35" y2="71.1">
		<stop  offset="0" style="stop-color:#4277E5"/>
		<stop  offset="1" style="stop-color:#3C91E5"/>
	</linearGradient>
	<path class="st151" d="M175.9,85.4c0,0.6,0,1.2-0.1,1.8c-0.1,0.6-0.2,1.3-0.5,2.1c-0.2,0.8-0.6,1.5-1,2.3s-1,1.4-1.7,2.2
		c-0.7,0.7-1.6,1.4-2.6,2c-1.2,0.7-2.4,0.9-3.3,0.7c-1-0.3-1.5-1.2-1.6-2.8l3.1-1.8c0.2,1.3,1,1.5,2.3,0.8c0.8-0.5,1.5-1.2,1.9-2.1
		s0.6-2,0.6-3.1v-2l0,0c-0.3,1-0.8,1.8-1.4,2.6c-0.6,0.7-1.3,1.3-2,1.7c-1.6,0.9-2.8,0.9-3.6-0.1s-1.2-2.6-1.2-4.9
		c0-2.1,0.4-4.2,1.3-6.2c0.9-2,2-3.4,3.5-4.3s2.6-0.7,3.3,0.6l0,0v-2.1l2.9-1.7v14.3H175.9z M170.4,85.9c0.8-0.5,1.5-1.3,1.9-2.4
		c0.5-1.1,0.7-2.2,0.7-3.4c0-1.4-0.2-2.4-0.6-3.1c-0.4-0.7-1.1-0.7-2-0.2c-0.8,0.5-1.4,1.3-1.9,2.3s-0.6,2.3-0.6,3.5
		c0,0.8,0.1,1.5,0.2,2.1c0.1,0.6,0.4,1,0.8,1.2C169.3,86.3,169.8,86.3,170.4,85.9z"/>
	<linearGradient id="SVGID_97_" gradientUnits="userSpaceOnUse" x1="184.4" y1="84.7" x2="184.4" y2="61.4">
		<stop  offset="0" style="stop-color:#4277E5"/>
		<stop  offset="1" style="stop-color:#3C91E5"/>
	</linearGradient>
	<path class="st152" d="M179.1,63.2l3.1-1.8v8.1h0.1c0.4-1.1,0.9-2,1.5-2.8s1.2-1.3,1.8-1.7c1.5-0.9,2.6-1,3.2-0.2
		c0.6,0.7,0.9,2.2,0.9,4.3v9.5l-3.1,1.8v-8.8c0-1.3-0.1-2.2-0.4-2.6c-0.3-0.4-0.8-0.5-1.5,0c-0.8,0.5-1.4,1.2-1.8,2.1
		s-0.6,2.2-0.6,3.7v8.1l-3.1,1.8L179.1,63.2L179.1,63.2z"/>
	<linearGradient id="SVGID_98_" gradientUnits="userSpaceOnUse" x1="197.3" y1="79.8" x2="197.3" y2="50.9">
		<stop  offset="0" style="stop-color:#4277E5"/>
		<stop  offset="1" style="stop-color:#3C91E5"/>
	</linearGradient>
	<path class="st153" d="M201.8,58.1c0.5,0.7,0.8,1.6,0.9,2.8c0.1,0.9,0.1,1.9,0.1,3.1l-7.9,4.5c0,1.6,0.4,2.5,1.1,2.8
		c0.4,0.2,0.9,0.1,1.5-0.3s1.1-0.9,1.5-1.6c0.2-0.4,0.4-0.9,0.5-1.4l3.1-1.8c-0.1,1-0.4,2.1-1.1,3.5c-1,2.1-2.4,3.7-4.1,4.7
		c-1.5,0.8-2.8,0.9-3.9,0.3c-1.1-0.7-1.7-2.5-1.7-5.5c0-2.8,0.5-5.2,1.5-7.2c1-2.1,2.3-3.6,3.9-4.5
		C199.4,56.5,200.9,56.6,201.8,58.1z M198.7,50.9l2.5,2.9l-2.5,1.4l-1.4-1.7l-1.4,3.3l-2.4,1.4l2.5-5.8L198.7,50.9z M195,65.8
		l4.7-2.7c-0.1-1.1-0.3-1.8-0.7-2.1s-1-0.3-1.6,0.1c-0.7,0.4-1.2,1-1.6,1.8C195.3,63.7,195.1,64.7,195,65.8z M196,79.8v-3.5l2.7-1.6
		v3.5L196,79.8z"/>
	<linearGradient id="SVGID_99_" gradientUnits="userSpaceOnUse" x1="216.75" y1="62.4" x2="216.75" y2="39.7">
		<stop  offset="0" style="stop-color:#4277E5"/>
		<stop  offset="1" style="stop-color:#3C91E5"/>
	</linearGradient>
	<path class="st154" d="M217.5,57.5l-6.4,3.7v-3.9l6.6-16l2.7-1.6v12.6l2-1.2v3.5l-2,1.2v4.9l-2.9,1.7L217.5,57.5L217.5,57.5z
		 M217.5,46.7L217.5,46.7l-4,9.6l4-2.3V46.7z"/>
	<linearGradient id="SVGID_100_" gradientUnits="userSpaceOnUse" x1="226.4" y1="58.2" x2="226.4" y2="51.6">
		<stop  offset="0" style="stop-color:#4277E5"/>
		<stop  offset="1" style="stop-color:#3C91E5"/>
	</linearGradient>
	<path class="st155" d="M224.7,53.6l3.4-2v4.6l-3.4,2V53.6z"/>
	<linearGradient id="SVGID_101_" gradientUnits="userSpaceOnUse" x1="236.05" y1="52.7915" x2="236.05" y2="29.5">
		<stop  offset="0" style="stop-color:#4277E5"/>
		<stop  offset="1" style="stop-color:#3C91E5"/>
	</linearGradient>
	<path class="st156" d="M230.5,44.3c0-3.8,0.5-6.9,1.5-9.2s2.4-3.9,4-4.9c0.8-0.5,1.5-0.7,2.2-0.7c0.6,0,1.2,0.2,1.8,0.8
		c0.5,0.5,0.9,1.4,1.2,2.7s0.4,2.9,0.4,4.9s-0.1,3.8-0.4,5.5c-0.3,1.6-0.7,3-1.2,4.1s-1.1,2-1.8,2.8c-0.6,0.7-1.4,1.3-2.2,1.8
		c-1.7,1-3,0.9-4-0.2C231,50.7,230.5,48.2,230.5,44.3z M233.6,42.5c0,0.7,0,1.3,0,1.7s0.1,1.1,0.1,1.8c0.1,0.8,0.2,1.4,0.4,1.8
		c0.2,0.4,0.4,0.7,0.7,0.9s0.7,0.2,1.2-0.1s0.9-0.7,1.2-1.3s0.6-1.2,0.7-1.8c0.2-0.6,0.3-1.3,0.4-2.2c0.1-0.9,0.1-1.5,0.2-2
		c0-0.5,0-1,0-1.7c0-0.5,0-0.8,0-1.1s0-0.7-0.1-1.2c0-0.6-0.1-1-0.1-1.4c-0.1-0.3-0.1-0.7-0.3-1.1c-0.1-0.4-0.3-0.7-0.4-0.9
		c-0.2-0.2-0.4-0.3-0.7-0.4s-0.6,0-0.9,0.2c-0.4,0.2-0.7,0.5-1,1c-0.3,0.4-0.5,0.9-0.7,1.5s-0.3,1.1-0.4,1.6
		c-0.1,0.5-0.2,1.1-0.2,1.8s-0.1,1.2-0.1,1.6C233.6,41.5,233.6,41.9,233.6,42.5z"/>
</g>
</svg>
