<?xml version="1.0" encoding="utf-8"?>
<!-- Generator: Adobe Illustrator 21.0.0, SVG Export Plug-In . SVG Version: 6.00 Build 0)  -->
<svg version="1.1" id="Layer_1" xmlns="http://www.w3.org/2000/svg" xmlns:xlink="http://www.w3.org/1999/xlink" x="0px" y="0px"
	 viewBox="0 0 300 216" style="enable-background:new 0 0 300 216;" xml:space="preserve">
<style type="text/css">
	.st0{opacity:0.35;}
	.st1{fill:#2C89C2;}
	.st2{opacity:0.6;fill:#0A5DE2;}
	.st3{fill:#FDFEFE;}
	.st4{fill:#3C91E5;}
	.st5{fill:#6BADDB;}
	.st6{fill:#FFFFFF;}
	.st7{fill:url(#SVGID_1_);}
	.st8{fill:#77BAF2;}
	.st9{fill:#0A5DE2;}
	.st10{fill:#3878FF;}
	.st11{fill:url(#SVGID_2_);}
	.st12{fill:#1552BC;}
	.st13{fill:#F43737;}
</style>
<g>
	<g class="st0">
		<g>
			<g>
				<path class="st1" d="M251.4,51c0.1-0.1,0.2-0.1,0.3-0.2c0.1-0.1,0.2-0.1,0.3-0.1c0.2-0.1,0.5-0.1,0.8-0.1c0.6,0,1.2,0.1,1.7,0.5
					c0.5,0.4,0.9,1,0.8,1.7c0,0.7-0.4,1.5-1.1,2c-0.7,0.6-1.6,0.7-2.3,0.6c-0.7-0.2-1.2-0.6-1.4-1.2c-0.2-0.6-0.2-1.3,0-1.8
					c0.1-0.3,0.2-0.5,0.3-0.7C251,51.3,251.2,51.2,251.4,51z"/>
			</g>
			<g>
				<path class="st1" d="M244.7,51c0.4,0.3,0.7,0.7,0.8,1.2c0.2,0.5,0.2,1.2,0.1,1.8c-0.2,0.6-0.6,1.1-1.3,1.3
					c-0.3,0.1-0.7,0.1-1.1,0c-0.4-0.1-0.8-0.2-1.2-0.5c-0.2-0.1-0.4-0.3-0.5-0.4c-0.1-0.2-0.3-0.3-0.4-0.5c-0.2-0.3-0.3-0.7-0.4-1.1
					c-0.1-0.7,0.2-1.3,0.7-1.7c0.5-0.4,1.1-0.5,1.7-0.6C243.8,50.6,244.3,50.7,244.7,51z"/>
			</g>
			<g>
				<path class="st1" d="M242.6,44.6c-0.1,0.2-0.2,0.4-0.3,0.6c-0.1,0.2-0.3,0.4-0.6,0.5c-0.4,0.3-1,0.6-1.7,0.6
					c-0.7,0-1.2-0.3-1.6-0.8c-0.2-0.3-0.3-0.6-0.4-1c-0.1-0.4,0-0.8,0.1-1.3c0.3-0.9,0.9-1.5,1.5-1.8c0.6-0.3,1.3-0.2,1.9,0.2
					c0.5,0.4,0.9,0.9,1.1,1.5c0,0.1,0.1,0.3,0.1,0.4c0,0.1,0.1,0.3,0.1,0.4C242.7,44.1,242.7,44.3,242.6,44.6z"/>
			</g>
			<g>
				<path class="st1" d="M248.1,40.7c-0.2,0-0.5,0-0.7-0.1c-0.2-0.1-0.5-0.2-0.7-0.4c-0.4-0.3-0.9-0.8-1.1-1.4
					c-0.2-0.6-0.1-1.3,0.3-1.8c0.4-0.6,1.2-0.9,2.1-1c0.5,0,0.9,0.1,1.3,0.2c0.4,0.2,0.7,0.4,0.9,0.6c0.5,0.5,0.6,1.2,0.4,1.8
					c-0.2,0.6-0.6,1.1-1.1,1.5C249.1,40.5,248.6,40.7,248.1,40.7z"/>
			</g>
			<g>
				<path class="st1" d="M253.5,44.6c-0.2-0.5-0.1-1,0-1.5c0.2-0.5,0.5-1.1,1-1.5c0.5-0.4,1.2-0.5,1.8-0.3c0.2,0.1,0.3,0.1,0.5,0.2
					c0.1,0.1,0.3,0.2,0.4,0.4c0.3,0.3,0.5,0.7,0.7,1.1c0.2,0.4,0.2,0.9,0.2,1.3c-0.1,0.4-0.2,0.8-0.3,1.1c-0.4,0.6-1,0.9-1.6,0.9
					c-0.7,0-1.3-0.2-1.7-0.6C254,45.5,253.6,45.1,253.5,44.6z"/>
			</g>
		</g>
		<g>
			<g>
				<path class="st1" d="M259.2,52.1c0.2-0.5,0.7-0.8,1.2-1c0.5-0.2,1.2-0.3,1.8-0.1c0.6,0.2,1.1,0.6,1.4,1.2c0.1,0.3,0.2,0.6,0.2,1
					c0,0.3-0.1,0.7-0.3,1c-0.1,0.2-0.2,0.3-0.3,0.5c-0.1,0.1-0.2,0.3-0.4,0.4c-0.3,0.2-0.6,0.4-0.9,0.5c-0.6,0.2-1.3,0.1-1.8-0.3
					c-0.5-0.4-0.9-0.9-1-1.5C258.9,53.1,259,52.6,259.2,52.1z"/>
			</g>
			<g>
				<path class="st1" d="M253.7,57.5c0.1-0.1,0.2-0.1,0.4-0.1c0.1,0,0.3-0.1,0.4-0.1c0.3,0,0.5,0,0.8,0.1c0.6,0.2,1.1,0.4,1.5,1
					c0.4,0.5,0.6,1.2,0.4,1.8c-0.2,0.6-0.6,1.2-1.2,1.6c-0.7,0.3-1.4,0.4-2,0.2c-0.6-0.2-1.1-0.7-1.3-1.3c-0.2-0.6-0.2-1.3,0-1.8
					c0.1-0.3,0.2-0.5,0.4-0.7C253.2,57.8,253.4,57.6,253.7,57.5z"/>
			</g>
			<g>
				<path class="st1" d="M246.1,58.7c0.3,0,0.5,0.1,0.7,0.3c0.2,0.1,0.4,0.3,0.6,0.5c0.4,0.4,0.6,1,0.6,1.7c0,0.7-0.2,1.2-0.7,1.7
					c-0.2,0.2-0.5,0.4-0.9,0.5c-0.3,0.1-0.7,0.1-1.1,0.1c-0.4-0.1-0.7-0.1-1-0.3c-0.3-0.2-0.5-0.4-0.7-0.7c-0.4-0.5-0.5-1.2-0.3-1.8
					c0.2-0.6,0.6-1.1,1.1-1.4C245,58.8,245.5,58.7,246.1,58.7z"/>
			</g>
			<g>
				<path class="st1" d="M239.2,55.2c0.4,0.4,0.6,0.9,0.6,1.4c0,0.6-0.1,1.2-0.5,1.7c-0.4,0.5-0.9,0.9-1.6,0.9
					c-0.6,0.1-1.3-0.2-1.9-0.7c-0.5-0.5-0.8-1.2-0.8-1.8c0-0.6,0.3-1.2,0.9-1.6c0.5-0.4,1.1-0.6,1.7-0.5
					C238.3,54.6,238.8,54.8,239.2,55.2z"/>
			</g>
			<g>
				<path class="st1" d="M235.7,48.3c0.1,0.5,0,1.1-0.3,1.5c-0.3,0.5-0.8,0.9-1.4,1.1c-0.6,0.2-1.3,0.2-1.8-0.2
					c-0.5-0.3-1-0.9-1.1-1.7c-0.1-0.4-0.1-0.7,0-1.1c0.1-0.3,0.2-0.6,0.4-0.9c0.4-0.5,1-0.8,1.6-0.8c0.7,0,1.3,0.2,1.7,0.6
					c0.2,0.2,0.4,0.4,0.6,0.6C235.5,47.8,235.7,48,235.7,48.3z"/>
			</g>
			<g>
				<path class="st1" d="M236.9,40.7c-0.2,0.5-0.7,0.8-1.2,1c-0.5,0.2-1.2,0.3-1.8,0.1c-0.6-0.2-1.1-0.6-1.4-1.2
					c-0.1-0.3-0.2-0.6-0.2-1c0-0.3,0.1-0.7,0.3-1c0.1-0.2,0.2-0.3,0.3-0.5c0.1-0.1,0.2-0.3,0.4-0.4c0.3-0.2,0.6-0.4,0.9-0.5
					c0.6-0.2,1.3-0.1,1.8,0.3c0.5,0.4,0.9,0.9,1,1.5C237.2,39.6,237.2,40.2,236.9,40.7z"/>
			</g>
			<g>
				<path class="st1" d="M242.4,35.2c-0.1,0.1-0.2,0.1-0.4,0.1c-0.1,0-0.3,0.1-0.4,0.1c-0.3,0-0.5,0-0.8-0.1c-0.6-0.2-1.1-0.4-1.5-1
					c-0.4-0.5-0.6-1.2-0.4-1.8c0.2-0.6,0.6-1.2,1.2-1.6c0.7-0.3,1.4-0.4,2-0.2c0.6,0.2,1.1,0.7,1.3,1.3c0.2,0.6,0.2,1.3,0,1.8
					c-0.1,0.3-0.2,0.5-0.4,0.7C242.9,34.9,242.7,35.1,242.4,35.2z"/>
			</g>
			<g>
				<path class="st1" d="M250.1,34c-0.3,0-0.5-0.1-0.7-0.3c-0.2-0.1-0.4-0.3-0.6-0.5c-0.4-0.4-0.6-1-0.6-1.7c0-0.7,0.2-1.2,0.7-1.7
					c0.2-0.2,0.5-0.4,0.9-0.5c0.3-0.1,0.7-0.1,1.1-0.1c0.4,0.1,0.7,0.1,1,0.3c0.3,0.2,0.5,0.4,0.7,0.7c0.4,0.5,0.5,1.2,0.3,1.8
					c-0.2,0.6-0.6,1.1-1.1,1.4C251.1,34,250.6,34.1,250.1,34z"/>
			</g>
			<g>
				<path class="st1" d="M256.9,37.6c-0.4-0.4-0.6-0.9-0.6-1.4c0-0.6,0.1-1.2,0.5-1.7c0.4-0.5,0.9-0.9,1.6-0.9
					c0.6-0.1,1.3,0.2,1.9,0.7c0.5,0.5,0.8,1.2,0.8,1.8c0,0.6-0.3,1.2-0.9,1.6c-0.5,0.4-1.1,0.6-1.7,0.5
					C257.9,38.1,257.3,38,256.9,37.6z"/>
			</g>
			<g>
				<path class="st1" d="M260.4,44.5c-0.1-0.5,0-1.1,0.3-1.5c0.3-0.5,0.8-0.9,1.4-1.1c0.6-0.2,1.3-0.2,1.8,0.2
					c0.5,0.3,1,0.9,1.1,1.7c0.1,0.4,0.1,0.7,0,1.1c-0.1,0.3-0.2,0.6-0.4,0.9c-0.4,0.5-1,0.8-1.6,0.8c-0.7,0-1.3-0.2-1.7-0.6
					c-0.2-0.2-0.4-0.4-0.6-0.6C260.6,45,260.4,44.7,260.4,44.5z"/>
			</g>
		</g>
		<g>
			<g>
				<path class="st1" d="M266.9,52.5c0.1-0.3,0.2-0.5,0.4-0.7c0.2-0.2,0.4-0.4,0.6-0.5c0.5-0.3,1.1-0.4,1.8-0.3
					c0.6,0.1,1.2,0.5,1.5,1c0.3,0.5,0.4,1.2,0.2,1.9c-0.2,0.7-0.7,1.2-1.2,1.5c-0.5,0.3-1.2,0.3-1.8,0c-0.6-0.3-1-0.7-1.3-1.2
					C266.8,53.7,266.7,53.1,266.9,52.5z"/>
			</g>
			<g>
				<path class="st1" d="M262.8,59.7c0.2-0.2,0.4-0.4,0.7-0.5c0.3-0.1,0.5-0.2,0.8-0.2c0.6-0.1,1.2,0.1,1.7,0.4
					c0.5,0.4,0.9,0.9,1,1.5c0,0.3,0,0.6-0.1,1c-0.1,0.3-0.3,0.6-0.5,0.9c-0.9,1.1-2.5,1.1-3.4,0.1c-0.4-0.5-0.7-1.1-0.7-1.7
					C262.2,60.7,262.4,60.1,262.8,59.7z"/>
			</g>
			<g>
				<path class="st1" d="M256.1,64.5c0.5-0.3,1.1-0.3,1.6-0.1c0.5,0.2,1.1,0.5,1.4,1.1c0.3,0.6,0.4,1.2,0.3,1.8
					c-0.2,0.6-0.6,1.1-1.3,1.4c-0.2,0.1-0.3,0.1-0.5,0.2c-0.2,0-0.3,0-0.5,0.1c-0.3,0-0.7-0.1-0.9-0.2c-0.6-0.2-1-0.7-1.2-1.3
					c-0.2-0.6-0.2-1.3,0-1.8c0.1-0.3,0.3-0.5,0.4-0.7C255.6,64.8,255.8,64.7,256.1,64.5z"/>
			</g>
			<g>
				<path class="st1" d="M248,66.2c0.6,0,1.1,0.2,1.5,0.6c0.4,0.4,0.8,1,0.8,1.6c0.1,0.7-0.1,1.3-0.5,1.7c-0.4,0.5-1,0.8-1.7,0.8
					c-0.7,0-1.4-0.3-1.8-0.7c-0.4-0.4-0.7-1-0.6-1.7c0.1-0.6,0.4-1.2,0.8-1.6C246.9,66.5,247.4,66.2,248,66.2z"/>
			</g>
			<g>
				<path class="st1" d="M239.9,64.5c0.1,0.1,0.3,0.1,0.4,0.2c0.1,0.1,0.2,0.2,0.3,0.3c0.2,0.2,0.4,0.4,0.5,0.7
					c0.2,0.5,0.3,1.2,0.1,1.8c-0.2,0.6-0.6,1.1-1.2,1.4c-0.3,0.1-0.6,0.2-0.9,0.2c-0.3,0-0.7,0-1-0.2c-0.6-0.3-1.1-0.8-1.3-1.4
					c-0.2-0.6-0.2-1.3,0.2-1.8c0.3-0.6,0.8-1,1.4-1.2C238.8,64.3,239.4,64.2,239.9,64.5z"/>
			</g>
			<g>
				<path class="st1" d="M233.3,59.6c0.4,0.4,0.5,1,0.6,1.5c0,0.6-0.2,1.2-0.6,1.7c-0.4,0.5-1,0.8-1.6,0.8c-0.6,0-1.3-0.2-1.8-0.8
					c-0.2-0.3-0.4-0.5-0.5-0.9c-0.1-0.3-0.1-0.6-0.1-1c0.1-0.6,0.4-1.2,0.9-1.6c0.5-0.4,1.1-0.6,1.7-0.5c0.3,0,0.6,0.1,0.8,0.2
					C232.9,59.2,233.1,59.4,233.3,59.6z"/>
			</g>
			<g>
				<path class="st1" d="M229.2,52.5c0.2,0.5,0.2,1.1-0.1,1.6c-0.3,0.5-0.6,1-1.2,1.3c-0.6,0.3-1.3,0.3-1.8,0.1
					c-0.6-0.2-1-0.7-1.3-1.4c-0.1-0.3-0.2-0.7-0.1-1c0-0.3,0.1-0.6,0.3-0.9c0.3-0.6,0.8-0.9,1.4-1.1c0.6-0.1,1.3,0,1.8,0.2
					C228.6,51.5,229,51.9,229.2,52.5z"/>
			</g>
			<g>
				<path class="st1" d="M228.3,44.2c0,0.6-0.3,1.1-0.7,1.5c-0.4,0.4-1,0.6-1.7,0.7c-0.7,0-1.2-0.2-1.7-0.7
					c-0.4-0.5-0.7-1.1-0.6-1.8c0.1-0.7,0.4-1.3,0.9-1.7c0.5-0.4,1.1-0.5,1.8-0.4c0.6,0.1,1.2,0.5,1.5,0.9
					C228.2,43.1,228.4,43.7,228.3,44.2z"/>
			</g>
			<g>
				<path class="st1" d="M230.9,36.4c-0.3,0.5-0.7,0.8-1.3,1c-0.5,0.2-1.2,0.2-1.8-0.1c-0.6-0.3-1-0.7-1.2-1.3
					c-0.2-0.6-0.2-1.3,0.2-1.9c0.4-0.6,0.9-1,1.5-1.2c0.6-0.1,1.3,0,1.8,0.4c0.5,0.4,0.9,0.9,1,1.5
					C231.2,35.3,231.2,35.9,230.9,36.4z"/>
			</g>
			<g>
				<path class="st1" d="M236.4,30.3c-0.4,0.4-1,0.4-1.6,0.4c-0.6-0.1-1.1-0.3-1.6-0.8c-0.4-0.5-0.7-1.1-0.6-1.7
					c0-0.6,0.4-1.2,0.9-1.7c0.3-0.2,0.6-0.4,0.9-0.5c0.3-0.1,0.7-0.1,1,0c0.6,0.1,1.2,0.5,1.5,1c0.3,0.6,0.4,1.2,0.3,1.8
					C237.2,29.4,236.9,29.9,236.4,30.3z"/>
			</g>
			<g>
				<path class="st1" d="M244,26.9c-0.6,0.2-1.1,0-1.6-0.3c-0.5-0.3-0.9-0.8-1.1-1.4c-0.2-0.6-0.2-1.3,0.1-1.8
					c0.3-0.5,0.9-1,1.5-1.1c0.7-0.2,1.4,0,1.9,0.3c0.5,0.3,0.9,0.9,0.9,1.5c0.1,0.6-0.1,1.3-0.4,1.8C245,26.5,244.5,26.8,244,26.9z"
					/>
			</g>
			<g>
				<path class="st1" d="M252.2,27c-0.6-0.1-1-0.4-1.4-0.9c-0.3-0.5-0.5-1.1-0.5-1.7c0.1-0.7,0.4-1.2,0.9-1.6
					c0.5-0.4,1.2-0.6,1.9-0.4c0.7,0.2,1.3,0.6,1.6,1.1c0.3,0.5,0.4,1.2,0.2,1.8c-0.2,0.6-0.6,1.1-1.1,1.4
					C253.3,27,252.8,27.1,252.2,27z"/>
			</g>
			<g>
				<path class="st1" d="M259.7,30.4c-0.2-0.2-0.4-0.4-0.6-0.6c-0.2-0.2-0.3-0.5-0.3-0.8c-0.1-0.6-0.1-1.2,0.3-1.8
					c0.3-0.6,0.8-1,1.4-1.1c0.6-0.1,1.3-0.1,1.9,0.4c0.6,0.4,1,1,1,1.6c0.1,0.6-0.1,1.3-0.5,1.7c-0.4,0.5-1,0.8-1.6,0.9
					C260.8,30.8,260.2,30.7,259.7,30.4z"/>
			</g>
			<g>
				<path class="st1" d="M265.3,36.5c-0.3-0.5-0.4-1.1-0.2-1.6c0.1-0.6,0.4-1.1,0.9-1.5c0.5-0.4,1.2-0.5,1.8-0.4
					c0.6,0.1,1.2,0.5,1.6,1.1c0.4,0.6,0.4,1.3,0.3,1.9c-0.2,0.6-0.6,1.1-1.2,1.4c-0.6,0.3-1.2,0.3-1.8,0.2
					C266,37.3,265.6,37,265.3,36.5z"/>
			</g>
			<g>
				<path class="st1" d="M267.8,44.3c-0.1-0.6,0.1-1.1,0.4-1.6c0.4-0.5,0.9-0.8,1.5-1c0.6-0.2,1.3,0,1.8,0.3c0.5,0.4,0.9,0.9,1,1.7
					c0.1,0.7-0.2,1.4-0.5,1.9c-0.4,0.5-1,0.8-1.6,0.8c-0.7,0-1.3-0.2-1.7-0.6C268.1,45.4,267.8,44.9,267.8,44.3z"/>
			</g>
		</g>
		<g>
			<g>
				<path class="st1" d="M273,52.8c0.1-0.3,0.2-0.5,0.4-0.8c0.1-0.1,0.2-0.2,0.3-0.3c0.1-0.1,0.2-0.2,0.3-0.3
					c0.5-0.3,1.1-0.5,1.7-0.4c1.3,0.2,2.2,1.4,1.9,2.8c-0.2,0.7-0.6,1.2-1.1,1.5c-0.6,0.3-1.2,0.4-1.8,0.2c-0.6-0.2-1.1-0.6-1.4-1.1
					C273.1,53.9,272.9,53.3,273,52.8z"/>
			</g>
			<g>
				<path class="st1" d="M269.6,60.5c0.6-1,2-1.3,3.2-0.8c1.2,0.6,1.6,2,0.8,3.3c-0.1,0.2-0.2,0.3-0.3,0.4c-0.1,0.1-0.3,0.2-0.4,0.3
					c-0.3,0.2-0.6,0.3-0.9,0.4c-0.6,0.1-1.2,0-1.8-0.4c-0.5-0.4-0.8-1-1-1.5c-0.1-0.3-0.1-0.6,0-0.9C269.4,61,269.5,60.8,269.6,60.5
					z"/>
			</g>
			<g>
				<path class="st1" d="M263.9,66.8c0.2-0.2,0.5-0.3,0.8-0.4c0.3-0.1,0.5-0.1,0.8-0.1c0.6,0,1.2,0.3,1.6,0.8
					c0.5,0.5,0.7,1.1,0.6,1.7c0,0.3-0.1,0.6-0.2,0.9c-0.1,0.3-0.4,0.5-0.6,0.8c-0.5,0.4-1.2,0.6-1.8,0.5c-0.6-0.1-1.2-0.4-1.5-1
					c-0.4-0.5-0.5-1.1-0.4-1.7C263.1,67.7,263.4,67.1,263.9,66.8z"/>
			</g>
			<g>
				<path class="st1" d="M256.4,70.8c0.5-0.2,1.1-0.2,1.7,0.1c0.5,0.3,1,0.7,1.3,1.3c0.3,0.6,0.3,1.3,0.1,1.8
					c-0.2,0.6-0.7,1-1.4,1.3c-0.3,0.1-0.7,0.2-1,0.2c-0.3,0-0.6-0.1-0.9-0.3c-0.6-0.3-1-0.8-1.1-1.4c-0.2-0.6-0.1-1.3,0.2-1.8
					c0.1-0.3,0.3-0.5,0.5-0.7C255.9,71.1,256.1,70.9,256.4,70.8z"/>
			</g>
			<g>
				<path class="st1" d="M248,72.2c1.2-0.1,2.2,0.9,2.4,2.2c0.2,1.3-0.9,2.4-2.3,2.5c-1.4,0-2.5-1.1-2.4-2.4
					C245.8,73.2,246.8,72.2,248,72.2z"/>
			</g>
			<g>
				<path class="st1" d="M239.6,70.8c0.3,0.1,0.5,0.3,0.7,0.4c0.2,0.2,0.4,0.4,0.5,0.6c0.3,0.5,0.4,1.1,0.2,1.8
					c-0.1,0.6-0.5,1.2-1.1,1.5c-0.3,0.2-0.6,0.3-0.9,0.3c-0.3,0-0.7,0-1-0.1c-0.7-0.2-1.2-0.7-1.4-1.2c-0.3-0.5-0.3-1.2,0-1.8
					c0.3-0.6,0.7-1,1.2-1.3C238.5,70.6,239.1,70.6,239.6,70.8z"/>
			</g>
			<g>
				<path class="st1" d="M232.2,66.7c0.5,0.3,0.8,0.9,0.8,1.5c0.1,0.6,0,1.2-0.3,1.8c-0.3,0.5-0.9,0.9-1.5,1c-0.6,0.1-1.3,0-1.8-0.5
					c-0.3-0.2-0.5-0.4-0.7-0.7c-0.2-0.3-0.2-0.6-0.3-0.9c-0.1-0.6,0.1-1.2,0.6-1.7c0.4-0.5,1-0.8,1.6-0.8c0.3,0,0.6,0,0.8,0.1
					C231.7,66.4,231.9,66.5,232.2,66.7z"/>
			</g>
			<g>
				<path class="st1" d="M226.4,60.4c0.1,0.1,0.1,0.3,0.2,0.4c0.1,0.1,0.1,0.3,0.1,0.4c0.1,0.3,0.1,0.6,0,0.8
					c-0.1,0.6-0.4,1.1-0.9,1.6c-0.5,0.4-1.1,0.6-1.7,0.5c-0.3,0-0.6-0.2-0.9-0.3c-0.3-0.2-0.5-0.4-0.7-0.7c-0.8-1.2-0.5-2.7,0.7-3.3
					C224.4,59.2,225.8,59.5,226.4,60.4z"/>
			</g>
			<g>
				<path class="st1" d="M223,52.7c0.2,0.6,0,1.2-0.2,1.7c-0.3,0.5-0.7,0.9-1.3,1.2c-0.6,0.2-1.3,0.2-1.8-0.1
					c-0.6-0.3-1-0.8-1.2-1.5c-0.1-0.3-0.1-0.7-0.1-1c0-0.2,0.1-0.3,0.1-0.5c0.1-0.1,0.1-0.3,0.2-0.4c0.3-0.5,0.9-0.9,1.5-1
					C221.5,50.8,222.7,51.6,223,52.7z"/>
			</g>
			<g>
				<path class="st1" d="M222.4,44.2c0,1.2-1.1,2.1-2.4,2.2c-1.3,0-2.3-1-2.3-2.5c0-0.7,0.4-1.3,0.9-1.7c0.5-0.4,1.1-0.6,1.7-0.5
					c0.6,0.1,1.2,0.4,1.6,0.9c0.2,0.2,0.3,0.5,0.4,0.7c0,0.1,0.1,0.3,0.1,0.4C222.3,43.9,222.4,44,222.4,44.2z"/>
			</g>
			<g>
				<path class="st1" d="M224.4,36c-0.1,0.1-0.1,0.3-0.2,0.4c-0.1,0.1-0.2,0.2-0.3,0.3c-0.2,0.2-0.4,0.4-0.7,0.5
					c-0.5,0.2-1.2,0.3-1.8,0.1c-0.6-0.2-1.1-0.6-1.4-1.2c-0.1-0.3-0.2-0.6-0.2-0.9c0-0.3,0-0.7,0.2-1c0.6-1.3,2-1.8,3.2-1.2
					C224.4,33.5,224.9,34.9,224.4,36z"/>
			</g>
			<g>
				<path class="st1" d="M229.1,28.9c-0.4,0.4-0.9,0.7-1.5,0.7c-0.6,0.1-1.2-0.1-1.7-0.5c-0.5-0.4-0.8-1-0.9-1.6
					c-0.1-0.6,0.2-1.3,0.6-1.8c0.9-1.1,2.5-1.1,3.4-0.1c0.5,0.5,0.7,1.1,0.7,1.6C229.6,27.8,229.5,28.4,229.1,28.9z"/>
			</g>
			<g>
				<path class="st1" d="M235.8,23.6c-1,0.6-2.4,0.3-3.1-0.8c-0.8-1.1-0.4-2.5,0.8-3.3c1.3-0.7,2.7-0.2,3.3,1
					C237.3,21.7,236.8,23.1,235.8,23.6z"/>
			</g>
			<g>
				<path class="st1" d="M243.9,20.9c-0.6,0.1-1.2-0.1-1.6-0.4c-0.5-0.3-0.9-0.8-1.1-1.4c-0.2-0.6-0.1-1.3,0.2-1.8
					c0.2-0.3,0.4-0.5,0.6-0.7c0.3-0.2,0.6-0.3,0.9-0.4c0.7-0.1,1.4,0,1.9,0.4c0.5,0.4,0.8,1,0.9,1.6c0.1,0.7-0.1,1.2-0.5,1.7
					C244.9,20.5,244.4,20.8,243.9,20.9z"/>
			</g>
			<g>
				<path class="st1" d="M252.4,20.9c-0.6-0.1-1.1-0.4-1.4-0.9c-0.4-0.5-0.6-1-0.5-1.7c0-0.6,0.3-1.2,0.8-1.6
					c0.5-0.4,1.1-0.6,1.8-0.5c0.7,0.1,1.3,0.4,1.6,1c0.4,0.5,0.5,1.2,0.3,1.8c-0.1,0.6-0.5,1.2-1,1.5c-0.2,0.2-0.5,0.3-0.8,0.4
					C252.9,21,252.6,21,252.4,20.9z"/>
			</g>
			<g>
				<path class="st1" d="M260.4,23.7c-1.1-0.5-1.5-1.8-1-3.1c0.5-1.2,1.9-1.7,3.2-1.1c1.2,0.7,1.7,2.2,0.9,3.3
					C262.8,23.8,261.4,24.3,260.4,23.7z"/>
			</g>
			<g>
				<path class="st1" d="M267.1,28.9c-0.8-0.9-0.8-2.2,0-3.2c0.4-0.5,1-0.8,1.6-0.8c0.6,0,1.3,0.2,1.7,0.7c0.5,0.5,0.7,1.1,0.7,1.8
					c0,0.6-0.3,1.2-0.8,1.6c-0.5,0.4-1.1,0.6-1.7,0.6C268,29.6,267.5,29.4,267.1,28.9z"/>
			</g>
			<g>
				<path class="st1" d="M271.7,36.1c-0.5-1,0-2.4,1.1-3.1c1.1-0.7,2.6-0.2,3.2,1.1c0.1,0.2,0.1,0.3,0.2,0.5c0,0.2,0,0.3,0,0.5
					c0,0.3-0.1,0.6-0.2,0.9c-0.2,0.6-0.7,1-1.3,1.3c-0.6,0.2-1.3,0.2-1.8,0c-0.3-0.1-0.5-0.3-0.7-0.5
					C272,36.5,271.9,36.3,271.7,36.1z"/>
			</g>
			<g>
				<path class="st1" d="M273.8,44.3c0-0.6,0.1-1.1,0.5-1.6c0.4-0.5,0.9-0.8,1.5-0.9c0.6-0.1,1.3,0,1.8,0.4c0.2,0.2,0.5,0.4,0.6,0.7
					c0.1,0.1,0.2,0.3,0.2,0.4c0,0.2,0.1,0.3,0.1,0.5c0.1,1.4-0.9,2.6-2.2,2.6C275,46.4,273.8,45.4,273.8,44.3z"/>
			</g>
		</g>
		<g>
			<g>
				<path class="st1" d="M279.9,53c0.1-0.6,0.4-1.1,0.9-1.5c0.5-0.3,1.1-0.5,1.7-0.5c0.6,0.1,1.2,0.4,1.6,0.9
					c0.4,0.5,0.5,1.2,0.4,1.9c-0.1,0.7-0.5,1.3-1,1.6c-0.5,0.3-1.2,0.5-1.8,0.3c-0.6-0.2-1.1-0.6-1.5-1.1
					C279.9,54.2,279.8,53.6,279.9,53z"/>
			</g>
			<g>
				<path class="st1" d="M276.9,61.4c0.5-1.1,1.9-1.6,3.1-1.1c0.6,0.2,1,0.7,1.3,1.3c0.1,0.3,0.2,0.6,0.1,0.9c0,0.3-0.1,0.7-0.3,1
					c-0.3,0.6-0.8,1.1-1.4,1.3c-0.6,0.2-1.2,0.1-1.8-0.2c-0.6-0.3-0.9-0.9-1.1-1.4C276.6,62.5,276.7,61.9,276.9,61.4z"/>
			</g>
			<g>
				<path class="st1" d="M271.8,68.6c0.4-0.4,1-0.7,1.6-0.8c0.6,0,1.2,0.1,1.7,0.5c1,0.8,1.2,2.3,0.2,3.4c-0.9,1.1-2.5,1.1-3.4,0.2
					C271,71,271,69.5,271.8,68.6z"/>
			</g>
			<g>
				<path class="st1" d="M264.9,74.2c0.5-0.3,1.1-0.4,1.7-0.3c0.6,0.1,1.1,0.4,1.5,0.9c0.4,0.5,0.5,1.2,0.4,1.8
					c-0.1,0.6-0.5,1.2-1.1,1.6c-0.6,0.4-1.3,0.5-1.9,0.3c-0.6-0.1-1.1-0.5-1.4-1.1c-0.3-0.6-0.4-1.2-0.2-1.8
					C264.1,75,264.4,74.5,264.9,74.2z"/>
			</g>
			<g>
				<path class="st1" d="M256.8,77.7c0.6-0.2,1.2-0.1,1.7,0.2c0.5,0.3,1,0.7,1.2,1.3c0.2,0.6,0.2,1.3-0.1,1.8
					c-0.1,0.3-0.3,0.5-0.6,0.7c-0.3,0.2-0.6,0.4-0.9,0.5c-0.7,0.2-1.4,0.1-1.9-0.2c-0.5-0.3-0.9-0.8-1.1-1.4c-0.1-0.6,0-1.3,0.3-1.8
					C255.7,78.3,256.2,77.9,256.8,77.7z"/>
			</g>
			<g>
				<path class="st1" d="M248,78.9c0.6,0,1.2,0.2,1.6,0.6c0.4,0.4,0.8,1,0.8,1.6c0.1,0.6-0.2,1.3-0.6,1.7c-0.4,0.4-1,0.7-1.7,0.8
					c-0.7,0-1.3-0.3-1.8-0.7c-0.4-0.4-0.7-1.1-0.7-1.7c0-0.7,0.3-1.2,0.7-1.6C246.8,79.2,247.4,78.9,248,78.9z"/>
			</g>
			<g>
				<path class="st1" d="M239.2,77.7c0.6,0.2,1.1,0.5,1.4,1c0.3,0.5,0.5,1.1,0.3,1.8c-0.1,0.6-0.5,1.2-1,1.5
					c-0.5,0.3-1.2,0.5-1.9,0.3c-0.7-0.2-1.2-0.6-1.5-1.1c-0.3-0.5-0.4-1.2-0.2-1.8c0.2-0.6,0.6-1.1,1.2-1.4c0.3-0.1,0.5-0.2,0.8-0.3
					C238.6,77.6,238.9,77.6,239.2,77.7z"/>
			</g>
			<g>
				<path class="st1" d="M231.1,74.1c0.5,0.3,0.9,0.8,1.1,1.4c0.2,0.6,0.1,1.2-0.1,1.8c-0.3,0.6-0.8,1-1.4,1.2
					c-0.6,0.2-1.3,0.1-1.9-0.2c-0.6-0.4-1-0.9-1.2-1.5c-0.1-0.6,0-1.3,0.3-1.8c0.4-0.5,0.9-0.9,1.5-1
					C230,73.8,230.6,73.8,231.1,74.1z"/>
			</g>
			<g>
				<path class="st1" d="M224.2,68.5c0.8,0.9,0.9,2.3,0,3.3c-0.9,1-2.4,1-3.4,0c-0.5-0.5-0.7-1.2-0.7-1.8c0-0.6,0.3-1.2,0.8-1.6
					C221.9,67.6,223.4,67.7,224.2,68.5z"/>
			</g>
			<g>
				<path class="st1" d="M219.1,61.3c0.3,0.5,0.3,1.1,0.2,1.7c-0.2,0.6-0.5,1.1-1.1,1.5c-0.6,0.4-1.2,0.4-1.8,0.3
					c-0.6-0.2-1.2-0.6-1.5-1.2c-0.7-1.2-0.2-2.7,1-3.3c0.6-0.3,1.2-0.3,1.8-0.1c0.3,0.1,0.5,0.2,0.8,0.4
					C218.8,60.8,219,61,219.1,61.3z"/>
			</g>
			<g>
				<path class="st1" d="M216.2,52.9c0.2,0.6,0,1.2-0.3,1.7c-0.3,0.5-0.8,0.9-1.4,1.1c-0.6,0.2-1.3,0.1-1.8-0.2
					c-0.5-0.3-0.9-0.9-1.1-1.6c-0.2-0.7,0-1.4,0.3-1.9c0.3-0.5,0.9-0.9,1.5-1c0.6-0.1,1.3,0.1,1.8,0.4
					C215.7,51.9,216.1,52.3,216.2,52.9z"/>
			</g>
			<g>
				<path class="st1" d="M215.6,44.1c0,0.6-0.3,1.2-0.7,1.6c-0.4,0.4-1,0.7-1.7,0.7c-0.7,0-1.2-0.2-1.7-0.7
					c-0.4-0.4-0.7-1.1-0.7-1.8c0.1-1.4,1.3-2.4,2.5-2.3C214.7,41.8,215.6,42.9,215.6,44.1z"/>
			</g>
			<g>
				<path class="st1" d="M217.4,35.4c-0.2,0.6-0.6,1-1.1,1.3c-0.5,0.3-1.2,0.4-1.8,0.2c-1.3-0.3-2-1.7-1.6-3c0.5-1.3,1.9-2,3.1-1.5
					C217.2,33,217.8,34.3,217.4,35.4z"/>
			</g>
			<g>
				<path class="st1" d="M221.5,27.6c-0.4,0.5-0.9,0.8-1.4,1c-0.6,0.1-1.2,0.1-1.8-0.3c-0.6-0.3-0.9-0.9-1.1-1.5
					c-0.1-0.6,0-1.3,0.4-1.9c0.2-0.3,0.4-0.5,0.7-0.7c0.3-0.2,0.6-0.3,0.9-0.3c0.6-0.1,1.2,0,1.8,0.4c0.5,0.4,0.8,1,0.9,1.6
					c0,0.3,0,0.6,0,0.9C221.8,27,221.7,27.3,221.5,27.6z"/>
			</g>
			<g>
				<path class="st1" d="M227.6,21.1c-0.9,0.8-2.4,0.7-3.3-0.2c-0.5-0.5-0.7-1.1-0.6-1.7c0-0.6,0.3-1.2,0.9-1.7
					c0.5-0.4,1.2-0.7,1.8-0.6c0.6,0.1,1.2,0.4,1.6,0.9c0.4,0.5,0.5,1.2,0.5,1.7C228.3,20.1,228,20.7,227.6,21.1z"/>
			</g>
			<g>
				<path class="st1" d="M235.1,16.5c-1.1,0.5-2.5,0.1-3.1-1.1c-0.6-1.1-0.2-2.6,1.1-3.2c1.3-0.6,2.7,0,3.2,1.2
					C236.8,14.7,236.2,16,235.1,16.5z"/>
			</g>
			<g>
				<path class="st1" d="M243.7,14.1c-0.6,0.1-1.2-0.1-1.7-0.4c-0.5-0.3-0.9-0.9-1-1.5c-0.1-0.6,0-1.3,0.3-1.8
					c0.4-0.5,0.9-0.9,1.6-1c1.4-0.2,2.6,0.7,2.7,2C245.8,12.8,244.9,13.9,243.7,14.1z"/>
			</g>
			<g>
				<path class="st1" d="M252.5,14.2c-1.2-0.1-2.1-1.2-2.1-2.5c0-1.3,1.2-2.3,2.6-2.2c0.7,0.1,1.3,0.4,1.7,0.9
					c0.4,0.5,0.5,1.1,0.4,1.8c-0.1,0.6-0.5,1.2-1,1.5C253.7,14.1,253.1,14.2,252.5,14.2z"/>
			</g>
			<g>
				<path class="st1" d="M261.1,16.6c-1.1-0.5-1.7-1.8-1.3-3c0.4-1.3,1.8-1.9,3.1-1.4c1.3,0.5,1.9,2,1.3,3.2
					C263.5,16.5,262.2,17,261.1,16.6z"/>
			</g>
			<g>
				<path class="st1" d="M268.6,21.2c-0.5-0.4-0.8-0.9-0.9-1.5c-0.1-0.6,0-1.2,0.4-1.8c0.7-1.1,2.3-1.3,3.4-0.5
					c1.1,0.9,1.3,2.4,0.4,3.4c-0.4,0.5-1,0.7-1.6,0.8C269.7,21.7,269.1,21.5,268.6,21.2z"/>
			</g>
			<g>
				<path class="st1" d="M274.7,27.7c-0.2-0.2-0.3-0.5-0.4-0.8c-0.1-0.3-0.1-0.6-0.1-0.9c0.1-0.6,0.4-1.2,0.9-1.6
					c0.5-0.4,1.1-0.6,1.7-0.5c0.3,0,0.6,0.1,0.9,0.3c0.3,0.2,0.5,0.4,0.7,0.7c0.4,0.6,0.6,1.2,0.5,1.9c-0.1,0.6-0.4,1.2-1,1.5
					c-0.5,0.4-1.2,0.5-1.8,0.3C275.6,28.5,275,28.1,274.7,27.7z"/>
			</g>
			<g>
				<path class="st1" d="M278.7,35.5c-0.4-1.1,0.1-2.5,1.3-3c1.2-0.6,2.6,0,3.1,1.3c0.2,0.7,0.2,1.3-0.1,1.9c-0.3,0.6-0.8,1-1.4,1.2
					C280.5,37.3,279.2,36.7,278.7,35.5z"/>
			</g>
			<g>
				<path class="st1" d="M280.5,44.2c-0.1-1.2,0.8-2.3,2.1-2.6c1.3-0.2,2.5,0.7,2.6,2.1c0.1,0.7-0.2,1.4-0.6,1.8
					c-0.4,0.5-1,0.8-1.6,0.8c-0.7,0-1.3-0.2-1.7-0.6C280.8,45.3,280.6,44.8,280.5,44.2z"/>
			</g>
		</g>
		<g>
			<g>
				<path class="st1" d="M286.8,53c0.1-0.6,0.4-1.1,0.9-1.5c0.5-0.4,1.1-0.6,1.7-0.5c0.7,0.1,1.2,0.4,1.6,0.9
					c0.4,0.5,0.6,1.1,0.5,1.8c-0.1,0.7-0.5,1.2-1,1.6c-0.5,0.4-1.1,0.5-1.8,0.4c-0.6-0.1-1.2-0.5-1.5-1
					C286.9,54.2,286.7,53.6,286.8,53z"/>
			</g>
			<g>
				<path class="st1" d="M284.4,61.5c0.2-0.6,0.6-1,1.2-1.2c0.5-0.2,1.2-0.3,1.8-0.1c0.6,0.2,1.1,0.6,1.4,1.2
					c0.3,0.6,0.3,1.2,0.1,1.9c-0.5,1.3-1.9,1.9-3.1,1.3C284.5,63.9,283.9,62.6,284.4,61.5z"/>
			</g>
			<g>
				<path class="st1" d="M280.1,69.2c0.7-1,2.1-1.3,3.2-0.6c0.6,0.3,0.9,0.9,1.1,1.5c0.1,0.3,0.1,0.6,0,0.9
					c-0.1,0.3-0.2,0.6-0.4,0.9c-0.8,1.2-2.3,1.4-3.3,0.6c-0.5-0.4-0.8-1-0.9-1.5c-0.1-0.3,0-0.6,0-0.9
					C279.8,69.7,279.9,69.4,280.1,69.2z"/>
			</g>
			<g>
				<path class="st1" d="M274.2,75.7c0.9-0.8,2.3-0.8,3.3,0.1c0.9,0.9,0.9,2.4,0,3.4c-0.5,0.5-1.1,0.7-1.8,0.7
					c-0.6,0-1.2-0.3-1.6-0.8c-0.4-0.5-0.6-1.1-0.6-1.7C273.6,76.7,273.8,76.2,274.2,75.7z"/>
			</g>
			<g>
				<path class="st1" d="M267,80.8c0.5-0.3,1.1-0.4,1.7-0.2c0.6,0.1,1.1,0.5,1.5,1c0.4,0.5,0.5,1.2,0.3,1.8
					c-0.1,0.6-0.5,1.1-1.1,1.5c-1.2,0.7-2.7,0.3-3.2-0.9C265.6,82.8,266,81.4,267,80.8z"/>
			</g>
			<g>
				<path class="st1" d="M258.9,84.2c0.3-0.1,0.6-0.1,0.9-0.1c0.3,0,0.6,0.1,0.8,0.2c0.5,0.3,1,0.7,1.2,1.3c0.2,0.6,0.2,1.3-0.1,1.8
					c-0.3,0.6-0.8,1-1.4,1.2c-1.3,0.4-2.7-0.4-3-1.6C257,85.8,257.8,84.6,258.9,84.2z"/>
			</g>
			<g>
				<path class="st1" d="M250.2,85.7c1.2-0.1,2.3,0.8,2.5,2.1c0.1,0.6-0.1,1.3-0.5,1.7c-0.4,0.5-1,0.8-1.7,0.9
					c-1.4,0.1-2.5-0.9-2.5-2.2C248,86.8,249,85.7,250.2,85.7z"/>
			</g>
			<g>
				<path class="st1" d="M241.4,85.2c0.6,0.1,1.1,0.4,1.5,0.9c0.4,0.5,0.6,1.1,0.5,1.7c-0.1,0.7-0.4,1.2-0.9,1.6
					c-0.5,0.4-1.1,0.6-1.8,0.5c-0.7-0.1-1.2-0.5-1.6-1c-0.4-0.5-0.5-1.1-0.4-1.8c0.1-0.6,0.5-1.2,1-1.5
					C240.2,85.3,240.8,85.1,241.4,85.2z"/>
			</g>
			<g>
				<path class="st1" d="M232.9,82.7c0.6,0.2,1,0.6,1.2,1.2c0.2,0.5,0.3,1.2,0.1,1.8c-0.2,0.6-0.6,1.1-1.2,1.4
					c-0.6,0.3-1.2,0.3-1.9,0.1c-1.3-0.5-1.9-1.9-1.3-3.1C230.5,82.8,231.8,82.3,232.9,82.7z"/>
			</g>
			<g>
				<path class="st1" d="M225.2,78.4c1,0.7,1.3,2.1,0.6,3.2c-0.3,0.6-0.9,0.9-1.5,1.1c-0.3,0.1-0.6,0.1-0.9,0
					c-0.3-0.1-0.6-0.2-0.9-0.4c-1.2-0.8-1.4-2.3-0.6-3.3c0.4-0.5,1-0.8,1.5-0.9c0.3-0.1,0.6,0,0.9,0C224.7,78.2,225,78.3,225.2,78.4
					z"/>
			</g>
			<g>
				<path class="st1" d="M218.7,72.6c0.8,0.9,0.8,2.3-0.1,3.3c-0.9,0.9-2.4,0.9-3.4,0c-0.5-0.5-0.7-1.1-0.7-1.8
					c0-0.6,0.3-1.2,0.8-1.6c0.5-0.4,1.1-0.6,1.7-0.6C217.7,71.9,218.3,72.1,218.7,72.6z"/>
			</g>
			<g>
				<path class="st1" d="M213.6,65.4c0.3,0.5,0.4,1.1,0.2,1.7c-0.1,0.6-0.5,1.1-1,1.5c-0.5,0.4-1.2,0.5-1.8,0.3
					c-0.6-0.1-1.1-0.5-1.5-1.1c-0.7-1.2-0.3-2.7,0.9-3.2C211.6,63.9,213,64.3,213.6,65.4z"/>
			</g>
			<g>
				<path class="st1" d="M210.2,57.2c0.1,0.3,0.1,0.6,0.1,0.9c0,0.3-0.1,0.6-0.2,0.8c-0.3,0.5-0.7,1-1.3,1.2
					c-0.6,0.2-1.3,0.2-1.8-0.1c-0.6-0.3-1-0.8-1.2-1.4c-0.4-1.3,0.4-2.7,1.6-3C208.6,55.4,209.8,56.1,210.2,57.2z"/>
			</g>
			<g>
				<path class="st1" d="M208.8,48.5c0.1,1.2-0.8,2.3-2.1,2.5c-0.6,0.1-1.3-0.1-1.7-0.5c-0.5-0.4-0.8-1-0.9-1.7
					c-0.1-1.4,0.9-2.5,2.2-2.5C207.6,46.4,208.7,47.3,208.8,48.5z"/>
			</g>
			<g>
				<path class="st1" d="M209.3,39.7c-0.1,0.6-0.4,1.1-0.9,1.5c-0.5,0.4-1.1,0.6-1.7,0.5c-0.7-0.1-1.2-0.4-1.6-0.9
					c-0.4-0.5-0.6-1.1-0.5-1.8c0.1-0.7,0.5-1.2,1-1.6c0.5-0.4,1.1-0.5,1.8-0.4c0.6,0.1,1.2,0.5,1.5,1
					C209.2,38.5,209.4,39.1,209.3,39.7z"/>
			</g>
			<g>
				<path class="st1" d="M211.7,31.3c-0.2,0.6-0.6,1-1.2,1.2c-0.5,0.2-1.2,0.3-1.8,0.1c-0.6-0.2-1.1-0.6-1.4-1.2
					c-0.3-0.6-0.3-1.2-0.1-1.9c0.5-1.3,1.9-1.9,3.1-1.3C211.6,28.8,212.2,30.1,211.7,31.3z"/>
			</g>
			<g>
				<path class="st1" d="M216,23.6c-0.7,1-2.1,1.3-3.2,0.6c-0.6-0.3-0.9-0.9-1.1-1.5c-0.1-0.3-0.1-0.6,0-0.9
					c0.1-0.3,0.2-0.6,0.4-0.9c0.8-1.2,2.3-1.4,3.3-0.6c0.5,0.4,0.8,1,0.9,1.5c0.1,0.3,0,0.6,0,0.9C216.3,23,216.2,23.3,216,23.6z"/>
			</g>
			<g>
				<path class="st1" d="M221.9,17c-0.9,0.8-2.3,0.8-3.3-0.1c-0.9-0.9-0.9-2.4,0-3.4c0.5-0.5,1.1-0.7,1.8-0.7c0.6,0,1.2,0.3,1.6,0.8
					c0.4,0.5,0.6,1.1,0.6,1.7C222.6,16,222.3,16.6,221.9,17z"/>
			</g>
			<g>
				<path class="st1" d="M229.1,11.9c-0.5,0.3-1.1,0.4-1.7,0.2c-0.6-0.1-1.1-0.5-1.5-1c-0.4-0.5-0.5-1.2-0.3-1.8
					c0.1-0.6,0.5-1.1,1.1-1.5c1.2-0.7,2.7-0.3,3.2,0.9C230.5,9.9,230.1,11.3,229.1,11.9z"/>
			</g>
			<g>
				<path class="st1" d="M237.2,8.5c-0.3,0.1-0.6,0.1-0.9,0.1c-0.3,0-0.6-0.1-0.8-0.2c-0.5-0.3-1-0.7-1.2-1.3
					c-0.2-0.6-0.2-1.3,0.1-1.8c0.3-0.6,0.8-1,1.4-1.2c1.3-0.4,2.7,0.4,3,1.6C239.1,6.9,238.4,8.2,237.2,8.5z"/>
			</g>
			<g>
				<path class="st1" d="M245.9,7.1c-1.2,0.1-2.3-0.8-2.5-2.1c-0.1-0.6,0.1-1.3,0.5-1.7c0.4-0.5,1-0.8,1.7-0.9
					c1.4-0.1,2.5,0.9,2.5,2.2C248.1,5.9,247.1,7,245.9,7.1z"/>
			</g>
			<g>
				<path class="st1" d="M254.7,7.6c-0.6-0.1-1.1-0.4-1.5-0.9c-0.4-0.5-0.6-1.1-0.5-1.7c0.1-0.7,0.4-1.2,0.9-1.6
					c0.5-0.4,1.1-0.6,1.8-0.5c0.7,0.1,1.2,0.5,1.6,1c0.4,0.5,0.5,1.1,0.4,1.8c-0.1,0.6-0.5,1.2-1,1.5C255.9,7.5,255.3,7.7,254.7,7.6
					z"/>
			</g>
			<g>
				<path class="st1" d="M263.2,10c-0.6-0.2-1-0.6-1.2-1.2c-0.2-0.5-0.3-1.2-0.1-1.8c0.2-0.6,0.6-1.1,1.2-1.4
					c0.6-0.3,1.2-0.3,1.9-0.1c1.3,0.5,1.9,1.9,1.3,3.1C265.6,9.9,264.3,10.5,263.2,10z"/>
			</g>
			<g>
				<path class="st1" d="M270.9,14.3c-1-0.7-1.3-2.1-0.6-3.2c0.3-0.6,0.9-0.9,1.5-1.1c0.3-0.1,0.6-0.1,0.9,0
					c0.3,0.1,0.6,0.2,0.9,0.4c1.2,0.8,1.4,2.3,0.6,3.3c-0.4,0.5-1,0.8-1.5,0.9c-0.3,0.1-0.6,0-0.9,0
					C271.4,14.6,271.1,14.5,270.9,14.3z"/>
			</g>
			<g>
				<path class="st1" d="M277.4,20.2c-0.8-0.9-0.8-2.3,0.1-3.3c0.9-0.9,2.4-0.9,3.4,0c0.5,0.5,0.7,1.1,0.7,1.8
					c0,0.6-0.3,1.2-0.8,1.6c-0.5,0.4-1.1,0.6-1.7,0.6C278.4,20.9,277.8,20.6,277.4,20.2z"/>
			</g>
			<g>
				<path class="st1" d="M282.5,27.4c-0.3-0.5-0.4-1.1-0.2-1.7c0.1-0.6,0.5-1.1,1-1.5c0.5-0.4,1.2-0.5,1.8-0.3
					c0.6,0.1,1.1,0.5,1.5,1.1c0.7,1.2,0.3,2.7-0.9,3.2C284.5,28.8,283.1,28.4,282.5,27.4z"/>
			</g>
			<g>
				<path class="st1" d="M285.9,35.5c-0.1-0.3-0.1-0.6-0.1-0.9c0-0.3,0.1-0.6,0.2-0.8c0.3-0.5,0.7-1,1.3-1.2
					c0.6-0.2,1.3-0.2,1.8,0.1c0.6,0.3,1,0.8,1.2,1.4c0.4,1.3-0.4,2.7-1.6,3C287.5,37.4,286.3,36.7,285.9,35.5z"/>
			</g>
			<g>
				<path class="st1" d="M287.3,44.2c-0.1-1.2,0.8-2.3,2.1-2.5c0.6-0.1,1.3,0.1,1.7,0.5c0.5,0.4,0.8,1,0.9,1.7
					c0.1,1.4-0.9,2.5-2.2,2.5C288.5,46.4,287.4,45.4,287.3,44.2z"/>
			</g>
		</g>
		<circle class="st1" cx="248.1" cy="46.4" r="2.3"/>
	</g>
	<g>
		<g>
			<polygon class="st2" points="195.7,191.6 297.6,186.4 276.9,54.7 66.6,67.5 87.5,197.1 179.4,192.4 176.5,204.3 			"/>
			<polygon class="st3" points="192.2,189.5 294.1,184.3 273.4,52.6 63.1,65.4 84,195 175.9,190.3 173.1,202.3 			"/>
		</g>
		<g>
			<g>
				
					<ellipse transform="matrix(0.9247 -0.3807 0.3807 0.9247 -57.0935 33.4033)" class="st4" cx="55.9" cy="161" rx="9.1" ry="9.1"/>
				<path class="st3" d="M21.3,179.3L36,196c1.6,1.8,1.4,4.5-0.4,6.1c-1.8,1.6-4.5,1.4-6.1-0.4L14.8,185L21.3,179.3z"/>
				<path class="st5" d="M9.1,167.7l17.4-7.2l8.7,21.1l-17.4,7.2c-5.8,2.4-12.5-0.4-14.9-6.2l0,0C0.5,176.8,3.2,170.1,9.1,167.7z"/>
				<polygon class="st3" points="35.2,181.7 70.1,182 50.3,134 26.5,160.5 				"/>
				<path class="st6" d="M14.5,171.9c0.7-0.3,1.5,0,1.8,0.7l3.2,7.8c0.3,0.7,0,1.5-0.7,1.8c-0.7,0.3-1.5,0-1.8-0.7l-3.2-7.8
					C13.5,173,13.8,172.2,14.5,171.9z"/>
				<path class="st6" d="M10.7,175.5c0.7-0.3,1.5,0,1.8,0.7l2,4.9c0.3,0.7,0,1.5-0.7,1.8c-0.7,0.3-1.5,0-1.8-0.7l-2-4.9
					C9.7,176.5,10,175.8,10.7,175.5z"/>
				<linearGradient id="SVGID_1_" gradientUnits="userSpaceOnUse" x1="26.9046" y1="121.0948" x2="49.8882" y2="174.0266">
					<stop  offset="0" style="stop-color:#AFC5F5;stop-opacity:0"/>
					<stop  offset="0.1813" style="stop-color:#ABC2F5;stop-opacity:5.438747e-02"/>
					<stop  offset="0.3653" style="stop-color:#9FBAF6;stop-opacity:0.1096"/>
					<stop  offset="0.5507" style="stop-color:#8AADF8;stop-opacity:0.1652"/>
					<stop  offset="0.7369" style="stop-color:#6E9BFA;stop-opacity:0.2211"/>
					<stop  offset="0.9222" style="stop-color:#4A83FE;stop-opacity:0.2767"/>
					<stop  offset="1" style="stop-color:#3878FF;stop-opacity:0.3"/>
				</linearGradient>
				<polygon class="st7" points="60.4,158.5 30.9,171.1 26.5,160.5 50.3,134 				"/>
			</g>
			<g>
				<g>
					<g>
						<path class="st8" d="M59.3,143.7c-0.1,0-0.2,0-0.3,0c-0.5-0.1-0.9-0.6-0.8-1.1l3.6-19.5c0.1-0.5,0.6-0.9,1.1-0.8
							c0.5,0.1,0.9,0.6,0.8,1.1l-3.6,19.5C60,143.4,59.7,143.7,59.3,143.7z"/>
					</g>
				</g>
				<g>
					<g>
						<path class="st8" d="M95.6,171.8c-0.1,0-0.2,0-0.3,0l-19.5-3.6c-0.5-0.1-0.9-0.6-0.8-1.1c0.1-0.5,0.6-0.9,1.1-0.8l19.5,3.6
							c0.5,0.1,0.9,0.6,0.8,1.1C96.4,171.5,96,171.8,95.6,171.8z"/>
					</g>
				</g>
				<g>
					<g>
						<path class="st8" d="M72.8,152.5c-0.3,0-0.7-0.1-0.9-0.4c-0.3-0.4-0.2-1,0.2-1.3l16.3-11.2c0.4-0.3,1-0.2,1.3,0.2
							c0.3,0.4,0.2,1-0.2,1.3l-16.3,11.2C73.1,152.4,72.9,152.5,72.8,152.5z"/>
					</g>
				</g>
				<g>
					<g>
						<path class="st8" d="M68.4,144.7c-0.2,0-0.4,0-0.6-0.2c-0.4-0.3-0.6-0.9-0.3-1.3l7.1-10.6c0.3-0.4,0.9-0.6,1.3-0.3
							c0.4,0.3,0.6,0.9,0.3,1.3l-7.1,10.6C68.9,144.6,68.7,144.7,68.4,144.7z"/>
					</g>
				</g>
				<g>
					<g>
						<path class="st8" d="M78.4,159.7c-0.5,0.1-0.9-0.3-1-0.8c-0.1-0.5,0.2-1,0.8-1.1l12.5-2.5c0.5-0.1,1,0.2,1.1,0.8
							c0.1,0.5-0.2,1-0.8,1.1L78.4,159.7C78.4,159.6,78.4,159.7,78.4,159.7z"/>
					</g>
				</g>
				<g>
					<g>
						<path class="st8" d="M85.8,183.7c-0.2,0-0.4,0-0.6-0.1l-10.7-6.9c-0.4-0.3-0.6-0.9-0.3-1.3c0.3-0.4,0.9-0.6,1.3-0.3l10.7,6.9
							c0.4,0.3,0.6,0.9,0.3,1.3C86.3,183.6,86,183.7,85.8,183.7z"/>
					</g>
				</g>
			</g>
		</g>
		<g>
			
				<rect x="260.6" y="68.5" transform="matrix(0.8782 -0.4782 0.4782 0.8782 -3.7309 134.5633)" class="st9" width="3.5" height="12.3"/>
			
				<rect x="255.3" y="65.5" transform="matrix(0.8782 -0.4782 0.4782 0.8782 -1.3998 132.4023)" class="st10" width="8.1" height="6.9"/>
			<ellipse transform="matrix(0.8782 -0.4782 0.4782 0.8782 7.1962 124.4276)" class="st4" cx="247.9" cy="48.1" rx="23" ry="23"/>
			
				<ellipse transform="matrix(0.8782 -0.4782 0.4782 0.8782 7.1963 124.428)" class="st3" cx="247.9" cy="48.1" rx="19.7" ry="19.7"/>
			<path class="st10" d="M259.6,77.9l12.2,22.5c1.1,2,3.5,2.7,5.5,1.6h0c2-1.1,2.7-3.5,1.6-5.5L266.7,74L259.6,77.9z"/>
			<linearGradient id="SVGID_2_" gradientUnits="userSpaceOnUse" x1="223.1089" y1="19.7922" x2="243.2053" y2="43.2379">
				<stop  offset="0" style="stop-color:#AFC5F5;stop-opacity:0"/>
				<stop  offset="0.1813" style="stop-color:#ABC2F5;stop-opacity:5.438747e-02"/>
				<stop  offset="0.3653" style="stop-color:#9FBAF6;stop-opacity:0.1096"/>
				<stop  offset="0.5507" style="stop-color:#8AADF8;stop-opacity:0.1652"/>
				<stop  offset="0.7369" style="stop-color:#6E9BFA;stop-opacity:0.2211"/>
				<stop  offset="0.9222" style="stop-color:#4A83FE;stop-opacity:0.2767"/>
				<stop  offset="1" style="stop-color:#3878FF;stop-opacity:0.3"/>
			</linearGradient>
			<path class="st11" d="M235.5,59.7c-5.2-9.6-1.7-21.5,7.9-26.8c4.8-2.6,10.2-3,15.1-1.6c-5.9-3.7-13.5-4.2-20-0.7
				c-9.6,5.2-13.1,17.2-7.9,26.8c2.6,4.8,6.9,8,11.7,9.5C239.6,65.3,237.2,62.8,235.5,59.7z"/>
			<g>
				<circle class="st10" cx="248.2" cy="41.7" r="4.5"/>
				<path class="st10" d="M254.9,58.1h-13.4v-3.9c0-3.7,3-6.7,6.7-6.7l0,0c3.7,0,6.7,3,6.7,6.7V58.1z"/>
			</g>
		</g>
	</g>
	<g>
		<g>
			<path class="st9" d="M178.6,101.9v0.2c0,2.1-0.9,4.2-3.6,4.2c-3,0-3.9-1.9-3.9-6.2c0-4.2,0.9-6.2,3.9-6.2c3.4,0,3.6,2.5,3.6,3.7
				V98h-1.9v-0.2c0-1.1-0.3-2.4-1.7-2.3c-1.4,0-2,0.9-2,4.7c0,3.8,0.6,4.8,2,4.8c1.6,0,1.8-1.8,1.8-2.9v-0.2H178.6z"/>
			<path class="st9" d="M179.6,100.2c0-4.2,1.2-6.2,3.9-6.2c2.7,0,3.9,1.9,3.9,6.2c0,4.2-1.2,6.2-3.9,6.2
				C180.8,106.4,179.6,104.4,179.6,100.2z M185.5,100.2c0-4-0.9-4.7-2-4.7c-1.1,0-2,0.7-2,4.7c0,4.1,0.9,4.8,2,4.8
				C184.6,104.9,185.5,104.2,185.5,100.2z"/>
			<path class="st9" d="M189.1,94.3h3.4c3.7,0,4.2,2.4,4.2,5.9c0,3.5-0.5,5.9-4.2,5.9h-3.4V94.3z M191,104.7h1.6
				c1.6,0,2.2-1,2.2-4.5c0-3.3-0.6-4.5-2.2-4.5H191V104.7z"/>
			<path class="st9" d="M198,100.2c0-4.2,1.2-6.2,3.9-6.2c2.7,0,3.9,1.9,3.9,6.2c0,4.2-1.2,6.2-3.9,6.2
				C199.2,106.4,198,104.4,198,100.2z M204,100.2c0-4-0.9-4.7-2-4.7c-1.1,0-2,0.7-2,4.7c0,4.1,0.9,4.8,2,4.8
				C203.1,104.9,204,104.2,204,100.2z"/>
			<path class="st9" d="M209,102.5v0.3c0,1.4,0.6,2.2,1.9,2.2c1.2,0,1.8-0.8,1.8-1.7c0-1.2-0.6-1.8-1.7-2.1l-1.3-0.4
				c-1.7-0.7-2.5-1.6-2.5-3.2c0-2.2,1.5-3.3,3.7-3.3c3,0,3.3,1.9,3.3,3.1v0.3h-1.9v-0.2c0-1.1-0.5-1.7-1.7-1.7
				c-0.8,0-1.6,0.4-1.6,1.7c0,1,0.5,1.5,1.8,2l1.3,0.5c1.7,0.6,2.4,1.5,2.4,3.1c0,2.5-1.5,3.6-3.9,3.6c-2.9,0-3.6-2-3.6-3.6v-0.3
				H209z"/>
			<path class="st9" d="M218.4,94.3h2.4l3.1,11.8h-2l-0.7-2.9h-3.5l-0.8,2.9h-2L218.4,94.3z M220.9,101.7l-1.4-5.8h0l-1.4,5.8H220.9
				z"/>
			<path class="st9" d="M232.4,95.9h-2.8v-1.6h7.5v1.6h-2.8v10.2h-1.9V95.9z"/>
			<path class="st9" d="M238.1,94.3h6.4v1.6H240v3.3h4.2v1.6H240v3.8h4.6v1.6h-6.5V94.3z"/>
			<path class="st9" d="M253.4,101.9v0.2c0,2.1-0.9,4.2-3.6,4.2c-3,0-3.9-1.9-3.9-6.2c0-4.2,0.9-6.2,3.9-6.2c3.4,0,3.6,2.5,3.6,3.7
				V98h-1.9v-0.2c0-1.1-0.3-2.4-1.7-2.3c-1.4,0-2,0.9-2,4.7c0,3.8,0.6,4.8,2,4.8c1.6,0,1.8-1.8,1.8-2.9v-0.2H253.4z"/>
			<path class="st9" d="M254.7,94.3h1.9V99h3.5v-4.7h1.9v11.8H260v-5.5h-3.5v5.5h-1.9V94.3z"/>
		</g>
	</g>
	<g>
		<g>
			<path class="st12" d="M98.9,141.8v-24.4h-4.2V113h14.2v4.4h-4.1v24.4H98.9z"/>
			<path class="st12" d="M110.7,113h5.8v17.9c0,1,0,1.8,0,2.2c0,0.5,0,1,0.1,1.7c0,0.7,0.1,1.1,0.2,1.4c0.1,0.3,0.3,0.6,0.4,0.9
				c0.4,0.6,1,0.8,1.8,0.8c0.4,0,0.8,0,1.1-0.1c0.6-0.2,1-0.9,1.2-1.5c0.1-0.3,0.2-0.7,0.2-1.4c0-0.7,0.1-1.2,0.1-1.7
				c0-0.5,0-1.2,0-2.2v-0.1V113h5.8v18.1c0,0.9,0,1.7-0.1,2.5c-0.1,1.5-0.4,3.2-0.9,4.4c-0.5,1.2-1.4,2.4-2.5,3.1
				c-1.2,0.7-2.8,1.2-4.9,1.2c-3.1,0-5.1-1-6.4-2.6c-0.8-1.1-1.3-2.3-1.6-3.9c-0.3-1.6-0.4-3-0.4-4.8V113z"/>
			<path class="st12" d="M134.5,141.8v-9.5l-5.4-19.3h5.5l2.7,12.7c0.3-1.4,0.8-3.5,1.5-6.3l1.5-6.3h5.3l-5.4,19.3v9.5H134.5z"/>
			<path class="st12" d="M147.2,141.8V113h12v4H153v7.8h4.4v4.1H153v8.9h6.2v4H147.2z M147.7,110.8l3.2-6.5h4.6l3.3,6.5h-4.4
				l-1.2-3.2l-1.2,3.2H147.7z M161.7,105.8c0.1,0,0.2-0.1,0.6-0.4c0.8-0.7,1.4-1.5,1.4-2.3c0.3-2.9-1.6-4.5-4.6-4.4
				c-1.4,0-2.4,0.6-3.2,1.3l1.8,3.2c0.4-0.6,0.6-0.7,0.7-0.7c0.5-0.4,1.6-0.6,1.4,0.3c0,0.1-0.3,0.3-0.7,0.7
				c-0.8,0.8-1.3,1.5-1.3,2.2v0.7h3.8C161.6,106,161.6,105.9,161.7,105.8z"/>
			<path class="st12" d="M161.4,141.8V113h4.2l6.3,15.1V113h4.8v28.8h-4l-6.3-16v16H161.4z"/>
			<path class="st12" d="M186.8,141.8V113h6c3.8,0,6.3,0.6,7.7,2.2c0.7,0.8,1.2,1.7,1.5,2.8c0.3,1.1,0.4,2.5,0.4,4.2v9.4
				c0,1,0,1.9-0.1,2.7c-0.1,1.5-0.5,3.1-1.1,4.1c-0.6,1-1.6,1.9-2.9,2.4c-1.3,0.5-3.2,0.8-5.5,0.8H186.8z M192.8,137.7
				c0.6,0,1,0,1.3,0c0.6,0,1.4-0.2,1.7-0.4c0.5-0.4,0.7-1,0.7-2.4v-15.5c0-0.9-0.3-1.6-0.8-1.9c-0.6-0.3-1.5-0.5-2.8-0.5V137.7z"/>
			<path class="st12" d="M205.3,113h5.8v17.9c0,1,0,1.8,0,2.2c0,0.5,0,1,0.1,1.7c0,0.7,0.1,1.1,0.2,1.4c0.1,0.3,0.3,0.6,0.4,0.9
				c0.4,0.6,1,0.8,1.8,0.8c0.4,0,0.8,0,1.1-0.1c0.6-0.2,1-0.9,1.2-1.5c0.1-0.3,0.2-0.7,0.2-1.4c0-0.7,0.1-1.2,0.1-1.7
				c0-0.5,0-1.2,0-2.2v-0.1V113h5.8v18.1c0,0.9,0,1.7-0.1,2.5c-0.1,1.5-0.4,3.2-0.9,4.4c-0.5,1.2-1.4,2.4-2.5,3.1
				c-1.2,0.7-2.8,1.2-4.9,1.2c-3.1,0-5.1-1-6.4-2.6c-0.8-1.1-1.3-2.3-1.6-3.9c-0.3-1.6-0.4-3-0.4-4.8V113z M211.2,149.5v-5.1h5.2
				v5.1H211.2z"/>
			<path class="st12" d="M225.4,141.8V113h4.2l6.3,15.1V113h4.8v28.8h-4l-6.3-16v16H225.4z"/>
			<path class="st12" d="M243.8,122.7c0-6.8,2.8-10.2,8.5-10.2c6.1,0,8.2,4,8.2,9.6v1.7h-5.6v-2c0-1,0-1.7-0.2-2.6
				c-0.3-1.3-1-2.1-2.4-2.2c-1.8,0-2.7,1.4-2.7,4.3v12.4c0,2.8,0.9,4.2,2.7,4.2c1.8,0,2.7-1.5,2.7-4.4v-2.3h-3.3V127h9.1v14.8h-4
				l-0.7-2c-0.5,0.8-1.2,1.4-2.1,1.9c-0.9,0.5-1.8,0.7-2.8,0.7c-2.1,0-3.8-0.8-4.9-2.1c-1.7-1.9-2.4-4.8-2.4-7.5V122.7z"/>
		</g>
		<g>
			<g>
				<path class="st10" d="M98.9,140.5V116h-4.2v-4.4h14.2v4.4h-4.1v24.4H98.9z"/>
				<path class="st10" d="M110.7,111.7h5.8v17.9c0,1,0,1.8,0,2.2c0,0.5,0,1,0.1,1.7c0,0.7,0.1,1.1,0.2,1.4c0.1,0.3,0.3,0.6,0.4,0.9
					c0.4,0.6,1,0.8,1.8,0.8c0.4,0,0.8,0,1.1-0.1c0.6-0.2,1-0.9,1.2-1.5c0.1-0.3,0.2-0.7,0.2-1.4c0-0.7,0.1-1.2,0.1-1.7
					c0-0.5,0-1.2,0-2.2v-0.1v-17.9h5.8v18.1c0,0.9,0,1.7-0.1,2.5c-0.1,1.5-0.4,3.2-0.9,4.4c-0.5,1.2-1.4,2.4-2.5,3.1
					c-1.2,0.7-2.8,1.2-4.9,1.2c-3.1,0-5.1-1-6.4-2.6c-0.8-1.1-1.3-2.3-1.6-3.9c-0.3-1.6-0.4-3-0.4-4.8V111.7z"/>
				<path class="st10" d="M134.5,140.5V131l-5.4-19.3h5.5l2.7,12.7c0.3-1.4,0.8-3.5,1.5-6.3l1.5-6.3h5.3l-5.4,19.3v9.5H134.5z"/>
				<path class="st10" d="M147.2,140.5v-28.8h12v4H153v7.8h4.4v4.1H153v8.9h6.2v4H147.2z M147.7,109.5l3.2-6.5h4.6l3.3,6.5h-4.4
					l-1.2-3.2l-1.2,3.2H147.7z M161.7,104.4c0.1,0,0.2-0.1,0.6-0.4c0.8-0.7,1.4-1.5,1.4-2.3c0.3-2.9-1.6-4.5-4.6-4.4
					c-1.4,0-2.4,0.6-3.2,1.3l1.8,3.2c0.4-0.6,0.6-0.7,0.7-0.7c0.5-0.4,1.6-0.6,1.4,0.3c0,0.1-0.3,0.3-0.7,0.7
					c-0.8,0.8-1.3,1.5-1.3,2.2v0.7h3.8C161.6,104.7,161.6,104.6,161.7,104.4z"/>
				<path class="st10" d="M161.4,140.5v-28.8h4.2l6.3,15.1v-15.1h4.8v28.8h-4l-6.3-16v16H161.4z"/>
				<path class="st10" d="M186.8,140.5v-28.8h6c3.8,0,6.3,0.6,7.7,2.2c0.7,0.8,1.2,1.7,1.5,2.8c0.3,1.1,0.4,2.5,0.4,4.2v9.4
					c0,1,0,1.9-0.1,2.7c-0.1,1.5-0.5,3.1-1.1,4.1c-0.6,1-1.6,1.9-2.9,2.4c-1.3,0.5-3.2,0.8-5.5,0.8H186.8z M192.8,136.4
					c0.6,0,1,0,1.3,0c0.6,0,1.4-0.2,1.7-0.4c0.5-0.4,0.7-1,0.7-2.4v-15.5c0-0.9-0.3-1.6-0.8-1.9c-0.6-0.3-1.5-0.5-2.8-0.5V136.4z"/>
				<path class="st10" d="M205.3,111.7h5.8v17.9c0,1,0,1.8,0,2.2c0,0.5,0,1,0.1,1.7c0,0.7,0.1,1.1,0.2,1.4c0.1,0.3,0.3,0.6,0.4,0.9
					c0.4,0.6,1,0.8,1.8,0.8c0.4,0,0.8,0,1.1-0.1c0.6-0.2,1-0.9,1.2-1.5c0.1-0.3,0.2-0.7,0.2-1.4c0-0.7,0.1-1.2,0.1-1.7
					c0-0.5,0-1.2,0-2.2v-0.1v-17.9h5.8v18.1c0,0.9,0,1.7-0.1,2.5c-0.1,1.5-0.4,3.2-0.9,4.4c-0.5,1.2-1.4,2.4-2.5,3.1
					c-1.2,0.7-2.8,1.2-4.9,1.2c-3.1,0-5.1-1-6.4-2.6c-0.8-1.1-1.3-2.3-1.6-3.9c-0.3-1.6-0.4-3-0.4-4.8V111.7z M211.2,148.2v-5.1h5.2
					v5.1H211.2z"/>
				<path class="st10" d="M225.4,140.5v-28.8h4.2l6.3,15.1v-15.1h4.8v28.8h-4l-6.3-16v16H225.4z"/>
				<path class="st10" d="M243.8,121.3c0-6.8,2.8-10.2,8.5-10.2c6.1,0,8.2,4,8.2,9.6v1.7h-5.6v-2c0-1,0-1.7-0.2-2.6
					c-0.3-1.3-1-2.1-2.4-2.2c-1.8,0-2.7,1.4-2.7,4.3v12.4c0,2.8,0.9,4.2,2.7,4.2c1.8,0,2.7-1.5,2.7-4.4v-2.3h-3.3v-4.2h9.1v14.8h-4
					l-0.7-2c-0.5,0.8-1.2,1.4-2.1,1.9c-0.9,0.5-1.8,0.7-2.8,0.7c-2.1,0-3.8-0.8-4.9-2.1c-1.7-1.9-2.4-4.8-2.4-7.5V121.3z"/>
			</g>
		</g>
	</g>
	<g>
		<path class="st13" d="M105.9,164.1c0.2-0.4,0.3-2.4,0.3-6c0-2.5,0-4.8-0.1-6.9c-0.1-1.7-0.2-2.1-0.2-2.2l0,0
			c0.3-0.1,0.7-0.2,1.1-0.2c0.6,0,1,0.1,1.1,0.4c0.6,0.9,1.4,2,2.3,3l4.2,5.1c1.3,1.5,2,2.5,2.2,2.9l0.1-0.1c0-0.5,0-2-0.1-4.2
			c0-2.3-0.1-3.8-0.1-4.6c-0.1-1.2-0.2-2-0.2-2.2l0-0.1c0.2-0.1,0.5-0.2,0.8-0.2c0.9,0,1,0.3,1,1.2c0,0.8,0,2.1,0,4
			c0,1.8-0.1,3.4-0.1,4.6c0,3.2,0.1,5,0.2,5.6c-0.3,0.1-0.7,0.1-1.1,0.1c-0.4,0-0.8-0.2-1-0.6c-0.5-0.8-1.3-1.8-2.4-3.1l-4.3-5.1
			c-1.3-1.6-2-2.5-2.1-2.8l-0.1,0.1c0,1.1,0,2.8,0.1,5c0.1,2.2,0.1,4,0.1,5.2c0,1.2-0.1,1.5-0.8,1.5c-0.3,0-0.6-0.1-0.8-0.2
			L105.9,164.1z"/>
		<path class="st13" d="M122.8,158.2c0-2.5,0-4.8-0.1-6.9c-0.1-1.2-0.1-2-0.2-2.2l0-0.1c0.5-0.1,0.8-0.2,1.2-0.2
			c1,0,1.7,0.5,1.7,1.3c0,0.7,0,2.5,0,5.3c0.8,0.1,1.9,0.1,3.5,0.1c1.4,0,2.8,0,4.2-0.1c0-1.3,0-2.7-0.1-4.2c-0.1-1.2-0.2-2-0.2-2.2
			l0-0.1c0.5-0.1,0.8-0.2,1.2-0.2c1,0,1.7,0.5,1.7,1.3c0,0.6,0,1.6,0,2.8c0,1.2,0,2.1,0,2.7c0,4.8,0.1,7.6,0.3,8.6
			c-0.5,0-0.9,0.2-1.5,0.2c-1,0-1.4-0.6-1.4-1.8c0-0.6,0-1.5,0.1-2.9c0-1.3,0-2.3,0-2.9c-0.9-0.1-2.1-0.1-3.7-0.1
			c-1.3,0-2.6,0-4,0.1v2.2c0,0.4,0,1,0,1.9c0,0.9,0,1.6,0,2c0,1-0.5,1.5-1.4,1.5c-0.1,0-0.6-0.1-1.5-0.2
			C122.7,163.8,122.8,161.8,122.8,158.2z"/>
		<path class="st13" d="M137.9,164.2v-0.1c0.4-0.3,0.9-1.2,1.4-2.7l4.5-12.7c0,0,0.7,0.1,1.6,0.6c0.5,0.3,1.1,1.1,1.4,2
			c0.5,1.7,1.2,3.6,1.9,5.9c0.8,2.3,1.4,4,1.9,5.1c0.3,0.7,0.5,1.2,0.7,1.4c0.1,0.2,0.2,0.3,0.3,0.4v0.1c-0.5,0.2-1.1,0.2-1.6,0.2
			c-1.1,0-1.8-0.4-2-1.3c-0.4-1.5-0.8-2.8-1.2-4c-0.9,0-1.6,0-2.2,0c-0.9,0-1.9,0-3.1,0.1c-0.3,1-0.7,2.2-0.8,2.8
			c-0.2,0.6-0.4,1.3-0.6,1.6c-0.3,0.5-0.7,0.8-1.4,0.8c-0.2,0-0.5-0.1-0.7-0.2L137.9,164.2z M140.6,147.8c0.6-0.3,1.1-0.8,1.6-1.3
			c0.5-0.5,0.9-1,1.1-1.4c0.2-0.3,0.4-0.7,0.5-1c0.2,0,0.3-0.1,0.5-0.1c0.7,0,1.2,0.6,1.6,1.4c0.3,0.7,1.2,1.8,2.3,2.4v0.1
			c-0.1,0.1-0.3,0.1-0.7,0.1c-0.5,0-1-0.2-1.7-0.6c-0.7-0.4-1.1-0.8-1.4-1.3h-0.1c-0.3,0.4-0.7,0.8-1.4,1.3
			c-0.7,0.4-1.2,0.6-1.7,0.6c-0.3,0-0.5,0-0.7-0.1V147.8z M144.2,158c0.5,0,1.3,0,2.2,0c-1-3-1.8-5.2-2.3-6.5H144
			c-0.5,1.3-1.2,3.5-2.1,6.5C142.8,158,143.6,158,144.2,158z"/>
		<path class="st13" d="M153.8,164.1c0.2-0.4,0.3-2.4,0.3-6c0-2.5,0-4.8-0.1-6.9c-0.1-1.7-0.2-2.1-0.2-2.2l0,0
			c0.3-0.1,0.7-0.2,1.1-0.2c0.6,0,1,0.1,1.1,0.4c0.6,0.9,1.4,2,2.3,3l4.2,5.1c1.3,1.5,2,2.5,2.2,2.9l0.1-0.1c0-0.5,0-2-0.1-4.2
			c0-2.3-0.1-3.8-0.1-4.6c-0.1-1.2-0.2-2-0.2-2.2l0-0.1c0.2-0.1,0.5-0.2,0.8-0.2c0.9,0,1,0.3,1,1.2c0,0.8,0,2.1,0,4
			c0,1.8-0.1,3.4-0.1,4.6c0,3.2,0.1,5,0.2,5.6c-0.3,0.1-0.7,0.1-1.1,0.1c-0.4,0-0.8-0.2-1-0.6c-0.5-0.8-1.3-1.8-2.4-3.1l-4.3-5.1
			c-1.3-1.6-2-2.5-2.1-2.8l-0.1,0.1c0,1.1,0,2.8,0.1,5c0.1,2.2,0.1,4,0.1,5.2c0,1.2-0.1,1.5-0.8,1.5c-0.3,0-0.6-0.1-0.8-0.2
			L153.8,164.1z"/>
		<path class="st13" d="M178.8,156.2c0-1.7,0-3.4-0.1-4.9c0-0.4,0-0.7,0-0.8c-0.9,0-1.7,0-2.3,0c-0.8,0-1.6,0.1-2.5,0.2
			c0-0.3-0.1-0.6-0.1-0.9c0-0.6,0.2-0.9,0.5-0.9c4.9,0.1,8,0.1,9.5,0.1c0.8,0,1.5-0.1,2.4-0.2c0.1,0.4,0.1,0.7,0.1,1.1
			c0,0.5-0.1,0.7-0.4,0.7c-1.4,0-2.9,0-4.4,0c0,0.4,0,1.2,0,2.4c0,1.2,0,2.1,0,2.7c0,3.8,0.1,6.6,0.4,8.6c-0.9,0.2-1.4,0.2-1.5,0.2
			c-0.9,0-1.4-0.5-1.4-1.5V156.2z"/>
		<path class="st13" d="M185.7,164.2v-0.1c0.4-0.3,0.9-1.2,1.4-2.7l4.5-12.7c0,0,0.7,0.1,1.6,0.6c0.5,0.3,1.1,1.1,1.4,2
			c0.5,1.7,1.2,3.6,1.9,5.9c0.8,2.3,1.4,4,1.9,5.1c0.3,0.7,0.5,1.2,0.7,1.4c0.1,0.2,0.2,0.3,0.3,0.4v0.1c-0.5,0.2-1.1,0.2-1.6,0.2
			c-1.1,0-1.8-0.4-2-1.3c-0.4-1.5-0.8-2.8-1.2-4c-0.9,0-1.6,0-2.2,0c-0.9,0-1.9,0-3.1,0.1c-0.3,1-0.7,2.2-0.8,2.8
			c-0.2,0.6-0.4,1.3-0.6,1.6c-0.3,0.5-0.7,0.8-1.4,0.8c-0.2,0-0.5-0.1-0.7-0.2L185.7,164.2z M192.1,158c0.5,0,1.3,0,2.2,0
			c-1-3-1.8-5.2-2.3-6.5h-0.1c-0.5,1.3-1.2,3.5-2.1,6.5C190.7,158,191.4,158,192.1,158z M191.6,147.1c-0.9-0.6-1.5-1.2-1.6-1.9
			c0.1-0.2,0.1-0.4,0.7-0.8c0.3-0.2,0.6-0.3,1-0.3c0.8,1.8,1.8,3,3,3.7v0.1c-0.1,0.1-0.3,0.1-0.7,0.1
			C193.3,148,192.5,147.7,191.6,147.1z"/>
		<path class="st13" d="M201.9,156.2c0-1.7,0-3.4-0.1-4.9c-0.1-1.2-0.1-2-0.2-2.2l0-0.1c0.5-0.1,0.8-0.2,1.2-0.2
			c1,0,1.7,0.5,1.7,1.3c0,0.6,0,1.6,0,2.8c0,1.2,0,2.1,0,2.7c0,3.8,0.1,6.6,0.4,8.5c-0.9,0.2-1.4,0.2-1.5,0.2
			c-0.9,0-1.4-0.5-1.4-1.5V156.2z"/>
	</g>
</g>
</svg>
