<?xml version="1.0" encoding="utf-8"?>
<!-- Generator: Adobe Illustrator 21.0.0, SVG Export Plug-In . SVG Version: 6.00 Build 0)  -->
<svg version="1.1" id="Layer_1" xmlns="http://www.w3.org/2000/svg" xmlns:xlink="http://www.w3.org/1999/xlink" x="0px" y="0px"
	 viewBox="0 0 300 300" style="enable-background:new 0 0 300 300;" xml:space="preserve">
<style type="text/css">
	.st0{fill:url(#SVGID_1_);}
	.st1{opacity:0.77;fill:#9EB5DB;enable-background:new    ;}
	.st2{opacity:0.4;fill:#FFFFFF;enable-background:new    ;}
	.st3{opacity:0.59;fill:#9EBBDB;enable-background:new    ;}
	.st4{opacity:0.59;fill:#9EB4DB;enable-background:new    ;}
	.st5{fill:#9EC0DB;}
	.st6{fill:#9EC4DB;}
	.st7{fill:#9EBBDB;}
	.st8{fill:#3C91E5;}
	.st9{fill:#68AAE0;}
	.st10{opacity:0.1;fill:url(#SVGID_2_);}
	.st11{opacity:0.1;fill:url(#SVGID_3_);}
	.st12{fill:#062B6D;}
	.st13{fill:#06234C;}
	.st14{fill:#154A9E;}
	.st15{fill:#F4D0C3;}
	.st16{fill:#EAB2A9;}
	.st17{fill:#490F07;}
	.st18{fill:#FFFFFF;}
	.st19{fill:#F4B68C;}
	.st20{fill:url(#SVGID_4_);}
	.st21{fill:#D89261;}
	.st22{fill:#1E1E1E;}
	.st23{fill:#D8D8D8;}
	.st24{fill:url(#SVGID_5_);}
	.st25{fill:#CAE8FF;}
	.st26{fill:url(#SVGID_6_);}
	.st27{fill:#632002;}
	.st28{fill:url(#SVGID_7_);}
	.st29{fill:#CC0909;}
	.st30{fill:#8E0000;}
</style>
<g>
	
		<linearGradient id="SVGID_1_" gradientUnits="userSpaceOnUse" x1="75.9" y1="172.2" x2="226.5" y2="172.2" gradientTransform="matrix(1 0 0 -1 0 300)">
		<stop  offset="0" style="stop-color:#FFFFFF"/>
		<stop  offset="1" style="stop-color:#B8D0F2"/>
	</linearGradient>
	<circle class="st0" cx="151.2" cy="127.8" r="75.3"/>
	<path class="st1" d="M152,233.7c0.9,0,1.8,0,2.6,0l0,0v1.3c-0.9,0-1.8,0-2.7,0.1l0,0L152,233.7L152,233.7z M146.7,235l0.1-1.3
		c0.9,0,1.8,0.1,2.6,0.1l0,0v1.3C148.5,235,147.6,235,146.7,235L146.7,235z M157.3,233.6c0.9,0,1.8-0.1,2.6-0.2l0,0l0.1,1.3
		c-0.9,0.1-1.8,0.1-2.7,0.2l0,0L157.3,233.6L157.3,233.6z M141.4,234.6l0.1-1.3c0.9,0.1,1.8,0.1,2.6,0.2l0,0l-0.1,1.3
		C143.2,234.8,142.3,234.7,141.4,234.6L141.4,234.6z M162.6,233.2c0.9-0.1,1.8-0.2,2.6-0.3l0,0l0.2,1.3c-0.9,0.1-1.8,0.2-2.7,0.3
		l0,0L162.6,233.2L162.6,233.2z M136.1,234.1l0.2-1.3c0.9,0.1,1.7,0.2,2.6,0.3l0,0l-0.1,1.3C137.9,234.3,137,234.2,136.1,234.1
		L136.1,234.1z M167.8,232.5c0.9-0.1,1.7-0.3,2.6-0.4l0,0l0,0l0.2,1.3c-0.9,0.2-1.8,0.3-2.6,0.4l0,0L167.8,232.5L167.8,232.5z
		 M130.8,233.2l0.2-1.3c0.9,0.2,1.7,0.3,2.6,0.4l0,0l-0.2,1.3C132.6,233.5,131.7,233.4,130.8,233.2L130.8,233.2z M173,231.6
		c0.9-0.2,1.7-0.3,2.6-0.5l0,0l0,0l0.3,1.3c-0.9,0.2-1.7,0.4-2.6,0.5l0,0L173,231.6L173,231.6z M125.6,232.1l0.3-1.3
		c0.9,0.2,1.7,0.4,2.6,0.6l0,0l0,0l-0.3,1.3C127.3,232.5,126.5,232.3,125.6,232.1L125.6,232.1z M133.7,232.4L133.7,232.4
		L133.7,232.4L133.7,232.4L133.7,232.4z M178.2,230.5c0.9-0.2,1.7-0.4,2.6-0.7l0,0l0.3,1.3c-0.9,0.2-1.7,0.5-2.6,0.7l0,0
		L178.2,230.5L178.2,230.5z M120.4,230.8l0.4-1.3c0.8,0.2,1.7,0.5,2.5,0.7l0,0l-0.3,1.3C122.1,231.3,121.3,231.1,120.4,230.8
		L120.4,230.8z M183.2,229.1c0.8-0.3,1.7-0.5,2.5-0.8l0,0l0,0l0.4,1.3c-0.8,0.3-1.7,0.5-2.5,0.8l0,0L183.2,229.1L183.2,229.1z
		 M115.3,229.3l0.4-1.3c0.8,0.3,1.7,0.5,2.5,0.8l0,0l-0.4,1.3C117,229.8,116.2,229.5,115.3,229.3L115.3,229.3z M118.3,228.8
		L118.3,228.8L118.3,228.8L118.3,228.8L118.3,228.8z M188.3,227.5c0.8-0.3,1.7-0.6,2.5-0.9l0,0l0,0l0.5,1.2
		c-0.8,0.3-1.7,0.6-2.5,0.9l0,0L188.3,227.5L188.3,227.5z M110.3,227.5l0.5-1.2c0.8,0.3,1.6,0.6,2.5,0.9l0,0l-0.4,1.2
		C111.9,228.1,111.1,227.8,110.3,227.5L110.3,227.5z M113.2,227.1L113.2,227.1L113.2,227.1L113.2,227.1L113.2,227.1z M193.2,225.7
		c0.8-0.3,1.6-0.7,2.4-1l0,0l0,0l0.5,1.2c-0.8,0.4-1.6,0.7-2.5,1l0,0L193.2,225.7L193.2,225.7z M105.3,225.4l0.5-1.2
		c0.8,0.4,1.6,0.7,2.4,1l0,0l-0.5,1.2C107,226.1,106.1,225.8,105.3,225.4L105.3,225.4z M198,223.6c0.8-0.4,1.6-0.7,2.4-1.1l0,0
		l0.6,1.2c-0.8,0.4-1.6,0.8-2.4,1.1l0,0L198,223.6L198,223.6z M100.5,223.1l0.6-1.2c0.8,0.4,1.6,0.8,2.4,1.2l0,0l-0.6,1.2
		C102.1,223.9,101.3,223.5,100.5,223.1L100.5,223.1z M202.8,221.3c0.8-0.4,1.6-0.8,2.3-1.2l0,0l0.6,1.2c-0.8,0.4-1.6,0.8-2.4,1.2
		l0,0L202.8,221.3L202.8,221.3z M95.8,220.6l0.6-1.2c0.8,0.4,1.5,0.8,2.3,1.3l0,0l0,0l-0.6,1.2C97.3,221.5,96.5,221.1,95.8,220.6
		L95.8,220.6z M205.1,220.1L205.1,220.1L205.1,220.1L205.1,220.1L205.1,220.1L205.1,220.1z M207.4,218.8c0.8-0.4,1.5-0.9,2.3-1.3
		l0,0l0.7,1.1c-0.8,0.5-1.5,0.9-2.3,1.4l0,0L207.4,218.8L207.4,218.8z M91.2,217.9l0.7-1.1c0.7,0.5,1.5,0.9,2.3,1.4l0,0l-0.7,1.1
		C92.7,218.9,91.9,218.4,91.2,217.9L91.2,217.9z M211.9,216.1c0.7-0.5,1.5-1,2.2-1.4l0,0l0,0l0.7,1.1c-0.7,0.5-1.5,1-2.2,1.5l0,0
		L211.9,216.1L211.9,216.1z M86.7,215l0.8-1.1c0.7,0.5,1.5,1,2.2,1.5l0,0l0,0l-0.7,1.1C88.2,216,87.4,215.5,86.7,215L86.7,215z
		 M216.2,213.1c0.7-0.5,1.4-1,2.1-1.5l0,0l0.8,1.1c-0.7,0.5-1.4,1.1-2.2,1.6l0,0L216.2,213.1L216.2,213.1z M82.4,211.9l0.8-1.1
		c0.7,0.5,1.4,1.1,2.1,1.6l0,0l0,0l-0.8,1.1C83.8,212.9,83.1,212.4,82.4,211.9L82.4,211.9z M218.4,211.6L218.4,211.6L218.4,211.6
		L218.4,211.6L218.4,211.6L218.4,211.6z M220.5,210c0.7-0.5,1.4-1.1,2.1-1.6l0,0l0.8,1c-0.7,0.6-1.4,1.1-2.1,1.7l0,0L220.5,210
		L220.5,210z M78.2,208.5l0.9-1c0.7,0.6,1.4,1.1,2,1.7l0,0l-0.8,1C79.6,209.7,78.9,209.1,78.2,208.5L78.2,208.5z M224.6,206.6
		c0.7-0.6,1.3-1.1,2-1.7l0,0l0,0l0.9,1c-0.7,0.6-1.3,1.2-2,1.8l0,0L224.6,206.6L224.6,206.6z M74.2,205l0.9-1c0.6,0.6,1.3,1.2,2,1.8
		l0,0l0,0l-0.9,1C75.5,206.2,74.8,205.6,74.2,205L74.2,205z M228.5,203.1c0.6-0.6,1.3-1.2,1.9-1.8l0,0l0.9,0.9
		c-0.6,0.6-1.3,1.2-1.9,1.9l0,0L228.5,203.1L228.5,203.1z M70.3,201.3l0.9-0.9c0.6,0.6,1.2,1.2,1.9,1.9l0,0l-0.9,1
		C71.6,202.6,71,201.9,70.3,201.3L70.3,201.3z M232.2,199.4c0.6-0.6,1.2-1.3,1.8-1.9l0,0l1,0.9c-0.6,0.7-1.2,1.3-1.8,1.9l0,0
		L232.2,199.4L232.2,199.4z M66.7,197.4l1-0.9c0.6,0.7,1.2,1.3,1.8,1.9l0,0l-1,0.9C67.9,198.7,67.3,198.1,66.7,197.4L66.7,197.4z
		 M235.8,195.5c0.6-0.7,1.2-1.3,1.7-2l0,0l0,0l1,0.9c-0.6,0.7-1.2,1.4-1.7,2l0,0L235.8,195.5L235.8,195.5z M63.2,193.4l1-0.8
		c0.6,0.7,1.1,1.3,1.7,2l0,0l-1,0.9C64.3,194.8,63.8,194.1,63.2,193.4L63.2,193.4z M239.2,191.5c0.5-0.7,1.1-1.4,1.6-2.1l0,0
		l1.1,0.8c-0.5,0.7-1.1,1.4-1.6,2.1l0,0L239.2,191.5L239.2,191.5z M59.9,189.2l1.1-0.8c0.5,0.7,1.1,1.4,1.6,2.1l0,0l-1,0.8
		C61,190.6,60.4,189.9,59.9,189.2L59.9,189.2z M242.4,187.3c0.5-0.7,1-1.4,1.5-2.2l0,0l1.1,0.8c-0.5,0.7-1,1.5-1.5,2.2l0,0
		L242.4,187.3L242.4,187.3z M56.8,184.9l1.1-0.7c0.5,0.7,1,1.4,1.5,2.2l0,0l-1.1,0.8C57.8,186.3,57.3,185.6,56.8,184.9L56.8,184.9z
		 M245.4,183c0.5-0.7,1-1.5,1.4-2.2l0,0l1.1,0.7c-0.5,0.8-1,1.5-1.4,2.2l0,0L245.4,183L245.4,183z M53.9,180.4l1.1-0.7
		c0.5,0.7,0.9,1.5,1.4,2.2l0,0l-1.1,0.7C54.9,181.9,54.4,181.1,53.9,180.4L53.9,180.4z M56.5,181.9L56.5,181.9L56.5,181.9
		L56.5,181.9L56.5,181.9z M248.2,178.5c0.4-0.8,0.9-1.5,1.3-2.3l0,0l1.2,0.6c-0.4,0.8-0.9,1.6-1.3,2.3l0,0L248.2,178.5L248.2,178.5z
		 M51.3,175.8l1.2-0.6c0.4,0.8,0.9,1.5,1.3,2.3l0,0l-1.1,0.7C52.1,177.3,51.7,176.5,51.3,175.8L51.3,175.8z M53.7,177.4L53.7,177.4
		L53.7,177.4L53.7,177.4L53.7,177.4z M250.8,173.9c0.4-0.8,0.8-1.6,1.2-2.3l0,0l0,0l1.2,0.6c-0.4,0.8-0.8,1.6-1.2,2.4l0,0
		L250.8,173.9L250.8,173.9z M48.8,171l1.2-0.6c0.4,0.8,0.8,1.6,1.2,2.3l0,0l-1.2,0.6C49.6,172.6,49.2,171.8,48.8,171L48.8,171z
		 M51.2,172.8L51.2,172.8L51.2,172.8L51.2,172.8L51.2,172.8z M253.2,169.2c0.4-0.8,0.7-1.6,1.1-2.4l0,0l0,0l1.2,0.5
		c-0.4,0.8-0.7,1.6-1.1,2.4l0,0L253.2,169.2L253.2,169.2z M46.6,166.2l1.2-0.5c0.3,0.8,0.7,1.6,1.1,2.4l0,0l0,0l-1.2,0.6
		C47.3,167.8,47,167,46.6,166.2L46.6,166.2z M255.3,164.3c0.3-0.8,0.7-1.6,1-2.5l0,0l1.2,0.5c-0.3,0.8-0.7,1.7-1,2.5l0,0
		L255.3,164.3L255.3,164.3z M44.6,161.3l1.2-0.5c0.3,0.8,0.6,1.6,1,2.5l0,0l0,0l-1.2,0.5C45.3,162.9,44.9,162.1,44.6,161.3
		L44.6,161.3z M257.2,159.4c0.3-0.8,0.6-1.7,0.9-2.5l0,0l0,0l1.3,0.4c-0.3,0.8-0.6,1.7-0.9,2.5l0,0L257.2,159.4L257.2,159.4z
		 M42.9,156.2l1.3-0.4c0.3,0.8,0.6,1.7,0.8,2.5l0,0l-1.3,0.4C43.4,157.9,43.1,157.1,42.9,156.2L42.9,156.2z M258.9,154.4
		c0.3-0.8,0.5-1.7,0.7-2.5l0,0l0,0l1.3,0.4c-0.2,0.9-0.5,1.7-0.8,2.6l0,0L258.9,154.4L258.9,154.4z M41.3,151.1l1.3-0.3
		c0.2,0.8,0.5,1.7,0.7,2.5l0,0l-1.3,0.4C41.8,152.8,41.6,152,41.3,151.1L41.3,151.1z M260.3,149.3c0.2-0.8,0.4-1.7,0.6-2.6l0,0
		l1.3,0.3c-0.2,0.9-0.4,1.7-0.6,2.6l0,0L260.3,149.3L260.3,149.3z M40.1,145.9l1.3-0.3c0.2,0.9,0.4,1.7,0.6,2.6l0,0l-1.3,0.3
		C40.5,147.7,40.2,146.8,40.1,145.9L40.1,145.9z M261.5,144.2c0.2-0.9,0.3-1.7,0.5-2.6l0,0l1.3,0.2c-0.2,0.9-0.3,1.8-0.5,2.6l0,0
		L261.5,144.2L261.5,144.2z M39,140.7l1.3-0.2c0.2,0.9,0.3,1.7,0.5,2.6l0,0l-1.3,0.3C39.3,142.5,39.2,141.6,39,140.7L39,140.7z
		 M262.5,139c0.1-0.9,0.3-1.7,0.4-2.6l0,0l1.3,0.2c-0.1,0.9-0.2,1.8-0.4,2.6l0,0L262.5,139L262.5,139z M38.2,135.4l1.3-0.2
		c0.1,0.9,0.2,1.7,0.4,2.6l0,0l-1.3,0.2C38.5,137.2,38.3,136.3,38.2,135.4L38.2,135.4z M263.2,133.8c0.1-0.9,0.2-1.7,0.3-2.6l0,0
		l1.3,0.1c-0.1,0.9-0.2,1.8-0.3,2.7l0,0L263.2,133.8L263.2,133.8z M37.7,130.1L39,130c0.1,0.9,0.1,1.8,0.2,2.6l0,0l-1.3,0.1
		C37.8,131.9,37.8,131,37.7,130.1L37.7,130.1z M39.3,132.6L39.3,132.6L39.3,132.6L39.3,132.6L39.3,132.6z M263.7,128.5
		c0.1-0.9,0.1-1.8,0.1-2.6l0,0l1.3,0.1c0,0.9-0.1,1.8-0.1,2.7l0,0L263.7,128.5L263.7,128.5z M37.4,124.8h1.3c0,0.9,0.1,1.8,0.1,2.6
		l0,0l-1.3,0.1C37.5,126.6,37.4,125.7,37.4,124.8L37.4,124.8z M263.9,123.2c0-0.7,0-1.4,0-2.1l0,0c0-0.2,0-0.4,0-0.5l0,0h1.3
		c0,0.2,0,0.4,0,0.5l0,0c0,0.7,0,1.4,0,2.1l0,0H263.9L263.9,123.2z M37.3,121.1c0-0.6,0-1.1,0-1.7l0,0h1.3c0,0.6,0,1.1,0,1.7l0,0
		c0,0.3,0,0.7,0,1l0,0h-1.3C37.4,121.8,37.3,121.5,37.3,121.1L37.3,121.1z M263.7,115.3l1.3-0.1c0,0.9,0.1,1.8,0.1,2.7l0,0h-1.3
		C263.8,117.1,263.8,116.2,263.7,115.3L263.7,115.3z M37.4,116.8c0-0.9,0.1-1.8,0.1-2.7l0,0l1.3,0.1c-0.1,0.9-0.1,1.8-0.1,2.6l0,0
		H37.4L37.4,116.8z M263.4,110.1l1.3-0.1c0.1,0.9,0.2,1.8,0.2,2.7l0,0l-1.3,0.1C263.5,111.8,263.4,110.9,263.4,110.1L263.4,110.1z
		 M37.8,111.5c0.1-0.9,0.2-1.8,0.3-2.7l0,0l1.3,0.1c-0.1,0.9-0.2,1.7-0.3,2.6l0,0H37.8L37.8,111.5z M263.4,110.1L263.4,110.1
		L263.4,110.1L263.4,110.1L263.4,110.1L263.4,110.1z M262.7,104.8l1.3-0.2c0.1,0.9,0.2,1.8,0.4,2.6l0,0l-1.3,0.2
		C263,106.6,262.9,105.7,262.7,104.8L262.7,104.8z M39.6,106.3l-1.3-0.2c0.1-0.9,0.2-1.8,0.4-2.6l0,0l1.3,0.2
		C39.9,104.6,39.8,105.5,39.6,106.3L39.6,106.3L39.6,106.3L39.6,106.3z M262.7,104.8L262.7,104.8L262.7,104.8L262.7,104.8
		L262.7,104.8L262.7,104.8z M261.8,99.6L261.8,99.6l1.3-0.3c0.2,0.9,0.3,1.7,0.5,2.6l0,0l-1.3,0.2C262.2,101.4,262,100.5,261.8,99.6
		L261.8,99.6z M39.1,100.9c0.2-0.9,0.3-1.8,0.5-2.6l0,0l1.3,0.3c-0.2,0.9-0.3,1.7-0.5,2.6l0,0l0,0L39.1,100.9L39.1,100.9z
		 M260.7,94.5l1.3-0.3c0.2,0.9,0.4,1.7,0.6,2.6l0,0l-1.3,0.3C261.1,96.2,260.9,95.3,260.7,94.5L260.7,94.5z M41.5,95.9l-1.3-0.3
		c0.2-0.9,0.4-1.7,0.6-2.6l0,0l1.3,0.3C41.9,94.2,41.7,95.1,41.5,95.9L41.5,95.9L41.5,95.9L41.5,95.9z M259.4,89.4l1.3-0.4
		c0.2,0.9,0.5,1.7,0.7,2.6l0,0l-1.3,0.3C259.8,91.1,259.6,90.2,259.4,89.4L259.4,89.4z M41.5,90.5c0.2-0.9,0.5-1.7,0.7-2.6l0,0
		l1.3,0.4c-0.3,0.8-0.5,1.7-0.7,2.5l0,0L41.5,90.5L41.5,90.5z M257.8,84.4l1.3-0.4c0.3,0.8,0.6,1.7,0.8,2.5l0,0l-1.3,0.4
		C258.3,86,258,85.2,257.8,84.4L257.8,84.4z M43.1,85.4c0.3-0.8,0.6-1.7,0.9-2.5l0,0l1.2,0.4c-0.3,0.8-0.6,1.7-0.9,2.5l0,0
		L43.1,85.4L43.1,85.4z M255.9,79.4l1.2-0.5c0.3,0.8,0.6,1.7,1,2.5l0,0l-1.2,0.5C256.6,81.1,256.2,80.3,255.9,79.4L255.9,79.4z
		 M44.9,80.3c0.3-0.8,0.7-1.7,1-2.5l0,0l1.2,0.5c-0.3,0.8-0.7,1.6-1,2.5l0,0L44.9,80.3L44.9,80.3z M253.9,74.6l1.2-0.5
		c0.4,0.8,0.7,1.6,1.1,2.4l0,0L255,77C254.6,76.2,254.2,75.4,253.9,74.6L253.9,74.6z M48.1,75.9l-1.2-0.5c0.4-0.8,0.7-1.6,1.1-2.4
		l0,0l1.2,0.6C48.8,74.3,48.5,75.1,48.1,75.9L48.1,75.9L48.1,75.9L48.1,75.9z M251.6,69.9L251.6,69.9l1.2-0.6
		c0.4,0.8,0.8,1.6,1.2,2.4l0,0l-1.2,0.6C252.4,71.4,252,70.6,251.6,69.9L251.6,69.9z M49.2,70.5c0.4-0.8,0.8-1.6,1.2-2.4l0,0
		l1.2,0.6c-0.4,0.8-0.8,1.6-1.2,2.4l0,0L49.2,70.5L49.2,70.5z M249.1,65.2l1.2-0.7c0.4,0.8,0.9,1.5,1.3,2.3l0,0l-1.2,0.6
		C249.9,66.8,249.5,66,249.1,65.2L249.1,65.2z M52.8,66.4L52.8,66.4L52.8,66.4L52.8,66.4L52.8,66.4L52.8,66.4z M51.7,65.8
		c0.4-0.8,0.9-1.6,1.3-2.3l0,0l1.1,0.7c-0.4,0.8-0.9,1.5-1.3,2.3l0,0L51.7,65.8L51.7,65.8z M249.1,65.2L249.1,65.2L249.1,65.2
		L249.1,65.2L249.1,65.2L249.1,65.2z M246.3,60.7l1.1-0.7c0.5,0.7,0.9,1.5,1.4,2.3l0,0l-1.1,0.7C247.3,62.2,246.8,61.5,246.3,60.7
		L246.3,60.7z M54.4,61.2c0.5-0.8,0.9-1.5,1.4-2.3l0,0l1.1,0.7c-0.5,0.7-1,1.5-1.4,2.2l0,0L54.4,61.2L54.4,61.2z M243.4,56.3
		l1.1-0.8c0.5,0.7,1,1.5,1.5,2.2l0,0l-1.1,0.7C244.4,57.8,243.9,57.1,243.4,56.3L243.4,56.3z M57.3,56.7c0.5-0.7,1-1.5,1.5-2.2l0,0
		l1.1,0.8c-0.5,0.7-1,1.4-1.5,2.2l0,0L57.3,56.7L57.3,56.7z M240.3,52.1l1-0.8c0.5,0.7,1.1,1.4,1.6,2.1l0,0l-1.1,0.8
		C241.3,53.5,240.8,52.8,240.3,52.1L240.3,52.1z M61.5,53.2L61.5,53.2L61.5,53.2L61.5,53.2L61.5,53.2L61.5,53.2z M60.4,52.4
		c0.5-0.7,1.1-1.4,1.6-2.1l0,0l1,0.8c-0.5,0.7-1.1,1.4-1.6,2.1l0,0L60.4,52.4L60.4,52.4z M236.9,48L236.9,48l1-0.9
		c0.6,0.7,1.1,1.4,1.7,2l0,0l-1,0.8C238.1,49.4,237.5,48.7,236.9,48L236.9,48z M64.7,49.1L64.7,49.1L64.7,49.1L64.7,49.1L64.7,49.1
		L64.7,49.1z M63.7,48.2c0.6-0.7,1.1-1.4,1.7-2l0,0l1,0.9c-0.6,0.7-1.1,1.3-1.7,2l0,0L63.7,48.2L63.7,48.2z M233.4,44.1l1-0.9
		c0.6,0.6,1.2,1.3,1.8,2l0,0l-1,0.9C234.6,45.4,234,44.7,233.4,44.1L233.4,44.1z M67.2,44.2c0.6-0.7,1.2-1.3,1.8-1.9l0,0l1,0.9
		c-0.6,0.6-1.2,1.3-1.8,1.9l0,0L67.2,44.2L67.2,44.2z M229.7,40.3l0.9-1c0.6,0.6,1.3,1.2,1.9,1.9l0,0l-0.9,0.9
		C231,41.6,230.4,41,229.7,40.3L229.7,40.3z M70.9,40.3c0.6-0.6,1.3-1.2,1.9-1.9l0,0l0.9,1c-0.6,0.6-1.3,1.2-1.9,1.8l0,0L70.9,40.3
		L70.9,40.3z M229.7,40.3L229.7,40.3L229.7,40.3L229.7,40.3L229.7,40.3L229.7,40.3z M225.9,36.7l0.9-1c0.7,0.6,1.3,1.2,2,1.8l0,0
		l-0.9,1C227.2,37.9,226.5,37.3,225.9,36.7L225.9,36.7z M75.7,37.6l-0.9-1c0.7-0.6,1.3-1.2,2-1.8l0,0l0.9,1
		C77,36.5,76.3,37.1,75.7,37.6L75.7,37.6L75.7,37.6L75.7,37.6z M221.8,33.3l0.8-1c0.7,0.6,1.4,1.1,2.1,1.7l0,0l-0.9,1
		C223.2,34.5,222.5,33.9,221.8,33.3L221.8,33.3z M79.7,34.2L79.7,34.2L79.7,34.2L79.7,34.2L79.7,34.2L79.7,34.2z M78.8,33.2
		c0.7-0.6,1.4-1.1,2.1-1.7l0,0l0.8,1c-0.7,0.5-1.4,1.1-2.1,1.7l0,0L78.8,33.2L78.8,33.2z M217.7,30.1l0.8-1.1
		c0.7,0.5,1.4,1.1,2.1,1.6l0,0l-0.8,1.1C219.1,31.2,218.4,30.7,217.7,30.1L217.7,30.1z M83,29.9c0.7-0.5,1.4-1.1,2.2-1.6l0,0
		l0.8,1.1c-0.7,0.5-1.4,1-2.1,1.6l0,0L83,29.9L83,29.9z M217.6,30.1C217.7,30.1,217.7,30.1,217.6,30.1L217.6,30.1L217.6,30.1
		L217.6,30.1L217.6,30.1z M213.3,27.1L214,26c0.7,0.5,1.5,1,2.2,1.5l0,0l-0.8,1.1C214.8,28.1,214.1,27.6,213.3,27.1L213.3,27.1z
		 M87.4,26.8c0.7-0.5,1.5-1,2.2-1.5l0,0l0.7,1.1c-0.7,0.5-1.5,1-2.2,1.5l0,0L87.4,26.8L87.4,26.8z M208.8,24.3l0.7-1.1
		c0.8,0.5,1.5,0.9,2.3,1.4l0,0l-0.7,1.1C210.4,25.2,209.6,24.8,208.8,24.3L208.8,24.3z M91.8,23.9c0.8-0.5,1.5-0.9,2.3-1.4l0,0
		l0.7,1.2c-0.8,0.4-1.5,0.9-2.3,1.3l0,0l0,0L91.8,23.9L91.8,23.9z M204.2,21.7l0.6-1.2c0.8,0.4,1.6,0.8,2.3,1.3l0,0l-0.7,1.2
		C205.8,22.6,205,22.1,204.2,21.7L204.2,21.7z M96.5,21.2c0.7-0.4,1.5-0.8,2.3-1.2l0,0l0.6,1.2c-0.8,0.4-1.6,0.8-2.3,1.2l0,0
		L96.5,21.2L96.5,21.2z M199.5,19.3l0.6-1.2c0.8,0.4,1.6,0.8,2.4,1.2l0,0l-0.6,1.2C201.1,20.1,200.3,19.7,199.5,19.3L199.5,19.3z
		 M101.2,18.8c0.8-0.4,1.6-0.8,2.4-1.1l0,0l0.6,1.2c-0.8,0.4-1.6,0.7-2.4,1.1l0,0L101.2,18.8L101.2,18.8z M199.5,19.3L199.5,19.3
		L199.5,19.3L199.5,19.3L199.5,19.3L199.5,19.3z M194.7,17.2L194.7,17.2l0.5-1.2c0.8,0.3,1.6,0.7,2.5,1.1l0,0l-0.5,1.2
		C196.3,17.9,195.5,17.5,194.7,17.2L194.7,17.2z M106,16.5c0.8-0.4,1.6-0.7,2.5-1l0,0l0.5,1.2c-0.8,0.3-1.6,0.7-2.4,1l0,0L106,16.5
		L106,16.5z M189.8,15.3l0.5-1.3c0.8,0.3,1.7,0.6,2.5,0.9l0,0l-0.5,1.2C191.4,15.9,190.6,15.6,189.8,15.3L189.8,15.3z M110.9,14.5
		c0.8-0.3,1.7-0.6,2.5-0.9l0,0l0.4,1.3c-0.8,0.3-1.6,0.6-2.5,0.9l0,0L110.9,14.5L110.9,14.5z M184.8,13.6l0.4-1.3
		c0.9,0.3,1.7,0.5,2.5,0.8l0,0l-0.4,1.3C186.5,14.1,185.6,13.8,184.8,13.6L184.8,13.6z M116,12.8c0.8-0.3,1.5-0.5,2.3-0.7l0,0
		l0.4,1.3c-0.8,0.2-1.5,0.5-2.3,0.7l0,0L116,12.8L116,12.8z"/>
	<path class="st2" d="M17.6,108.4c0-37.7,15.6-71.8,40.8-96.1l0,0l0.9,1c-24.9,24-40.4,57.7-40.4,95.1l0,0
		c0,36.6,14.8,69.6,38.8,93.6l0,0c24,24,57,38.8,93.6,38.8l0,0c36.6,0,69.7-14.8,93.6-38.8l0,0c24-24,38.8-57,38.8-93.6l0,0
		c0-37.6-15.7-71.5-40.9-95.6l0,0l0.9-1c25.5,24.3,41.3,58.6,41.3,96.6l0,0c0,73.8-59.9,133.7-133.7,133.7l0,0
		C77.4,242.1,17.6,182.2,17.6,108.4L17.6,108.4z"/>
	<path class="st3" d="M186,49.2l-0.5-0.8c-0.1-0.2-0.1-0.4,0-0.5l0,0l0.1-0.1l0,0l1.1-0.9c-0.3-0.7-0.5-1.5-0.6-2.3l0,0l-1.3-0.4
		c-0.1,0-0.1,0-0.1-0.1l0,0c-0.1-0.1-0.2-0.2-0.2-0.4l0,0l0.1-0.9c0-0.1,0-0.2,0.1-0.2l0,0c0.1-0.1,0.2-0.2,0.4-0.2l0,0h1.3
		c0.1-0.5,0.4-0.9,0.6-1.3l0,0c0.1-0.2,0.2-0.3,0.3-0.5l0,0c0.1-0.2,0.3-0.3,0.4-0.5l0,0l-0.6-1.1l0.1-0.1l0.1-0.1l0.7,1.3l-0.1,0.1
		c-0.2,0.2-0.3,0.4-0.5,0.6l0,0c-0.1,0.1-0.2,0.3-0.3,0.5l0,0c-0.3,0.4-0.5,0.9-0.6,1.4l0,0v0.1h-0.1H185c-0.1,0-0.1,0-0.1,0.1l0,0
		c0,0,0,0,0,0.1l0,0l-0.1,1c0,0,0,0.1,0.1,0.1l0,0c0,0,0,0,0.1,0l0,0l1.5,0.4v0.1c0,0.8,0.2,1.7,0.6,2.4l0,0v0.1l-0.1,0.1l-1.2,1
		l0,0c0,0.1,0,0.1,0,0.2l0,0l0.5,0.8l0,0l0,0c0,0,0.1,0,0.2,0l0,0l1.4-0.7l0.1-0.1l0.1,0.1c0.2,0.2,0.4,0.3,0.5,0.5l0,0
		c0.1,0.1,0.3,0.2,0.5,0.3l0,0c0.3,0.2,0.7,0.4,1.1,0.5l0,0h0.1v0.1l0,0v1.6c0,0.1,0,0.1,0.1,0.1l0,0c0,0,0,0,0.1,0l0,0l1,0.1
		c0,0,0.1,0,0.1-0.1l0,0c0,0,0,0,0-0.1l0,0l0.4-1.6h0.1c0.9,0,1.7-0.2,2.5-0.5l0,0h0.1l0.1,0.1l1,1.1l0,0c0.1,0,0.1,0,0.2,0l0,0
		l0.8-0.5l0,0l0,0c0,0,0-0.1,0-0.2l0,0l-0.7-1.4l0.1-0.1c0.2-0.2,0.4-0.4,0.6-0.7l0,0c0.1-0.1,0.2-0.3,0.3-0.5l0,0
		c0.2-0.4,0.4-0.7,0.5-1.1l0,0V46h1.6c0.1,0,0.1,0,0.1-0.1l0,0c0,0,0,0,0-0.1l0,0l0.1-1c0,0,0-0.1-0.1-0.1l0,0c0,0,0,0-0.1,0l0,0
		l-1.5-0.4v-0.1c0-0.9-0.2-1.8-0.6-2.6l0,0v-0.1l0.1-0.1l1-0.9l0,0l0,0c0-0.1,0-0.1,0-0.2l0,0l-0.6-0.8l0,0l0,0c0,0-0.1,0-0.2,0l0,0
		l-1.3,0.7l-0.1-0.1c-0.2-0.2-0.4-0.4-0.6-0.5l0,0c-0.2-0.1-0.3-0.2-0.5-0.3l0,0c-0.4-0.2-0.7-0.4-1.1-0.5l0,0h-0.1v-0.1v-1.3
		c0-0.1,0-0.1-0.1-0.1l0,0c0,0,0,0-0.1,0l0,0l-1-0.1c0,0-0.1,0-0.1,0.1l0,0c0,0,0,0,0,0.1l0,0l-0.4,1.4h-0.1c-0.9,0-1.9,0.2-2.7,0.6
		l0,0h-0.1l-0.1-0.1l-0.9-1l0,0c-0.1,0-0.1,0-0.2,0l0,0l-0.8,0.6l0,0c0,0,0,0.1,0,0.2l0,0l-0.1,0.1l-0.1,0.1c-0.1-0.2-0.1-0.3,0-0.5
		l0,0l0.1-0.1l0,0l0.8-0.5c0.2-0.1,0.4-0.1,0.5,0l0,0c0,0,0,0,0.1,0.1l0,0l0.8,0.9c0.8-0.4,1.7-0.6,2.6-0.6l0,0l0.3-1.1
		c0-0.1,0.1-0.1,0.1-0.2l0,0c0.1-0.1,0.3-0.2,0.4-0.2l0,0l0.9,0.1c0.1,0,0.2,0,0.2,0.1l0,0c0.1,0.1,0.2,0.2,0.2,0.4l0,0v1.2
		c0.4,0.1,0.7,0.3,1.1,0.5l0,0c0.2,0.1,0.3,0.2,0.5,0.3l0,0c0.2,0.1,0.4,0.3,0.5,0.5l0,0l1.1-0.6c0.2-0.1,0.3-0.1,0.5,0l0,0l0.1,0.1
		l0,0l0.5,0.8c0.1,0.2,0.1,0.4,0,0.5l0,0c0,0,0,0-0.1,0.1l0,0l-0.9,0.9c0.4,0.8,0.6,1.7,0.6,2.6l0,0l1.3,0.4c0.1,0,0.1,0,0.2,0.1
		l0,0c0.1,0.1,0.2,0.3,0.2,0.4l0,0l-0.1,0.9c0,0.1,0,0.1-0.1,0.2l0,0c-0.1,0.1-0.2,0.2-0.4,0.2l0,0h-1.4c-0.1,0.4-0.3,0.7-0.5,1.1
		l0,0c-0.1,0.2-0.2,0.3-0.3,0.5l0,0c-0.2,0.2-0.3,0.4-0.5,0.6l0,0l0.7,1.2c0.1,0.2,0.1,0.3,0,0.5l0,0l-0.1,0.1l0,0l-0.8,0.5
		c-0.2,0.1-0.4,0.1-0.5,0l0,0c0,0,0,0-0.1-0.1l0,0l-1-1.1c-0.8,0.3-1.6,0.5-2.5,0.5l0,0l-0.3,1.4c0,0,0,0.1-0.1,0.2l0,0
		c-0.1,0.1-0.2,0.2-0.4,0.2l0,0l-1-0.1c-0.1,0-0.1,0-0.2-0.1l0,0c-0.1-0.1-0.2-0.2-0.2-0.4l0,0v-1.5c-0.4-0.1-0.7-0.3-1-0.5l0,0
		c-0.2-0.1-0.3-0.2-0.5-0.3l0,0c-0.2-0.1-0.3-0.3-0.5-0.4l0,0l-1.4,0.7c-0.2,0.1-0.3,0.1-0.5,0l0,0C186,49.3,186,49.3,186,49.2
		L186,49.2z M188.4,42.1c0.1-0.1,0.2-0.2,0.2-0.4l0,0c1.3-1.7,3.8-2.2,5.7-1l0,0c0.1,0.1,0.2,0.2,0.4,0.2l0,0c1.7,1.3,2.2,3.8,1,5.7
		l0,0c-0.1,0.1-0.2,0.2-0.2,0.4l0,0c-1.3,1.7-3.8,2.2-5.7,1l0,0c-0.1-0.1-0.2-0.2-0.4-0.2l0,0C187.7,46.4,187.2,44,188.4,42.1
		L188.4,42.1z M194.2,40.9c-1.8-1.1-4.1-0.7-5.3,1l0,0c-0.1,0.1-0.2,0.2-0.2,0.3l0,0c-1.1,1.8-0.7,4.1,1,5.3l0,0
		c0.1,0.1,0.2,0.2,0.3,0.2l0,0c1.8,1.1,4.1,0.7,5.3-1l0,0c0.1-0.1,0.2-0.2,0.2-0.3l0,0c1.1-1.8,0.7-4.1-1-5.3l0,0
		C194.4,41.1,194.3,41,194.2,40.9L194.2,40.9l0.1-0.1L194.2,40.9L194.2,40.9z M190.9,43.7c0,0,0-0.1,0.1-0.1l0,0
		c0.4-0.5,1.2-0.7,1.8-0.3l0,0l0,0c0,0,0.1,0,0.1,0.1l0,0c0.5,0.4,0.7,1.2,0.3,1.8l0,0l-0.1,0.1l0,0c-0.4,0.5-1.2,0.7-1.8,0.3l0,0
		l-0.1-0.1l0,0C190.7,45,190.5,44.2,190.9,43.7L190.9,43.7z M192.6,43.4c-0.5-0.3-1.1-0.2-1.4,0.3l0,0c0,0,0,0.1-0.1,0.1l0,0
		c-0.3,0.5-0.2,1.1,0.3,1.4l0,0c0,0,0.1,0,0.1,0.1l0,0c0.5,0.3,1.1,0.2,1.4-0.3l0,0c0,0,0-0.1,0.1-0.1l0,0
		C193.3,44.5,193.1,43.8,192.6,43.4L192.6,43.4C192.7,43.5,192.6,43.5,192.6,43.4L192.6,43.4l0.1-0.1L192.6,43.4L192.6,43.4z"/>
	<path class="st4" d="M78.8,52.2c0,0.2,0.1,0.4,0.3,0.5l1.9,0.5c0,0.2,0,0.5,0,0.7l-1.9,0.7c-0.2,0.1-0.3,0.3-0.3,0.5l0.3,1.3
		c0,0.2,0.2,0.3,0.5,0.3l2-0.2c0.1,0.2,0.2,0.4,0.3,0.6l-1.5,1.3c-0.2,0.2-0.2,0.4-0.1,0.6l0.8,1.1c0.1,0.2,0.3,0.2,0.5,0.1l1.9-1
		c0.1,0.1,0.3,0.2,0.4,0.4L83,61.4c-0.1,0.2,0,0.4,0.1,0.5l1.1,0.8c0.2,0.1,0.4,0.1,0.6-0.1l1.5-1.7l0,0h0.1l-0.1,2.2
		c0,0.2,0.1,0.4,0.3,0.4l1.3,0.2c0.2,0,0.4-0.1,0.5-0.3l0.6-2.1c0.1,0,0.3,0,0.4,0c0,0,0,0,0,0.1l0.9,2.1c0.1,0.2,0.3,0.3,0.5,0.3
		l1.3-0.4c0.2,0,0.3-0.3,0.3-0.5l0-2.1c0.1-0.1,0.3-0.1,0.4-0.2l0,0l1.6,1.6c0.2,0.2,0.4,0.2,0.6,0.1l1.1-0.8
		c0.2-0.1,0.2-0.4,0.1-0.6L95.1,59c0.1-0.1,0.2-0.3,0.4-0.4l0,0l2,1c0.2,0.1,0.4,0,0.5-0.1l0.7-1.1c0.1-0.2,0.1-0.4-0.1-0.6
		l-1.7-1.4l0,0c0.1-0.2,0.1-0.3,0.2-0.5l0,0l2.3,0.1c0.2,0,0.4-0.1,0.4-0.3l0.2-1.3c0-0.2-0.1-0.4-0.3-0.5l-2.2-0.7l0,0
		c0-0.2,0-0.3,0-0.5l0,0l2.1-0.8c0.2-0.1,0.3-0.3,0.3-0.5l-0.3-1.3c0-0.2-0.2-0.3-0.5-0.3l-2.2,0.3c-0.1-0.2-0.1-0.3-0.2-0.5
		l1.6-1.5c0.2-0.2,0.2-0.4,0.1-0.6l-0.8-1.1c-0.1-0.2-0.3-0.2-0.5-0.1l-1.9,1c-0.1-0.1-0.2-0.2-0.4-0.4l0.9-1.9
		c0.1-0.2,0-0.4-0.1-0.5l-1.2-0.7c-0.2-0.1-0.4-0.1-0.5,0.1l-1.4,1.7c-0.2-0.1-0.4-0.1-0.5-0.2l0.1-2.1c0-0.2-0.1-0.4-0.3-0.4
		l-1.3-0.2c-0.2,0-0.4,0.1-0.5,0.3l-0.8,1.8c-0.1,0-0.2,0-0.3,0l-0.7-1.9c-0.1-0.2-0.3-0.3-0.5-0.3l-1.3,0.3c-0.2,0-0.3,0.2-0.3,0.5
		l0.2,2c-0.2,0.1-0.4,0.2-0.6,0.2l-1.4-1.5c-0.2-0.2-0.4-0.2-0.6-0.1l-1.1,0.8c-0.2,0.1-0.2,0.4-0.1,0.5l1,1.7
		c-0.2,0.2-0.3,0.3-0.5,0.5l-1.7-0.7c-0.2-0.1-0.4,0-0.5,0.1L80,48.1c-0.1,0.2-0.1,0.4,0.1,0.6l1.6,1.3c-0.1,0.2-0.2,0.4-0.2,0.6
		l-2-0.1c-0.2,0-0.4,0.2-0.4,0.3L78.8,52.2z M89.6,46.9l-0.4,2.5c-0.8,0-1.5,0.2-2.1,0.6l-2-1.6C86.4,47.4,88,46.8,89.6,46.9z
		 M94.7,49.9l-2.4,0.9c-0.4-0.6-1.1-1-1.8-1.3l0.4-2.5C92.5,47.5,93.8,48.6,94.7,49.9z M88.9,59.3l0.4-2.5c0.8,0,1.6-0.3,2.3-0.8
		l2,1.6C92.3,58.8,90.7,59.4,88.9,59.3z M83.8,56.1l2.4-0.9c0.4,0.7,1.1,1.2,1.9,1.4l-0.4,2.5C86,58.7,84.6,57.6,83.8,56.1z
		 M85.7,54.1L83.4,55c-0.3-0.9-0.4-1.9-0.2-2.8c0.2-1.1,0.6-2,1.2-2.8l1.9,1.6c-0.3,0.5-0.6,1-0.7,1.6C85.5,53,85.5,53.6,85.7,54.1z
		 M87.7,52.8c0.1-0.9,1-1.5,1.9-1.3c0.9,0.1,1.5,1,1.3,1.9c-0.1,0.9-1,1.5-1.9,1.3C88.1,54.6,87.5,53.7,87.7,52.8z M92.9,52l2.3-0.9
		c0.3,0.9,0.4,2,0.3,3c-0.2,1-0.5,1.9-1.1,2.6l-1.9-1.6c0.3-0.4,0.5-0.9,0.5-1.4C93.1,53.1,93,52.5,92.9,52z"/>
	<path class="st5" d="M103.5,49.6l-0.7-0.4c-0.1-0.1-0.2-0.2-0.2-0.4l0,0v-0.1l0,0l0.5-1.1c-0.5-0.4-0.9-0.9-1.2-1.5l0,0l-1.1,0.2
		h-0.1l0,0c-0.1,0-0.2-0.1-0.3-0.2l0,0l-0.2-0.7c0-0.1,0-0.1,0-0.2l0,0c0-0.1,0.1-0.2,0.2-0.3l0,0l1-0.4c0-0.4-0.1-0.8,0-1.2l0,0
		c0-0.2,0-0.3,0.1-0.5l0,0c0-0.2,0.1-0.4,0.2-0.5l0,0l-0.8-0.6l0.1-0.1l0.1-0.1l1,0.7v0.1c-0.1,0.2-0.1,0.4-0.2,0.6l0,0
		c0,0.1-0.1,0.3-0.1,0.5l0,0c-0.1,0.4,0,0.8,0,1.2l0,0v0.1h-0.1l-1.1,0.5l-0.1,0.1l0,0c0,0,0,0,0,0.1l0,0l0.2,0.8c0,0,0,0.1,0.1,0.1
		l0,0c0,0,0,0,0.1,0l0,0l1.2-0.2v0.1c0.3,0.6,0.7,1.1,1.3,1.6l0,0l0.1,0.1V48l-0.5,1.1l0,0c0,0.1,0,0.1,0.1,0.1l0,0l0.7,0.4l0,0l0,0
		c0,0,0.1,0,0.1-0.1l0,0l0.8-1v-0.1h0.1c0.2,0.1,0.4,0.1,0.6,0.2l0,0c0.1,0,0.3,0.1,0.5,0.1l0,0c0.3,0,0.7,0,1,0l0,0h0.1v0.1l0,0
		l0.5,1.2l0.1,0.1l0,0c0,0,0,0,0.1,0l0,0l0.8-0.2c0,0,0.1,0,0.1-0.1l0,0c0,0,0,0,0-0.1l0,0l-0.2-1.3h0.1c0.7-0.3,1.2-0.7,1.7-1.3
		l0,0l-0.2-0.3h0.1l1.1,0.5l0,0c0.1,0,0.1,0,0.1-0.1l0,0l0.4-0.7l0,0l0,0c0,0,0-0.1-0.1-0.1l0,0l-1-0.8v-0.1
		c0.1-0.2,0.2-0.5,0.2-0.7l0,0c0-0.2,0.1-0.3,0.1-0.5l0,0c0-0.3,0-0.7,0-1l0,0v-0.1l1.2-0.5l0.1-0.1l0,0c0,0,0,0,0-0.1l0,0l-0.2-0.8
		c0,0,0-0.1-0.1-0.1l0,0c0,0,0,0-0.1,0l0,0l-1.3,0.2v-0.1c-0.3-0.7-0.8-1.3-1.3-1.8l0,0l-0.1-0.1v-0.1l0.4-1l0,0l0,0
		c0-0.1,0-0.1-0.1-0.1l0,0l-0.7-0.4l0,0l0,0c0,0-0.1,0-0.1,0.1l0,0l-0.7,1h-0.1c-0.2-0.1-0.4-0.1-0.6-0.2l0,0
		c-0.2,0-0.3-0.1-0.5-0.1l0,0c-0.3,0-0.7,0-1,0l0,0h-0.1v-0.1l-0.4-1l-0.1-0.1l0,0c0,0,0,0-0.1,0l0,0l-0.8,0.2c0,0-0.1,0-0.1,0.1
		l0,0c0,0,0,0,0,0.1l0,0l0.2,1.1h-0.1c-0.7,0.3-1.3,0.8-1.8,1.4l0,0l-0.1,0.1h-0.1l-1-0.4l0,0c-0.1,0-0.1,0-0.1,0.1l0,0l-0.4,0.7
		l0,0c0,0,0,0.1,0.1,0.1l0,0l-0.1,0.1l-0.1,0.1c-0.1-0.1-0.2-0.2-0.1-0.4l0,0V41l0,0l0.4-0.7c0.1-0.2,0.2-0.2,0.4-0.2l0,0
		c0,0,0,0,0.1,0l0,0l0.9,0.4c0.5-0.6,1.1-1,1.8-1.4l0,0l-0.1-1c0-0.1,0-0.1,0-0.2l0,0c0-0.1,0.1-0.2,0.2-0.3l0,0l0.7-0.2
		c0.1,0,0.1,0,0.2,0l0,0c0.1,0,0.2,0.1,0.3,0.2l0,0l0.4,0.9c0.3,0,0.7,0,1,0l0,0c0.2,0,0.3,0,0.5,0.1l0,0c0.2,0,0.4,0.1,0.6,0.2l0,0
		l0.6-0.8c0.1-0.1,0.2-0.2,0.4-0.1l0,0h0.1l0,0l0.7,0.4c0.1,0.1,0.2,0.2,0.2,0.4l0,0c0,0,0,0,0,0.1l0,0l-0.4,1c0.6,0.5,1,1,1.3,1.7
		l0,0l1.1-0.2c0.1,0,0.1,0,0.2,0l0,0c0.1,0,0.2,0.1,0.3,0.2l0,0l0.2,0.8c0,0.1,0,0.1,0,0.2l0,0c0,0.1-0.1,0.2-0.2,0.3l0,0l-1.1,0.5
		c0,0.3,0,0.7,0,1l0,0c0,0.2-0.1,0.3-0.1,0.5l0,0c-0.1,0.2-0.1,0.4-0.2,0.6l0,0l0.9,0.7c0.1,0.1,0.2,0.2,0.1,0.4l0,0v0.1l0,0
		l-0.4,0.7c-0.1,0.1-0.2,0.2-0.4,0.2l0,0c0,0,0,0-0.1,0l0,0L110,47c-0.5,0.5-1,0.9-1.7,1.2l0,0l0.2,1.1v0.1l0,0
		c0,0.1-0.1,0.2-0.2,0.3l0,0l-0.7,0.2c-0.1,0-0.1,0-0.2,0l0,0c-0.1,0-0.2-0.1-0.3-0.2l0,0l-0.5-1.1c-0.3,0-0.6,0-0.9,0l0,0
		c-0.2,0-0.3,0-0.5-0.1l0,0c-0.2,0-0.4-0.1-0.5-0.1l0,0l-0.8,1C103.8,49.5,103.7,49.6,103.5,49.6L103.5,49.6
		C103.6,49.6,103.6,49.6,103.5,49.6L103.5,49.6z M102.9,43.4c0-0.1,0-0.2,0.1-0.4l0,0c0.4-1.8,2.1-3,3.9-2.7l0,0
		c0.1,0,0.2,0,0.4,0.1l0,0c1.7,0.4,2.9,2.1,2.7,3.9l0,0c0,0.1,0,0.2-0.1,0.4l0,0c-0.4,1.8-2.1,2.9-3.9,2.7l0,0c-0.1,0-0.2,0-0.4-0.1
		l0,0C103.8,46.9,102.6,45.2,102.9,43.4L102.9,43.4z M103.2,43.1c0,0.1,0,0.2-0.1,0.3l0,0c-0.2,1.7,0.9,3.3,2.5,3.6l0,0
		c0.1,0,0.2,0,0.3,0.1l0,0c1.7,0.2,3.3-0.9,3.6-2.5l0,0c0-0.1,0-0.2,0.1-0.3l0,0c0.2-1.7-0.9-3.3-2.5-3.6l0,0c-0.1,0-0.2,0-0.3-0.1
		l0,0C105.1,40.3,103.5,41.5,103.2,43.1L103.2,43.1z M105.3,43.7v-0.1l0,0c0.1-0.6,0.7-0.9,1.2-0.9l0,0h0.1l0,0
		c0.6,0.1,0.9,0.7,0.9,1.2l0,0V44l0,0c-0.1,0.6-0.7,0.9-1.2,0.9l0,0h-0.1l0,0C105.6,44.8,105.2,44.3,105.3,43.7L105.3,43.7z
		 M105.5,43.6C105.5,43.7,105.5,43.7,105.5,43.6L105.5,43.6c-0.1,0.5,0.2,1,0.7,1.1l0,0h0.1l0,0c0.5,0.1,0.9-0.3,1-0.7l0,0v-0.1l0,0
		c0.1-0.5-0.2-0.9-0.7-1l0,0h-0.1l0,0C106,42.9,105.6,43.2,105.5,43.6L105.5,43.6z"/>
	<g>
		<path class="st6" d="M218.2,67.6l-0.5-0.6l0,0c-0.1-0.1-0.1-0.4,0-0.5l0,0l0.8-0.9c-0.4-0.6-0.6-1.2-0.7-1.9l0,0l-1.1-0.2
			c-0.1,0-0.2-0.1-0.2-0.1l0,0c-0.1-0.1-0.1-0.2-0.1-0.3l0,0v-0.8c0-0.1,0-0.2,0.1-0.3l0,0c0.1-0.1,0.1-0.1,0.2-0.1l0,0l1.1-0.1
			c0.1-0.4,0.2-0.8,0.4-1.2l0,0c0.2-0.3,0.4-0.6,0.6-0.9l0,0l-0.6-0.9l0.1-0.1l-0.1,0.1c-0.1-0.2-0.1-0.4,0-0.5l0,0l0,0l0,0l0.6-0.5
			l0,0l0,0l0,0l0,0l0,0l0,0c0.1-0.1,0.4-0.1,0.5,0l0,0l0.8,0.7c0.7-0.4,1.4-0.7,2.2-0.7l0,0l0.2-1c0-0.1,0.1-0.2,0.1-0.2l0,0
			c0.1-0.1,0.2-0.1,0.3-0.1l0,0h0.8c0.1,0,0.2,0,0.3,0.1l0,0c0.1,0.1,0.1,0.2,0.1,0.2l0,0l0.1,1.1c0.3,0.1,0.7,0.2,1,0.4l0,0
			c0.3,0.2,0.7,0.4,1,0.6l0,0l0.9-0.6c0.2-0.1,0.4-0.1,0.5,0l0,0l0,0l0,0l0.5,0.6l0,0c0.1,0.1,0.1,0.4,0,0.5l0,0l-0.7,0.8
			c0.4,0.7,0.6,1.4,0.7,2.1l0,0l1.1,0.2c0.1,0,0.2,0.1,0.2,0.1l0,0c0.1,0.1,0.1,0.2,0.1,0.3l0,0v0.8c0,0.1,0,0.2-0.1,0.3l0,0
			c-0.1,0.1-0.1,0.1-0.2,0.1l0,0l-1.2,0.1c-0.1,0.3-0.2,0.7-0.4,1l0,0c-0.2,0.4-0.4,0.7-0.7,1l0,0l0.7,1c0.1,0.2,0.1,0.4,0,0.5l0,0
			l0,0l0,0l-0.6,0.5l0,0l0,0h-0.1l0,0c-0.1,0.1-0.3,0-0.4-0.1l0,0l-0.9-0.8c-0.6,0.4-1.3,0.6-2.1,0.7l0,0l-0.2,1.2
			c0,0.1-0.1,0.2-0.1,0.2l0,0c-0.1,0.1-0.2,0.1-0.3,0.1l0,0h-0.8c-0.1,0-0.2,0-0.3-0.1l0,0c-0.1-0.1-0.1-0.1-0.1-0.2l0,0l-0.1-1.3
			c-0.3-0.1-0.6-0.2-0.9-0.3l0,0c-0.3-0.2-0.6-0.4-0.9-0.6l0,0l-1.1,0.7C218.5,67.8,218.3,67.8,218.2,67.6L218.2,67.6L218.2,67.6
			L218.2,67.6z M217.9,66.8l0.5,0.6l0,0c0,0,0.1,0,0.2,0l0,0l1.1-0.7l0.1-0.1l0.1,0.1c0.3,0.2,0.6,0.4,0.9,0.6l0,0
			c0.3,0.2,0.6,0.3,1,0.4l0,0h0.1v0.1l0,0l0.1,1.4v0.1l0,0h0.1l0,0h0.8h0.1l0,0v-0.1l0,0l0.2-1.4h0.1c0.8-0.1,1.5-0.3,2.1-0.7l0,0
			h0.1l1,0.9c0.1,0.1,0.1,0,0.2,0l0,0l0,0l0,0l0,0l0.6-0.5l0,0c0,0,0-0.1,0-0.2l0,0l-0.8-1.2l0.1-0.1c0.3-0.3,0.5-0.7,0.7-1.1l0,0
			c0.2-0.3,0.3-0.7,0.4-1l0,0v-0.1l1.4-0.1h0.1l0,0v-0.1l0,0v-0.8v-0.1l0,0c0,0-0.1,0-0.1-0.1l0,0l-1.3-0.2v-0.1
			c-0.1-0.8-0.3-1.5-0.7-2.2l0,0V60l0.8-0.9c0-0.1,0-0.1,0-0.2l0,0l0,0l-0.5-0.6l0,0c0,0-0.1,0-0.2,0l0,0l-1.1,0.7l-0.1-0.1
			c-0.3-0.2-0.6-0.5-1-0.6l0,0c-0.3-0.2-0.7-0.3-1-0.4l0,0h-0.1l0.1-1.1v-0.1l0,0h-0.1l0,0h-0.8H223l0,0v0.1l0,0l-0.2,1.2h-0.1
			c-0.8,0.1-1.6,0.3-2.3,0.8l0,0l-0.1,0.1l-0.9-0.8c-0.1,0-0.1,0-0.2,0l0,0l0,0l-0.6,0.6l0,0c0,0,0,0.1,0,0.2l0,0l0,0l0.7,1.1
			l-0.1,0.1c-0.2,0.3-0.4,0.6-0.6,0.9l0,0c-0.2,0.4-0.3,0.8-0.4,1.2l0,0v0.1l-1.3,0.1h-0.1l0,0c0,0,0,0,0,0.1l0,0v0.8v0.1l0,0
			c0,0,0,0,0.1,0l0,0l1.3,0.2v0.1c0.1,0.7,0.3,1.4,0.7,2l0,0v0.1L217.9,66.8C217.8,66.7,217.8,66.8,217.9,66.8L217.9,66.8
			L217.9,66.8L217.9,66.8L217.9,66.8L217.9,66.8L217.9,66.8L217.9,66.8z M219.7,61.3c0.2-0.4,0.5-0.8,0.8-1.1l0,0
			c1.1-1,2.7-1.3,4.2-0.6l0,0c0.4,0.2,0.8,0.5,1.1,0.8l0,0c1,1.1,1.3,2.7,0.6,4.2l0,0c-0.2,0.4-0.5,0.8-0.8,1.1l0,0
			c-1.1,1-2.7,1.3-4.2,0.6l0,0c-0.4-0.2-0.8-0.5-1.1-0.8l0,0C219.3,64.3,219,62.7,219.7,61.3L219.7,61.3z M220.6,60.3
			c-0.3,0.3-0.6,0.6-0.8,1l0,0c-0.7,1.3-0.4,2.9,0.6,3.9l0,0c0.3,0.3,0.6,0.6,1,0.8l0,0c1.3,0.7,2.9,0.4,3.9-0.6l0,0
			c0.3-0.3,0.6-0.6,0.8-1l0,0c0.6-1.3,0.4-2.9-0.6-3.9l0,0c-0.3-0.3-0.6-0.6-1-0.8l0,0C223.2,59.1,221.7,59.4,220.6,60.3L220.6,60.3
			z M220.3,61.6c0.2-0.3,0.4-0.6,0.6-0.9l0,0c0.9-0.8,2.2-1,3.3-0.5l0,0c0.3,0.2,0.6,0.4,0.9,0.6l0,0c0.8,0.9,1,2.2,0.5,3.3l0,0
			c-0.2,0.3-0.4,0.6-0.6,0.9l0,0c-0.9,0.8-2.2,1.1-3.3,0.5l0,0c-0.3-0.2-0.6-0.4-0.9-0.7l0,0C220,64,219.7,62.7,220.3,61.6
			L220.3,61.6z M224.2,60.4c-1-0.5-2.3-0.3-3.1,0.4l0,0c-0.2,0.2-0.4,0.5-0.6,0.8l0,0c-0.5,1-0.3,2.3,0.5,3.1l0,0
			c0.2,0.2,0.5,0.4,0.8,0.6l0,0c1,0.5,2.3,0.3,3.1-0.5l0,0c0.2-0.2,0.4-0.5,0.6-0.8l0,0c0.5-1.1,0.3-2.3-0.5-3.1l0,0
			C224.8,60.8,224.5,60.6,224.2,60.4L224.2,60.4z M221.9,62.4c0.1-0.1,0.2-0.3,0.3-0.3l0,0c0.3-0.3,0.9-0.4,1.3-0.2l0,0l0,0
			c0.1,0.1,0.2,0.2,0.3,0.3l0,0c0.3,0.3,0.4,0.9,0.2,1.3l0,0c-0.1,0.1-0.2,0.2-0.3,0.3l0,0c-0.3,0.3-0.9,0.4-1.3,0.2l0,0
			c-0.1-0.1-0.2-0.2-0.3-0.3l0,0C221.8,63.3,221.7,62.8,221.9,62.4L221.9,62.4z M223.4,62.1c-0.4-0.2-0.8-0.1-1,0.1l0,0
			c-0.1,0.1-0.2,0.2-0.2,0.3l0,0c-0.2,0.4-0.1,0.8,0.2,1l0,0c0.1,0.1,0.2,0.2,0.3,0.2l0,0c0.4,0.2,0.8,0.1,1-0.2l0,0
			c0.1-0.1,0.2-0.2,0.2-0.3l0,0c0.2-0.4,0.1-0.8-0.2-1l0,0C223.6,62.2,223.5,62.1,223.4,62.1L223.4,62.1l0.1-0.1L223.4,62.1
			L223.4,62.1z"/>
		<path class="st5" d="M206.9,60.3l-0.3-0.6c-0.1-0.1,0-0.3,0.1-0.4l0,0c0,0,0,0,0.1,0l0,0l0.8-0.5c-0.2-0.5-0.2-1.1-0.1-1.7l0,0
			l-0.8-0.4c0,0-0.1,0-0.1-0.1l0,0c-0.1-0.1-0.1-0.2-0.1-0.3l0,0l0.2-0.6c0-0.1,0-0.1,0.1-0.1l0,0c0.1-0.1,0.2-0.1,0.3-0.1l0,0
			l0.9,0.2c0.2-0.3,0.3-0.6,0.6-0.8l0,0c0.1-0.1,0.2-0.2,0.3-0.3l0,0c0.1-0.1,0.2-0.2,0.4-0.3l0,0l-0.3-0.9h0.1h0.1l0.3,1h-0.1
			c-0.1,0.1-0.3,0.2-0.4,0.3l0,0c-0.1,0.1-0.2,0.2-0.3,0.3l0,0c-0.2,0.3-0.4,0.6-0.6,0.9l0,0V56H208l-1-0.2h-0.1l0,0l0,0l0,0
			l-0.2,0.6v0.1l0,0l0,0l0,0l1,0.5v0.1c-0.1,0.6,0,1.2,0.1,1.7l0,0v0.1h-0.1l-0.9,0.5l0,0v0.1l0,0l0.3,0.6l0,0l0,0h0.1l0,0l1-0.3
			l0.1-0.1l0.1,0.1c0.1,0.1,0.2,0.3,0.3,0.4l0,0c0.1,0.1,0.2,0.2,0.3,0.3l0,0c0.2,0.2,0.4,0.3,0.7,0.5l0,0h0.1v0.1l0,0l-0.2,1.1v0.1
			l0,0l0,0l0,0l0.7,0.2h0.1l0,0l0,0l0,0l0.5-1h0.1c0.6,0.1,1.2,0.1,1.8-0.1l0,0h0.1v0.1l0.6,0.9l0,0h0.1l0,0l0.6-0.3l0,0l0,0V62l0,0
			l-0.3-1.1h0.1c0.2-0.1,0.3-0.2,0.5-0.4l0,0c0.1-0.1,0.2-0.2,0.3-0.3l0,0c0.2-0.2,0.4-0.5,0.5-0.7l0,0v-0.1l1.1,0.2h0.1l0,0l0,0
			l0,0l0.2-0.6v-0.1l0,0l0,0l0,0l-1-0.5v-0.1c0.1-0.6,0.1-1.3-0.1-1.9l0,0v-0.1h0.1l0.8-0.5l0,0l0,0v-0.1l0,0l-0.3-0.6l0,0l0,0h-0.1
			l0,0l-1,0.3v-0.1c-0.1-0.1-0.2-0.3-0.3-0.4l0,0c-0.1-0.1-0.2-0.2-0.3-0.3l0,0c-0.2-0.2-0.5-0.4-0.7-0.5l0,0h-0.1V54l0.2-0.9V53
			l0,0l0,0l0,0l-0.9-0.2h-0.1l0,0l0,0l0,0l-0.4,0.9h-0.1c-0.6-0.1-1.3-0.1-1.9,0.1l0,0h-0.1v-0.1l-0.5-0.8l0,0h-0.1l0,0l-0.6,0.3
			l0,0v0.1l0,0h-0.1H209c0-0.1,0-0.2,0.1-0.3l0,0h0.1l0,0l0.6-0.3c0.1-0.1,0.3,0,0.4,0.1l0,0l0,0l0,0l0.5,0.7
			c0.6-0.2,1.3-0.2,1.9-0.1l0,0l0.4-0.7c0-0.1,0.1-0.1,0.1-0.1l0,0c0.1-0.1,0.2-0.1,0.3-0.1l0,0l0.6,0.2c0.1,0,0.1,0,0.1,0.1l0,0
			c0.1,0.1,0.1,0.2,0.1,0.3l0,0L214,54c0.2,0.1,0.5,0.3,0.7,0.5l0,0c0.1,0.1,0.2,0.2,0.3,0.3l0,0c0.1,0.1,0.2,0.3,0.3,0.4l0,0
			l0.8-0.3c0.1,0,0.2,0,0.3,0.1l0,0v0.1l0,0l0.3,0.6c0.1,0.1,0,0.3-0.1,0.4l0,0l0,0l0,0l-0.7,0.5c0.2,0.6,0.2,1.2,0.1,1.8l0,0
			l0.8,0.4c0,0,0.1,0,0.1,0.1l0,0c0.1,0.1,0.1,0.2,0.1,0.3l0,0l-0.2,0.6c0,0.1,0,0.1-0.1,0.1l0,0c-0.1,0.1-0.2,0.1-0.3,0.1l0,0
			l-1-0.2c-0.1,0.2-0.3,0.5-0.5,0.7l0,0c-0.1,0.1-0.2,0.2-0.3,0.3l0,0c-0.1,0.1-0.3,0.3-0.4,0.4l0,0l0.3,0.9c0,0.1,0,0.2-0.1,0.3
			l0,0c0,0,0,0-0.1,0.1l0,0l-0.6,0.3c-0.1,0.1-0.3,0-0.4-0.1l0,0l0,0l0,0l-0.5-0.8c-0.6,0.1-1.2,0.2-1.8,0.1l0,0l-0.4,0.9
			c0,0,0,0.1-0.1,0.1l0,0c-0.1,0.1-0.2,0.1-0.3,0.1l0,0l-0.6-0.2c-0.1,0-0.1,0-0.1-0.1l0,0c-0.1-0.1-0.1-0.2-0.1-0.3l0,0l0.2-1
			c-0.2-0.1-0.4-0.3-0.6-0.5l0,0c-0.1-0.1-0.2-0.2-0.3-0.3l0,0c-0.1-0.1-0.2-0.2-0.3-0.3l0,0l-1,0.3C207.1,60.5,207,60.5,206.9,60.3
			L206.9,60.3C206.9,60.4,206.9,60.3,206.9,60.3L206.9,60.3z M209.4,55.7c0.1-0.1,0.1-0.2,0.2-0.2l0,0c1.1-1,2.9-1.1,4,0l0,0
			c0.1,0.1,0.1,0.1,0.2,0.2l0,0c1,1.1,1.1,2.9,0,4l0,0c-0.1,0.1-0.1,0.1-0.2,0.2l0,0c-1.1,1-2.9,1.1-4,0l0,0
			c-0.1-0.1-0.1-0.1-0.2-0.2l0,0C208.4,58.6,208.4,56.8,209.4,55.7L209.4,55.7z M213.5,55.6c-1.1-1-2.7-0.9-3.8,0l0,0
			c-0.1,0.1-0.1,0.1-0.2,0.2l0,0c-1,1.1-0.9,2.7,0,3.8l0,0c0.1,0.1,0.1,0.1,0.2,0.2l0,0c1.1,1,2.7,0.9,3.8,0l0,0
			c0.1-0.1,0.1-0.1,0.2-0.2l0,0c1-1.1,0.9-2.7,0-3.8l0,0C213.7,55.7,213.6,55.6,213.5,55.6L213.5,55.6L213.5,55.6L213.5,55.6
			L213.5,55.6z M210.9,57C211,57,211,57,210.9,57L210.9,57c0.4-0.4,1-0.4,1.3-0.1l0,0l0,0c0,0,0,0,0.1,0.1l0,0
			c0.3,0.4,0.3,0.9,0,1.3l0,0c0,0,0,0-0.1,0.1l0,0c-0.4,0.3-0.9,0.3-1.3,0l0,0c0,0,0,0-0.1-0.1l0,0C210.6,58,210.6,57.4,210.9,57
			L210.9,57z M212.2,57.1c-0.3-0.3-0.7-0.3-1,0l0,0c0,0,0,0-0.1,0.1l0,0c-0.3,0.3-0.2,0.7,0,1l0,0c0,0,0,0,0.1,0.1l0,0
			c0.3,0.3,0.7,0.2,1,0l0,0c0,0,0,0,0.1-0.1l0,0C212.5,57.9,212.5,57.4,212.2,57.1L212.2,57.1L212.2,57.1L212.2,57.1L212.2,57.1
			L212.2,57.1L212.2,57.1z"/>
		<path class="st7" d="M222.4,71.5l0.1,0.6c-0.2,0.1-0.3,0.2-0.5,0.3c-0.2,0.2-0.3,0.3-0.4,0.5l-0.6-0.1c-0.1,0-0.1,0-0.2,0.1
			l-0.2,0.4c0,0.1,0,0.1,0.1,0.2l0.5,0.3c-0.1,0.4-0.1,0.7,0,1.1l-0.6,0.3c-0.1,0-0.1,0.1-0.1,0.2l0.1,0.4c0,0.1,0.1,0.1,0.2,0.1
			l0.7-0.1l0,0c0.1,0.2,0.2,0.3,0.3,0.5c0.1,0.1,0.3,0.3,0.4,0.4l0,0l-0.2,0.7c0,0.1,0,0.1,0.1,0.2l0.4,0.2c0.1,0,0.1,0,0.2-0.1
			l0.3-0.6c0.4,0.1,0.8,0.1,1.2,0.1l0.3,0.6c0,0.1,0.1,0.1,0.2,0.1l0.4-0.1c0.1,0,0.1-0.1,0.1-0.2l-0.1-0.7c0.2-0.1,0.4-0.2,0.5-0.4
			c0.1-0.1,0.3-0.3,0.4-0.4l0.6,0.2c0.1,0,0.1,0,0.2-0.1l0.2-0.4c0-0.1,0-0.1-0.1-0.2l-0.5-0.3c0.1-0.4,0.1-0.8,0.1-1.2l0.5-0.3
			c0.1,0,0.1-0.1,0.1-0.2l-0.1-0.4c0-0.1-0.1-0.1-0.2-0.1l-0.6,0.1c-0.1-0.2-0.2-0.3-0.4-0.5c-0.1-0.1-0.3-0.3-0.4-0.4l0.2-0.6
			c0-0.1,0-0.1-0.1-0.2l-0.4-0.2c-0.1,0-0.1,0-0.2,0.1l-0.3,0.5c-0.4-0.1-0.8-0.1-1.3-0.1l-0.3-0.5c0-0.1-0.1-0.1-0.2-0.1l-0.4,0.1
			C222.4,71.3,222.4,71.4,222.4,71.5z M225.2,73.1c0.7,0.7,0.7,1.9-0.1,2.6c-0.7,0.7-1.9,0.7-2.6-0.1c-0.7-0.7-0.7-1.9,0.1-2.6
			C223.3,72.3,224.5,72.3,225.2,73.1z M222.7,75.3c0.6,0.6,1.5,0.6,2.1,0.1c0.6-0.6,0.6-1.5,0.1-2.1c-0.6-0.6-1.5-0.6-2.1-0.1
			C222.2,73.8,222.2,74.7,222.7,75.3z M224.2,74c0.2,0.2,0.2,0.6,0,0.8s-0.6,0.2-0.8,0s-0.2-0.6,0-0.8C223.7,73.7,224,73.8,224.2,74
			z"/>
	</g>
	<path class="st8" d="M230.3,114.6c-0.5-2.9-1.1-5.8-1.8-8.6l-5.1,1c0.8,2.8,1.4,5.6,1.9,8.6c6.4,41.1-21.7,79.6-62.7,86
		c-41.1,6.4-79.6-21.7-86-62.7c-6.5-41.1,21.6-79.6,62.7-86.1c26.7-4.2,52.3,6.3,68.7,25.4l-7.2,4.4l16.6,4.4l1.5-15.8l-6.5,4.1
		c-18.1-21.4-43.5-32-73.2-27.3C94,55.1,66.4,94.6,71.5,138.3c5.2,45.5,47.5,74.1,92.7,67C209.3,198.2,237.4,159.9,230.3,114.6z"/>
	<path class="st9" d="M230.4,79.1c25.7,46.8,11.1,104.4-36.7,128.2c-45.9,22.9-100.1,8.4-125.8-38.4c-16.9-30.8-15.4-62.8,0.9-91.1
		l-7.1-5.6l17.9-4.6l1.7,19.9l-7.7-6.2c-14.3,25.6-15.6,57.8-0.4,85.5c23.3,42.5,76.7,58,119.2,34.6c42.5-23.3,58-76.7,34.6-119.2
		L230.4,79.1z"/>
	<g>
		
			<linearGradient id="SVGID_2_" gradientUnits="userSpaceOnUse" x1="-14.7588" y1="32.5203" x2="162.3223" y2="172.7825" gradientTransform="matrix(1 0 0 -1 0 300)">
			<stop  offset="0" style="stop-color:#C2E3FF;stop-opacity:0"/>
			<stop  offset="0.1296" style="stop-color:#BDDEFA;stop-opacity:9.070092e-02"/>
			<stop  offset="0.2868" style="stop-color:#AED0ED;stop-opacity:0.2007"/>
			<stop  offset="0.4583" style="stop-color:#95B9D7;stop-opacity:0.3208"/>
			<stop  offset="0.6401" style="stop-color:#7399B9;stop-opacity:0.448"/>
			<stop  offset="0.8279" style="stop-color:#487092;stop-opacity:0.5795"/>
			<stop  offset="1" style="stop-color:#194469;stop-opacity:0.7"/>
		</linearGradient>
		<polygon class="st10" points="117.8,82.8 -0.4,161.3 -0.4,310.8 18.6,310.8 131.8,246.2 		"/>
		
			<linearGradient id="SVGID_3_" gradientUnits="userSpaceOnUse" x1="40.0149" y1="17.349" x2="227.6871" y2="166.0002" gradientTransform="matrix(1 0 0 -1 0 300)">
			<stop  offset="0" style="stop-color:#C2E3FF;stop-opacity:0"/>
			<stop  offset="0.1233" style="stop-color:#BDDEFB;stop-opacity:0.1233"/>
			<stop  offset="0.2729" style="stop-color:#AFCFF0;stop-opacity:0.2729"/>
			<stop  offset="0.4361" style="stop-color:#98B6DE;stop-opacity:0.4361"/>
			<stop  offset="0.6092" style="stop-color:#7894C4;stop-opacity:0.6092"/>
			<stop  offset="0.7899" style="stop-color:#4E68A3;stop-opacity:0.7899"/>
			<stop  offset="0.9745" style="stop-color:#1C337B;stop-opacity:0.9745"/>
			<stop  offset="1" style="stop-color:#152B75"/>
		</linearGradient>
		<polygon class="st11" points="223.4,256.1 193.9,103.9 156.7,81 100.8,115.8 41.2,310.8 89.3,310.8 196.9,251.1 		"/>
		<g>
			<g>
				<path class="st12" d="M158.3,115.3c-1.1,4.6,0.5,16.9-0.2,22.4c-0.6,4.6-3.1,13.2-3.1,13.2l7.5,5.7c0,0,3.3-2.8,6.3-7.8
					c4.1-6.7-2.8-20.3-4.4-23C161.3,120.5,158.3,115.3,158.3,115.3z"/>
				<path class="st13" d="M204,242.6c0-2.8-1-4.4-1.4-7.1l-0.8,0.6c0-0.5-0.1-0.9-0.1-1.1c0-0.9-7.4-1.1-7.4-1.1
					c0.6,3.4,0.5,7.7-2.2,12c-1.5,2.4-2.4,5.1,0.9,5.2c4,0.2,7.9-2,8.7-4.5c0.1-0.2,0.1-0.4,0.1-0.6h1.6
					C203.4,246.1,204,245.4,204,242.6z"/>
				<path class="st13" d="M173.2,231.3c-0.7,3,1.1,6.2-2.9,9.1c-1.9,1.4-5.8,2.4-5.5,4.6c0.5,3,7.1,1.9,7.1,1.9
					c4.1-1.7,2.6-1.8,6.3-2.8c0.9-0.2,1.5,0.4,2,0.3c3.5-0.4,2.8-1.8,2.8-3.4c0-2-0.4-4.6-0.8-6.2
					C181.5,232,173.2,231.3,173.2,231.3z"/>
				<g>
					<path class="st12" d="M171.5,201.9c0.8,7.6,1.3,35.7,1.3,35.7l12.2,0.3c0,0-0.1-28.2-0.2-31.6c-1.3-23.6-1.6-26.6-1.6-26.6
						s2.5,21.6,3.2,24.6c0.8,3,5.6,36.4,5.6,36.4l13.3-1.7c-0.6-5.8-2.8-42.7-3.7-52.9c-0.7-8.2-2.4-22.6-5.8-35.1l-27.6,3.8
						C168.2,154.8,170.7,194.3,171.5,201.9z"/>
				</g>
				<g>
					<g>
						<path class="st14" d="M170.3,201.4c-0.6-6.2-2.3-33.3-2.3-46.1l4.9,2.2c0,10.6,2.3,43.4,2.5,51.1c0.2,6.2,1.8,22.3,2.5,28.8
							l-5.7,0.2C172.2,237.7,171,209,170.3,201.4z"/>
					</g>
				</g>
				<g>
					<path class="st15" d="M170.4,94.6c0.2,2.1,3.3,5,5.2,7.7s1.8,3,1.8,3l-9.5,8.2c0,0-1.1-9-4.9-9.9
						C160.6,103,170.4,94.6,170.4,94.6z"/>
					<g>
						<path class="st16" d="M162.7,103c-0.6-0.3-0.2-1.6,0.4-3.1l5.2-6.3l6.2,13.1l-3.6,5.5l-3-0.2
							C167.8,112.1,166.7,105.1,162.7,103z"/>
					</g>
				</g>
				<path class="st15" d="M155,94.7c2,5.9,6.3,11.2,9.3,10.3c5.6-1.6,6.9-7.1,6-13.3c-0.9-6.1-6.5-9.9-12.2-8.2
					C152,85.5,153.1,89,155,94.7z"/>
				<path class="st17" d="M152.8,84.3c-1.3,3.2,0.3,8,0.4,6.6c0.3-3.4,4.8-3,5.9-2.3c1,0.7,5.2-0.3,6,0.1s-0.8-2.4-0.8-2.4l1.4,2.2
					l-0.4-2.2l0.6,1.1l4.5,7.4l2,3.4c0,0,1.7-3.6,1.9-5.6c0.2-2.4,0.8-2.6,0.6-4c-0.3-1.7-0.3-2.1-0.7-3.7c-0.4-1.7-2.2-4.1-3.4-4.3
					c-1.2-0.2-1.9-0.4-2.4-0.1c-0.6,0.3-0.7-1-2.4-1.2c-1.7-0.3-1.7-0.5-4.1-0.3c-2.4,0.2-3.9,1.1-5.8,2.2
					C154.9,82,152.8,84.3,152.8,84.3z"/>
				<g>
					<path d="M161.7,95.8c-0.1,0-0.1,0-0.2,0l0,0c-0.7,0.1-1.3-0.4-1.5-1l0.3-0.1l-0.3,0.1l-0.3-1.2l0,0c0-0.1,0-0.1,0-0.2l0,0
						c-0.1-0.7,0.3-1.3,1-1.5l2.9-0.7l0,0h0.1l0,0c0.7-0.1,1.3,0.4,1.5,1l0.1,0.4l0.2,0.8l0,0c0,0.1,0,0.1,0,0.2l0,0
						c0.1,0.7-0.3,1.3-1,1.5L161.7,95.8L161.7,95.8z M164.5,92.4c-0.1-0.4-0.4-0.6-0.7-0.5l0,0l0,0l0,0l-2.9,0.8l0,0
						c-0.3,0.1-0.5,0.4-0.5,0.7l0,0v0.1l0.3,1.2l0,0l0,0c0.1,0.4,0.4,0.6,0.7,0.5l0,0h0.1l2.8-0.7l0,0c0.3-0.1,0.5-0.4,0.5-0.7l0,0
						v-0.1l-0.2-0.8L164.5,92.4L164.5,92.4z"/>
					<path d="M155.4,97.3c-0.1,0-0.1,0-0.1,0l0,0c-0.7,0.1-1.2-0.4-1.3-1l0.4-0.1l-0.4,0.1l-0.2-1.2l0,0c0-0.1,0-0.2,0-0.2l0,0
						c0-0.6,0.2-1.2,0.9-1.4l2.2-0.6l0,0h0.1l0,0l0,0l0,0c0.7-0.1,1.2,0.4,1.3,1l0.3,1.2l0,0c0,0.1,0,0.2,0,0.2l0,0
						c0,0.6-0.2,1.2-0.9,1.4L155.4,97.3L155.4,97.3z M157.5,94.1c-0.1-0.4-0.4-0.6-0.5-0.6l0,0l0,0l0,0l-2.3,0.6l0,0
						c-0.1,0-0.3,0.2-0.2,0.6l0,0c0,0,0,0.1,0,0.2l0.3,1.1l0,0l0,0c0.1,0.4,0.4,0.6,0.5,0.6l0,0c0,0,0,0,0.1,0l2.2-0.6l0,0
						c0.1,0,0.3-0.2,0.2-0.6l0,0c0-0.1,0-0.1,0-0.1L157.5,94.1L157.5,94.1z"/>
					<path d="M164.7,92.1c0,0,5.5-3.2,5.7-3c0.2,0.4,0.5,0.7,0.5,0.7l-0.7-0.2l-5.3,3.8L164.7,92.1z"/>
					<polygon points="160.1,93.8 158,94.2 158,94.7 160.3,94.2 					"/>
				</g>
				<path class="st14" d="M165,107.5c0,0-2.2,2.3-5.5,5.8c-2,2-1.3,2.5-1.1,5c0.2,1.9,3.9,12.2,5.3,15.7c1.1,2.6,3,13.9,1.8,29.8
					c-0.2,2.8,12,3.2,14.3-3.6c-2.1-10.2-7-29-8.6-34.4C170.9,124.5,165,107.5,165,107.5z"/>
				<path class="st12" d="M177,102.8c0,0,4.1,0.8,10.3,2.4c5.8,1.5,5.4,10.8,6.2,13.3c0.8,2.4-1.7,5.7-1.7,8.6
					c0,2.9,6.2,25.2,8.7,32.2c0.6,1.7-22.4,9.9-23.9,3.5c1.1-4.3-1.2-16.6-6.3-35.8C170,125.6,177,102.8,177,102.8z"/>
				<path class="st18" d="M170.1,108.1c-0.7,0.9-5,0.2-5.4,0s-0.9,1.1-0.9,1.1l0.9,5.4l6.3,13.7l3.4-18.8L170.1,108.1z"/>
				<polygon points="169.4,108.5 171.1,110.3 170.3,112.9 168.4,113.2 166.6,110.6 167.5,109 				"/>
				<polygon points="170.2,112.4 173.1,120 171.2,128.1 167.9,120.7 168.3,112.6 				"/>
				<polygon class="st18" points="168.2,108.7 165.2,105.6 164.3,107.7 165.3,112.1 				"/>
				<polygon class="st12" points="165,113.4 164,108 161.9,110.6 160.9,113.2 163.4,112.2 161.8,115.1 171.9,129.8 				"/>
				<polygon class="st18" points="174.3,99.5 168.5,108.5 173,112.2 176.8,102.3 				"/>
				<polygon class="st14" points="173.9,108.9 176.2,101.6 180.2,103.8 180.2,107.4 176.1,108.3 178.6,110.7 171.1,128 				"/>
				<path class="st16" d="M164.8,148c-1.5,0.7-5.7,1.4-6.8,1.8c-1.1,0.3-3,1.1-3.5,1.5c-1.4,0.9-2.6,2.9-2.2,3.1
					c0.2,0.1,1.6-1.2,2.2-1.6c0.6-0.4,2.3-1.5,2.3-1.5s-2.3,1.4-3,2.3c-0.8,0.9-1.7,2.4-1.2,2.4s1-0.6,1.4-1.1
					c0.3-0.5,3.3-2.6,3.3-2.6s-2.4,1.4-3.7,3.4c-0.4,0.6,0.1,0.9,0.5,0.6c0.4-0.3,3.4-2.3,3.8-2c0.5,0.2-3.3,1.4-3,1.9
					c0.2,0.2,0.9,0.2,2.3-0.4c1.5-0.7,2.8-0.8,4.1-1s4.8-1.8,5.6-2.5c0.7-0.7,2.6-2.5,2.6-2.5l-2.1-3.3
					C167.4,146.4,165.6,147.7,164.8,148z"/>
				<g>
					<path class="st12" d="M182.3,110.2c1.1-6.8,4.2-4.6,7.5-3.3c3.2,1.3-1.5,26-3.4,30.5c0,0-11.4,16.4-19.8,18.1l-2.8-7.1
						l14.2-18.1L182.3,110.2z"/>
				</g>
			</g>
			<g>
				<path class="st19" d="M141.1,83c1.9,0.4,5.2,0.3,8.4,5.8c2.9,4.9,0.8,23.3-0.7,26c-2.5-0.9-10.2-5.7-10.2-5.7L141.1,83z"/>
				<g>
					<path class="st15" d="M134.6,178.1c0.5,3.5-1.4,19.7-4.9,27c-0.8,1.6-3.2,25.2-3.2,26.7c0,2.7,1.4,10.7,5.3,12.6
						c-2.2,1.4-6,0.2-7.7-2.8c-1.1-2-4.8-4-5.2-5.3c-1-3,1.1-2.6,1.1-7.1s-3.2-18.4,0.1-25.4c2-4.3,1.1-10.6,1.6-12.1
						C122.2,190.1,134.6,178.1,134.6,178.1z"/>
					<path class="st12" d="M119.4,232.6c-0.9,0.7-1.8,2.8-1.3,4.6s1.6,7.6,1.3,9c0.9,0.2,1,0,1,0s-0.1-7.9,0.8-7.6
						c0.9,0.4,2,5.6,3.6,7.4c1.6,1.8,7.9,1.3,8.3,0.8c0.4-0.5,0.8-2.2-0.7-2.8c-1.4-0.6-2.7-1.5-2.7-1.5s-3.3,1.1-4.9-1.2
						C123.2,239.1,119.4,232.6,119.4,232.6z"/>
				</g>
				<path class="st16" d="M130.1,169.1c-1.1,4.3-6.8,27.7-9.3,32.1c-3.5,6.2-8.8,24.3-10.4,31.9c-1,4.8-2.5,16.2-8.4,12.8
					c-3.4-2,1.4-9.1,1.9-12c1.4-6.8,1.3-11.3,1.9-17.2c1-10.1,1.2-12.4,4.1-18.8c1.8-4,1.4-14.6,1.4-14.6L130.1,169.1z"/>
				<path class="st12" d="M102.1,239c-0.7,3.5,0.3,3.8,1.5,4.2c1.1,0.4,4.6-0.7,5.5-3.2c-1.1,5.1-1.7,5.6-2.8,6.8
					c-1.1,1.2-4.2,1.9-5.1,1.5c-1.9-0.8-2.8-3.2-1.7-5.6C100.6,240.4,102.1,239,102.1,239z"/>
				<g>
					<path class="st16" d="M155.5,153.1c-2.5-2-3.3-5-3.3-5c-3-3.3-6.9-9.8-8.5-12.6c-1.6-2.7-0.9-8-2.1-11.8
						c-2.1-7-4.6-4.9-5.2-8.2c-0.5-3.3,5.8-5.8,5.8-5.8c4.9,3.5,5.2,4.3,5.6,7.9c0,0-0.5,13.2,0.8,15c2.7,3.9,2.7,7.6,6.7,14.5
						c3.3,2.9,3.3,3.5,3.3,3.5s1.2,2.6,1.2,3.8c0,0,0,2.7-0.6,2.9s-0.8-1.5-0.8-2.3s-0.9-3.2-0.9-3.2s1.8,4.2,0.8,4.8
						c-0.9,0.6-0.6-1-1.1-1.9s-1.5-3.5-1.2-3.2c0.2,0.2,1.9,4.8,1.2,4.6C156.8,156.1,155.5,153.1,155.5,153.1z"/>
					<path class="st16" d="M153.4,148.1c0,2.1,2.2,2.6,2.8,3.5s0.9,1.6,1.2,1.4c0.3-0.1,0.1-0.8-0.4-2.1s-1.1-2.8-1.7-3
						C154.2,147.6,153.4,148.1,153.4,148.1z"/>
				</g>
				<path class="st18" d="M145.7,111.5c3.6,2,2.8,12,3.5,20.3c0.8,2.3,5.2,10.3,5,12.2c-0.1,2-0.1,2-0.1,2l-3.5,1.8
					c0,0-3.2-2-6.5-7.9c-3.3-5.9-3.6-11.5-3.3-12.6C140.9,126.2,145.7,111.5,145.7,111.5z"/>
				<path class="st18" d="M147,112.8c-1.6-1.8-7-4.8-7-4.8s-9.8-3.8-15.5,0.7c-2.2,1.7,12.2,17.7,13.3,18.4c1.1,0.7,7.9-3.1,8.4-8.1
					C146.7,113.9,147,112.8,147,112.8z"/>
				<path class="st12" d="M106.9,197.9l25,1.7c1.7-5.1,7.1-40.4,6.6-45.6c-0.5-4.8,0.6-8-1.2-12c1.3-7.3,6.7-12.2,8-14.5
					c1.8-3.2-0.1-7.3-0.3-16.3c0,0-0.6-0.6-2.3-1.6c0.3,8.6-1.6,12.7-3.6,12.5c-2.3-0.3-10-10.4-11.1-11.9c-1.1-1.6,0.4-3.7,0-3.8
					c-1.7,0.9-4.8,2.7-4.9,2.7c-4.7,2.2-3.4,9.8-3.4,9.8s0.3,8-1.1,16.4c-2.5,2.6-6.4,6.8-7.5,14.2
					C110,157.8,106.9,197.9,106.9,197.9z"/>
				<g>
					<path class="st18" d="M132.8,105l-1.6,3.2c0,0,4.5,7.1,4.6,6.6c0-0.3,2.6-5,2.6-5L132.8,105z"/>
				</g>
				<g>
					<path class="st16" d="M144.2,105.4c-2.2,1.4-4.6,3.5-5.8,6.1c-0.3,0.6-2.8-4.1-6.1-5.1c-1.7-0.5-0.7,3.2-1.9-0.3
						c1.4-1.4,2.7-5.6,1.9-10.3C131.6,91.1,144.2,105.4,144.2,105.4z"/>
					<g>
						
							<linearGradient id="SVGID_4_" gradientUnits="userSpaceOnUse" x1="77.0015" y1="331.8107" x2="89.7152" y2="331.8107" gradientTransform="matrix(0.9851 0.1719 0.1719 -0.9851 -1.8881 417.2415)">
							<stop  offset="0" style="stop-color:#FFFFFF"/>
							<stop  offset="0.6429" style="stop-color:#C6C0B9"/>
						</linearGradient>
						<path class="st20" d="M132.5,95.4c-0.5-2.7,8.2,8,10.9,10.9l-9.8,6.7c-4.6-1.1-2.5-5.9-3-6.9
							C132.1,104.6,133.3,100.1,132.5,95.4z"/>
					</g>
					<path class="st15" d="M147.9,103.2c-0.2-0.9-0.4-3.3-0.5-4c0.3-1.1,1.1-2.2,1.3-3.4c1.1-7-1.6-11.5-7.2-12.4
						c-5.6-0.9-10.3,1.1-11.5,8.1c-1.1,7,2.9,14,8.3,15.7c3.6,1.1,5-0.4,7.8-3.4C147,103.9,147.8,103.8,147.9,103.2z"/>
				</g>
				<path class="st19" d="M146.1,91.8c2.2,0.1,3.7,1.8,3.9,4.9c0.1,1,0-7.5-2.8-10.4c-2.8-3-7.3-4-9.2-3.1
					C136.2,84.2,146.1,91.8,146.1,91.8z"/>
				<path class="st21" d="M146.7,91.8c-0.7,1.1-3.7,2.3-6,2.7c-2.3,0.4-3.9,3.8-3.9,3.8l-7.7-2.3c0,0-2.7-8.1,5-11.8
					c5.1-2.4,7.4-0.6,9,1C147,89,146.7,91.8,146.7,91.8z"/>
				<path class="st21" d="M141.7,93.3c-1.2,1.1-7,14.9-1.3,23.7c-9-0.6-16.6-13.4-16.4-13c0,0,0.9-13.7,8.2-18.6
					C134.5,83.9,141.7,93.3,141.7,93.3z"/>
				<g>
					<g>
						<path class="st15" d="M124.1,111.3c-6.8,4.3,7.5,22.2,10,25.8c0,0,4.4,5.8,13.7,11.5c1.6,1.4,3.6,2.6,5,3.2
							c1.4,0.6,3.9,2.3,4.3,1.6c0.1-0.1-2-1.5-2-1.5s2.9,1.8,3.3,1.3c0.2-0.2-1.1-1.4-3-2.4c1.6,0.8,3.7,2.3,4,1.8s-3.2-2.6-3.6-2.7
							c1.6,0.6,3.7,2.2,3.5,1.3c-0.2-0.6-3.7-2.6-4-2.8s1.7,0.2,2.2-0.2s0.5-0.1-1.1-0.7c-1.8-0.6-2-1-3.1-1.1
							c-1-0.1-1.1,0.2-2.7-0.6c-1.6-0.8-12-11.3-13.5-13.6c-1.5-2.3-6.8-14.5-8.2-17.4C127.6,111.8,126,110.1,124.1,111.3z"/>
					</g>
					<path class="st18" d="M126.2,110.8c1.8,1.4,8,14.5,8.7,16.5c0.7,2.1,15.2,17.6,15.2,17.6l-3.4,3c0,0-8.1,1.6-17.2-12.4
						c-3-4.6-10.5-19.5-8.7-23C122.5,108.7,125.2,110,126.2,110.8z"/>
				</g>
			</g>
			<g>
				<path d="M73,253.5l2.2-1c0,0-1.8-2-2.1-2C72.7,250.6,73,253.5,73,253.5z"/>
				<path class="st12" d="M70.5,241.1c-0.4,2.7-0.9,7.6-0.2,11.3c0.2,1.1,2.7,1.1,2.7,1.1s-1-2.9,2.7,0.6c3.9,3.6,10.1,2.4,11.1,1.9
					c1-0.6,2.1-1.4-0.1-3.6c-1.9-1.9-5.2-3.8-5.9-5.5c-0.7-1.8-0.8-7.2-0.8-7.2L70.5,241.1z"/>
			</g>
			<g>
				<path d="M83,249l2-1c0,0-1.7-1.8-2-1.7C82.7,246.3,83,249,83,249z"/>
				<path class="st12" d="M80.3,237.8c-0.2,2.4-0.5,6.9,0.3,10.2c0.2,1,2.5,0.9,2.5,0.9s-1.1-2.6,2.5,0.4c3.7,3.2,9.3,1.8,10.1,1.2
					c0.9-0.5,1.9-1.4-0.2-3.3c-1.8-1.6-4.8-3.2-5.6-4.7c-0.7-1.6-1.1-6.5-1.1-6.5L80.3,237.8z"/>
			</g>
			<path class="st16" d="M116.5,95.6c-1.1,2.3-1.3,5.2-4.4,7.5c-3.2,2.3-4.5,2-4.5,2l7.2,18.7c0,0-0.7-10.7,7.7-16.5
				C124.9,105.6,116.5,95.6,116.5,95.6z"/>
			<g>
				<path class="st15" d="M138.8,91.8c-1.2-6.7-17.5-15.2-21.6-5.8c-7.4,17.3,3.2,22.6,3.2,22.6c4,1.7,4.4,2.5,6.6,2.2
					c1.5-0.2,3.2-1.3,4.7-3.7c1.3,0.1,2.6,0.4,2.7-0.5c-0.3-1.3,0.7-5,0.7-5.9C136.7,96.9,139.4,94.9,138.8,91.8z"/>
				<path class="st16" d="M132.7,86.3c-4.7-2.3-13.4-5.9-15.8-0.3c-7.4,17.3,2.8,22.8,2.8,22.8c0.4,0.1,4.2,1.6,4.6,1.7
					C123.7,108.6,121.8,101,132.7,86.3z"/>
				<path d="M119.8,81.2c1.8-1.4,5.6-2.5,10.2-0.8c4.5,1.7,5.7,3.1,7.5,7.3c0.9,2.1-0.3,5.4-0.3,5.4s-1.6-1-2.8-1.1
					s-2.4-1.2-4.5,0.3c-1.8,1.2-3.4,2.1-3.4,2.1s-10.2,6.3-10.8,7.8c-0.6,1.5-3.1-0.1-3.1-0.1s-0.5-6.7,0-10.4
					C113.4,83,119.4,81.5,119.8,81.2z"/>
				<g>
					<g>
						<g>
							<path class="st22" d="M129.9,92.3c2.1-1.5,3.4-0.3,4.5-0.2c1.2,0.1,4.1,2.9,4.1,2.9s3.6-2.3,2.7-4.4
								c-1.8-4.1-6.7-8.4-11.2-10.1c-1.8-0.7-3.5-0.9-5-0.8c1.9,1.6,2.9,4.7-1.2,15c0.9,1.2,1.3,2.2,1.3,2.2S128.1,93.5,129.9,92.3z
								"/>
						</g>
					</g>
				</g>
				<path class="st16" d="M125.5,96.4c-0.6-0.9-1.6-3.1-2.7-2.4s-3.1,5-1.6,6.8C122.8,102.5,125.5,96.4,125.5,96.4z"/>
			</g>
			<path class="st14" d="M101,159.3c0,0.9-2.5,12.7-3.4,18.6c-1.3,8.7-3,28.4-3.2,29.7c-1,5.4-2.8,34.5-2.8,34.5s-12.3-0.8-13.7-0.8
				c-1.4,0,8.4-60.2,7.9-62.1c-0.5-1.9,1.4-34.4,1.4-34.4L101,159.3z"/>
			<path class="st12" d="M77.2,151.4c-0.7,3.8-3.1,5.3-3.6,11c-0.1,1.8,0.8,7,0.6,9.1c-0.6,8.2-1.2,21.1-2.3,33.8
				c-0.5,6.2-5.3,36.5-4.3,39.7c0.5,1.4,14.4,1.9,15.1,0.9c0.6-0.9,5.3-33.6,6.6-39c3-12.3,7.7-37.4,9.5-46.8
				c0.6-3.2,0.9-7.1,0.9-7.1L77.2,151.4z"/>
			<path class="st12" d="M100.4,167.7c1.9,0,3-10,6.4-19.2c2.1-5.8,8.7-18.1,8.7-18.1s0.8-13.8-1.4-19.4c-2.2-5.6-3.2-8.2-3.2-8.2
				c-4.1,1.6-8.4,4.6-12.4,8c-7.5,6.3-14.4,24.1-15.7,26.3c-1.3,2.2-7.7,10.7-11.5,20.5C71.2,157.5,85.7,167.7,100.4,167.7z"/>
			<polygon class="st14" points="86.7,148.9 98.8,149.4 98.6,154.3 86.4,154.8 			"/>
			<polygon class="st23" points="118.7,110.9 120.6,114.5 118.1,117.6 116.7,113.5 			"/>
			<path class="st18" d="M110.7,102.2l2.1-1c0,0,5.8,14,5.8,14.3c0.1,0.3-3.2,4.2-3.2,4.2L110.7,102.2z"/>
			<path class="st22" d="M113.7,100.9l-3.6,1.7c0,0,2.5,7.9,3.2,11.4c0.7,0.7,1.7,5.9,1.7,5.9l-2.3,1.8l0.5,11.6c0,0,4.5-8,4.6-11
				c0.1-3.6-0.7-5.5-2-9.6C114.1,107.8,113.7,100.9,113.7,100.9z"/>
			<g>
				<path class="st16" d="M145,141.7c1.7,0.1,5.8-0.5,7-0.6s3.4,0.7,4,0.9c1.6,0.4,3.4,1.8,3.1,2.2c-0.2,0.2-1.9-0.6-2.6-0.8
					c-0.7-0.2-2.7-0.6-2.7-0.6s2.6,0.5,3.6,1.2c1,0.6,2.4,1.7,1.9,1.9s-1.2-0.3-1.6-0.6c-0.5-0.3-4-1.3-4-1.3s4.1,1.5,4.6,1.9
					s0.2,0.9-0.3,0.7s-3.3-1.1-3.8-1.1c-0.5-0.1,3.1,0.7,2.9,1.3c-0.1,0.3-0.9,0.4-2.3,0c-1.4-0.5-3-0.1-4.3,0.2s-5.2-0.1-6.1-0.5
					c-0.9-0.4-3.3-1.5-3.3-1.5l0.8-3.8C141.9,141,144.1,141.6,145,141.7z"/>
				<polygon class="st18" points="144.2,140.3 146.7,140.9 145,148.9 141,148.1 				"/>
				<path class="st14" d="M100.4,114.2c-0.8,4.1,10.1,25.7,20.8,29.4c4.5,1.5,10,4.8,19.3,6.5c1.6,0.3,4.4-9.7,4.4-9.7
					s-15.8-6.9-18.8-9c-3-2.2-12.7-18.4-15-20.5C103.6,104.1,100.4,114.2,100.4,114.2z"/>
			</g>
			
				<linearGradient id="SVGID_5_" gradientUnits="userSpaceOnUse" x1="145.073" y1="145.9729" x2="160.9475" y2="161.8475" gradientTransform="matrix(1 0 0 -1 0 300)">
				<stop  offset="0.3022" style="stop-color:#FFFFFF"/>
				<stop  offset="0.5003" style="stop-color:#E6E2DF"/>
				<stop  offset="0.8132" style="stop-color:#BAADA6"/>
			</linearGradient>
			<polygon class="st24" points="163.9,143.8 142,163.7 138.9,151.6 149.8,142.6 155.8,141.5 			"/>
			<g>
				<g>
					<path class="st13" d="M215.1,233.7c-0.8,3.2,0.2,6.5-5.1,8.4c-2.5,0.9-6.7,2.1-6.6,3.4c0.3,4.1,8.3,2.8,8.3,2.8
						s2.6-1.6,5.8-2.5c1.5-0.4,4.1-0.1,4.9-0.1c2.5,0,1.5-6.6,0.6-9.8C222.1,232.7,215.1,233.7,215.1,233.7z"/>
					<path d="M223.5,244.6l-0.7,2c0,0-3.9,0.6-4.4,0.4c-0.4-0.2-1.5-1.8-1.5-1.8L223.5,244.6z"/>
				</g>
				<g>
					<path class="st13" d="M219.1,241.5c-0.9,3.5,0.1,7-5.7,9c-2.7,0.9-7.3,2.1-7.2,3.6c0.3,4.4,8.9,3.2,8.9,3.2s2.8-1.7,6.3-2.7
						c1.6-0.4,4.5,0,5.3,0c2.7,0,1.7-7.1,0.8-10.6C226.8,240.4,219.1,241.5,219.1,241.5z"/>
					<path class="st13" d="M228.1,253.4l-0.7,2.1c0,0-4.2,0.6-4.8,0.4c-0.5-0.2-1.6-1.9-1.6-1.9L228.1,253.4z"/>
				</g>
				<path class="st14" d="M202.7,157.5c-0.4,4.1,8.8,75.4,6.3,84.4c6.8,6,10-1,10-1s-8.1-72.1-9.4-76.4
					C208.3,160.2,202.7,157.5,202.7,157.5z"/>
				<g>
					<path class="st12" d="M214.3,246.5c0,0-3-36.3-4.7-47.6c-1.7-11.4-7.8-40-8.7-46.4c-0.6-4.6,21.7-4.9,21.7-4.9
						c3.4,5.1,5.9,10.9,5.3,18.3c-0.6,7.4,2.7,69.9,2.7,82.4c-8,2.3-13.3,3.4-16.5,1.6L214.3,246.5z"/>
					<g>
						<path class="st14" d="M227.9,166.2c0.6-7.4-1.9-13.2-5.3-18.3c0,0-1.1,0-2.9,0.1l-2.7,2.7c2.3,4.1,6.2,12.8,5.8,19.4
							c-0.4,5.9,0.6,65,1.9,80.1c1.9-0.4,3.9-0.9,5.9-1.5C230.6,236.1,227.3,173.6,227.9,166.2z"/>
					</g>
				</g>
				<g>
					<g>
						<path class="st16" d="M190.8,111c-0.5-3-5.8-4.2-8.1-6.2c-0.5-0.5,2.1-1.9,2.5-3.5l3.9-6.5l14.3,9.8l-7.8,10.4l-5.4,5.8
							C190.2,120.8,191.1,112.6,190.8,111z"/>
					</g>
				</g>
				<path class="st25" d="M193.4,113.6c-1.9-0.6-2.3-1.1-3.2-3c-1,0.9,0.2-0.2-1,1.4c-1.2,3.5,4.2,24.2,4.2,24.2s3.6,19.4,9.4,19.3
					c6.6-0.1,11.1-0.9,10.3-3.2l-17.6-36.1L193.4,113.6z"/>
				<g>
					<g>
						<path class="st18" d="M199.7,101.8c8.4,2.4,10.3,6,10.9,7.7c10.7,25.8,17.5,34.1,12.2,39.9c-1.9,2.1-11.8,6.8-18.3,5.9
							c-11.5-17.2-12.6-41-13.2-43.7C193.9,109.7,199.7,101.8,199.7,101.8z"/>
					</g>
				</g>
				
					<linearGradient id="SVGID_6_" gradientUnits="userSpaceOnUse" x1="366.1429" y1="236.3088" x2="369.2179" y2="246.8285" gradientTransform="matrix(-0.8791 0.4766 -0.4766 -0.8791 628.4257 139.4764)">
					<stop  offset="0" style="stop-color:#FFFFFF"/>
					<stop  offset="0.1832" style="stop-color:#E6E2DF"/>
					<stop  offset="0.4725" style="stop-color:#BAADA6"/>
				</linearGradient>
				<polygon class="st26" points="185.3,107.1 191.5,110.7 198.7,101.5 191.4,96.3 				"/>
				<g>
					<path class="st15" d="M176.4,104.6c0-0.3-0.6-3.1-0.6-4.2c-0.6-1-3.5-4.9-3.7-6c-1-5.8-0.9-6.6,5.9-10.2
						c6.2-3.3,13.3,2.3,15.7,9.1c2.4,6.7-3.4,13.9-6.8,15.2c-2.3,0.8-5.2-0.3-8.1-3.8C177.8,104.9,176.7,105.6,176.4,104.6z"/>
					<path class="st27" d="M170.4,89.3c-0.4,3.2-0.4,5.5,1.1,5.2s3.7-2.3,4.9-1.8s3.9,0,4.8,0.3c0.9,0.3-1.6-3.3-1.6-3.3l2.7,2.5
						l3.7,1.5l8.9,5.9c0,0,1-2.2,0.5-6.5c-0.6-6.2-2.3-6.7-3-8.2c-0.8-1.7-3.4-4.1-4.6-4c-1.3,0-2,0-2.6,0.5
						c-0.5,0.5-0.9-0.8-2.8-0.7c-1.8,0.1-1.9-0.2-4.3,0.5c-2.5,0.7-3.9,2-5.5,3.5C171.5,85.7,170.4,89.3,170.4,89.3z"/>
					<path class="st15" d="M185,93c0.3-1.3,0.8-3,2.4-1.9c1.7,1.1,2.3,5,1.8,5.5C188.7,97.2,185,93,185,93z"/>
				</g>
				<polygon class="st25" points="189.7,109.2 188.9,111.2 189.8,115.8 191.5,110.7 				"/>
				<polygon class="st25" points="197.3,100.2 200.5,102 195.3,115 191.5,110.7 				"/>
				
					<linearGradient id="SVGID_7_" gradientUnits="userSpaceOnUse" x1="204.1881" y1="162.4331" x2="240.5245" y2="217.6881" gradientTransform="matrix(0.9884 -0.1521 -0.1521 -0.9884 13.937 346.0142)">
					<stop  offset="0" style="stop-color:#FFFFFF"/>
					<stop  offset="0.1175" style="stop-color:#F8F7F6"/>
					<stop  offset="0.3062" style="stop-color:#E6E1DF"/>
					<stop  offset="0.5414" style="stop-color:#C8BEB9"/>
					<stop  offset="0.6429" style="stop-color:#BAADA6"/>
				</linearGradient>
				<path class="st28" d="M208.3,113.7l-5.3,42.4c0,0-5.3-2.4-7.2-9.5c-1.1-3.9-4.6-18.4-4.8-19.6c-0.2-1.1,10.8-20.2,10.8-20.2
					L208.3,113.7z"/>
				<polygon class="st29" points="190.9,111.9 191.5,110.7 194.1,113.6 193.1,115.7 192,116 				"/>
				<path class="st29" d="M193.1,115.1l5.1,26.4l-2.8,5.3c0,0-3.2-29.8-3.6-31.6L193.1,115.1z"/>
				<polygon class="st30" points="191.5,110.7 190.3,112.9 191.5,115.6 192.2,115.7 				"/>
				<polygon class="st30" points="191.4,115.4 193.2,144.2 195.4,146.7 192.1,115.1 				"/>
				<g>
					<path class="st18" d="M203.4,106c-3.8,0-12.9,17.4-16.2,19.6c-8.8,6-16.9,9.3-19,10.7c-2.1,1.4-2.4,7.5,1.4,9.2
						c6.8,3.1,22.5-7.3,28.1-11.6c7.1-5.4,13.1-15.8,10.3-23.9C206.5,105.5,203.4,106,203.4,106z"/>
					<path class="st15" d="M163.1,139.1c-1.7,0.1-5.8-0.5-7-0.5c-1.2-0.1-3.3,0.8-4,1c-1.6,0.5-3.4,1.9-3.1,2.3
						c0.2,0.2,1.9-0.6,2.6-0.8c0.7-0.2,2.6-0.7,2.6-0.7s-2.6,0.6-3.6,1.2c-1,0.6-2.4,1.8-1.9,1.9c0.5,0.2,1.2-0.3,1.6-0.6
						c0.5-0.3,4-1.3,4-1.3s-4.1,1.6-4.5,2c-0.5,0.4-0.1,0.9,0.3,0.7c0.5-0.2,3.3-1.1,3.8-1.2c0.5-0.1-3.1,0.8-2.9,1.3
						c0.1,0.3,0.9,0.4,2.3-0.1c1.4-0.5,3-0.1,4.3,0.1c1.3,0.2,5.2-0.2,6.1-0.6c0.9-0.4,3.2-1.6,3.2-1.6l-0.9-3.8
						C166.2,138.4,164.1,139,163.1,139.1z"/>
					<polygon class="st18" points="172.6,136 163.4,138.9 164.4,145 176.4,142.7 					"/>
				</g>
			</g>
		</g>
	</g>
	<g>
		<g>
			<g>
				<g>
					<path class="st18" d="M156.2,28.4c0-2.6-2.4-4.7-5.5-4.7c-3,0-5.4,2.1-5.4,4.7c0,0.9,0.3,1.7,0.7,2.3c0.7,1.3,2,4.2,2.4,6.2
						h1.8c0.7,0,1.3,0,1.3,0h1.6c0.4-2.4,2.5-6.2,2.7-6.8l0,0C156.1,29.6,156.2,29,156.2,28.4z M154.5,29.8c-0.2,0.4-1.7,3.2-2,5
						h-1.2c0,0-0.4,0-0.9,0h-1.3c-0.3-1.5-1.2-3.6-1.7-4.6c-0.3-0.5-0.5-1.1-0.5-1.7c0-1.9,1.8-3.5,4-3.5s4,1.5,4,3.5
						C154.8,29,154.7,29.4,154.5,29.8L154.5,29.8z"/>
				</g>
			</g>
			<g>
				<path class="st18" d="M151.6,22.1c0,0.3-0.3,0.6-0.6,0.6h-0.3c-0.1,0-0.1,0-0.2,0c-0.2-0.1-0.4-0.3-0.4-0.6v-2.8
					c0-0.3,0.3-0.6,0.6-0.6h0.3c0.3,0,0.6,0.3,0.6,0.6L151.6,22.1L151.6,22.1z"/>
				<path class="st18" d="M157.1,24.8c-0.3,0.2-0.7,0.2-0.9-0.1l-0.2-0.2c-0.2-0.3-0.2-0.7,0.1-0.9l2.1-1.8c0.3-0.2,0.7-0.2,0.9,0.1
					l0.2,0.2c0.2,0.3,0.2,0.7-0.1,0.9L157.1,24.8z"/>
				<path class="st18" d="M158.2,30.7c-0.3,0-0.6-0.3-0.6-0.6v-0.3c0-0.3,0.3-0.6,0.6-0.6h2.8c0.3,0,0.6,0.3,0.6,0.6v0.3
					c0,0.3-0.3,0.6-0.6,0.6H158.2z"/>
				<g>
					<path class="st18" d="M144.5,24.8c0.3,0.2,0.7,0.2,0.9-0.1l0.2-0.2c0.2-0.3,0.2-0.7-0.1-0.9l-2.1-1.8c-0.3-0.2-0.7-0.2-0.9,0.1
						l-0.2,0.2c-0.2,0.3-0.2,0.7,0.1,0.9L144.5,24.8z"/>
					<path class="st18" d="M143.5,30.7c0.3,0,0.6-0.3,0.6-0.6v-0.3c0-0.3-0.3-0.6-0.6-0.6h-2.8c-0.3,0-0.6,0.3-0.6,0.6v0.3
						c0,0.3,0.3,0.6,0.6,0.6H143.5z"/>
				</g>
			</g>
			<path class="st18" d="M148.5,37.4c0,0,0,2.1,0,2.3c0,0.2,1.4,1.5,1.6,1.7c0,0,0,0.1,0.1,0.1s0.3,0.1,0.6,0.1s0.5,0,0.6-0.1
				c0,0,0,0,0.1-0.1c0.3-0.2,1.6-1.5,1.6-1.7c0-0.2,0-2.3,0-2.3H148.5z M152.5,39.6C152.5,39.7,152.5,39.7,152.5,39.6l-3.3,0.1
				c-0.1,0-0.1,0-0.1-0.1v-0.1c0-0.1,0-0.1,0.1-0.1h3.2C152.5,39.4,152.5,39.5,152.5,39.6L152.5,39.6z M152.5,38.9
				C152.5,39,152.5,39,152.5,38.9l-3.3,0.1c-0.1,0-0.1,0-0.1-0.1v-0.1c0-0.1,0-0.1,0.1-0.1h3.2C152.5,38.7,152.5,38.8,152.5,38.9
				L152.5,38.9z M152.5,38.2C152.5,38.3,152.5,38.3,152.5,38.2l-3.3,0.1c-0.1,0-0.1,0-0.1-0.1v-0.1c0-0.1,0-0.1,0.1-0.1h3.2
				C152.5,38,152.5,38.1,152.5,38.2L152.5,38.2z"/>
		</g>
	</g>
	<g>
		<path class="st18" d="M199.5,49.1l0.4-0.6c2.3,1.5,4.5,3.2,6.7,4.9l0,0l-0.4,0.5C204,52.3,201.8,50.6,199.5,49.1L199.5,49.1z"/>
		<path class="st18" d="M159.4,34.5l0.1-0.7c8.5,0.9,16.6,3.1,24.3,6.2l0,0l-0.3,0.6C175.9,37.5,167.8,35.4,159.4,34.5L159.4,34.5z
			 M159.4,34.5L159.4,34.5L159.4,34.5L159.4,34.5z"/>
		<path class="st18" d="M115.7,39.6c8.3-3.3,17.2-5.4,26.5-6.1l0,0l0.1,0.7c-9.2,0.7-18,2.8-26.3,6.1l0,0l0,0L115.7,39.6L115.7,39.6
			z"/>
	</g>
</g>
</svg>
