<?xml version="1.0" encoding="utf-8"?>
<!-- Generator: Adobe Illustrator 21.0.0, SVG Export Plug-In . SVG Version: 6.00 Build 0)  -->
<svg version="1.1" id="Layer_1" xmlns="http://www.w3.org/2000/svg" xmlns:xlink="http://www.w3.org/1999/xlink" x="0px" y="0px"
	 viewBox="0 0 86 89.3" style="enable-background:new 0 0 86 89.3;" xml:space="preserve">
<style type="text/css">
	.st0{fill:#FFFFFF;}
	.st1{opacity:0.75;fill:#FFFFFF;}
	.st2{display:none;fill:#D2D9E3;}
</style>
<g>
	<path class="st0" d="M41.9,2.7c-17,0-31.8,10-38.7,24.5C9.5,15.9,21.6,8.4,35.5,8.4c20.5,0,37.2,16.7,37.2,37.2S56,82.7,35.5,82.7
		c-13.8,0-26-7.7-32.4-18.8C10,78.3,24.7,88.4,41.8,88.4c23.6,0,42.7-19.2,42.7-42.7C84.8,21.8,65.6,2.7,41.9,2.7L41.9,2.7z"/>
	<path class="st1" d="M35.9,10.9c13.8,0,25.7,8,31.2,19.7c-5.2-9-14.9-15.1-26-15.1C24.6,15.5,11,28.9,11,45.6
		c0,16.4,13.4,30,30.1,30c11.1,0,20.9-6.1,26-15.1c-5.6,11.7-17.4,19.7-31.2,19.7c-19,0-34.5-15.5-34.5-34.5
		C1.2,26.4,16.8,10.9,35.9,10.9L35.9,10.9z"/>
	<path class="st2" d="M47.4,18c4.4,1,8.4,3.1,11.7,5.7c-1.1,1.1-2.5,2.1-4,2.9c-0.4-0.6-0.6-1.1-1-1.7C52.2,21.8,49.9,19.5,47.4,18
		L47.4,18z M60.6,25.3c5,4.8,8.2,11.5,8.4,19h-9.8c-0.2-5.7-1.3-11.1-3.3-15.5C57.7,27.8,59.3,26.6,60.6,25.3L60.6,25.3z M69.2,46.3
		c-0.2,7.5-3.4,14.4-8.4,19.2c-1.3-1.3-2.9-2.5-4.6-3.4c1.9-4.4,3.1-10,3.3-15.9h9.8L69.2,46.3L69.2,46.3z M59.1,67
		c-3.3,2.9-7.3,4.8-11.7,5.7c2.5-1.5,4.8-3.8,6.7-6.9c0.4-0.6,0.8-1.1,1-1.7C56.6,64.9,57.7,65.9,59.1,67L59.1,67z M41.9,72.4V60.1
		c4,0.2,7.9,1.1,11.3,2.9c-0.4,0.6-0.6,1.1-1,1.7C49.5,69.1,45.9,72,41.9,72.4L41.9,72.4z M41.9,58V46.3h15.3
		C57,51.9,56,56.9,54.1,61.1C50.5,59.4,46.3,58.2,41.9,58L41.9,58z M41.9,44.2V32.9c4.4-0.2,8.6-1.1,12.3-3.1
		c1.7,4.2,2.9,9.2,3.1,14.6H41.9V44.2z M41.9,30.6V18.4c4,0.4,7.7,3.3,10.3,7.7c0.4,0.6,0.6,1.1,1,1.7
		C49.9,29.5,46.1,30.6,41.9,30.6L41.9,30.6z M34.6,72.8c-4.4-1-8.4-3.1-11.7-5.7c1.1-1.1,2.5-2.1,4-2.9c0.4,0.6,0.6,1.1,1,1.7
		C29.8,68.9,32.1,71.4,34.6,72.8L34.6,72.8z M21.4,65.7c-5-5-8.2-11.7-8.4-19.2h9.8c0.2,5.9,1.3,11.3,3.3,15.9
		C24.2,63.2,22.7,64.3,21.4,65.7L21.4,65.7z M12.9,44.2c0.4-7.5,3.4-14.2,8.4-19c1.3,1.3,2.9,2.5,4.6,3.4c-1.9,4.4-3.1,9.8-3.3,15.5
		h-9.7V44.2z M22.9,23.7c3.3-2.9,7.3-4.8,11.7-5.7c-2.5,1.5-4.8,3.8-6.7,6.9c-0.4,0.6-0.8,1.1-1,1.7C25.6,25.8,24.2,24.9,22.9,23.7
		L22.9,23.7z M39.7,18.4v12.3c-4-0.2-7.7-1.1-11.1-2.9c0.4-0.6,0.6-1.1,1-1.7C32.3,21.8,35.9,18.9,39.7,18.4L39.7,18.4z M39.7,32.7
		V44H24.8c0.2-5.4,1.1-10.3,3.1-14.6C31.5,31.6,35.5,32.7,39.7,32.7L39.7,32.7z M39.7,46.3V58c-4.2,0.2-8.4,1.3-11.9,3.1
		c-1.7-4.2-2.9-9.2-3.1-14.7L39.7,46.3L39.7,46.3z M39.7,60.1v12.3c-3.8-0.6-7.5-3.3-10.2-7.7c-0.4-0.6-0.6-1.1-1-1.7
		C32.1,61.5,35.9,60.3,39.7,60.1L39.7,60.1z"/>
</g>
<g>
	<path class="st0" d="M41.1,31.8c1.5,0,2.9,1.3,2.9,2.9s-1.3,2.9-2.9,2.9s-2.9-1.3-2.9-2.9C38.2,32.9,39.4,31.8,41.1,31.8L41.1,31.8
		z"/>
	<path class="st0" d="M41.1,26.6c1.1,0,1.9,1,1.9,1.9c0,1.1-1,1.9-1.9,1.9c-1.1,0-1.9-1-1.9-1.9C39,27.4,39.9,26.6,41.1,26.6
		L41.1,26.6z"/>
	<path class="st0" d="M41.1,22.4c0.8,0,1.3,0.6,1.3,1.3S41.8,25,41.1,25c-0.8,0-1.3-0.6-1.3-1.3C39.6,23,40.3,22.4,41.1,22.4
		L41.1,22.4z"/>
	<path class="st0" d="M41.1,18.8c0.6,0,1,0.4,1,1s-0.4,1-1,1s-1-0.4-1-1C40.1,19.1,40.5,18.8,41.1,18.8L41.1,18.8z"/>
	<path class="st0" d="M33,34.3c1.3-1,3.1-0.6,4,0.6c1,1.3,0.6,3.1-0.6,4c-1.3,1-3.1,0.6-4-0.6C31.5,36.9,31.7,35.2,33,34.3L33,34.3z
		"/>
	<path class="st0" d="M30,30.1c1-0.6,2.1-0.4,2.7,0.4c0.6,1,0.4,2.1-0.4,2.7c-1,0.6-2.1,0.4-2.7-0.4C28.8,32,29,30.8,30,30.1
		L30,30.1z"/>
	<path class="st0" d="M27.5,26.8c0.6-0.4,1.5-0.4,1.9,0.4c0.4,0.6,0.4,1.5-0.4,1.9c-0.6,0.4-1.5,0.4-1.9-0.4
		C26.7,28.1,26.9,27.2,27.5,26.8L27.5,26.8z"/>
	<path class="st0" d="M25.4,23.7c0.4-0.4,1-0.2,1.3,0.2c0.4,0.4,0.2,1-0.2,1.3c-0.4,0.4-1,0.2-1.3-0.2
		C24.8,24.7,24.8,24.1,25.4,23.7L25.4,23.7z"/>
	<path class="st0" d="M28.1,41.2c0.6-1.5,2.1-2.3,3.6-1.7s2.3,2.1,1.7,3.6s-2.1,2.3-3.6,1.7C28.3,44.2,27.5,42.7,28.1,41.2
		L28.1,41.2z"/>
	<path class="st0" d="M23.1,39.6c0.4-1,1.5-1.5,2.5-1.3c1,0.4,1.5,1.5,1.3,2.5c-0.4,1-1.5,1.5-2.5,1.3
		C23.3,41.7,22.7,40.6,23.1,39.6L23.1,39.6z"/>
	<path class="st0" d="M19.1,38.3c0.2-0.8,1-1.1,1.7-1c0.8,0.2,1.1,1,1,1.7c-0.2,0.8-1,1.1-1.7,1C19.3,39.8,18.9,39.1,19.1,38.3
		L19.1,38.3z"/>
	<path class="st0" d="M15.6,37.1c0.2-0.6,0.8-0.8,1.1-0.6c0.6,0.2,0.8,0.8,0.6,1.1c-0.2,0.6-0.8,0.8-1.1,0.6
		C15.6,38.3,15.4,37.7,15.6,37.1L15.6,37.1z"/>
	<path class="st0" d="M28.1,49.6c-0.6-1.5,0.4-3.1,1.7-3.6c1.5-0.6,3.1,0.4,3.6,1.7c0.6,1.5-0.4,3.1-1.7,3.6
		C30,51.9,28.4,51.1,28.1,49.6L28.1,49.6z"/>
	<path class="st0" d="M23.1,51.3c-0.4-1,0.2-2.1,1.3-2.5c1-0.4,2.1,0.2,2.5,1.3c0.4,1-0.2,2.1-1.3,2.5
		C24.4,52.8,23.3,52.3,23.1,51.3L23.1,51.3z"/>
	<path class="st0" d="M19.1,52.5c-0.2-0.8,0.2-1.5,1-1.7s1.5,0.2,1.7,1s-0.2,1.5-1,1.7C20,53.6,19.3,53.2,19.1,52.5L19.1,52.5z"/>
	<path class="st0" d="M15.6,53.6c-0.2-0.4,0-1,0.6-1.1c0.6-0.2,1,0.2,1.1,0.6c0.2,0.6-0.2,1-0.6,1.1C16.4,54.4,15.8,54.2,15.6,53.6
		L15.6,53.6z"/>
	<path class="st0" d="M33,56.5c-1.3-1-1.5-2.7-0.6-4c1-1.3,2.7-1.5,4-0.6c1.3,1,1.5,2.7,0.6,4C35.9,57.1,34.2,57.4,33,56.5L33,56.5z
		"/>
	<path class="st0" d="M30,60.7c-1-0.6-1.1-1.9-0.4-2.7c0.6-1,1.9-1.1,2.7-0.4c1,0.6,1.1,1.9,0.4,2.7C32.1,61.1,30.7,61.3,30,60.7
		L30,60.7z"/>
	<path class="st0" d="M27.5,64.1c-0.6-0.4-0.8-1.3-0.4-1.9c0.4-0.6,1.3-0.8,1.9-0.4c0.6,0.4,0.8,1.3,0.4,1.9
		C28.8,64.3,28.1,64.5,27.5,64.1L27.5,64.1z"/>
	<path class="st0" d="M25.4,67c-0.4-0.4-0.6-1-0.2-1.3c0.4-0.4,1-0.6,1.3-0.2c0.4,0.4,0.6,1,0.2,1.3C26.3,67.2,25.8,67.4,25.4,67
		L25.4,67z"/>
	<path class="st0" d="M41.1,59.2c-1.5,0-2.9-1.3-2.9-2.9c0-1.5,1.3-2.9,2.9-2.9s2.9,1.3,2.9,2.9C43.8,57.8,42.6,59.2,41.1,59.2
		L41.1,59.2z"/>
	<path class="st0" d="M41.1,64.3c-1.1,0-1.9-1-1.9-1.9c0-1.1,1-1.9,1.9-1.9c1.1,0,1.9,1,1.9,1.9C43,63.4,42,64.3,41.1,64.3
		L41.1,64.3z"/>
	<path class="st0" d="M41.1,68.5c-0.8,0-1.3-0.6-1.3-1.3c0-0.8,0.6-1.3,1.3-1.3c0.8,0,1.3,0.6,1.3,1.3S41.9,68.5,41.1,68.5
		L41.1,68.5z"/>
	<path class="st0" d="M41.1,72.2c-0.6,0-1-0.4-1-1s0.4-1,1-1s1,0.4,1,1C42,71.8,41.5,72.2,41.1,72.2L41.1,72.2z"/>
	<path class="st0" d="M49.1,56.5c-1.3,1-3.1,0.6-4-0.6c-1-1.3-0.6-3.1,0.6-4c1.3-1,3.1-0.6,4,0.6C50.7,53.8,50.3,55.5,49.1,56.5
		L49.1,56.5z"/>
	<path class="st0" d="M52.2,60.7c-1,0.6-2.1,0.4-2.7-0.4c-0.6-1-0.4-2.1,0.4-2.7c1-0.6,2.1-0.4,2.7,0.4C53.2,58.8,53,60.1,52.2,60.7
		L52.2,60.7z"/>
	<path class="st0" d="M54.5,64.1c-0.6,0.4-1.5,0.4-1.9-0.4c-0.4-0.6-0.4-1.5,0.4-1.9c0.6-0.4,1.5-0.4,1.9,0.4
		C55.3,62.8,55.3,63.6,54.5,64.1L54.5,64.1z"/>
	<path class="st0" d="M56.8,67c-0.4,0.4-1,0.2-1.3-0.2c-0.4-0.4-0.2-1,0.2-1.3c0.4-0.4,1-0.2,1.3,0.2C57.2,66.1,57.2,66.8,56.8,67
		L56.8,67z"/>
	<path class="st0" d="M54.1,49.6c-0.6,1.5-2.1,2.3-3.6,1.7s-2.3-2.1-1.7-3.6s2.1-2.3,3.6-1.7C53.7,46.5,54.5,48.2,54.1,49.6
		L54.1,49.6z"/>
	<path class="st0" d="M58.9,51.3c-0.4,1-1.5,1.5-2.5,1.3c-1-0.4-1.5-1.5-1.3-2.5c0.4-1,1.5-1.5,2.5-1.3
		C58.7,49.2,59.3,50.2,58.9,51.3L58.9,51.3z"/>
	<path class="st0" d="M62.9,52.7c-0.2,0.8-1,1.1-1.7,1c-0.8-0.2-1.1-1-1-1.7c0.2-0.8,1-1.1,1.7-1C62.7,51.1,63.1,51.9,62.9,52.7
		L62.9,52.7z"/>
	<path class="st0" d="M66.4,53.6c-0.2,0.6-0.8,0.8-1.1,0.6c-0.6-0.2-0.8-0.8-0.6-1.1c0.2-0.6,0.8-0.8,1.1-0.6
		C66.4,52.7,66.6,53.2,66.4,53.6L66.4,53.6z"/>
	<path class="st0" d="M54.1,41.2c0.6,1.5-0.4,3.1-1.7,3.6c-1.7,0.4-3.3-0.4-3.6-1.9c-0.6-1.5,0.4-3.1,1.7-3.6
		C52,38.9,53.5,39.6,54.1,41.2L54.1,41.2z"/>
	<path class="st0" d="M58.9,39.6c0.4,1-0.2,2.1-1.3,2.5c-1,0.4-2.1-0.2-2.5-1.3c-0.4-1,0.2-2.1,1.3-2.5
		C57.6,37.9,58.7,38.5,58.9,39.6L58.9,39.6z"/>
	<path class="st0" d="M62.9,38.3c0.2,0.8-0.2,1.5-1,1.7s-1.5-0.2-1.7-1s0.2-1.5,1-1.7S62.7,37.5,62.9,38.3L62.9,38.3z"/>
	<path class="st0" d="M66.4,37.1c0.2,0.6-0.2,1-0.6,1.1c-0.6,0.2-1-0.2-1.1-0.6c-0.2-0.6,0.2-1,0.6-1.1
		C65.8,36.4,66.2,36.6,66.4,37.1L66.4,37.1z"/>
	<path class="st0" d="M49.1,34.3c1.3,1,1.5,2.7,0.6,4c-1,1.3-2.7,1.5-4,0.6s-1.5-2.7-0.6-4C46.1,33.7,47.8,33.5,49.1,34.3L49.1,34.3
		z"/>
	<path class="st0" d="M52.2,30.1c1,0.6,1.1,1.9,0.4,2.7c-0.6,1-1.9,1.1-2.7,0.4c-1-0.6-1.1-1.9-0.4-2.7
		C50.1,29.7,51.2,29.5,52.2,30.1L52.2,30.1z"/>
	<path class="st0" d="M54.5,26.8c0.6,0.4,0.8,1.3,0.4,1.9c-0.4,0.6-1.3,0.8-1.9,0.4c-0.6-0.4-0.8-1.3-0.4-1.9
		C53.2,26.4,53.9,26.2,54.5,26.8L54.5,26.8z"/>
	<path class="st0" d="M56.8,23.7c0.4,0.4,0.6,1,0.2,1.3c-0.4,0.4-1,0.6-1.3,0.2s-0.6-1-0.2-1.3C55.6,23.5,56.2,23.5,56.8,23.7
		L56.8,23.7z"/>
	<path class="st0" d="M35.1,27.4c1-0.4,2.1,0.2,2.5,1.3c0.4,1-0.2,2.1-1.3,2.5c-1,0.4-2.1-0.2-2.5-1.3
		C33.6,28.9,34.2,27.8,35.1,27.4L35.1,27.4z"/>
	<path class="st0" d="M33.8,23.5c0.8-0.2,1.5,0.2,1.7,1s-0.2,1.5-1,1.7s-1.5-0.2-1.7-1C32.7,24.5,33.2,23.7,33.8,23.5L33.8,23.5z"/>
	<path class="st0" d="M32.7,19.9c0.6-0.2,1,0.2,1.1,0.6c0.2,0.6-0.2,1-0.6,1.1c-0.6,0.2-1-0.2-1.1-0.6
		C31.9,20.7,32.3,20.1,32.7,19.9L32.7,19.9z"/>
	<path class="st0" d="M30,30.1c1-0.6,2.1-0.4,2.7,0.4c0.6,1,0.4,2.1-0.4,2.7c-1,0.6-2.1,0.4-2.7-0.4C28.8,32,29,30.8,30,30.1
		L30,30.1z"/>
	<path class="st0" d="M27.5,26.8c0.6-0.4,1.5-0.4,1.9,0.4c0.4,0.6,0.4,1.5-0.4,1.9c-0.6,0.4-1.5,0.4-1.9-0.4
		C26.7,28.1,26.9,27.2,27.5,26.8L27.5,26.8z"/>
	<path class="st0" d="M25.4,23.7c0.4-0.4,1-0.2,1.3,0.2c0.4,0.4,0.2,1-0.2,1.3c-0.4,0.4-1,0.2-1.3-0.2
		C24.8,24.7,24.8,24.1,25.4,23.7L25.4,23.7z"/>
	<path class="st0" d="M25.8,34.3c0.6-1,1.9-1.1,2.7-0.4c1,0.6,1.1,1.9,0.4,2.7c-0.6,1-1.9,1.1-2.7,0.4C25.2,36.4,25,35.2,25.8,34.3
		L25.8,34.3z"/>
	<path class="st0" d="M22.3,31.8c0.4-0.6,1.3-0.8,1.9-0.4s0.8,1.3,0.4,1.9s-1.3,0.8-1.9,0.4C21.9,33.3,21.9,32.5,22.3,31.8
		L22.3,31.8z"/>
	<path class="st0" d="M19.4,29.7c0.4-0.4,1-0.6,1.3-0.2c0.4,0.4,0.6,1,0.2,1.3s-1,0.6-1.3,0.2C19.3,30.8,19.1,30.1,19.4,29.7
		L19.4,29.7z"/>
	<path class="st0" d="M23.1,39.6c0.4-1,1.5-1.5,2.5-1.3c1,0.4,1.5,1.5,1.3,2.5c-0.4,1-1.5,1.5-2.5,1.3
		C23.3,41.7,22.7,40.6,23.1,39.6L23.1,39.6z"/>
	<path class="st0" d="M19.1,38.3c0.2-0.8,1-1.1,1.7-1c0.8,0.2,1.1,1,1,1.7c-0.2,0.8-1,1.1-1.7,1C19.3,39.8,18.9,39.1,19.1,38.3
		L19.1,38.3z"/>
	<path class="st0" d="M15.6,37.1c0.2-0.6,0.8-0.8,1.1-0.6c0.6,0.2,0.8,0.8,0.6,1.1c-0.2,0.6-0.8,0.8-1.1,0.6
		C15.6,38.3,15.4,37.7,15.6,37.1L15.6,37.1z"/>
	<path class="st0" d="M22.1,45.4c0-1.1,1-1.9,1.9-1.9c1.1,0,1.9,1,1.9,1.9c0,1.1-1,1.9-1.9,1.9C22.9,47.5,22.1,46.5,22.1,45.4
		L22.1,45.4z"/>
	<path class="st0" d="M17.9,45.4c0-0.8,0.6-1.3,1.3-1.3s1.3,0.6,1.3,1.3c0,0.8-0.6,1.3-1.3,1.3S17.9,46.1,17.9,45.4L17.9,45.4z"/>
	<path class="st0" d="M14.3,45.4c0-0.6,0.4-1,1-1s1,0.4,1,1s-0.4,1-1,1C14.7,46.3,14.3,45.9,14.3,45.4L14.3,45.4z"/>
	<path class="st0" d="M23.1,51.3c-0.4-1,0.2-2.1,1.3-2.5c1-0.4,2.1,0.2,2.5,1.3c0.4,1-0.2,2.1-1.3,2.5
		C24.4,52.8,23.3,52.3,23.1,51.3L23.1,51.3z"/>
	<path class="st0" d="M19.1,52.7c-0.2-0.8,0.2-1.5,1-1.7s1.5,0.2,1.7,1s-0.2,1.5-1,1.7C20,53.6,19.3,53.2,19.1,52.7L19.1,52.7z"/>
	<path class="st0" d="M15.6,53.6c-0.2-0.4,0-1,0.6-1.1c0.6-0.2,1,0.2,1.1,0.6c0.2,0.6-0.2,1-0.6,1.1C16.4,54.4,15.8,54.2,15.6,53.6
		L15.6,53.6z"/>
	<path class="st0" d="M25.8,56.5c-0.6-1-0.4-2.1,0.4-2.7c1-0.6,2.1-0.4,2.7,0.4c0.6,1,0.4,2.1-0.4,2.7
		C27.7,57.6,26.3,57.4,25.8,56.5L25.8,56.5z"/>
	<path class="st0" d="M22.3,59c-0.4-0.6-0.4-1.5,0.4-1.9c0.6-0.4,1.5-0.4,1.9,0.4C25,58,25,59,24.2,59.4
		C23.7,59.7,22.7,59.5,22.3,59L22.3,59z"/>
	<path class="st0" d="M19.4,61.1c-0.4-0.4-0.2-1,0.2-1.3c0.4-0.4,1-0.2,1.3,0.2s0.2,1-0.2,1.3C20.2,61.7,19.6,61.7,19.4,61.1
		L19.4,61.1z"/>
	<path class="st0" d="M30,60.7c-1-0.6-1.1-1.9-0.4-2.7c0.6-1,1.9-1.1,2.7-0.4c1,0.6,1.1,1.9,0.4,2.7C32.1,61.1,30.7,61.3,30,60.7
		L30,60.7z"/>
	<path class="st0" d="M27.5,64.1c-0.6-0.4-0.8-1.3-0.4-1.9c0.4-0.6,1.3-0.8,1.9-0.4c0.6,0.4,0.8,1.3,0.4,1.9
		C28.8,64.3,28.1,64.5,27.5,64.1L27.5,64.1z"/>
	<path class="st0" d="M25.4,67c-0.4-0.4-0.6-1-0.2-1.3c0.4-0.4,1-0.6,1.3-0.2c0.4,0.4,0.6,1,0.2,1.3C26.3,67.2,25.8,67.4,25.4,67
		L25.4,67z"/>
	<path class="st0" d="M35.1,63.4c-1-0.4-1.5-1.5-1.3-2.5c0.4-1,1.5-1.5,2.5-1.3c1,0.4,1.5,1.5,1.3,2.5
		C37.3,63.2,36.1,63.8,35.1,63.4L35.1,63.4z"/>
	<path class="st0" d="M33.8,67.4c-0.8-0.2-1.1-1-1-1.7c0.2-0.8,1-1.1,1.7-1c0.8,0.2,1.1,1,1,1.7C35.3,67.2,34.6,67.6,33.8,67.4
		L33.8,67.4z"/>
	<path class="st0" d="M32.7,70.8c-0.6-0.2-0.8-0.8-0.6-1.1c0.2-0.6,0.8-0.8,1.1-0.6c0.6,0.2,0.8,0.8,0.6,1.1
		C33.8,70.7,33.2,71,32.7,70.8L32.7,70.8z"/>
	<path class="st0" d="M41.1,64.3c-1.1,0-1.9-1-1.9-1.9c0-1.1,1-1.9,1.9-1.9c1.1,0,1.9,1,1.9,1.9C43,63.4,42,64.3,41.1,64.3
		L41.1,64.3z"/>
	<path class="st0" d="M41.1,68.5c-0.8,0-1.3-0.6-1.3-1.3c0-0.8,0.6-1.3,1.3-1.3c0.8,0,1.3,0.6,1.3,1.3S41.9,68.5,41.1,68.5
		L41.1,68.5z"/>
	<path class="st0" d="M41.1,72.2c-0.6,0-1-0.4-1-1s0.4-1,1-1s1,0.4,1,1C42,71.8,41.5,72.2,41.1,72.2L41.1,72.2z"/>
	<path class="st0" d="M46.8,63.4c-1,0.4-2.1-0.2-2.5-1.3c-0.4-1,0.2-2.1,1.3-2.5c1-0.4,2.1,0.2,2.5,1.3C48.4,62,48,63,46.8,63.4
		L46.8,63.4z"/>
	<path class="st0" d="M48.2,67.4c-0.8,0.2-1.5-0.2-1.7-1s0.2-1.5,1-1.7s1.5,0.2,1.7,1S48.9,67.2,48.2,67.4L48.2,67.4z"/>
	<path class="st0" d="M49.3,70.8c-0.6,0.2-1-0.2-1.1-0.6c-0.2-0.6,0.2-1,0.6-1.1c0.6-0.2,1.1,0.2,1.1,0.6
		C50.1,70.1,49.7,70.7,49.3,70.8L49.3,70.8z"/>
	<path class="st0" d="M52.2,60.7c-1,0.6-2.1,0.4-2.7-0.4c-0.6-1-0.4-2.1,0.4-2.7c1-0.6,2.1-0.4,2.7,0.4C53.2,58.8,53,60.1,52.2,60.7
		L52.2,60.7z"/>
	<path class="st0" d="M54.5,64.1c-0.6,0.4-1.5,0.4-1.9-0.4c-0.4-0.6-0.4-1.5,0.4-1.9c0.6-0.4,1.5-0.4,1.9,0.4
		C55.3,62.8,55.3,63.6,54.5,64.1L54.5,64.1z"/>
	<path class="st0" d="M56.8,67c-0.4,0.4-1,0.2-1.3-0.2c-0.4-0.4-0.2-1,0.2-1.3c0.4-0.4,1-0.2,1.3,0.2C57.2,66.1,57.2,66.8,56.8,67
		L56.8,67z"/>
	<path class="st0" d="M56.2,56.5c-0.6,1-1.9,1.1-2.7,0.4c-1-0.6-1.1-1.9-0.4-2.7c0.6-1,1.9-1.1,2.7-0.4C56.8,54.4,57,55.7,56.2,56.5
		L56.2,56.5z"/>
	<path class="st0" d="M59.7,59c-0.4,0.6-1.3,0.8-1.9,0.4c-0.6-0.4-0.8-1.4-0.4-2s1.3-0.8,1.9-0.4C60,57.4,60,58.4,59.7,59L59.7,59z"
		/>
	<path class="st0" d="M62.7,61.1c-0.4,0.4-1,0.6-1.3,0.2s-0.6-1-0.2-1.3c0.4-0.4,1-0.6,1.3-0.2C62.9,60.1,62.9,60.7,62.7,61.1
		L62.7,61.1z"/>
	<path class="st0" d="M58.9,51.3c-0.4,1-1.5,1.5-2.5,1.3c-1-0.4-1.5-1.5-1.3-2.5c0.4-1,1.5-1.5,2.5-1.3
		C58.7,49.2,59.3,50.2,58.9,51.3L58.9,51.3z"/>
	<path class="st0" d="M62.9,52.5c-0.2,0.8-1,1.1-1.7,1c-0.8-0.2-1.1-1-1-1.7c0.2-0.8,1-1.1,1.7-1C62.7,51.1,63.1,51.9,62.9,52.5
		L62.9,52.5z"/>
	<path class="st0" d="M66.4,53.6c-0.2,0.6-0.8,0.8-1.1,0.6c-0.6-0.2-0.8-0.8-0.6-1.1c0.2-0.6,0.8-0.8,1.1-0.6
		C66.4,52.7,66.6,53.2,66.4,53.6L66.4,53.6z"/>
	<path class="st0" d="M59.9,45.4c0,1.1-1,1.9-1.9,1.9c-1.1,0-1.9-1-1.9-1.9c0-1.1,1-1.9,1.9-1.9C59.1,43.5,59.9,44.4,59.9,45.4
		L59.9,45.4z"/>
	<path class="st0" d="M64.1,45.4c0,0.8-0.6,1.3-1.3,1.3s-1.3-0.6-1.3-1.3c0-0.8,0.6-1.3,1.3-1.3S64.1,44.6,64.1,45.4L64.1,45.4z"/>
	<path class="st0" d="M67.7,45.4c0,0.6-0.4,1-1,1s-1-0.4-1-1s0.4-1,1-1C67.3,44.4,67.7,44.8,67.7,45.4L67.7,45.4z"/>
	<path class="st0" d="M58.9,39.6c0.4,1-0.2,2.1-1.3,2.5c-1,0.4-2.1-0.2-2.5-1.3c-0.4-1,0.2-2.1,1.3-2.5
		C57.6,37.9,58.7,38.5,58.9,39.6L58.9,39.6z"/>
	<path class="st0" d="M62.9,38.3c0.2,0.8-0.2,1.5-1,1.7s-1.5-0.2-1.7-1s0.2-1.5,1-1.7S62.7,37.5,62.9,38.3L62.9,38.3z"/>
	<path class="st0" d="M66.4,37.1c0.2,0.6-0.2,1-0.6,1.1c-0.6,0.2-1-0.2-1.1-0.6c-0.2-0.6,0.2-1,0.6-1.1
		C65.8,36.4,66.2,36.6,66.4,37.1L66.4,37.1z"/>
	<path class="st0" d="M56.2,34.3c0.6,1,0.4,2.1-0.4,2.7c-1,0.6-2.1,0.4-2.7-0.4c-0.6-1-0.4-2.1,0.4-2.7
		C54.5,33.3,55.6,33.5,56.2,34.3L56.2,34.3z"/>
	<path class="st0" d="M59.7,31.8c0.4,0.6,0.4,1.5-0.4,1.9c-0.6,0.4-1.5,0.4-1.9-0.4c-0.4-0.6-0.4-1.5,0.4-1.9
		C58.3,31,59.3,31.2,59.7,31.8L59.7,31.8z"/>
	<path class="st0" d="M62.7,29.7c0.4,0.4,0.2,1-0.2,1.3c-0.4,0.4-1,0.2-1.3-0.2s-0.2-1,0.2-1.3C61.8,29.1,62.3,29.3,62.7,29.7
		L62.7,29.7z"/>
	<path class="st0" d="M52.2,30.1c1,0.6,1.1,1.9,0.4,2.7c-0.6,1-1.9,1.1-2.7,0.4c-1-0.6-1.1-1.9-0.4-2.7
		C50.1,29.7,51.2,29.5,52.2,30.1L52.2,30.1z"/>
	<path class="st0" d="M54.5,26.8c0.6,0.4,0.8,1.3,0.4,1.9c-0.4,0.6-1.3,0.8-1.9,0.4c-0.6-0.4-0.8-1.3-0.4-1.9
		C53.2,26.4,53.9,26.2,54.5,26.8L54.5,26.8z"/>
	<path class="st0" d="M56.8,23.7c0.4,0.4,0.6,1,0.2,1.3c-0.4,0.4-1,0.6-1.3,0.2s-0.6-1-0.2-1.3C55.6,23.5,56.2,23.5,56.8,23.7
		L56.8,23.7z"/>
	<path class="st0" d="M46.8,27.4c1,0.4,1.5,1.5,1.3,2.5c-0.4,1-1.5,1.5-2.5,1.3c-1-0.4-1.5-1.5-1.3-2.5
		C44.7,27.8,45.9,27.2,46.8,27.4L46.8,27.4z"/>
	<path class="st0" d="M48.2,23.5c0.8,0.2,1.1,1,1,1.7c-0.2,0.8-1,1.1-1.7,1s-1.1-1-1-1.7C46.6,23.5,47.4,23.2,48.2,23.5L48.2,23.5z"
		/>
	<path class="st0" d="M49.3,19.9c0.6,0.2,0.8,0.8,0.6,1.1c-0.2,0.6-0.8,0.8-1.1,0.6c-0.6-0.2-0.8-0.8-0.6-1.1
		C48.2,20.1,48.7,19.9,49.3,19.9L49.3,19.9z"/>
</g>
</svg>
