<svg width="16" height="15" viewBox="0 0 16 15" version="1.1" xmlns="http://www.w3.org/2000/svg" xmlns:xlink="http://www.w3.org/1999/xlink">
<title>powerpoint</title>
<desc>Created using Figma</desc>
<g id="Canvas" transform="translate(-17017 -38)">
<g id="powerpoint">
<g id="Group">
<g id="Group">
<g id="Vector">
<use xlink:href="#path0_fill" transform="translate(17017 38)" fill="#FF2A60"/>
</g>
</g>
</g>
<g id="Group">
<g id="Group">
<g id="Vector">
<use xlink:href="#path1_fill" transform="translate(17026 42.0505)" fill="#FF2A60"/>
</g>
</g>
</g>
<g id="Group">
<g id="Group">
<g id="Vector">
<use xlink:href="#path2_fill" transform="translate(17029 42.0505)" fill="#FF2A60"/>
</g>
</g>
</g>
</g>
</g>
<defs>
<path id="path0_fill" d="M 15.5 2.00058L 9 2.00058L 9 0.500651C 9 0.351658 8.934 0.210664 8.819 0.115669C 8.705 0.0206728 8.552 -0.0203253 8.408 0.00967332L 0.408 1.50961C 0.171 1.5536 0 1.75959 0 2.00058L 0 13.0001C 0 13.2401 0.171 13.4471 0.408 13.4911L 8.408 14.991C 8.438 14.997 8.469 15 8.5 15C 8.616 15 8.729 14.96 8.819 14.885C 8.934 14.79 9 14.648 9 14.5L 9 13.0001L 15.5 13.0001C 15.776 13.0001 16 12.7761 16 12.5001L 16 2.50056C 16 2.22457 15.776 2.00058 15.5 2.00058ZM 15 12.0001L 9 12.0001L 9 11.0002L 13.5 11.0002C 13.776 11.0002 14 10.7762 14 10.5002C 14 10.2242 13.776 10.0002 13.5 10.0002L 9 10.0002L 9 6.50038L 9 3.00054L 15 3.00054L 15 12.0001Z"/>
<path id="path1_fill" d="M 2 2.94987L 2 -2.36501e-07C 0.859 0.231989 0 1.24094 0 2.44989C 0 3.83083 1.119 4.94978 2.5 4.94978C 3.709 4.94978 4.718 4.09082 4.95 2.94987L 2 2.94987Z"/>
<path id="path2_fill" d="M 0 -2.36501e-07L 0 1.94991L 1.95 1.94991C 1.751 0.970956 0.979 0.198991 0 -2.36501e-07Z"/>
</defs>
</svg>
