<?xml version="1.0" encoding="utf-8"?>
<!-- Generator: Adobe Illustrator 21.0.0, SVG Export Plug-In . SVG Version: 6.00 Build 0)  -->
<svg version="1.1" id="Layer_1" xmlns="http://www.w3.org/2000/svg" xmlns:xlink="http://www.w3.org/1999/xlink" x="0px" y="0px"
	 viewBox="0 0 545 458" style="enable-background:new 0 0 545 458;" xml:space="preserve">
<style type="text/css">
	.st0{opacity:0.15;}
	.st1{fill:#BDCEFA;}
	.st2{fill:url(#SVGID_1_);}
	.st3{fill:url(#SVGID_2_);}
	.st4{fill:url(#SVGID_3_);}
	.st5{fill:url(#SVGID_4_);}
	.st6{fill:url(#SVGID_5_);}
	.st7{fill:#B3D2FF;}
	.st8{fill:#DDDDDD;}
	.st9{fill:#0084E9;}
	.st10{fill:#52A3F6;}
	.st11{fill:#FFFFFF;}
	.st12{fill:url(#SVGID_6_);}
	.st13{fill:url(#SVGID_7_);}
	.st14{fill:url(#SVGID_8_);}
	.st15{fill:#C9C9C9;}
	.st16{fill:#F0F9FF;}
	.st17{fill:#E4F2FF;}
	.st18{fill:#76B5CE;}
	.st19{fill:url(#SVGID_9_);}
	.st20{fill:#73AEEA;}
	.st21{fill:#3C91E5;}
	.st22{fill:#F9AB83;}
	.st23{fill:#010400;}
	.st24{fill:#484968;}
	.st25{fill:#F1AC85;}
	.st26{fill:#E28C66;}
	.st27{fill:#528FE8;}
	.st28{fill:#2D71AA;}
	.st29{fill:#DD936F;}
	.st30{fill:#124E77;}
	.st31{fill:#B8D0F6;}
	.st32{fill:#99B6E0;}
	.st33{fill:#9AC3F4;}
	.st34{fill:url(#SVGID_10_);}
	.st35{fill:url(#SVGID_11_);}
	.st36{fill:url(#SVGID_12_);}
	.st37{fill:#87AFD6;}
	.st38{fill:url(#SVGID_13_);}
	.st39{fill:url(#SVGID_14_);}
	.st40{fill:url(#SVGID_15_);}
	.st41{fill:url(#SVGID_16_);}
	.st42{fill:url(#SVGID_17_);}
	.st43{fill:url(#SVGID_18_);}
	.st44{fill:url(#SVGID_19_);}
	.st45{fill:url(#SVGID_20_);}
	.st46{fill:url(#SVGID_21_);}
	.st47{fill:url(#SVGID_22_);}
	.st48{fill:url(#SVGID_23_);}
	.st49{fill:url(#SVGID_24_);}
	.st50{fill:url(#SVGID_25_);}
	.st51{fill:url(#SVGID_26_);}
	.st52{opacity:0.5;fill:#FFFFFF;enable-background:new    ;}
	.st53{fill:url(#SVGID_27_);}
	.st54{fill:#007DC9;}
	.st55{fill:#2D0D60;}
	.st56{fill:url(#SVGID_28_);}
	.st57{fill:#A29AFB;}
	.st58{fill:#FCC4B7;}
	.st59{fill-rule:evenodd;clip-rule:evenodd;fill:#124E77;}
	.st60{fill:#1C1C38;}
	.st61{fill:#FCFDFF;}
	.st62{fill:#0382FF;}
	.st63{fill:#BBBEB5;}
	.st64{fill:#EAEEF1;}
	.st65{fill:#3482B7;}
	.st66{fill:#245D84;}
	.st67{fill:#E5A89C;}
	.st68{fill-rule:evenodd;clip-rule:evenodd;fill:#52A3F6;}
	.st69{fill-rule:evenodd;clip-rule:evenodd;fill:#BBBEB5;}
	.st70{fill-rule:evenodd;clip-rule:evenodd;fill:#EAEEF1;}
</style>
<g class="st0">
	<path class="st1" d="M463.8,397.1l-66.5,37.2c-2.9,1.7-8.1,1.5-11.5-0.5l-22.1-13.2c-3.4-2-3.8-5-0.8-6.7l66.2-38
		c2.9-1.7,8.1-1.5,11.5,0.5l22.4,13.9C466.4,392.4,466.8,395.4,463.8,397.1z"/>
	<path class="st1" d="M436.2,364.6l-66.5,37.2c-2.9,1.7-8.1,1.5-11.5-0.5l-22.1-13.2c-3.4-2-3.8-5-0.8-6.7l66.2-38
		c2.9-1.7,8.1-1.5,11.5,0.5l22.4,13.9C438.7,359.9,439.1,362.9,436.2,364.6z"/>
	<path class="st1" d="M452.1,309.6L251.5,421.5c-8.9,5.1-24.5,4.5-34.8-1.4L99.8,352.6c-10.3-5.9-11.4-15-2.5-20.1l200.6-111.9
		c8.9-5.1,24.5-4.5,34.8,1.4l116.9,67.5C459.8,295.5,461,304.5,452.1,309.6z"/>
</g>
<g>
	<g>
		<linearGradient id="SVGID_1_" gradientUnits="userSpaceOnUse" x1="122.685" y1="55.8194" x2="75.7477" y2="156.0584">
			<stop  offset="0" style="stop-color:#E4F2FF"/>
			<stop  offset="0.3075" style="stop-color:#D7E6FD;stop-opacity:0.6923"/>
			<stop  offset="0.9993" style="stop-color:#BDCEFA;stop-opacity:0"/>
		</linearGradient>
		<path class="st2" d="M65.1,159.3c-1.1,0-2.4-0.9-2.4-2.4v-50.1c0-0.8,0.5-1.6,1.2-2L124.2,70c0.4-0.2,0.8-0.3,1.2-0.3
			c1.1,0,2.4,0.9,2.4,2.4v50.1c0,0.8-0.5,1.6-1.2,2L66.3,159C65.9,159.2,65.5,159.3,65.1,159.3z"/>
		<linearGradient id="SVGID_2_" gradientUnits="userSpaceOnUse" x1="154.5832" y1="55.0318" x2="190.2399" y2="199.8322">
			<stop  offset="0" style="stop-color:#E4F2FF"/>
			<stop  offset="0.3075" style="stop-color:#D7E6FD;stop-opacity:0.6923"/>
			<stop  offset="0.9993" style="stop-color:#BDCEFA;stop-opacity:0"/>
		</linearGradient>
		<path class="st3" d="M110.1,232.1c-2.4,0-5.1-1.9-5.1-5.1V119.8c0-1.8,1-3.5,2.5-4.4L236.5,41c0.8-0.5,1.6-0.7,2.5-0.7
			c2.4,0,5.1,1.9,5.1,5.1v107.3c0,1.8-1,3.5-2.5,4.4l-128.9,74.4C111.8,231.9,111,232.1,110.1,232.1z"/>
		<linearGradient id="SVGID_3_" gradientUnits="userSpaceOnUse" x1="239.6337" y1="-15.8141" x2="238.0426" y2="66.1274">
			<stop  offset="0" style="stop-color:#E4F2FF"/>
			<stop  offset="0.3075" style="stop-color:#D7E6FD;stop-opacity:0.6923"/>
			<stop  offset="0.9993" style="stop-color:#BDCEFA;stop-opacity:0"/>
		</linearGradient>
		<path class="st4" d="M211.7,88.8c-1,0-2.1-0.8-2.1-2.1V42.3c0-0.7,0.4-1.4,1-1.8L264,9.6c0.3-0.2,0.7-0.3,1-0.3
			c1,0,2.1,0.8,2.1,2.1v44.4c0,0.7-0.4,1.4-1,1.8l-53.4,30.8C212.4,88.7,212,88.8,211.7,88.8z"/>
		<linearGradient id="SVGID_4_" gradientUnits="userSpaceOnUse" x1="123.7181" y1="152.2331" x2="109.3983" y2="258.0407">
			<stop  offset="0" style="stop-color:#E4F2FF"/>
			<stop  offset="0.3075" style="stop-color:#D7E6FD;stop-opacity:0.6923"/>
			<stop  offset="0.9993" style="stop-color:#BDCEFA;stop-opacity:0"/>
		</linearGradient>
		<path class="st5" d="M87.1,265.4c-1,0-2.1-0.8-2.1-2.1v-44.4c0-0.7,0.4-1.4,1-1.8l53.4-30.8c0.3-0.2,0.7-0.3,1-0.3
			c1,0,2.1,0.8,2.1,2.1v44.4c0,0.7-0.4,1.4-1,1.8l-53.4,30.8C87.8,265.3,87.4,265.4,87.1,265.4z"/>
	</g>
	<g>
		<g>
			<path class="st1" d="M235.5,95.8c0,2.1-1.5,4.8-3.4,5.8c-1.9,1.1-3.4,0.2-3.4-1.9c0-2.1,1.5-4.8,3.4-5.8
				C233.9,92.8,235.5,93.6,235.5,95.8z"/>
			<path class="st1" d="M247.5,88.8c0,2.1-1.5,4.8-3.4,5.8c-1.9,1.1-3.4,0.2-3.4-1.9c0-2.1,1.5-4.8,3.4-5.8
				C246,85.8,247.5,86.7,247.5,88.8z"/>
			<path class="st1" d="M259.6,81.9c0,2.1-1.5,4.8-3.4,5.8c-1.9,1.1-3.4,0.2-3.4-1.9s1.5-4.8,3.4-5.8
				C258,78.9,259.6,79.7,259.6,81.9z"/>
		</g>
		<g>
			<path class="st1" d="M147.7,153.4c-2.5,2.8-4.7,4.5-7.7,6.2c-7,4.1-13.2,1.8-13.2-7.8c0-10,6.3-22.2,15.8-27.8
				c7.4-4.3,12.8-1.5,12.8,6.7c0,7.1-3.5,13.6-8,16.3c-2,1.1-3.4,0.8-3.6-1.7l-0.1,0c-1.3,3.2-3.2,5.6-5.5,6.9
				c-2.8,1.6-4.7,0.4-4.7-3.6c0-6,3.8-13.6,9.9-17.1c1.9-1.1,4-1.8,5-1.7l-1.3,9.8c-0.4,3.1-0.1,4.3,1.1,3.6c1.8-1,4.1-5,4.1-10.6
				c0-6.4-3.6-9.2-10.1-5.4c-6.5,3.7-12.1,12.9-12.1,22.2c0,8.2,4.5,10.2,10.8,6.5c2.2-1.2,4.4-3.1,6.1-5.1L147.7,153.4z
				 M143.9,135.4c-0.3,0.1-0.8,0.2-1.3,0.6c-2.8,1.6-5,6.1-5,9.8c0,1.9,0.7,2.6,2.1,1.8c1.6-0.9,3.2-4.2,3.6-7.2L143.9,135.4z"/>
		</g>
		<g>
			<path class="st1" d="M166,91.8l14.8,4.1c0.5,0.1,1.2-0.3,1.6-0.9l14.8-21.1L166,91.8z"/>
			<path class="st1" d="M176.5,96.2l-10.3,17c-0.2-0.2-0.3-0.5-0.3-0.9v-19L176.5,96.2z"/>
			<path class="st1" d="M185.8,91.7l10.4,5.2c-0.3,0.3-0.6,0.6-1,0.8l-27,15.6c-0.3,0.2-0.6,0.3-0.9,0.3l10.3-17.1l4.1,1.1
				L185.8,91.7z"/>
			<path class="st1" d="M197.3,75.2v19c0,0.4-0.1,0.8-0.3,1.2l-10.2-5.2L197.3,75.2z"/>
		</g>
	</g>
	<g>
		<path class="st1" d="M300.8,100.8c-0.1,0-0.3-0.1-0.3-0.3V27.1L200.5,84.9c-0.1,0.1-0.3,0-0.3-0.1c-0.1-0.1,0-0.3,0.1-0.3
			l100.8-58.3v74.4C301.1,100.7,301,100.8,300.8,100.8z"/>
		<g>
			<g>
				<path class="st1" d="M307.5,101.1c-0.3,0-0.5-0.2-0.5-0.5v-0.1c0-0.3,0.2-0.5,0.5-0.5c0.3,0,0.5,0.2,0.5,0.5
					C308,100.9,307.8,101.1,307.5,101.1z"/>
				<path class="st1" d="M307.5,97.3c-0.3,0-0.5-0.2-0.5-0.5v-0.1c0-0.3,0.2-0.5,0.5-0.5c0.3,0,0.5,0.2,0.5,0.5
					C308,97,307.8,97.3,307.5,97.3z M307.5,93.4c-0.3,0-0.5-0.2-0.5-0.5v-0.1c0-0.3,0.2-0.5,0.5-0.5c0.3,0,0.5,0.2,0.5,0.5
					C308,93.1,307.8,93.4,307.5,93.4z M307.5,89.5c-0.3,0-0.5-0.2-0.5-0.5V89c0-0.3,0.2-0.5,0.5-0.5c0.3,0,0.5,0.2,0.5,0.5
					C308,89.2,307.8,89.5,307.5,89.5z M307.5,85.6c-0.3,0-0.5-0.2-0.5-0.5v-0.1c0-0.3,0.2-0.5,0.5-0.5c0.3,0,0.5,0.2,0.5,0.5
					C308,85.4,307.8,85.6,307.5,85.6z M307.5,81.8c-0.3,0-0.5-0.2-0.5-0.5v-0.1c0-0.3,0.2-0.5,0.5-0.5c0.3,0,0.5,0.2,0.5,0.5
					S307.8,81.8,307.5,81.8z M307.5,77.9c-0.3,0-0.5-0.2-0.5-0.5v-0.1c0-0.3,0.2-0.5,0.5-0.5c0.3,0,0.5,0.2,0.5,0.5
					S307.8,77.9,307.5,77.9z M307.5,74c-0.3,0-0.5-0.2-0.5-0.5v-0.1c0-0.3,0.2-0.5,0.5-0.5c0.3,0,0.5,0.2,0.5,0.5
					C308,73.7,307.8,74,307.5,74z"/>
				<path class="st1" d="M307.5,70.2c-0.2,0-0.3-0.1-0.4-0.2c0,0,0,0,0-0.1c-0.1-0.2-0.1-0.5,0.2-0.7c0.2-0.1,0.4-0.1,0.5,0
					c0.2,0.1,0.3,0.2,0.3,0.4C308,69.9,307.8,70.2,307.5,70.2z"/>
				<path class="st1" d="M164.4,150c-0.2,0-0.3-0.1-0.4-0.3c-0.1-0.2,0-0.5,0.2-0.7l0.1,0c0.2-0.1,0.5,0,0.7,0.2
					c0.1,0.2,0,0.5-0.2,0.7l-0.1,0C164.6,150,164.5,150,164.4,150z M168,148c-0.2,0-0.3-0.1-0.4-0.3c-0.1-0.2,0-0.5,0.2-0.7l0.1,0
					c0.2-0.1,0.5,0,0.7,0.2c0.1,0.2,0,0.5-0.2,0.7l-0.1,0C168.2,148,168.1,148,168,148z M171.6,146c-0.2,0-0.3-0.1-0.4-0.3
					c-0.1-0.2,0-0.5,0.2-0.7c0.2-0.1,0.6-0.1,0.7,0.2c0.1,0.2,0.1,0.5-0.1,0.7l-0.1,0C171.8,146,171.7,146,171.6,146z M175.2,144
					c-0.2,0-0.3-0.1-0.4-0.3c-0.1-0.2,0-0.5,0.2-0.7l0.1,0c0.2-0.1,0.5,0,0.7,0.2c0.1,0.2,0,0.5-0.2,0.7l-0.1,0
					C175.3,144,175.3,144,175.2,144z M178.8,142c-0.2,0-0.3-0.1-0.4-0.3c-0.1-0.2,0-0.5,0.2-0.7l0.1,0c0.2-0.1,0.5,0,0.7,0.2
					c0.1,0.2,0,0.5-0.2,0.7l-0.1,0C178.9,142,178.8,142,178.8,142z M182.3,140c-0.2,0-0.3-0.1-0.4-0.3c-0.1-0.2,0-0.5,0.2-0.7
					c0.2-0.1,0.6-0.1,0.7,0.2c0.1,0.2,0.1,0.5-0.1,0.7l-0.1,0C182.5,140,182.4,140,182.3,140z M185.9,138c-0.2,0-0.3-0.1-0.4-0.3
					c-0.1-0.2,0-0.5,0.2-0.7c0.2-0.1,0.6-0.1,0.7,0.2c0.1,0.2,0.1,0.5-0.1,0.7l-0.1,0C186.1,138,186,138,185.9,138z M189.5,136
					c-0.2,0-0.3-0.1-0.4-0.3c-0.1-0.2,0-0.5,0.2-0.7l0.1,0c0.2-0.1,0.5,0,0.7,0.2c0.1,0.2,0,0.5-0.2,0.7l-0.1,0
					C189.6,136,189.6,136,189.5,136z M193.1,134c-0.2,0-0.3-0.1-0.4-0.3c-0.1-0.2,0-0.5,0.2-0.7l0.1,0c0.2-0.1,0.5,0,0.7,0.2
					c0.1,0.2,0,0.5-0.2,0.7l-0.1,0C193.2,134,193.1,134,193.1,134z M196.6,132c-0.2,0-0.3-0.1-0.4-0.3c-0.1-0.2,0-0.5,0.2-0.7
					c0.2-0.1,0.6-0.1,0.7,0.2c0.1,0.2,0.1,0.5-0.2,0.7l-0.1,0C196.8,132,196.7,132,196.6,132z M200.2,130c-0.2,0-0.3-0.1-0.4-0.3
					c-0.1-0.2,0-0.5,0.2-0.7c0.2-0.1,0.6-0.1,0.7,0.2c0.1,0.2,0.1,0.5-0.2,0.7l-0.1,0C200.4,130,200.3,130,200.2,130z M203.8,128
					c-0.2,0-0.3-0.1-0.4-0.3c-0.1-0.2,0-0.5,0.2-0.7c0.2-0.1,0.6-0.1,0.7,0.2c0.1,0.2,0.1,0.5-0.2,0.7l-0.1,0
					C203.9,128,203.9,128,203.8,128z M207.4,126c-0.2,0-0.3-0.1-0.4-0.3c-0.1-0.2,0-0.5,0.2-0.7c0.2-0.1,0.6-0.1,0.7,0.2
					c0.1,0.2,0.1,0.5-0.2,0.7l-0.1,0C207.5,126,207.4,126,207.4,126z M210.9,124.1c-0.2,0-0.3-0.1-0.4-0.3c-0.1-0.2,0-0.5,0.2-0.7
					c0.2-0.1,0.6-0.1,0.7,0.2c0.1,0.2,0.1,0.5-0.2,0.7l-0.1,0C211.1,124,211,124.1,210.9,124.1z M214.5,122.1
					c-0.2,0-0.3-0.1-0.4-0.3c-0.1-0.2,0-0.5,0.2-0.7c0.2-0.1,0.6-0.1,0.7,0.2c0.1,0.2,0.1,0.5-0.2,0.7l-0.1,0
					C214.7,122,214.6,122.1,214.5,122.1z M218.1,120.1c-0.2,0-0.3-0.1-0.4-0.3c-0.1-0.2,0-0.5,0.2-0.7l0.1,0c0.2-0.1,0.5,0,0.7,0.2
					c0.1,0.2,0,0.5-0.2,0.7l-0.1,0C218.2,120,218.2,120.1,218.1,120.1z M221.7,118.1c-0.2,0-0.3-0.1-0.4-0.3c-0.1-0.2,0-0.5,0.2-0.7
					c0.2-0.1,0.6-0.1,0.7,0.2c0.1,0.2,0.1,0.5-0.1,0.7l-0.1,0C221.8,118,221.7,118.1,221.7,118.1z M225.2,116.1
					c-0.2,0-0.3-0.1-0.4-0.3c-0.1-0.2,0-0.5,0.2-0.7l0.1,0c0.2-0.1,0.5,0,0.7,0.2c0.1,0.2,0,0.5-0.2,0.7l-0.1,0
					C225.4,116,225.3,116.1,225.2,116.1z M228.8,114.1c-0.2,0-0.3-0.1-0.4-0.3c-0.1-0.2,0-0.5,0.2-0.7l0.1,0c0.2-0.1,0.5,0,0.7,0.2
					c0.1,0.2,0,0.5-0.2,0.7l-0.1,0C229,114.1,228.9,114.1,228.8,114.1z M232.4,112.1c-0.2,0-0.3-0.1-0.4-0.3c-0.1-0.2,0-0.5,0.2-0.7
					c0.2-0.1,0.6-0.1,0.7,0.2c0.1,0.2,0.1,0.5-0.1,0.7l-0.1,0C232.6,112.1,232.5,112.1,232.4,112.1z M236,110.1
					c-0.2,0-0.3-0.1-0.4-0.3c-0.1-0.2,0-0.5,0.2-0.7c0.2-0.1,0.6-0.1,0.7,0.2c0.1,0.2,0.1,0.5-0.1,0.7l-0.1,0
					C236.1,110.1,236,110.1,236,110.1z M239.5,108.1c-0.2,0-0.3-0.1-0.4-0.3c-0.1-0.2,0-0.5,0.2-0.7l0.1,0c0.2-0.1,0.5,0,0.7,0.2
					c0.1,0.2,0,0.5-0.2,0.7l-0.1,0C239.7,108.1,239.6,108.1,239.5,108.1z M243.1,106.1c-0.2,0-0.3-0.1-0.4-0.3
					c-0.1-0.2,0-0.5,0.2-0.7l0.1,0c0.2-0.1,0.5,0,0.7,0.2c0.1,0.2,0,0.5-0.2,0.7l-0.1,0C243.3,106.1,243.2,106.1,243.1,106.1z
					 M246.7,104.1c-0.2,0-0.3-0.1-0.4-0.3c-0.1-0.2,0-0.5,0.2-0.7c0.2-0.1,0.6-0.1,0.7,0.2c0.1,0.2,0.1,0.5-0.1,0.7l-0.1,0
					C246.9,104.1,246.8,104.1,246.7,104.1z M250.3,102.1c-0.2,0-0.3-0.1-0.4-0.3c-0.1-0.2,0-0.5,0.2-0.7c0.2-0.1,0.6-0.1,0.7,0.2
					c0.1,0.2,0.1,0.5-0.1,0.7l-0.1,0C250.4,102.1,250.3,102.1,250.3,102.1z M253.8,100.1c-0.2,0-0.3-0.1-0.4-0.3
					c-0.1-0.2,0-0.5,0.2-0.7l0.1,0c0.2-0.1,0.5,0,0.7,0.2c0.1,0.2,0,0.5-0.2,0.7l-0.1,0C254,100.1,253.9,100.1,253.8,100.1z
					 M257.4,98.1c-0.2,0-0.3-0.1-0.4-0.3c-0.1-0.2,0-0.5,0.2-0.7l0.1,0c0.2-0.1,0.5,0,0.7,0.2c0.1,0.2,0,0.5-0.2,0.7l-0.1,0
					C257.6,98.1,257.5,98.1,257.4,98.1z M261,96.1c-0.2,0-0.3-0.1-0.4-0.3c-0.1-0.2,0-0.5,0.2-0.7c0.2-0.1,0.6-0.1,0.7,0.2
					c0.1,0.2,0.1,0.5-0.1,0.7l-0.1,0C261.2,96.1,261.1,96.1,261,96.1z M264.6,94.1c-0.2,0-0.3-0.1-0.4-0.3c-0.1-0.2,0-0.5,0.2-0.7
					c0.2-0.1,0.6-0.1,0.7,0.2c0.1,0.2,0.1,0.5-0.1,0.7l-0.1,0C264.7,94.1,264.6,94.1,264.6,94.1z M268.1,92.1
					c-0.2,0-0.3-0.1-0.4-0.3c-0.1-0.2,0-0.5,0.2-0.7c0.2-0.1,0.6-0.1,0.7,0.2c0.1,0.2,0.1,0.5-0.2,0.7l-0.1,0
					C268.3,92.1,268.2,92.1,268.1,92.1z M271.7,90.1c-0.2,0-0.3-0.1-0.4-0.3c-0.1-0.2,0-0.5,0.2-0.7l0.1,0c0.2-0.1,0.5,0,0.7,0.2
					c0.1,0.2,0,0.5-0.2,0.7l-0.1,0C271.9,90.1,271.8,90.1,271.7,90.1z M275.3,88.1c-0.2,0-0.3-0.1-0.4-0.3c-0.1-0.2,0-0.5,0.2-0.7
					c0.2-0.1,0.6-0.1,0.7,0.2c0.1,0.2,0.1,0.5-0.2,0.7l-0.1,0C275.5,88.1,275.4,88.1,275.3,88.1z M278.9,86.1
					c-0.2,0-0.3-0.1-0.4-0.3c-0.1-0.2,0-0.5,0.2-0.7c0.2-0.1,0.6-0.1,0.7,0.2c0.1,0.2,0.1,0.5-0.2,0.7l-0.1,0
					C279,86.1,278.9,86.1,278.9,86.1z M282.4,84.1c-0.2,0-0.3-0.1-0.4-0.3c-0.1-0.2,0-0.5,0.2-0.7c0.2-0.1,0.6-0.1,0.7,0.2
					c0.1,0.2,0.1,0.5-0.2,0.7l-0.1,0C282.6,84.1,282.5,84.1,282.4,84.1z M286,82.1c-0.2,0-0.3-0.1-0.4-0.3c-0.1-0.2,0-0.5,0.2-0.7
					c0.2-0.1,0.6-0.1,0.7,0.2c0.1,0.2,0.1,0.5-0.2,0.7l-0.1,0C286.2,82.1,286.1,82.1,286,82.1z M289.6,80.1c-0.2,0-0.3-0.1-0.4-0.3
					c-0.1-0.2,0-0.5,0.2-0.7l0.1,0c0.2-0.1,0.5,0,0.7,0.2c0.1,0.2,0,0.5-0.2,0.7l-0.1,0C289.8,80.1,289.7,80.1,289.6,80.1z
					 M293.2,78.1c-0.2,0-0.3-0.1-0.4-0.3c-0.1-0.2,0-0.5,0.2-0.7c0.2-0.1,0.6-0.1,0.7,0.2c0.1,0.2,0.1,0.5-0.1,0.7l-0.1,0
					C293.3,78.1,293.3,78.1,293.2,78.1z M296.7,76.1c-0.2,0-0.3-0.1-0.4-0.3c-0.1-0.2,0-0.5,0.2-0.7c0.2-0.1,0.6-0.1,0.7,0.2
					c0.1,0.2,0.1,0.5-0.1,0.7l-0.1,0C296.9,76.1,296.8,76.1,296.7,76.1z M300.3,74.2c-0.2,0-0.3-0.1-0.4-0.3c-0.1-0.2,0-0.5,0.2-0.7
					l0.1,0c0.2-0.1,0.5,0,0.7,0.2c0.1,0.2,0,0.5-0.2,0.7l-0.1,0C300.5,74.1,300.4,74.2,300.3,74.2z M303.9,72.2
					c-0.2,0-0.3-0.1-0.4-0.3c-0.1-0.2,0-0.5,0.2-0.7c0.2-0.1,0.6-0.1,0.7,0.2c0.1,0.2,0.1,0.5-0.1,0.7l-0.1,0
					C304.1,72.1,304,72.2,303.9,72.2z"/>
				<path class="st1" d="M160.9,152c-0.3,0-0.5-0.2-0.5-0.5c0-0.2,0.1-0.4,0.3-0.5c0.2-0.1,0.6-0.1,0.7,0.2c0.1,0.2,0.1,0.5-0.1,0.6
					C161.2,151.9,161.1,152,160.9,152z"/>
				<path class="st1" d="M160.9,181.8c-0.3,0-0.5-0.2-0.5-0.5v-0.1c0-0.3,0.2-0.5,0.5-0.5c0.3,0,0.5,0.2,0.5,0.5v0.1
					C161.4,181.5,161.2,181.8,160.9,181.8z M160.9,177.5c-0.3,0-0.5-0.2-0.5-0.5v-0.1c0-0.3,0.2-0.5,0.5-0.5c0.3,0,0.5,0.2,0.5,0.5
					v0.1C161.4,177.3,161.2,177.5,160.9,177.5z M160.9,173.3c-0.3,0-0.5-0.2-0.5-0.5v-0.1c0-0.3,0.2-0.5,0.5-0.5
					c0.3,0,0.5,0.2,0.5,0.5v0.1C161.4,173,161.2,173.3,160.9,173.3z M160.9,169c-0.3,0-0.5-0.2-0.5-0.5v-0.1c0-0.3,0.2-0.5,0.5-0.5
					c0.3,0,0.5,0.2,0.5,0.5v0.1C161.4,168.8,161.2,169,160.9,169z M160.9,164.8c-0.3,0-0.5-0.2-0.5-0.5v-0.1c0-0.3,0.2-0.5,0.5-0.5
					c0.3,0,0.5,0.2,0.5,0.5v0.1C161.4,164.5,161.2,164.8,160.9,164.8z M160.9,160.5c-0.3,0-0.5-0.2-0.5-0.5v-0.1
					c0-0.3,0.2-0.5,0.5-0.5c0.3,0,0.5,0.2,0.5,0.5v0.1C161.4,160.3,161.2,160.5,160.9,160.5z M160.9,156.3c-0.3,0-0.5-0.2-0.5-0.5
					v-0.1c0-0.3,0.2-0.5,0.5-0.5c0.3,0,0.5,0.2,0.5,0.5v0.1C161.4,156,161.2,156.3,160.9,156.3z"/>
				<path class="st1" d="M160.9,186c-0.3,0-0.5-0.2-0.5-0.5c0-0.3,0.2-0.5,0.5-0.5c0.3,0,0.5,0.2,0.5,0.5v0
					C161.4,185.7,161.2,186,160.9,186z"/>
			</g>
			<path class="st1" d="M98.3,205.7c-0.1,0-0.3-0.1-0.3-0.3v-40l0.1-0.1l23.5-12.4c0.1-0.1,0.3,0,0.3,0.1c0.1,0.1,0,0.3-0.1,0.3
				l-23.3,12.4v39.7C98.5,205.6,98.4,205.7,98.3,205.7z"/>
			<path class="st1" d="M115.2,270c-0.3,0-0.5-0.2-0.5-0.5v-0.1c0-0.3,0.2-0.5,0.5-0.5c0.3,0,0.5,0.2,0.5,0.5
				C115.7,269.7,115.4,270,115.2,270z M115.2,265.9c-0.3,0-0.5-0.2-0.5-0.5v-0.1c0-0.3,0.2-0.5,0.5-0.5c0.3,0,0.5,0.2,0.5,0.5v0.1
				C115.7,265.7,115.4,265.9,115.2,265.9z M115.2,261.8c-0.3,0-0.5-0.2-0.5-0.5v-0.1c0-0.3,0.2-0.5,0.5-0.5c0.3,0,0.5,0.2,0.5,0.5
				C115.7,261.5,115.4,261.8,115.2,261.8z M115.2,257.7c-0.3,0-0.5-0.2-0.5-0.5v-0.1c0-0.3,0.2-0.5,0.5-0.5c0.3,0,0.5,0.2,0.5,0.5
				v0.1C115.7,257.5,115.4,257.7,115.2,257.7z M115.2,253.6c-0.3,0-0.5-0.2-0.5-0.5V253c0-0.3,0.2-0.5,0.5-0.5
				c0.3,0,0.5,0.2,0.5,0.5C115.7,253.3,115.4,253.6,115.2,253.6z M115.2,249.5c-0.3,0-0.5-0.2-0.5-0.5v-0.1c0-0.3,0.2-0.5,0.5-0.5
				c0.3,0,0.5,0.2,0.5,0.5C115.7,249.2,115.4,249.5,115.2,249.5z M115.2,245.4c-0.3,0-0.5-0.2-0.5-0.5v-0.1c0-0.3,0.2-0.5,0.5-0.5
				c0.3,0,0.5,0.2,0.5,0.5v0.1C115.7,245.2,115.4,245.4,115.2,245.4z M115.2,241.3c-0.3,0-0.5-0.2-0.5-0.5v-0.1
				c0-0.3,0.2-0.5,0.5-0.5c0.3,0,0.5,0.2,0.5,0.5C115.7,241,115.4,241.3,115.2,241.3z M115.2,237.2c-0.3,0-0.5-0.2-0.5-0.5v-0.1
				c0-0.3,0.2-0.5,0.5-0.5c0.3,0,0.5,0.2,0.5,0.5v0.1C115.7,237,115.4,237.2,115.2,237.2z M115.2,233.1c-0.3,0-0.5-0.2-0.5-0.5v-0.1
				c0-0.3,0.2-0.5,0.5-0.5c0.3,0,0.5,0.2,0.5,0.5C115.7,232.8,115.4,233.1,115.2,233.1z M115.2,229c-0.3,0-0.5-0.2-0.5-0.5v-0.1
				c0-0.3,0.2-0.5,0.5-0.5c0.3,0,0.5,0.2,0.5,0.5v0.1C115.7,228.8,115.4,229,115.2,229z M115.2,224.9c-0.3,0-0.5-0.2-0.5-0.5v-0.1
				c0-0.3,0.2-0.5,0.5-0.5c0.3,0,0.5,0.2,0.5,0.5v0.1C115.7,224.7,115.4,224.9,115.2,224.9z M115.2,220.8c-0.3,0-0.5-0.2-0.5-0.5
				v-0.1c0-0.3,0.2-0.5,0.5-0.5c0.3,0,0.5,0.2,0.5,0.5C115.7,220.5,115.4,220.8,115.2,220.8z M115.2,216.7c-0.3,0-0.5-0.2-0.5-0.5
				v-0.1c0-0.3,0.2-0.5,0.5-0.5c0.3,0,0.5,0.2,0.5,0.5v0.1C115.7,216.5,115.4,216.7,115.2,216.7z M115.2,212.6
				c-0.3,0-0.5-0.2-0.5-0.5V212c0-0.3,0.2-0.5,0.5-0.5c0.3,0,0.5,0.2,0.5,0.5v0.1C115.7,212.4,115.4,212.6,115.2,212.6z
				 M115.2,208.5c-0.3,0-0.5-0.2-0.5-0.5v-0.1c0-0.3,0.2-0.5,0.5-0.5c0.3,0,0.5,0.2,0.5,0.5v0.1
				C115.7,208.3,115.4,208.5,115.2,208.5z M115.2,204.4c-0.3,0-0.5-0.2-0.5-0.5v-0.1c0-0.3,0.2-0.5,0.5-0.5c0.3,0,0.5,0.2,0.5,0.5
				v0.1C115.7,204.2,115.4,204.4,115.2,204.4z M115.2,200.3c-0.3,0-0.5-0.2-0.5-0.5v-0.1c0-0.3,0.2-0.5,0.5-0.5
				c0.3,0,0.5,0.2,0.5,0.5C115.7,200,115.4,200.3,115.2,200.3z M115.2,196.2c-0.3,0-0.5-0.2-0.5-0.5v-0.1c0-0.3,0.2-0.5,0.5-0.5
				c0.3,0,0.5,0.2,0.5,0.5v0.1C115.7,196,115.4,196.2,115.2,196.2z M115.2,192.1c-0.3,0-0.5-0.2-0.5-0.5v-0.1c0-0.3,0.2-0.5,0.5-0.5
				c0.3,0,0.5,0.2,0.5,0.5v0.1C115.7,191.9,115.4,192.1,115.2,192.1z M115.2,188c-0.3,0-0.5-0.2-0.5-0.5v-0.1c0-0.3,0.2-0.5,0.5-0.5
				c0.3,0,0.5,0.2,0.5,0.5v0.1C115.7,187.8,115.4,188,115.2,188z M115.2,183.9c-0.3,0-0.5-0.2-0.5-0.5v-0.1c0-0.3,0.2-0.5,0.5-0.5
				c0.3,0,0.5,0.2,0.5,0.5v0.1C115.7,183.7,115.4,183.9,115.2,183.9z M115.2,179.8c-0.3,0-0.5-0.2-0.5-0.5v-0.1
				c0-0.3,0.2-0.5,0.5-0.5c0.3,0,0.5,0.2,0.5,0.5C115.7,179.5,115.4,179.8,115.2,179.8z M115.2,175.7c-0.3,0-0.5-0.2-0.5-0.5v-0.1
				c0-0.3,0.2-0.5,0.5-0.5c0.3,0,0.5,0.2,0.5,0.5v0.1C115.7,175.5,115.4,175.7,115.2,175.7z M115.2,171.6c-0.3,0-0.5-0.2-0.5-0.5
				V171c0-0.3,0.2-0.5,0.5-0.5c0.3,0,0.5,0.2,0.5,0.5v0.1C115.7,171.4,115.4,171.6,115.2,171.6z M115.2,167.5
				c-0.3,0-0.5-0.2-0.5-0.5v-0.1c0-0.3,0.2-0.5,0.5-0.5c0.3,0,0.5,0.2,0.5,0.5v0.1C115.7,167.3,115.4,167.5,115.2,167.5z
				 M115.2,163.4c-0.3,0-0.5-0.2-0.5-0.5v-0.1c0-0.3,0.2-0.5,0.5-0.5c0.3,0,0.5,0.2,0.5,0.5v0.1
				C115.7,163.2,115.4,163.4,115.2,163.4z M115.2,159.3c-0.3,0-0.5-0.2-0.5-0.5v-0.1c0-0.3,0.2-0.5,0.5-0.5c0.3,0,0.5,0.2,0.5,0.5
				C115.7,159,115.4,159.3,115.2,159.3z M115.2,155.2c-0.3,0-0.5-0.2-0.5-0.5v-0.1c0-0.3,0.2-0.5,0.5-0.5c0.3,0,0.5,0.2,0.5,0.5v0.1
				C115.7,155,115.4,155.2,115.2,155.2z M115.2,151.1c-0.3,0-0.5-0.2-0.5-0.5v-0.1c0-0.3,0.2-0.5,0.5-0.5c0.3,0,0.5,0.2,0.5,0.5v0.1
				C115.7,150.9,115.4,151.1,115.2,151.1z M115.2,147c-0.3,0-0.5-0.2-0.5-0.5v-0.1c0-0.3,0.2-0.5,0.5-0.5c0.3,0,0.5,0.2,0.5,0.5v0.1
				C115.7,146.8,115.4,147,115.2,147z M115.2,142.9c-0.3,0-0.5-0.2-0.5-0.5v-0.1c0-0.3,0.2-0.5,0.5-0.5c0.3,0,0.5,0.2,0.5,0.5v0.1
				C115.7,142.7,115.4,142.9,115.2,142.9z M115.2,138.8c-0.3,0-0.5-0.2-0.5-0.5v-0.1c0-0.3,0.2-0.5,0.5-0.5c0.3,0,0.5,0.2,0.5,0.5
				C115.7,138.5,115.4,138.8,115.2,138.8z M115.2,134.7c-0.3,0-0.5-0.2-0.5-0.5v-0.1c0-0.3,0.2-0.5,0.5-0.5c0.3,0,0.5,0.2,0.5,0.5
				v0.1C115.7,134.5,115.4,134.7,115.2,134.7z M115.2,130.6c-0.3,0-0.5-0.2-0.5-0.5V130c0-0.3,0.2-0.5,0.5-0.5
				c0.3,0,0.5,0.2,0.5,0.5v0.1C115.7,130.4,115.4,130.6,115.2,130.6z M115.2,126.5c-0.3,0-0.5-0.2-0.5-0.5v-0.1
				c0-0.3,0.2-0.5,0.5-0.5c0.3,0,0.5,0.2,0.5,0.5v0.1C115.7,126.3,115.4,126.5,115.2,126.5z M115.2,122.4c-0.3,0-0.5-0.2-0.5-0.5
				v-0.1c0-0.3,0.2-0.5,0.5-0.5c0.3,0,0.5,0.2,0.5,0.5v0.1C115.7,122.2,115.4,122.4,115.2,122.4z M117.1,119.5
				c-0.2,0-0.3-0.1-0.4-0.3c-0.1-0.2-0.1-0.5,0.2-0.7l0.1,0c0.2-0.1,0.5-0.1,0.7,0.2c0.1,0.2,0.1,0.5-0.2,0.7l-0.1,0
				C117.3,119.4,117.2,119.5,117.1,119.5z M120.7,117.4c-0.2,0-0.4-0.1-0.4-0.2c-0.1-0.2-0.1-0.5,0.1-0.7l0.1,0
				c0.2-0.1,0.5-0.1,0.7,0.2c0.1,0.2,0.1,0.5-0.2,0.7C120.9,117.4,120.8,117.4,120.7,117.4z M124.3,115.4c-0.2,0-0.4-0.1-0.4-0.2
				c-0.1-0.2-0.1-0.5,0.1-0.7l0.1,0c0.2-0.1,0.5-0.1,0.7,0.2c0.1,0.2,0.1,0.5-0.2,0.7C124.5,115.3,124.4,115.4,124.3,115.4z
				 M127.8,113.4c-0.2,0-0.3-0.1-0.4-0.3c-0.1-0.2-0.1-0.5,0.2-0.7l0.1,0c0.2-0.1,0.5-0.1,0.7,0.2c0.1,0.2,0.1,0.5-0.2,0.7l-0.1,0
				C127.9,113.3,127.9,113.4,127.8,113.4z M131.4,111.3c-0.2,0-0.4-0.1-0.4-0.2c-0.1-0.2-0.1-0.5,0.1-0.7l0.1,0
				c0.2-0.1,0.5-0.1,0.7,0.2c0.1,0.2,0.1,0.5-0.2,0.7C131.6,111.3,131.5,111.3,131.4,111.3z M134.9,109.3c-0.2,0-0.4-0.1-0.4-0.2
				c-0.1-0.2-0.1-0.5,0.1-0.7l0.1,0c0.2-0.1,0.5-0.1,0.7,0.2c0.1,0.2,0.1,0.5-0.2,0.7C135.1,109.2,135,109.3,134.9,109.3z
				 M138.5,107.3c-0.2,0-0.3-0.1-0.4-0.3c-0.1-0.2-0.1-0.5,0.2-0.7l0.1,0c0.2-0.1,0.5-0.1,0.7,0.2c0.1,0.2,0.1,0.5-0.2,0.7l-0.1,0
				C138.6,107.3,138.5,107.3,138.5,107.3z M142.1,105.2c-0.2,0-0.4-0.1-0.4-0.2c-0.1-0.2-0.1-0.5,0.1-0.7l0.1,0
				c0.2-0.1,0.5-0.1,0.7,0.2c0.1,0.2,0.1,0.5-0.2,0.7C142.3,105.2,142.2,105.2,142.1,105.2z M145.6,103.2c-0.2,0-0.4-0.1-0.4-0.2
				c-0.1-0.2-0.1-0.5,0.1-0.7l0.1,0c0.2-0.1,0.5-0.1,0.7,0.2c0.1,0.2,0.1,0.5-0.2,0.7C145.8,103.1,145.7,103.2,145.6,103.2z
				 M149.1,101.2c-0.2,0-0.3-0.1-0.4-0.3c-0.1-0.2-0.1-0.5,0.2-0.7l0.1,0c0.2-0.1,0.5-0.1,0.7,0.2c0.1,0.2,0.1,0.5-0.2,0.7l-0.1,0
				C149.3,101.2,149.2,101.2,149.1,101.2z M152.8,99.1c-0.2,0-0.4-0.1-0.4-0.2c-0.1-0.2-0.1-0.5,0.1-0.7l0.1,0
				c0.2-0.1,0.5-0.1,0.7,0.2c0.1,0.2,0.1,0.5-0.2,0.7C152.9,99.1,152.8,99.1,152.8,99.1z M156.3,97.1c-0.2,0-0.4-0.1-0.4-0.2
				c-0.1-0.2-0.1-0.5,0.1-0.7l0.1,0c0.2-0.1,0.5-0.1,0.7,0.2c0.1,0.2,0.1,0.5-0.2,0.7C156.5,97,156.4,97.1,156.3,97.1z M159.8,95.1
				c-0.2,0-0.3-0.1-0.4-0.3c-0.1-0.2-0.1-0.5,0.2-0.7l0.1,0c0.2-0.1,0.5-0.1,0.7,0.2c0.1,0.2,0.1,0.5-0.2,0.7l-0.1,0
				C160,95.1,159.9,95.1,159.8,95.1z"/>
			<path class="st1" d="M186.5,124.3c-0.2,0-0.4-0.1-0.4-0.2c-0.1-0.2-0.1-0.5,0.1-0.7l0.1,0c0.2-0.1,0.5-0.1,0.7,0.2
				c0.1,0.2,0.1,0.5-0.2,0.7C186.7,124.3,186.6,124.3,186.5,124.3z M184.8,123.1c-0.3,0-0.5-0.2-0.5-0.5v-0.1c0-0.3,0.2-0.5,0.5-0.5
				c0.3,0,0.5,0.2,0.5,0.5v0.1C185.3,122.9,185.1,123.1,184.8,123.1z M190,122.2c-0.2,0-0.4-0.1-0.4-0.2c-0.1-0.2-0.1-0.5,0.1-0.7
				l0.1,0c0.2-0.1,0.5-0.1,0.7,0.2c0.1,0.2,0.1,0.5-0.2,0.7C190.2,122.2,190.1,122.2,190,122.2z M193.6,120.2
				c-0.2,0-0.4-0.1-0.4-0.2c-0.1-0.2-0.1-0.5,0.1-0.7l0.1,0c0.2-0.1,0.5-0.1,0.7,0.2c0.1,0.2,0.1,0.5-0.2,0.7
				C193.8,120.2,193.7,120.2,193.6,120.2z M184.8,119c-0.3,0-0.5-0.2-0.5-0.5v-0.1c0-0.3,0.2-0.5,0.5-0.5c0.3,0,0.5,0.2,0.5,0.5v0.1
				C185.3,118.8,185.1,119,184.8,119z M197.1,118.1c-0.2,0-0.4-0.1-0.4-0.2c-0.1-0.2-0.1-0.5,0.1-0.7l0.1,0c0.2-0.1,0.5-0.1,0.7,0.2
				c0.1,0.2,0.1,0.5-0.2,0.7C197.3,118.1,197.2,118.1,197.1,118.1z M200.6,116.1c-0.2,0-0.3-0.1-0.4-0.2c-0.1-0.2-0.1-0.5,0.2-0.7
				l0.1-0.1c0.2-0.1,0.5-0.1,0.7,0.2c0.1,0.2,0.1,0.5-0.2,0.7l-0.1,0.1C200.8,116.1,200.7,116.1,200.6,116.1z M184.8,114.9
				c-0.3,0-0.5-0.2-0.5-0.5c0-0.3,0.2-0.5,0.5-0.5c0.3,0,0.5,0.2,0.5,0.5v0.1C185.3,114.7,185.1,114.9,184.8,114.9z M204.2,114
				c-0.2,0-0.4-0.1-0.4-0.2c-0.1-0.2-0.1-0.5,0.1-0.7l0.1-0.1c0.2-0.1,0.5-0.1,0.7,0.2c0.1,0.2,0.1,0.5-0.2,0.7
				C204.4,114,204.3,114,204.2,114z M207.8,112c-0.2,0-0.4-0.1-0.4-0.2c-0.1-0.2-0.1-0.5,0.1-0.7l0.1-0.1c0.2-0.1,0.5-0.1,0.7,0.2
				c0.1,0.2,0.1,0.5-0.2,0.7C208,111.9,207.9,112,207.8,112z M184.8,110.8c-0.3,0-0.5-0.2-0.5-0.5v-0.1c0-0.3,0.2-0.5,0.5-0.5
				c0.3,0,0.5,0.2,0.5,0.5v0.1C185.3,110.6,185.1,110.8,184.8,110.8z M211.3,110c-0.2,0-0.3-0.1-0.4-0.2c-0.1-0.2-0.1-0.5,0.2-0.7
				l0.1-0.1c0.2-0.1,0.5-0.1,0.7,0.2c0.1,0.2,0.1,0.5-0.2,0.7l-0.1,0.1C211.5,109.9,211.4,110,211.3,110z M214.9,107.9
				c-0.2,0-0.4-0.1-0.4-0.2c-0.1-0.2-0.1-0.5,0.1-0.7l0.1-0.1c0.2-0.1,0.5-0.1,0.7,0.2c0.1,0.2,0.1,0.5-0.2,0.7
				C215.1,107.8,215,107.9,214.9,107.9z M184.8,106.7c-0.3,0-0.5-0.2-0.5-0.5v-0.1c0-0.3,0.2-0.5,0.5-0.5c0.3,0,0.5,0.2,0.5,0.5v0.1
				C185.3,106.5,185.1,106.7,184.8,106.7z M218.4,105.8c-0.2,0-0.4-0.1-0.4-0.2c-0.1-0.2-0.1-0.5,0.1-0.7l0.1,0
				c0.2-0.1,0.5-0.1,0.7,0.2c0.1,0.2,0.1,0.5-0.2,0.7C218.6,105.8,218.5,105.8,218.4,105.8z M221.9,103.8c-0.2,0-0.3-0.1-0.4-0.3
				c-0.1-0.2-0.1-0.5,0.2-0.7l0.1,0c0.2-0.1,0.5-0.1,0.7,0.2c0.1,0.2,0.1,0.5-0.2,0.7l-0.1,0C222.1,103.8,222,103.8,221.9,103.8z
				 M225.5,101.7c-0.2,0-0.4-0.1-0.4-0.2c-0.1-0.2-0.1-0.5,0.1-0.7l0.1,0c0.2-0.1,0.5-0.1,0.7,0.2c0.1,0.2,0.1,0.5-0.2,0.7
				C225.7,101.7,225.6,101.7,225.5,101.7z"/>
		</g>
	</g>
</g>
<g>
	<g>
		<linearGradient id="SVGID_5_" gradientUnits="userSpaceOnUse" x1="351.7483" y1="98.4538" x2="437.5277" y2="98.4538">
			<stop  offset="0" style="stop-color:#E6F0FF"/>
			<stop  offset="0.3214" style="stop-color:#E0ECFF"/>
			<stop  offset="0.7488" style="stop-color:#CFE1FF"/>
			<stop  offset="1" style="stop-color:#C2D9FF"/>
		</linearGradient>
		<path class="st6" d="M435.7,101.2l-36.3,21c-2.6,1.5-7.3,1.3-10.4-0.4l-34.8-20.1c-3.1-1.8-3.4-4.5-0.7-6l36.3-21
			c2.6-1.5,7.3-1.3,10.4,0.4L435,95.2C438.1,97,438.4,99.7,435.7,101.2z"/>
		<g>
			<path class="st7" d="M437.5,230V99.1l0,0c0,0,0,0,0,0c-0.2,0.8-0.7,1.5-1.7,2.1l-36.3,21c-1.3,0.7-3,1.1-4.8,1V255
				c1.8,0,3.5-0.3,4.8-1l36.3-21C437.1,232.3,437.7,231.2,437.5,230z"/>
			<path class="st8" d="M389.1,121.8l-34.8-20.1c-1.5-0.8-2.3-1.9-2.5-2.9v130.9c-0.3,1.3,0.6,2.8,2.5,3.9l34.8,20.1
				c1.6,0.9,3.6,1.4,5.6,1.4V123.2C392.7,123.2,390.7,122.7,389.1,121.8z"/>
			<path class="st7" d="M389.1,121.8l-34.8-20.1c-1.5-0.8-2.3-1.9-2.5-2.9v130.9c-0.3,1.3,0.6,2.8,2.5,3.9l34.8,20.1
				c1.6,0.9,3.6,1.4,5.6,1.4V123.2C392.7,123.2,390.7,122.7,389.1,121.8z"/>
		</g>
	</g>
	<g>
		<g>
			<path class="st9" d="M424.8,113.5c0,7.4-3.9,11.5-9.5,11c-1.3,0.1-2.7-0.2-4.3-1.1l-46.4-26.8c-0.4-0.2-0.8-0.5-1.1-0.7
				c-7.8-5.4-13.9-16.6-13.9-25.8c0-9,5.8-13.1,13.3-10c1.1-6.4,6.5-8.7,12.9-4.9c2.1,1.2,4.2,3,6,5.1c3.4-2.9,8.6-3,14.5,0.4
				c8.8,5.1,16.1,16.3,18.1,26.9c2.7,1.9,4.7,5.7,4.8,8.9C422.6,101.6,424.8,107.9,424.8,113.5z"/>
			<g>
				<path class="st10" d="M429.1,90.6c-0.1-3.2-2.1-7-4.8-8.9c-2-10.6-9.3-21.9-18.1-26.9c-5.1-3-9.8-3.2-13.2-1.3l-1.4,0.8
					c-1.8-2-3.7-3.8-5.9-5c-3.6-2.1-6.9-2.3-9.3-0.9l-8.4,4.8c-1.4,0-2.6,0.3-3.7,0.9l-9.9,5.7c2.3-1.2,5.2-1.2,8.5,0.1
					c1.1-6.4,6.5-8.7,12.9-4.9c2.1,1.2,4.2,3,6,5.1c3.4-2.9,8.6-3,14.5,0.4c8.8,5.1,16.1,16.3,18.1,26.9c2.7,1.9,4.7,5.7,4.8,8.9
					c3.5,5.3,5.7,11.5,5.7,17.1c0,5.1-1.8,8.6-4.8,10.1l9.9-5.7c3-1.5,4.9-5.1,4.9-10.2C434.8,102.2,432.6,95.9,429.1,90.6z"/>
			</g>
		</g>
		<g>
			<path class="st11" d="M370.7,90c0,1.8-1.3,2.6-2.9,1.7s-2.9-3.1-2.9-5c0-1.8,1.3-2.6,2.9-1.7S370.7,88.2,370.7,90z"/>
			<path class="st11" d="M379.6,95.2c0,1.8-1.3,2.6-2.9,1.7c-1.6-0.9-2.9-3.1-2.9-5s1.3-2.6,2.9-1.7S379.6,93.3,379.6,95.2z"/>
			<path class="st11" d="M388.6,100.3c0,1.8-1.3,2.6-2.9,1.7c-1.6-0.9-2.9-3.1-2.9-5c0-1.8,1.3-2.6,2.9-1.7
				C387.3,96.3,388.6,98.5,388.6,100.3z"/>
			<path class="st11" d="M397.5,105.5c0,1.8-1.3,2.6-2.9,1.7c-1.6-0.9-2.9-3.1-2.9-5c0-1.8,1.3-2.6,2.9-1.7
				C396.2,101.5,397.5,103.7,397.5,105.5z"/>
			<path class="st11" d="M406.5,110.7c0,1.8-1.3,2.6-2.9,1.7s-2.9-3.1-2.9-5c0-1.8,1.3-2.6,2.9-1.7
				C405.2,106.6,406.5,108.8,406.5,110.7z"/>
		</g>
	</g>
</g>
<g>
	<linearGradient id="SVGID_6_" gradientUnits="userSpaceOnUse" x1="333.2365" y1="335.38" x2="438.155" y2="335.38">
		<stop  offset="0" style="stop-color:#E6F0FF"/>
		<stop  offset="0.3214" style="stop-color:#E0ECFF"/>
		<stop  offset="0.7488" style="stop-color:#CFE1FF"/>
		<stop  offset="1" style="stop-color:#C2D9FF"/>
	</linearGradient>
	<path class="st12" d="M436.2,327.3l-66.5,37.2c-2.9,1.7-8.1,1.5-11.5-0.5l-22.1-13.2c-3.4-2-3.8-5-0.8-6.7l66.2-38
		c2.9-1.7,8.1-1.5,11.5,0.5l22.4,13.9C438.7,322.6,439.1,325.6,436.2,327.3z"/>
	<g>
		<path class="st7" d="M438.1,331.5v-6.5c0,0,0,0,0,0v0c-0.2,0.9-0.8,1.7-1.9,2.4l-66.5,37.2c-1.4,0.8-3.4,1.2-5.4,1.1v7.6
			c2,0,3.9-0.3,5.4-1.1l66.5-37.2C437.7,334,438.3,332.7,438.1,331.5z"/>
		<path class="st7" d="M358.2,364.1l-22.1-13.2c-1.6-0.9-2.5-2.1-2.8-3.3v6.5c-0.3,1.5,0.6,3.1,2.8,4.3l22.1,13.2
			c1.8,1,4,1.6,6.2,1.6v-7.6C362.2,365.6,359.9,365.1,358.2,364.1z"/>
	</g>
</g>
<g>
	<linearGradient id="SVGID_7_" gradientUnits="userSpaceOnUse" x1="360.9088" y1="376.3391" x2="465.8273" y2="376.3391">
		<stop  offset="0" style="stop-color:#E6F0FF"/>
		<stop  offset="0.3214" style="stop-color:#E0ECFF"/>
		<stop  offset="0.7488" style="stop-color:#CFE1FF"/>
		<stop  offset="1" style="stop-color:#C2D9FF"/>
	</linearGradient>
	<path class="st13" d="M463.8,368.3l-66.5,37.2c-2.9,1.7-8.1,1.5-11.5-0.5l-22.1-13.2c-3.4-2-3.8-5-0.8-6.7l66.2-38
		c2.9-1.7,8.1-1.5,11.5,0.5l22.4,13.9C466.4,363.6,466.8,366.6,463.8,368.3z"/>
	<g>
		<path class="st7" d="M465.8,372.4v-6.5l0,0v0c-0.2,0.9-0.8,1.7-1.9,2.4l-66.5,37.2c-1.4,0.8-3.4,1.2-5.4,1.1v7.6
			c2,0,3.9-0.3,5.4-1.1l66.5-37.2C465.4,374.9,466,373.7,465.8,372.4z"/>
		<path class="st7" d="M385.8,405l-22.1-13.2c-1.6-0.9-2.5-2.1-2.8-3.3v6.5c-0.3,1.5,0.6,3.1,2.8,4.3l22.1,13.2c1.8,1,4,1.6,6.2,1.6
			v-7.6C389.8,406.6,387.6,406,385.8,405z"/>
	</g>
</g>
<g>
	<g>
		<linearGradient id="SVGID_8_" gradientUnits="userSpaceOnUse" x1="91.3408" y1="275.1705" x2="458.0713" y2="275.1705">
			<stop  offset="0" style="stop-color:#E6F0FF"/>
			<stop  offset="0.3214" style="stop-color:#E0ECFF"/>
			<stop  offset="0.7488" style="stop-color:#CFE1FF"/>
			<stop  offset="1" style="stop-color:#C2D9FF"/>
		</linearGradient>
		<path class="st14" d="M452.1,262.9L254.9,376.5c-8.9,5.1-24.5,4.5-34.8-1.4L99.8,305.9c-10.3-5.9-11.4-15-2.5-20.1l200.6-111.9
			c8.9-5.1,24.5-4.5,34.8,1.4l116.9,67.5C459.8,248.7,461,257.8,452.1,262.9z"/>
		<g>
			<path class="st7" d="M457.9,261.2v-5.4l0,0c0,0,0,0,0,0c-0.5,2.7-2.5,5.2-5.8,7.1L254.9,376.5c-4.3,2.5-10.1,3.6-16.2,3.4v8.6
				c6,0.1,11.9-0.9,16.2-3.4l197.2-113.6C456.7,268.8,458.6,265,457.9,261.2z"/>
			<path class="st15" d="M220.1,375L99.8,305.9c-4.9-2.8-7.7-6.4-8.3-9.8v5.4c-0.9,4.4,1.9,9.3,8.3,13l120.3,69.2
				c5.3,3.1,12.1,4.7,18.6,4.9v-8.6C232.2,379.7,225.4,378.1,220.1,375z"/>
			<path class="st7" d="M220.1,375L99.8,305.9c-4.9-2.8-7.7-6.4-8.3-9.8v5.4c-0.9,4.4,1.9,9.3,8.3,13l120.3,69.2
				c5.3,3.1,12.1,4.7,18.6,4.9v-8.6C232.2,379.7,225.4,378.1,220.1,375z"/>
		</g>
	</g>
	<g>
		<g>
			<polygon class="st11" points="266.9,325.4 225.7,349.2 121,288.7 162.1,264.9 			"/>
			<polygon class="st7" points="266.9,325.4 266.9,342.5 225.7,366.3 225.7,349.2 			"/>
			<polygon class="st7" points="121,288.7 121,305.8 225.7,366.3 225.7,349.2 			"/>
		</g>
		<g>
			<g>
				<path class="st16" d="M181.4,283.2l-18.1,10.4c-1.3,0.8-3.6,0.7-5.2-0.2l-17.3-10c-1.5-0.9-1.7-2.2-0.4-3l18.1-10.4
					c1.3-0.8,3.6-0.7,5.2,0.2l17.3,10C182.5,281.1,182.7,282.5,181.4,283.2z"/>
				<g>
					<path class="st17" d="M182.2,290.1v-8v0v0c-0.1,0.4-0.4,0.8-0.9,1.1l-18.1,10.4c-0.6,0.4-1.5,0.5-2.4,0.5v8.4
						c0.9,0,1.8-0.1,2.4-0.5l18.1-10.4C182.1,291.3,182.3,290.7,182.2,290.1z"/>
					<path class="st7" d="M158.2,293.5l-17.3-10c-0.7-0.4-1.1-0.9-1.2-1.5v8c-0.1,0.7,0.3,1.4,1.2,1.9l17.3,10
						c0.8,0.5,1.8,0.7,2.8,0.7v-8.4C159.9,294.2,158.9,293.9,158.2,293.5z"/>
				</g>
			</g>
			<g>
				<path class="st16" d="M213.2,301.7l-18.1,10.4c-1.3,0.8-3.6,0.7-5.2-0.2l-17.3-10c-1.5-0.9-1.7-2.2-0.4-3l18.1-10.4
					c1.3-0.8,3.6-0.7,5.2,0.2l17.3,10C214.4,299.6,214.6,300.9,213.2,301.7z"/>
				<g>
					<path class="st17" d="M214.1,308.6v-8v0v0c-0.1,0.4-0.4,0.8-0.9,1.1l-18.1,10.4c-0.6,0.4-1.5,0.5-2.4,0.5v8.4
						c0.9,0,1.8-0.1,2.4-0.5l18.1-10.4C213.9,309.7,214.2,309.2,214.1,308.6z"/>
					<path class="st7" d="M190,311.9l-17.3-10c-0.7-0.4-1.1-0.9-1.2-1.5v8c-0.1,0.7,0.3,1.4,1.2,1.9l17.3,10
						c0.8,0.5,1.8,0.7,2.8,0.7v-8.4C191.8,312.6,190.8,312.4,190,311.9z"/>
				</g>
			</g>
			<g>
				<path class="st16" d="M245.8,320.4l-18.1,10.4c-1.3,0.8-3.6,0.7-5.2-0.2l-17.3-10c-1.5-0.9-1.7-2.2-0.4-3l18.1-10.4
					c1.3-0.8,3.6-0.7,5.2,0.2l17.3,10C246.9,318.3,247.1,319.7,245.8,320.4z"/>
				<g>
					<path class="st17" d="M246.6,327.3v-8l0,0v0c-0.1,0.4-0.4,0.8-0.9,1.1l-18.1,10.4c-0.6,0.4-1.5,0.5-2.4,0.5v8.4
						c0.9,0,1.8-0.1,2.4-0.5l18.1-10.4C246.5,328.4,246.7,327.9,246.6,327.3z"/>
					<path class="st7" d="M222.5,330.6l-17.3-10c-0.7-0.4-1.1-0.9-1.2-1.5v8c-0.1,0.7,0.3,1.4,1.2,1.9l17.3,10
						c0.8,0.5,1.8,0.7,2.8,0.7v-8.4C224.3,331.3,223.3,331.1,222.5,330.6z"/>
				</g>
			</g>
		</g>
	</g>
	<g>
		<g>
			<path class="st11" d="M436.2,221.8c10.9,6.3,10.9,16.5,0,22.7c-10.9,6.3-28.5,6.3-39.4,0c-10.9-6.3-10.9-16.5,0-22.7
				C407.6,215.6,425.3,215.6,436.2,221.8z"/>
			<g>
				<path class="st7" d="M436.2,244.6c-10.9,6.3-28.5,6.3-39.4,0c-5.4-3.1-8.1-7.2-8.2-11.3v17.3c0,4.1,2.7,8.3,8.2,11.5
					c10.9,6.3,28.5,6.3,39.4,0c5.5-3.2,8.2-7.3,8.2-11.5v-17.3C444.3,237.4,441.6,241.5,436.2,244.6z"/>
			</g>
		</g>
		<g>
			<path class="st18" d="M416.5,221l17,9.8c-9.3,5.4-24.7,5.4-34,0c-9.3-5.4-9.3-14.3,0-19.6c5.2-3,12.5-4.5,19.9-4L416.5,221z"/>
			<g>
				<path class="st7" d="M399.4,230.8c-4.6-2.7-7-6.2-7-9.8v9.9c0,3.6,2.3,7.2,7,9.9c9.3,5.4,24.7,5.4,34,0v-10
					C424.1,236.2,408.8,236.2,399.4,230.8z"/>
			</g>
			<linearGradient id="SVGID_9_" gradientUnits="userSpaceOnUse" x1="392.4468" y1="220.9501" x2="433.468" y2="220.9501">
				<stop  offset="0" style="stop-color:#E6F0FF"/>
				<stop  offset="0.3214" style="stop-color:#E0ECFF"/>
				<stop  offset="0.7488" style="stop-color:#CFE1FF"/>
				<stop  offset="1" style="stop-color:#C2D9FF"/>
			</linearGradient>
			<path class="st19" d="M416.5,221l17,9.8c-9.3,5.4-24.7,5.4-34,0c-9.3-5.4-9.3-14.3,0-19.6c5.2-3,12.5-4.5,19.9-4L416.5,221z"/>
			<path class="st20" d="M416.5,210.8l2.8-13.8c5.4,0.4,10.3,1.8,14.2,4c9.3,5.4,9.3,14.3,0,19.6L416.5,210.8z"/>
			<polygon class="st9" points="416.5,210.8 416.5,221 433.5,230.8 433.5,220.6 			"/>
			<path class="st21" d="M440.5,230.8v-20c0,3.5-2.4,7.1-7,9.7v10.2v10C438.2,238.1,440.5,234.4,440.5,230.8z"/>
		</g>
	</g>
	<g>
		<g>
			<g>
				<path class="st11" d="M359.2,205.6l-39.6-22.9c-4.7-2.7-4.1-7.4,1.3-10.5v0c5.4-3.1,13.6-3.5,18.3-0.8l39.6,22.9
					c4.7,2.7,4.1,7.4-1.3,10.5l0,0C372,207.9,363.8,208.3,359.2,205.6z"/>
			</g>
			<g>
				<path class="st7" d="M377.4,204.8c-5.4,3.1-13.6,3.5-18.3,0.8l-39.6-22.9c-2-1.2-3.1-2.7-3.2-4.4l0,0V190c0,0,0,0.1,0,0.1
					c0,1.7,1.1,3.3,3.2,4.5l39.6,22.9c4.7,2.7,12.9,2.4,18.3-0.8c3.1-1.8,4.6-4,4.5-6.2v-11.8C381.9,200.9,380.4,203.1,377.4,204.8z
					"/>
			</g>
		</g>
		<g>
			<path class="st1" d="M336.4,179.3c-2,1.2-5.3,1.2-7.4,0c-2-1.2-2-3.1,0-4.2c2-1.2,5.3-1.2,7.4,0
				C338.5,176.2,338.5,178.1,336.4,179.3z"/>
			<path class="st1" d="M347.9,185.9c-2,1.2-5.3,1.2-7.4,0c-2-1.2-2-3.1,0-4.2c2-1.2,5.3-1.2,7.4,0
				C349.9,182.8,349.9,184.7,347.9,185.9z"/>
			<path class="st1" d="M359.4,192.5c-2,1.2-5.3,1.2-7.4,0c-2-1.2-2-3.1,0-4.2c2-1.2,5.3-1.2,7.4,0
				C361.4,189.5,361.4,191.4,359.4,192.5z"/>
			<path class="st1" d="M370.9,199.2c-2,1.2-5.3,1.2-7.4,0c-2-1.2-2-3.1,0-4.2c2-1.2,5.3-1.2,7.4,0
				C372.9,196.1,372.9,198,370.9,199.2z"/>
		</g>
	</g>
</g>
<g>
	<g>
		<path class="st22" d="M342.6,185L342.6,185c1.4,0.2,2.7-0.7,2.9-2.1l2.5-14.2c0.2-1.4-0.7-2.7-2.1-2.9h0c-1.4-0.2-2.7,0.7-2.9,2.1
			l-2.5,14.2C340.3,183.4,341.2,184.7,342.6,185z"/>
		<path class="st22" d="M331.2,185.9L331.2,185.9c0.4,1.3,1.9,2.1,3.2,1.7l8.8-2.6c1.4-0.1,2.5-1.3,2.4-2.7l0,0
			c-0.1-1.4-1.3-2.5-2.7-2.4l-10,2.8C331.6,183.1,330.8,184.5,331.2,185.9z"/>
	</g>
	<g>
		<g>
			<g>
				<path class="st23" d="M357.6,227.8c0,0.3-0.2,0.6-0.7,0.9c-0.1,0.1,0-1.8-0.4-1.5c-0.1,0.1-6.2,4.9-9.7,4
					c-0.4-0.1-0.5-0.4-0.5-0.7l0-0.8c0-0.9,1.2-2.2,3.2-4.1c2.2-2.1,3.5-3.4,6.7-1.6c0.9,0.5,1.3,0.9,1.3,1.3L357.6,227.8z"/>
				<path class="st24" d="M349.5,225.6c-2.6,2.5-4,4-2.7,4.8c1.3,0.8,4-0.4,6.7-2.5c2.4-1.8,5.9-2,2.7-3.9
					C353,222.2,351.6,223.5,349.5,225.6z"/>
			</g>
		</g>
		<path class="st25" d="M352.1,224.4l0.2-23.4l7.7,2.5l-1.3,3.8c0,0,0.6,5.1-1,10.3c0,0-1.1,2.3-0.9,7.5
			C356.8,225.1,354,226.7,352.1,224.4z"/>
	</g>
	<g>
		<g>
			<g>
				<path class="st23" d="M350.1,221.7c0,0.3-0.2,0.6-0.7,0.9c-0.1,0.1,0-1.8-0.4-1.5c-0.1,0.1-6.2,4.9-9.7,4
					c-0.4-0.1-0.5-0.4-0.5-0.7l0-0.8c0-0.9,1.2-2.2,3.2-4.1c2.2-2.1,3.5-3.4,6.7-1.6c0.9,0.5,1.3,0.9,1.3,1.3L350.1,221.7z"/>
				<path class="st24" d="M342,219.5c-2.6,2.5-4,4-2.7,4.8c1.3,0.8,4-0.4,6.7-2.5c2.4-1.8,5.9-2,2.7-3.9
					C345.5,216.1,344.2,217.4,342,219.5z"/>
			</g>
		</g>
		<path class="st26" d="M344.6,218.3l0.2-23.4l7.7,2.5l-1.3,3.8c0,0,0.6,5.1-1,10.3c0,0-1.1,2.3-0.9,7.5
			C349.4,218.9,346.5,220.5,344.6,218.3z"/>
	</g>
	<path class="st27" d="M362.8,195.5v8.6c0,0-10.1,3.4-19.7-8.6v-8.4L362.8,195.5z"/>
	<path class="st28" d="M357.9,198.8c-0.1,0.1-0.2,0.1-0.3,0.1c-1.7,0.1-7.8-1.2-13.9-8.1c-0.5-0.6-0.8-1.3-0.8-2v-19.5
		c0-1.5,0.5-2.5,1.4-3l4.6-2.7c0.8-0.5,2-0.4,3.3,0.3l6.3,3.6c2.5,1.5,4.6,5,4.6,8v19.7c0,0.5-0.2,0.8-0.4,0.9L357.9,198.8z"/>
	<path class="st29" d="M356.2,168.8c0,0.5-0.3,1-0.9,1.3c-1.3,0.7-3.3,0.7-4.6,0c-0.6-0.4-1-0.9-0.9-1.3v-4.3c0-0.5,0.3-1,0.9-1.3
		c1.3-0.7,3.3-0.7,4.6,0c0.6,0.4,1,0.9,0.9,1.3V168.8z"/>
	<path class="st22" d="M355.9,162.8c0,1.1,0.7,1.5,1.7,1c0.9-0.5,1.7-1.8,1.7-2.9c0-1.1-0.7-1.5-1.7-1
		C356.7,160.4,355.9,161.7,355.9,162.8z"/>
	<path class="st30" d="M347.2,174.2c0,0-8.6-7.8-3.4-21.8l4,14.5L347.2,174.2z"/>
	<circle class="st25" cx="353" cy="157.7" r="8.9"/>
	<path class="st30" d="M350.3,174.2c0,0,6.6-7.3,2-20.9l-8.3,2.8c0,0-2.8-7,6.5-9.1c0,0,6.2-1.4,8.4,3.8c0,0,5,0.4,3.1,10.7
		C362.1,161.7,361.8,171.4,350.3,174.2z"/>
	<g>
		<path class="st22" d="M356.2,190.7L356.2,190.7c1.3,0.4,2.8-0.4,3.1-1.8l3.9-14.6c0.4-1.3-0.4-2.8-1.8-3.1l0,0
			c-1.3-0.4-2.8,0.4-3.1,1.8l-3.9,14.6C354.1,188.9,354.8,190.3,356.2,190.7z"/>
		<path class="st22" d="M342,191.2L342,191.2c0.3,1.4,1.6,2.2,3,2l11.8-2.4c1.4,0,2.6-1.1,2.6-2.5l0,0c0-1.4-1.1-2.6-2.5-2.6
			l-13,2.5C342.5,188.5,341.7,189.8,342,191.2z"/>
	</g>
</g>
<g>
	<g>
		<path class="st11" d="M181.6,250.9v-87.6c0-2.2,1.2-4.3,3.1-5.4L290,97.2c4.1-2.4,9.3,0.6,9.3,5.4v87.6c0,2.2-1.2,4.3-3.1,5.4
			L191,256.3C186.8,258.6,181.6,255.7,181.6,250.9z"/>
		<path class="st21" d="M187.9,255c-2,0-4.1-1.6-4.1-4.1v-87.6c0-1.5,0.8-2.8,2.1-3.6L291,99c0.6-0.4,1.3-0.6,2.1-0.6
			c2,0,4.1,1.6,4.1,4.1v87.6c0,1.5-0.8,2.8-2.1,3.6l-105.2,60.8C189.3,254.8,188.6,255,187.9,255z"/>
		<g>
			<path class="st7" d="M181.6,250.9v-87.6c0-2.2,1.2-4.3,3.1-5.4L290,97.2c1.7-1,3.7-1.1,5.3-0.4l0,0l-2.5-1.3
				c-1.9-1.4-4.5-1.7-6.8-0.4l-105.2,60.8c-1.9,1.1-3.1,3.2-3.1,5.4v87.6c0,2.1,1,3.9,2.6,5v0l0.1,0c0.4,0.3,0.9,0.5,1.3,0.7
				l2.8,1.5C182.8,254.9,181.6,253.1,181.6,250.9z"/>
			<path class="st7" d="M185.5,256.6L185.5,256.6L185.5,256.6C185.5,256.6,185.5,256.6,185.5,256.6z"/>
		</g>
	</g>
	<g>
		<path class="st11" d="M191,267l75.8,43.8c1.9,1.1,4.3,1.1,6.2,0L378.3,250c4.1-2.4,4.1-8.4,0-10.8l-75.8-43.8
			c-1.9-1.1-4.3-1.1-6.2,0L191,256.3C186.8,258.6,186.8,264.6,191,267z"/>
		<path class="st7" d="M378.3,250L273,310.8c-1.9,1.1-4.3,1.1-6.2,0L191,267c-2.1-1.2-3.1-3.3-3.1-5.4v5.7c0,2.1,1,4.2,3.1,5.4
			l75.8,43.8c1.9,1.1,4.3,1.1,6.2,0l105.2-60.8c2-1.1,3-3.1,3.1-5.1l0,0v-0.1c0-0.1,0-0.3,0-0.4v-5.2
			C381.3,246.9,380.3,248.9,378.3,250z M381.3,244.4C381.3,244.4,381.3,244.4,381.3,244.4L381.3,244.4L381.3,244.4z"/>
		<path class="st31" d="M339,232.9L248.6,285c-3.5,2-9.7,1.8-13.8-0.6l-27.2-15.7c-4.1-2.4-4.5-5.9-1-7.9l90.4-52.2
			c3.5-2,9.7-1.8,13.8,0.6l27.2,15.7C342.1,227.3,342.5,230.8,339,232.9z"/>
		<path class="st32" d="M206.7,262.1l90.4-52.2c3.5-2,9.7-1.8,13.8,0.6l27.2,15.7c1.9,1.1,3,2.5,3.3,3.9c0.4-1.7-0.8-3.7-3.3-5.1
			l-27.2-15.7c-4.1-2.4-10.2-2.6-13.8-0.6l-90.4,52.2c-1.8,1.1-2.6,2.5-2.3,4.1C204.6,263.8,205.4,262.8,206.7,262.1z"/>
		<path class="st32" d="M279.6,232.5l-4.8-2.8l-4.8,2.8l4.8,2.8L279.6,232.5z M270.2,237.9l-4.8-2.8l-4.8,2.8l4.8,2.8L270.2,237.9z
			 M289.1,227.1l-4.8-2.8l-4.8,2.8l4.8,2.8L289.1,227.1z M316.4,230l10-5.8l-4.8-2.8l-10,5.8L316.4,230z M318.3,219.5l-4.8-2.8
			l-4.8,2.8l4.8,2.8L318.3,219.5z M298.5,221.6l-4.8-2.8l-4.8,2.8l4.8,2.8L298.5,221.6z M260.8,243.4l-4.8-2.8l-4.8,2.8l4.8,2.8
			L260.8,243.4z M310,228.1l-82.6,47.7l4.8,2.8l82.6-47.7L310,228.1z M251.4,248.8l-4.8-2.8l-4.8,2.8l4.8,2.8L251.4,248.8z
			 M306.2,221l-86.9,50.2l4.8,2.8l86.9-50.2L306.2,221z M329.7,226.1l-94.2,54.4l4.8,2.8l94.2-54.4L329.7,226.1z M232.5,259.7
			l-4.8-2.8l-4.8,2.8l4.8,2.8L232.5,259.7z M241.9,254.3l-4.8-2.8l-4.8,2.8l4.8,2.8L241.9,254.3z"/>
		<path class="st17" d="M279.6,231.7l-4.8-2.8l-4.8,2.8l4.8,2.8L279.6,231.7z M270.2,237.1l-4.8-2.8l-4.8,2.8l4.8,2.8L270.2,237.1z
			 M289.1,226.2l-4.8-2.8l-4.8,2.8l4.8,2.8L289.1,226.2z M316.4,229.1l10-5.8l-4.8-2.8l-10,5.8L316.4,229.1z M318.3,218.7l-4.8-2.8
			l-4.8,2.8l4.8,2.8L318.3,218.7z M298.5,220.8l-4.8-2.8l-4.8,2.8l4.8,2.8L298.5,220.8z M260.8,242.5l-4.8-2.8l-4.8,2.8l4.8,2.8
			L260.8,242.5z M310,227.3L227.4,275l4.8,2.8l82.6-47.7L310,227.3z M251.4,248l-4.8-2.8l-4.8,2.8l4.8,2.8L251.4,248z M306.2,220.1
			l-86.9,50.2l4.8,2.8l86.9-50.2L306.2,220.1z M329.7,225.3l-94.2,54.4l4.8,2.8l94.2-54.4L329.7,225.3z M232.5,258.9l-4.8-2.8
			l-4.8,2.8l4.8,2.8L232.5,258.9z M241.9,253.4l-4.8-2.8l-4.8,2.8l4.8,2.8L241.9,253.4z"/>
		<path class="st11" d="M284.3,223.9l4.4,2.6l0.4-0.2l-4.8-2.8l-4.8,2.8l0.4,0.2L284.3,223.9z M293.7,218.4l4.4,2.6l0.4-0.2
			l-4.8-2.8l-4.8,2.8l0.4,0.2L293.7,218.4z M274.8,229.3l4.4,2.6l0.4-0.2l-4.8-2.8l-4.8,2.8l0.4,0.2L274.8,229.3z M312,226.6
			l9.6-5.6l4.4,2.6l0.4-0.2l-4.8-2.8l-10,5.8L312,226.6z M265.4,234.8l4.4,2.6l0.4-0.2l-4.8-2.8l-4.8,2.8l0.4,0.2L265.4,234.8z
			 M313.5,216.3l4.4,2.6l0.4-0.2l-4.8-2.8l-4.8,2.8l0.4,0.2L313.5,216.3z M329.7,225.3l-94.2,54.4l0.4,0.2l93.9-54.2l4.4,2.6
			l0.4-0.2L329.7,225.3z M310.6,223.1l0.4-0.2l-4.8-2.8l-86.9,50.2l0.4,0.2l86.5-50L310.6,223.1z M227.7,256.5l4.4,2.6l0.4-0.2
			l-4.8-2.8l-4.8,2.8l0.4,0.2L227.7,256.5z M314.4,230.3l0.4-0.2l-4.8-2.8L227.4,275l0.4,0.2l82.2-47.5L314.4,230.3z M237.2,251.1
			l4.4,2.6l0.4-0.2l-4.8-2.8l-4.8,2.8l0.4,0.2L237.2,251.1z M256,240.2l4.4,2.6l0.4-0.2l-4.8-2.8l-4.8,2.8l0.4,0.2L256,240.2z
			 M246.6,245.6l4.4,2.6l0.4-0.2l-4.8-2.8l-4.8,2.8l0.4,0.2L246.6,245.6z"/>
		<path class="st31" d="M331.6,263.5l-28.2,16.3c-1.7,1-4.8,0.9-6.8-0.3l-6.2-3.6c-2-1.2-2.2-2.9-0.5-4l28.2-16.3
			c1.7-1,4.8-0.9,6.8,0.3l6.2,3.6C333.1,260.7,333.4,262.5,331.6,263.5z"/>
		<path class="st32" d="M289.9,272.8l28.2-16.3c1.7-1,4.8-0.9,6.8,0.3l6.2,3.6c0.9,0.5,1.4,1.2,1.6,1.8c0.2-0.9-0.3-1.9-1.6-2.7
			l-6.2-3.6c-2-1.2-5.1-1.3-6.8-0.3L289.9,272c-1,0.6-1.3,1.3-1.1,2.1C289,273.6,289.3,273.1,289.9,272.8z"/>
	</g>
	<g>
		<g>
			<path class="st33" d="M282.3,129v-3.2c0-2.8-2-3.9-4.4-2.5l-75,43.3c-2.4,1.4-4.4,4.8-4.4,7.6v3.2L282.3,129z"/>
			<g>
				<path class="st11" d="M206.3,168.8c0,1.1-0.8,2.5-1.8,3c-1,0.6-1.8,0.1-1.8-1c0-1.1,0.8-2.5,1.8-3
					C205.6,167.2,206.3,167.6,206.3,168.8z"/>
				<path class="st11" d="M212.5,165.2c0,1.1-0.8,2.5-1.8,3c-1,0.6-1.8,0.1-1.8-1c0-1.1,0.8-2.5,1.8-3
					C211.7,163.6,212.5,164.1,212.5,165.2z"/>
				<path class="st11" d="M218.7,161.6c0,1.1-0.8,2.5-1.8,3c-1,0.6-1.8,0.1-1.8-1c0-1.1,0.8-2.5,1.8-3
					C217.9,160.1,218.7,160.5,218.7,161.6z"/>
			</g>
			<polygon class="st33" points="211.9,185.4 198.6,193 198.6,181 211.9,173.3 			"/>
			<polygon class="st33" points="228.4,175.8 215.2,183.5 215.2,171.4 228.4,163.8 			"/>
			<polygon class="st33" points="245,166.2 231.7,173.9 231.7,161.8 245,154.2 			"/>
			<linearGradient id="SVGID_10_" gradientUnits="userSpaceOnUse" x1="249.5595" y1="152.889" x2="282.3224" y2="152.889">
				<stop  offset="0" style="stop-color:#E6F0FF"/>
				<stop  offset="0.3214" style="stop-color:#E0ECFF"/>
				<stop  offset="0.7488" style="stop-color:#CFE1FF"/>
				<stop  offset="1" style="stop-color:#C2D9FF"/>
			</linearGradient>
			<polygon class="st34" points="249.6,163.6 282.3,144.7 282.3,142.2 249.6,161.1 			"/>
			<linearGradient id="SVGID_11_" gradientUnits="userSpaceOnUse" x1="249.5595" y1="148.1295" x2="282.3224" y2="148.1295">
				<stop  offset="0" style="stop-color:#E6F0FF"/>
				<stop  offset="0.3214" style="stop-color:#E0ECFF"/>
				<stop  offset="0.7488" style="stop-color:#CFE1FF"/>
				<stop  offset="1" style="stop-color:#C2D9FF"/>
			</linearGradient>
			<polygon class="st35" points="249.6,158.9 282.3,139.9 282.3,137.4 249.6,156.3 			"/>
			<linearGradient id="SVGID_12_" gradientUnits="userSpaceOnUse" x1="249.5595" y1="143.3701" x2="282.3224" y2="143.3701">
				<stop  offset="0" style="stop-color:#E6F0FF"/>
				<stop  offset="0.3214" style="stop-color:#E0ECFF"/>
				<stop  offset="0.7488" style="stop-color:#CFE1FF"/>
				<stop  offset="1" style="stop-color:#C2D9FF"/>
			</linearGradient>
			<polygon class="st36" points="249.6,154.1 282.3,135.2 282.3,132.6 249.6,151.6 			"/>
			<path class="st33" d="M279.4,172.2l-77.9,45c-1.6,0.9-2.9-0.1-2.9-2.2v-14.5c0-2.1,1.3-4.6,2.9-5.5l77.9-45
				c1.6-0.9,2.9,0.1,2.9,2.2v14.5C282.3,168.9,281,171.3,279.4,172.2z"/>
			<g>
				<polygon class="st37" points="232.8,195.9 222.7,201.8 222.7,189.2 232.8,183.3 				"/>
				<polygon class="st37" points="245.6,188.6 235.4,194.4 235.4,183.9 245.6,178 				"/>
				<polygon class="st37" points="258.3,181.2 248.1,187.1 248.1,171.7 258.3,165.8 				"/>
			</g>
			<linearGradient id="SVGID_13_" gradientUnits="userSpaceOnUse" x1="260.0186" y1="178.1364" x2="284.9511" y2="162.8133">
				<stop  offset="0" style="stop-color:#E6F0FF"/>
				<stop  offset="0.3214" style="stop-color:#E0ECFF"/>
				<stop  offset="0.7488" style="stop-color:#CFE1FF"/>
				<stop  offset="1" style="stop-color:#C2D9FF"/>
			</linearGradient>
			<polygon class="st38" points="276.6,169.1 279.4,167.6 279.4,165 276.6,166.6 			"/>
			<linearGradient id="SVGID_14_" gradientUnits="userSpaceOnUse" x1="257.8955" y1="174.6818" x2="282.828" y2="159.3587">
				<stop  offset="0" style="stop-color:#E6F0FF"/>
				<stop  offset="0.3214" style="stop-color:#E0ECFF"/>
				<stop  offset="0.7488" style="stop-color:#CFE1FF"/>
				<stop  offset="1" style="stop-color:#C2D9FF"/>
			</linearGradient>
			<polygon class="st39" points="276.6,164.4 279.4,162.8 279.4,160.3 276.6,161.8 			"/>
			<linearGradient id="SVGID_15_" gradientUnits="userSpaceOnUse" x1="255.7724" y1="171.2271" x2="280.7048" y2="155.904">
				<stop  offset="0" style="stop-color:#E6F0FF"/>
				<stop  offset="0.3214" style="stop-color:#E0ECFF"/>
				<stop  offset="0.7488" style="stop-color:#CFE1FF"/>
				<stop  offset="1" style="stop-color:#C2D9FF"/>
			</linearGradient>
			<polygon class="st40" points="276.6,159.6 279.4,158 279.4,155.5 276.6,157.1 			"/>
			<linearGradient id="SVGID_16_" gradientUnits="userSpaceOnUse" x1="259.8564" y1="177.8724" x2="284.7889" y2="162.5493">
				<stop  offset="0" style="stop-color:#E6F0FF"/>
				<stop  offset="0.3214" style="stop-color:#E0ECFF"/>
				<stop  offset="0.7488" style="stop-color:#CFE1FF"/>
				<stop  offset="1" style="stop-color:#C2D9FF"/>
			</linearGradient>
			<polygon class="st41" points="261.2,178.1 275.3,169.9 275.3,167.4 261.2,175.5 			"/>
			<linearGradient id="SVGID_17_" gradientUnits="userSpaceOnUse" x1="257.7333" y1="174.4178" x2="282.6658" y2="159.0947">
				<stop  offset="0" style="stop-color:#E6F0FF"/>
				<stop  offset="0.3214" style="stop-color:#E0ECFF"/>
				<stop  offset="0.7488" style="stop-color:#CFE1FF"/>
				<stop  offset="1" style="stop-color:#C2D9FF"/>
			</linearGradient>
			<polygon class="st42" points="261.2,173.3 275.3,165.1 275.3,162.6 261.2,170.8 			"/>
			<linearGradient id="SVGID_18_" gradientUnits="userSpaceOnUse" x1="255.6101" y1="170.9632" x2="280.5426" y2="155.6401">
				<stop  offset="0" style="stop-color:#E6F0FF"/>
				<stop  offset="0.3214" style="stop-color:#E0ECFF"/>
				<stop  offset="0.7488" style="stop-color:#CFE1FF"/>
				<stop  offset="1" style="stop-color:#C2D9FF"/>
			</linearGradient>
			<polygon class="st43" points="261.2,168.5 275.3,160.4 275.3,157.8 261.2,166 			"/>
			<linearGradient id="SVGID_19_" gradientUnits="userSpaceOnUse" x1="222.6399" y1="187.555" x2="194.4385" y2="206.6745">
				<stop  offset="0" style="stop-color:#E6F0FF"/>
				<stop  offset="0.3214" style="stop-color:#E0ECFF"/>
				<stop  offset="0.7488" style="stop-color:#CFE1FF"/>
				<stop  offset="1" style="stop-color:#C2D9FF"/>
			</linearGradient>
			<polygon class="st44" points="204.4,198.8 201.7,200.4 201.7,202.9 204.4,201.3 			"/>
			<linearGradient id="SVGID_20_" gradientUnits="userSpaceOnUse" x1="224.8505" y1="190.8157" x2="196.6492" y2="209.9352">
				<stop  offset="0" style="stop-color:#E6F0FF"/>
				<stop  offset="0.3214" style="stop-color:#E0ECFF"/>
				<stop  offset="0.7488" style="stop-color:#CFE1FF"/>
				<stop  offset="1" style="stop-color:#C2D9FF"/>
			</linearGradient>
			<polygon class="st45" points="204.4,203.6 201.7,205.1 201.7,207.7 204.4,206.1 			"/>
			<linearGradient id="SVGID_21_" gradientUnits="userSpaceOnUse" x1="227.0612" y1="194.0764" x2="198.8599" y2="213.196">
				<stop  offset="0" style="stop-color:#E6F0FF"/>
				<stop  offset="0.3214" style="stop-color:#E0ECFF"/>
				<stop  offset="0.7488" style="stop-color:#CFE1FF"/>
				<stop  offset="1" style="stop-color:#C2D9FF"/>
			</linearGradient>
			<polygon class="st46" points="204.4,208.3 201.7,209.9 201.7,212.4 204.4,210.8 			"/>
			<linearGradient id="SVGID_22_" gradientUnits="userSpaceOnUse" x1="223.0963" y1="188.2282" x2="194.895" y2="207.3477">
				<stop  offset="0" style="stop-color:#E6F0FF"/>
				<stop  offset="0.3214" style="stop-color:#E0ECFF"/>
				<stop  offset="0.7488" style="stop-color:#CFE1FF"/>
				<stop  offset="1" style="stop-color:#C2D9FF"/>
			</linearGradient>
			<polygon class="st47" points="219.9,189.9 205.7,198 205.7,200.6 219.9,192.4 			"/>
			<linearGradient id="SVGID_23_" gradientUnits="userSpaceOnUse" x1="225.307" y1="191.489" x2="197.1057" y2="210.6085">
				<stop  offset="0" style="stop-color:#E6F0FF"/>
				<stop  offset="0.3214" style="stop-color:#E0ECFF"/>
				<stop  offset="0.7488" style="stop-color:#CFE1FF"/>
				<stop  offset="1" style="stop-color:#C2D9FF"/>
			</linearGradient>
			<polygon class="st48" points="219.9,194.6 205.7,202.8 205.7,205.3 219.9,197.1 			"/>
			<linearGradient id="SVGID_24_" gradientUnits="userSpaceOnUse" x1="227.5177" y1="194.7497" x2="199.3163" y2="213.8692">
				<stop  offset="0" style="stop-color:#E6F0FF"/>
				<stop  offset="0.3214" style="stop-color:#E0ECFF"/>
				<stop  offset="0.7488" style="stop-color:#CFE1FF"/>
				<stop  offset="1" style="stop-color:#C2D9FF"/>
			</linearGradient>
			<polygon class="st49" points="219.9,199.4 205.7,207.5 205.7,210.1 219.9,201.9 			"/>
		</g>
		<path class="st33" d="M276.7,186.1l-71.3,41.2c-1.5,0.9-2.7-0.1-2.7-2l0,0c0-2,1.2-4.3,2.7-5.1l71.3-41.2c1.5-0.9,2.7,0.1,2.7,2
			l0,0C279.4,182.9,278.2,185.3,276.7,186.1z"/>
	</g>
</g>
<g>
	<g>
		<linearGradient id="SVGID_25_" gradientUnits="userSpaceOnUse" x1="209.1891" y1="150.3411" x2="133.1003" y2="284.1711">
			<stop  offset="0" style="stop-color:#E4F2FF"/>
			<stop  offset="0.3075" style="stop-color:#D7E6FD;stop-opacity:0.6923"/>
			<stop  offset="0.9993" style="stop-color:#BDCEFA;stop-opacity:0"/>
		</linearGradient>
		<path class="st50" d="M202.5,239.1l-67.6,39c-2.1,1.2-3.8-0.1-3.8-2.9v-63.9c0-2.8,1.7-6.1,3.8-7.3l67.6-39
			c2.1-1.2,3.8,0.1,3.8,2.9v63.9C206.3,234.7,204.6,237.9,202.5,239.1z"/>
		<g>
			<polygon class="st7" points="200.4,232.6 136.9,269.2 136.9,264.5 200.4,227.8 			"/>
			<path class="st7" d="M188.3,203.7c0,12.5-8.8,27.7-19.6,34s-19.6,1.2-19.6-11.3c0-12.5,8.8-27.7,19.6-34S188.3,191.2,188.3,203.7
				z"/>
		</g>
	</g>
	<g>
		<linearGradient id="SVGID_26_" gradientUnits="userSpaceOnUse" x1="342.7641" y1="57.3028" x2="280.974" y2="185.8658">
			<stop  offset="0" style="stop-color:#E4F2FF"/>
			<stop  offset="0.3075" style="stop-color:#D7E6FD;stop-opacity:0.6923"/>
			<stop  offset="0.9993" style="stop-color:#BDCEFA;stop-opacity:0"/>
		</linearGradient>
		<path class="st51" d="M341.3,141.1l-67.6,39c-2.1,1.2-3.8-0.1-3.8-2.9v-49.9c0-2.8,1.7-6.1,3.8-7.3l67.6-39
			c2.1-1.2,3.8,0.1,3.8,2.9v49.9C345.1,136.7,343.4,139.9,341.3,141.1z"/>
		<g>
			<polygon class="st52" points="339.2,132.7 275.8,169.4 275.8,164.6 339.2,128 			"/>
			<polygon class="st52" points="339.2,123 275.8,159.6 275.8,154.8 339.2,118.2 			"/>
			<g>
				<polygon class="st52" points="294.1,137.6 277.1,147.5 277.1,127.8 294.1,118 				"/>
				<polygon class="st7" points="316,125 299,134.8 299,115.1 316,105.3 				"/>
				<polygon class="st7" points="338,112.3 320.9,122.2 320.9,102.5 338,92.6 				"/>
			</g>
		</g>
	</g>
</g>
<g>
	<g>
		<linearGradient id="SVGID_27_" gradientUnits="userSpaceOnUse" x1="67.1203" y1="356.5537" x2="152.8998" y2="356.5537">
			<stop  offset="0" style="stop-color:#E6F0FF"/>
			<stop  offset="0.3214" style="stop-color:#E0ECFF"/>
			<stop  offset="0.7488" style="stop-color:#CFE1FF"/>
			<stop  offset="1" style="stop-color:#C2D9FF"/>
		</linearGradient>
		<path class="st53" d="M151.1,359.3l-36.3,21c-2.6,1.5-7.3,1.3-10.4-0.4l-34.8-20.1c-3.1-1.8-3.4-4.5-0.7-6l36.3-21
			c2.6-1.5,7.3-1.3,10.4,0.4l34.8,20.1C153.4,355.1,153.8,357.8,151.1,359.3z"/>
		<g>
			<path class="st7" d="M152.8,423.3v-66.1l0,0v0c-0.2,0.8-0.7,1.5-1.7,2.1l-36.3,21c-1.3,0.7-3,1.1-4.8,1v67c1.8,0,3.5-0.3,4.8-1
				l36.3-21C152.5,425.5,153.1,424.4,152.8,423.3z"/>
			<path class="st7" d="M104.5,379.9l-34.8-20.1c-1.5-0.8-2.3-1.9-2.5-2.9v66.1c-0.3,1.3,0.6,2.8,2.5,3.9l34.8,20.1
				c1.6,0.9,3.6,1.4,5.6,1.4v-67C108.1,381.3,106,380.8,104.5,379.9z"/>
		</g>
	</g>
	<g>
		<path class="st54" d="M124.6,350.9c0,15.5-10.9,21.8-24.4,14.1s-24.4-26.7-24.4-42.2c0-15.5,10.9-21.8,24.4-14.1
			C113.7,316.4,124.6,335.3,124.6,350.9z"/>
		<path class="st9" d="M122.2,349.5c0,14-9.8,19.7-21.9,12.7c-12.1-7-21.9-24-21.9-38c0-14,9.8-19.7,21.9-12.7
			C112.4,318.5,122.2,335.5,122.2,349.5z"/>
		<g>
			<path class="st21" d="M112.9,301.3c-6.8-3.9-12.9-4.3-17.3-1.7l-12.5,7.2l0,0c4.4-2.5,10.5-2.1,17.2,1.7
				c13.5,7.8,24.4,26.7,24.4,42.2c0,7.7-2.7,13.2-7.1,15.7l0,0l12.5-7.2c4.4-2.5,7.2-8,7.2-15.8C137.3,328,126.4,309.1,112.9,301.3z
				"/>
		</g>
		<g>
			<path class="st11" d="M94.1,341.6c1,0,2.1,0.3,3.2,0.6c0.1,0,0.2,0.1,0.3,0.1c0.7,0.2,1.3,0.5,2,0.9v-6.1l-6.6-3.8
				C93.2,336.1,93.5,338.9,94.1,341.6z"/>
			<path class="st11" d="M107,331c0.1,0,0.3,0,0.4,0c0.1,0,0.2,0,0.3,0c0.8-0.1,1.5-0.2,2.2-0.5c-1.7-2.8-3.6-5.2-5.8-7.1
				c0.7,1.2,1.3,2.6,1.9,4.2C106.4,328.7,106.7,329.9,107,331z"/>
			<path class="st11" d="M98.5,319.6c-1.2,0-2.3,0.8-3.2,2.4c-0.3,0.5-0.6,1.2-0.9,1.9c1,1.1,2,2.1,3.1,3c0.1,0.1,0.2,0.2,0.3,0.2
				c0.6,0.5,1.2,0.9,1.9,1.4v-8.3c-0.1-0.1-0.1,0-0.1-0.1C99.2,320,98.9,319.8,98.5,319.6z"/>
			<path class="st11" d="M97.5,343.5c-1.1-0.4-2.1-0.5-3.1-0.6c0.3,1,0.5,1.9,0.9,2.8c0.9,2.6,2,4.8,3.2,6.2
				c0.4,0.3,0.7,0.5,1.1,0.7c0,0,0,0,0.1,0.1v-8.3c-0.7-0.3-1.3-0.6-1.9-0.8C97.7,343.5,97.6,343.5,97.5,343.5z"/>
			<path class="st11" d="M97.3,328c-1.1-0.9-2.2-2-3.2-3.1c-0.6,2-0.9,4.5-1,7.2l6.6,3.8v-6.1c-0.8-0.5-1.4-0.9-2-1.5
				C97.6,328.2,97.5,328.1,97.3,328z"/>
			<path class="st11" d="M93.3,324c-0.2-0.2-0.4-0.4-0.5-0.6c-0.1-0.1-0.2-0.2-0.3-0.4c-0.8-1.1-1.6-2.2-2.3-3.3
				c-2.5,1.5-3.9,4.4-4,8.4l6.1,3.5C92.3,328.6,92.7,326.1,93.3,324z"/>
			<path class="st11" d="M93.6,342.9c-0.1,0-0.2,0-0.4,0c-0.1,0-0.2,0-0.3,0c-0.7,0.1-1.4,0.3-2.1,0.6c1.6,2.5,3.4,4.8,5.5,6.6
				c-0.7-1.2-1.3-2.6-1.9-4.2C94.2,345,93.9,344,93.6,342.9z"/>
			<path class="st11" d="M92.8,341.6c0.2,0,0.3,0,0.5,0c-0.6-2.8-1-5.8-1-8.8l-6.1-3.5c0.1,4.3,1.6,8.9,4,13
				c0.7-0.3,1.5-0.6,2.3-0.7C92.6,341.6,92.7,341.6,92.8,341.6z"/>
			<path class="st11" d="M93.3,322.5c0.1,0.2,0.2,0.3,0.4,0.4c0.3-0.7,0.6-1.4,0.9-2c0.6-0.9,1.2-1.6,1.9-2.1
				c-2-0.5-3.9-0.4-5.5,0.3c0.6,1,1.3,2,2.1,3C93.1,322.3,93.2,322.4,93.3,322.5z"/>
			<path class="st11" d="M107.3,349.3c0.2,0.2,0.4,0.4,0.5,0.7c0.1,0.1,0.2,0.2,0.3,0.4c0.9,1.1,1.7,2.2,2.5,3.5
				c2.2-1.5,3.6-4.3,3.7-8.2l-6.1-3.5C108.2,344.8,107.9,347.3,107.3,349.3z"/>
			<path class="st11" d="M103,330.2c1.1,0.4,2.2,0.7,3.2,0.8c-0.3-1.1-0.6-2.2-0.9-3.2c-0.9-2.6-2-4.8-3.3-6.2
				c-0.4-0.3-0.7-0.5-1.1-0.7c0,0-0.1-0.1-0.1-0.1v8.4c0.7,0.4,1.3,0.7,1.9,0.9C102.8,330.2,102.9,330.2,103,330.2z"/>
			<path class="st11" d="M107.4,350.8c-0.1-0.2-0.3-0.3-0.4-0.5c-0.3,0.8-0.6,1.6-1,2.3c-0.6,0.9-1.2,1.6-1.9,2.1
				c2.2,0.6,4.2,0.4,5.8-0.4c-0.7-1.1-1.5-2.1-2.2-3.1C107.6,351,107.5,350.9,107.4,350.8z"/>
			<path class="st11" d="M108.1,332.3c-0.1,0-0.2,0-0.3,0c-0.2,0-0.4,0-0.5,0c0.6,2.7,0.9,5.7,0.9,8.4l6.1,3.5
				c-0.1-3.9-1.4-8.4-3.7-12.6C109.9,332.1,109,332.3,108.1,332.3z"/>
			<path class="st11" d="M106.5,332.3c-1.1-0.1-2.2-0.4-3.3-0.8c-0.1,0-0.2-0.1-0.3-0.1c-0.7-0.3-1.4-0.6-2.1-1v6.1l6.6,3.8
				C107.4,337.6,107,334.9,106.5,332.3z"/>
			<path class="st11" d="M103.2,345.4c1.1,0.9,2.3,1.9,3.3,3c0.5-1.9,0.8-4.3,0.9-6.9l-6.6-3.8v6.1c0.7,0.4,1.4,0.9,2.1,1.4
				C103,345.3,103.1,345.3,103.2,345.4z"/>
			<path class="st11" d="M106.2,349.4c-1-1.1-2.1-2.1-3.2-2.9c-0.1-0.1-0.2-0.2-0.3-0.2c-0.6-0.5-1.3-0.9-1.9-1.3v8.4
				c0,0,0.1,0.1,0.1,0.1c0.4,0.2,0.7,0.4,1.1,0.5c1.2,0,2.3-0.8,3.3-2.4C105.6,350.9,105.9,350.2,106.2,349.4z"/>
		</g>
	</g>
</g>
<g>
	<g>
		<g>
			<g>
				<g>
					<path class="st23" d="M375,321.2c-0.3,0.1-0.4,0.5-0.5,1c0,0.2,1.6-0.9,1.5-0.4c0,0.2-1.2,7.8,1.3,10.3
						c0.3,0.3,0.6,0.2,0.9,0.1l0.7-0.4c0.8-0.4,1.3-2.1,2-4.8c0.8-2.9,1.2-4.7-2-6.6c-0.9-0.5-1.4-0.7-1.7-0.5L375,321.2z"/>
					<path class="st24" d="M380.9,327.1c-0.9,3.5-1.5,5.5-2.9,4.7c-1.3-0.8-1.6-3.7-1.2-7.1c0.4-3-1.1-6.1,2.1-4.2
						C382.1,322.4,381.7,324.2,380.9,327.1z"/>
				</g>
			</g>
			<path class="st26" d="M401.5,304.7l-6.6,2.4l-2.7,3c0,0-4.7,2-8.4,5.9c0,0-1.4,2.1-6.1,4.4c0,0,0,3.3,2.9,3.8l18.7-10.8
				c1.3-0.8,2.2-2.1,2.3-3.6C401.8,308.7,401.8,307,401.5,304.7z"/>
		</g>
	</g>
	<g>
		<g>
			<g>
				<path class="st55" d="M387.7,337.7c0,0.3,0.2,0.6,0.7,0.9c0.1,0.1,0-1.8,0.4-1.5c0.1,0.1,6.2,4.8,9.6,4c0.4-0.1,0.5-0.4,0.5-0.7
					l0-0.8c0-0.9-1.2-2.2-3.2-4.1c-2.1-2.1-3.5-3.4-6.7-1.5c-0.9,0.5-1.3,0.9-1.3,1.3L387.7,337.7z"/>
				<path class="st24" d="M395.8,335.5c2.6,2.5,4,4,2.7,4.8c-1.3,0.8-4-0.4-6.7-2.5c-2.4-1.8-5.9-2-2.7-3.9
					C392.2,332.1,393.6,333.4,395.8,335.5z"/>
			</g>
		</g>
		<path class="st25" d="M393.2,334.3L393,311l-6.3,2.1l-0.1,4.3c0,0-0.6,5.1,1,10.2c0,0,1.1,2.2,0.9,7.5
			C388.4,335,391.3,336.6,393.2,334.3z"/>
	</g>
	<g>
		<path class="st26" d="M410.4,301.6L410.4,301.6c-1.3,0.6-2.8,0-3.3-1.3l-10-22.1c-0.6-1.3,0-2.8,1.3-3.3l0,0
			c1.3-0.6,2.8,0,3.3,1.3l10,22.1C412.3,299.5,411.7,301.1,410.4,301.6z"/>
	</g>
	<g>
		<linearGradient id="SVGID_28_" gradientUnits="userSpaceOnUse" x1="413.4011" y1="292.1033" x2="394.1291" y2="284.5825">
			<stop  offset="0" style="stop-color:#E8E9FF"/>
			<stop  offset="0.9996" style="stop-color:#C0C0F6"/>
		</linearGradient>
		<polygon class="st56" points="411.4,299.1 395.7,290.1 395.7,277.4 411.4,286.5 		"/>
		<g>
			<polygon class="st57" points="407.5,295.7 407.5,286.1 407.9,286.3 407.9,295.9 			"/>
			<polygon class="st57" points="406.8,292.4 406.8,285.7 407.1,285.9 407.1,292.6 			"/>
			<polygon class="st57" points="406,294.1 406,285.2 406.4,285.4 406.4,294.3 			"/>
			<polygon class="st57" points="405.3,294.4 405.3,284.8 405.6,285 405.6,294.6 			"/>
			<polygon class="st57" points="404.5,287.9 404.5,284.3 404.8,284.5 404.8,288.1 			"/>
		</g>
	</g>
	<path class="st28" d="M382.5,305.5v8.6c0,0,10.1,3.4,19.6-8.6v-8.3L382.5,305.5z"/>
	<path class="st11" d="M387.1,308.2c0.1,0.1,0.2,0.1,0.3,0.1c1.7,0.1,7.8-1.2,13.9-8.1c0.5-0.6,0.8-1.3,0.8-2v-19.5
		c0-1.5-0.5-2.5-1.4-3l-4.6-2.7c-0.8-0.5-2-0.4-3.3,0.3l-6.2,3.6c-2.5,1.5-4.6,5-4.6,7.9v19.6c0,0.5,0.2,0.8,0.4,0.9L387.1,308.2z"
		/>
	<path class="st29" d="M388.9,278.3c0,0.5,0.3,1,0.9,1.3c1.3,0.7,3.3,0.7,4.6,0c0.6-0.4,1-0.9,0.9-1.3V274c0-0.5-0.3-1-0.9-1.3
		c-1.3-0.7-3.3-0.7-4.6,0c-0.6,0.4-1,0.9-0.9,1.3V278.3z"/>
	<g>
		<path class="st22" d="M371.6,306.1L371.6,306.1c-1.2-0.6-1.7-2.2-1.1-3.4l11-21.8c0.6-1.2,2.2-1.7,3.4-1.1l0,0
			c1.2,0.6,1.7,2.2,1.1,3.4L375,305C374.4,306.3,372.9,306.8,371.6,306.1z"/>
	</g>
	<g>
		<path class="st30" d="M400.3,264.9l3.2,12.4c0.3,1.2-0.9,2.2-2,1.7l-7.3-3.1c-0.6-0.3-1-0.9-0.9-1.6l2.4-12.2
			c0.3-1.3,2-1.6,2.7-0.5l1.7,2.9C400.2,264.6,400.3,264.7,400.3,264.9z"/>
		<path class="st22" d="M389.1,272.3c0,1.1-0.7,1.5-1.7,1c-0.9-0.5-1.7-1.8-1.7-2.9c0-1.1,0.7-1.5,1.7-1
			C388.4,269.9,389.1,271.2,389.1,272.3z"/>
		<circle class="st22" cx="392.1" cy="267.2" r="8.9"/>
		<path class="st30" d="M383.4,268.4c0,0,7.5,4.1,11.2-6.6c0,0,2,4.5,6.8,3.5c0,0,0-7-7.3-8.4C394.2,256.9,381.3,255.6,383.4,268.4z
			"/>
		<path class="st30" d="M387.6,268.8l3.2,12.4c0.3,1.2-0.9,2.2-2,1.7l-7.3-3.1c-0.6-0.3-1-0.9-0.9-1.6L383,266
			c0.3-1.3,2-1.6,2.7-0.5l1.7,2.9C387.5,268.5,387.5,268.6,387.6,268.8z"/>
	</g>
</g>
<g>
	<g>
		<path d="M316.6,306.8c-0.1,1,1.5,2.5,3.9,3.9c3.2,1.8,4.3,4.1,8.2,1.9c1.1-0.6,1.6-1.2,1.6-1.6v-2.4c0.1-1.1-2.6-1.8-4.9-3.2
			c-3.2-1.8-6.6-2.8-8.2-1.9c-0.4,0.2-0.6,0.5-0.6,0.9V306.8z"/>
		<path class="st55" d="M320.5,308.2c-3.2-1.8-4.9-3.8-3.3-4.7c1.6-0.9,5,0.1,8.2,1.9c3.2,1.8,7.2,2.5,3.3,4.7
			C324.8,312.3,323.6,310,320.5,308.2z"/>
	</g>
	<g>
		<path d="M325.4,300.7c-0.1,1,1.5,2.5,3.9,3.9c3.2,1.8,4.3,4.1,8.2,1.9c1.1-0.6,1.6-1.2,1.6-1.6v-2.4c0.1-1.1-2.6-1.8-4.9-3.2
			c-3.2-1.8-6.6-2.8-8.2-1.9c-0.4,0.2-0.6,0.5-0.6,0.9V300.7z"/>
		<path class="st55" d="M329.3,302.1c-3.2-1.8-4.9-3.8-3.3-4.7c1.6-0.9,5,0.1,8.2,1.9c3.2,1.8,7.2,2.5,3.3,4.7
			C333.6,306.3,332.4,303.9,329.3,302.1z"/>
	</g>
	<g>
		<path class="st58" d="M321.9,228L321.9,228c1.2-0.8,2.8-0.4,3.6,0.8l10.8,17.2c0.8,1.2,0.4,2.8-0.8,3.6l0,0
			c-1.2,0.8-2.8,0.4-3.6-0.8l-10.8-17.2C320.3,230.4,320.7,228.7,321.9,228z"/>
		<path class="st30" d="M329,246.8l3.5,5.5c1.2,1.9,3.7,2.4,5.5,1.3l0,0c1.9-1.2,2.4-3.7,1.3-5.5l-3.5-5.5
			C335.8,242.5,331.4,240.9,329,246.8z"/>
	</g>
	<g>
		<path class="st11" d="M330.2,307.4c0.1-0.2,0.2-0.5,0.2-0.8v-27.2c0-1.7-1.8-3.1-3.9-3.1l0,0c-2.2,0-3.9,1.4-3.9,3.1V309
			c0,0.4,0.3,0.8,0.7,0.9C324.7,310.4,328.3,311,330.2,307.4z"/>
	</g>
	<g>
		<path class="st11" d="M339,301c0.1-0.2,0.2-0.5,0.2-0.8l-0.6-27.2c0-1.7-1.8-3.1-4-3l0,0c-2.2,0-3.9,1.5-3.9,3.2l0.6,29.5
			c0,0.4,0.3,0.8,0.7,0.9C333.6,304.1,337.2,304.7,339,301z"/>
	</g>
	<path class="st28" d="M323.8,284.3c0.1,0.1,0.2,0.1,0.3,0.1c1.7,0.1,8-1.2,14.3-8.3c0.5-0.6,0.8-1.4,0.8-2v-20
		c0-1.5-0.5-2.6-1.4-3.1l-4.7-2.7c-0.9-0.5-2-0.4-3.4,0.3l-6.4,3.7c-2.6,1.5-4.7,5.2-4.7,8.2v20.1c0,0.5,0.2,0.8,0.5,1L323.8,284.3z
		"/>
	<path class="st25" d="M325.6,253.5c0,0.5,0.3,1,1,1.4c1.3,0.7,3.4,0.7,4.7,0c0.7-0.4,1-0.9,1-1.4v-4.4c0-0.5-0.3-1-1-1.4
		c-1.3-0.7-3.4-0.7-4.7,0c-0.7,0.4-1,0.9-1,1.4V253.5z"/>
	<circle class="st58" cx="328.9" cy="242.2" r="9.1"/>
	<g>
		<path class="st58" d="M313.1,282.6L313.1,282.6c-1.4-0.5-2.1-1.9-1.6-3.3l6.9-18.6c0.5-1.4,1.9-2.1,3.3-1.6l0,0
			c1.4,0.5,2.1,1.9,1.6,3.3l-6.9,18.6C315.9,282.4,314.5,283.1,313.1,282.6z"/>
		<path class="st30" d="M323.6,265.9l2.1-6.2c0.7-2.1-0.4-4.4-2.5-5.1l0,0c-2.1-0.7-4.4,0.4-5.1,2.5l-2.1,6.2
			C316,263.3,317.5,267.7,323.6,265.9z"/>
	</g>
	<path class="st59" d="M334.1,250.5c-2.9,1.7-5.1,0.4-5.9-0.8c-2-3.1-2.3-1-3.5-2.5c-1.5-2.5-1.2-6-3.3-7.6
		c-3.1-2.3-2.2-6.8,5.8-8.9c10.7-2.7,15,10.8,8.3,18.6C335,250,334.7,250.2,334.1,250.5z"/>
	<path class="st58" d="M325.7,247.7c-0.8,0.8-1.6,0.5-1.9-0.5c-0.3-1.1,0.1-2.5,0.9-3.3s1.6-0.5,1.9,0.5
		C326.9,245.4,326.5,246.9,325.7,247.7z"/>
</g>
<g>
	<g>
		<g>
			<g>
				<path class="st58" d="M279.2,355.5L279.2,355.5c-1,0.7-2.5,0.5-3.2-0.6l-10.4-14.7c-0.7-1-0.5-2.5,0.6-3.2l0,0
					c1-0.7,2.5-0.5,3.2,0.6l10.4,14.7C280.5,353.3,280.2,354.7,279.2,355.5z"/>
				<path class="st1" d="M272,339.1l-3.4-4.7c-1.1-1.6-3.4-2-5-0.9l0,0c-1.6,1.1-2,3.4-0.9,5l3.4,4.7
					C266.2,343.3,270.1,344.5,272,339.1z"/>
			</g>
			<g>
				<path class="st28" d="M260.3,358c0.1,0.2,0.3,0.4,0.5,0.5l12.1,6.9c1.3,0.8,3.2,0,4.1-1.6l0,0c1-1.7,0.7-3.6-0.7-4.4l-14-8
					c-0.3-0.2-0.8-0.1-1,0.1C260.4,352.5,258.4,354.9,260.3,358z"/>
			</g>
			<g>
				<path class="st28" d="M252.3,362.1c0.1,0.2,0.3,0.4,0.5,0.5l12.1,6.9c1.3,0.8,3.2,0,4.1-1.6l0,0c1-1.7,0.7-3.6-0.7-4.4l-14-8
					c-0.3-0.2-0.8-0.1-1,0.1C252.4,356.6,250.3,359,252.3,362.1z"/>
			</g>
			<g>
				<g>
					<path class="st23" d="M271.3,383c-0.1,1,2.3,1.6,4.3,2.8c2.8,1.6,5.8,2.5,7.3,1.7c0.4-0.2,0.5-0.5,0.5-0.8l0-1.6
						c0.1-0.9-1.3-2.4-3.4-4.4c-2.3-2.3-3.8-3.7-7.3-1.7c-1,0.6-1.4,1-1.4,1.4L271.3,383z"/>
					<path class="st60" d="M280,380.6c2.8,2.7,4.3,4.3,2.9,5.2c-1.4,0.8-4.3-0.4-7.3-2.7c-2.6-2-6.4-2.2-2.9-4.2
						C276.2,376.9,277.6,378.3,280,380.6z"/>
				</g>
				<path class="st28" d="M277.7,378.6c0.1-0.2,0.2-0.5,0.2-0.7v-16.2c0-1.5-1.6-2.8-3.5-2.8l0,0c-1.9,0-3.5,1.2-3.5,2.8V380
					c0,0.4,0.3,0.7,0.6,0.8C272.9,381.3,276,381.8,277.7,378.6z"/>
			</g>
			<path class="st61" d="M253.5,363.5c0.1,0.1,0.2,0.1,0.3,0.1c1.5,0.1,7.1-1.1,12.6-7.3c0.5-0.5,0.8-1.2,0.8-1.8v-17.7
				c0-1.3-0.5-2.3-1.2-2.7l-4.2-2.4c-0.8-0.5-1.8-0.4-3,0.3l-5.7,3.3c-2.3,1.3-4.2,4.6-4.2,7.2v17.8c0,0.4,0.1,0.7,0.4,0.9
				L253.5,363.5z"/>
			<g>
				<g>
					<path class="st23" d="M262.9,386.6c-0.1,1,2.3,1.6,4.3,2.8c2.8,1.6,5.8,2.5,7.3,1.7c0.4-0.2,0.5-0.5,0.5-0.8l0-1.6
						c0.1-0.9-1.3-2.4-3.4-4.4c-2.3-2.3-3.8-3.7-7.3-1.7c-1,0.6-1.4,1-1.4,1.4L262.9,386.6z"/>
					<path class="st60" d="M271.6,384.3c2.8,2.7,4.3,4.3,2.9,5.2c-1.4,0.8-4.3-0.4-7.3-2.7c-2.6-2-6.4-2.2-2.9-4.2
						C267.8,380.6,269.3,382,271.6,384.3z"/>
				</g>
				<path class="st28" d="M269.4,382.3c0.1-0.2,0.2-0.5,0.2-0.7v-16.2c0-1.5-1.6-2.8-3.5-2.8l0,0c-1.9,0-3.5,1.2-3.5,2.8v18.3
					c0,0.4,0.3,0.7,0.6,0.8C264.5,384.9,267.7,385.5,269.4,382.3z"/>
			</g>
			<path class="st25" d="M254.1,336.2c0,0.4,0.3,0.9,0.9,1.2c1.1,0.7,3,0.7,4.2,0c0.6-0.3,0.9-0.8,0.9-1.2v-3.9
				c0-0.4-0.3-0.9-0.9-1.2c-1.1-0.7-3-0.7-4.2,0c-0.6,0.3-0.9,0.8-0.9,1.2V336.2z"/>
			<circle class="st58" cx="257.1" cy="326.2" r="8.1"/>
			<path class="st62" d="M252.7,332.6c0.5-0.5,1.3-1.5,1.7-2.7c0-0.1,0-0.1,0-0.2v-3.9c0-0.8,0.2-1.5,0.6-2.2c0.3-0.6,0.9-1,1.6-1
				c0,0,6.5,2.8,8.9-2.5c0.2-0.4,0-0.9-0.5-1c-0.5-0.1-1.1-0.5-1.8-1.6c-0.2-0.3-0.5-0.4-0.8-0.3c-0.6,0.2-1.8,0.2-2.9-1.1
				c-0.1-0.2-0.3-0.2-0.5-0.2c-1.2,0-5.5,0.2-7.8,1.9c0,0,0,0,0,0c-0.5,0.4-8.5,7.3,0.6,14.8C252,332.8,252.5,332.8,252.7,332.6z"/>
			<path class="st58" d="M254.4,330.8c0,1-0.7,1.4-1.5,0.9c-0.8-0.5-1.5-1.7-1.5-2.6c0-1,0.7-1.4,1.5-0.9
				C253.7,328.6,254.4,329.8,254.4,330.8z"/>
		</g>
		<g>
			<polygon class="st63" points="277.3,358.5 262.9,366.8 251.8,360.7 266.6,352.3 			"/>
			<polygon class="st64" points="277.3,358.5 279.6,344 263.6,353.2 262.9,366.8 			"/>
		</g>
	</g>
	<g>
		<path class="st58" d="M264.7,360.9L264.7,360.9c-1,0.7-2.5,0.5-3.2-0.5l-10.4-14.7c-0.7-1-0.5-2.5,0.5-3.2l0,0
			c1-0.7,2.5-0.5,3.2,0.5l10.4,14.7C266,358.7,265.7,360.2,264.7,360.9z"/>
		<path class="st1" d="M257,345.3l-2.9-5c-1-1.7-3.2-2.3-4.9-1.3l0,0c-1.7,1-2.3,3.2-1.3,4.9l2.9,5
			C250.9,348.8,254.7,350.4,257,345.3z"/>
	</g>
</g>
<g>
	<g>
		<path class="st22" d="M470.9,310.1L470.9,310.1c1.3,0.2,2.6-0.7,2.8-2l1.8-9.9c0.2-1.3-0.7-2.6-2-2.8l0,0c-1.3-0.2-2.6,0.7-2.8,2
			l-1.8,9.9C468.7,308.6,469.6,309.9,470.9,310.1z"/>
		<path class="st27" d="M468.9,300.1l1.1-6c0.4-2,2.3-3.4,4.4-3l0,0c2,0.4,3.4,2.3,3,4.4l-1.1,6
			C476.3,301.4,473.1,304.3,468.9,300.1z"/>
		<path class="st22" d="M460,311L460,311c0.4,1.3,1.8,2,3.1,1.6l8.4-2.5c1.3-0.1,2.4-1.3,2.3-2.6l0,0c-0.1-1.3-1.3-2.4-2.6-2.3
			l-9.6,2.7C460.4,308.3,459.6,309.7,460,311z"/>
	</g>
	<g>
		<g>
			<path class="st23" d="M486.2,349.7c0.1,1.1-2.4,1.7-4.6,3c-3,1.7-6.2,2.6-7.7,1.8c-0.4-0.2-0.6-0.5-0.6-0.8l0-1.7
				c-0.1-1,1.4-2.5,3.6-4.7c2.5-2.4,4-3.9,7.7-1.8c1,0.6,1.5,1.1,1.5,1.4L486.2,349.7z"/>
			<path class="st60" d="M477,347.2c-3,2.9-4.6,4.6-3.1,5.5c1.5,0.9,4.6-0.4,7.7-2.8c2.7-2.1,6.7-2.3,3.1-4.4
				C481.1,343.3,479.5,344.8,477,347.2z"/>
		</g>
		<path class="st65" d="M479.4,345.1c-0.1-0.2-0.2-0.5-0.2-0.7v-25.5c0-1.6,1.7-2.9,3.7-2.9l0,0c2,0,3.7,1.3,3.7,2.9v27.7
			c0,0.4-0.3,0.8-0.7,0.9C484.5,347.9,481.2,348.5,479.4,345.1z"/>
	</g>
	<g>
		<g>
			<path class="st23" d="M478.3,343.8c0.1,1.1-2.4,1.7-4.6,3c-3,1.7-6.2,2.6-7.7,1.8c-0.4-0.2-0.6-0.5-0.6-0.8l0-1.7
				c-0.1-1,1.4-2.5,3.6-4.7c2.5-2.4,4-3.9,7.7-1.8c1,0.6,1.5,1.1,1.5,1.4L478.3,343.8z"/>
			<path class="st60" d="M469,341.3c-3,2.9-4.6,4.6-3.1,5.5c1.5,0.9,4.6-0.4,7.7-2.8c2.7-2.1,6.7-2.3,3.1-4.4
				C473.1,337.4,471.5,338.9,469,341.3z"/>
		</g>
		<path class="st66" d="M471.4,339.2c-0.1-0.2-0.2-0.5-0.2-0.7V313c0-1.6,1.7-2.9,3.7-2.9l0,0c2,0,3.7,1.3,3.7,2.9v27.7
			c0,0.4-0.3,0.8-0.7,0.9C476.6,342,473.2,342.6,471.4,339.2z"/>
	</g>
	<path class="st28" d="M485.4,323.4c-0.1,0.1-0.2,0.1-0.3,0.1c-1.6,0.1-7.5-1.2-13.4-7.8c-0.5-0.5-0.8-1.3-0.8-1.9v-18.8
		c0-1.4,0.5-2.4,1.3-2.9l4.4-2.6c0.8-0.5,1.9-0.4,3.1,0.3l6,3.5c2.4,1.4,4.4,4.8,4.4,7.7v18.9c0,0.4-0.2,0.8-0.4,0.9L485.4,323.4z"
		/>
	<path class="st67" d="M483.7,294.6c0,0.5-0.3,0.9-0.9,1.3c-1.2,0.7-3.2,0.7-4.4,0c-0.6-0.4-0.9-0.8-0.9-1.3v-4.1
		c0-0.5,0.3-0.9,0.9-1.3c1.2-0.7,3.2-0.7,4.4,0c0.6,0.4,0.9,0.8,0.9,1.3V294.6z"/>
	<circle class="st58" cx="480.6" cy="284" r="8.6"/>
	<path class="st68" d="M487.7,273.8c7.3,2.5,3.7,13.2-1.6,17.1c-2.6-1.4,0.6-4-3-2.2c-0.7-3.4,0.9-2.4-0.1-6.7
		c-3.7,1.9-11-0.4-12.1-4c1.3-0.6,2.7-4.3,5.7-5.6C480.5,270.6,485.5,271.4,487.7,273.8z"/>
	<path class="st58" d="M483.4,288.8c0,1,0.7,1.4,1.6,0.9c0.9-0.5,1.6-1.8,1.6-2.8c0-1-0.7-1.4-1.6-0.9
		C484.2,286.5,483.4,287.8,483.4,288.8z"/>
	<polygon class="st69" points="486.6,311 473.2,318.7 459.8,311 459.8,305.1 473.2,297.3 486.6,305.1 	"/>
	<polygon class="st70" points="473.2,297.3 486.6,305.1 473.2,312.7 459.8,305.1 	"/>
	<g>
		<path class="st22" d="M486.2,316.1L486.2,316.1c1.3,0.2,2.6-0.7,2.8-2.1l1.4-10c0.2-1.3-0.7-2.6-2.1-2.8l0,0
			c-1.3-0.2-2.6,0.7-2.8,2.1l-1.4,10C483.9,314.6,484.9,315.9,486.2,316.1z"/>
		<path class="st27" d="M483.8,306.1l0.9-6.1c0.3-2.1,2.2-3.5,4.3-3.2l0,0c2.1,0.3,3.5,2.2,3.2,4.3l-0.9,6.1
			C491.3,307.2,488.2,310.2,483.8,306.1z"/>
		<path class="st22" d="M472.7,318.3L472.7,318.3c0.4,1.3,1.8,1.9,3.1,1.5l11-3.8c1.3-0.1,2.3-1.3,2.2-2.7l0,0
			c-0.1-1.3-1.3-2.3-2.7-2.2l-12.1,4C472.9,315.6,472.3,317,472.7,318.3z"/>
	</g>
</g>
</svg>
