<?xml version="1.0" encoding="utf-8"?>
<!-- Generator: Adobe Illustrator 21.0.0, SVG Export Plug-In . SVG Version: 6.00 Build 0)  -->
<svg version="1.1" id="Layer_1" xmlns="http://www.w3.org/2000/svg" xmlns:xlink="http://www.w3.org/1999/xlink" x="0px" y="0px"
	 viewBox="0 0 254 176" style="enable-background:new 0 0 254 176;" xml:space="preserve">
<style type="text/css">
	.st0{fill:none;stroke:#ECF3FB;stroke-width:2;stroke-miterlimit:10;}
	.st1{opacity:0.2;fill:url(#SVGID_1_);enable-background:new    ;}
	.st2{opacity:0.2;fill:url(#SVGID_2_);enable-background:new    ;}
	.st3{fill:#3C91E5;}
	.st4{fill:url(#SVGID_3_);}
	.st5{fill:url(#SVGID_4_);}
	.st6{fill:none;stroke:#FFFFFF;stroke-width:2;stroke-miterlimit:10;}
	.st7{opacity:0.15;fill:#9AC3F4;enable-background:new    ;}
	.st8{fill:#B3D2FF;}
	.st9{fill:#9AC3F4;}
	.st10{opacity:0.15;fill:#333333;enable-background:new    ;}
	.st11{fill:url(#DesignFloat_3_);}
</style>
<g>
	<g>
		<polygon class="st0" points="28,66.7 28,93.3 51,106.6 74,93.3 74,66.7 51,53.4 		"/>
		<polygon class="st0" points="5,106.7 5,133.3 28,146.6 51,133.3 51,106.7 28,93.4 		"/>
		<polygon class="st0" points="51,106.7 51,133.3 74,146.6 97,133.3 97,106.7 74,93.4 		"/>
	</g>
	
		<linearGradient id="SVGID_1_" gradientUnits="userSpaceOnUse" x1="12.9181" y1="120.2717" x2="46.2515" y2="97.605" gradientTransform="matrix(1 0 0 -1 0 204)">
		<stop  offset="0" style="stop-color:#4789BC"/>
		<stop  offset="1" style="stop-color:#3FB3E9"/>
	</linearGradient>
	<polygon class="st1" points="18.5,88.5 18.5,99.4 28,104.8 37.4,99.4 37.4,88.5 28,83 	"/>
</g>
<g>
	<g>
		<polygon class="st0" points="226,17.7 226,44.3 203,57.6 180,44.3 180,17.7 203,4.4 		"/>
		<polygon class="st0" points="249,57.7 249,84.3 226,97.6 203,84.3 203,57.7 226,44.4 		"/>
		<polygon class="st0" points="203,57.7 203,84.3 180,97.6 157,84.3 157,57.7 180,44.4 		"/>
	</g>
	
		<linearGradient id="SVGID_2_" gradientUnits="userSpaceOnUse" x1="216.6" y1="159.1" x2="235.5" y2="159.1" gradientTransform="matrix(1 0 0 -1 0 204)">
		<stop  offset="0" style="stop-color:#4789BC"/>
		<stop  offset="1" style="stop-color:#3FB3E9"/>
	</linearGradient>
	<polygon class="st2" points="235.5,39.5 235.5,50.4 226,55.8 216.6,50.4 216.6,39.5 226,34 	"/>
</g>
<path class="st3" d="M64,47.8v58.5c0,5.7,3,10.9,7.9,13.7l50.7,29.3c4.9,2.8,10.9,2.8,15.8,0l50.7-29.3c4.9-2.8,7.9-8.1,7.9-13.7
	V47.8c0-5.7-3-10.9-7.9-13.7L138.4,4.8c-4.9-2.8-10.9-2.8-15.8,0L71.9,34.1C67,36.9,64,42.1,64,47.8z"/>
<linearGradient id="SVGID_3_" gradientUnits="userSpaceOnUse" x1="136.9535" y1="166.8869" x2="56.9535" y2="122.3869" gradientTransform="matrix(1 0 0 -1 0 204)">
	<stop  offset="0" style="stop-color:#73ACE5"/>
	<stop  offset="1" style="stop-color:#3C91E5"/>
</linearGradient>
<path class="st4" d="M130,2.7c-2.6,0.1-5.1,0.8-7.4,2.1L71.9,34.1c-4.9,2.8-7.9,8-7.9,13.7v58.5c0,3.6,1.2,7.1,3.4,9.8L130,77V2.7z"
	/>
<linearGradient id="SVGID_4_" gradientUnits="userSpaceOnUse" x1="163.5" y1="296.4011" x2="163.5" y2="65.3347" gradientTransform="matrix(1 0 0 -1 0 204)">
	<stop  offset="0" style="stop-color:#3580C9"/>
	<stop  offset="1" style="stop-color:#3E81C2"/>
</linearGradient>
<path class="st5" d="M189.1,34.1L138.4,4.8c-2.3-1.3-5.9-2-8.4-2.1V77l63.6,39.1c2.2-2.8,3.4-6.2,3.4-9.8V47.8
	C197,42.1,194,36.9,189.1,34.1z"/>
<path class="st6" d="M70.3,51.4v51.3c0,5.7,3,10.9,7.9,13.7l44.4,25.6c4.9,2.8,10.9,2.8,15.8,0l44.4-25.6c4.9-2.8,7.9-8.1,7.9-13.7
	V51.4c0-5.7-3-10.9-7.9-13.7l-44.4-25.6c-4.9-2.8-10.9-2.8-15.8,0L78.2,37.7C73.3,40.5,70.3,45.8,70.3,51.4z"/>
<path class="st6" d="M70.3,51.4v51.3c0,5.7,3,10.9,7.9,13.7l44.4,25.6c4.9,2.8,10.9,2.8,15.8,0l44.4-25.6c4.9-2.8,7.9-8.1,7.9-13.7
	V51.4c0-5.7-3-10.9-7.9-13.7l-44.4-25.6c-4.9-2.8-10.9-2.8-15.8,0L78.2,37.7C73.3,40.5,70.3,45.8,70.3,51.4z"/>
<g>
	<path class="st7" d="M128.4,168.1L108.6,156c-1.4-0.9-3.7-0.9-5.1,0c-0.7,0.4-1.1,1-1.1,1.6s0.4,1.1,1.1,1.6l22.3,13.6
		c1.4,0.9,3.7,0.9,5.1,0l22.3-13.6c1.4-0.9,1.4-2.3,0-3.1c-1.4-0.9-3.7-0.9-5.1,0L128.4,168.1z"/>
	<path class="st7" d="M128.4,158.7l-19.7-12.1c-1.4-0.9-3.7-0.9-5.1,0c-0.7,0.4-1.1,1-1.1,1.6s0.4,1.1,1.1,1.6l22.3,13.6
		c1.4,0.9,3.7,0.9,5.1,0l22.3-13.6c1.4-0.9,1.4-2.3,0-3.1c-1.4-0.9-3.7-0.9-5.1,0L128.4,158.7z"/>
	<g>
		<path class="st8" d="M133.6,172.8l22.3-13.6c1.4-0.9,1.4-2.3,0-3.1c-1.4-0.9-3.7-0.9-5.1,0l-19.8,12L111.3,156
			c-1.4-0.9-3.7-0.9-5.1,0c-0.7,0.4-1.1,1-1.1,1.6s0.4,1.1,1.1,1.6l22.3,13.6C129.8,173.6,132.1,173.6,133.6,172.8z"/>
		<path class="st9" d="M133.6,163.4l22.3-13.6c1.4-0.9,1.4-2.3,0-3.1c-1.4-0.9-3.7-0.9-5.1,0l-19.8,12l-19.7-12.1
			c-1.4-0.9-3.7-0.9-5.1,0c-0.7,0.4-1.1,1-1.1,1.6s0.4,1.1,1.1,1.6l22.3,13.6C129.8,164.3,132.1,164.3,133.6,163.4z"/>
	</g>
</g>
<path d="M272.9,70.2c0,0-0.1,0.1-0.3,0.3c0,0.1,0,0.2-0.1,0.3C272.7,70.6,272.8,70.4,272.9,70.2z"/>
<g>
	<path id="DesignFloat_2_" class="st10" d="M135.7,61.9v-7.3c9.9,2.3,17.1,9.1,19.4,19.9h-7.2C145.9,67.9,141.5,63.8,135.7,61.9z
		 M125,61.9v-7.3c-11.6,2.3-17.7,9.1-19.9,19.9h7.3C114.2,67.9,119.2,63.8,125,61.9z M112.3,84.4H105c2.3,12.4,8.4,18.2,19.9,20.5
		v-7.3C119.2,95.7,114.2,90.2,112.3,84.4z M162.9,79.7c0,18.2-14.7,33-32.9,33s-32.9-14.8-32.9-33s14.7-33,32.9-33
		C148.2,46.7,162.9,61.5,162.9,79.7z M159.6,79.7c0-16.4-13.2-29.7-29.6-29.7c-16.3,0-29.6,13.3-29.6,29.7s13.2,29.7,29.6,29.7
		C146.4,109.5,159.6,96.2,159.6,79.7z M130,94.8c-8.3,0-15-6.7-15-15.1c0-8.3,6.7-15,15-15.1c8.3,0,15,6.7,15,15.1
		S138.3,94.8,130,94.8z M141.7,79.7c0-6.5-5.2-11.7-11.7-11.7c-6.4,0-11.7,5.2-11.7,11.7s5.2,11.7,11.7,11.7
		C136.5,91.5,141.7,86.2,141.7,79.7z M135.7,97.6v7.3c9.9-2.3,17.1-8.1,19.4-20.5h-7.2C145.9,90.2,141.5,95.7,135.7,97.6z M164,99
		c-2,0-3.6,1.6-3.6,3.7c0,2,1.6,3.7,3.6,3.7s3.6-1.6,3.6-3.7C167.6,100.7,166,99,164,99z M155.2,108.3c-2.6,0-4.7,2.1-4.7,4.7
		s2.1,4.7,4.7,4.7c2.6,0,4.7-2.1,4.7-4.7C159.8,110.4,157.7,108.3,155.2,108.3z M162.8,87.1c-1.2,0-2.1,1-2.1,2.1
		c0,1.2,1,2.1,2.1,2.1c1.2,0,2.1-1,2.1-2.1C165,88.1,164,87.1,162.8,87.1z M98.4,111.9c-1.3,0-2.3,1.1-2.3,2.3c0,1.3,1,2.4,2.3,2.4
		s2.3-1.1,2.3-2.4C100.7,112.9,99.6,111.9,98.4,111.9z M97.6,99.5c-1.2,0-2.2,1-2.2,2.2s1,2.2,2.2,2.2s2.2-1,2.2-2.2
		C99.9,100.5,98.9,99.5,97.6,99.5z M104.9,105.2c-1.7,0-3,1.3-3,3s1.3,3,3,3s3-1.3,3-3S106.6,105.2,104.9,105.2z M164,59.6
		c-0.9,0-1.6,0.7-1.6,1.6c0,0.9,0.7,1.6,1.6,1.6c0.9,0,1.6-0.7,1.6-1.6S164.9,59.6,164,59.6z M95.9,53c-1.4,0-2.6,1.2-2.6,2.6
		c0,1.5,1.2,2.6,2.6,2.6c1.5,0,2.6-1.2,2.6-2.6S97.3,53,95.9,53z M101.9,43.3c-1.8,0-3.3,1.5-3.3,3.3s1.5,3.3,3.3,3.3
		s3.3-1.5,3.3-3.3C105.2,44.8,103.7,43.3,101.9,43.3z M96.7,63.9c-0.9,0-1.7,0.7-1.7,1.7c0,0.9,0.7,1.7,1.7,1.7
		c0.9,0,1.7-0.7,1.7-1.7C98.4,64.6,97.6,63.9,96.7,63.9z"/>
	
		<linearGradient id="DesignFloat_3_" gradientUnits="userSpaceOnUse" x1="93.3" y1="100.5" x2="167.6964" y2="100.5" gradientTransform="matrix(1 0 0 -1 0 178)">
		<stop  offset="0" style="stop-color:#FFFFFF"/>
		<stop  offset="0.5" style="stop-color:#FFFFFF"/>
		<stop  offset="0.51" style="stop-color:#DBEFFF"/>
		<stop  offset="1" style="stop-color:#DBEFFF"/>
	</linearGradient>
	<path id="DesignFloat_1_" class="st11" d="M135.7,58.9v-7.3c9.9,2.3,17.1,9.1,19.4,19.9h-7.2C145.9,64.9,141.5,60.8,135.7,58.9z
		 M125,58.9v-7.3c-11.6,2.3-17.7,9.1-19.9,19.9h7.3C114.2,64.9,119.2,60.8,125,58.9z M112.3,81.4H105c2.3,12.4,8.4,18.2,19.9,20.5
		v-7.3C119.2,92.7,114.2,87.2,112.3,81.4z M162.9,76.7c0,18.2-14.7,33-32.9,33s-32.9-14.8-32.9-33s14.7-33,32.9-33
		C148.2,43.7,162.9,58.5,162.9,76.7z M159.6,76.7c0-16.4-13.2-29.7-29.6-29.7c-16.3,0-29.6,13.3-29.6,29.7s13.2,29.7,29.6,29.7
		C146.4,106.5,159.6,93.2,159.6,76.7z M130,91.8c-8.3,0-15-6.7-15-15.1c0-8.3,6.7-15,15-15.1c8.3,0,15,6.7,15,15.1
		S138.3,91.8,130,91.8z M141.7,76.7c0-6.5-5.2-11.7-11.7-11.7c-6.4,0-11.7,5.2-11.7,11.7s5.2,11.7,11.7,11.7
		C136.5,88.5,141.7,83.2,141.7,76.7z M135.7,94.6v7.3c9.9-2.3,17.1-8.1,19.4-20.5h-7.2C145.9,87.2,141.5,92.7,135.7,94.6z M164,96
		c-2,0-3.6,1.6-3.6,3.7c0,2,1.6,3.7,3.6,3.7s3.6-1.6,3.6-3.7C167.6,97.7,166,96,164,96z M155.2,105.3c-2.6,0-4.7,2.1-4.7,4.7
		s2.1,4.7,4.7,4.7c2.6,0,4.7-2.1,4.7-4.7C159.8,107.4,157.7,105.3,155.2,105.3z M162.8,84.1c-1.2,0-2.1,1-2.1,2.1
		c0,1.2,1,2.1,2.1,2.1c1.2,0,2.1-1,2.1-2.1C165,85.1,164,84.1,162.8,84.1z M98.4,108.9c-1.3,0-2.3,1.1-2.3,2.3c0,1.3,1,2.4,2.3,2.4
		s2.3-1.1,2.3-2.4C100.7,109.9,99.6,108.9,98.4,108.9z M97.6,96.5c-1.2,0-2.2,1-2.2,2.2s1,2.2,2.2,2.2s2.2-1,2.2-2.2
		C99.9,97.5,98.9,96.5,97.6,96.5z M104.9,102.2c-1.7,0-3,1.3-3,3s1.3,3,3,3s3-1.3,3-3S106.6,102.2,104.9,102.2z M164,56.6
		c-0.9,0-1.6,0.7-1.6,1.6c0,0.9,0.7,1.6,1.6,1.6c0.9,0,1.6-0.7,1.6-1.6S164.9,56.6,164,56.6z M95.9,50c-1.4,0-2.6,1.2-2.6,2.6
		c0,1.5,1.2,2.6,2.6,2.6c1.5,0,2.6-1.2,2.6-2.6S97.3,50,95.9,50z M101.9,40.3c-1.8,0-3.3,1.5-3.3,3.3s1.5,3.3,3.3,3.3
		s3.3-1.5,3.3-3.3C105.2,41.8,103.7,40.3,101.9,40.3z M96.7,60.9c-0.9,0-1.7,0.7-1.7,1.7c0,0.9,0.7,1.7,1.7,1.7
		c0.9,0,1.7-0.7,1.7-1.7C98.4,61.6,97.6,60.9,96.7,60.9z"/>
</g>
</svg>
