<?xml version="1.0" encoding="utf-8"?>
<!-- Generator: Adobe Illustrator 21.0.0, SVG Export Plug-In . SVG Version: 6.00 Build 0)  -->
<svg version="1.1" id="Layer_1" xmlns="http://www.w3.org/2000/svg" xmlns:xlink="http://www.w3.org/1999/xlink" x="0px" y="0px"
	 viewBox="0 0 254 176" style="enable-background:new 0 0 254 176;" xml:space="preserve">
<style type="text/css">
	.st0{fill:none;stroke:#ECF3FB;stroke-width:2;stroke-miterlimit:10;}
	.st1{opacity:0.2;fill:url(#SVGID_1_);enable-background:new    ;}
	.st2{opacity:0.2;fill:url(#SVGID_2_);enable-background:new    ;}
	.st3{fill:#3C91E5;}
	.st4{fill:url(#SVGID_3_);}
	.st5{fill:url(#SVGID_4_);}
	.st6{fill:none;stroke:#FFFFFF;stroke-width:2;stroke-miterlimit:10;}
	.st7{opacity:0.15;fill:#9AC3F4;enable-background:new    ;}
	.st8{fill:#B3D2FF;}
	.st9{fill:#9AC3F4;}
	.st10{opacity:0.15;}
	.st11{fill:#333333;}
	.st12{fill:url(#SVGID_5_);}
	.st13{fill:url(#SVGID_6_);}
	.st14{fill:url(#SVGID_7_);}
</style>
<g>
	<g>
		<polygon class="st0" points="28,69 28,95.6 51,108.9 74,95.6 74,69 51,55.7 		"/>
		<polygon class="st0" points="5,109 5,135.6 28,148.9 51,135.6 51,109 28,95.7 		"/>
		<polygon class="st0" points="51,109 51,135.6 74,148.9 97,135.6 97,109 74,95.7 		"/>
	</g>
	
		<linearGradient id="SVGID_1_" gradientUnits="userSpaceOnUse" x1="18.5" y1="220.2" x2="37.4" y2="220.2" gradientTransform="matrix(1 0 0 1 0 -124)">
		<stop  offset="0" style="stop-color:#16CBBF"/>
		<stop  offset="1" style="stop-color:#0EDCE7"/>
	</linearGradient>
	<polygon class="st1" points="18.5,90.8 18.5,101.7 28,107.1 37.4,101.7 37.4,90.8 28,85.3 	"/>
</g>
<g>
	<g>
		<polygon class="st0" points="229,16 229,42.6 206,55.9 183,42.6 183,16 206,2.7 		"/>
		<polygon class="st0" points="252,56 252,82.6 229,95.9 206,82.6 206,56 229,42.7 		"/>
		<polygon class="st0" points="206,56 206,82.6 183,95.9 160,82.6 160,56 183,42.7 		"/>
	</g>
	
		<linearGradient id="SVGID_2_" gradientUnits="userSpaceOnUse" x1="219.6" y1="167.2" x2="238.5" y2="167.2" gradientTransform="matrix(1 0 0 1 0 -124)">
		<stop  offset="0" style="stop-color:#16CBBF"/>
		<stop  offset="1" style="stop-color:#0EDCE7"/>
	</linearGradient>
	<polygon class="st2" points="238.5,37.8 238.5,48.7 229,54.1 219.6,48.7 219.6,37.8 229,32.3 	"/>
</g>
<path class="st3" d="M62,47.8v58.5c0,5.7,3,10.9,7.9,13.7l50.7,29.3c4.9,2.8,10.9,2.8,15.8,0l50.7-29.3c4.9-2.8,7.9-8.1,7.9-13.7
	V47.8c0-5.7-3-10.9-7.9-13.7L136.4,4.8c-4.9-2.8-10.9-2.8-15.8,0L69.9,34.1C65,36.9,62,42.1,62,47.8z"/>
<linearGradient id="SVGID_3_" gradientUnits="userSpaceOnUse" x1="134.9535" y1="166.8869" x2="54.9535" y2="122.3869" gradientTransform="matrix(1 0 0 -1 0 204)">
	<stop  offset="0" style="stop-color:#73ACE5"/>
	<stop  offset="1" style="stop-color:#3C91E5"/>
</linearGradient>
<path class="st4" d="M128,2.7c-2.6,0.1-5.1,0.8-7.4,2.1L69.9,34.1c-4.9,2.8-7.9,8-7.9,13.7v58.5c0,3.6,1.2,7.1,3.4,9.8L128,77V2.7z"
	/>
<linearGradient id="SVGID_4_" gradientUnits="userSpaceOnUse" x1="161.5" y1="296.4011" x2="161.5" y2="65.3347" gradientTransform="matrix(1 0 0 -1 0 204)">
	<stop  offset="0" style="stop-color:#3580C9"/>
	<stop  offset="1" style="stop-color:#3E81C2"/>
</linearGradient>
<path class="st5" d="M187.1,34.1L136.4,4.8c-2.3-1.3-5.9-2-8.4-2.1V77l63.6,39.1c2.2-2.8,3.4-6.2,3.4-9.8V47.8
	C195,42.1,192,36.9,187.1,34.1z"/>
<path class="st6" d="M68.3,51.4v51.3c0,5.7,3,10.9,7.9,13.7l44.4,25.6c4.9,2.8,10.9,2.8,15.8,0l44.4-25.6c4.9-2.8,7.9-8.1,7.9-13.7
	V51.4c0-5.7-3-10.9-7.9-13.7l-44.4-25.6c-4.9-2.8-10.9-2.8-15.8,0L76.2,37.7C71.3,40.5,68.3,45.8,68.3,51.4z"/>
<path class="st6" d="M68.3,51.4v51.3c0,5.7,3,10.9,7.9,13.7l44.4,25.6c4.9,2.8,10.9,2.8,15.8,0l44.4-25.6c4.9-2.8,7.9-8.1,7.9-13.7
	V51.4c0-5.7-3-10.9-7.9-13.7l-44.4-25.6c-4.9-2.8-10.9-2.8-15.8,0L76.2,37.7C71.3,40.5,68.3,45.8,68.3,51.4z"/>
<g>
	<path class="st7" d="M126.4,168.1L106.6,156c-1.4-0.9-3.7-0.9-5.1,0c-0.7,0.4-1.1,1-1.1,1.6s0.4,1.1,1.1,1.6l22.3,13.6
		c1.4,0.9,3.7,0.9,5.1,0l22.3-13.6c1.4-0.9,1.4-2.3,0-3.1c-1.4-0.9-3.7-0.9-5.1,0L126.4,168.1z"/>
	<path class="st7" d="M126.4,158.7l-19.7-12.1c-1.4-0.9-3.7-0.9-5.1,0c-0.7,0.4-1.1,1-1.1,1.6s0.4,1.1,1.1,1.6l22.3,13.6
		c1.4,0.9,3.7,0.9,5.1,0l22.3-13.6c1.4-0.9,1.4-2.3,0-3.1c-1.4-0.9-3.7-0.9-5.1,0L126.4,158.7z"/>
	<g>
		<path class="st8" d="M131.6,172.8l22.3-13.6c1.4-0.9,1.4-2.3,0-3.1c-1.4-0.9-3.7-0.9-5.1,0l-19.8,12L109.3,156
			c-1.4-0.9-3.7-0.9-5.1,0c-0.7,0.4-1.1,1-1.1,1.6s0.4,1.1,1.1,1.6l22.3,13.6C127.8,173.6,130.1,173.6,131.6,172.8z"/>
		<path class="st9" d="M131.6,163.4l22.3-13.6c1.4-0.9,1.4-2.3,0-3.1c-1.4-0.9-3.7-0.9-5.1,0l-19.8,12l-19.7-12.1
			c-1.4-0.9-3.7-0.9-5.1,0c-0.7,0.4-1.1,1-1.1,1.6s0.4,1.1,1.1,1.6l22.3,13.6C127.8,164.3,130.1,164.3,131.6,163.4z"/>
	</g>
</g>
<g>
	<g class="st10">
		<path class="st11" d="M155.2,60.9h-1c-0.7,0-1.3-0.4-1.5-1c-2.7-7.7-11.2-11.8-18.9-9.1c-3.8,1.3-6.9,4.2-8.6,7.8
			c-0.4,0.8-1.3,1.1-2.1,0.8c-0.2-0.1-0.3-0.2-0.5-0.3c-5.8-5.8-15.2-5.9-21-0.1c-2.8,2.8-4.4,6.6-4.4,10.6V75
			c0,0.9-0.7,1.6-1.6,1.6H91c-4.3,0-7.8,3.5-7.8,7.8s3.5,7.8,7.8,7.8h11c0.8-13.8,12.7-24.3,26.5-23.5c12.6,0.8,22.7,10.8,23.5,23.5
			h3.2c8.6,0,15.7-7,15.7-15.7S163.8,60.9,155.2,60.9z M164.6,81.2h-3.1v-3.1h3.1V81.2z M161.4,75c0-3.5-2.8-6.3-6.3-6.3v-3.1
			c5.2,0,9.4,4.2,9.4,9.4H161.4z"/>
		<polygon class="st11" points="111.3,103.1 111.3,114.8 121.9,103.1 		"/>
		<path class="st11" d="M127,71.8c-11.5,0-21,8.9-21.8,20.4h6.3c0.9-8.6,8.5-14.9,17.1-14s14.9,8.5,14,17.1
			c-0.8,8-7.5,14.1-15.6,14.1c-1.9,0-3.8-0.4-5.6-1.1l-4.4,4.9c10.8,5.5,24,1.3,29.5-9.4c5.5-10.8,1.3-24-9.4-29.5
			C133.9,72.7,130.5,71.8,127,71.8z"/>
	</g>
	<g>
		
			<linearGradient id="SVGID_5_" gradientUnits="userSpaceOnUse" x1="86.1159" y1="108.5838" x2="168.8159" y2="108.5838" gradientTransform="matrix(1 0 0 -1 0 178)">
			<stop  offset="0" style="stop-color:#FFFFFF"/>
			<stop  offset="0.5" style="stop-color:#FFFFFF"/>
			<stop  offset="0.51" style="stop-color:#DBEFFF"/>
			<stop  offset="1" style="stop-color:#DBEFFF"/>
		</linearGradient>
		<path class="st12" d="M154,59.8h-0.9c-0.6,0-1.2-0.4-1.4-1c-2.6-7.3-10.6-11.1-17.9-8.6c-3.6,1.3-6.5,3.9-8.1,7.4
			c-0.3,0.7-1.2,1.1-2,0.7c-0.2-0.1-0.3-0.2-0.4-0.3c-5.4-5.5-14.3-5.6-19.8-0.1c-2.7,2.6-4.2,6.2-4.2,10v5.2c0,0.8-0.7,1.5-1.5,1.5
			h-4.4c-4.1,0-7.4,3.3-7.4,7.4s3.3,7.4,7.4,7.4h10.4c0.8-13,12-22.9,25-22.1c11.9,0.7,21.4,10.2,22.1,22.1h3
			c8.2,0,14.8-6.6,14.8-14.8S162.2,59.8,154,59.8z M162.9,79h-3v-3h3V79z M160,73.1c0-3.3-2.6-5.9-5.9-5.9v-3c4.9,0,8.9,4,8.9,8.9
			H160z"/>
		
			<linearGradient id="SVGID_6_" gradientUnits="userSpaceOnUse" x1="112.7" y1="72.85" x2="122.6522" y2="72.85" gradientTransform="matrix(1 0 0 -1 0 178)">
			<stop  offset="0" style="stop-color:#FFFFFF"/>
			<stop  offset="0.5" style="stop-color:#FFFFFF"/>
			<stop  offset="0.51" style="stop-color:#DBEFFF"/>
			<stop  offset="1" style="stop-color:#DBEFFF"/>
		</linearGradient>
		<polygon class="st13" points="112.7,99.7 112.7,110.6 122.7,99.7 		"/>
		
			<linearGradient id="SVGID_7_" gradientUnits="userSpaceOnUse" x1="106.9" y1="87.2101" x2="148.1806" y2="87.2101" gradientTransform="matrix(1 0 0 -1 0 178)">
			<stop  offset="0" style="stop-color:#FFFFFF"/>
			<stop  offset="0.5" style="stop-color:#FFFFFF"/>
			<stop  offset="0.51" style="stop-color:#DBEFFF"/>
			<stop  offset="1" style="stop-color:#DBEFFF"/>
		</linearGradient>
		<path class="st14" d="M127.5,70.1c-10.8,0-19.8,8.4-20.6,19.2h5.9c0.8-8.1,8.1-14,16.2-13.2s14,8.1,13.2,16.2
			c-0.8,7.5-7.1,13.3-14.7,13.3c-1.8,0-3.6-0.3-5.3-1l-4.2,4.6c10.1,5.2,22.6,1.2,27.8-8.9s1.2-22.6-8.9-27.8
			C134,70.9,130.8,70.1,127.5,70.1z"/>
	</g>
</g>
</svg>
