<?xml version="1.0" encoding="utf-8"?>
<!-- Generator: Adobe Illustrator 21.0.0, SVG Export Plug-In . SVG Version: 6.00 Build 0)  -->
<svg version="1.1" id="Layer_1" xmlns="http://www.w3.org/2000/svg" xmlns:xlink="http://www.w3.org/1999/xlink" x="0px" y="0px"
	 viewBox="0 0 564 426" style="enable-background:new 0 0 564 426;" xml:space="preserve">
<style type="text/css">
	.st0{opacity:8.000000e-02;fill:url(#SVGID_1_);enable-background:new    ;}
	.st1{opacity:8.000000e-02;fill:url(#SVGID_2_);enable-background:new    ;}
	.st2{display:none;opacity:0.3;fill:none;stroke:#29E4BC;stroke-miterlimit:10;enable-background:new    ;}
	.st3{display:none;opacity:0.3;fill:none;stroke:#27A2E1;stroke-miterlimit:10;enable-background:new    ;}
	.st4{display:none;opacity:0.3;fill:none;stroke:#1071DE;stroke-miterlimit:10;enable-background:new    ;}
	.st5{display:none;}
	.st6{display:inline;opacity:4.000000e-02;fill:#27A2E1;enable-background:new    ;}
	.st7{display:none;opacity:0.5;}
	.st8{display:inline;}
	.st9{fill:#FFF41F;}
	.st10{display:none;opacity:0.5;fill:#FFF41F;enable-background:new    ;}
	.st11{opacity:0.3;}
	.st12{opacity:0.15;}
	.st13{fill:url(#SVGID_3_);}
	.st14{fill:url(#SVGID_4_);}
	.st15{fill:url(#SVGID_5_);}
	.st16{fill:url(#SVGID_6_);}
	.st17{opacity:0.15;fill:url(#SVGID_7_);enable-background:new    ;}
	.st18{fill:url(#SVGID_8_);}
	.st19{fill:url(#SVGID_9_);}
	.st20{fill:url(#SVGID_10_);}
	.st21{opacity:0.15;fill:url(#SVGID_11_);enable-background:new    ;}
	.st22{fill:url(#SVGID_12_);}
	.st23{fill:url(#SVGID_13_);}
	.st24{fill:url(#SVGID_14_);}
	.st25{fill:url(#SVGID_15_);}
	.st26{fill:url(#SVGID_16_);}
	.st27{fill:url(#SVGID_17_);}
	.st28{fill:url(#SVGID_18_);}
	.st29{fill:url(#SVGID_19_);}
	.st30{fill:url(#SVGID_20_);}
	.st31{fill:url(#SVGID_21_);}
	.st32{fill:url(#SVGID_22_);}
	.st33{fill:url(#SVGID_23_);}
	.st34{fill:url(#SVGID_24_);}
</style>
<linearGradient id="SVGID_1_" gradientUnits="userSpaceOnUse" x1="280.8301" y1="-61.0854" x2="580.3931" y2="-61.0854" gradientTransform="matrix(0.8868 -0.4622 0.4622 0.8868 35.5598 516.5979)">
	<stop  offset="0" style="stop-color:#00EAF7"/>
	<stop  offset="3.033465e-02" style="stop-color:#04E1F4"/>
	<stop  offset="0.2106" style="stop-color:#1BADE5"/>
	<stop  offset="0.388" style="stop-color:#2D82D8"/>
	<stop  offset="0.5589" style="stop-color:#3C61CF"/>
	<stop  offset="0.7215" style="stop-color:#4749C8"/>
	<stop  offset="0.8723" style="stop-color:#4D3BC3"/>
	<stop  offset="1" style="stop-color:#4F36C2"/>
</linearGradient>
<path class="st0" d="M407.3,345.9l-135.2,0.7c-2.8,0-5,2.3-5,5v0.4c0,2.8,2.3,5,5,5l135.2-0.7c2.8,0,5-2.3,5-5v-0.4
	C412.3,348.1,410,345.9,407.3,345.9z M481.3,355.9l-55.6,0.3c-2.8,0-5-2.2-5-5v-0.4c0-2.8,2.2-5,5-5l55.6-0.3c2.8,0,5,2.2,5,5v0.4
	C486.3,353.7,484.1,355.9,481.3,355.9z M347.8,330.8l-54.9,0.3c-2.8,0-5,2.3-5,5v0.4c0,2.8,2.3,5,5,5l54.9-0.3c2.8,0,5-2.3,5-5v-0.4
	C352.8,333,350.6,330.8,347.8,330.8z M501.4,340.4l-135.2,0.7c-2.8,0-5-2.2-5-5v-0.4c0-2.8,2.2-5,5-5l135.2-0.7c2.8,0,5,2.2,5,5v0.4
	C506.4,338.2,504.2,340.4,501.4,340.4z M418.5,298.8l-116.8,0.6c-2.8,0-5,2.3-5,5v0.4c0,2.8,2.3,5,5,5l116.8-0.6c2.8,0,5-2.3,5-5
	v-0.4C423.5,301,421.3,298.8,418.5,298.8z M514.2,308.8l-77.2,0.4c-2.8,0-5-2.2-5-5v-0.4c0-2.8,2.2-5,5-5l77.2-0.4c2.8,0,5,2.2,5,5
	v0.4C519.2,306.5,516.9,308.7,514.2,308.8z M397.6,314l-116.8,0.6c-2.8,0-5,2.3-5,5v0.4c0,2.8,2.3,5,5,5l116.8-0.6c2.8,0,5-2.3,5-5
	V319C402.7,316.2,400.4,313.9,397.6,314z M493.3,323.9l-77.2,0.4c-2.8,0-5-2.2-5-5v-0.4c0-2.8,2.2-5,5-5l77.2-0.4c2.8,0,5,2.2,5,5
	v0.4C498.3,321.6,496,323.9,493.3,323.9z M391.4,265.7l-116.8,0.6c-2.8,0-5,2.3-5,5v0.4c0,2.8,2.3,5,5,5l116.8-0.6c2.8,0,5-2.3,5-5
	v-0.4C396.4,268,394.1,265.7,391.4,265.7z M487,275.7l-77.2,0.4c-2.8,0-5-2.2-5-5v-0.4c0-2.8,2.2-5,5-5l77.2-0.4c2.8,0,5,2.2,5,5
	v0.4C492,273.4,489.8,275.7,487,275.7z M370.3,215.8l-116.8,0.6c-2.8,0-5,2.3-5,5v0.4c0,2.8,2.3,5,5,5l116.8-0.6c2.8,0,5-2.3,5-5
	v-0.4C375.3,218,373.1,215.8,370.3,215.8z M465.9,225.7l-77.2,0.4c-2.8,0-5-2.2-5-5v-0.4c0-2.8,2.2-5,5-5l77.2-0.4c2.8,0,5,2.2,5,5
	v0.4C470.9,223.5,468.7,225.7,465.9,225.7z M384.2,231.1L249,231.8c-2.8,0-5,2.3-5,5v0.4c0,2.8,2.3,5,5,5l135.2-0.7c2.8,0,5-2.3,5-5
	v-0.4C389.2,233.3,387,231.1,384.2,231.1z M537.8,240.7l-135.2,0.7c-2.8,0-5-2.2-5-5V236c0-2.8,2.2-5,5-5l135.2-0.7c2.8,0,5,2.2,5,5
	v0.4C542.8,238.5,540.6,240.7,537.8,240.7z M347.6,282.7l-86.6,0.5c-2.8,0-5,2.3-5,5v0.4c0,2.8,2.3,5,5,5l86.6-0.5c2.8,0,5-2.3,5-5
	v-0.4C352.6,284.9,350.3,282.7,347.6,282.7z M501.2,292.4L366,293.1c-2.8,0-5-2.2-5-5v-0.4c0-2.8,2.2-5,5-5l135.2-0.7
	c2.8,0,5,2.2,5,5v0.4C506.2,290.1,503.9,292.4,501.2,292.4z M309.6,250.3l-66.5,0.3c-2.8,0-5,2.3-5,5v0.4c0,2.8,2.3,5,5,5l66.5-0.3
	c2.8,0,5-2.3,5-5v-0.4C314.6,252.5,312.4,250.3,309.6,250.3z M480.8,259.8L328,260.6c-2.8,0-5-2.2-5-5v-0.4c0-2.8,2.2-5,5-5
	l152.8-0.8c2.8,0,5,2.2,5,5v0.4C485.8,257.6,483.6,259.8,480.8,259.8z M360.5,199l-114.2,0.6c-2.8,0-5,2.3-5,5v0.4c0,2.8,2.3,5,5,5
	l114.2-0.6c2.8,0,5-2.3,5-5V204C365.5,201.2,363.2,199,360.5,199z M491.9,208.8l-114.2,0.6c-2.8,0-5-2.2-5-5V204c0-2.8,2.2-5,5-5
	l114.2-0.6c2.8,0,5,2.2,5,5v0.4C496.9,206.5,494.6,208.7,491.9,208.8z M324.9,180l-45.7,0.2c-2.8,0-5,2.3-5,5v0.4c0,2.8,2.3,5,5,5
	l45.7-0.2c2.8,0,5-2.3,5-5V185C329.9,182.2,327.7,179.9,324.9,180z M478.5,189.6l-135.2,0.7c-2.8,0-5-2.2-5-5v-0.4c0-2.8,2.2-5,5-5
	l135.2-0.7c2.8,0,5,2.2,5,5v0.4C483.5,187.3,481.3,189.6,478.5,189.6z"/>
<linearGradient id="SVGID_2_" gradientUnits="userSpaceOnUse" x1="99.9899" y1="-246.3069" x2="399.4853" y2="-246.3069" gradientTransform="matrix(0.8897 -0.4566 0.4566 0.8897 48.1165 512.4086)">
	<stop  offset="0" style="stop-color:#00EAF7"/>
	<stop  offset="3.033465e-02" style="stop-color:#04E1F4"/>
	<stop  offset="0.2106" style="stop-color:#1BADE5"/>
	<stop  offset="0.388" style="stop-color:#2D82D8"/>
	<stop  offset="0.5589" style="stop-color:#3C61CF"/>
	<stop  offset="0.7215" style="stop-color:#4749C8"/>
	<stop  offset="0.8723" style="stop-color:#4D3BC3"/>
	<stop  offset="1" style="stop-color:#4F36C2"/>
</linearGradient>
<path class="st1" d="M175.4,261.8l-135.2-0.2c-2.8,0-5,2.2-5,5v0.4c0,2.8,2.2,5,5,5l135.2,0.2c2.8,0,5-2.2,5-5v-0.4
	C180.4,264.1,178.1,261.8,175.4,261.8z M249.4,272.4l-55.6-0.1c-2.8,0-5-2.2-5-5v-0.4c0-2.8,2.2-5,5-5l55.6,0.1c2.8,0,5,2.2,5,5v0.4
	C254.4,270.1,252.1,272.4,249.4,272.4z M116,246.3l-54.9-0.1c-2.8,0-5,2.2-5,5v0.4c0,2.8,2.2,5,5,5l54.9,0.1c2.8,0,5-2.2,5-5v-0.4
	C121,248.6,118.8,246.4,116,246.3z M269.6,257l-135.2-0.2c-2.8,0-5-2.2-5-5v-0.4c0-2.8,2.2-5,5-5l135.2,0.2c2.8,0,5,2.2,5,5v0.4
	C274.6,254.7,272.3,257,269.6,257z M186.9,214.8l-116.8-0.1c-2.8,0-5,2.2-5,5v0.4c0,2.8,2.2,5,5,5l116.8,0.1c2.8,0,5-2.2,5-5v-0.4
	C191.9,217.1,189.7,214.8,186.9,214.8z M282.5,225.4l-77.2-0.1c-2.8,0-5-2.2-5-5v-0.4c0-2.8,2.2-5,5-5l77.2,0.1c2.8,0,5,2.2,5,5v0.4
	C287.5,223.2,285.3,225.4,282.5,225.4z M165.9,229.8l-116.8-0.1c-2.8,0-5,2.2-5,5v0.4c0,2.8,2.2,5,5,5l116.8,0.1c2.8,0,5-2.2,5-5
	v-0.4C170.9,232.1,168.7,229.8,165.9,229.8z M261.5,240.4l-77.2-0.1c-2.8,0-5-2.2-5-5v-0.4c0-2.8,2.2-5,5-5l77.2,0.1
	c2.8,0,5,2.2,5,5v0.4C266.5,238.2,264.3,240.4,261.5,240.4z M160,181.6l-116.8-0.1c-2.8,0-5,2.2-5,5v0.4c0,2.8,2.2,5,5,5L160,192
	c2.8,0,5-2.2,5-5v-0.4C165,183.8,162.7,181.6,160,181.6z M255.5,192.1l-77.2-0.1c-2.8,0-5-2.2-5-5v-0.4c0-2.8,2.2-5,5-5l77.2,0.1
	c2.8,0,5,2.2,5,5v0.4C260.5,189.9,258.3,192.1,255.5,192.1z M139.2,131.5l-116.8-0.1c-2.8,0-5,2.2-5,5v0.4c0,2.8,2.2,5,5,5
	l116.8,0.1c2.8,0,5-2.2,5-5v-0.4C144.2,133.7,142,131.5,139.2,131.5z M234.8,142l-77.2-0.1c-2.8,0-5-2.2-5-5v-0.4c0-2.8,2.2-5,5-5
	l77.2,0.1c2.8,0,5,2.2,5,5v0.4C239.8,139.8,237.6,142,234.8,142z M153,146.9l-135.2-0.2c-2.8,0-5,2.2-5,5v0.4c0,2.8,2.2,5,5,5
	l135.2,0.2c2.8,0,5-2.2,5-5v-0.4C158,149.1,155.8,146.9,153,146.9z M306.6,157.5l-135.2-0.2c-2.8,0-5-2.2-5-5v-0.4c0-2.8,2.2-5,5-5
	l135.2,0.2c2.8,0,5,2.2,5,5v0.4C311.6,155.3,309.4,157.5,306.6,157.5z M116.1,198.3l-86.6-0.1c-2.8,0-5,2.2-5,5v0.4c0,2.8,2.2,5,5,5
	l86.6,0.1c2.8,0,5-2.2,5-5v-0.4C121.1,200.5,118.8,198.3,116.1,198.3z M269.6,208.9l-135.2-0.2c-2.8,0-5-2.2-5-5v-0.4
	c0-2.8,2.2-5,5-5l135.2,0.2c2.8,0,5,2.2,5,5v0.4C274.6,206.7,272.4,208.9,269.6,208.9z M78.3,165.6l-66.5-0.1c-2.8,0-5,2.2-5,5v0.4
	c0,2.8,2.2,5,5,5l66.5,0.1c2.8,0,5-2.2,5-5v-0.4C83.3,167.9,81.1,165.6,78.3,165.6z M249.5,176.3l-152.8-0.2c-2.8,0-5-2.2-5-5v-0.4
	c0-2.8,2.2-5,5-5l152.8,0.2c2.8,0,5,2.2,5,5v0.4C254.5,174,252.2,176.3,249.5,176.3z M129.5,114.6l-114.2-0.1c-2.8,0-5,2.2-5,5v0.4
	c0,2.8,2.2,5,5,5l114.2,0.1c2.8,0,5-2.2,5-5v-0.4C134.5,116.9,132.2,114.7,129.5,114.6z M260.8,125.2l-114.2-0.1c-2.8,0-5-2.2-5-5
	v-0.4c0-2.8,2.2-5,5-5l114.2,0.1c2.8,0,5,2.2,5,5v0.4C265.8,123,263.6,125.2,260.8,125.2z M94.1,95.4l-45.7-0.1c-2.8,0-5,2.2-5,5
	v0.4c0,2.8,2.2,5,5,5l45.7,0.1c2.8,0,5-2.2,5-5v-0.4C99.1,97.6,96.8,95.4,94.1,95.4z M247.6,106l-135.2-0.2c-2.8,0-5-2.2-5-5v-0.4
	c0-2.8,2.2-5,5-5l135.2,0.2c2.8,0,5,2.2,5,5v0.4C252.6,103.8,250.4,106,247.6,106z"/>
<ellipse transform="matrix(0.309 -0.9511 0.9511 0.309 -7.6936 415.3792)" class="st2" cx="282" cy="213" rx="213" ry="84"/>
<ellipse transform="matrix(0.8452 -0.5345 0.5345 0.8452 -70.1773 183.7059)" class="st3" cx="282" cy="213" rx="213" ry="84"/>
<ellipse transform="matrix(0.4875 -0.8731 0.8731 0.4875 -41.468 355.3898)" class="st4" cx="282" cy="213" rx="84" ry="213"/>
<g class="st5">
	<ellipse class="st6" cx="282" cy="213" rx="84" ry="213"/>
	<ellipse transform="matrix(0.5878 -0.809 0.809 0.5878 -56.0845 315.9408)" class="st6" cx="282" cy="213" rx="213" ry="84"/>
	<ellipse transform="matrix(0.809 -0.5878 0.5878 0.809 -71.3369 206.4401)" class="st6" cx="282" cy="213" rx="213" ry="84"/>
	<ellipse transform="matrix(0.9511 -0.309 0.309 0.9511 -52.0191 97.5612)" class="st6" cx="282" cy="213" rx="213" ry="84"/>
	<ellipse class="st6" cx="282" cy="213" rx="213" ry="84"/>
	<ellipse transform="matrix(0.309 -0.9511 0.9511 0.309 -7.6936 415.3792)" class="st6" cx="282" cy="213" rx="84" ry="213"/>
	<ellipse transform="matrix(0.5878 -0.809 0.809 0.5878 -56.0845 315.9408)" class="st6" cx="282" cy="213" rx="84" ry="213"/>
	<ellipse transform="matrix(0.809 -0.5878 0.5878 0.809 -71.3369 206.4401)" class="st6" cx="282" cy="213" rx="84" ry="213"/>
	<ellipse transform="matrix(0.9511 -0.309 0.309 0.9511 -52.0191 97.5612)" class="st6" cx="282" cy="213" rx="84" ry="213"/>
</g>
<g class="st7">
	<g class="st8">
		<path class="st9" d="M179,319.7c-0.3,0.1-0.7,0.2-1,0.3c0,2.6,0,5.2,0.1,7.7c0.3,0.2,0.7,0.3,1,0.5C179,325.4,179,322.6,179,319.7
			z"/>
	</g>
	<g class="st8">
		<path class="st9" d="M255.7,407.3c0,0.4,0,0.8,0,1.2c9.8-5.9,19.9-14.7,30.2-26.1c0.2-0.8,0.5-1.5,0.7-2.3
			C276,392.1,265.7,401.2,255.7,407.3z"/>
	</g>
	<g class="st8">
		<path class="st9" d="M384.3,125.5c-2.3,34.9-10.1,74-22.9,113.3c-10,30.8-22.4,59.7-36.3,85.1c0.3,0.1,0.6,0.3,0.9,0.4
			c6.2-11.2,12-23.2,17.5-35.7c0.3-1.1,0.7-2.2,1.1-3.3c0.3-0.8,0.8-1.6,1.4-2.5c5.9-14,11.4-28.6,16.3-43.7
			c12.7-39,20.5-77.8,22.9-112.5C384.9,126.2,384.6,125.9,384.3,125.5z"/>
	</g>
	<g class="st8">
		<path class="st9" d="M325.1,326c-0.2-0.5-0.3-0.9-0.4-1.3c-6.2,11.2-12.6,21.7-19.3,31.3c0.2,0.3,0.4,0.5,0.7,0.8
			C312.6,347.4,319,337,325.1,326z"/>
	</g>
</g>
<path class="st10" d="M324.1,323.3c0,0,5.7,3.3,14.1,4.2c-30.4-9-63.7-23-97-41.6c-28.1-15.7-53.8-33.3-75.9-51.6v1.3
	c21.9,18.2,47.5,35.7,75.4,51.2c28,15.7,56.5,28.4,83.7,37.5C324.3,323.7,324.1,323.3,324.1,323.3z"/>
<path class="st10" d="M332.8,95.2l-1.2-0.7c-30.6,10.9-63.1,27-94.8,47c-26.5,16.8-50.7,35.2-71.4,54.3v1.4
	c20.4-18.9,44.7-37.6,72-54.8C269.9,121.8,302.7,105.9,332.8,95.2z"/>
<g class="st11">
	<g>
		<g class="st12">
			
				<linearGradient id="SVGID_3_" gradientUnits="userSpaceOnUse" x1="109.4747" y1="83.7" x2="118.0649" y2="83.7" gradientTransform="matrix(1 0 0 -1 0 426)">
				<stop  offset="0" style="stop-color:#00EAF7"/>
				<stop  offset="3.033465e-02" style="stop-color:#04E1F4"/>
				<stop  offset="0.2106" style="stop-color:#1BADE5"/>
				<stop  offset="0.388" style="stop-color:#2D82D8"/>
				<stop  offset="0.5589" style="stop-color:#3C61CF"/>
				<stop  offset="0.7215" style="stop-color:#4749C8"/>
				<stop  offset="0.8723" style="stop-color:#4D3BC3"/>
				<stop  offset="1" style="stop-color:#4F36C2"/>
			</linearGradient>
			<circle class="st13" cx="113.8" cy="342.3" r="4.3"/>
			
				<linearGradient id="SVGID_4_" gradientUnits="userSpaceOnUse" x1="99" y1="83.7" x2="128.5396" y2="83.7" gradientTransform="matrix(1 0 0 -1 0 426)">
				<stop  offset="0" style="stop-color:#00EAF7"/>
				<stop  offset="3.033465e-02" style="stop-color:#04E1F4"/>
				<stop  offset="0.2106" style="stop-color:#1BADE5"/>
				<stop  offset="0.388" style="stop-color:#2D82D8"/>
				<stop  offset="0.5589" style="stop-color:#3C61CF"/>
				<stop  offset="0.7215" style="stop-color:#4749C8"/>
				<stop  offset="0.8723" style="stop-color:#4D3BC3"/>
				<stop  offset="1" style="stop-color:#4F36C2"/>
			</linearGradient>
			<path class="st14" d="M113.7,335.8L113.7,335.8H127c-2.4-4.9-7.5-8.2-13.2-8.2c-4.7,0-8.9,2.2-11.6,5.6l5,8.6
				C107.5,338.4,110.3,335.8,113.7,335.8z M113.8,348.8c-2.8,0-5.3-1.8-6.1-4.3l-6.1-10.4c-1.6,2.4-2.5,5.2-2.5,8.2
				c0,7.5,5.5,13.6,12.6,14.6l5.1-8.8C115.8,348.6,114.8,348.8,113.8,348.8z M127.5,336.8h-10.1c1.8,1.2,3,3.2,3,5.5
				c0,1.1-0.3,2.2-0.8,3.1l0,0l-6.7,11.6c0.3,0,0.7,0,1,0c8.2,0,14.8-6.6,14.8-14.8C128.5,340.4,128.1,338.5,127.5,336.8z"/>
		</g>
		<g>
			
				<linearGradient id="SVGID_5_" gradientUnits="userSpaceOnUse" x1="113.8" y1="107.6667" x2="113.8" y2="47.9767" gradientTransform="matrix(1 0 0 -1 0 426)">
				<stop  offset="0" style="stop-color:#00EAF7"/>
				<stop  offset="3.033465e-02" style="stop-color:#04E1F4"/>
				<stop  offset="0.2106" style="stop-color:#1BADE5"/>
				<stop  offset="0.388" style="stop-color:#2D82D8"/>
				<stop  offset="0.5589" style="stop-color:#3C61CF"/>
				<stop  offset="0.7215" style="stop-color:#4749C8"/>
				<stop  offset="0.8723" style="stop-color:#4D3BC3"/>
				<stop  offset="1" style="stop-color:#4F36C2"/>
			</linearGradient>
			<circle class="st15" cx="113.8" cy="340.3" r="4.3"/>
			
				<linearGradient id="SVGID_6_" gradientUnits="userSpaceOnUse" x1="113.9" y1="107.6667" x2="113.9" y2="47.9767" gradientTransform="matrix(1 0 0 -1 0 426)">
				<stop  offset="0" style="stop-color:#00EAF7"/>
				<stop  offset="3.033465e-02" style="stop-color:#04E1F4"/>
				<stop  offset="0.2106" style="stop-color:#1BADE5"/>
				<stop  offset="0.388" style="stop-color:#2D82D8"/>
				<stop  offset="0.5589" style="stop-color:#3C61CF"/>
				<stop  offset="0.7215" style="stop-color:#4749C8"/>
				<stop  offset="0.8723" style="stop-color:#4D3BC3"/>
				<stop  offset="1" style="stop-color:#4F36C2"/>
			</linearGradient>
			<path class="st16" d="M113.7,333.8L113.7,333.8H127c-2.4-4.9-7.5-8.2-13.2-8.2c-4.7,0-8.9,2.2-11.6,5.6l5,8.6
				C107.5,336.4,110.3,333.8,113.7,333.8z M113.8,346.8c-2.8,0-5.3-1.8-6.1-4.3l-6.1-10.5c-1.6,2.4-2.5,5.2-2.5,8.2
				c0,7.5,5.5,13.6,12.6,14.6l5.1-8.8C115.8,346.6,114.8,346.8,113.8,346.8z M127.5,334.8h-10.1c1.8,1.2,3,3.2,3,5.5
				c0,1.1-0.3,2.2-0.8,3.1l0,0l-6.7,11.6c0.3,0,0.7,0,1,0c8.2,0,14.8-6.6,14.8-14.8C128.5,338.4,128.1,336.5,127.5,334.8z"/>
		</g>
	</g>
</g>
<g class="st11">
	<g>
		
			<linearGradient id="SVGID_7_" gradientUnits="userSpaceOnUse" x1="183.6346" y1="83.9203" x2="213.9183" y2="83.9203" gradientTransform="matrix(1 0 0 -1 0 426)">
			<stop  offset="0" style="stop-color:#00EAF7"/>
			<stop  offset="3.033465e-02" style="stop-color:#04E1F4"/>
			<stop  offset="0.2106" style="stop-color:#1BADE5"/>
			<stop  offset="0.388" style="stop-color:#2D82D8"/>
			<stop  offset="0.5589" style="stop-color:#3C61CF"/>
			<stop  offset="0.7215" style="stop-color:#4749C8"/>
			<stop  offset="0.8723" style="stop-color:#4D3BC3"/>
			<stop  offset="1" style="stop-color:#4F36C2"/>
		</linearGradient>
		<path class="st17" d="M213.9,342.9c0-2.3-0.6-4.4-1.5-6.3c0.3-0.7,0.6-1.7,0.9-3c1.1-4.2-1.5-6.7-5.5-6.3c-2.5,0.2-4.7,0.9-7,1.9
			c-0.2,0-0.4,0-0.6,0c-6.7,0-12.3,4.8-13.4,11.2c2.8-4,6.9-6.2,6.9-6.2c-2.8,2.9-5.2,5.8-7,8.8c0,0-0.1,0.1-0.1,0.2
			c-1.5,2.6-2.5,5.3-3,8.1c-0.6,4,1.4,6.1,5.7,5.5c1.5-0.2,4.2-1.5,4.9-1.9c1.8,0.9,3.8,1.4,6,1.4c5.9,0,11-3.8,12.8-9.1h-7.4
			c-1,1.8-3,3-5.3,3c-3.2,0-5.9-2.6-6-5.8h19.3C213.9,344.2,213.9,343.6,213.9,342.9z M189.5,356c-2.3,0.2-5.3-2.3-1.9-8.2
			c1.1,2.8,3.1,5.1,5.6,6.7C192.6,355,190.7,355.9,189.5,356z M194.5,340.7c0.4-3,2.9-5.3,6-5.3s5.6,2.3,6,5.3H194.5z M205.4,330.3
			c5.7-2.7,7.8,0.2,7.2,3.1c-0.1,0.4-0.4,1.5-0.7,2.4C210.4,333.4,208.1,331.4,205.4,330.3z"/>
		
			<linearGradient id="SVGID_8_" gradientUnits="userSpaceOnUse" x1="198.6979" y1="107.6667" x2="198.6979" y2="47.9767" gradientTransform="matrix(1 0 0 -1 0 426)">
			<stop  offset="0" style="stop-color:#00EAF7"/>
			<stop  offset="3.033465e-02" style="stop-color:#04E1F4"/>
			<stop  offset="0.2106" style="stop-color:#1BADE5"/>
			<stop  offset="0.388" style="stop-color:#2D82D8"/>
			<stop  offset="0.5589" style="stop-color:#3C61CF"/>
			<stop  offset="0.7215" style="stop-color:#4749C8"/>
			<stop  offset="0.8723" style="stop-color:#4D3BC3"/>
			<stop  offset="1" style="stop-color:#4F36C2"/>
		</linearGradient>
		<path class="st18" d="M214.1,341.6c0-2.3-0.6-4.5-1.5-6.4c0.3-0.7,0.6-1.7,0.9-3c1.1-4.2-1.5-6.8-5.6-6.4
			c-2.5,0.2-4.8,0.9-7.1,1.9c-0.2,0-0.4,0-0.6,0c-6.8,0-12.4,4.9-13.6,11.3c2.8-4.1,7-6.2,7-6.2c-2.8,3-5.3,5.9-7.1,8.9
			c0,0-0.1,0.1-0.1,0.2c-1.5,2.6-2.6,5.3-3,8.3c-0.6,4,1.4,6.2,5.8,5.6c1.5-0.2,4.2-1.5,5-1.9c1.8,0.9,3.9,1.4,6,1.4
			c6,0,11.1-3.8,13-9.2h-7.5c-1.1,1.9-3,3.1-5.3,3.1c-3.3,0-6-2.6-6.1-5.9H214C214.1,342.8,214.1,342.2,214.1,341.6z M189.4,354.8
			c-2.3,0.2-5.3-2.3-1.9-8.3c1.1,2.8,3.1,5.2,5.7,6.8C192.5,353.7,190.6,354.7,189.4,354.8z M194.5,339.3c0.4-3,3-5.3,6.1-5.3
			s5.7,2.3,6.1,5.3H194.5z M205.5,328.8c5.8-2.7,7.9,0.2,7.3,3.2c-0.1,0.4-0.4,1.5-0.7,2.5C210.6,331.9,208.2,329.9,205.5,328.8z"/>
	</g>
</g>
<g class="st11">
	
		<linearGradient id="SVGID_9_" gradientUnits="userSpaceOnUse" x1="166.45" y1="107.6667" x2="166.45" y2="47.9767" gradientTransform="matrix(1 0 0 -1 0 426)">
		<stop  offset="0" style="stop-color:#00EAF7"/>
		<stop  offset="3.033465e-02" style="stop-color:#04E1F4"/>
		<stop  offset="0.2106" style="stop-color:#1BADE5"/>
		<stop  offset="0.388" style="stop-color:#2D82D8"/>
		<stop  offset="0.5589" style="stop-color:#3C61CF"/>
		<stop  offset="0.7215" style="stop-color:#4749C8"/>
		<stop  offset="0.8723" style="stop-color:#4D3BC3"/>
		<stop  offset="1" style="stop-color:#4F36C2"/>
	</linearGradient>
	<path class="st19" d="M166.6,328.8c-0.1-0.1-0.2-0.2-0.3-0.3C166.4,328.6,166.5,328.7,166.6,328.8z"/>
	
		<linearGradient id="SVGID_10_" gradientUnits="userSpaceOnUse" x1="155.1" y1="107.6667" x2="155.1" y2="47.9767" gradientTransform="matrix(1 0 0 -1 0 426)">
		<stop  offset="0" style="stop-color:#00EAF7"/>
		<stop  offset="3.033465e-02" style="stop-color:#04E1F4"/>
		<stop  offset="0.2106" style="stop-color:#1BADE5"/>
		<stop  offset="0.388" style="stop-color:#2D82D8"/>
		<stop  offset="0.5589" style="stop-color:#3C61CF"/>
		<stop  offset="0.7215" style="stop-color:#4749C8"/>
		<stop  offset="0.8723" style="stop-color:#4D3BC3"/>
		<stop  offset="1" style="stop-color:#4F36C2"/>
	</linearGradient>
	<path class="st20" d="M146,330C146.1,330,146.1,330,146,330c1.4-1.4,2.9-2.4,4.6-3.1c1.8-0.8,3.6-1.1,5.5-1.1c1.8,0,3.6,0.3,5.2,1
		c1,0.2,2.3,0.5,3.3,1.1c-2.4-1.7-5.4-2.7-8.5-2.7c-4.1,0-7.9,1.7-10.5,4.4C145.7,329.7,145.9,329.9,146,330z"/>
	
		<linearGradient id="SVGID_11_" gradientUnits="userSpaceOnUse" x1="140.8471" y1="82.7429" x2="171.6802" y2="82.7429" gradientTransform="matrix(1 0 0 -1 0 426)">
		<stop  offset="0" style="stop-color:#00EAF7"/>
		<stop  offset="3.033465e-02" style="stop-color:#04E1F4"/>
		<stop  offset="0.2106" style="stop-color:#1BADE5"/>
		<stop  offset="0.388" style="stop-color:#2D82D8"/>
		<stop  offset="0.5589" style="stop-color:#3C61CF"/>
		<stop  offset="0.7215" style="stop-color:#4749C8"/>
		<stop  offset="0.8723" style="stop-color:#4D3BC3"/>
		<stop  offset="1" style="stop-color:#4F36C2"/>
	</linearGradient>
	<path class="st21" d="M151.3,343.2c-0.1-0.1-0.2-0.2-0.3-0.3c0,0.2,0,0.4,0,0.7c0,0.5,0,0.9,0.2,1.4s0.4,1,0.8,1.4
		c0.3,0.3,0.6,0.6,1,0.8l0,0c0.8,0,2,0,2.6-0.2c1-0.3,2.5-1.5,2.5-1.5c0.4-0.4,0.8-0.2,1.2-0.2s0.5-0.6,0-1.1
		c-0.5-0.6-2.3-1.1-3.6-0.3C154.3,344.8,152.4,344.2,151.3,343.2z M152.2,334.9c-0.1,0.3-0.2,0.7-0.2,1.1s0.1,0.9,0.3,1.4
		c0.2,0.4,0.3,0.6,0.5,0.9c0.1,0.2,0.2,0.3,0.3,0.4c0.2-0.2,0.4-0.3,0.5-0.4c0.4-0.3,1.8-1,2-1.1c0.2-0.2,0.6-1.2,0.3-1.5
		s-2.3-0.1-3-0.3C152.6,335.3,152.4,335.1,152.2,334.9z M152.6,341.1L152.6,341.1L152.6,341.1L152.6,341.1z M171.2,338.3
		c0,0.5-0.5,1.2-0.5,1.3c0,0,0-0.2,0-0.7c0-0.7,0.2-2.5-0.7-4.4c-0.9-2-2.2-2.9-2.2-2.9v0.5c-0.2-0.6-2-1.8-2-1.8v0.6
		c3.1,2.9,3.5,4.9,3.5,4.9c-0.6-1.8-2.2-3.2-3.6-4.5c-1.4-1.3-4.3-2-4.3-2c3.1,1.8,4.6,4.5,4.6,4.5c-1.6-1.5-2.8-1.4-2.8-1.4
		c1,0.7,1.4,1.5,2.3,2.8s0.8,4.6,0.8,4.6c-0.5-1.1-1.3-1.5-1.3-1.5s0.2,1.9,0.3,3s-0.5,3.1-0.5,3.1c0-0.8-0.5-1-0.5-1
		s0.1,0.5-0.5,2.5s-1.8,2.7-2,2.6s0-0.4,0-0.4s-0.3-0.3-0.8,0.5c-0.4,0.6-1,0.9-1.2,1c0.2-0.1,0.3-0.5,0.3-0.5s-0.5,0.3-2.5,0.6
		s-3-0.6-3-0.6c0.2-0.2,1.1,0,1.1,0c0-0.2-1-0.5-2-0.6c-0.8-0.1-1.2-0.5-1.4-0.8c-0.4-0.3-0.7-0.5-1-0.8s-0.5-0.7-0.7-1
		c-0.3-0.7-0.5-1.5-0.5-2.1s0.1-1.2,0.2-1.5c0.1-0.4,0.2-0.6,0.2-0.7l0,0l0,0c0.1-0.4,0.3-0.7,0.6-0.8c-0.1,0-0.2-0.1-0.3-0.2
		c-0.4-0.2-0.9-0.3-1.3-0.3c-0.5,0.1-0.9,0.3-1.3,0.6c-0.4,0.3-0.7,0.7-0.9,1.1c-0.2,0.5-0.3,1-0.3,1.5s0.1,1,0.3,1.5
		s0.5,0.9,0.8,1.3s0.7,0.8,1.1,1.1c-0.4-0.3-0.8-0.6-1.2-1c-0.3-0.4-0.6-0.8-0.8-1.3s-0.3-1-0.4-1.5c0-0.5,0-1.1,0.3-1.6
		c0.2-0.5,0.5-1,0.9-1.3c0.2-0.2,0.4-0.3,0.7-0.5c0.3-0.1,0.5-0.3,0.8-0.3s0.6-0.1,0.8,0c0.3,0,0.5,0.1,0.8,0.3
		c0.3,0.1,0.5,0.3,0.7,0.5c0.1,0.1,0.2,0.2,0.3,0.3c0,0,0.1,0.1,0.1,0.2l0.1,0.1c0.2-0.6,0.1-1.5,0-1.8c-0.1-0.2-0.3-0.4-0.5-0.7
		c-0.1-0.2-0.3-0.5-0.5-0.9c-0.3-0.5-0.3-1.1-0.3-1.6c0-0.6,0.1-1.1,0.2-1.5c0-0.1,0.1-0.2,0.1-0.3c0.3-1.5,2.1-3.1,2.1-3.1
		c-2.4-0.3-4,1.9-4,1.9l0,0c-0.2,0.2-0.8,0.9-0.8,1.4c0,0,0-1,0.3-1.6c-0.9-0.3-2-0.1-2.6,0l0,0c-0.5,0.1-1.1,0.3-1.5,0.6
		c-0.5,0.3-0.8,0.6-1.2,0.9c-0.7,0.6-1,1.2-1,1.3l0,0l0,0l0,0c-1.2,1.7-1.9,5.2-1.9,5.2c0.1-0.6,0.7-1.3,0.7-1.3
		c-0.5,0.9-0.3,5.2-0.3,5.2c0-0.7,0.4-1.5,0.4-1.5c0.1,1.5,0.8,6.1,4.9,9.6c4.1,3.5,7.5,3.8,7.5,3.8c-0.8-0.3-1-0.6-1-0.6
		c2.6,1.1,4.3,0.9,4.3,0.9c-0.5-0.3-0.5-0.5-0.5-0.5c2.8,0.1,6.6-0.9,7.5-1.5s1.6-1.9,1.6-1.9c2.3-1.1,3.8-3.3,4.3-4.4s0-2.3,0-2.3
		s0-0.1,1.1-2.5C172.3,341.7,171.2,338.3,171.2,338.3z M144.8,332.9c0.3-0.2,0.5-0.3,0.8-0.4c-1.2-1-1.1-2.3-1.1-2.3
		c-1.2,1.2-1.5,3.1-1.5,4.4l0,0C143.4,334,144,333.4,144.8,332.9z"/>
	
		<linearGradient id="SVGID_12_" gradientUnits="userSpaceOnUse" x1="156.1945" y1="107.6667" x2="156.1945" y2="47.9767" gradientTransform="matrix(1 0 0 -1 0 426)">
		<stop  offset="0" style="stop-color:#00EAF7"/>
		<stop  offset="3.033465e-02" style="stop-color:#04E1F4"/>
		<stop  offset="0.2106" style="stop-color:#1BADE5"/>
		<stop  offset="0.388" style="stop-color:#2D82D8"/>
		<stop  offset="0.5589" style="stop-color:#3C61CF"/>
		<stop  offset="0.7215" style="stop-color:#4749C8"/>
		<stop  offset="0.8723" style="stop-color:#4D3BC3"/>
		<stop  offset="1" style="stop-color:#4F36C2"/>
	</linearGradient>
	<path class="st22" d="M151.3,341.1c-0.1-0.1-0.2-0.2-0.3-0.3c0,0.2,0,0.4,0,0.7c0,0.5,0,0.9,0.2,1.4s0.4,1,0.8,1.4
		c0.3,0.3,0.6,0.6,1,0.8l0,0c0.8,0,2,0,2.6-0.2c1-0.3,2.5-1.5,2.5-1.5c0.4-0.4,0.8-0.2,1.2-0.2s0.5-0.6,0-1.1
		c-0.5-0.6-2.3-1.1-3.6-0.3C154.3,342.7,152.4,342.1,151.3,341.1z M152.2,332.8c-0.1,0.3-0.2,0.7-0.2,1.1s0.1,0.9,0.3,1.4
		c0.2,0.4,0.3,0.6,0.5,0.9c0.1,0.2,0.2,0.3,0.3,0.4c0.2-0.2,0.4-0.3,0.5-0.4c0.4-0.3,1.8-1,2-1.1c0.2-0.2,0.6-1.2,0.3-1.5
		s-2.3-0.1-3-0.3C152.6,333.2,152.4,333,152.2,332.8z M152.6,339L152.6,339L152.6,339L152.6,339z M171.2,336.2
		c0,0.5-0.5,1.2-0.5,1.3c0,0,0-0.2,0-0.7c0-0.7,0.2-2.5-0.7-4.4c-0.9-2-2.2-2.9-2.2-2.9v0.5c-0.2-0.6-2-1.8-2-1.8v0.6
		c3.1,2.9,3.5,4.9,3.5,4.9c-0.6-1.8-2.2-3.2-3.6-4.5c-1.4-1.3-4.3-2-4.3-2c3.1,1.8,4.6,4.5,4.6,4.5c-1.6-1.5-2.8-1.4-2.8-1.4
		c1,0.7,1.4,1.5,2.3,2.8c0.9,1.4,0.8,4.6,0.8,4.6c-0.5-1.1-1.3-1.5-1.3-1.5s0.2,1.9,0.3,3s-0.5,3.1-0.5,3.1c0-0.8-0.5-1-0.5-1
		s0.1,0.5-0.5,2.5s-1.8,2.7-2,2.6s0-0.4,0-0.4s-0.3-0.3-0.8,0.5c-0.4,0.6-1,0.9-1.2,1c0.2-0.1,0.3-0.5,0.3-0.5s-0.5,0.3-2.5,0.6
		s-3-0.6-3-0.6c0.2-0.2,1.1,0,1.1,0c0-0.2-1-0.5-2-0.6c-0.8-0.1-1.2-0.5-1.4-0.8c-0.4-0.3-0.7-0.5-1-0.8s-0.5-0.7-0.7-1
		c-0.3-0.7-0.5-1.5-0.5-2.1s0.1-1.2,0.2-1.5c0.1-0.4,0.2-0.6,0.2-0.7l0,0l0,0c0.1-0.4,0.3-0.7,0.6-0.8c-0.1,0-0.2-0.1-0.3-0.2
		c-0.4-0.2-0.9-0.3-1.3-0.3c-0.5,0.1-0.9,0.3-1.3,0.6c-0.4,0.3-0.7,0.7-0.9,1.1c-0.2,0.5-0.3,1-0.3,1.5s0.1,1,0.3,1.5
		s0.5,0.9,0.8,1.3s0.7,0.8,1.1,1.1c-0.4-0.3-0.8-0.6-1.2-1c-0.3-0.4-0.6-0.8-0.8-1.3s-0.3-1-0.4-1.5s0-1.1,0.3-1.6
		c0.2-0.5,0.5-1,0.9-1.3c0.2-0.2,0.4-0.3,0.7-0.5c0.3-0.1,0.5-0.3,0.8-0.3s0.6-0.1,0.8,0c0.3,0,0.5,0.1,0.8,0.3
		c0.3,0.1,0.5,0.3,0.7,0.5c0.1,0.1,0.2,0.2,0.3,0.3c0,0,0.1,0.1,0.1,0.2l0.1,0.1c0.2-0.6,0.1-1.5,0-1.8c-0.1-0.2-0.3-0.4-0.5-0.7
		c-0.1-0.2-0.3-0.5-0.5-0.9c-0.3-0.5-0.3-1.1-0.3-1.6c0-0.6,0.1-1.1,0.2-1.5c0-0.1,0.1-0.2,0.1-0.3c0.3-1.5,2.1-3.1,2.1-3.1
		c-2.4-0.3-4,1.9-4,1.9l0,0c-0.2,0.2-0.8,0.9-0.8,1.4c0,0,0-1,0.3-1.6c-0.9-0.3-2-0.1-2.6,0l0,0c-0.5,0.1-1.1,0.3-1.5,0.6
		c-0.5,0.3-0.8,0.6-1.2,0.9c-0.7,0.6-1,1.2-1,1.3l0,0l0,0l0,0c-1.2,1.7-1.9,5.2-1.9,5.2c0.1-0.6,0.7-1.3,0.7-1.3
		c-0.5,0.9-0.3,5.2-0.3,5.2c0-0.7,0.4-1.5,0.4-1.5c0.1,1.5,0.8,6.1,4.9,9.6c4.1,3.5,7.5,3.8,7.5,3.8c-0.8-0.3-1-0.6-1-0.6
		c2.6,1.1,4.3,0.9,4.3,0.9c-0.5-0.3-0.5-0.5-0.5-0.5c2.8,0.1,6.6-0.9,7.5-1.5s1.6-1.9,1.6-1.9c2.3-1.1,3.8-3.3,4.3-4.4s0-2.3,0-2.3
		s0-0.1,1.1-2.5C172.3,339.6,171.2,336.2,171.2,336.2z M144.8,330.8c0.3-0.2,0.5-0.3,0.8-0.4c-1.2-1-1.1-2.3-1.1-2.3
		c-1.2,1.2-1.5,3.1-1.5,4.4l0,0C143.4,331.9,144,331.3,144.8,330.8z"/>
</g>
<g class="st11">
	<g class="st12">
		
			<linearGradient id="SVGID_13_" gradientUnits="userSpaceOnUse" x1="450" y1="253.364" x2="450" y2="298.5863" gradientTransform="matrix(1 0 0 -1 0 426)">
			<stop  offset="0" style="stop-color:#00EAF7"/>
			<stop  offset="3.033465e-02" style="stop-color:#04E1F4"/>
			<stop  offset="0.2106" style="stop-color:#1BADE5"/>
			<stop  offset="0.388" style="stop-color:#2D82D8"/>
			<stop  offset="0.5589" style="stop-color:#3C61CF"/>
			<stop  offset="0.7215" style="stop-color:#4749C8"/>
			<stop  offset="0.8723" style="stop-color:#4D3BC3"/>
			<stop  offset="1" style="stop-color:#4F36C2"/>
		</linearGradient>
		<path class="st23" d="M450,144.9c-1.1,0-2,0.9-2,2v7.9c0,1.1,0.9,2,2,2s2-0.9,2-2v-7.9C452,145.8,451.1,144.9,450,144.9z"/>
		
			<linearGradient id="SVGID_14_" gradientUnits="userSpaceOnUse" x1="471.8" y1="253.364" x2="471.8" y2="298.5863" gradientTransform="matrix(1 0 0 -1 0 426)">
			<stop  offset="0" style="stop-color:#00EAF7"/>
			<stop  offset="3.033465e-02" style="stop-color:#04E1F4"/>
			<stop  offset="0.2106" style="stop-color:#1BADE5"/>
			<stop  offset="0.388" style="stop-color:#2D82D8"/>
			<stop  offset="0.5589" style="stop-color:#3C61CF"/>
			<stop  offset="0.7215" style="stop-color:#4749C8"/>
			<stop  offset="0.8723" style="stop-color:#4D3BC3"/>
			<stop  offset="1" style="stop-color:#4F36C2"/>
		</linearGradient>
		<path class="st24" d="M471.8,144.9c-1.1,0-2,0.9-2,2v7.9c0,1.1,0.9,2,2,2s2-0.9,2-2v-7.9C473.7,145.8,472.9,144.9,471.8,144.9z"/>
		
			<linearGradient id="SVGID_15_" gradientUnits="userSpaceOnUse" x1="460.9" y1="253.364" x2="460.9" y2="298.5863" gradientTransform="matrix(1 0 0 -1 0 426)">
			<stop  offset="0" style="stop-color:#00EAF7"/>
			<stop  offset="3.033465e-02" style="stop-color:#04E1F4"/>
			<stop  offset="0.2106" style="stop-color:#1BADE5"/>
			<stop  offset="0.388" style="stop-color:#2D82D8"/>
			<stop  offset="0.5589" style="stop-color:#3C61CF"/>
			<stop  offset="0.7215" style="stop-color:#4749C8"/>
			<stop  offset="0.8723" style="stop-color:#4D3BC3"/>
			<stop  offset="1" style="stop-color:#4F36C2"/>
		</linearGradient>
		<path class="st25" d="M452.9,160.8h2v4.9c0,1.1,0.9,2,2,2s2-0.9,2-2v-4.9h4v4.9c0,1.1,0.9,2,2,2s2-0.9,2-2v-4.9h2V146h-15.8v14.8
			H452.9z"/>
		
			<linearGradient id="SVGID_16_" gradientUnits="userSpaceOnUse" x1="460.8026" y1="253.364" x2="460.8026" y2="298.5863" gradientTransform="matrix(1 0 0 -1 0 426)">
			<stop  offset="0" style="stop-color:#00EAF7"/>
			<stop  offset="3.033465e-02" style="stop-color:#04E1F4"/>
			<stop  offset="0.2106" style="stop-color:#1BADE5"/>
			<stop  offset="0.388" style="stop-color:#2D82D8"/>
			<stop  offset="0.5589" style="stop-color:#3C61CF"/>
			<stop  offset="0.7215" style="stop-color:#4749C8"/>
			<stop  offset="0.8723" style="stop-color:#4D3BC3"/>
			<stop  offset="1" style="stop-color:#4F36C2"/>
		</linearGradient>
		<path class="st26" d="M465.5,138.5l1-1.8c0.1-0.2,0.1-0.5-0.2-0.7c-0.2-0.1-0.5-0.1-0.7,0.2l-1,1.7c-1.1-0.6-2.4-1-3.8-1
			s-2.7,0.4-3.8,1l-1-1.7c-0.1-0.2-0.4-0.3-0.7-0.2c-0.2,0.1-0.3,0.4-0.2,0.7l1,1.8c-2,1.4-3.2,3.8-3.2,6.4h15.8
			C468.8,142.3,467.5,140,465.5,138.5z M457.9,141.9c-0.5,0-1-0.4-1-1c0-0.5,0.4-1,1-1s1,0.4,1,1S458.4,141.9,457.9,141.9z
			 M463.8,141.9c-0.5,0-1-0.4-1-1c0-0.5,0.4-1,1-1c0.5,0,1,0.4,1,1S464.4,141.9,463.8,141.9z"/>
	</g>
	<g>
		
			<linearGradient id="SVGID_17_" gradientUnits="userSpaceOnUse" x1="450" y1="255.095" x2="450" y2="300.3173" gradientTransform="matrix(1 0 0 -1 0 426)">
			<stop  offset="0" style="stop-color:#00EAF7"/>
			<stop  offset="3.033465e-02" style="stop-color:#04E1F4"/>
			<stop  offset="0.2106" style="stop-color:#1BADE5"/>
			<stop  offset="0.388" style="stop-color:#2D82D8"/>
			<stop  offset="0.5589" style="stop-color:#3C61CF"/>
			<stop  offset="0.7215" style="stop-color:#4749C8"/>
			<stop  offset="0.8723" style="stop-color:#4D3BC3"/>
			<stop  offset="1" style="stop-color:#4F36C2"/>
		</linearGradient>
		<path class="st27" d="M450,143.2c-1.1,0-2,0.9-2,2v7.9c0,1.1,0.9,2,2,2s2-0.9,2-2v-7.9C452,144.1,451.1,143.2,450,143.2z"/>
		
			<linearGradient id="SVGID_18_" gradientUnits="userSpaceOnUse" x1="471.8" y1="255.095" x2="471.8" y2="300.3173" gradientTransform="matrix(1 0 0 -1 0 426)">
			<stop  offset="0" style="stop-color:#00EAF7"/>
			<stop  offset="3.033465e-02" style="stop-color:#04E1F4"/>
			<stop  offset="0.2106" style="stop-color:#1BADE5"/>
			<stop  offset="0.388" style="stop-color:#2D82D8"/>
			<stop  offset="0.5589" style="stop-color:#3C61CF"/>
			<stop  offset="0.7215" style="stop-color:#4749C8"/>
			<stop  offset="0.8723" style="stop-color:#4D3BC3"/>
			<stop  offset="1" style="stop-color:#4F36C2"/>
		</linearGradient>
		<path class="st28" d="M471.8,143.2c-1.1,0-2,0.9-2,2v7.9c0,1.1,0.9,2,2,2s2-0.9,2-2v-7.9C473.7,144.1,472.9,143.2,471.8,143.2z"/>
		
			<linearGradient id="SVGID_19_" gradientUnits="userSpaceOnUse" x1="460.9" y1="255.095" x2="460.9" y2="300.3173" gradientTransform="matrix(1 0 0 -1 0 426)">
			<stop  offset="0" style="stop-color:#00EAF7"/>
			<stop  offset="3.033465e-02" style="stop-color:#04E1F4"/>
			<stop  offset="0.2106" style="stop-color:#1BADE5"/>
			<stop  offset="0.388" style="stop-color:#2D82D8"/>
			<stop  offset="0.5589" style="stop-color:#3C61CF"/>
			<stop  offset="0.7215" style="stop-color:#4749C8"/>
			<stop  offset="0.8723" style="stop-color:#4D3BC3"/>
			<stop  offset="1" style="stop-color:#4F36C2"/>
		</linearGradient>
		<path class="st29" d="M452.9,159h2v4.9c0,1.1,0.9,2,2,2s2-0.9,2-2V159h4v4.9c0,1.1,0.9,2,2,2s2-0.9,2-2V159h2v-14.8h-15.8V159
			H452.9z"/>
		
			<linearGradient id="SVGID_20_" gradientUnits="userSpaceOnUse" x1="460.8026" y1="255.095" x2="460.8026" y2="300.3173" gradientTransform="matrix(1 0 0 -1 0 426)">
			<stop  offset="0" style="stop-color:#00EAF7"/>
			<stop  offset="3.033465e-02" style="stop-color:#04E1F4"/>
			<stop  offset="0.2106" style="stop-color:#1BADE5"/>
			<stop  offset="0.388" style="stop-color:#2D82D8"/>
			<stop  offset="0.5589" style="stop-color:#3C61CF"/>
			<stop  offset="0.7215" style="stop-color:#4749C8"/>
			<stop  offset="0.8723" style="stop-color:#4D3BC3"/>
			<stop  offset="1" style="stop-color:#4F36C2"/>
		</linearGradient>
		<path class="st30" d="M465.5,136.8l1-1.8c0.1-0.2,0.1-0.5-0.2-0.7c-0.2-0.1-0.5-0.1-0.7,0.2l-1,1.7c-1.1-0.6-2.4-1-3.8-1
			s-2.7,0.4-3.8,1l-1-1.7c-0.1-0.2-0.4-0.3-0.7-0.2c-0.2,0.1-0.3,0.4-0.2,0.7l1,1.8c-2,1.4-3.2,3.8-3.2,6.4h15.8
			C468.8,140.6,467.5,138.2,465.5,136.8z M457.9,140.2c-0.5,0-1-0.4-1-1c0-0.5,0.4-1,1-1s1,0.4,1,1S458.4,140.2,457.9,140.2z
			 M463.8,140.2c-0.5,0-1-0.4-1-1c0-0.5,0.4-1,1-1c0.5,0,1,0.4,1,1S464.4,140.2,463.8,140.2z"/>
	</g>
</g>
<g class="st11">
	<g id="Apple_1_" class="st12">
		
			<linearGradient id="SVGID_21_" gradientUnits="userSpaceOnUse" x1="428.5999" y1="251.8148" x2="428.5999" y2="297.8392" gradientTransform="matrix(1 0 0 -1 0 426)">
			<stop  offset="0" style="stop-color:#00EAF7"/>
			<stop  offset="3.033465e-02" style="stop-color:#04E1F4"/>
			<stop  offset="0.2106" style="stop-color:#1BADE5"/>
			<stop  offset="0.388" style="stop-color:#2D82D8"/>
			<stop  offset="0.5589" style="stop-color:#3C61CF"/>
			<stop  offset="0.7215" style="stop-color:#4749C8"/>
			<stop  offset="0.8723" style="stop-color:#4D3BC3"/>
			<stop  offset="1" style="stop-color:#4F36C2"/>
		</linearGradient>
		<path class="st31" d="M426,144h0.1c3.4-0.7,5.9-3.8,5.8-7.3c0-0.2-0.1-0.4-0.3-0.5c-0.1-0.1-0.3-0.2-0.5-0.1
			c-3.5,0.7-5.9,3.8-5.8,7.3C425.3,143.7,425.6,144,426,144L426,144z"/>
		
			<linearGradient id="SVGID_22_" gradientUnits="userSpaceOnUse" x1="425.2742" y1="251.8148" x2="425.2742" y2="297.8392" gradientTransform="matrix(1 0 0 -1 0 426)">
			<stop  offset="0" style="stop-color:#00EAF7"/>
			<stop  offset="3.033465e-02" style="stop-color:#04E1F4"/>
			<stop  offset="0.2106" style="stop-color:#1BADE5"/>
			<stop  offset="0.388" style="stop-color:#2D82D8"/>
			<stop  offset="0.5589" style="stop-color:#3C61CF"/>
			<stop  offset="0.7215" style="stop-color:#4749C8"/>
			<stop  offset="0.8723" style="stop-color:#4D3BC3"/>
			<stop  offset="1" style="stop-color:#4F36C2"/>
		</linearGradient>
		<path class="st32" d="M438.2,158c-2.1-0.9-3.5-3-3.5-5.3c0-2.1,1.1-4,2.9-5.1c0.3-0.2,0.4-0.6,0.2-0.9l-0.1-0.1
			c-1.5-1.6-3.6-2.5-5.7-2.5c-1.1,0-2.1,0.3-3.1,0.7c-0.9,0.4-1.9,0.6-2.9,0.6s-2-0.2-2.9-0.6c-1-0.4-2-0.7-3.1-0.7
			c-0.8,0-8,0.3-8,9.3c0,7.4,5,14.6,8,14.6c1.3,0,2.6-0.3,3.7-0.8c0.7-0.3,1.5-0.5,2.2-0.5c0.8,0,1.5,0.2,2.2,0.5
			c1.2,0.5,2.4,0.8,3.7,0.8c2.4,0,5.2-4.7,6.6-9.1C438.7,158.4,438.5,158.1,438.2,158L438.2,158z"/>
	</g>
	<g id="Apple">
		
			<linearGradient id="SVGID_23_" gradientUnits="userSpaceOnUse" x1="428.4999" y1="253.75" x2="428.4999" y2="299.7745" gradientTransform="matrix(1 0 0 -1 0 426)">
			<stop  offset="0" style="stop-color:#00EAF7"/>
			<stop  offset="3.033465e-02" style="stop-color:#04E1F4"/>
			<stop  offset="0.2106" style="stop-color:#1BADE5"/>
			<stop  offset="0.388" style="stop-color:#2D82D8"/>
			<stop  offset="0.5589" style="stop-color:#3C61CF"/>
			<stop  offset="0.7215" style="stop-color:#4749C8"/>
			<stop  offset="0.8723" style="stop-color:#4D3BC3"/>
			<stop  offset="1" style="stop-color:#4F36C2"/>
		</linearGradient>
		<path class="st33" d="M425.9,142.1h0.1c3.4-0.7,5.9-3.8,5.8-7.3c0-0.2-0.1-0.4-0.3-0.5c-0.1-0.1-0.3-0.2-0.5-0.1
			c-3.5,0.7-5.9,3.8-5.8,7.3C425.3,141.8,425.5,142.1,425.9,142.1L425.9,142.1z"/>
		
			<linearGradient id="SVGID_24_" gradientUnits="userSpaceOnUse" x1="425.1742" y1="253.75" x2="425.1742" y2="299.7745" gradientTransform="matrix(1 0 0 -1 0 426)">
			<stop  offset="0" style="stop-color:#00EAF7"/>
			<stop  offset="3.033465e-02" style="stop-color:#04E1F4"/>
			<stop  offset="0.2106" style="stop-color:#1BADE5"/>
			<stop  offset="0.388" style="stop-color:#2D82D8"/>
			<stop  offset="0.5589" style="stop-color:#3C61CF"/>
			<stop  offset="0.7215" style="stop-color:#4749C8"/>
			<stop  offset="0.8723" style="stop-color:#4D3BC3"/>
			<stop  offset="1" style="stop-color:#4F36C2"/>
		</linearGradient>
		<path class="st34" d="M438.1,156c-2.1-0.9-3.5-3-3.5-5.3c0-2.1,1.1-4,2.9-5.1c0.3-0.2,0.4-0.6,0.2-0.9l-0.1-0.1
			c-1.5-1.6-3.6-2.5-5.7-2.5c-1.1,0-2.1,0.3-3.1,0.7c-0.9,0.4-1.9,0.6-2.9,0.6s-2-0.2-2.9-0.6c-1-0.4-2-0.7-3.1-0.7
			c-0.8,0-8,0.3-8,9.3c0,7.4,5,14.6,8,14.6c1.3,0,2.6-0.3,3.7-0.8c0.7-0.3,1.5-0.5,2.2-0.5c0.8,0,1.5,0.2,2.2,0.5
			c1.2,0.5,2.4,0.8,3.7,0.8c2.4,0,5.2-4.7,6.6-9.1C438.6,156.5,438.4,156.1,438.1,156L438.1,156z"/>
	</g>
</g>
</svg>
