<?xml version="1.0" encoding="utf-8"?>
<!-- Generator: Adobe Illustrator 21.0.0, SVG Export Plug-In . SVG Version: 6.00 Build 0)  -->
<svg version="1.1" id="Layer_1" xmlns="http://www.w3.org/2000/svg" xmlns:xlink="http://www.w3.org/1999/xlink" x="0px" y="0px"
	 viewBox="0 0 254 176" style="enable-background:new 0 0 254 176;" xml:space="preserve">
<style type="text/css">
	.st0{fill:none;stroke:#ECF3FB;stroke-width:2;stroke-miterlimit:10;}
	.st1{opacity:0.2;fill:url(#SVGID_1_);enable-background:new    ;}
	.st2{opacity:0.2;fill:url(#SVGID_2_);enable-background:new    ;}
	.st3{fill:#3C91E5;}
	.st4{fill:url(#SVGID_3_);}
	.st5{fill:url(#SVGID_4_);}
	.st6{fill:none;stroke:#FFFFFF;stroke-width:2;stroke-miterlimit:10;}
	.st7{opacity:0.15;fill:#9AC3F4;enable-background:new    ;}
	.st8{fill:#B3D2FF;}
	.st9{fill:#9AC3F4;}
	.st10{opacity:0.15;}
	.st11{fill:#333333;}
	.st12{fill:url(#SVGID_5_);}
	.st13{fill:url(#SVGID_6_);}
	.st14{fill:url(#SVGID_7_);}
	.st15{fill:url(#SVGID_8_);}
	.st16{fill:url(#SVGID_9_);}
	.st17{fill:url(#SVGID_10_);}
	.st18{fill:url(#SVGID_11_);}
</style>
<g>
	<g>
		<polygon class="st0" points="28,16.7 28,43.3 51,56.6 74,43.3 74,16.7 51,3.4 		"/>
		<polygon class="st0" points="5,56.7 5,83.3 28,96.6 51,83.3 51,56.7 28,43.4 		"/>
		<polygon class="st0" points="51,56.7 51,83.3 74,96.6 97,83.3 97,56.7 74,43.4 		"/>
	</g>
	
		<linearGradient id="SVGID_1_" gradientUnits="userSpaceOnUse" x1="12.9181" y1="170.2717" x2="46.2515" y2="147.605" gradientTransform="matrix(1 0 0 -1 0 204)">
		<stop  offset="0" style="stop-color:#4789BC"/>
		<stop  offset="1" style="stop-color:#3FB3E9"/>
	</linearGradient>
	<polygon class="st1" points="18.5,38.5 18.5,49.4 28,54.8 37.4,49.4 37.4,38.5 28,33 	"/>
</g>
<g>
	<g>
		<polygon class="st0" points="226,66.7 226,93.3 203,106.6 180,93.3 180,66.7 203,53.4 		"/>
		<polygon class="st0" points="249,106.7 249,133.3 226,146.6 203,133.3 203,106.7 226,93.4 		"/>
		<polygon class="st0" points="203,106.7 203,133.3 180,146.6 157,133.3 157,106.7 180,93.4 		"/>
	</g>
	
		<linearGradient id="SVGID_2_" gradientUnits="userSpaceOnUse" x1="216.6" y1="110.1" x2="235.5" y2="110.1" gradientTransform="matrix(1 0 0 -1 0 204)">
		<stop  offset="0" style="stop-color:#4789BC"/>
		<stop  offset="1" style="stop-color:#3FB3E9"/>
	</linearGradient>
	<polygon class="st2" points="235.5,88.5 235.5,99.4 226,104.8 216.6,99.4 216.6,88.5 226,83 	"/>
</g>
<path class="st3" d="M64,47.8v58.5c0,5.7,3,10.9,7.9,13.7l50.7,29.3c4.9,2.8,10.9,2.8,15.8,0l50.7-29.3c4.9-2.8,7.9-8.1,7.9-13.7
	V47.8c0-5.7-3-10.9-7.9-13.7L138.4,4.8c-4.9-2.8-10.9-2.8-15.8,0L71.9,34.1C67,36.9,64,42.1,64,47.8z"/>
<linearGradient id="SVGID_3_" gradientUnits="userSpaceOnUse" x1="136.9535" y1="166.8869" x2="56.9535" y2="122.3869" gradientTransform="matrix(1 0 0 -1 0 204)">
	<stop  offset="0" style="stop-color:#73ACE5"/>
	<stop  offset="1" style="stop-color:#3C91E5"/>
</linearGradient>
<path class="st4" d="M130,2.7c-2.6,0.1-5.1,0.8-7.4,2.1L71.9,34.1c-4.9,2.8-7.9,8-7.9,13.7v58.5c0,3.6,1.2,7.1,3.4,9.8L130,77V2.7z"
	/>
<linearGradient id="SVGID_4_" gradientUnits="userSpaceOnUse" x1="163.5" y1="296.4011" x2="163.5" y2="65.3347" gradientTransform="matrix(1 0 0 -1 0 204)">
	<stop  offset="0" style="stop-color:#3580C9"/>
	<stop  offset="1" style="stop-color:#3E81C2"/>
</linearGradient>
<path class="st5" d="M189.1,34.1L138.4,4.8c-2.3-1.3-5.9-2-8.4-2.1V77l63.6,39.1c2.2-2.8,3.4-6.2,3.4-9.8V47.8
	C197,42.1,194,36.9,189.1,34.1z"/>
<path class="st6" d="M70.3,51.4v51.3c0,5.7,3,10.9,7.9,13.7l44.4,25.6c4.9,2.8,10.9,2.8,15.8,0l44.4-25.6c4.9-2.8,7.9-8.1,7.9-13.7
	V51.4c0-5.7-3-10.9-7.9-13.7l-44.4-25.6c-4.9-2.8-10.9-2.8-15.8,0L78.2,37.7C73.3,40.5,70.3,45.8,70.3,51.4z"/>
<path class="st6" d="M70.3,51.4v51.3c0,5.7,3,10.9,7.9,13.7l44.4,25.6c4.9,2.8,10.9,2.8,15.8,0l44.4-25.6c4.9-2.8,7.9-8.1,7.9-13.7
	V51.4c0-5.7-3-10.9-7.9-13.7l-44.4-25.6c-4.9-2.8-10.9-2.8-15.8,0L78.2,37.7C73.3,40.5,70.3,45.8,70.3,51.4z"/>
<g>
	<path class="st7" d="M128.4,168.1L108.6,156c-1.4-0.9-3.7-0.9-5.1,0c-0.7,0.4-1.1,1-1.1,1.6s0.4,1.1,1.1,1.6l22.3,13.6
		c1.4,0.9,3.7,0.9,5.1,0l22.3-13.6c1.4-0.9,1.4-2.3,0-3.1c-1.4-0.9-3.7-0.9-5.1,0L128.4,168.1z"/>
	<path class="st7" d="M128.4,158.7l-19.7-12.1c-1.4-0.9-3.7-0.9-5.1,0c-0.7,0.4-1.1,1-1.1,1.6s0.4,1.1,1.1,1.6l22.3,13.6
		c1.4,0.9,3.7,0.9,5.1,0l22.3-13.6c1.4-0.9,1.4-2.3,0-3.1c-1.4-0.9-3.7-0.9-5.1,0L128.4,158.7z"/>
	<g>
		<path class="st8" d="M133.6,172.8l22.3-13.6c1.4-0.9,1.4-2.3,0-3.1c-1.4-0.9-3.7-0.9-5.1,0l-19.8,12L111.3,156
			c-1.4-0.9-3.7-0.9-5.1,0c-0.7,0.4-1.1,1-1.1,1.6s0.4,1.1,1.1,1.6l22.3,13.6C129.8,173.6,132.1,173.6,133.6,172.8z"/>
		<path class="st9" d="M133.6,163.4l22.3-13.6c1.4-0.9,1.4-2.3,0-3.1c-1.4-0.9-3.7-0.9-5.1,0l-19.8,12l-19.7-12.1
			c-1.4-0.9-3.7-0.9-5.1,0c-0.7,0.4-1.1,1-1.1,1.6s0.4,1.1,1.1,1.6l22.3,13.6C129.8,164.3,132.1,164.3,133.6,163.4z"/>
	</g>
</g>
<g>
	<g class="st10">
		<path class="st11" d="M120.9,56.7h19.5c1.9,0,3.4-1.5,3.5-3.4c0-1.9-1.5-3.4-3.4-3.5l-1.2,0.1c-0.6,0.1-1.1-0.3-1.2-0.9
			c-0.4-1.8-2.2-3-4-2.6c-0.2,0-0.3,0.1-0.5,0.1c-0.6,0.2-1.2-0.1-1.5-0.7c-0.9-2.4-3.5-3.6-5.9-2.7c-1.5,0.6-2.6,1.9-2.9,3.5
			c-0.1,0.6-0.7,1-1.3,0.9l0,0c-0.3-0.1-0.7-0.1-1-0.1c-2.5,0-4.6,2-4.6,4.6S118.3,56.7,120.9,56.7z"/>
		<path class="st11" d="M143.8,59h-27.5v5.7h27.5V59z M125.4,63.5h-6.9v-2.3h6.9V63.5z M128.9,63.5h-2.3v-2.3h2.3V63.5z M132.3,63.5
			H130v-2.3h2.3V63.5z"/>
		<path class="st11" d="M143.8,67h-27.5v5.7h27.5V67z M125.4,71.5h-6.9v-2.3h6.9V71.5z M128.9,71.5h-2.3v-2.3h2.3V71.5z M132.3,71.5
			H130v-2.3h2.3V71.5z"/>
		<path class="st11" d="M106,85.3h19.6c0.4,1.6,1.7,2.9,3.3,3.3v4.7h2.3v-4.7c1.6-0.4,2.9-1.7,3.3-3.3h19.6v8h2.3v-9.2
			c0-0.6-0.5-1.1-1.1-1.1h-20.8c-0.4-1.6-1.7-2.9-3.3-3.3v-5.9h-2.3v5.9c-1.6,0.4-2.9,1.7-3.3,3.3h-20.8c-0.6,0-1.1,0.5-1.1,1.1v9.2
			h2.3C106,93.3,106,85.3,106,85.3z"/>
		<path class="st11" d="M112.9,96.7h-9.2l-1.4-1.8c-0.2-0.3-0.6-0.5-0.9-0.5h-4.6c-0.6,0-1.1,0.5-1.1,1.1v12.6
			c0,0.6,0.5,1.1,1.1,1.1h16c0.6,0,1.1-0.5,1.1-1.1V97.9C114,97.2,113.5,96.7,112.9,96.7z M110.6,102.4h-2.3v-2.3h2.3V102.4z"/>
		<path class="st11" d="M138,96.7h-9.2l-1.4-1.8c-0.2-0.3-0.6-0.5-0.9-0.5H122c-0.6,0-1.1,0.5-1.1,1.1v12.6c0,0.6,0.5,1.1,1.1,1.1
			h16c0.6,0,1.1-0.5,1.1-1.1V97.9C139.2,97.2,138.7,96.7,138,96.7z M135.7,102.4h-2.3v-2.3h2.3V102.4z"/>
		<path class="st11" d="M163.2,96.7H154l-1.4-1.8c-0.2-0.3-0.6-0.5-0.9-0.5h-4.6c-0.6,0-1.1,0.5-1.1,1.1v12.6c0,0.6,0.5,1.1,1.1,1.1
			h16c0.6,0,1.1-0.5,1.1-1.1V97.9C164.4,97.2,163.8,96.7,163.2,96.7z M160.9,102.4h-2.3v-2.3h2.3V102.4z"/>
	</g>
	<g>
		
			<linearGradient id="SVGID_5_" gradientUnits="userSpaceOnUse" x1="116.2938" y1="131.7494" x2="143.7938" y2="131.7494" gradientTransform="matrix(1 0 0 -1 0 178)">
			<stop  offset="0" style="stop-color:#FFFFFF"/>
			<stop  offset="0.5" style="stop-color:#FFFFFF"/>
			<stop  offset="0.51" style="stop-color:#DBEFFF"/>
			<stop  offset="1" style="stop-color:#DBEFFF"/>
		</linearGradient>
		<path class="st12" d="M120.9,53.2h19.5c1.9,0,3.4-1.5,3.5-3.4c0-1.9-1.5-3.4-3.4-3.5l-1.2,0.1c-0.6,0.1-1.1-0.3-1.2-0.9
			c-0.4-1.8-2.2-3-4-2.6c-0.2,0-0.3,0.1-0.5,0.1c-0.6,0.2-1.2-0.1-1.5-0.7c-0.9-2.4-3.5-3.6-5.9-2.7c-1.5,0.6-2.6,1.9-2.9,3.5
			c-0.1,0.6-0.7,1-1.3,0.9l0,0c-0.3-0.1-0.7-0.1-1-0.1c-2.5,0-4.6,2-4.6,4.6S118.3,53.2,120.9,53.2z"/>
		
			<linearGradient id="SVGID_6_" gradientUnits="userSpaceOnUse" x1="116.3" y1="119.65" x2="143.7624" y2="119.65" gradientTransform="matrix(1 0 0 -1 0 178)">
			<stop  offset="0" style="stop-color:#FFFFFF"/>
			<stop  offset="0.5" style="stop-color:#FFFFFF"/>
			<stop  offset="0.51" style="stop-color:#DBEFFF"/>
			<stop  offset="1" style="stop-color:#DBEFFF"/>
		</linearGradient>
		<path class="st13" d="M143.8,55.5h-27.5v5.7h27.5V55.5z M125.4,60.1h-6.9v-2.3h6.9V60.1z M128.9,60.1h-2.3v-2.3h2.3V60.1z
			 M132.3,60.1H130v-2.3h2.3V60.1z"/>
		
			<linearGradient id="SVGID_7_" gradientUnits="userSpaceOnUse" x1="116.3" y1="111.65" x2="143.7624" y2="111.65" gradientTransform="matrix(1 0 0 -1 0 178)">
			<stop  offset="0" style="stop-color:#FFFFFF"/>
			<stop  offset="0.5" style="stop-color:#FFFFFF"/>
			<stop  offset="0.51" style="stop-color:#DBEFFF"/>
			<stop  offset="1" style="stop-color:#DBEFFF"/>
		</linearGradient>
		<path class="st14" d="M143.8,63.5h-27.5v5.7h27.5V63.5z M125.4,68.1h-6.9v-2.3h6.9V68.1z M128.9,68.1h-2.3v-2.3h2.3V68.1z
			 M132.3,68.1H130v-2.3h2.3V68.1z"/>
		
			<linearGradient id="SVGID_8_" gradientUnits="userSpaceOnUse" x1="103.7" y1="97.95" x2="156.3362" y2="97.95" gradientTransform="matrix(1 0 0 -1 0 178)">
			<stop  offset="0" style="stop-color:#FFFFFF"/>
			<stop  offset="0.5" style="stop-color:#FFFFFF"/>
			<stop  offset="0.51" style="stop-color:#DBEFFF"/>
			<stop  offset="1" style="stop-color:#DBEFFF"/>
		</linearGradient>
		<path class="st15" d="M106,81.8h19.6c0.4,1.6,1.7,2.9,3.3,3.3v4.7h2.3v-4.7c1.6-0.4,2.9-1.7,3.3-3.3h19.6v8h2.3v-9.2
			c0-0.6-0.5-1.1-1.1-1.1h-20.8c-0.4-1.6-1.7-2.9-3.3-3.3v-5.9h-2.3v5.9c-1.6,0.4-2.9,1.7-3.3,3.3h-20.8c-0.6,0-1.1,0.5-1.1,1.1v9.2
			h2.3C106,89.8,106,81.8,106,81.8z"/>
		
			<linearGradient id="SVGID_9_" gradientUnits="userSpaceOnUse" x1="95.7" y1="79.6" x2="114.0082" y2="79.6" gradientTransform="matrix(1 0 0 -1 0 178)">
			<stop  offset="0" style="stop-color:#FFFFFF"/>
			<stop  offset="0.5" style="stop-color:#FFFFFF"/>
			<stop  offset="0.51" style="stop-color:#DBEFFF"/>
			<stop  offset="1" style="stop-color:#DBEFFF"/>
		</linearGradient>
		<path class="st16" d="M112.9,93.3h-9.2l-1.4-1.8c-0.2-0.3-0.6-0.5-0.9-0.5h-4.6c-0.6,0-1.1,0.5-1.1,1.1v12.6
			c0,0.6,0.5,1.1,1.1,1.1h16c0.6,0,1.1-0.5,1.1-1.1V94.4C114,93.8,113.5,93.3,112.9,93.3z M110.6,99h-2.3v-2.3h2.3V99z"/>
		
			<linearGradient id="SVGID_10_" gradientUnits="userSpaceOnUse" x1="120.8709" y1="79.6" x2="139.1791" y2="79.6" gradientTransform="matrix(1 0 0 -1 0 178)">
			<stop  offset="0" style="stop-color:#FFFFFF"/>
			<stop  offset="0.5" style="stop-color:#FFFFFF"/>
			<stop  offset="0.51" style="stop-color:#DBEFFF"/>
			<stop  offset="1" style="stop-color:#DBEFFF"/>
		</linearGradient>
		<path class="st17" d="M138,93.3h-9.2l-1.4-1.8c-0.2-0.3-0.6-0.5-0.9-0.5H122c-0.6,0-1.1,0.5-1.1,1.1v12.6c0,0.6,0.5,1.1,1.1,1.1
			h16c0.6,0,1.1-0.5,1.1-1.1V94.4C139.2,93.8,138.7,93.3,138,93.3z M135.7,99h-2.3v-2.3h2.3V99z"/>
		
			<linearGradient id="SVGID_11_" gradientUnits="userSpaceOnUse" x1="146.0447" y1="79.6" x2="164.3529" y2="79.6" gradientTransform="matrix(1 0 0 -1 0 178)">
			<stop  offset="0" style="stop-color:#FFFFFF"/>
			<stop  offset="0.5" style="stop-color:#FFFFFF"/>
			<stop  offset="0.51" style="stop-color:#DBEFFF"/>
			<stop  offset="1" style="stop-color:#DBEFFF"/>
		</linearGradient>
		<path class="st18" d="M163.2,93.3H154l-1.4-1.8c-0.2-0.3-0.6-0.5-0.9-0.5h-4.6c-0.6,0-1.1,0.5-1.1,1.1v12.6c0,0.6,0.5,1.1,1.1,1.1
			h16c0.6,0,1.1-0.5,1.1-1.1V94.4C164.4,93.8,163.8,93.3,163.2,93.3z M160.9,99h-2.3v-2.3h2.3V99z"/>
	</g>
</g>
</svg>
