<?xml version="1.0" encoding="utf-8"?>
<!-- Generator: Adobe Illustrator 21.0.0, SVG Export Plug-In . SVG Version: 6.00 Build 0)  -->
<svg version="1.1" id="Layer_1" xmlns="http://www.w3.org/2000/svg" xmlns:xlink="http://www.w3.org/1999/xlink" x="0px" y="0px"
	 viewBox="0 0 254 176" style="enable-background:new 0 0 254 176;" xml:space="preserve">
<style type="text/css">
	.st0{fill:none;stroke:#ECF3FB;stroke-width:2;stroke-miterlimit:10;}
	.st1{opacity:0.2;fill:url(#SVGID_1_);enable-background:new    ;}
	.st2{opacity:0.2;fill:url(#SVGID_2_);enable-background:new    ;}
	.st3{fill:#3C91E5;}
	.st4{fill:url(#SVGID_3_);}
	.st5{fill:url(#SVGID_4_);}
	.st6{fill:none;stroke:#FFFFFF;stroke-width:2;stroke-miterlimit:10;}
	.st7{opacity:0.15;fill:#9AC3F4;enable-background:new    ;}
	.st8{fill:#B3D2FF;}
	.st9{fill:#9AC3F4;}
	.st10{fill:#FFFFFF;}
	.st11{opacity:0.1;}
	.st12{fill:#333333;}
	.st13{fill:url(#SVGID_5_);}
	.st14{fill:url(#SVGID_6_);}
</style>
<g>
	<g>
		<polygon class="st0" points="28,18.4 28,45 51,58.3 74,45 74,18.4 51,5.1 		"/>
		<polygon class="st0" points="5,58.4 5,85 28,98.3 51,85 51,58.4 28,45.1 		"/>
		<polygon class="st0" points="51,58.4 51,85 74,98.3 97,85 97,58.4 74,45.1 		"/>
	</g>
	
		<linearGradient id="SVGID_1_" gradientUnits="userSpaceOnUse" x1="18.5" y1="169.6" x2="37.4" y2="169.6" gradientTransform="matrix(1 0 0 1 0 -124)">
		<stop  offset="0" style="stop-color:#16CBBF"/>
		<stop  offset="1" style="stop-color:#0EDCE7"/>
	</linearGradient>
	<polygon class="st1" points="18.5,40.2 18.5,51.1 28,56.5 37.4,51.1 37.4,40.2 28,34.7 	"/>
</g>
<g>
	<g>
		<polygon class="st0" points="229,68.4 229,95 206,108.3 183,95 183,68.4 206,55.1 		"/>
		<polygon class="st0" points="252,108.4 252,135 229,148.3 206,135 206,108.4 229,95.1 		"/>
		<polygon class="st0" points="206,108.4 206,135 183,148.3 160,135 160,108.4 183,95.1 		"/>
	</g>
	
		<linearGradient id="SVGID_2_" gradientUnits="userSpaceOnUse" x1="219.6" y1="219.6" x2="238.5" y2="219.6" gradientTransform="matrix(1 0 0 1 0 -124)">
		<stop  offset="0" style="stop-color:#16CBBF"/>
		<stop  offset="1" style="stop-color:#0EDCE7"/>
	</linearGradient>
	<polygon class="st2" points="238.5,90.2 238.5,101.1 229,106.5 219.6,101.1 219.6,90.2 229,84.7 	"/>
</g>
<path class="st3" d="M62,47.8v58.5c0,5.7,3,10.9,7.9,13.7l50.7,29.3c4.9,2.8,10.9,2.8,15.8,0l50.7-29.3c4.9-2.8,7.9-8.1,7.9-13.7
	V47.8c0-5.7-3-10.9-7.9-13.7L136.4,4.8c-4.9-2.8-10.9-2.8-15.8,0L69.9,34.1C65,36.9,62,42.1,62,47.8z"/>
<linearGradient id="SVGID_3_" gradientUnits="userSpaceOnUse" x1="134.9535" y1="166.8869" x2="54.9535" y2="122.3869" gradientTransform="matrix(1 0 0 -1 0 204)">
	<stop  offset="0" style="stop-color:#73ACE5"/>
	<stop  offset="1" style="stop-color:#3C91E5"/>
</linearGradient>
<path class="st4" d="M128,2.7c-2.6,0.1-5.1,0.8-7.4,2.1L69.9,34.1c-4.9,2.8-7.9,8-7.9,13.7v58.5c0,3.6,1.2,7.1,3.4,9.8L128,77V2.7z"
	/>
<linearGradient id="SVGID_4_" gradientUnits="userSpaceOnUse" x1="161.5" y1="296.4011" x2="161.5" y2="65.3347" gradientTransform="matrix(1 0 0 -1 0 204)">
	<stop  offset="0" style="stop-color:#3580C9"/>
	<stop  offset="1" style="stop-color:#3E81C2"/>
</linearGradient>
<path class="st5" d="M187.1,34.1L136.4,4.8c-2.3-1.3-5.9-2-8.4-2.1V77l63.6,39.1c2.2-2.8,3.4-6.2,3.4-9.8V47.8
	C195,42.1,192,36.9,187.1,34.1z"/>
<path class="st6" d="M68.3,51.4v51.3c0,5.7,3,10.9,7.9,13.7l44.4,25.6c4.9,2.8,10.9,2.8,15.8,0l44.4-25.6c4.9-2.8,7.9-8.1,7.9-13.7
	V51.4c0-5.7-3-10.9-7.9-13.7l-44.4-25.6c-4.9-2.8-10.9-2.8-15.8,0L76.2,37.7C71.3,40.5,68.3,45.8,68.3,51.4z"/>
<path class="st6" d="M68.3,51.4v51.3c0,5.7,3,10.9,7.9,13.7l44.4,25.6c4.9,2.8,10.9,2.8,15.8,0l44.4-25.6c4.9-2.8,7.9-8.1,7.9-13.7
	V51.4c0-5.7-3-10.9-7.9-13.7l-44.4-25.6c-4.9-2.8-10.9-2.8-15.8,0L76.2,37.7C71.3,40.5,68.3,45.8,68.3,51.4z"/>
<g>
	<path class="st7" d="M126.4,168.1L106.6,156c-1.4-0.9-3.7-0.9-5.1,0c-0.7,0.4-1.1,1-1.1,1.6s0.4,1.1,1.1,1.6l22.3,13.6
		c1.4,0.9,3.7,0.9,5.1,0l22.3-13.6c1.4-0.9,1.4-2.3,0-3.1c-1.4-0.9-3.7-0.9-5.1,0L126.4,168.1z"/>
	<path class="st7" d="M126.4,158.7l-19.7-12.1c-1.4-0.9-3.7-0.9-5.1,0c-0.7,0.4-1.1,1-1.1,1.6s0.4,1.1,1.1,1.6l22.3,13.6
		c1.4,0.9,3.7,0.9,5.1,0l22.3-13.6c1.4-0.9,1.4-2.3,0-3.1c-1.4-0.9-3.7-0.9-5.1,0L126.4,158.7z"/>
	<g>
		<path class="st8" d="M131.6,172.8l22.3-13.6c1.4-0.9,1.4-2.3,0-3.1c-1.4-0.9-3.7-0.9-5.1,0l-19.8,12L109.3,156
			c-1.4-0.9-3.7-0.9-5.1,0c-0.7,0.4-1.1,1-1.1,1.6s0.4,1.1,1.1,1.6l22.3,13.6C127.8,173.6,130.1,173.6,131.6,172.8z"/>
		<path class="st9" d="M131.6,163.4l22.3-13.6c1.4-0.9,1.4-2.3,0-3.1c-1.4-0.9-3.7-0.9-5.1,0l-19.8,12l-19.7-12.1
			c-1.4-0.9-3.7-0.9-5.1,0c-0.7,0.4-1.1,1-1.1,1.6s0.4,1.1,1.1,1.6l22.3,13.6C127.8,164.3,130.1,164.3,131.6,163.4z"/>
	</g>
</g>
<polygon class="st10" points="130.5,59.6 141.8,59.6 141.8,50.2 105.3,50.2 105.3,98.5 130.5,98.5 "/>
<g>
	<g class="st11">
		<path class="st12" d="M161.1,57h-27.9c-1.9,0-3.4,1.5-3.4,3.4v49.2c0,1.9,1.5,3.4,3.4,3.4h27.9c1.9,0,3.4-1.5,3.4-3.4V60.3
			C164.5,58.5,162.9,57,161.1,57z M142.1,59.6h10.1c0.2,0,0.4,0.2,0.4,0.4s-0.2,0.4-0.4,0.4h-10.1c-0.2,0-0.4-0.2-0.4-0.4
			S141.9,59.6,142.1,59.6z M140.8,109.7h-3.9c-0.6,0-1.1-0.5-1.1-1.1s0.5-1.1,1.1-1.1h3.9c0.6,0,1.1,0.5,1.1,1.1
			S141.4,109.7,140.8,109.7z M149.4,109.5c0,0.7-0.6,1.4-1.4,1.4h-1.7c-0.7,0-1.4-0.6-1.4-1.4v-1.7c0-0.7,0.6-1.4,1.4-1.4h1.7
			c0.7,0,1.4,0.6,1.4,1.4V109.5z M157.4,109.7h-3.9c-0.6,0-1.1-0.5-1.1-1.1s0.5-1.1,1.1-1.1h3.9c0.6,0,1.1,0.5,1.1,1.1
			S158,109.7,157.4,109.7z M162.7,104.5h-31.2V63.1h31.2V104.5z"/>
		<g>
			<path class="st12" d="M127.8,109.5v-6.8h-24.3V50.5h40.8v4.4h3.9v-6.4c0-2.7-2.2-5-5-5h-38.7c-2.7,0-5,2.2-5,5v56.1
				c0,2.7,2.2,5,5,5L127.8,109.5C127.8,109.6,127.8,109.5,127.8,109.5z M123.8,108c-1,0-1.7-0.8-1.7-1.7s0.8-1.7,1.7-1.7
				s1.7,0.8,1.7,1.7C125.6,107.2,124.8,108,123.8,108z"/>
		</g>
	</g>
	<g>
		
			<linearGradient id="SVGID_5_" gradientUnits="userSpaceOnUse" x1="91.2602" y1="206.7" x2="164.2854" y2="206.7" gradientTransform="matrix(1 0 0 1 0 -124)">
			<stop  offset="0" style="stop-color:#FFFFFF"/>
			<stop  offset="0.5" style="stop-color:#FFFFFF"/>
			<stop  offset="0.51" style="stop-color:#DBEFFF"/>
			<stop  offset="1" style="stop-color:#DBEFFF"/>
		</linearGradient>
		<path class="st13" d="M161.1,54.7h-27.9c-1.9,0-3.4,1.5-3.4,3.4v49.2c0,1.9,1.5,3.4,3.4,3.4h27.9c1.9,0,3.4-1.5,3.4-3.4V58
			C164.5,56.2,162.9,54.7,161.1,54.7z M142.1,57.3h10.1c0.2,0,0.4,0.2,0.4,0.4s-0.2,0.4-0.4,0.4h-10.1c-0.2,0-0.4-0.2-0.4-0.4
			S141.9,57.3,142.1,57.3z M140.8,107.4h-3.9c-0.6,0-1.1-0.5-1.1-1.1s0.5-1.1,1.1-1.1h3.9c0.6,0,1.1,0.5,1.1,1.1
			S141.4,107.4,140.8,107.4z M149.4,107.2c0,0.7-0.6,1.4-1.4,1.4h-1.7c-0.7,0-1.4-0.6-1.4-1.4v-1.7c0-0.7,0.6-1.4,1.4-1.4h1.7
			c0.7,0,1.4,0.6,1.4,1.4V107.2z M157.4,107.4h-3.9c-0.6,0-1.1-0.5-1.1-1.1s0.5-1.1,1.1-1.1h3.9c0.6,0,1.1,0.5,1.1,1.1
			S158,107.4,157.4,107.4z M162.7,102.2h-31.2V60.8h31.2V102.2z"/>
		<g>
			
				<linearGradient id="SVGID_6_" gradientUnits="userSpaceOnUse" x1="91.2602" y1="198.25" x2="164.2854" y2="198.25" gradientTransform="matrix(1 0 0 1 0 -124)">
				<stop  offset="0" style="stop-color:#FFFFFF"/>
				<stop  offset="0.5" style="stop-color:#FFFFFF"/>
				<stop  offset="0.51" style="stop-color:#DBEFFF"/>
				<stop  offset="1" style="stop-color:#DBEFFF"/>
			</linearGradient>
			<path class="st14" d="M127.8,107.2v-6.8h-24.3V48.2h40.8v4.4h3.9v-6.4c0-2.7-2.2-5-5-5h-38.7c-2.7,0-5,2.2-5,5v56.1
				c0,2.7,2.2,5,5,5L127.8,107.2L127.8,107.2z M123.8,105.7c-1,0-1.7-0.8-1.7-1.7s0.8-1.7,1.7-1.7s1.7,0.8,1.7,1.7
				S124.8,105.7,123.8,105.7z"/>
		</g>
	</g>
</g>
</svg>
