<?xml version="1.0" encoding="utf-8"?>
<!-- Generator: Adobe Illustrator 21.0.0, SVG Export Plug-In . SVG Version: 6.00 Build 0)  -->
<svg version="1.1" id="Layer_1" xmlns="http://www.w3.org/2000/svg" xmlns:xlink="http://www.w3.org/1999/xlink" x="0px" y="0px"
	 viewBox="0 0 254 176" style="enable-background:new 0 0 254 176;" xml:space="preserve">
<style type="text/css">
	.st0{fill:none;stroke:#ECF3FB;stroke-width:2;stroke-miterlimit:10;}
	.st1{opacity:0.2;fill:#2284FF;enable-background:new    ;}
	.st2{fill:#3C91E5;}
	.st3{fill:url(#SVGID_1_);}
	.st4{fill:url(#SVGID_2_);}
	.st5{fill:none;stroke:#FFFFFF;stroke-width:2;stroke-miterlimit:10;}
	.st6{opacity:0.15;fill:#9AC3F4;enable-background:new    ;}
	.st7{fill:#B3D2FF;}
	.st8{fill:#9AC3F4;}
	.st9{opacity:0.1;}
	.st10{fill:#FFFFFF;}
</style>
<g>
	<g>
		<polygon class="st0" points="28,43.4 28,70 51,83.3 74,70 74,43.4 51,30.1 		"/>
		<polygon class="st0" points="5,83.4 5,110 28,123.3 51,110 51,83.4 28,70.1 		"/>
		<polygon class="st0" points="51,83.4 51,110 74,123.3 97,110 97,83.4 74,70.1 		"/>
	</g>
	<polygon class="st1" points="18.5,65.2 18.5,76.1 28,81.5 37.4,76.1 37.4,65.2 28,59.7 	"/>
</g>
<g>
	<g>
		<polygon class="st0" points="229,43.8 229,70.4 206,83.7 183,70.4 183,43.8 206,30.5 		"/>
		<polygon class="st0" points="252,83.8 252,110.4 229,123.7 206,110.4 206,83.8 229,70.5 		"/>
		<polygon class="st0" points="206,83.8 206,110.4 183,123.7 160,110.4 160,83.8 183,70.5 		"/>
	</g>
	<polygon class="st1" points="238.5,65.6 238.5,76.5 229,81.9 219.6,76.5 219.6,65.6 229,60.1 	"/>
</g>
<path class="st2" d="M62,47.8v58.5c0,5.7,3,10.9,7.9,13.7l50.7,29.3c4.9,2.8,10.9,2.8,15.8,0l50.7-29.3c4.9-2.8,7.9-8.1,7.9-13.7
	V47.8c0-5.7-3-10.9-7.9-13.7L136.4,4.8c-4.9-2.8-10.9-2.8-15.8,0L69.9,34.1C65,36.9,62,42.1,62,47.8z"/>
<linearGradient id="SVGID_1_" gradientUnits="userSpaceOnUse" x1="62" y1="59.4" x2="128" y2="59.4">
	<stop  offset="0" style="stop-color:#73ACE5"/>
	<stop  offset="1" style="stop-color:#3C91E5"/>
</linearGradient>
<path class="st3" d="M128,2.7c-2.6,0.1-5.1,0.8-7.4,2.1L69.9,34.1c-4.9,2.8-7.9,8-7.9,13.7v58.5c0,3.6,1.2,7.1,3.4,9.8L128,77V2.7z"
	/>
<linearGradient id="SVGID_2_" gradientUnits="userSpaceOnUse" x1="128" y1="59.4" x2="195" y2="59.4">
	<stop  offset="0" style="stop-color:#3580C9"/>
	<stop  offset="1" style="stop-color:#3E81C2"/>
</linearGradient>
<path class="st4" d="M187.1,34.1L136.4,4.8c-2.3-1.3-5.9-2-8.4-2.1V77l63.6,39.1c2.2-2.8,3.4-6.2,3.4-9.8V47.8
	C195,42.1,192,36.9,187.1,34.1z"/>
<path class="st5" d="M68.3,51.4v51.3c0,5.7,3,10.9,7.9,13.7l44.4,25.6c4.9,2.8,10.9,2.8,15.8,0l44.4-25.6c4.9-2.8,7.9-8.1,7.9-13.7
	V51.4c0-5.7-3-10.9-7.9-13.7l-44.4-25.6c-4.9-2.8-10.9-2.8-15.8,0L76.2,37.7C71.3,40.5,68.3,45.8,68.3,51.4z"/>
<path class="st5" d="M68.3,51.4v51.3c0,5.7,3,10.9,7.9,13.7l44.4,25.6c4.9,2.8,10.9,2.8,15.8,0l44.4-25.6c4.9-2.8,7.9-8.1,7.9-13.7
	V51.4c0-5.7-3-10.9-7.9-13.7l-44.4-25.6c-4.9-2.8-10.9-2.8-15.8,0L76.2,37.7C71.3,40.5,68.3,45.8,68.3,51.4z"/>
<g>
	<path class="st6" d="M126.4,168.1L106.6,156c-1.4-0.9-3.7-0.9-5.1,0c-0.7,0.4-1.1,1-1.1,1.6s0.4,1.1,1.1,1.6l22.3,13.6
		c1.4,0.9,3.7,0.9,5.1,0l22.3-13.6c1.4-0.9,1.4-2.3,0-3.1c-1.4-0.9-3.7-0.9-5.1,0L126.4,168.1z"/>
	<path class="st6" d="M126.4,158.7l-19.7-12.1c-1.4-0.9-3.7-0.9-5.1,0c-0.7,0.4-1.1,1-1.1,1.6s0.4,1.1,1.1,1.6l22.3,13.6
		c1.4,0.9,3.7,0.9,5.1,0l22.3-13.6c1.4-0.9,1.4-2.3,0-3.1c-1.4-0.9-3.7-0.9-5.1,0L126.4,158.7z"/>
	<g>
		<path class="st7" d="M131.6,172.8l22.3-13.6c1.4-0.9,1.4-2.3,0-3.1c-1.4-0.9-3.7-0.9-5.1,0l-19.8,12L109.3,156
			c-1.4-0.9-3.7-0.9-5.1,0c-0.7,0.4-1.1,1-1.1,1.6s0.4,1.1,1.1,1.6l22.3,13.6C127.8,173.6,130.1,173.6,131.6,172.8z"/>
		<path class="st8" d="M131.6,163.4l22.3-13.6c1.4-0.9,1.4-2.3,0-3.1c-1.4-0.9-3.7-0.9-5.1,0l-19.8,12l-19.7-12.1
			c-1.4-0.9-3.7-0.9-5.1,0c-0.7,0.4-1.1,1-1.1,1.6s0.4,1.1,1.1,1.6l22.3,13.6C127.8,164.3,130.1,164.3,131.6,163.4z"/>
	</g>
</g>
<g>
	<g class="st9">
		<path class="st10" d="M145,63.1h-37.3c-0.7,0-1.2,0.6-1.2,1.2V88h39.8V64.4C146.2,63.7,145.7,63.1,145,63.1z M143.7,84.3
			c0,0.7-0.6,1.2-1.2,1.2h-32.3c-0.7,0-1.2-0.6-1.2-1.2V66.9c0-0.7,0.6-1.2,1.2-1.2h32.3c0.7,0,1.2,0.6,1.2,1.2V84.3z"/>
		<polygon class="st10" points="102.2,90.5 103.5,93 149.2,93 150.4,90.5 		"/>
		<path class="st10" d="M111.4,83h29.9V68.1h-29.9V83z M132.9,72.7l1.8-1.8l3.7,3.7c0.5,0.5,0.5,1.3,0,1.8l-3.7,3.7l-1.8-1.8
			l2.9-2.9L132.9,72.7z M124,71.3l2.2,1.1l-3.7,7.5l-2.2-1.1L124,71.3z M114.2,74.7l3.7-3.7l1.8,1.8l-2.9,2.9l2.9,2.9l-1.8,1.8
			l-3.7-3.7C113.8,76,113.8,75.2,114.2,74.7z"/>
		<path class="st10" d="M97.7,73.1h6.2v-8.7c0-2.1,1.7-3.7,3.7-3.7H145c2.1,0,3.7,1.7,3.7,3.7v8.7c6.9,0,12.4-5.6,12.4-12.4
			s-5.6-12.4-12.4-12.4H148c-0.5,0-1-0.3-1.2-0.8c-2.2-6.1-8.9-9.4-15.1-7.2c-3,1.1-5.5,3.3-6.8,6.2c-0.3,0.6-1,0.9-1.7,0.6
			c-0.1-0.1-0.3-0.1-0.4-0.3c-4.6-4.6-12.1-4.7-16.7-0.1c-2.2,2.2-3.5,5.2-3.5,8.4v4.4c0,0.7-0.6,1.2-1.2,1.2h-3.7
			c-3.4,0-6.2,2.8-6.2,6.2S94.3,73.1,97.7,73.1z M156.2,64.4h-2.5v-2.5h2.5V64.4z M148.7,51.9c4.1,0,7.5,3.3,7.5,7.5h-2.5
			c0-2.7-2.2-5-5-5V51.9z"/>
		<path class="st10" d="M163.7,105.4h-32.5c-0.5-1.7-1.8-3.1-3.6-3.6v-7.6h-2.5v7.6c-1.7,0.5-3.1,1.8-3.6,3.6H89v2.5h32.5
			c0.7,2.7,3.4,4.3,6,3.6c1.8-0.4,3.1-1.8,3.6-3.6h32.5L163.7,105.4L163.7,105.4z M126.3,109.2c-1.4,0-2.5-1.1-2.5-2.5
			s1.1-2.5,2.5-2.5s2.5,1.1,2.5,2.5S127.7,109.2,126.3,109.2z"/>
	</g>
	<g>
		<path class="st10" d="M145,60.4h-37.3c-0.7,0-1.2,0.6-1.2,1.2v23.6h39.8V61.7C146.2,61,145.7,60.4,145,60.4z M143.7,81.6
			c0,0.7-0.6,1.2-1.2,1.2h-32.3c-0.7,0-1.2-0.6-1.2-1.2V64.2c0-0.7,0.6-1.2,1.2-1.2h32.3c0.7,0,1.2,0.6,1.2,1.2V81.6z"/>
		<polygon class="st10" points="102.2,87.8 103.5,90.3 149.2,90.3 150.4,87.8 		"/>
		<path class="st10" d="M111.4,80.3h29.9V65.4h-29.9V80.3z M132.9,70l1.8-1.8l3.7,3.7c0.5,0.5,0.5,1.3,0,1.8l-3.7,3.7l-1.8-1.8
			l2.9-2.9L132.9,70z M124,68.6l2.2,1.1l-3.7,7.5l-2.2-1.1L124,68.6z M114.2,72l3.7-3.7l1.8,1.8l-2.9,2.9l2.9,2.9l-1.8,1.8l-3.7-3.7
			C113.8,73.3,113.8,72.5,114.2,72z"/>
		<path class="st10" d="M97.7,70.4h6.2v-8.7c0-2.1,1.7-3.7,3.7-3.7H145c2.1,0,3.7,1.7,3.7,3.7v8.7c6.9,0,12.4-5.6,12.4-12.4
			s-5.6-12.4-12.4-12.4H148c-0.5,0-1-0.3-1.2-0.8c-2.2-6.1-8.9-9.4-15.1-7.2c-3,1.1-5.5,3.3-6.8,6.2c-0.3,0.6-1,0.9-1.7,0.6
			c-0.1-0.1-0.3-0.1-0.4-0.3c-4.6-4.6-12.1-4.7-16.7-0.1c-2.2,2.2-3.5,5.2-3.5,8.4v4.4c0,0.7-0.6,1.2-1.2,1.2h-3.7
			c-3.4,0-6.2,2.8-6.2,6.2C91.5,67.6,94.3,70.4,97.7,70.4z M156.2,61.7h-2.5v-2.5h2.5V61.7z M148.7,49.2c4.1,0,7.5,3.3,7.5,7.5h-2.5
			c0-2.7-2.2-5-5-5V49.2z"/>
		<path class="st10" d="M163.7,102.7h-32.5c-0.5-1.7-1.8-3.1-3.6-3.6v-7.6h-2.5v7.6c-1.7,0.5-3.1,1.8-3.6,3.6H89v2.5h32.5
			c0.7,2.7,3.4,4.3,6,3.6c1.8-0.4,3.1-1.8,3.6-3.6h32.5L163.7,102.7L163.7,102.7z M126.3,106.5c-1.4,0-2.5-1.1-2.5-2.5
			s1.1-2.5,2.5-2.5s2.5,1.1,2.5,2.5S127.7,106.5,126.3,106.5z"/>
	</g>
</g>
</svg>
