<?xml version="1.0" encoding="utf-8"?>
<!-- Generator: Adobe Illustrator 21.0.0, SVG Export Plug-In . SVG Version: 6.00 Build 0)  -->
<svg version="1.1" id="Layer_1" xmlns="http://www.w3.org/2000/svg" xmlns:xlink="http://www.w3.org/1999/xlink" x="0px" y="0px"
	 viewBox="0 0 564 426" style="enable-background:new 0 0 564 426;" xml:space="preserve">
<style type="text/css">
	.st0{display:none;opacity:0.3;fill:none;stroke:#29E4BC;stroke-miterlimit:10;enable-background:new    ;}
	.st1{display:none;opacity:0.3;fill:none;stroke:#27A2E1;stroke-miterlimit:10;enable-background:new    ;}
	.st2{display:none;opacity:0.3;fill:none;stroke:#1071DE;stroke-miterlimit:10;enable-background:new    ;}
	.st3{display:none;}
	.st4{display:inline;opacity:4.000000e-02;fill:#27A2E1;enable-background:new    ;}
	.st5{display:none;opacity:0.5;}
	.st6{display:inline;}
	.st7{fill:#FFF41F;}
	.st8{display:none;opacity:0.5;fill:#FFF41F;enable-background:new    ;}
	.st9{opacity:5.000000e-02;fill:url(#SVGID_1_);enable-background:new    ;}
	.st10{opacity:0.3;}
	.st11{fill:#B3D2FF;}
	.st12{opacity:0.5;}
	.st13{fill:#FFFFFF;}
	.st14{fill:none;stroke:#FFFFFF;stroke-width:1.2323;stroke-linecap:round;stroke-linejoin:round;stroke-miterlimit:10;}
	.st15{clip-path:url(#SVGID_3_);fill:#E1E4F7;}
	.st16{opacity:0.5;fill:url(#SVGID_4_);}
	.st17{fill:#64B9FF;}
	.st18{fill:#008DDC;}
	.st19{fill:#ECEEFF;}
	.st20{fill:none;stroke:#EAEDFD;stroke-width:2.2005;stroke-linecap:round;stroke-linejoin:round;stroke-miterlimit:10;}
	.st21{fill:#EAEDFD;}
	.st22{fill:none;stroke:#8396CE;stroke-width:2.1878;stroke-miterlimit:10;}
	.st23{fill:#FFC09C;}
	.st24{fill:none;stroke:#FFC09C;stroke-width:8.0991;stroke-linejoin:round;stroke-miterlimit:10;}
	.st25{fill:url(#SVGID_5_);}
	.st26{fill:#2D73AD;}
	.st27{fill:none;stroke:#001C34;stroke-width:1.1602;stroke-linecap:round;stroke-linejoin:round;stroke-miterlimit:10;}
	.st28{fill:#9AC3F4;}
	.st29{fill:none;stroke:#FFFFFF;stroke-width:2.9086;stroke-linecap:round;stroke-linejoin:round;stroke-miterlimit:10;}
	.st30{fill:#323D5D;}
	.st31{opacity:0.44;fill:#CCCCCC;}
	.st32{fill:#102A39;}
	.st33{fill:#495979;}
	.st34{fill:url(#SVGID_6_);}
	.st35{fill:#FFB68D;}
	.st36{fill:#192338;}
	.st37{fill:url(#SVGID_7_);}
	.st38{fill:url(#SVGID_8_);}
	.st39{fill:none;stroke:#FFC09C;stroke-width:8.6668;stroke-linejoin:round;stroke-miterlimit:10;}
	.st40{fill:url(#SVGID_9_);}
	.st41{fill:none;stroke:#FFFFFF;stroke-width:4.1917;stroke-linecap:round;stroke-linejoin:round;stroke-miterlimit:10;}
</style>
<ellipse transform="matrix(0.309 -0.9511 0.9511 0.309 -7.6787 415.4035)" class="st0" cx="282" cy="213" rx="213" ry="84"/>
<ellipse transform="matrix(0.8452 -0.5345 0.5345 0.8452 -70.1852 183.7123)" class="st1" cx="282" cy="213" rx="213" ry="84"/>
<ellipse transform="matrix(0.4875 -0.8731 0.8731 0.4875 -41.4749 355.3665)" class="st2" cx="282" cy="213" rx="84" ry="213"/>
<g class="st3">
	<ellipse class="st4" cx="282" cy="213" rx="84" ry="213"/>
	<ellipse transform="matrix(0.5878 -0.809 0.809 0.5878 -56.085 315.9325)" class="st4" cx="282" cy="213" rx="213" ry="84"/>
	<ellipse transform="matrix(0.809 -0.5878 0.5878 0.809 -71.3392 206.4436)" class="st4" cx="282" cy="213" rx="213" ry="84"/>
	<ellipse transform="matrix(0.9511 -0.309 0.309 0.9511 -52.0171 97.5607)" class="st4" cx="282" cy="213" rx="213" ry="84"/>
	<ellipse class="st4" cx="282" cy="213" rx="213" ry="84"/>
	<ellipse transform="matrix(0.309 -0.9511 0.9511 0.309 -7.6787 415.4035)" class="st4" cx="282" cy="213" rx="84" ry="213"/>
	<ellipse transform="matrix(0.5878 -0.809 0.809 0.5878 -56.085 315.9325)" class="st4" cx="282" cy="213" rx="84" ry="213"/>
	<ellipse transform="matrix(0.809 -0.5878 0.5878 0.809 -71.3392 206.4436)" class="st4" cx="282" cy="213" rx="84" ry="213"/>
	<ellipse transform="matrix(0.9511 -0.309 0.309 0.9511 -52.0171 97.5607)" class="st4" cx="282" cy="213" rx="84" ry="213"/>
</g>
<g class="st5">
	<g class="st6">
		<path class="st7" d="M179,319.7c-0.3,0.1-0.7,0.2-1,0.3c0,2.6,0,5.2,0.1,7.7c0.3,0.2,0.7,0.3,1,0.5C179,325.4,179,322.6,179,319.7
			z"/>
	</g>
	<g class="st6">
		<path class="st7" d="M255.7,407.3c0,0.4,0,0.8,0,1.2c9.8-5.9,19.9-14.7,30.2-26.1c0.2-0.8,0.5-1.5,0.7-2.3
			C276,392.1,265.7,401.2,255.7,407.3z"/>
	</g>
	<g class="st6">
		<path class="st7" d="M384.3,125.5c-2.3,34.9-10.1,74-22.9,113.3c-10,30.8-22.4,59.7-36.3,85.1c0.3,0.1,0.6,0.3,0.9,0.4
			c6.2-11.2,12-23.2,17.5-35.7c0.3-1.1,0.7-2.2,1.1-3.3c0.3-0.8,0.8-1.6,1.4-2.5c5.9-14,11.4-28.6,16.3-43.7
			c12.7-39,20.5-77.8,22.9-112.5C384.9,126.2,384.6,125.9,384.3,125.5z"/>
	</g>
	<g class="st6">
		<path class="st7" d="M325.1,326c-0.2-0.5-0.3-0.9-0.4-1.3c-6.2,11.2-12.6,21.7-19.3,31.3c0.2,0.3,0.4,0.5,0.7,0.8
			C312.6,347.4,319,337,325.1,326z"/>
	</g>
</g>
<path class="st8" d="M324.1,323.3c0,0,5.7,3.3,14.1,4.2c-30.4-9-63.7-23-97-41.6c-28.1-15.7-53.8-33.3-75.9-51.6v1.3
	c21.9,18.2,47.5,35.7,75.4,51.2c28,15.7,56.5,28.4,83.7,37.5C324.3,323.7,324.1,323.3,324.1,323.3z"/>
<path class="st8" d="M332.8,95.2l-1.2-0.7c-30.6,10.9-63.1,27-94.8,47c-26.5,16.8-50.7,35.2-71.4,54.3v1.4
	c20.4-18.9,44.7-37.6,72-54.8C269.9,121.8,302.7,105.9,332.8,95.2z"/>
<linearGradient id="SVGID_1_" gradientUnits="userSpaceOnUse" x1="145.822" y1="725.6203" x2="445.3173" y2="725.6203" gradientTransform="matrix(0.8897 -0.4566 -0.4566 -0.8897 228.4219 958.6409)">
	<stop  offset="0" style="stop-color:#00EAF7"/>
	<stop  offset="3.033465e-02" style="stop-color:#04E1F4"/>
	<stop  offset="0.2106" style="stop-color:#1BADE5"/>
	<stop  offset="0.388" style="stop-color:#2D82D8"/>
	<stop  offset="0.5589" style="stop-color:#3C61CF"/>
	<stop  offset="0.7215" style="stop-color:#4749C8"/>
	<stop  offset="0.8723" style="stop-color:#4D3BC3"/>
	<stop  offset="1" style="stop-color:#4F36C2"/>
</linearGradient>
<path class="st9" d="M177.6,260.7l-135.2-0.2c-2.8,0-5,2.2-5,5v0.4c0,2.8,2.2,5,5,5l135.2,0.2c2.8,0,5-2.2,5-5v-0.4
	C182.6,263,180.3,260.7,177.6,260.7z M251.6,271.3l-55.6-0.1c-2.8,0-5-2.2-5-5v-0.4c0-2.8,2.2-5,5-5l55.6,0.1c2.8,0,5,2.2,5,5v0.4
	C256.6,269,254.3,271.3,251.6,271.3z M118.2,245.2l-54.9-0.1c-2.8,0-5,2.2-5,5v0.4c0,2.8,2.2,5,5,5l54.9,0.1c2.8,0,5-2.2,5-5v-0.4
	C123.2,247.5,121,245.3,118.2,245.2z M271.8,255.9l-135.2-0.2c-2.8,0-5-2.2-5-5v-0.4c0-2.8,2.2-5,5-5l135.2,0.2c2.8,0,5,2.2,5,5v0.4
	C276.8,253.6,274.5,255.9,271.8,255.9z M189.1,213.7l-116.8-0.1c-2.8,0-5,2.2-5,5v0.4c0,2.8,2.2,5,5,5l116.8,0.1c2.8,0,5-2.2,5-5
	v-0.4C194.1,216,191.9,213.7,189.1,213.7z M284.7,224.3l-77.2-0.1c-2.8,0-5-2.2-5-5v-0.4c0-2.8,2.2-5,5-5l77.2,0.1c2.8,0,5,2.2,5,5
	v0.4C289.7,222.1,287.5,224.3,284.7,224.3z M168.1,228.7l-116.8-0.1c-2.8,0-5,2.2-5,5v0.4c0,2.8,2.2,5,5,5l116.8,0.1
	c2.8,0,5-2.2,5-5v-0.4C173.1,231,170.9,228.7,168.1,228.7z M263.7,239.3l-77.2-0.1c-2.8,0-5-2.2-5-5v-0.4c0-2.8,2.2-5,5-5l77.2,0.1
	c2.8,0,5,2.2,5,5v0.4C268.7,237.1,266.5,239.3,263.7,239.3z M162.2,180.5l-116.8-0.1c-2.8,0-5,2.2-5,5v0.4c0,2.8,2.2,5,5,5
	l116.8,0.1c2.8,0,5-2.2,5-5v-0.4C167.2,182.7,164.9,180.5,162.2,180.5z M257.7,191l-77.2-0.1c-2.8,0-5-2.2-5-5v-0.4c0-2.8,2.2-5,5-5
	l77.2,0.1c2.8,0,5,2.2,5,5v0.4C262.7,188.8,260.5,191,257.7,191z M141.4,130.4l-116.8-0.1c-2.8,0-5,2.2-5,5v0.4c0,2.8,2.2,5,5,5
	l116.8,0.1c2.8,0,5-2.2,5-5v-0.4C146.4,132.6,144.2,130.4,141.4,130.4z M237,140.9l-77.2-0.1c-2.8,0-5-2.2-5-5v-0.4c0-2.8,2.2-5,5-5
	l77.2,0.1c2.8,0,5,2.2,5,5v0.4C242,138.7,239.8,140.9,237,140.9z M155.2,145.8L20,145.6c-2.8,0-5,2.2-5,5v0.4c0,2.8,2.2,5,5,5
	l135.2,0.2c2.8,0,5-2.2,5-5v-0.4C160.2,148,158,145.8,155.2,145.8z M308.8,156.4l-135.2-0.2c-2.8,0-5-2.2-5-5v-0.4c0-2.8,2.2-5,5-5
	l135.2,0.2c2.8,0,5,2.2,5,5v0.4C313.8,154.2,311.6,156.4,308.8,156.4z M118.3,197.2l-86.6-0.1c-2.8,0-5,2.2-5,5v0.4c0,2.8,2.2,5,5,5
	l86.6,0.1c2.8,0,5-2.2,5-5v-0.4C123.3,199.4,121,197.2,118.3,197.2z M271.8,207.8l-135.2-0.2c-2.8,0-5-2.2-5-5v-0.4c0-2.8,2.2-5,5-5
	l135.2,0.2c2.8,0,5,2.2,5,5v0.4C276.8,205.6,274.6,207.8,271.8,207.8z M80.5,164.5L14,164.4c-2.8,0-5,2.2-5,5v0.4c0,2.8,2.2,5,5,5
	l66.5,0.1c2.8,0,5-2.2,5-5v-0.4C85.5,166.8,83.3,164.5,80.5,164.5z M251.7,175.2L98.9,175c-2.8,0-5-2.2-5-5v-0.4c0-2.8,2.2-5,5-5
	l152.8,0.2c2.8,0,5,2.2,5,5v0.4C256.7,172.9,254.4,175.2,251.7,175.2z M131.7,113.5l-114.2-0.1c-2.8,0-5,2.2-5,5v0.4
	c0,2.8,2.2,5,5,5l114.2,0.1c2.8,0,5-2.2,5-5v-0.4C136.7,115.8,134.4,113.6,131.7,113.5z M263,124.1L148.8,124c-2.8,0-5-2.2-5-5v-0.4
	c0-2.8,2.2-5,5-5l114.2,0.1c2.8,0,5,2.2,5,5v0.4C268,121.9,265.8,124.1,263,124.1z M96.3,94.3l-45.7-0.1c-2.8,0-5,2.2-5,5v0.4
	c0,2.8,2.2,5,5,5l45.7,0.1c2.8,0,5-2.2,5-5v-0.4C101.3,96.5,99,94.3,96.3,94.3z M249.8,104.9l-135.2-0.2c-2.8,0-5-2.2-5-5v-0.4
	c0-2.8,2.2-5,5-5l135.2,0.2c2.8,0,5,2.2,5,5v0.4C254.8,102.7,252.6,104.9,249.8,104.9z"/>
<g class="st10">
	<g>
		<path class="st11" d="M272.2,69h18.4c4.2,0,7.5,3.4,7.5,7.5v2.3l3,2c0.8,0.5,0.8,1.3,0,1.9l-3,2v2.3c0,4.2-3.4,7.5-7.5,7.5h-18.4
			c-4.2,0-7.5-3.4-7.5-7.5V76.5C264.7,72.4,268,69,272.2,69z"/>
		<g class="st12">
			<path class="st13" d="M290.8,81.2c-0.2-0.3-0.3-0.6-0.4-1c-0.1-0.4-0.1-0.9-0.1-1.5c0-0.6,0-1.1-0.1-1.3c0-0.2-0.1-0.4-0.2-0.4
				c-0.1-0.1-0.3-0.1-0.6-0.2c-0.2,0-0.3-0.1-0.5-0.3c-0.1-0.1-0.2-0.4-0.2-0.6c0-0.6,0.4-0.9,1.1-0.9c0.7,0,1.2,0.2,1.6,0.6
				c0.4,0.4,0.6,0.9,0.6,1.6c0,1.1,0,1.7,0,2c0,0.3,0,0.5,0.1,0.8c0.1,0.2,0.2,0.4,0.3,0.6c0.1,0.2,0.4,0.3,0.7,0.5
				c0.3,0.2,0.4,0.4,0.4,0.8c0,0.2,0,0.4-0.1,0.5c-0.1,0.1-0.3,0.2-0.5,0.4c-0.2,0.1-0.4,0.3-0.6,0.5c-0.1,0.2-0.2,0.4-0.3,0.7
				c0,0.1-0.1,0.4-0.1,0.9c0,0.4,0,1,0,1.8c0,0.4-0.1,0.8-0.3,1.1c-0.2,0.3-0.5,0.6-0.8,0.8c-0.3,0.2-0.7,0.3-1.2,0.3
				c-0.7,0-1.1-0.3-1.1-0.9c0-0.2,0.1-0.5,0.2-0.6c0.1-0.2,0.3-0.2,0.5-0.3c0.2,0,0.4-0.1,0.5-0.1c0.1,0,0.2-0.1,0.2-0.2
				c0.1-0.1,0.1-0.3,0.1-0.5c0-0.2,0-0.6,0-1.1c0-0.6,0-1.2,0.1-1.6c0.1-0.4,0.2-0.7,0.4-1c0.2-0.3,0.5-0.5,0.8-0.7
				C291.3,81.7,291,81.5,290.8,81.2z"/>
			<path class="st13" d="M285.4,85.6c-0.2-0.2-0.3-0.5-0.3-0.8c0-0.3,0.1-0.5,0.3-0.8c0.2-0.2,0.5-0.3,0.8-0.3s0.6,0.1,0.8,0.3
				c0.2,0.2,0.3,0.5,0.3,0.8c0,0.3-0.1,0.6-0.3,0.8c-0.2,0.2-0.5,0.3-0.8,0.3C285.9,85.9,285.6,85.8,285.4,85.6z"/>
			<path class="st13" d="M280.8,85.6c-0.2-0.2-0.3-0.5-0.3-0.8c0-0.3,0.1-0.5,0.3-0.8c0.2-0.2,0.5-0.3,0.8-0.3
				c0.3,0,0.6,0.1,0.8,0.3c0.2,0.2,0.3,0.5,0.3,0.8c0,0.3-0.1,0.6-0.3,0.8c-0.2,0.2-0.5,0.3-0.8,0.3C281.3,85.9,281,85.8,280.8,85.6
				z"/>
			<path class="st13" d="M276.2,85.6c-0.2-0.2-0.3-0.5-0.3-0.8c0-0.3,0.1-0.5,0.3-0.8c0.2-0.2,0.5-0.3,0.8-0.3s0.6,0.1,0.8,0.3
				c0.2,0.2,0.3,0.5,0.3,0.8c0,0.3-0.1,0.6-0.3,0.8c-0.2,0.2-0.5,0.3-0.8,0.3C276.7,85.9,276.4,85.8,276.2,85.6z"/>
			<path class="st13" d="M272.4,82.7c0.2,0.3,0.3,0.6,0.4,1c0.1,0.4,0.1,0.9,0.1,1.6c0,0.4,0,0.8,0,1c0,0.2,0.1,0.4,0.1,0.5
				c0.1,0.1,0.1,0.2,0.2,0.2c0.1,0,0.3,0.1,0.5,0.1c0.1,0,0.2,0.1,0.3,0.1c0.1,0.1,0.2,0.2,0.2,0.3c0.1,0.1,0.1,0.3,0.1,0.4
				c0,0.3-0.1,0.5-0.3,0.6c-0.2,0.1-0.4,0.2-0.8,0.2c-0.7,0-1.2-0.2-1.6-0.6c-0.4-0.4-0.6-0.9-0.6-1.6c0-0.7,0-1.3,0-1.7
				c0-0.5,0-0.8-0.1-1c-0.1-0.2-0.2-0.4-0.3-0.6c-0.2-0.2-0.4-0.3-0.7-0.5c-0.3-0.2-0.4-0.4-0.4-0.8c0-0.3,0.1-0.4,0.2-0.6
				c0.1-0.1,0.3-0.3,0.5-0.4c0.2-0.1,0.4-0.3,0.5-0.4c0.1-0.2,0.3-0.4,0.3-0.7c0-0.2,0.1-1,0.1-2.6c0-0.4,0.1-0.8,0.3-1.1
				c0.2-0.3,0.5-0.6,0.8-0.8c0.3-0.2,0.7-0.3,1.2-0.3c0.7,0,1,0.3,1,0.9c0,0.3-0.1,0.5-0.2,0.6c-0.1,0.1-0.3,0.2-0.4,0.3
				c-0.2,0-0.4,0.1-0.5,0.1c-0.1,0-0.2,0.1-0.2,0.2c-0.1,0.1-0.1,0.3-0.1,0.5c0,0.2,0,0.6,0,1c0,0.5,0,0.9-0.1,1.2
				c0,0.3-0.1,0.6-0.2,0.9c-0.1,0.3-0.2,0.5-0.4,0.6c-0.2,0.2-0.4,0.3-0.6,0.5C271.9,82.2,272.2,82.4,272.4,82.7z"/>
		</g>
	</g>
	<g>
		<path class="st11" d="M80,160.6h18.4c4.2,0,7.5,3.4,7.5,7.5v2.3l3,2c0.8,0.5,0.8,1.3,0,1.9l-3,2v2.3c0,4.2-3.4,7.5-7.5,7.5H80
			c-4.2,0-7.5-3.4-7.5-7.5v-10.5C72.5,164,75.9,160.6,80,160.6z"/>
		<g class="st12">
			<path class="st13" d="M89.1,175.3c0,0.3-0.1,0.7-0.2,1.1c-0.2,0.4-0.4,0.8-0.8,1.2c-0.4,0.4-0.8,0.7-1.4,0.9
				c-0.6,0.2-1.2,0.4-1.9,0.4c-0.6,0-1.1-0.1-1.5-0.2c-0.5-0.1-0.9-0.3-1.2-0.5c-0.4-0.2-0.7-0.5-1-0.9c-0.3-0.3-0.5-0.7-0.7-1.1
				c-0.2-0.4-0.3-0.8-0.4-1.3c-0.1-0.5-0.1-1-0.1-1.5c0-0.8,0.1-1.6,0.4-2.3c0.2-0.7,0.6-1.2,1.1-1.7c0.5-0.5,1-0.8,1.6-1.1
				c0.6-0.2,1.3-0.4,2-0.4c0.9,0,1.6,0.2,2.3,0.5c0.7,0.3,1.2,0.8,1.5,1.3c0.4,0.5,0.5,1,0.5,1.4c0,0.2-0.1,0.5-0.3,0.6
				c-0.2,0.2-0.4,0.3-0.6,0.3c-0.3,0-0.5-0.1-0.6-0.2c-0.1-0.1-0.3-0.4-0.5-0.7c-0.3-0.5-0.6-0.9-1-1.2c-0.4-0.3-0.8-0.4-1.4-0.4
				c-0.9,0-1.6,0.3-2.1,1c-0.5,0.7-0.8,1.6-0.8,2.8c0,0.8,0.1,1.5,0.3,2c0.2,0.5,0.6,1,1,1.2c0.4,0.3,0.9,0.4,1.5,0.4
				c0.6,0,1.1-0.2,1.6-0.5c0.4-0.3,0.7-0.8,1-1.3c0.1-0.3,0.2-0.5,0.3-0.7c0.1-0.2,0.4-0.3,0.6-0.3c0.3,0,0.5,0.1,0.7,0.3
				C89,174.9,89.1,175.1,89.1,175.3z"/>
			<path class="st13" d="M91.1,171.9c0-0.3,0.1-0.6,0.3-0.8c0.2-0.2,0.5-0.3,0.8-0.3c0.3,0,0.5,0.1,0.8,0.3c0.2,0.2,0.3,0.5,0.3,0.8
				c0,0.3-0.1,0.5-0.3,0.7c-0.2,0.2-0.5,0.3-0.7,0.3c-0.3,0-0.5-0.1-0.8-0.3C91.2,172.5,91.1,172.2,91.1,171.9z M92.2,178.9
				c-0.3,0-0.6-0.1-0.8-0.3c-0.2-0.2-0.3-0.5-0.3-0.8c0-0.3,0.1-0.5,0.3-0.8c0.2-0.2,0.5-0.3,0.8-0.3c0.3,0,0.6,0.1,0.8,0.3
				c0.2,0.2,0.3,0.5,0.3,0.8c0,0.3-0.1,0.6-0.3,0.8C92.8,178.8,92.5,178.9,92.2,178.9z"/>
			<path class="st13" d="M98.3,169.4l-2,8.3c-0.1,0.3-0.1,0.5-0.2,0.6c-0.1,0.2-0.1,0.3-0.2,0.4c-0.1,0.1-0.3,0.1-0.4,0.1
				c-0.5,0-0.7-0.2-0.7-0.6c0-0.1,0-0.4,0.1-0.8l2-8.3c0.1-0.4,0.2-0.7,0.3-0.9c0.1-0.2,0.3-0.2,0.6-0.2c0.2,0,0.4,0.1,0.6,0.2
				c0.1,0.1,0.2,0.3,0.2,0.5C98.5,168.7,98.4,169,98.3,169.4z"/>
		</g>
	</g>
	<g>
		<path class="st11" d="M463.8,120.3c0,3.9-3.1,7-7,7l-19.1,0c-3.9,0-7-3.1-7-7l0-19.1c0-3.9,3.1-7,7-7l19.1,0c3.9,0,7,3.1,7,7
			L463.8,120.3z"/>
		<g class="st12">
			<polyline class="st14" points="443.7,105.1 442,109.6 436.7,106 440.2,102.8 			"/>
			<polygon class="st14" points="447.2,105.1 450.7,105.1 454.3,102.8 451,101.4 447.2,101.4 443.4,101.4 440.2,102.8 443.7,105.1 
							"/>
			<polyline class="st14" points="450.7,105.1 452.4,109.6 457.7,106 454.3,102.8 			"/>
			<polyline class="st14" points="457.7,106 447.2,120.1 452.4,109.6 447.2,109.6 442,109.6 447.2,120.1 436.7,106 			"/>
		</g>
	</g>
	<g>
		<path class="st11" d="M504.2,209.6h-20.8c-4.7,0-8.5,3.8-8.5,8.5v2.6l-3.4,2.3c-0.9,0.6-0.9,1.5,0,2.1l3.4,2.3v2.6
			c0,4.7,3.8,8.5,8.5,8.5h20.8c4.7,0,8.5-3.8,8.5-8.5v-11.9C512.7,213.4,508.9,209.6,504.2,209.6z"/>
		<g class="st12">
			<path class="st13" d="M506.1,224.6l-5.7-2.2v-2.3l8.2,3.5v2l-8.2,3.5v-2.3L506.1,224.6z"/>
			<path class="st13" d="M491,219.1c0-0.2,0.1-0.4,0.2-0.5c0.1-0.1,0.4-0.2,0.6-0.2c0.3,0,0.5,0.1,0.6,0.3c0.1,0.2,0.2,0.5,0.3,1
				l2.3,9.4c0.1,0.5,0.2,0.8,0.2,0.9c0,0.5-0.3,0.7-0.8,0.7c-0.2,0-0.4-0.1-0.5-0.2c-0.1-0.1-0.2-0.2-0.3-0.4
				c-0.1-0.2-0.1-0.4-0.2-0.7l-2.3-9.4C491,219.6,491,219.3,491,219.1z"/>
			<path class="st13" d="M477.7,223.6l8.2-3.5v2.3l-5.7,2.2l5.7,2.2v2.3l-8.2-3.6V223.6z"/>
		</g>
	</g>
	<g>
		<g>
			
				<ellipse transform="matrix(0.9359 -0.3523 0.3523 0.9359 -71.4891 195.3472)" class="st11" cx="500.9" cy="294.1" rx="2.7" ry="2.7"/>
		</g>
		<g>
			
				<ellipse transform="matrix(0.9359 -0.3523 0.3523 0.9359 -73.9012 189.76)" class="st11" cx="484.4" cy="297.9" rx="2.7" ry="2.7"/>
		</g>
		<g>
			
				<ellipse transform="matrix(0.9359 -0.3523 0.3523 0.9359 -66.569 195.4585)" class="st11" cx="503.7" cy="280.6" rx="1.8" ry="1.8"/>
		</g>
		<g>
			
				<rect x="486.8" y="296" transform="matrix(0.9708 -0.2399 0.2399 0.9708 -56.7278 126.8502)" class="st11" width="11.8" height="0.8"/>
		</g>
		<g>
			
				<rect x="497.5" y="286.1" transform="matrix(0.1968 -0.9804 0.9804 0.1968 122.7645 722.8652)" class="st11" width="10.1" height="0.8"/>
		</g>
	</g>
	<g>
		<g>
			
				<ellipse transform="matrix(0.7861 -0.6181 0.6181 0.7861 -100.9116 228.7801)" class="st11" cx="280.1" cy="260.2" rx="2.5" ry="2.5"/>
		</g>
		<g>
			
				<ellipse transform="matrix(0.7861 -0.6181 0.6181 0.7861 -94.2946 220.9843)" class="st11" cx="272.1" cy="246.7" rx="2.5" ry="2.5"/>
		</g>
		<g>
			
				<ellipse transform="matrix(0.7861 -0.6181 0.6181 0.7861 -97.4257 236.2753)" class="st11" cx="292.7" cy="258.9" rx="1.7" ry="1.7"/>
		</g>
		<g>
			
				<rect x="275.2" y="248.2" transform="matrix(0.8533 -0.5214 0.5214 0.8533 -91.7917 180.9885)" class="st11" width="1" height="10.8"/>
		</g>
		<g>
			
				<rect x="282.6" y="259" transform="matrix(0.9942 -0.1075 0.1075 0.9942 -26.2234 32.3628)" class="st11" width="9.3" height="1"/>
		</g>
	</g>
</g>
<g>
	<g>
		<defs>
			<path id="SVGID_2_" d="M215.6,161.6c0,0-37.6,43.5-119.7,56.7c-125.2,20-122.6,175.3,13,206.9c135.6,31.6,99.5-19.8,291.4-6.6
				c191.9,13.2,145.3-130,75.5-174.2c-72.2-45.7-4.4-127.2-111.6-144.7C280,86,215.6,161.6,215.6,161.6z"/>
		</defs>
		<clipPath id="SVGID_3_">
			<use xlink:href="#SVGID_2_"  style="overflow:visible;"/>
		</clipPath>
		<path class="st15" d="M17.3,376.2h198.4c-108.2-74.9-70.1-226.4-70.1-226.4L4.4,180l-25.3,51.1l17,172.9l21.2,0.7V376.2z"/>
	</g>
	<linearGradient id="SVGID_4_" gradientUnits="userSpaceOnUse" x1="270.4163" y1="81" x2="270.4163" y2="427.3698">
		<stop  offset="0" style="stop-color:#E6F0FF"/>
		<stop  offset="0.3214" style="stop-color:#E0ECFF"/>
		<stop  offset="0.7488" style="stop-color:#CFE1FF"/>
		<stop  offset="1" style="stop-color:#C2D9FF"/>
	</linearGradient>
	<path class="st16" d="M529.5,376.2c21.8-42.7-11.8-105.2-53.8-131.8c-72.2-45.7-4.4-127.2-111.6-144.7
		C280,86,215.6,161.6,215.6,161.6S178,205.2,95.8,218.3c-90.6,14.5-114.3,99.8-69,157.8H529.5z"/>
	<g>
		<path class="st17" d="M39.1,347.9c-0.8,0.1-21-1.7-22.5-20.3c-1.5-18.7,11.1-23.7,7.1-44.4c-4.1-20.7-13.1-26.4,6.2-42.2
			c0,0,8.6-6.4,8.8-15c0.2-10.3,17.5-22.8,29.6-16.3c12.1,6.5,9.7,17.1,0.1,34.6c-9.6,17.5,0.3,20.1,2.4,25.6
			c2.1,5.5,6.9,11.1-3.1,24.7c-9.9,13.6,3,29.3-5.5,42.3C62.2,336.8,54.7,346.4,39.1,347.9z"/>
		<g>
			<path class="st18" d="M43.2,376.4c0.4-0.1,0.7-0.6,0.6-1c-12.7-56.7,6.7-135.2,6.9-136c0.1-0.5-0.2-0.9-0.6-1
				c-0.5-0.1-0.9,0.2-1,0.6c-0.2,0.8-19.7,79.7-6.9,136.8C42.2,376.2,42.7,376.5,43.2,376.4C43.1,376.4,43.2,376.4,43.2,376.4z"/>
			<path class="st18" d="M43.3,274.3c0,0,0.1,0,0.1-0.1c0.4-0.2,0.6-0.7,0.4-1.1c0-0.1-4.9-10-7-18.6c-0.1-0.5-0.6-0.7-1-0.6
				c-0.5,0.1-0.7,0.6-0.6,1c2.2,8.7,7.1,18.8,7.1,18.9C42.4,274.3,42.9,274.4,43.3,274.3z"/>
			<path class="st18" d="M40.6,297.6c0.1,0,0.2-0.1,0.3-0.2c4.1-3.7,14.7-10.7,14.8-10.7c0.4-0.3,0.5-0.8,0.2-1.2
				c-0.3-0.4-0.8-0.5-1.2-0.2c-0.4,0.3-10.7,7.1-14.9,10.9c-0.4,0.3-0.4,0.8-0.1,1.2C39.9,297.6,40.3,297.7,40.6,297.6z"/>
		</g>
	</g>
	<path class="st19" d="M73.4,84.9c0,0,5.7-6.6,9.2-9.6c6.3-5.4,13.6-15,36.8-8c1.8,0.6,3.5,1.3,5.3,2c2,0.9,8.4,0.9,14.9-4.3
		c10.3-8.2,14.3-14.4,28.5-14.5c16.4-0.2,19,20.3,31.8,25.5c8.1,3.3,29.6,6.7,34,8.1L73.4,84.9z"/>
	<path class="st20" d="M332.8,68.1c0,0,2.9-3.4,4.7-4.9c3.2-2.8,6.9-7.7,18.8-4.1c0.9,0.3,1.8,0.7,2.7,1c1,0.4,4.3,0.5,7.6-2.2
		c5.3-4.2,7.3-7.3,14.5-7.4c8.4-0.1,9.7,10.4,16.2,13c4.2,1.7,15.1,3.4,17.4,4.2L332.8,68.1z"/>
	<path class="st21" d="M562.5,176.2c0,0-2.9-3.4-4.7-4.9c-3.2-2.8-6.9-7.7-18.8-4.1c-0.9,0.3-1.8,0.7-2.7,1c-1,0.4-4.3,0.5-7.6-2.2
		c-5.3-4.2-7.3-7.3-14.5-7.4c-8.4-0.1-9.7,10.4-16.2,13c-4.2,1.7-15.1,3.4-17.4,4.2L562.5,176.2z"/>
	<g>
		<path class="st13" d="M494.5,300.5l-0.8-2.4l-0.8,2.4c-0.7,2-2.4,3.7-4.7,4.7l0,0l0,0c2.3,1,3.9,2.7,4.7,4.7l0.8,2.4l0.8-2.4
			c0.7-2,2.4-3.7,4.7-4.7l0,0l0,0C496.8,304.2,495.2,302.5,494.5,300.5z"/>
		<path class="st13" d="M92.2,246.9l-0.8-2.4l-0.8,2.4c-0.7,2-2.4,3.7-4.7,4.7l0,0l0,0c2.3,1,3.9,2.7,4.7,4.7l0.8,2.4l0.8-2.4
			c0.7-2,2.4-3.7,4.7-4.7l0,0l0,0C94.6,250.6,92.9,248.9,92.2,246.9z"/>
		<path class="st13" d="M370.5,124.5l-1.4-4l-1.4,4c-1.2,3.4-4,6.3-7.8,7.9l0,0l0,0c3.8,1.7,6.6,4.6,7.8,7.9l1.4,4l1.4-4
			c1.2-3.4,4-6.3,7.8-7.9l0,0l0,0C374.5,130.7,371.7,127.9,370.5,124.5z"/>
	</g>
	<g>
		<path class="st11" d="M319.7,375.7H126.7c-2.7,0-5-2.2-5-5V125.9c0-2.7,2.2-5,5-5h193.1c2.7,0,5,2.2,5,5v244.8
			C324.7,373.5,322.5,375.7,319.7,375.7z"/>
		<path class="st13" d="M313.7,347.4H133.1c-2.3,0-4.2-1.9-4.2-4.2V136.6c0-2.3,1.9-4.2,4.2-4.2h180.6c2.3,0,4.2,1.9,4.2,4.2v206.6
			C317.9,345.5,316,347.4,313.7,347.4z"/>
		<circle class="st22" cx="223.2" cy="362.1" r="8.2"/>
	</g>
	<g>
		<g>
			
				<ellipse transform="matrix(0.761 -0.6487 0.6487 0.761 -68.4926 306.4936)" class="st23" cx="381.8" cy="246.2" rx="5.9" ry="5.9"/>
		</g>
		<polyline class="st24" points="329.3,250.2 353.4,264.3 379.9,248.6 		"/>
		<linearGradient id="SVGID_5_" gradientUnits="userSpaceOnUse" x1="324.8382" y1="254.1915" x2="345.4845" y2="254.1915">
			<stop  offset="0" style="stop-color:#3580C9"/>
			<stop  offset="1" style="stop-color:#3E81C2"/>
		</linearGradient>
		<path class="st25" d="M345.5,251.3l-7.7,12.2l-10.5-7.5c-2.8-2-3.4-6-1.3-8.7l0,0c1.8-2.3,4.9-3,7.6-1.7L345.5,251.3z"/>
	</g>
	<g>
		<path class="st11" d="M460,376.2h-93.5c-2.7,0-4.9-2.2-4.9-4.9V176.6c0-2.7,2.2-4.9,4.9-4.9H460c2.7,0,4.9,2.2,4.9,4.9v194.6
			C464.9,374,462.7,376.2,460,376.2z"/>
		<path class="st13" d="M455.6,348.2h-84.9c-2.4,0-4.3-1.9-4.3-4.3V182.1c0-2.4,1.9-4.3,4.3-4.3h84.9c2.4,0,4.3,1.9,4.3,4.3v161.8
			C459.9,346.2,458,348.2,455.6,348.2z"/>
		<path class="st11" d="M434.1,184.8h-42.4c-1.9,0-3.5-1.6-3.5-3.5v-6.4h49.4v6.4C437.6,183.2,436.1,184.8,434.1,184.8z"/>
		<circle class="st22" cx="413.2" cy="362.7" r="8.1"/>
	</g>
	<g>
		<path class="st26" d="M91.6,351.9c-0.8,0.6-7.9-12.2-9.5-28.5c0,0-0.8-8,6.8-3.9c0,0-7.9-35.1,13.1-32.5c3.6,0.5,5.7,1.3,7.8,3.5
			c2.8,3.1,4.4,8.1,1,15.3c-6.7,14.3-12.5,19.9-9.6,27.5C104,340.9,103,343.1,91.6,351.9z"/>
		<path class="st17" d="M93.6,374.7c0.4-0.1,0.7-0.5,0.6-0.9c-4.8-23.6,2.1-63.3,3-65c0.2-0.3,0.2-0.8-0.2-1.1
			c-0.3-0.2-0.8-0.1-1.1,0.2c-1.4,2-7.9,43.3-3.2,66.2C92.8,374.5,93.2,374.8,93.6,374.7z"/>
	</g>
	<line class="st27" x1="0" y1="376.2" x2="562.4" y2="376.2"/>
	<g>
		<path class="st19" d="M298.6,258.3H147.7c-1.2,0-2.1-1-2.1-2.1v-91.7c0-1.2,1-2.1,2.1-2.1h150.9c1.2,0,2.1,1,2.1,2.1v91.7
			C300.7,257.3,299.7,258.3,298.6,258.3z"/>
		<path class="st11" d="M188.4,320.6h-40.7c-1.2,0-2.1-1-2.1-2.1v-40.7c0-1.2,1-2.1,2.1-2.1h40.7c1.2,0,2.1,1,2.1,2.1v40.7
			C190.5,319.7,189.5,320.6,188.4,320.6z"/>
		<path class="st11" d="M243.5,320.6h-40.7c-1.2,0-2.1-1-2.1-2.1v-40.7c0-1.2,1-2.1,2.1-2.1h40.7c1.2,0,2.1,1,2.1,2.1v40.7
			C245.6,319.7,244.6,320.6,243.5,320.6z"/>
		<path class="st28" d="M298.6,320.6h-40.7c-1.2,0-2.1-1-2.1-2.1v-40.7c0-1.2,1-2.1,2.1-2.1h40.7c1.2,0,2.1,1,2.1,2.1v40.7
			C300.7,319.7,299.7,320.6,298.6,320.6z"/>
		<g>
			<line class="st29" x1="154.8" y1="293.8" x2="181.2" y2="293.8"/>
			<line class="st29" x1="154.8" y1="303.8" x2="168" y2="303.8"/>
		</g>
		<g>
			<line class="st29" x1="209.9" y1="293.8" x2="237.3" y2="293.8"/>
			<line class="st29" x1="209.9" y1="303.8" x2="223.1" y2="303.8"/>
		</g>
		<g>
			<line class="st29" x1="265" y1="293.8" x2="291.4" y2="293.8"/>
			<line class="st29" x1="265" y1="303.8" x2="278.2" y2="303.8"/>
		</g>
	</g>
	<g>
		<path class="st19" d="M448.8,321.6h-71.1c-1.1,0-1.9-0.9-1.9-1.9v-57.1c0-1.1,0.9-1.9,1.9-1.9h71.1c1.1,0,1.9,0.9,1.9,1.9v57.1
			C450.7,320.8,449.9,321.6,448.8,321.6z"/>
		<path class="st28" d="M448.8,250.7h-71.1c-1.1,0-1.9-0.9-1.9-1.9v-12.4c0-1.1,0.9-1.9,1.9-1.9h71.1c1.1,0,1.9,0.9,1.9,1.9v12.4
			C450.7,249.9,449.9,250.7,448.8,250.7z"/>
		<path class="st11" d="M448.8,224.5h-71.1c-1.1,0-1.9-0.9-1.9-1.9v-12.4c0-1.1,0.9-1.9,1.9-1.9h71.1c1.1,0,1.9,0.9,1.9,1.9v12.4
			C450.7,223.6,449.9,224.5,448.8,224.5z"/>
	</g>
	<g>
		<g>
			<g>
				<polygon class="st30" points="336.6,303.7 339.2,314.2 307.2,315.6 308.1,302.5 				"/>
				<polygon class="st30" points="322.1,310.6 342.9,340.1 340.7,387.6 351.1,384.2 356.3,339.4 337.3,306.4 				"/>
				<polygon class="st31" points="325.1,315 332.1,314.3 329,320.5 				"/>
				<polygon class="st30" points="307.4,313.8 306.1,342.7 296.2,391.9 307.5,394.2 319.2,344.1 322.1,310.6 				"/>
				<g>
					<path class="st32" d="M349.7,386.1l-6.9-0.5l-0.8,9.9l19.6,1.3l0,0c0-1.6-1-2.9-2.5-3.3l-9.6-3L349.7,386.1z"/>
					
						<rect x="341.9" y="396.2" transform="matrix(-0.9977 -6.806958e-02 6.806958e-02 -0.9977 675.6818 816.9243)" class="st11" width="19.7" height="1.5"/>
				</g>
				<g>
					<path class="st32" d="M305.3,391.7l-6.8-1.4l-2.1,9.7l19.3,4l0,0c0.2-1.6-0.6-3-2-3.6l-9.1-4.3L305.3,391.7z"/>
					
						<rect x="296.1" y="402" transform="matrix(-0.9792 -0.203 0.203 -0.9792 523.6873 859.2583)" class="st11" width="19.7" height="1.5"/>
				</g>
				
					<rect x="343.6" y="378.2" transform="matrix(5.558982e-02 -0.9985 0.9985 5.558982e-02 -57.9439 709.4539)" class="st33" width="5" height="14.2"/>
				
					<rect x="299.7" y="383.8" transform="matrix(0.1924 -0.9813 0.9813 0.1924 -139.6049 612.2173)" class="st33" width="5" height="14.2"/>
			</g>
			<linearGradient id="SVGID_6_" gradientUnits="userSpaceOnUse" x1="304.565" y1="274.6962" x2="338.1017" y2="274.6962">
				<stop  offset="0" style="stop-color:#3580C9"/>
				<stop  offset="1" style="stop-color:#3E81C2"/>
			</linearGradient>
			<path class="st34" d="M315.3,245.7c-4.8,3.5-7.2,12.6-8,21.9l-2.7,36.3c17.3,6.2,33.5-1.2,33.5-1.2l0-45.1
				c0.1-4.3-3-13.7-9.1-13.5l0,0C329,244.1,322.1,240.7,315.3,245.7z"/>
			<g>
				<g>
					<polygon class="st35" points="319,247.4 328,247.4 328.2,227.9 319.2,228 					"/>
					<path class="st23" d="M330.1,241.8L330.1,241.8c6.1,0.1,11.1-4.8,11.1-10.9l0.1-13.7l-22-0.2l-0.1,13.7
						C319.2,236.8,324.1,241.7,330.1,241.8z"/>
					<path class="st36" d="M319.4,227l3.1,0.1c0.9,0,1.5-0.7,1.4-1.6c-0.4-2.3-0.8-6.2,0.7-6.6c2.1-0.6,13.3,2.5,17.2-0.3
						c5.5-4,1.7-10.6-3.1-11c-4.9-0.4-4.2,5.3-9.9,5.1c-5.7-0.2-14.2-2.6-10.8,12.5L319.4,227z"/>
				</g>
				<path class="st36" d="M341.7,231.1c0,0-1,0-2.9-1.8c-1.9-1.8-6.7-1.9-9.8,0.8c-3.1,2.7-5.2-5.9-5.2-5.9l-1.6,2.7
					c0,0,0.7,4.2-3.2,4.2c0,0,0.8,12.5,13.2,11.1C332.1,242.2,341,240.7,341.7,231.1z"/>
				
					<ellipse transform="matrix(9.258276e-03 -1 1 9.258276e-03 88.3874 544.4319)" class="st23" cx="318.9" cy="227.6" rx="3.5" ry="3.5"/>
			</g>
			<polygon class="st35" points="319,243.6 326.4,249 328,243.6 			"/>
			<linearGradient id="SVGID_7_" gradientUnits="userSpaceOnUse" x1="319.0434" y1="247.6226" x2="326.4207" y2="247.6226">
				<stop  offset="0" style="stop-color:#73ACE5"/>
				<stop  offset="1" style="stop-color:#3C91E5"/>
			</linearGradient>
			<polygon class="st37" points="326.4,249 319,251.6 319,243.6 			"/>
			<linearGradient id="SVGID_8_" gradientUnits="userSpaceOnUse" x1="326.4207" y1="247.2391" x2="330.0917" y2="247.2391">
				<stop  offset="0" style="stop-color:#73ACE5"/>
				<stop  offset="1" style="stop-color:#3C91E5"/>
			</linearGradient>
			<polygon class="st38" points="326.4,249 330.1,250.9 328,243.6 			"/>
		</g>
		<g>
			<g>
				
					<ellipse transform="matrix(0.761 -0.6487 0.6487 0.761 -75.409 303.1874)" class="st23" cx="373.8" cy="253.9" rx="6.3" ry="6.3"/>
			</g>
			<polyline class="st39" points="317.6,258.2 343.4,273.3 371.8,256.5 			"/>
			<linearGradient id="SVGID_9_" gradientUnits="userSpaceOnUse" x1="312.9077" y1="262.4863" x2="335.001" y2="262.4863">
				<stop  offset="0" style="stop-color:#73ACE5"/>
				<stop  offset="1" style="stop-color:#3C91E5"/>
			</linearGradient>
			<path class="st40" d="M335,259.4l-8.2,13.1l-11.2-8.1c-3-2.2-3.6-6.4-1.3-9.3l0,0c1.9-2.5,5.3-3.2,8.1-1.9L335,259.4z"/>
		</g>
	</g>
	<g>
		<path class="st28" d="M159.6,189.1v46.1c0,3.5,2.9,6.4,6.4,6.4h64.5c3.5,0,6.4-2.8,6.4-6.4v-46.1c0-3.5-2.9-6.4-6.4-6.4h-64.5
			C162.4,182.7,159.6,185.6,159.6,189.1z"/>
		<circle class="st26" cx="182.7" cy="205.5" r="14.6"/>
		<path class="st13" d="M159.6,230.5v4.6c0,3.5,2.9,6.4,6.4,6.4h64.5c3.5,0,6.4-2.8,6.4-6.4v-4.6l-23-23l-15.6,15.6l-15.6-15.6
			L159.6,230.5z"/>
	</g>
	<g>
		<path class="st28" d="M387.5,276v30.3c0,2.3,1.9,4.2,4.2,4.2h42.4c2.3,0,4.2-1.9,4.2-4.2V276c0-2.3-1.9-4.2-4.2-4.2h-42.4
			C389.4,271.8,387.5,273.7,387.5,276z"/>
		<circle class="st26" cx="402.7" cy="286.8" r="9.6"/>
		<path class="st13" d="M387.5,303.3v3c0,2.3,1.9,4.2,4.2,4.2h42.4c2.3,0,4.2-1.9,4.2-4.2v-3l-15.1-15.1l-10.3,10.3l-10.3-10.3
			L387.5,303.3z"/>
	</g>
	<g>
		<line class="st41" x1="248.2" y1="196.4" x2="272.3" y2="196.4"/>
		<line class="st41" x1="248.2" y1="213.2" x2="288.3" y2="213.2"/>
		<line class="st41" x1="248.2" y1="229.5" x2="288.3" y2="229.5"/>
	</g>
</g>
</svg>
