<?xml version="1.0" encoding="utf-8"?>
<!-- Generator: Adobe Illustrator 21.0.0, SVG Export Plug-In . SVG Version: 6.00 Build 0)  -->
<svg version="1.1" id="Layer_1" xmlns="http://www.w3.org/2000/svg" xmlns:xlink="http://www.w3.org/1999/xlink" x="0px" y="0px"
	 viewBox="0 0 767 667.9" style="enable-background:new 0 0 767 667.9;" xml:space="preserve">
<style type="text/css">
	.st0{opacity:0.5;fill:url(#SVGID_1_);enable-background:new    ;}
	.st1{opacity:0.2;fill:#757575;enable-background:new    ;}
	.st2{fill:url(#SVGID_2_);}
	.st3{fill:#FFFFFF;}
	.st4{fill:url(#SVGID_3_);}
	.st5{fill:#656668;}
	.st6{fill:url(#SVGID_4_);}
	.st7{opacity:0.5;fill:#160A5B;enable-background:new    ;}
	.st8{fill:url(#SVGID_5_);}
	.st9{fill:url(#SVGID_6_);}
	.st10{fill:url(#SVGID_7_);}
	.st11{fill:#91AFFF;}
	.st12{fill:url(#SVGID_8_);}
	.st13{fill:url(#SVGID_9_);}
	.st14{fill:url(#SVGID_10_);}
	.st15{fill:url(#SVGID_11_);}
	.st16{fill:#5EB8F6;}
	.st17{opacity:0.1;fill:url(#SVGID_12_);enable-background:new    ;}
	.st18{opacity:0.2;}
	.st19{fill:#757575;}
	.st20{fill:#160A5B;}
	.st21{fill:#24126A;}
	.st22{opacity:0.7;fill:url(#SVGID_13_);enable-background:new    ;}
	.st23{fill:#453C9E;}
	.st24{opacity:0.7;fill:url(#SVGID_14_);enable-background:new    ;}
	.st25{fill:#F0F6FF;}
	.st26{fill:#FCD1C5;}
	.st27{fill:#4846A5;}
	.st28{opacity:0.7;fill:url(#SVGID_15_);enable-background:new    ;}
	.st29{opacity:0.7;fill:url(#SVGID_16_);enable-background:new    ;}
	.st30{fill:#AA8383;}
	.st31{fill:#C4CCD6;}
	.st32{fill:#E2B1A6;}
	.st33{fill:#936D6D;}
	.st34{opacity:0.9;}
	.st35{fill:#42E8E0;}
	.st36{opacity:0.9;fill:#42E8E0;enable-background:new    ;}
	.st37{opacity:0.6;fill:#42E8E0;enable-background:new    ;}
	.st38{opacity:0.3;fill:#42E8E0;enable-background:new    ;}
	.st39{opacity:0.2;fill:#42E8E0;enable-background:new    ;}
</style>
<radialGradient id="SVGID_1_" cx="-173.7912" cy="-287.1671" r="185.7474" gradientTransform="matrix(-0.866 -0.5 0.866 -0.5 491.0085 184.3353)" gradientUnits="userSpaceOnUse">
	<stop  offset="3.337000e-04" style="stop-color:#FFFFFF"/>
	<stop  offset="1" style="stop-color:#FFFFFF;stop-opacity:0"/>
</radialGradient>
<path class="st0" d="M742.7,414.9L392.9,616.8L43,414.7l349.7-201.9L742.7,414.9z M367.3,600.6l25.6,14.8l25.6-14.8l-25.6-14.8
	L367.3,600.6z M394.1,585.1l25.6,14.8l25.6-14.8l-25.6-14.8L394.1,585.1z M421,569.6l25.6,14.8l25.6-14.8l-25.6-14.8L421,569.6z
	 M447.8,554.2l25.6,14.8l25.6-14.8l-25.6-14.8L447.8,554.2z M474.6,538.7l25.6,14.8l25.6-14.8l-25.6-14.8L474.6,538.7z M501.4,523.2
	L527,538l25.6-14.8L527,508.4L501.4,523.2z M528.2,507.7l25.6,14.8l25.6-14.8L553.8,493L528.2,507.7z M555,492.2l25.6,14.8
	l25.6-14.8l-25.6-14.8L555,492.2z M581.8,476.8l25.6,14.8l25.6-14.8L607.4,462L581.8,476.8z M608.6,461.3l25.6,14.8l25.6-14.8
	l-25.6-14.8L608.6,461.3z M635.4,445.8l25.6,14.8l25.6-14.8L661,431L635.4,445.8z M662.2,430.3l25.6,14.8l25.6-14.8l-25.6-14.8
	L662.2,430.3z M689,414.9l25.6,14.8l25.6-14.8l-25.6-14.8L689,414.9z M340.5,585.1l25.6,14.8l25.6-14.8l-25.6-14.8L340.5,585.1z
	 M367.3,569.6l25.6,14.8l25.6-14.8l-25.6-14.8L367.3,569.6z M394.1,554.1l25.6,14.8l25.6-14.8l-25.6-14.8L394.1,554.1z M420.9,538.7
	l25.6,14.8l25.6-14.8l-25.6-14.8L420.9,538.7z M447.7,523.2l25.6,14.8l25.6-14.8l-25.6-14.8L447.7,523.2z M474.6,507.7l25.6,14.8
	l25.6-14.8l-25.6-14.8L474.6,507.7z M501.4,492.2L527,507l25.6-14.8L527,477.4L501.4,492.2z M528.2,476.8l25.6,14.8l25.6-14.8
	L553.8,462L528.2,476.8z M555,461.3l25.6,14.8l25.6-14.8l-25.6-14.8L555,461.3z M581.8,445.8l25.6,14.8l25.6-14.8L607.4,431
	L581.8,445.8z M608.6,430.3l25.6,14.8l25.6-14.8l-25.6-14.8L608.6,430.3z M635.4,414.9l25.6,14.8l25.6-14.8L661,400.1L635.4,414.9z
	 M662.2,399.4l25.6,14.8l25.6-14.8l-25.6-14.8L662.2,399.4z M313.7,569.6l25.6,14.8l25.6-14.8l-25.6-14.8L313.7,569.6z M340.5,554.1
	l25.6,14.8l25.6-14.8l-25.6-14.8L340.5,554.1z M367.3,538.7l25.6,14.8l25.6-14.8l-25.6-14.8L367.3,538.7z M394.1,523.2l25.6,14.8
	l25.6-14.8l-25.6-14.8L394.1,523.2z M420.9,507.7l25.6,14.8l25.6-14.8l-25.6-14.8L420.9,507.7z M447.7,492.2l25.6,14.8l25.6-14.8
	l-25.6-14.8L447.7,492.2z M474.5,476.8l25.6,14.8l25.6-14.8L500.1,462L474.5,476.8z M501.3,461.3l25.6,14.8l25.6-14.8l-25.6-14.8
	L501.3,461.3z M528.1,445.8l25.6,14.8l25.6-14.8L553.7,431L528.1,445.8z M555,430.3l25.6,14.8l25.6-14.8l-25.6-14.8L555,430.3z
	 M581.8,414.8l25.6,14.8l25.6-14.8L607.4,400L581.8,414.8z M608.6,399.4l25.6,14.8l25.6-14.8l-25.6-14.8L608.6,399.4z M635.4,383.9
	l25.6,14.8l25.6-14.8L661,369.1L635.4,383.9z M286.9,554.1l25.6,14.8l25.6-14.8l-25.6-14.8L286.9,554.1z M313.7,538.7l25.6,14.8
	l25.6-14.8l-25.6-14.8L313.7,538.7z M340.5,523.2l25.6,14.8l25.6-14.8l-25.6-14.8L340.5,523.2z M367.3,507.7l25.6,14.8l25.6-14.8
	l-25.6-14.8L367.3,507.7z M394.1,492.2l25.6,14.8l25.6-14.8l-25.6-14.8L394.1,492.2z M420.9,476.7l25.6,14.8l25.6-14.8L446.5,462
	L420.9,476.7z M447.7,461.3l25.6,14.8l25.6-14.8l-25.6-14.8L447.7,461.3z M474.5,445.8l25.6,14.8l25.6-14.8L500.1,431L474.5,445.8z
	 M501.3,430.3l25.6,14.8l25.6-14.8l-25.6-14.8L501.3,430.3z M528.1,414.8l25.6,14.8l25.6-14.8L553.7,400L528.1,414.8z M554.9,399.4
	l25.6,14.8l25.6-14.8l-25.6-14.8L554.9,399.4z M581.7,383.9l25.6,14.8l25.6-14.8l-25.6-14.8L581.7,383.9z M608.6,368.4l25.6,14.8
	l25.6-14.8l-25.6-14.8L608.6,368.4z M260,538.6l25.6,14.8l25.6-14.8l-25.6-14.8L260,538.6z M286.8,523.2l25.6,14.8l25.6-14.8
	l-25.6-14.8L286.8,523.2z M313.7,507.7l25.6,14.8l25.6-14.8l-25.6-14.8L313.7,507.7z M340.5,492.2l25.6,14.8l25.6-14.8L366,477.4
	L340.5,492.2z M367.3,476.7l25.6,14.8l25.6-14.8L392.9,462L367.3,476.7z M394.1,461.3l25.6,14.8l25.6-14.8l-25.6-14.8L394.1,461.3z
	 M420.9,445.8l25.6,14.8l25.6-14.8L446.5,431L420.9,445.8z M447.7,430.3l25.6,14.8l25.6-14.8l-25.6-14.8L447.7,430.3z M474.5,414.8
	l25.6,14.8l25.6-14.8L500.1,400L474.5,414.8z M501.3,399.3l25.6,14.8l25.6-14.8l-25.6-14.8L501.3,399.3z M528.1,383.9l25.6,14.8
	l25.6-14.8l-25.6-14.8L528.1,383.9z M554.9,368.4l25.6,14.8l25.6-14.8l-25.6-14.8L554.9,368.4z M581.7,352.9l25.6,14.8l25.6-14.8
	l-25.6-14.8L581.7,352.9z M233.2,523.2l25.6,14.8l25.6-14.8l-25.6-14.8L233.2,523.2z M260,507.7l25.6,14.8l25.6-14.8l-25.6-14.8
	L260,507.7z M286.8,492.2l25.6,14.8l25.6-14.8l-25.6-14.8L286.8,492.2z M313.6,476.7l25.6,14.8l25.6-14.8l-25.6-14.8L313.6,476.7z
	 M340.4,461.2L366,476l25.6-14.8L366,446.5L340.4,461.2z M367.3,445.8l25.6,14.8l25.6-14.8L392.8,431L367.3,445.8z M394.1,430.3
	l25.6,14.8l25.6-14.8l-25.6-14.8L394.1,430.3z M420.9,414.8l25.6,14.8l25.6-14.8L446.5,400L420.9,414.8z M447.7,399.3l25.6,14.8
	l25.6-14.8l-25.6-14.8L447.7,399.3z M474.5,383.9l25.6,14.8l25.6-14.8l-25.6-14.8L474.5,383.9z M501.3,368.4l25.6,14.8l25.6-14.8
	l-25.6-14.8L501.3,368.4z M528.1,352.9l25.6,14.8l25.6-14.8l-25.6-14.8L528.1,352.9z M554.9,337.4l25.6,14.8l25.6-14.8l-25.6-14.8
	L554.9,337.4z M206.4,507.7l25.6,14.8l25.6-14.8L232,492.9L206.4,507.7z M233.2,492.2l25.6,14.8l25.6-14.8l-25.6-14.8L233.2,492.2z
	 M260,476.7l25.6,14.8l25.6-14.8l-25.6-14.8L260,476.7z M286.8,461.2l25.6,14.8l25.6-14.8l-25.6-14.8L286.8,461.2z M313.6,445.8
	l25.6,14.8l25.6-14.8L339.2,431L313.6,445.8z M340.4,430.3l25.6,14.8l25.6-14.8L366,415.5L340.4,430.3z M367.2,414.8l25.6,14.8
	l25.6-14.8L392.8,400L367.2,414.8z M394,399.3l25.6,14.8l25.6-14.8l-25.6-14.8L394,399.3z M420.9,383.8l25.6,14.8l25.6-14.8
	L446.5,369L420.9,383.8z M447.7,368.4l25.6,14.8l25.6-14.8l-25.6-14.8L447.7,368.4z M474.5,352.9l25.6,14.8l25.6-14.8l-25.6-14.8
	L474.5,352.9z M501.3,337.4l25.6,14.8l25.6-14.8l-25.6-14.8L501.3,337.4z M528.1,321.9l25.6,14.8l25.6-14.8l-25.6-14.8L528.1,321.9z
	 M179.6,492.2l25.6,14.8l25.6-14.8l-25.6-14.8L179.6,492.2z M206.4,476.7l25.6,14.8l25.6-14.8L232,461.9L206.4,476.7z M233.2,461.2
	l25.6,14.8l25.6-14.8l-25.6-14.8L233.2,461.2z M260,445.7l25.6,14.8l25.6-14.8L285.6,431L260,445.7z M286.8,430.3l25.6,14.8
	l25.6-14.8l-25.6-14.8L286.8,430.3z M313.6,414.8l25.6,14.8l25.6-14.8L339.2,400L313.6,414.8z M340.4,399.3l25.6,14.8l25.6-14.8
	L366,384.5L340.4,399.3z M367.2,383.8l25.6,14.8l25.6-14.8L392.8,369L367.2,383.8z M394,368.4l25.6,14.8l25.6-14.8l-25.6-14.8
	L394,368.4z M420.8,352.9l25.6,14.8l25.6-14.8l-25.6-14.8L420.8,352.9z M447.6,337.4l25.6,14.8l25.6-14.8l-25.6-14.8L447.6,337.4z
	 M474.4,321.9l25.6,14.8l25.6-14.8L500,307.2L474.4,321.9z M501.3,306.4l25.6,14.8l25.6-14.8l-25.6-14.8L501.3,306.4z M152.7,476.7
	l25.6,14.8l25.6-14.8l-25.6-14.8L152.7,476.7z M179.5,461.2l25.6,14.8l25.6-14.8l-25.6-14.8L179.5,461.2z M206.4,445.7l25.6,14.8
	l25.6-14.8L231.9,431L206.4,445.7z M233.2,430.3l25.6,14.8l25.6-14.8l-25.6-14.8L233.2,430.3z M260,414.8l25.6,14.8l25.6-14.8
	L285.6,400L260,414.8z M286.8,399.3l25.6,14.8l25.6-14.8l-25.6-14.8L286.8,399.3z M313.6,383.8l25.6,14.8l25.6-14.8L339.2,369
	L313.6,383.8z M340.4,368.3l25.6,14.8l25.6-14.8L366,353.6L340.4,368.3z M367.2,352.9l25.6,14.8l25.6-14.8l-25.6-14.8L367.2,352.9z
	 M394,337.4l25.6,14.8l25.6-14.8l-25.6-14.8L394,337.4z M420.8,321.9l25.6,14.8l25.6-14.8l-25.6-14.8L420.8,321.9z M447.6,306.4
	l25.6,14.8l25.6-14.8l-25.6-14.8L447.6,306.4z M474.4,291l25.6,14.8l25.6-14.8L500,276.2L474.4,291z M125.9,461.2l25.6,14.8
	l25.6-14.8l-25.6-14.8L125.9,461.2z M152.7,445.7l25.6,14.8l25.6-14.8L178.3,431L152.7,445.7z M179.5,430.2l25.6,14.8l25.6-14.8
	l-25.6-14.8L179.5,430.2z M206.3,414.8l25.6,14.8l25.6-14.8L231.9,400L206.3,414.8z M233.1,399.3l25.6,14.8l25.6-14.8l-25.6-14.8
	L233.1,399.3z M260,383.8l25.6,14.8l25.6-14.8L285.5,369L260,383.8z M286.8,368.3l25.6,14.8l25.6-14.8l-25.6-14.8L286.8,368.3z
	 M313.6,352.9l25.6,14.8l25.6-14.8l-25.6-14.8L313.6,352.9z M340.4,337.4l25.6,14.8l25.6-14.8L366,322.6L340.4,337.4z M367.2,321.9
	l25.6,14.8l25.6-14.8l-25.6-14.8L367.2,321.9z M394,306.4l25.6,14.8l25.6-14.8l-25.6-14.8L394,306.4z M420.8,291l25.6,14.8L472,291
	l-25.6-14.8L420.8,291z M447.6,275.5l25.6,14.8l25.6-14.8l-25.6-14.8L447.6,275.5z M99.1,445.7l25.6,14.8l25.6-14.8l-25.6-14.8
	L99.1,445.7z M125.9,430.2l25.6,14.8l25.6-14.8l-25.6-14.8L125.9,430.2z M152.7,414.8l25.6,14.8l25.6-14.8L178.3,400L152.7,414.8z
	 M179.5,399.3l25.6,14.8l25.6-14.8l-25.6-14.8L179.5,399.3z M206.3,383.8l25.6,14.8l25.6-14.8L231.9,369L206.3,383.8z M233.1,368.3
	l25.6,14.8l25.6-14.8l-25.6-14.8L233.1,368.3z M259.9,352.9l25.6,14.8l25.6-14.8l-25.6-14.8L259.9,352.9z M286.7,337.4l25.6,14.8
	l25.6-14.8l-25.6-14.8L286.7,337.4z M313.6,321.9l25.6,14.8l25.6-14.8l-25.6-14.8L313.6,321.9z M340.4,306.4l25.6,14.8l25.6-14.8
	L366,291.6L340.4,306.4z M367.2,290.9l25.6,14.8l25.6-14.8l-25.6-14.8L367.2,290.9z M394,275.5l25.6,14.8l25.6-14.8l-25.6-14.8
	L394,275.5z M420.8,260l25.6,14.8L472,260l-25.6-14.8L420.8,260z M72.3,430.2L97.9,445l25.6-14.8l-25.6-14.8L72.3,430.2z
	 M99.1,414.8l25.6,14.8l25.6-14.8L124.7,400L99.1,414.8z M125.9,399.3l25.6,14.8l25.6-14.8l-25.6-14.8L125.9,399.3z M152.7,383.8
	l25.6,14.8l25.6-14.8L178.3,369L152.7,383.8z M179.5,368.3l25.6,14.8l25.6-14.8l-25.6-14.8L179.5,368.3z M206.3,352.8l25.6,14.8
	l25.6-14.8L231.9,338L206.3,352.8z M233.1,337.4l25.6,14.8l25.6-14.8l-25.6-14.8L233.1,337.4z M259.9,321.9l25.6,14.8l25.6-14.8
	l-25.6-14.8L259.9,321.9z M286.7,306.4l25.6,14.8l25.6-14.8l-25.6-14.8L286.7,306.4z M313.5,290.9l25.6,14.8l25.6-14.8l-25.6-14.8
	L313.5,290.9z M340.3,275.5l25.6,14.8l25.6-14.8l-25.6-14.8L340.3,275.5z M367.2,260l25.6,14.8l25.6-14.8l-25.6-14.8L367.2,260z
	 M394,244.5l25.6,14.8l25.6-14.8l-25.6-14.8L394,244.5z M45.4,414.7L71,429.5l25.6-14.8L71,400L45.4,414.7z M72.2,399.3L97.9,414
	l25.6-14.8l-25.6-14.8L72.2,399.3z M99.1,383.8l25.6,14.8l25.6-14.8L124.6,369L99.1,383.8z M125.9,368.3l25.6,14.8l25.6-14.8
	l-25.6-14.8L125.9,368.3z M152.7,352.8l25.6,14.8l25.6-14.8L178.3,338L152.7,352.8z M179.5,337.4l25.6,14.8l25.6-14.8l-25.6-14.8
	L179.5,337.4z M206.3,321.9l25.6,14.8l25.6-14.8l-25.6-14.8L206.3,321.9z M233.1,306.4l25.6,14.8l25.6-14.8l-25.6-14.8L233.1,306.4z
	 M259.9,290.9l25.6,14.8l25.6-14.8l-25.6-14.8L259.9,290.9z M286.7,275.4l25.6,14.8l25.6-14.8l-25.6-14.8L286.7,275.4z M313.5,260
	l25.6,14.8l25.6-14.8l-25.6-14.8L313.5,260z M340.3,244.5l25.6,14.8l25.6-14.8l-25.6-14.8L340.3,244.5z M367.1,229l25.6,14.8
	l25.6-14.8l-25.6-14.8L367.1,229z"/>
<g>
	<path class="st1" d="M252.5,371.4l251.6,148.1c2.8,1.6,6.9,1.8,9.3,0.5L679,426.2c2.4-1.4,2.1-3.8-0.6-5.4L426.9,272.6
		c-2.8-1.6-6.9-1.8-9.3-0.5L251.9,366C249.5,367.4,249.8,369.8,252.5,371.4z"/>
	
		<linearGradient id="SVGID_2_" gradientUnits="userSpaceOnUse" x1="250.2726" y1="296.95" x2="680.6274" y2="296.95" gradientTransform="matrix(1 0 0 -1 0 668)">
		<stop  offset="0" style="stop-color:#A7D6FF"/>
		<stop  offset="1" style="stop-color:#248DFF"/>
	</linearGradient>
	<path class="st2" d="M252.5,346.4l251.6,148.1c2.8,1.6,6.9,1.8,9.3,0.5L679,401.2c2.4-1.4,2.1-3.8-0.6-5.4L426.9,247.6
		c-2.8-1.6-6.9-1.8-9.3-0.5L251.9,341C249.5,342.4,249.8,344.8,252.5,346.4z"/>
	<path class="st3" d="M251.5,339.4l251.6,148.1c2.8,1.6,6.9,1.8,9.3,0.5L678,394.2c2.4-1.4,2.1-3.8-0.6-5.4L425.9,240.6
		c-2.8-1.6-6.9-1.8-9.3-0.5L250.9,334C248.5,335.4,248.8,337.8,251.5,339.4z"/>
</g>
<linearGradient id="SVGID_3_" gradientUnits="userSpaceOnUse" x1="56.1008" y1="55.382" x2="428.1008" y2="334.382" gradientTransform="matrix(1 0 0 -1 0 668)">
	<stop  offset="0" style="stop-color:#9AC9FF"/>
	<stop  offset="0.2429" style="stop-color:#9ECCFF;stop-opacity:0.7571"/>
	<stop  offset="0.5079" style="stop-color:#ACD6FE;stop-opacity:0.4921"/>
	<stop  offset="0.7823" style="stop-color:#C1E5FC;stop-opacity:0.2177"/>
	<stop  offset="1" style="stop-color:#D8F6FB;stop-opacity:0"/>
</linearGradient>
<path class="st4" d="M172.4,13L59,584.3L99.4,563c0,0,44-13,87-49c0,0-3,22-49,66l4.7,41.7h585.3V14L172.4,13z"/>
<g>
	<g>
		<path class="st5" d="M434.6,258.5c1.2-0.7,1.4-1.7,0.4-2.4l-7.3-4.4c-1-0.6-2.8-0.5-4.1,0.1l-2.2,1.3c-1.2,0.7-1.4,1.7-0.4,2.4
			l7.3,4.4c1,0.6,2.8,0.5,4.1-0.1L434.6,258.5z"/>
	</g>
	<g>
		<path class="st5" d="M452.9,269.6c1.2-0.7,1.4-1.7,0.4-2.4l-7.3-4.4c-1-0.6-2.8-0.5-4.1,0.1l-2.2,1.3c-1.2,0.7-1.4,1.7-0.4,2.4
			l7.3,4.4c1,0.6,2.8,0.5,4.1-0.1L452.9,269.6z"/>
	</g>
	<g>
		<path class="st5" d="M465.7,277.4c1.2-0.7,1.4-1.7,0.4-2.4l-7.3-4.4c-1-0.6-2.8-0.5-4.1,0.1l-2.2,1.3c-1.2,0.7-1.4,1.7-0.4,2.4
			l7.3,4.4c1,0.6,2.8,0.5,4.1-0.1L465.7,277.4z"/>
	</g>
	<g>
		<path class="st5" d="M478.6,285.2c1.2-0.7,1.4-1.7,0.4-2.4l-7.3-4.4c-1-0.6-2.8-0.5-4.1,0.1l-2.2,1.3c-1.2,0.7-1.4,1.7-0.4,2.4
			l7.3,4.4c1,0.6,2.8,0.5,4.1-0.1L478.6,285.2z"/>
	</g>
	<g>
		<path class="st5" d="M491.4,293c1.2-0.7,1.4-1.7,0.4-2.4l-7.3-4.4c-1-0.6-2.8-0.5-4.1,0.1l-2.2,1.3c-1.2,0.7-1.4,1.7-0.4,2.4
			l7.3,4.4c1,0.6,2.8,0.5,4.1-0.1L491.4,293z"/>
	</g>
	<g>
		<path class="st5" d="M504.2,300.7c1.2-0.7,1.4-1.7,0.4-2.4l-7.3-4.4c-1-0.6-2.8-0.5-4.1,0.1l-2.2,1.3c-1.2,0.7-1.4,1.7-0.4,2.4
			l7.3,4.4c1,0.6,2.8,0.5,4.1-0.1L504.2,300.7z"/>
	</g>
	<g>
		<path class="st5" d="M517,308.5c1.2-0.7,1.4-1.7,0.4-2.4l-7.3-4.4c-1-0.6-2.8-0.5-4.1,0.1l-2.2,1.3c-1.2,0.7-1.4,1.7-0.4,2.4
			l7.3,4.4c1,0.6,2.8,0.5,4.1-0.1L517,308.5z"/>
	</g>
	<g>
		<path class="st5" d="M529.9,316.3c1.2-0.7,1.4-1.7,0.4-2.4l-7.3-4.4c-1-0.6-2.8-0.5-4.1,0.1l-2.2,1.3c-1.2,0.7-1.4,1.7-0.4,2.4
			l7.3,4.4c1,0.6,2.8,0.5,4.1-0.1L529.9,316.3z"/>
	</g>
	<g>
		<path class="st5" d="M542.7,324c1.2-0.7,1.4-1.7,0.4-2.4l-7.3-4.4c-1-0.6-2.8-0.5-4.1,0.1l-2.2,1.3c-1.2,0.7-1.4,1.7-0.4,2.4
			l7.3,4.4c1,0.6,2.8,0.5,4.1-0.1L542.7,324z"/>
	</g>
	<g>
		<path class="st5" d="M555.5,331.8c1.2-0.7,1.4-1.7,0.4-2.4l-7.3-4.4c-1-0.6-2.8-0.5-4.1,0.1l-2.2,1.3c-1.2,0.7-1.4,1.7-0.4,2.4
			l7.3,4.4c1,0.6,2.8,0.5,4.1-0.1L555.5,331.8z"/>
	</g>
	<g>
		<path class="st5" d="M568.4,339.6c1.2-0.7,1.4-1.7,0.4-2.4l-7.3-4.4c-1-0.6-2.8-0.5-4.1,0.1l-2.2,1.3c-1.2,0.7-1.4,1.7-0.4,2.4
			l7.3,4.4c1,0.6,2.8,0.5,4.1-0.1L568.4,339.6z"/>
	</g>
	<g>
		<path class="st5" d="M581.2,347.4c1.2-0.7,1.4-1.7,0.4-2.4l-7.3-4.4c-1-0.6-2.8-0.5-4.1,0.1L568,342c-1.2,0.7-1.4,1.7-0.4,2.4
			l7.3,4.4c1,0.6,2.8,0.5,4.1-0.1L581.2,347.4z"/>
	</g>
	<g>
		<path class="st5" d="M588.1,354.2c-1.2,0.7-1.4,1.7-0.4,2.4l7.3,4.4c1,0.6,2.8,0.5,4.1-0.1l2.2-1.3c1.2-0.7,1.4-1.7,0.4-2.4
			l-7.3-4.4c-1-0.6-2.8-0.5-4.1,0.1L588.1,354.2z"/>
	</g>
	<g>
		<path class="st5" d="M614.2,367.3c1.2-0.7,1.4-1.7,0.4-2.4l-7.3-4.4c-1-0.6-2.8-0.5-4.1,0.1l-2.2,1.3c-1.2,0.7-1.4,1.7-0.4,2.4
			l7.3,4.4c1,0.6,2.8,0.5,4.1-0.1L614.2,367.3z"/>
	</g>
	<g>
		<path class="st5" d="M613.8,369.7c-1.2,0.7-1.4,1.7-0.4,2.4l7.3,4.4c1,0.6,2.8,0.5,4.1-0.1l2.2-1.3c1.2-0.7,1.4-1.7,0.4-2.4
			l-7.3-4.4c-1-0.6-2.8-0.5-4.1,0.1L613.8,369.7z"/>
	</g>
	<g>
		<path class="st5" d="M626.6,377.5c-1.2,0.7-1.4,1.7-0.4,2.4l7.3,4.4c1,0.6,2.8,0.5,4.1-0.1l2.2-1.3c1.2-0.7,1.4-1.7,0.4-2.4
			l-7.3-4.4c-1-0.6-2.8-0.5-4.1,0.1L626.6,377.5z"/>
	</g>
	<g>
		<path class="st5" d="M645.7,383.9c-1-0.6-2.8-0.5-4.1,0.1l-2.2,1.3c-1.2,0.7-1.4,1.7-0.4,2.4l7.3,4.4c1,0.6,2.8,0.5,4.1-0.1
			l2.2-1.3c1.2-0.7,1.4-1.7,0.4-2.4L645.7,383.9z"/>
	</g>
	<g>
		<path class="st5" d="M416.7,268.6c1.2-0.7,1.4-1.7,0.4-2.4l-7.3-4.4c-1-0.6-2.8-0.5-4.1,0.1l-8.9,5c-1.2,0.7-1.4,1.7-0.4,2.4
			l7.3,4.4c1,0.6,2.8,0.5,4.1-0.1L416.7,268.6z"/>
	</g>
	<g>
		<path class="st5" d="M429.6,276.3c1.2-0.7,1.4-1.7,0.4-2.4l-7.3-4.4c-1-0.6-2.8-0.5-4.1,0.1l-8.9,5c-1.2,0.7-1.4,1.7-0.4,2.4
			l7.3,4.4c1,0.6,2.8,0.5,4.1-0.1L429.6,276.3z"/>
	</g>
	<g>
		<path class="st5" d="M442.4,284.1c1.2-0.7,1.4-1.7,0.4-2.4l-7.3-4.4c-1-0.6-2.8-0.5-4.1,0.1l-8.9,5c-1.2,0.7-1.4,1.7-0.4,2.4
			l7.3,4.4c1,0.6,2.8,0.5,4.1-0.1L442.4,284.1z"/>
	</g>
	<g>
		<path class="st5" d="M435.3,290.2c-1.2,0.7-1.4,1.7-0.4,2.4l7.3,4.4c1,0.6,2.8,0.5,4.1-0.1l8.9-5c1.2-0.7,1.4-1.7,0.4-2.4
			l-7.3-4.4c-1-0.6-2.8-0.5-4.1,0.1L435.3,290.2z"/>
	</g>
	<g>
		<path class="st5" d="M448.1,298c-1.2,0.7-1.4,1.7-0.4,2.4l7.3,4.4c1,0.6,2.8,0.5,4.1-0.1l8.9-5c1.2-0.7,1.4-1.7,0.4-2.4l-7.3-4.4
			c-1-0.6-2.8-0.5-4.1,0.1L448.1,298z"/>
	</g>
	<g>
		<path class="st5" d="M461,305.8c-1.2,0.7-1.4,1.7-0.4,2.4l7.3,4.4c1,0.6,2.8,0.5,4.1-0.1l8.9-5c1.2-0.7,1.4-1.7,0.4-2.4l-7.3-4.4
			c-1-0.6-2.8-0.5-4.1,0.1L461,305.8z"/>
	</g>
	<g>
		<path class="st5" d="M473.8,313.5c-1.2,0.7-1.4,1.7-0.4,2.4l7.3,4.4c1,0.6,2.8,0.5,4.1-0.1l8.9-5c1.2-0.7,1.4-1.7,0.4-2.4
			l-7.3-4.4c-1-0.6-2.8-0.5-4.1,0.1L473.8,313.5z"/>
	</g>
	<g>
		<path class="st5" d="M486.6,321.3c-1.2,0.7-1.4,1.7-0.4,2.4l7.3,4.4c1,0.6,2.8,0.5,4.1-0.1l8.9-5c1.2-0.7,1.4-1.7,0.4-2.4
			l-7.3-4.4c-1-0.6-2.8-0.5-4.1,0.1L486.6,321.3z"/>
	</g>
	<g>
		<path class="st5" d="M499.5,329.1c-1.2,0.7-1.4,1.7-0.4,2.4l7.3,4.4c1,0.6,2.8,0.5,4.1-0.1l8.9-5c1.2-0.7,1.4-1.7,0.4-2.4
			l-7.3-4.4c-1-0.6-2.8-0.5-4.1,0.1L499.5,329.1z"/>
	</g>
	<g>
		<path class="st5" d="M512.3,336.8c-1.2,0.7-1.4,1.7-0.4,2.4l7.3,4.4c1,0.6,2.8,0.5,4.1-0.1l8.9-5c1.2-0.7,1.4-1.7,0.4-2.4
			l-7.3-4.4c-1-0.6-2.8-0.5-4.1,0.1L512.3,336.8z"/>
	</g>
	<g>
		<path class="st5" d="M525.1,344.6c-1.2,0.7-1.4,1.7-0.4,2.4l7.3,4.4c1,0.6,2.8,0.5,4.1-0.1l8.9-5c1.2-0.7,1.4-1.7,0.4-2.4
			l-7.3-4.4c-1-0.6-2.8-0.5-4.1,0.1L525.1,344.6z"/>
	</g>
	<g>
		<path class="st5" d="M538,352.4c-1.2,0.7-1.4,1.7-0.4,2.4l7.3,4.4c1,0.6,2.8,0.5,4.1-0.1l8.9-5c1.2-0.7,1.4-1.7,0.4-2.4l-7.3-4.4
			c-1-0.6-2.8-0.5-4.1,0.1L538,352.4z"/>
	</g>
	<g>
		<path class="st5" d="M596.4,377.4c1.2-0.7,1.4-1.7,0.4-2.4l-7.3-4.4c-1-0.6-2.8-0.5-4.1,0.1l-8.9,5c-1.2,0.7-1.4,1.7-0.4,2.4
			l7.3,4.4c1,0.6,2.8,0.5,4.1-0.1L596.4,377.4z"/>
	</g>
	<g>
		<path class="st5" d="M589.3,383.5c-1.2,0.7-1.4,1.7-0.4,2.4l7.3,4.4c1,0.6,2.8,0.5,4.1-0.1l8.9-5c1.2-0.7,1.4-1.7,0.4-2.4
			l-7.3-4.4c-1-0.6-2.8-0.5-4.1,0.1L589.3,383.5z"/>
	</g>
	<g>
		<path class="st5" d="M602.1,391.2c-1.2,0.7-1.4,1.7-0.4,2.4l7.3,4.4c1,0.6,2.8,0.5,4.1-0.1l8.9-5c1.2-0.7,1.4-1.7,0.4-2.4
			l-7.3-4.4c-1-0.6-2.8-0.5-4.1,0.1L602.1,391.2z"/>
	</g>
	<g>
		<path class="st5" d="M614.9,399c-1.2,0.7-1.4,1.7-0.4,2.4l7.3,4.4c1,0.6,2.8,0.5,4.1-0.1l8.9-5c1.2-0.7,1.4-1.7,0.4-2.4l-7.3-4.4
			c-1-0.6-2.8-0.5-4.1,0.1L614.9,399z"/>
	</g>
	<g>
		<path class="st5" d="M580.8,386.1c1.2-0.7,1.4-1.7,0.4-2.4l-7.3-4.4c-1-0.6-2.8-0.5-4.1,0.1l-8.9,5c-1.2,0.7-1.4,1.7-0.4,2.4
			l7.3,4.4c1,0.6,2.8,0.5,4.1-0.1L580.8,386.1z"/>
	</g>
	<g>
		<path class="st5" d="M573.7,392.2c-1.2,0.7-1.4,1.7-0.4,2.4l7.3,4.4c1,0.6,2.8,0.5,4.1-0.1l8.9-5c1.2-0.7,1.4-1.7,0.4-2.4
			l-7.3-4.4c-1-0.6-2.8-0.5-4.1,0.1L573.7,392.2z"/>
	</g>
	<g>
		<path class="st5" d="M586.5,400c-1.2,0.7-1.4,1.7-0.4,2.4l7.3,4.4c1,0.6,2.8,0.5,4.1-0.1l8.9-5c1.2-0.7,1.4-1.7,0.4-2.4l-7.3-4.4
			c-1-0.6-2.8-0.5-4.1,0.1L586.5,400z"/>
	</g>
	<g>
		<path class="st5" d="M565.2,394.9c1.2-0.7,1.4-1.7,0.4-2.4l-7.3-4.4c-1-0.6-2.8-0.5-4.1,0.1l-8.9,5c-1.2,0.7-1.4,1.7-0.4,2.4
			l7.3,4.4c1,0.6,2.8,0.5,4.1-0.1L565.2,394.9z"/>
	</g>
	<g>
		<path class="st5" d="M558.1,401c-1.2,0.7-1.4,1.7-0.4,2.4l7.3,4.4c1,0.6,2.8,0.5,4.1-0.1l8.9-5c1.2-0.7,1.4-1.7,0.4-2.4l-7.3-4.4
			c-1-0.6-2.8-0.5-4.1,0.1L558.1,401z"/>
	</g>
	<g>
		<path class="st5" d="M570.9,408.8c-1.2,0.7-1.4,1.7-0.4,2.4l7.3,4.4c1,0.6,2.8,0.5,4.1-0.1l8.9-5c1.2-0.7,1.4-1.7,0.4-2.4
			l-7.3-4.4c-1-0.6-2.8-0.5-4.1,0.1L570.9,408.8z"/>
	</g>
	<g>
		<path class="st5" d="M583.7,416.5c-1.2,0.7-1.4,1.7-0.4,2.4l7.3,4.4c1,0.6,2.8,0.5,4.1-0.1l24.5-13.8c1.2-0.7,1.4-1.7,0.4-2.4
			l-7.3-4.4c-1-0.6-2.8-0.5-4.1,0.1L583.7,416.5z"/>
	</g>
	<g>
		<path class="st5" d="M549.6,403.6c1.2-0.7,1.4-1.7,0.4-2.4l-7.3-4.4c-1-0.6-2.8-0.5-4.1,0.1l-8.9,5c-1.2,0.7-1.4,1.7-0.4,2.4
			l7.3,4.4c1,0.6,2.8,0.5,4.1-0.1L549.6,403.6z"/>
	</g>
	<g>
		<path class="st5" d="M542.5,409.7c-1.2,0.7-1.4,1.7-0.4,2.4l7.3,4.4c1,0.6,2.8,0.5,4.1-0.1l8.9-5c1.2-0.7,1.4-1.7,0.4-2.4
			l-7.3-4.4c-1-0.6-2.8-0.5-4.1,0.1L542.5,409.7z"/>
	</g>
	<g>
		<path class="st5" d="M555.3,417.5c-1.2,0.7-1.4,1.7-0.4,2.4l7.3,4.4c1,0.6,2.8,0.5,4.1-0.1l8.9-5c1.2-0.7,1.4-1.7,0.4-2.4
			l-7.3-4.4c-1-0.6-2.8-0.5-4.1,0.1L555.3,417.5z"/>
	</g>
	<g>
		<path class="st5" d="M514.1,410.7c-1.2,0.7-1.4,1.7-0.4,2.4l20.2,12.2c1,0.6,2.8,0.5,4.1-0.1l8.9-5c1.2-0.7,1.4-1.7,0.4-2.4
			L527,405.6c-1-0.6-2.8-0.5-4.1,0.1L514.1,410.7z"/>
	</g>
	<g>
		<path class="st5" d="M539.7,426.3c-1.2,0.7-1.4,1.7-0.4,2.4l7.3,4.4c1,0.6,2.8,0.5,4.1-0.1l8.9-5c1.2-0.7,1.4-1.7,0.4-2.4
			l-7.3-4.4c-1-0.6-2.8-0.5-4.1,0.1L539.7,426.3z"/>
	</g>
	<g>
		<path class="st5" d="M552.5,434c-1.2,0.7-1.4,1.7-0.4,2.4l7.3,4.4c1,0.6,2.8,0.5,4.1-0.1l24.5-13.8c1.2-0.7,1.4-1.7,0.4-2.4
			l-7.3-4.4c-1-0.6-2.8-0.5-4.1,0.1L552.5,434z"/>
	</g>
	<g>
		<path class="st5" d="M550.8,360.2c-1.2,0.7-1.4,1.7-0.4,2.4l12.8,7.8c1,0.6,2.8,0.5,4.1-0.1l8.9-5c1.2-0.7,1.4-1.7,0.4-2.4
			l-12.8-7.8c-1-0.6-2.8-0.5-4.1,0.1L550.8,360.2z"/>
	</g>
	<g>
		<path class="st5" d="M406.6,280.6c1.2-0.7,1.4-1.7,0.4-2.4l-12.8-7.8c-1-0.6-2.8-0.5-4.1,0.1l-8.9,5c-1.2,0.7-1.4,1.7-0.4,2.4
			l12.8,7.8c1,0.6,2.8,0.5,4.1-0.1L406.6,280.6z"/>
	</g>
	<g>
		<path class="st5" d="M399.6,286.8c-1.2,0.7-1.4,1.7-0.4,2.4l7.3,4.4c1,0.6,2.8,0.5,4.1-0.1l8.9-5c1.2-0.7,1.4-1.7,0.4-2.4
			l-7.3-4.4c-1-0.6-2.8-0.5-4.1,0.1L399.6,286.8z"/>
	</g>
	<g>
		<path class="st5" d="M432.3,296.2c1.2-0.7,1.4-1.7,0.4-2.4l-7.3-4.4c-1-0.6-2.8-0.5-4.1,0.1l-8.9,5c-1.2,0.7-1.4,1.7-0.4,2.4
			l7.3,4.4c1,0.6,2.8,0.5,4.1-0.1L432.3,296.2z"/>
	</g>
	<g>
		<path class="st5" d="M425.2,302.3c-1.2,0.7-1.4,1.7-0.4,2.4l7.3,4.4c1,0.6,2.8,0.5,4.1-0.1l8.9-5c1.2-0.7,1.4-1.7,0.4-2.4
			l-7.3-4.4c-1-0.6-2.8-0.5-4.1,0.1L425.2,302.3z"/>
	</g>
	<g>
		<path class="st5" d="M438,310.1c-1.2,0.7-1.4,1.7-0.4,2.4l7.3,4.4c1,0.6,2.8,0.5,4.1-0.1l8.9-5c1.2-0.7,1.4-1.7,0.4-2.4L451,305
			c-1-0.6-2.8-0.5-4.1,0.1L438,310.1z"/>
	</g>
	<g>
		<path class="st5" d="M450.9,317.8c-1.2,0.7-1.4,1.7-0.4,2.4l7.3,4.4c1,0.6,2.8,0.5,4.1-0.1l8.9-5c1.2-0.7,1.4-1.7,0.4-2.4
			l-7.3-4.4c-1-0.6-2.8-0.5-4.1,0.1L450.9,317.8z"/>
	</g>
	<g>
		<path class="st5" d="M463.7,325.6c-1.2,0.7-1.4,1.7-0.4,2.4l7.3,4.4c1,0.6,2.8,0.5,4.1-0.1l8.9-5c1.2-0.7,1.4-1.7,0.4-2.4
			l-7.3-4.4c-1-0.6-2.8-0.5-4.1,0.1L463.7,325.6z"/>
	</g>
	<g>
		<path class="st5" d="M476.5,333.4c-1.2,0.7-1.4,1.7-0.4,2.4l7.3,4.4c1,0.6,2.8,0.5,4.1-0.1l8.9-5c1.2-0.7,1.4-1.7,0.4-2.4
			l-7.3-4.4c-1-0.6-2.8-0.5-4.1,0.1L476.5,333.4z"/>
	</g>
	<g>
		<path class="st5" d="M489.4,341.2c-1.2,0.7-1.4,1.7-0.4,2.4l7.3,4.4c1,0.6,2.8,0.5,4.1-0.1l8.9-5c1.2-0.7,1.4-1.7,0.4-2.4
			l-7.3-4.4c-1-0.6-2.8-0.5-4.1,0.1L489.4,341.2z"/>
	</g>
	<g>
		<path class="st5" d="M502.2,348.9c-1.2,0.7-1.4,1.7-0.4,2.4l7.3,4.4c1,0.6,2.8,0.5,4.1-0.1l8.9-5c1.2-0.7,1.4-1.7,0.4-2.4
			l-7.3-4.4c-1-0.6-2.8-0.5-4.1,0.1L502.2,348.9z"/>
	</g>
	<g>
		<path class="st5" d="M515,356.7c-1.2,0.7-1.4,1.7-0.4,2.4l7.3,4.4c1,0.6,2.8,0.5,4.1-0.1l8.9-5c1.2-0.7,1.4-1.7,0.4-2.4l-7.3-4.4
			c-1-0.6-2.8-0.5-4.1,0.1L515,356.7z"/>
	</g>
	<g>
		<path class="st5" d="M547.8,366.1c1.2-0.7,1.4-1.7,0.4-2.4l-7.3-4.4c-1-0.6-2.8-0.5-4.1,0.1l-8.9,5c-1.2,0.7-1.4,1.7-0.4,2.4
			l7.3,4.4c1,0.6,2.8,0.5,4.1-0.1L547.8,366.1z"/>
	</g>
	<g>
		<path class="st5" d="M540.7,372.2c-1.2,0.7-1.4,1.7-0.4,2.4l7.3,4.4c1,0.6,2.8,0.5,4.1-0.1l8.9-5c1.2-0.7,1.4-1.7,0.4-2.4
			l-7.3-4.4c-1-0.6-2.8-0.5-4.1,0.1L540.7,372.2z"/>
	</g>
	<g>
		<path class="st5" d="M398.4,293.8c1.2-0.7,1.4-1.7,0.4-2.4l-20.2-12.2c-1-0.6-2.8-0.5-4.1,0.1l-8.9,5c-1.2,0.7-1.4,1.7-0.4,2.4
			l20.2,12.2c1,0.6,2.8,0.5,4.1-0.1L398.4,293.8z"/>
	</g>
	<g>
		<path class="st5" d="M411.2,301.6c1.2-0.7,1.4-1.7,0.4-2.4l-7.3-4.4c-1-0.6-2.8-0.5-4.1,0.1l-8.9,5c-1.2,0.7-1.4,1.7-0.4,2.4
			l7.3,4.4c1,0.6,2.8,0.5,4.1-0.1L411.2,301.6z"/>
	</g>
	<g>
		<path class="st5" d="M424,309.4c1.2-0.7,1.4-1.7,0.4-2.4l-7.3-4.4c-1-0.6-2.8-0.5-4.1,0.1l-8.9,5c-1.2,0.7-1.4,1.7-0.4,2.4
			l7.3,4.4c1,0.6,2.8,0.5,4.1-0.1L424,309.4z"/>
	</g>
	<g>
		<path class="st5" d="M436.9,317.2c1.2-0.7,1.4-1.7,0.4-2.4l-7.3-4.4c-1-0.6-2.8-0.5-4.1,0.1l-8.9,5c-1.2,0.7-1.4,1.7-0.4,2.4
			l7.3,4.4c1,0.6,2.8,0.5,4.1-0.1L436.9,317.2z"/>
	</g>
	<g>
		<path class="st5" d="M449.7,324.9c1.2-0.7,1.4-1.7,0.4-2.4l-7.3-4.4c-1-0.6-2.8-0.5-4.1,0.1l-8.9,5c-1.2,0.7-1.4,1.7-0.4,2.4
			l7.3,4.4c1,0.6,2.8,0.5,4.1-0.1L449.7,324.9z"/>
	</g>
	<g>
		<path class="st5" d="M462.5,332.7c1.2-0.7,1.4-1.7,0.4-2.4l-7.3-4.4c-1-0.6-2.8-0.5-4.1,0.1l-8.9,5c-1.2,0.7-1.4,1.7-0.4,2.4
			l7.3,4.4c1,0.6,2.8,0.5,4.1-0.1L462.5,332.7z"/>
	</g>
	<g>
		<path class="st5" d="M475.4,340.5c1.2-0.7,1.4-1.7,0.4-2.4l-7.3-4.4c-1-0.6-2.8-0.5-4.1,0.1l-8.9,5c-1.2,0.7-1.4,1.7-0.4,2.4
			l7.3,4.4c1,0.6,2.8,0.5,4.1-0.1L475.4,340.5z"/>
	</g>
	<g>
		<path class="st5" d="M488.2,348.2c1.2-0.7,1.4-1.7,0.4-2.4l-7.3-4.4c-1-0.6-2.8-0.5-4.1,0.1l-8.9,5c-1.2,0.7-1.4,1.7-0.4,2.4
			l7.3,4.4c1,0.6,2.8,0.5,4.1-0.1L488.2,348.2z"/>
	</g>
	<g>
		<path class="st5" d="M501,356c1.2-0.7,1.4-1.7,0.4-2.4l-7.3-4.4c-1-0.6-2.8-0.5-4.1,0.1l-8.9,5c-1.2,0.7-1.4,1.7-0.4,2.4l7.3,4.4
			c1,0.6,2.8,0.5,4.1-0.1L501,356z"/>
	</g>
	<g>
		<path class="st5" d="M513.8,363.8c1.2-0.7,1.4-1.7,0.4-2.4l-7.3-4.4c-1-0.6-2.8-0.5-4.1,0.1l-8.9,5c-1.2,0.7-1.4,1.7-0.4,2.4
			l7.3,4.4c1,0.6,2.8,0.5,4.1-0.1L513.8,363.8z"/>
	</g>
	<g>
		<path class="st5" d="M526.7,371.6c1.2-0.7,1.4-1.7,0.4-2.4l-7.3-4.4c-1-0.6-2.8-0.5-4.1,0.1l-8.9,5c-1.2,0.7-1.4,1.7-0.4,2.4
			l7.3,4.4c1,0.6,2.8,0.5,4.1-0.1L526.7,371.6z"/>
	</g>
	<g>
		<path class="st5" d="M519.6,377.7c-1.2,0.7-1.4,1.7-0.4,2.4l12.8,7.8c1,0.6,2.8,0.5,4.1-0.1l8.9-5c1.2-0.7,1.4-1.7,0.4-2.4
			l-12.8-7.8c-1-0.6-2.8-0.5-4.1,0.1L519.6,377.7z"/>
	</g>
	<g>
		<path class="st5" d="M375.4,298.2c1.2-0.7,1.4-1.7,0.4-2.4L363,288c-1-0.6-2.8-0.5-4.1,0.1l-8.9,5c-1.2,0.7-1.4,1.7-0.4,2.4
			l12.8,7.8c1,0.6,2.8,0.5,4.1-0.1L375.4,298.2z"/>
	</g>
	<g>
		<path class="st5" d="M368.4,304.3c-1.2,0.7-1.4,1.7-0.4,2.4l7.3,4.4c1,0.6,2.8,0.5,4.1-0.1l8.9-5c1.2-0.7,1.4-1.7,0.4-2.4
			l-7.3-4.4c-1-0.6-2.8-0.5-4.1,0.1L368.4,304.3z"/>
	</g>
	<g>
		<path class="st5" d="M381.2,312c-1.2,0.7-1.4,1.7-0.4,2.4l7.3,4.4c1,0.6,2.8,0.5,4.1-0.1l8.9-5c1.2-0.7,1.4-1.7,0.4-2.4l-7.3-4.4
			c-1-0.6-2.8-0.5-4.1,0.1L381.2,312z"/>
	</g>
	<g>
		<path class="st5" d="M413.9,321.5c1.2-0.7,1.4-1.7,0.4-2.4l-7.3-4.4c-1-0.6-2.8-0.5-4.1,0.1l-8.9,5c-1.2,0.7-1.4,1.7-0.4,2.4
			l7.3,4.4c1,0.6,2.8,0.5,4.1-0.1L413.9,321.5z"/>
	</g>
	<g>
		<path class="st5" d="M426.8,329.2c1.2-0.7,1.4-1.7,0.4-2.4l-7.3-4.4c-1-0.6-2.8-0.5-4.1,0.1l-8.9,5c-1.2,0.7-1.4,1.7-0.4,2.4
			l7.3,4.4c1,0.6,2.8,0.5,4.1-0.1L426.8,329.2z"/>
	</g>
	<g>
		<path class="st5" d="M439.6,337c1.2-0.7,1.4-1.7,0.4-2.4l-7.3-4.4c-1-0.6-2.8-0.5-4.1,0.1l-8.9,5c-1.2,0.7-1.4,1.7-0.4,2.4
			l7.3,4.4c1,0.6,2.8,0.5,4.1-0.1L439.6,337z"/>
	</g>
	<g>
		<path class="st5" d="M452.4,344.8c1.2-0.7,1.4-1.7,0.4-2.4l-7.3-4.4c-1-0.6-2.8-0.5-4.1,0.1l-8.9,5c-1.2,0.7-1.4,1.7-0.4,2.4
			l7.3,4.4c1,0.6,2.8,0.5,4.1-0.1L452.4,344.8z"/>
	</g>
	<g>
		<path class="st5" d="M465.3,352.6c1.2-0.7,1.4-1.7,0.4-2.4l-7.3-4.4c-1-0.6-2.8-0.5-4.1,0.1l-8.9,5c-1.2,0.7-1.4,1.7-0.4,2.4
			l7.3,4.4c1,0.6,2.8,0.5,4.1-0.1L465.3,352.6z"/>
	</g>
	<g>
		<path class="st5" d="M478.1,360.3c1.2-0.7,1.4-1.7,0.4-2.4l-7.3-4.4c-1-0.6-2.8-0.5-4.1,0.1l-8.9,5c-1.2,0.7-1.4,1.7-0.4,2.4
			l7.3,4.4c1,0.6,2.8,0.5,4.1-0.1L478.1,360.3z"/>
	</g>
	<g>
		<path class="st5" d="M490.9,368.1c1.2-0.7,1.4-1.7,0.4-2.4l-7.3-4.4c-1-0.6-2.8-0.5-4.1,0.1l-8.9,5c-1.2,0.7-1.4,1.7-0.4,2.4
			l7.3,4.4c1,0.6,2.8,0.5,4.1-0.1L490.9,368.1z"/>
	</g>
	<g>
		<path class="st5" d="M503.7,375.9c1.2-0.7,1.4-1.7,0.4-2.4l-7.3-4.4c-1-0.6-2.8-0.5-4.1,0.1l-8.9,5c-1.2,0.7-1.4,1.7-0.4,2.4
			l7.3,4.4c1,0.6,2.8,0.5,4.1-0.1L503.7,375.9z"/>
	</g>
	<g>
		<path class="st5" d="M496.7,382c-1.2,0.7-1.4,1.7-0.4,2.4l20.2,12.2c1,0.6,2.8,0.5,4.1-0.1l8.9-5c1.2-0.7,1.4-1.7,0.4-2.4
			l-20.2-12.2c-1-0.6-2.8-0.5-4.1,0.1L496.7,382z"/>
	</g>
	<g>
		<path class="st5" d="M334.4,301.9c-1.2,0.7-1.4,1.7-0.4,2.4l9.2,5.6c1,0.6,2.8,0.5,4.1-0.1l8.9-5c1.2-0.7,1.4-1.7,0.4-2.4
			l-9.2-5.6c-1-0.6-2.8-0.5-4.1,0.1L334.4,301.9z"/>
	</g>
	<g>
		<path class="st5" d="M349.1,310.8c-1.2,0.7-1.4,1.7-0.4,2.4l7.3,4.4c1,0.6,2.8,0.5,4.1-0.1l8.9-5c1.2-0.7,1.4-1.7,0.4-2.4
			l-7.3-4.4c-1-0.6-2.8-0.5-4.1,0.1L349.1,310.8z"/>
	</g>
	<g>
		<path class="st5" d="M361.9,318.6c-1.2,0.7-1.4,1.7-0.4,2.4l11,6.7c1,0.6,2.8,0.5,4.1-0.1l8.9-5c1.2-0.7,1.4-1.7,0.4-2.4l-11-6.7
			c-1-0.6-2.8-0.5-4.1,0.1L361.9,318.6z"/>
	</g>
	<g>
		<path class="st5" d="M378.4,328.6c-1.2,0.7-1.4,1.7-0.4,2.4l80.6,48.8c1,0.6,2.8,0.5,4.1-0.1l8.9-5c1.2-0.7,1.4-1.7,0.4-2.4
			l-80.6-48.8c-1-0.6-2.8-0.5-4.1,0.1L378.4,328.6z"/>
	</g>
	<g>
		<path class="st5" d="M464.6,380.7c-1.2,0.7-1.4,1.7-0.4,2.4l7.3,4.4c1,0.6,2.8,0.5,4.1-0.1l8.9-5c1.2-0.7,1.4-1.7,0.4-2.4
			l-7.3-4.4c-1-0.6-2.8-0.5-4.1,0.1L464.6,380.7z"/>
	</g>
	<g>
		<path class="st5" d="M477.4,388.5c-1.2,0.7-1.4,1.7-0.4,2.4l7.3,4.4c1,0.6,2.8,0.5,4.1-0.1l8.9-5c1.2-0.7,1.4-1.7,0.4-2.4
			l-7.3-4.4c-1-0.6-2.8-0.5-4.1,0.1L477.4,388.5z"/>
	</g>
	<g>
		<path class="st5" d="M490.2,396.3c-1.2,0.7-1.4,1.7-0.4,2.4l11,6.7c1,0.6,2.8,0.5,4.1-0.1l8.9-5c1.2-0.7,1.4-1.7,0.4-2.4l-11-6.7
			c-1-0.6-2.8-0.5-4.1,0.1L490.2,396.3z"/>
	</g>
</g>
<linearGradient id="SVGID_4_" gradientUnits="userSpaceOnUse" x1="420" y1="472.0999" x2="689" y2="472.0999" gradientTransform="matrix(1 0 0 -1 0 668)">
	<stop  offset="0" style="stop-color:#A7D6FF"/>
	<stop  offset="1" style="stop-color:#248DFF"/>
</linearGradient>
<path class="st6" d="M679.9,390.1L426.6,239.2c-4.1-2.4-6.6-6.8-6.6-11.6V8.7c0-6.1,6.6-9.9,11.9-6.7l247,147.1
	c6.3,3.7,10.1,10.5,10.1,17.8v218C689,389.6,683.9,392.5,679.9,390.1z"/>
<path class="st7" d="M672.1,388.1L426.4,241.7c-4-2.4-6.4-6.6-6.4-11.3V9.9c0-5.9,6.4-1.4,11.5,1.6l239.7,142.8
	c6.1,3.6,9.8,10.2,9.8,17.3v211.5C681,387.7,676,390.5,672.1,388.1z"/>
<linearGradient id="SVGID_5_" gradientUnits="userSpaceOnUse" x1="431" y1="466.8955" x2="669.9016" y2="466.8955" gradientTransform="matrix(1 0 0 -1 0 668)">
	<stop  offset="0" style="stop-color:#A7D6FF"/>
	<stop  offset="1" style="stop-color:#248DFF"/>
</linearGradient>
<path class="st8" d="M662.2,370.2L436.6,234.8c-3.5-2.1-5.6-5.8-5.6-9.9v-189c0-5.2,5.7-5.7,10.1-3l220.2,132.2
	c5.4,3.2,8.6,9,8.6,15.2v185.5C670,369.8,665.6,372.2,662.2,370.2z"/>
<linearGradient id="SVGID_6_" gradientUnits="userSpaceOnUse" x1="439.9" y1="468.9139" x2="650.9019" y2="468.9139" gradientTransform="matrix(1 0 0 -1 0 668)">
	<stop  offset="0" style="stop-color:#C2D6FF"/>
	<stop  offset="1" style="stop-color:#C3DCFE"/>
</linearGradient>
<path class="st9" d="M644.1,348.4L444.9,228.8c-3.1-1.8-5-5.1-5-8.7V53.2c0-4.6,5-5,8.9-2.7l194.5,116.8c4.7,2.8,7.6,7.9,7.6,13.4
	v163.8C651,348,647.2,350.2,644.1,348.4z"/>
<g>
	
		<linearGradient id="SVGID_7_" gradientUnits="userSpaceOnUse" x1="1418.5256" y1="283.9044" x2="1533.1816" y2="283.9044" gradientTransform="matrix(-0.9999 -1.311343e-02 1.311343e-02 -0.9999 1876.2828 694.6979)">
		<stop  offset="0" style="stop-color:#A7ECFF"/>
		<stop  offset="1" style="stop-color:#365BFF"/>
	</linearGradient>
	<path class="st10" d="M409.2,423.6l-60.4-35.9c-2.4-1.4-2.3-3.6,0.1-5l41.9-23.5c2.4-1.3,6.3-1.3,8.6,0.1l60.4,35.9
		c2.4,1.4,2.3,3.6-0.1,5l-41.9,23.5C415.4,425.1,411.6,425,409.2,423.6z"/>
	<path class="st11" d="M459.5,397.9l-60.2-35.8c-2.4-1.4-6.2-1.5-8.6-0.1l-41.8,23.4c-0.7,0.4-1.2,0.9-1.5,1.4
		c-0.6-1.2-0.1-2.6,1.5-3.5l41.8-23.4c2.4-1.3,6.2-1.3,8.6,0.1l60.2,35.8c1.6,1,2.1,2.3,1.4,3.5
		C460.7,398.9,460.2,398.4,459.5,397.9z"/>
</g>
<g>
	<g>
		<g>
			<path class="st1" d="M309.8,523.2l-146.7-85.3c-1.9-1.1-1.9-3.8,0-4.9l57.3-33.4c4-2.3,8.8-2.3,12.8,0l146.7,85.3
				c1.9,1.1,1.9,3.8,0,4.9l-57.3,33.4C318.6,525.5,313.8,525.5,309.8,523.2z"/>
			
				<linearGradient id="SVGID_8_" gradientUnits="userSpaceOnUse" x1="188.2548" y1="279.2604" x2="359.6236" y2="174.6619" gradientTransform="matrix(1 0 0 -1 0 668)">
				<stop  offset="5.405406e-03" style="stop-color:#248DFF"/>
				<stop  offset="1" style="stop-color:#A7D6FF"/>
			</linearGradient>
			<polygon class="st12" points="161.7,409.4 161.7,417.4 381.3,469.4 381.3,461.7 			"/>
			
				<linearGradient id="SVGID_9_" gradientUnits="userSpaceOnUse" x1="189.5851" y1="274.5984" x2="358.3351" y2="171.5984" gradientTransform="matrix(1 0 0 -1 0 668)">
				<stop  offset="5.405406e-03" style="stop-color:#248DFF"/>
				<stop  offset="1" style="stop-color:#A7D6FF"/>
			</linearGradient>
			<path class="st13" d="M309.8,505.2l-146.7-85.3c-1.9-1.1-1.9-3.8,0-4.9l57.3-33.4c4-2.3,8.8-2.3,12.8,0l146.7,85.3
				c1.9,1.1,1.9,3.8,0,4.9l-57.3,33.4C318.6,507.5,313.8,507.5,309.8,505.2z"/>
			
				<linearGradient id="SVGID_10_" gradientUnits="userSpaceOnUse" x1="189.5851" y1="282.5984" x2="358.3351" y2="179.5984" gradientTransform="matrix(1 0 0 -1 0 668)">
				<stop  offset="5.405406e-03" style="stop-color:#F2F2F2"/>
				<stop  offset="1" style="stop-color:#FFFFFF"/>
			</linearGradient>
			<path class="st14" d="M309.8,497.2l-146.7-85.3c-1.9-1.1-1.9-3.8,0-4.9l57.3-33.4c4-2.3,8.8-2.3,12.8,0l146.7,85.3
				c1.9,1.1,1.9,3.8,0,4.9l-57.3,33.4C318.6,499.5,313.8,499.5,309.8,497.2z"/>
			
				<linearGradient id="SVGID_11_" gradientUnits="userSpaceOnUse" x1="191.8865" y1="281.0556" x2="338.4311" y2="191.6091" gradientTransform="matrix(1 0 0 -1 0 668)">
				<stop  offset="5.405406e-03" style="stop-color:#5781FD"/>
				<stop  offset="1" style="stop-color:#69F9ED"/>
			</linearGradient>
			<path class="st15" d="M294.2,484.4l-125.9-73.3c-1.7-1-1.7-3.5,0-4.5l51.9-30.3c3.6-2.1,8-2.1,11.6,0l125.9,73.3
				c1.7,1,1.7,3.5,0,4.5l-51.9,30.3C302.2,486.5,297.8,486.5,294.2,484.4z"/>
			<path class="st16" d="M349,477.5c-1,1.7-4,2.7-6.7,2.4s-4.2-1.9-3.3-3.6c1-1.7,4-2.7,6.7-2.4S350,475.8,349,477.5z"/>
		</g>
	</g>
	
		<linearGradient id="SVGID_12_" gradientUnits="userSpaceOnUse" x1="228.5111" y1="300.2337" x2="251.0986" y2="300.2337" gradientTransform="matrix(0.9975 7.042209e-02 7.042209e-02 -0.9975 -14.8484 645.9955)">
		<stop  offset="0" style="stop-color:#3D6CB1"/>
		<stop  offset="1" style="stop-color:#490295"/>
	</linearGradient>
	<path class="st17" d="M234.1,364.9c0.3,1.9,5.6,2.8,11.9,2c6.3-0.8,11.2-3.1,10.9-5s-5.6-2.8-11.9-2
		C238.7,360.8,233.8,363,234.1,364.9z"/>
</g>
<g class="st18">
	<path class="st19" d="M173.8,506.5c5.7,3.3,15,3.3,20.7,0s5.7-8.7,0-12s-15-3.3-20.7,0C168,497.8,168,503.2,173.8,506.5z"/>
</g>
<g class="st18">
	<path class="st19" d="M716.8,57.5c5.7,3.3,15,3.3,20.7,0s5.7-8.7,0-12s-15-3.3-20.7,0C711,48.8,711,54.2,716.8,57.5z"/>
</g>
<g class="st18">
	<path class="st19" d="M146.6,483.3c2.8,1.6,7.4,1.6,10.3,0c2.8-1.6,2.8-4.3,0-5.9s-7.4-1.6-10.3,0
		C143.8,479,143.8,481.7,146.6,483.3z"/>
</g>
<g class="st18">
	<path class="st19" d="M675.8,52.6c3.1,1.8,8.1,1.8,11.1,0c3.1-1.8,3.1-4.7,0-6.4c-3.1-1.8-8.1-1.8-11.1,0
		C672.7,48,672.7,50.9,675.8,52.6z"/>
</g>
<g>
	<g>
		<g>
			<path class="st20" d="M85.5,550.5c0,0-1.8,1.9-3.7,4.1c-1.9,2.2-7.2,5.4-9.5,6.7s-12.5,9.2-14.6,16.8s5.2,8.7,12.7,7.3
				s14.5-8.2,16.5-10.7s9.1-8.2,18.3-12.9c9.2-4.8,3.6-11.2,3.6-11.2L85.5,550.5z"/>
			<path class="st20" d="M153.8,573.2c0,0,1.5,3.4,1.9,7.9c0.4,4.4,1,14,1.3,16.8c0.2,2.8,0.3,9.7-4.6,16.2c-4.9,6.6-7.5,9.2-14,6.6
				c-6.6-2.6-6.4-13.6-5.3-19.3c1.2-5.7,2.2-18.3,2.1-19.7c-0.1-1.3,0.4-2.2,0.4-2.2L153.8,573.2z"/>
			<path class="st21" d="M62.9,420.6c0,0,1.4,50.5,13.1,77.3c0,0,8.4,23.6,9.5,51.7c0,0-1.9,4.8,0.8,8.8c2.8,3.9,20,7.5,22.9-5.4
				c2.9-12.9,1.8-37.1-1.4-47.1c-3.1-10.1,1.1-37.8,1.1-37.8s4.7,3,10.9,23c6.2,19.9,10.7,27.6,12.9,33.1c2.1,5.5,4.1,39.3,2.7,55.8
				c0,0,14,2,18-4.7s5.4-41.3,4.4-52.3s-5.6-46.4-5-57.3s2.9-19.8,0.4-30.7c-2.5-10.9-76.3-35.2-76.3-35.2L62.9,420.6z"/>
			
				<linearGradient id="SVGID_13_" gradientUnits="userSpaceOnUse" x1="162.6902" y1="215.0745" x2="34.5341" y2="120.9871" gradientTransform="matrix(1 0 0 -1 0 668)">
				<stop  offset="0" style="stop-color:#180D5B"/>
				<stop  offset="0.1126" style="stop-color:#1A1562"/>
				<stop  offset="0.2924" style="stop-color:#202D73"/>
				<stop  offset="0.5168" style="stop-color:#295390"/>
				<stop  offset="0.7745" style="stop-color:#3687B8"/>
				<stop  offset="1" style="stop-color:#42BAE0"/>
			</linearGradient>
			<path class="st22" d="M62.9,420.6c0,0,1.4,50.5,13.1,77.3c0,0,8.4,23.6,9.5,51.7c0,0-1.9,4.8,0.8,8.8c2.8,3.9,20,7.5,22.9-5.4
				c2.9-12.9,1.8-37.1-1.4-47.1c-3.1-10.1,1.1-37.8,1.1-37.8s4.7,3,10.9,23c6.2,19.9,10.7,27.6,12.9,33.1c2.1,5.5,4.1,39.3,2.7,55.8
				c0,0,14,2,18-4.7s5.4-41.3,4.4-52.3s-5.6-46.4-5-57.3s2.9-19.8,0.4-30.7c-2.5-10.9-76.3-35.2-76.3-35.2L62.9,420.6z"/>
			<path class="st20" d="M152.9,465.5c0.6-10.9,2.9-19.8,0.4-30.7c-0.9-4.1-12-10.1-25.3-16c-22.6-2.1-51.2-4.5-53.2-4.2
				c-1.8,0.3-6.5,2-10.3,3.6l-1.6,2.3c0,0,0.1,3.1,0.4,8.1c5.3,1.6,15.4-0.1,15.4-0.1c1.4,3.5,10.2,16.1,21.2,21.6
				c10.9,5.4,43,3.6,44.8,5.6c1.8,2.1,2.2,29.7,2,33.2s3,25.6,6,45.2c2.9,19.3-1.5,42.6-1.7,43.4c1-0.7,1.9-1.5,2.6-2.5
				c4-6.7,5.4-41.3,4.4-52.3C156.9,511.8,152.3,476.5,152.9,465.5z"/>
			<path class="st23" d="M87.6,255.5c0,0-16.4,3.7-21.9,5c-0.9,0.2-1.7,0.9-2,1.7c-1.6,4-5.6,16.5-2.6,34.8
				c3.7,22.4,2.5,37.6,2.5,37.6L56,374c0,0-9.5,37.5-8.7,38.6c0.8,1,21.9,17.1,28.5,14.8c6.6-2.3,4.4-6,4.4-6s5.3,27.2,29,27
				s43-0.2,47-9.7c4-9.6-1.1-49.8-5.3-65.7c-4.2-15.9-14.1-47.6-14.1-47.6l34.6-38.3l-29.6-22.6c0,0-7.1-13.1-10-14.8
				s-4.4-0.3-4.4-0.3L87.6,255.5z"/>
			<path class="st23" d="M87.6,255.5c0,0-16.4,3.7-21.9,5c-0.9,0.2-1.7,0.9-2,1.7c-1.6,4-5.6,16.5-2.6,34.8
				c3.7,22.4,2.5,37.6,2.5,37.6L56,374c0,0-9.5,37.5-8.7,38.6c0.8,1,21.9,17.1,28.5,14.8c6.6-2.3,4.4-6,4.4-6s5.3,27.2,29,27
				s43-0.2,47-9.7c4-9.6-1.1-49.8-5.3-65.7c-4.2-15.9-14.1-47.6-14.1-47.6l34.6-38.3l-29.6-22.6c0,0-7.1-13.1-10-14.8
				s-4.4-0.3-4.4-0.3L87.6,255.5z"/>
			
				<linearGradient id="SVGID_14_" gradientUnits="userSpaceOnUse" x1="157.4955" y1="341.1257" x2="36.1426" y2="278.8292" gradientTransform="matrix(1 0 0 -1 0 668)">
				<stop  offset="0" style="stop-color:#180D5B"/>
				<stop  offset="0.1126" style="stop-color:#1A1562"/>
				<stop  offset="0.2924" style="stop-color:#202D73"/>
				<stop  offset="0.5168" style="stop-color:#295390"/>
				<stop  offset="0.7745" style="stop-color:#3687B8"/>
				<stop  offset="1" style="stop-color:#42BAE0"/>
			</linearGradient>
			<path class="st24" d="M87.6,255.5c0,0-16.4,3.7-21.9,5c-0.9,0.2-1.7,0.9-2,1.7c-1.6,4-5.6,16.5-2.6,34.8
				c3.7,22.4,2.5,37.6,2.5,37.6L56,374c0,0-9.5,37.5-8.7,38.6c0.8,1,21.9,17.1,28.5,14.8c6.6-2.3,4.4-6,4.4-6s5.3,27.2,29,27
				s43-0.2,47-9.7c4-9.6-1.1-49.8-5.3-65.7c-4.2-15.9-14.1-47.6-14.1-47.6l34.6-38.3l-29.6-22.6c0,0-7.1-13.1-10-14.8
				s-4.4-0.3-4.4-0.3L87.6,255.5z"/>
			<path class="st25" d="M131.4,249.2c0,0,6,7.3-2.7,17.2c-5.4,6.1-14.6,19.2-22.4,32.8c-4.9,8.5-9.4,13-12,20.3
				c0,0-0.4-8.7-0.7-22.1c-0.3-12.6-0.5-25.8,0.1-29.1C94.8,261.6,124.7,245.9,131.4,249.2z"/>
			<path class="st26" d="M108.8,271.2c0,0-3.1,1.9-4.2,1.8c-1.1-0.2-4.5-3.5-4.5-3.5s-8.6-0.2-9.5-3.8c-0.9-3.7-1.6-7.4-2.4-9.3
				c-0.9-1.9-4.6-11.1-4.6-14.8s0.1-10.4-1.5-13.9s-3.8-38.8,30.3-37.8c34,1,23.5,36.3,23.5,36.3s2.5,1.1,1,5.6s-1.8,5-2.6,7.3
				s-1.1,3.7-3.3,5.5l-0.6,4.2c0,0,1.6,6.4-2.6,12.6C123.4,267.7,108.8,271.2,108.8,271.2z"/>
			<path class="st27" d="M64.8,260.9c0,0-3.6,0.5-15.4,30.2c-6.6,16.5-16.7,33.6-18.9,45.9c-2.1,12.3-1,25.4,1.5,26.3
				c2.3,0.9,44.6,16.7,57.9,21.7c0.7,0.3,1.5-0.2,1.7-1l3.7-20.4l-26.2-10.1c0,0-5-6.1-9.7-8.4c0,0,5.3-9.7,4.9-12.3
				c-0.3-2.6,0.5-30-2.6-41.2C58.5,280.4,64.8,260.9,64.8,260.9z"/>
			
				<linearGradient id="SVGID_15_" gradientUnits="userSpaceOnUse" x1="118.5864" y1="373.3322" x2="27.5379" y2="310.4146" gradientTransform="matrix(1 0 0 -1 0 668)">
				<stop  offset="0" style="stop-color:#180D5B"/>
				<stop  offset="0.1126" style="stop-color:#1A1562"/>
				<stop  offset="0.2924" style="stop-color:#202D73"/>
				<stop  offset="0.5168" style="stop-color:#295390"/>
				<stop  offset="0.7745" style="stop-color:#3687B8"/>
				<stop  offset="1" style="stop-color:#42BAE0"/>
			</linearGradient>
			<path class="st28" d="M64.8,260.9c0,0-3.6,0.5-15.4,30.2c-6.6,16.5-16.7,33.6-18.9,45.9c-2.1,12.3-1,25.4,1.5,26.3
				c2.3,0.9,44.6,16.7,57.9,21.7c0.7,0.3,1.5-0.2,1.7-1l3.7-20.4l-26.2-10.1c0,0-5-6.1-9.7-8.4c0,0,5.3-9.7,4.9-12.3
				c-0.3-2.6,0.5-30-2.6-41.2C58.5,280.4,64.8,260.9,64.8,260.9z"/>
			<path class="st26" d="M80.1,339.2c0,0-3.6-2.4-4.5-2.8c-0.9-0.3-5.7-2-6.7-2.4c-0.7-0.3-3.5-0.1-4.9,0.1c-0.5,0.1-1,0.3-1.2,0.8
				c-1.1,2.1-4.2,8.1-3.9,10.4c0,0,8.7,5.5,9.7,8l1.4,0.3C70.1,353.5,76,341,80.1,339.2z"/>
			<path class="st21" d="M151.1,373c-1-3.8-2.3-8.6-3.8-13.6l-53.2,22.8c0,0,15.9,19.6,43.8,18.3c7.6-0.3,13.2-3.1,17.3-5.5
				C154,386.3,152.5,378.3,151.1,373z"/>
			<path class="st21" d="M171.6,287c0,0-14,1.9-25.3,19.9s-19.6,38.7-19.6,38.7l-0.4,2.3c-1,6.1-7.5,9.6-13.2,7.1
				c-12-5.3-29.7-13.4-33-15.8c0,0-10.6,5.9-13.5,19.7c-2.3,11-1.7,11.1-1.7,11.1s47.2,22,65.4,21.8s41.4-60.2,43.9-72.5
				C176.8,306.8,179.6,290.5,171.6,287z"/>
			<path class="st27" d="M171.6,287c0,0-14,1.9-25.3,19.9s-19.6,38.7-19.6,38.7l-0.4,2.3c-1,6.1-7.5,9.6-13.2,7.1
				c-12-5.3-29.7-13.4-33-15.8c0,0-10.6,5.9-13.5,19.7c-2.3,11-1.7,11.1-1.7,11.1s47.2,22,65.4,21.8s41.4-60.2,43.9-72.5
				C176.8,306.8,179.6,290.5,171.6,287z"/>
			
				<linearGradient id="SVGID_16_" gradientUnits="userSpaceOnUse" x1="203.4844" y1="353.2557" x2="72.0934" y2="291.6242" gradientTransform="matrix(1 0 0 -1 0 668)">
				<stop  offset="0" style="stop-color:#180D5B"/>
				<stop  offset="0.1126" style="stop-color:#1A1562"/>
				<stop  offset="0.2924" style="stop-color:#202D73"/>
				<stop  offset="0.5168" style="stop-color:#295390"/>
				<stop  offset="0.7745" style="stop-color:#3687B8"/>
				<stop  offset="1" style="stop-color:#42BAE0"/>
			</linearGradient>
			<path class="st29" d="M171.6,287c0,0-14,1.9-25.3,19.9s-19.6,38.7-19.6,38.7l-0.4,2.3c-1,6.1-7.5,9.6-13.2,7.1
				c-12-5.3-29.7-13.4-33-15.8c0,0-10.6,5.9-13.5,19.7c-2.3,11-1.7,11.1-1.7,11.1s47.2,22,65.4,21.8s41.4-60.2,43.9-72.5
				C176.8,306.8,179.6,290.5,171.6,287z"/>
			<path class="st23" d="M119.9,357.8c0,0,6,5.6,8.5,2.5c2.6-3,1.8-3.4,1.8-3.4s5.4,0,6-3.4c0.7-3.4,3.3-1.6,3.4-5.3
				c0.2-3.7-4.3-3-4.3-3L119.9,357.8z"/>
			<path class="st26" d="M112.7,354.8c0,0,1.6-1.5,3.7-3.3s5.5-9.2,6.1-9.8c0.6-0.7,7.7-6.1,11.1-6.2c3.4-0.1,0.9,3.7,0.1,4.3
				c-0.8,0.5-4.1,2.2-4.1,2.2s-3.4,2.9-3.8,3.3c-0.4,0.4,9.6-0.7,11.2,0.3c1.6,1,1.2,3.5,0.1,4.2c-1.1,0.7-2,0.7-2,0.7
				s1.1,3-1.9,4.4s-3.7,0.6-3.7,0.6s-0.3,5.2-5.2,4.2L112.7,354.8z"/>
			<path class="st30" d="M81.3,209.6c0,0-4.4,14.1,7.2,10.1c11.7-4,22.3-10.8,25.9-8.2c2.8,2,2.7,7.9,2.4,10.7
				c-0.1,0.9,0.2,1.9,0.7,2.6l3.5,5c0.4,0.6,0.6,1.2,0.7,1.9l0.2,3.5c0.1,0.9,0.8,1.6,1.7,1.6h0.8c0.9,0.1,1.7-0.6,1.8-1.5l0.9-5.1
				c0,0,2.8-6.9,8.6-4.2c0,0,3.9-5.2,2.6-16.4c-1.3-11.2-6.3-22.8-28.2-24.7C88.2,183.3,81.3,209.6,81.3,209.6z"/>
			<path class="st31" d="M114.8,283.7l-3.3-2.5c0,0-3,2.5-4.2,5.2s0,11.2,0,11.2l-1,1.7l-1.2-2.2l-1-10.1c0,0,1.1-7.4,1.2-7.6
				s6.3,0.7,6.3,0.7S113.8,281.6,114.8,283.7z"/>
			<path class="st31" d="M99,273.7c0,0-3.5,0.2-5.1,1.5c0,0,3.7,0.2,4.3,0.2C98.8,275.5,99,273.7,99,273.7z"/>
			<path class="st21" d="M105.7,274.5l5.9,5.5c0,0-5.2,2.4-6.6,7c0,0-6.4,1.2-7-1.1c-0.6-2.3,0-8.2-0.7-10.8
				C96.5,272.5,105.7,274.5,105.7,274.5z"/>
			<path class="st21" d="M98.2,285.7c0,0-1.1,4.8-2.3,6.8c-1.2,2-2.4,4.2-2.4,4.2l0.1,28.2c0,0,10.4-21.4,12.6-25.7
				c0,0-0.3-10.3-1.3-12.3C104,285,98.2,285.7,98.2,285.7z"/>
			<path class="st32" d="M126.1,244c-6.8,19.7-26,25.5-26,25.5s3.4,3.3,4.5,3.5s4.2-1.8,4.2-1.8s14.7-3.6,18.9-9.8
				c4.2-6.2,2.6-12.6,2.6-12.6l0.6-4.2C127.8,245.6,126.1,244,126.1,244z"/>
			<path class="st21" d="M141.7,267c0,0-2.7,9.3-3,9.6c-0.3,0.4-6.8-0.4-6.8-0.4l3.1,5.9c0,0-32.3,34.6-39,53.3
				c0,0,15.3-23.6,42.2-51.8l-3.8-5.8l6.6,1.3L141.7,267z"/>
			<path class="st21" d="M88.7,258.8l-1.7,2l2,1.9l-6,5.4c0,0-1.8,37.9,5.5,63c0,0-9.9-23-7.7-64l6.5-4.4l-2.1-2.1L88.7,258.8z"/>
			<path class="st20" d="M109,468c0,0,0.1,0,0.2,0.2l-8.4-8.9c3.9,5.4-0.6,30.4-1,36.1c-0.5,5.7,4.5,17.5,6.3,31.3
				c1.8,13.8-1.9,33.5-1.9,33.6c2.4-1.4,4.3-3.7,5.1-7.3c2.9-12.9,1.8-37.1-1.4-47.1C104.8,495.7,109,468,109,468z"/>
			<path class="st33" d="M124.5,237c0.9,0.1,1.7-0.6,1.8-1.5l0.9-5.1c0,0,2.8-6.9,8.6-4.2c0,0,3.7-5,2.7-15.5
				c-6.5,9.7-20.8,14.2-20.8,14.2l3.5,5c0.4,0.6,0.6,1.2,0.7,1.9l0.2,3.5c0.1,0.9,0.8,1.6,1.7,1.6L124.5,237z"/>
		</g>
	</g>
</g>
<g class="st34">
	
		<ellipse transform="matrix(0.5463 -0.8376 0.8376 0.5463 -347.7504 542.1508)" class="st35" cx="326.6" cy="592.1" rx="3.5" ry="3.5"/>
	
		<ellipse transform="matrix(0.5463 -0.8376 0.8376 0.5463 -334.5524 530.783)" class="st35" cx="322.7" cy="574.2" rx="1.7" ry="1.7"/>
	
		<ellipse transform="matrix(0.5463 -0.8376 0.8376 0.5463 -326.4073 546.6668)" class="st35" cx="341.4" cy="574.6" rx="5.1" ry="5.1"/>
</g>
<ellipse transform="matrix(0.5463 -0.8376 0.8376 0.5463 -1.7166 695.6881)" class="st36" cx="641.3" cy="349.4" rx="4.1" ry="4.1"/>
<ellipse transform="matrix(0.5463 -0.8376 0.8376 0.5463 -32.9305 243.7817)" class="st37" cx="208.6" cy="152.3" rx="4.1" ry="4.1"/>
<ellipse transform="matrix(0.5463 -0.8376 0.8376 0.5463 62.3331 273.803)" class="st37" cx="283.9" cy="79.4" rx="4.1" ry="4.1"/>
<ellipse transform="matrix(0.5463 -0.8376 0.8376 0.5463 4.6559 323.7614)" class="st36" cx="301.2" cy="157.6" rx="2.5" ry="2.5"/>
<ellipse transform="matrix(0.5463 -0.8376 0.8376 0.5463 87.6941 303.8645)" class="st38" cx="324.3" cy="71" rx="2.5" ry="2.5"/>
<ellipse transform="matrix(0.5463 -0.8376 0.8376 0.5463 33.1845 649.195)" class="st38" cx="615.8" cy="294" rx="2.5" ry="2.5"/>
<ellipse transform="matrix(0.5463 -0.8376 0.8376 0.5463 58.9701 668.1865)" class="st39" cx="646.3" cy="279.7" rx="2.6" ry="2.6"/>
<ellipse transform="matrix(0.5463 -0.8376 0.8376 0.5463 61.9983 740.6337)" class="st39" cx="714.6" cy="313.1" rx="1.6" ry="1.6"/>
<ellipse transform="matrix(0.5463 -0.8376 0.8376 0.5463 70.5183 735.5967)" class="st39" cx="714.3" cy="302.7" rx="3.4" ry="3.4"/>
<ellipse transform="matrix(0.5463 -0.8376 0.8376 0.5463 64.3578 661.972)" class="st39" cx="643.2" cy="271.6" rx="1.7" ry="1.7"/>
<g class="st34">
	
		<ellipse transform="matrix(0.5463 -0.8376 0.8376 0.5463 -86.8204 720.988)" class="st35" cx="622.1" cy="440.6" rx="4.1" ry="4.1"/>
	
		<ellipse transform="matrix(0.5463 -0.8376 0.8376 0.5463 -68.0545 707.4792)" class="st35" cx="619" cy="416.6" rx="2.9" ry="2.9"/>
</g>
<g class="st34">
	
		<ellipse transform="matrix(0.5463 -0.8376 0.8376 0.5463 -57.5267 423.5559)" class="st35" cx="362.2" cy="264.9" rx="4.1" ry="4.1"/>
	
		<ellipse transform="matrix(0.5463 -0.8376 0.8376 0.5463 -38.761 410.0473)" class="st35" cx="359.1" cy="240.8" rx="2.9" ry="2.9"/>
</g>
</svg>
