<?xml version="1.0" encoding="utf-8"?>
<!-- Generator: Adobe Illustrator 21.0.0, SVG Export Plug-In . SVG Version: 6.00 Build 0)  -->
<svg version="1.1" id="Layer_1" xmlns="http://www.w3.org/2000/svg" xmlns:xlink="http://www.w3.org/1999/xlink" x="0px" y="0px"
	 viewBox="0 0 767 667.9" style="enable-background:new 0 0 767 667.9;" xml:space="preserve">
<style type="text/css">
	.st0{fill:none;stroke:#97FFB2;stroke-miterlimit:10;}
	.st1{opacity:0.75;fill:url(#SVGID_1_);enable-background:new    ;}
	.st2{fill:#97FFB2;}
	.st3{fill:#FFED94;}
	.st4{fill:#FF92B6;}
	.st5{opacity:0.5;fill:none;stroke:#490295;stroke-miterlimit:10;enable-background:new    ;}
	.st6{opacity:0.3;}
	.st7{fill:none;stroke:#5477FF;stroke-miterlimit:10;}
	.st8{fill:none;stroke:#5477FF;stroke-miterlimit:10;stroke-dasharray:5.1304,5.1304;}
	.st9{fill:none;stroke:#5477FF;stroke-miterlimit:10;stroke-dasharray:5.2273,5.2273;}
	.st10{fill:none;stroke:#5477FF;stroke-miterlimit:10;stroke-dasharray:5.3462,5.3462;}
	.st11{opacity:0.5;fill:url(#SVGID_2_);enable-background:new    ;}
	.st12{fill:none;stroke:#490295;stroke-miterlimit:10;}
</style>
<path class="st0" d="M625.1,365.4L411.9,236.8c-3.1-1.8-5-5.1-5-8.7V61.2c0-4.6,5-5,8.9-2.7l208.5,125.8c4.7,2.8,7.6,7.9,7.6,13.4
	v163.8C632,365,628.2,367.2,625.1,365.4z"/>
<linearGradient id="SVGID_1_" gradientUnits="userSpaceOnUse" x1="382.9" y1="446.4139" x2="610.9019" y2="446.4139" gradientTransform="matrix(1 0 0 -1 0 668)">
	<stop  offset="0" style="stop-color:#C2D6FF"/>
	<stop  offset="1" style="stop-color:#EEFFFE;stop-opacity:0.8"/>
</linearGradient>
<path class="st1" d="M604.1,374.4L387.9,247.8c-3.1-1.8-5-5.1-5-8.7V72.2c0-4.6,5-5,8.9-2.7l211.5,123.8c4.7,2.8,7.6,7.9,7.6,13.4
	v163.8C611,374,607.2,376.2,604.1,374.4z"/>
<g>
	<path class="st2" d="M451.5,60.2c0,1.7-1.3,2.7-3,2.3s-3-2.1-3-3.7c0-1.7,1.3-2.7,3-2.3C450.2,56.8,451.5,58.5,451.5,60.2z"/>
	<path class="st3" d="M461.5,66.2c0,1.7-1.3,2.7-3,2.3s-3-2.1-3-3.7s1.3-2.7,3-2.3C460.2,62.8,461.5,64.5,461.5,66.2z"/>
	<path class="st4" d="M471.5,72.2c0,1.7-1.3,2.7-3,2.3s-3-2.1-3-3.7s1.3-2.7,3-2.3S471.5,70.5,471.5,72.2z"/>
</g>
<path class="st5" d="M388.5,239.4c0,0,31-16,42-8s5,11,19,11s9,38,33,27s27-23,41-8s38,20,58-11"/>
<g class="st6">
	<g>
		<line class="st7" x1="545.5" y1="214.4" x2="545.5" y2="216.9"/>
		<line class="st8" x1="545.5" y1="222" x2="545.5" y2="332.3"/>
		<line class="st7" x1="545.5" y1="334.9" x2="545.5" y2="337.4"/>
	</g>
</g>
<g class="st6">
	<g>
		<line class="st7" x1="469.5" y1="230.4" x2="469.5" y2="232.9"/>
		<line class="st9" x1="469.5" y1="238.1" x2="469.5" y2="287.8"/>
		<line class="st7" x1="469.5" y1="290.4" x2="469.5" y2="292.9"/>
	</g>
</g>
<g class="st6">
	<g>
		<line class="st7" x1="442.5" y1="203.4" x2="442.5" y2="205.9"/>
		<line class="st10" x1="442.5" y1="211.2" x2="442.5" y2="272.7"/>
		<line class="st7" x1="442.5" y1="275.4" x2="442.5" y2="277.9"/>
	</g>
</g>
<linearGradient id="SVGID_2_" gradientUnits="userSpaceOnUse" x1="541.8892" y1="460.5028" x2="490.3467" y2="370.4588" gradientTransform="matrix(1 0 0 -1 0 668)">
	<stop  offset="0" style="stop-color:#FF7BAC"/>
	<stop  offset="1" style="stop-color:#FF7BAC;stop-opacity:0"/>
</linearGradient>
<path class="st11" d="M390,221.9c0,0,53-50,79,9c0,0,13,24,45-3c0,0,25-22,48-9s30-9,30-9v161l-201.5-119L390,221.9z"/>
<path class="st12" d="M390,221.9c0,0,53-50,79,9c0,0,13,24,45-3c0,0,25-22,48-9s30-9,30-9"/>
<g>
	<path class="st2" d="M446.5,204.2c0,1.7-1.3,2.7-3,2.3s-3-2.1-3-3.7s1.3-2.7,3-2.3S446.5,202.5,446.5,204.2z"/>
	<path class="st3" d="M472.5,233.2c0,1.7-1.3,2.7-3,2.3s-3-2.1-3-3.7s1.3-2.7,3-2.3S472.5,231.5,472.5,233.2z"/>
	<path class="st4" d="M548.5,215.2c0,1.7-1.3,2.7-3,2.3s-3-2.1-3-3.7s1.3-2.7,3-2.3S548.5,213.5,548.5,215.2z"/>
</g>
</svg>
