<?xml version="1.0" encoding="utf-8"?>
<!-- Generator: Adobe Illustrator 21.0.0, SVG Export Plug-In . SVG Version: 6.00 Build 0)  -->
<svg version="1.1" id="Layer_1" xmlns="http://www.w3.org/2000/svg" xmlns:xlink="http://www.w3.org/1999/xlink" x="0px" y="0px"
	 viewBox="0 0 767 667.9" style="enable-background:new 0 0 767 667.9;" xml:space="preserve">
<style type="text/css">
	.st0{fill:none;stroke:url(#SVGID_1_);stroke-miterlimit:10;}
	.st1{fill:none;stroke:url(#SVGID_2_);stroke-miterlimit:10;}
	.st2{opacity:0.75;fill:url(#SVGID_3_);enable-background:new    ;}
	.st3{fill:url(#SVGID_4_);}
	.st4{fill:#FFFFFF;}
	.st5{fill:url(#SVGID_5_);}
	.st6{fill:url(#SVGID_6_);}
	.st7{fill:url(#SVGID_7_);}
	.st8{fill:url(#SVGID_8_);}
	.st9{fill:url(#SVGID_9_);}
	.st10{fill:url(#SVGID_10_);}
	.st11{fill:url(#SVGID_11_);}
	.st12{fill:none;stroke:#97FFB2;stroke-miterlimit:10;}
	.st13{fill:none;stroke:url(#SVGID_12_);stroke-miterlimit:10;}
	.st14{fill:none;stroke:url(#SVGID_13_);stroke-miterlimit:10;}
	.st15{fill:none;stroke:url(#SVGID_14_);stroke-miterlimit:10;}
	.st16{opacity:0.9;fill:#42E8E0;enable-background:new    ;}
</style>
<linearGradient id="SVGID_1_" gradientUnits="userSpaceOnUse" x1="170.0051" y1="277.5506" x2="303.2773" y2="410.8227" gradientTransform="matrix(1 0 0 -1 0 668)">
	<stop  offset="0" style="stop-color:#33E9DD"/>
	<stop  offset="0.4491" style="stop-color:#48D1E9"/>
	<stop  offset="1" style="stop-color:#5EB8F6"/>
</linearGradient>
<path class="st0" d="M296.5,250.9v33c0,0,4,9-18,21l-113,65c0,0-13,5-2,13l23,13"/>
<g>
	
		<linearGradient id="SVGID_2_" gradientUnits="userSpaceOnUse" x1="200.5" y1="461.25" x2="334" y2="461.25" gradientTransform="matrix(1 0 0 -1 0 668)">
		<stop  offset="0" style="stop-color:#33E9DD"/>
		<stop  offset="0.4491" style="stop-color:#48D1E9"/>
		<stop  offset="1" style="stop-color:#5EB8F6"/>
	</linearGradient>
	<path class="st1" d="M205.4,187.9L329,116.5c2.5-1.4,4.5-0.3,4.5,2.6V218c0,2.9-2,6.3-4.5,7.7L205.5,297c-2.5,1.4-4.5,0.3-4.5-2.6
		v-98.9C201,192.8,203,189.3,205.4,187.9z"/>
	
		<linearGradient id="SVGID_3_" gradientUnits="userSpaceOnUse" x1="-835.0986" y1="400.3907" x2="-741.9848" y2="569.797" gradientTransform="matrix(-1 0 0 -1 -529.1456 668)">
		<stop  offset="0" style="stop-color:#C2D6FF"/>
		<stop  offset="1" style="stop-color:#EEFFFE;stop-opacity:0.8"/>
	</linearGradient>
	<path class="st2" d="M213.4,192.9L337,121.5c2.5-1.4,4.5-0.3,4.5,2.6V223c0,2.9-2,6.3-4.5,7.7L213.5,302c-2.5,1.4-4.5,0.3-4.5-2.6
		v-98.9C209,197.8,211,194.3,213.4,192.9z"/>
	<g>
		
			<linearGradient id="SVGID_4_" gradientUnits="userSpaceOnUse" x1="-857.1409" y1="495.2322" x2="-801.4747" y2="434.3144" gradientTransform="matrix(-1 0 0 -1 -529.1456 668)">
			<stop  offset="0" style="stop-color:#A7ECFF"/>
			<stop  offset="1" style="stop-color:#365BFF"/>
		</linearGradient>
		<path class="st3" d="M285.2,182l15.1,21c0.1,0.2,0.4,0.3,0.9,0.1c0.2-0.1,0.5-0.4,0.6-0.6l22.9-35.2c4,3.5,6.3,9.5,6.4,17.4
			c0.1,18.9-13.3,42-29.8,51.6c-16.5,9.5-29.9,1.9-30-17.1C271.2,206.9,276.8,192.9,285.2,182z"/>
		<path class="st4" d="M287.2,176.7c4.2-5,9-9.3,14.1-12.2c8.8-5.1,16.8-5.3,22.3-1.4l-21.9,33.8L287.2,176.7z"/>
	</g>
	<g>
		
			<linearGradient id="SVGID_5_" gradientUnits="userSpaceOnUse" x1="-790.8456" y1="426" x2="-746.5457" y2="426" gradientTransform="matrix(-1 0 0 -1 -529.1456 668)">
			<stop  offset="0" style="stop-color:#596A87"/>
			<stop  offset="0.3908" style="stop-color:#4F6283"/>
			<stop  offset="1" style="stop-color:#36507A"/>
		</linearGradient>
		<polygon class="st5" points="261.7,231.3 217.4,256.9 217.4,252.7 261.7,227.1 		"/>
		
			<linearGradient id="SVGID_6_" gradientUnits="userSpaceOnUse" x1="-790.9088" y1="423.6" x2="-765.5515" y2="423.6" gradientTransform="matrix(-1 0 0 -1 -529.1456 668)">
			<stop  offset="0" style="stop-color:#596A87"/>
			<stop  offset="0.3908" style="stop-color:#4F6283"/>
			<stop  offset="1" style="stop-color:#36507A"/>
		</linearGradient>
		<polygon class="st6" points="261.8,239.2 236.4,253.8 236.4,249.6 261.7,235 		"/>
		
			<linearGradient id="SVGID_7_" gradientUnits="userSpaceOnUse" x1="-790.8456" y1="433.8" x2="-746.5457" y2="433.8" gradientTransform="matrix(-1 0 0 -1 -529.1456 668)">
			<stop  offset="0" style="stop-color:#596A87"/>
			<stop  offset="0.3908" style="stop-color:#4F6283"/>
			<stop  offset="1" style="stop-color:#36507A"/>
		</linearGradient>
		<polygon class="st7" points="261.7,219.3 261.7,223.5 217.4,249.1 217.4,244.9 		"/>
	</g>
	<g>
		
			<linearGradient id="SVGID_8_" gradientUnits="userSpaceOnUse" x1="-778.8911" y1="453.75" x2="-747.1911" y2="453.75" gradientTransform="matrix(-1 0 0 -1 -529.1456 668)">
			<stop  offset="0" style="stop-color:#596A87"/>
			<stop  offset="0.3908" style="stop-color:#4F6283"/>
			<stop  offset="1" style="stop-color:#36507A"/>
		</linearGradient>
		<polygon class="st8" points="249.7,206.6 218,224.9 218,221.9 249.7,203.6 		"/>
		
			<linearGradient id="SVGID_9_" gradientUnits="userSpaceOnUse" x1="-764.9088" y1="444.05" x2="-746.757" y2="444.05" gradientTransform="matrix(-1 0 0 -1 -529.1456 668)">
			<stop  offset="0" style="stop-color:#596A87"/>
			<stop  offset="0.3908" style="stop-color:#4F6283"/>
			<stop  offset="1" style="stop-color:#36507A"/>
		</linearGradient>
		<polygon class="st9" points="235.8,220.2 217.6,230.7 217.6,227.7 235.8,217.2 		"/>
		
			<linearGradient id="SVGID_10_" gradientUnits="userSpaceOnUse" x1="-778.8456" y1="459.35" x2="-747.1456" y2="459.35" gradientTransform="matrix(-1 0 0 -1 -529.1456 668)">
			<stop  offset="0" style="stop-color:#596A87"/>
			<stop  offset="0.3908" style="stop-color:#4F6283"/>
			<stop  offset="1" style="stop-color:#36507A"/>
		</linearGradient>
		<polygon class="st10" points="249.7,198 249.7,201 218,219.3 218,216.3 		"/>
	</g>
	
		<linearGradient id="SVGID_11_" gradientUnits="userSpaceOnUse" x1="-758.4498" y1="479.2787" x2="-738.32" y2="450.7466" gradientTransform="matrix(-1 0 0 -1 -529.1456 668)">
		<stop  offset="0" style="stop-color:#FFFFFF"/>
		<stop  offset="0.2619" style="stop-color:#F5F6F9"/>
		<stop  offset="0.7107" style="stop-color:#D9DDE9"/>
		<stop  offset="1" style="stop-color:#C4CADC"/>
	</linearGradient>
	<path class="st11" d="M219.7,201.2l-2-1.1c-0.4-0.2-0.4-1,0-1.7c0.2-0.4,0.5-0.6,0.7-0.8c0.3-0.2,0.5-0.2,0.7-0.1l2,1.1l2-3.4
		c0.2-0.4,0.5-0.6,0.7-0.8s0.5-0.2,0.7-0.1c0.4,0.2,0.4,1,0,1.7l-2,3.5l2,1.1c0.4,0.2,0.4,1,0,1.7c-0.2,0.4-0.5,0.6-0.7,0.8
		c-0.3,0.2-0.5,0.2-0.7,0.1l-2-1.1l-2,3.4c-0.2,0.4-0.5,0.6-0.7,0.8c-0.3,0.2-0.5,0.2-0.7,0.1c-0.4-0.2-0.4-1,0-1.7L219.7,201.2z"/>
	<polyline class="st12" points="249.7,205.4 263,197.9 289,210.9 	"/>
</g>
<g>
	
		<linearGradient id="SVGID_12_" gradientUnits="userSpaceOnUse" x1="175.1678" y1="436.7566" x2="192.8535" y2="436.7566" gradientTransform="matrix(1 0 0 -1 0 668)">
		<stop  offset="0" style="stop-color:#33E9DD"/>
		<stop  offset="0.4162" style="stop-color:#7DEFEB"/>
		<stop  offset="0.8137" style="stop-color:#BFF4F6"/>
		<stop  offset="1" style="stop-color:#D8F6FB"/>
	</linearGradient>
	<polyline class="st13" points="175.5,235.4 184.5,227.4 192.5,235.4 	"/>
	
		<linearGradient id="SVGID_13_" gradientUnits="userSpaceOnUse" x1="175.1678" y1="428.7566" x2="192.8535" y2="428.7566" gradientTransform="matrix(1 0 0 -1 0 668)">
		<stop  offset="0" style="stop-color:#33E9DD"/>
		<stop  offset="0.4162" style="stop-color:#7DEFEB"/>
		<stop  offset="0.8137" style="stop-color:#BFF4F6"/>
		<stop  offset="1" style="stop-color:#D8F6FB"/>
	</linearGradient>
	<polyline class="st14" points="175.5,243.4 184.5,235.4 192.5,243.4 	"/>
	
		<linearGradient id="SVGID_14_" gradientUnits="userSpaceOnUse" x1="175.1678" y1="420.7566" x2="192.8535" y2="420.7566" gradientTransform="matrix(1 0 0 -1 0 668)">
		<stop  offset="0" style="stop-color:#33E9DD"/>
		<stop  offset="0.4162" style="stop-color:#7DEFEB"/>
		<stop  offset="0.8137" style="stop-color:#BFF4F6"/>
		<stop  offset="1" style="stop-color:#D8F6FB"/>
	</linearGradient>
	<polyline class="st15" points="175.5,251.4 184.5,243.4 192.5,251.4 	"/>
</g>
<ellipse transform="matrix(0.5463 -0.8376 0.8376 0.5463 4.6559 323.7614)" class="st16" cx="301.2" cy="157.6" rx="2.5" ry="2.5"/>
</svg>
