<?xml version="1.0" encoding="utf-8"?>
<!-- Generator: Adobe Illustrator 21.0.0, SVG Export Plug-In . SVG Version: 6.00 Build 0)  -->
<svg version="1.1" id="Layer_1" xmlns="http://www.w3.org/2000/svg" xmlns:xlink="http://www.w3.org/1999/xlink" x="0px" y="0px"
	 viewBox="0 0 767 667.9" style="enable-background:new 0 0 767 667.9;" xml:space="preserve">
<style type="text/css">
	.st0{opacity:0.9;fill:url(#SVGID_1_);enable-background:new    ;}
	.st1{opacity:0.2;fill:#757575;enable-background:new    ;}
	.st2{opacity:0.75;fill:url(#SVGID_2_);enable-background:new    ;}
	.st3{fill:#490295;}
	.st4{opacity:0.3;fill:#42E8E0;enable-background:new    ;}
</style>
<g>
	<g>
		<g>
			
				<linearGradient id="SVGID_1_" gradientUnits="userSpaceOnUse" x1="190.0131" y1="289.1605" x2="293.0361" y2="226.2783" gradientTransform="matrix(1 0 0 -1 0 668)">
				<stop  offset="0" style="stop-color:#C2D6FF"/>
				<stop  offset="1" style="stop-color:#EEFFFE;stop-opacity:0.8"/>
			</linearGradient>
			<path class="st0" d="M247.2,449.4l-77.9-45.3c-1.7-1-1.7-3.5,0-4.5l51.9-30.3c3.6-2.1,8-2.1,11.6,0l77.9,45.3
				c1.7,1,1.7,3.5,0,4.5l-51.9,30.3C255.2,451.5,250.8,451.5,247.2,449.4z"/>
			<path class="st1" d="M273,465.9l-6.7-3.8c-1.7-1-1.7-3.5,0-4.5l51.9-30.3c3.6-2.1,8-2.1,11.6,0l3.9,2.3c1.7,1,1.7,3.5,0,4.5
				l-51.9,30.3C278.2,466.5,276.6,468,273,465.9z"/>
			
				<linearGradient id="SVGID_2_" gradientUnits="userSpaceOnUse" x1="282.5503" y1="235.8007" x2="318.5455" y2="213.8304" gradientTransform="matrix(1 0 0 -1 0 668)">
				<stop  offset="0" style="stop-color:#C2D6FF"/>
				<stop  offset="1" style="stop-color:#EEFFFE;stop-opacity:0.8"/>
			</linearGradient>
			<path class="st2" d="M273,462.9l-6.7-3.8c-1.7-1-1.7-3.5,0-4.5l51.9-30.3c3.6-2.1,8-2.1,11.6,0l3.9,2.3c1.7,1,1.7,3.5,0,4.5
				l-51.9,30.3C278.2,463.5,276.6,465,273,462.9z"/>
		</g>
		<g>
			<path class="st3" d="M297.4,446.2l1.5,1.7l-0.8,0.4l-4.8-5.5l0.9-0.5l8.9,3.4l-0.8,0.4l-2.8-1.1L297.4,446.2z M298.7,444.7
				l-2.6-1c-0.6-0.2-1.1-0.4-1.6-0.7l0,0c0.3,0.3,0.6,0.6,0.9,1l1.4,1.6L298.7,444.7z"/>
			<path class="st3" d="M297.3,440.9c0.3-0.2,0.7-0.5,1.4-0.9c0.8-0.4,1.5-0.6,2.3-0.5c0.7,0,1.4,0.3,2,0.7c0.6,0.4,1,0.8,1,1.2
				c0.1,0.5-0.3,1.1-1.1,1.5c-0.2,0.1-0.5,0.2-0.7,0.3l2.8,1.8l-0.8,0.4L297.3,440.9z M301.4,442.6c0.2-0.1,0.5-0.2,0.7-0.3
				c0.9-0.5,1-1.1,0-1.7c-0.9-0.6-1.9-0.6-2.8-0.1c-0.3,0.2-0.6,0.3-0.7,0.4L301.4,442.6z"/>
			<path class="st3" d="M302,438.4c0.3-0.2,0.7-0.5,1.4-0.9c0.8-0.4,1.5-0.6,2.3-0.5c0.7,0,1.4,0.3,2,0.7c0.6,0.4,1,0.8,1,1.2
				c0.1,0.5-0.3,1.1-1.1,1.5c-0.2,0.1-0.5,0.2-0.7,0.3l2.8,1.8l-0.8,0.4L302,438.4z M306.1,440.1c0.2-0.1,0.5-0.2,0.7-0.3
				c0.9-0.5,1-1.1,0-1.7c-0.9-0.6-1.9-0.6-2.8-0.1c-0.3,0.2-0.6,0.3-0.7,0.4L306.1,440.1z"/>
		</g>
	</g>
</g>
<ellipse transform="matrix(0.5463 -0.8376 0.8376 0.5463 87.6941 303.8645)" class="st4" cx="324.3" cy="71" rx="2.5" ry="2.5"/>
</svg>
