<?xml version="1.0" encoding="utf-8"?>
<!-- Generator: Adobe Illustrator 21.0.0, SVG Export Plug-In . SVG Version: 6.00 Build 0)  -->
<svg version="1.1" id="Layer_1" xmlns="http://www.w3.org/2000/svg" xmlns:xlink="http://www.w3.org/1999/xlink" x="0px" y="0px"
	 viewBox="0 0 767 667.9" style="enable-background:new 0 0 767 667.9;" xml:space="preserve">
<style type="text/css">
	.st0{opacity:0.8;fill:#33E9DD;enable-background:new    ;}
	.st1{opacity:0.5;fill:#33E9DD;enable-background:new    ;}
	.st2{opacity:5.000000e-02;enable-background:new    ;}
	.st3{opacity:0.5;fill:url(#SVGID_1_);enable-background:new    ;}
	.st4{opacity:0.5;fill:url(#SVGID_2_);enable-background:new    ;}
	.st5{fill:#8AABFF;}
	.st6{opacity:0.1;fill:#C476B5;enable-background:new    ;}
	.st7{fill:url(#SVGID_3_);}
	.st8{fill:url(#SVGID_4_);}
	.st9{opacity:0.5;fill:#83AEC6;enable-background:new    ;}
	.st10{opacity:0.5;fill:url(#SVGID_5_);enable-background:new    ;}
	.st11{opacity:0.5;fill:url(#SVGID_6_);enable-background:new    ;}
	.st12{fill:#FFE28F;}
	.st13{fill:url(#SVGID_7_);}
	.st14{fill:#F769B7;}
	.st15{fill:url(#SVGID_8_);}
	.st16{fill:#D8F6FB;}
	.st17{fill:url(#SVGID_9_);}
	.st18{fill:none;stroke:url(#SVGID_10_);stroke-miterlimit:10;}
	.st19{opacity:0.2;fill:#42E8E0;enable-background:new    ;}
</style>
<g>
	<g>
		<polygon class="st0" points="708,428.4 682.5,413.7 708,398.9 733.6,413.7 		"/>
		<polygon class="st1" points="708,427.7 683.1,413.3 682.5,413.7 708,428.4 733.6,413.7 733,413.3 		"/>
		<polygon class="st2" points="708,500.8 673.3,480.8 708,460.7 742.8,480.8 		"/>
		
			<linearGradient id="SVGID_1_" gradientUnits="userSpaceOnUse" x1="695.25" y1="312.0711" x2="695.25" y2="410.1019" gradientTransform="matrix(1 0 0 1 0 94)">
			<stop  offset="0" style="stop-color:#33E9DD"/>
			<stop  offset="0.9629" style="stop-color:#33E9DD;stop-opacity:3.705311e-02"/>
			<stop  offset="1" style="stop-color:#33E9DD;stop-opacity:0"/>
		</linearGradient>
		<polygon class="st3" points="682.5,413.7 682.5,480.8 708,495.5 708,428.4 		"/>
		
			<linearGradient id="SVGID_2_" gradientUnits="userSpaceOnUse" x1="2390.8152" y1="312.0711" x2="2390.8152" y2="410.1019" gradientTransform="matrix(-1 0 0 1 3111.6152 94)">
			<stop  offset="0" style="stop-color:#33E9DD"/>
			<stop  offset="0.9629" style="stop-color:#33E9DD;stop-opacity:3.705311e-02"/>
			<stop  offset="1" style="stop-color:#33E9DD;stop-opacity:0"/>
		</linearGradient>
		<polygon class="st4" points="733.6,413.7 733.6,480.8 708,495.5 708,428.4 		"/>
	</g>
	<g>
		<polygon class="st5" points="666,426.4 640.5,411.7 666,396.9 691.6,411.7 		"/>
		<polygon class="st6" points="666,425.7 641.1,411.3 640.5,411.7 666,426.4 691.6,411.7 691,411.3 		"/>
		<polygon class="st2" points="666,525.2 632.3,505.8 666,486.3 699.8,505.8 		"/>
		
			<linearGradient id="SVGID_3_" gradientUnits="userSpaceOnUse" x1="653.25" y1="283.8987" x2="653.25" y2="453.7538" gradientTransform="matrix(1 0 0 1 0 94)">
			<stop  offset="0" style="stop-color:#57BDFD"/>
			<stop  offset="0.1659" style="stop-color:#5BBEFD;stop-opacity:0.8341"/>
			<stop  offset="0.3204" style="stop-color:#66C3FD;stop-opacity:0.6796"/>
			<stop  offset="0.4704" style="stop-color:#79CAFD;stop-opacity:0.5296"/>
			<stop  offset="0.6176" style="stop-color:#93D5FE;stop-opacity:0.3824"/>
			<stop  offset="0.7628" style="stop-color:#B6E2FE;stop-opacity:0.2372"/>
			<stop  offset="0.9046" style="stop-color:#DFF2FF;stop-opacity:9.539551e-02"/>
			<stop  offset="1" style="stop-color:#FFFFFF;stop-opacity:0"/>
		</linearGradient>
		<polygon class="st7" points="640.5,411.7 640.5,504.8 666,519.5 666,426.4 		"/>
		
			<linearGradient id="SVGID_4_" gradientUnits="userSpaceOnUse" x1="2432.8152" y1="283.8987" x2="2432.8152" y2="453.7538" gradientTransform="matrix(-1 0 0 1 3111.6152 94)">
			<stop  offset="0" style="stop-color:#57BDFD"/>
			<stop  offset="0.1659" style="stop-color:#5BBEFD;stop-opacity:0.8341"/>
			<stop  offset="0.3204" style="stop-color:#66C3FD;stop-opacity:0.6796"/>
			<stop  offset="0.4704" style="stop-color:#79CAFD;stop-opacity:0.5296"/>
			<stop  offset="0.6176" style="stop-color:#93D5FE;stop-opacity:0.3824"/>
			<stop  offset="0.7628" style="stop-color:#B6E2FE;stop-opacity:0.2372"/>
			<stop  offset="0.9046" style="stop-color:#DFF2FF;stop-opacity:9.539551e-02"/>
			<stop  offset="1" style="stop-color:#FFFFFF;stop-opacity:0"/>
		</linearGradient>
		<polygon class="st8" points="691.6,411.7 691.6,504.8 666,519.5 666,426.4 		"/>
	</g>
	<g>
		<polygon class="st0" points="621,485.4 595.5,470.7 621,455.9 646.6,470.7 		"/>
		<polygon class="st9" points="621,484.7 596.1,470.3 595.5,470.7 621,485.4 646.6,470.7 646,470.3 		"/>
		<polygon class="st2" points="621,550.4 585.3,529.8 621,509.1 656.8,529.8 		"/>
		
			<linearGradient id="SVGID_5_" gradientUnits="userSpaceOnUse" x1="608.25" y1="375.6066" x2="608.25" y2="455.9959" gradientTransform="matrix(1 0 0 1 0 94)">
			<stop  offset="0" style="stop-color:#33E9DD"/>
			<stop  offset="0.9629" style="stop-color:#33E9DD;stop-opacity:3.705311e-02"/>
			<stop  offset="1" style="stop-color:#33E9DD;stop-opacity:0"/>
		</linearGradient>
		<polygon class="st10" points="595.5,470.7 595.5,529.8 621,544.5 621,485.4 		"/>
		
			<linearGradient id="SVGID_6_" gradientUnits="userSpaceOnUse" x1="633.8" y1="371.1687" x2="633.8" y2="455.7588" gradientTransform="matrix(1 0 0 1 0 94)">
			<stop  offset="0" style="stop-color:#33E9DD"/>
			<stop  offset="0.9629" style="stop-color:#33E9DD;stop-opacity:3.705311e-02"/>
			<stop  offset="1" style="stop-color:#33E9DD;stop-opacity:0"/>
		</linearGradient>
		<polygon class="st11" points="646.6,470.7 646.6,529.8 621,544.5 621,485.4 		"/>
	</g>
</g>
<g>
	<g>
		<circle class="st12" cx="705.8" cy="256.4" r="4.5"/>
		
			<linearGradient id="SVGID_7_" gradientUnits="userSpaceOnUse" x1="705.8" y1="166.9" x2="705.8" y2="275.9" gradientTransform="matrix(1 0 0 1 0 94)">
			<stop  offset="0" style="stop-color:#FFE28F"/>
			<stop  offset="1" style="stop-color:#FFE28F;stop-opacity:0"/>
		</linearGradient>
		<rect x="704.8" y="260.9" class="st13" width="2" height="109"/>
	</g>
	<g>
		<circle class="st14" cx="722.8" cy="237.4" r="4.5"/>
		
			<linearGradient id="SVGID_8_" gradientUnits="userSpaceOnUse" x1="722.8" y1="147.9" x2="722.8" y2="256.9" gradientTransform="matrix(1 0 0 1 0 94)">
			<stop  offset="0" style="stop-color:#F769B7"/>
			<stop  offset="1" style="stop-color:#F769B7;stop-opacity:0"/>
		</linearGradient>
		<rect x="721.8" y="241.9" class="st15" width="2" height="109"/>
	</g>
	<g>
		<circle class="st16" cx="739.8" cy="246.4" r="4.5"/>
		
			<linearGradient id="SVGID_9_" gradientUnits="userSpaceOnUse" x1="739.8" y1="156.9" x2="739.8" y2="265.9" gradientTransform="matrix(1 0 0 1 0 94)">
			<stop  offset="0" style="stop-color:#D8F6FB"/>
			<stop  offset="1" style="stop-color:#D8F6FB;stop-opacity:0"/>
		</linearGradient>
		<rect x="738.8" y="250.9" class="st17" width="2" height="109"/>
	</g>
</g>
<linearGradient id="SVGID_10_" gradientUnits="userSpaceOnUse" x1="411.9665" y1="483.6848" x2="525.4662" y2="370.1851" gradientTransform="matrix(1 0 0 1 0 94)">
	<stop  offset="0" style="stop-color:#33E9DD"/>
	<stop  offset="0.4491" style="stop-color:#48D1E9"/>
	<stop  offset="1" style="stop-color:#5EB8F6"/>
</linearGradient>
<path class="st18" d="M602.5,541.4l-74,43c0,0-12,8-37-6s-67-39-67-39s-5-4-12,0l-10,6c0,0-9,4-4-4l32-18c0,0,4-6-5-4l-40,24
	c0,0-11,5-4-4l15-9c0,0,5-3-3-8s-51-30-51-30"/>
<ellipse transform="matrix(0.5463 -0.8376 0.8376 0.5463 61.9576 740.6437)" class="st19" cx="714.6" cy="313.1" rx="1.6" ry="1.6"/>
</svg>
