<?xml version="1.0" encoding="utf-8"?>
<!-- Generator: Adobe Illustrator 21.0.0, SVG Export Plug-In . SVG Version: 6.00 Build 0)  -->
<svg version="1.1" id="Layer_1" xmlns="http://www.w3.org/2000/svg" xmlns:xlink="http://www.w3.org/1999/xlink" x="0px" y="0px"
	 viewBox="0 0 767 667.9" style="enable-background:new 0 0 767 667.9;" xml:space="preserve">
<style type="text/css">
	.st0{fill:url(#SVGID_1_);}
	.st1{fill:url(#SVGID_2_);}
	.st2{fill:#FFFFFF;}
	.st3{fill:none;stroke:#999999;stroke-width:0.6154;stroke-miterlimit:10;}
	.st4{fill:#999999;}
</style>
<g>
	<g>
		
			<linearGradient id="SVGID_1_" gradientUnits="userSpaceOnUse" x1="605" y1="212.65" x2="633.9231" y2="212.65" gradientTransform="matrix(1 0 0 -1 0 668)">
			<stop  offset="0" style="stop-color:#B3B3B3"/>
			<stop  offset="1" style="stop-color:#666666"/>
		</linearGradient>
		<path class="st0" d="M633.9,450.1c0,8-6.5,16.8-14.5,19.7c-8,2.9-14.5-1.2-14.5-9.2s6.5-16.8,14.5-19.7S633.9,442.1,633.9,450.1z"
			/>
		
			<linearGradient id="SVGID_2_" gradientUnits="userSpaceOnUse" x1="607.4" y1="211.25" x2="633.8" y2="211.25" gradientTransform="matrix(1 0 0 -1 0 668)">
			<stop  offset="0" style="stop-color:#B3B3B3"/>
			<stop  offset="1" style="stop-color:#666666"/>
		</linearGradient>
		<polygon class="st1" points="633.8,445.2 630.8,442.3 607.4,467.7 610.8,471.2 		"/>
		<path class="st2" d="M637,453.2c0,8-6.5,16.8-14.5,19.7s-14.5-1.2-14.5-9.2s6.5-16.8,14.5-19.7C630.5,441.1,637,445.2,637,453.2z"
			/>
		<path class="st3" d="M635.5,453.7c0,7.2-5.8,15.1-13,17.7s-13-1.1-13-8.3s5.8-15.1,13-17.7C629.7,442.8,635.5,446.5,635.5,453.7z"
			/>
	</g>
	<g>
		<polygon class="st4" points="622.5,462.2 622.5,455.6 616.1,462.1 		"/>
		<polygon class="st4" points="622.5,455.2 622.5,447.4 616.3,461.5 		"/>
		<polygon class="st4" points="622.9,447.2 622.9,454.9 629.2,454 		"/>
		<polygon class="st4" points="622.9,455.4 622.9,461.9 629.3,454.5 		"/>
		<polygon class="st4" points="622.5,468.8 622.5,463.5 616.1,463.5 		"/>
		<polygon class="st4" points="622.9,468.6 629.3,455.8 622.9,463.3 		"/>
	</g>
</g>
</svg>
