<?xml version="1.0" encoding="utf-8"?>
<!-- Generator: Adobe Illustrator 21.0.0, SVG Export Plug-In . SVG Version: 6.00 Build 0)  -->
<svg version="1.1" id="Layer_1" xmlns="http://www.w3.org/2000/svg" xmlns:xlink="http://www.w3.org/1999/xlink" x="0px" y="0px"
	 viewBox="0 0 767 667.9" style="enable-background:new 0 0 767 667.9;" xml:space="preserve">
<style type="text/css">
	.st0{fill:url(#SVGID_1_);}
	.st1{fill:url(#SVGID_2_);}
	.st2{fill:#FFFFFF;}
	.st3{fill:none;stroke:#FBB03B;stroke-width:0.8077;stroke-miterlimit:10;}
	.st4{fill:#FBB03B;}
</style>
<g>
	<g>
		
			<linearGradient id="SVGID_1_" gradientUnits="userSpaceOnUse" x1="645" y1="280.1" x2="682.9615" y2="280.1" gradientTransform="matrix(1 0 0 -1 0 668)">
			<stop  offset="0" style="stop-color:#FBB03B"/>
			<stop  offset="1" style="stop-color:#CF9131"/>
		</linearGradient>
		<path class="st0" d="M683,381c0,10.5-8.5,22.1-19,25.9s-19-1.6-19-12.1s8.5-22.1,19-25.9S683,370.5,683,381z"/>
		
			<linearGradient id="SVGID_2_" gradientUnits="userSpaceOnUse" x1="648.1" y1="278.35" x2="682.7" y2="278.35" gradientTransform="matrix(1 0 0 -1 0 668)">
			<stop  offset="0" style="stop-color:#FBB03B"/>
			<stop  offset="1" style="stop-color:#CF9131"/>
		</linearGradient>
		<polygon class="st1" points="682.7,374.6 678.9,370.7 648.1,404.1 652.6,408.6 		"/>
		<path class="st2" d="M687,385c0,10.5-8.5,22.1-19,25.9s-19-1.6-19-12.1s8.5-22.1,19-25.9S687,374.5,687,385z"/>
		<path class="st3" d="M685.1,385.7c0,9.4-7.6,19.9-17.1,23.3c-9.4,3.4-17.1-1.4-17.1-10.9s7.6-19.9,17.1-23.3
			C677.4,371.4,685.1,376.3,685.1,385.7z"/>
	</g>
	<path id="symbol_2_" class="st4" d="M675.2,381.4c-0.3-2.7-2.4-2.2-5-0.7l-0.2-3.9l-2,1.4l0.1,3.8c-0.5,0.4-1.1,0.7-1.6,1.1
		l-0.1-3.8l-2,1.4l0.1,3.9c-0.4,0.3-0.9,0.6-1.3,0.9l0,0l-2.8,1.9l0.1,2.5l1.5-1c0.8-0.6,1.1-0.2,1.2,0.3l0.2,4.5
		c0.1,0,0.1-0.1,0.2-0.1c-0.1,0-0.1,0.1-0.2,0.1l0.2,6.2c0,0.3-0.2,0.9-0.7,1.3l-1.5,1l-0.3,3.1l2.6-1.8c0.5-0.3,1-0.6,1.4-1l0.2,4
		l2-1.4l-0.2-3.9c0.6-0.4,1.1-0.7,1.6-1.1l0.1,3.9l2-1.4l-0.2-3.9c3.4-2.5,5.7-5.2,5.9-9.1c0.1-3.2-1.1-3.7-3.1-2.9
		C674.7,385.1,675.4,383.4,675.2,381.4z M672.7,391.8c0.1,3-4.2,5.5-5.6,6.5l-0.2-5.2C668.3,392.1,672.6,388.7,672.7,391.8z
		 M671.5,385.1c0.1,2.7-3.5,4.8-4.6,5.6l-0.2-4.7C667.8,385.1,671.3,382.3,671.5,385.1z"/>
</g>
</svg>
