<?xml version="1.0" encoding="utf-8"?>
<!-- Generator: Adobe Illustrator 21.0.0, SVG Export Plug-In . SVG Version: 6.00 Build 0)  -->
<svg version="1.1" id="Layer_1" xmlns="http://www.w3.org/2000/svg" xmlns:xlink="http://www.w3.org/1999/xlink" x="0px" y="0px"
	 viewBox="0 0 767 667.9" style="enable-background:new 0 0 767 667.9;" xml:space="preserve">
<style type="text/css">
	.st0{fill:url(#SVGID_1_);}
	.st1{fill:#DCFFFF;}
	.st2{fill:url(#SVGID_2_);}
	.st3{fill:#FFFFFF;}
	.st4{fill:url(#SVGID_3_);}
	.st5{fill:url(#SVGID_4_);}
	.st6{fill:url(#SVGID_5_);}
	.st7{fill:url(#SVGID_6_);}
	.st8{fill:url(#SVGID_7_);}
	.st9{fill:url(#SVGID_8_);}
	.st10{fill:url(#SVGID_9_);}
	.st11{fill:url(#SVGID_10_);}
	.st12{fill:url(#SVGID_11_);}
	.st13{fill:none;stroke:#3DF4F4;stroke-width:0.9456;stroke-miterlimit:10;}
	.st14{opacity:0.1;fill:url(#SVGID_12_);enable-background:new    ;}
	.st15{fill:url(#SVGID_13_);}
	.st16{fill:url(#SVGID_14_);}
	.st17{fill:none;stroke:#3DF4F4;stroke-width:0.75;stroke-miterlimit:10;}
	.st18{fill:#5477FF;}
</style>
<g>
	<g>
		<g>
			
				<linearGradient id="SVGID_1_" gradientUnits="userSpaceOnUse" x1="283.3045" y1="301.4054" x2="234.6012" y2="247.2229" gradientTransform="matrix(1 0 0 -1 0 668)">
				<stop  offset="0" style="stop-color:#3D6CB1;stop-opacity:0.75"/>
				<stop  offset="1" style="stop-color:#5477FF"/>
			</linearGradient>
			<path class="st0" d="M274.7,405.2v5.5c0,6.9-13.3,12.5-29.6,12.5c-16.4,0-29.6-5.6-29.6-12.5v-5.5c0,6.9,13.3,12.5,29.6,12.5
				S274.7,412.1,274.7,405.2z"/>
			<ellipse class="st1" cx="245.1" cy="405.2" rx="29.6" ry="12.5"/>
			
				<linearGradient id="SVGID_2_" gradientUnits="userSpaceOnUse" x1="281.3671" y1="303.147" x2="232.6637" y2="248.9646" gradientTransform="matrix(1 0 0 -1 0 668)">
				<stop  offset="0" style="stop-color:#3D6CB1;stop-opacity:0.75"/>
				<stop  offset="1" style="stop-color:#5477FF"/>
			</linearGradient>
			<ellipse class="st2" cx="245.1" cy="405.2" rx="21.5" ry="9.1"/>
			<path class="st3" d="M246.9,399.3v1c2.2,0.1,4.4,0.3,6.7,0.7l-2,2c-2.3-0.4-4.4-0.7-6.3-0.7c-0.9,0-1.5,0-1.9,0.1
				s-0.5,0.2-0.5,0.4c0,0.2,0.1,0.3,0.4,0.4c0.3,0.1,0.7,0.2,1.4,0.3c0.6,0.1,1.5,0.3,2.7,0.4c2.3,0.3,4,0.7,5,1.2
				c1,0.4,1.5,1,1.5,1.7c0,0.8-0.6,1.4-1.8,1.9s-2.9,0.8-5.2,0.9v1.4h-3.5v-1.3c-2.4,0-4.8-0.3-7-0.7v-2.3c1.3,0.3,2.7,0.5,4.2,0.7
				s2.8,0.3,4,0.3c0.9,0,1.6,0,2.1-0.1c0.4-0.1,0.7-0.3,0.7-0.5s-0.2-0.3-0.5-0.4s-0.8-0.2-1.6-0.4c-0.7-0.1-1.7-0.3-3-0.5
				c-1.4-0.2-2.6-0.5-3.4-0.7c-0.9-0.3-1.5-0.6-1.9-0.9s-0.6-0.8-0.6-1.3c0-0.8,0.6-1.4,1.8-1.8s2.9-0.7,5.3-0.8v-1L246.9,399.3
				L246.9,399.3z"/>
		</g>
		<g>
			
				<linearGradient id="SVGID_3_" gradientUnits="userSpaceOnUse" x1="279.0289" y1="305.2487" x2="230.3256" y2="251.0662" gradientTransform="matrix(1 0 0 -1 0 668)">
				<stop  offset="0" style="stop-color:#3D6CB1;stop-opacity:0.75"/>
				<stop  offset="1" style="stop-color:#5477FF"/>
			</linearGradient>
			<path class="st4" d="M274.7,396.6v5.5c0,6.9-13.3,12.5-29.6,12.5c-16.4,0-29.6-5.6-29.6-12.5v-5.5c0,6.9,13.3,12.5,29.6,12.5
				S274.7,403.5,274.7,396.6z"/>
			<ellipse class="st1" cx="245.1" cy="396.6" rx="29.6" ry="12.5"/>
			
				<linearGradient id="SVGID_4_" gradientUnits="userSpaceOnUse" x1="277.0913" y1="306.9903" x2="228.388" y2="252.8078" gradientTransform="matrix(1 0 0 -1 0 668)">
				<stop  offset="0" style="stop-color:#3D6CB1;stop-opacity:0.75"/>
				<stop  offset="1" style="stop-color:#5477FF"/>
			</linearGradient>
			<ellipse class="st5" cx="245.1" cy="396.6" rx="21.5" ry="9.1"/>
			<path class="st3" d="M246.9,390.7v1c2.2,0.1,4.4,0.3,6.7,0.7l-2,2c-2.3-0.4-4.4-0.7-6.3-0.7c-0.9,0-1.5,0-1.9,0.1
				s-0.5,0.2-0.5,0.4c0,0.2,0.1,0.3,0.4,0.4c0.3,0.1,0.7,0.2,1.4,0.3c0.6,0.1,1.5,0.3,2.7,0.4c2.3,0.3,4,0.7,5,1.2
				c1,0.4,1.5,1,1.5,1.7c0,0.8-0.6,1.4-1.8,1.9s-2.9,0.8-5.2,0.9v1.4h-3.5v-1.3c-2.4,0-4.8-0.3-7-0.7v-2.3c1.3,0.3,2.7,0.5,4.2,0.7
				s2.8,0.3,4,0.3c0.9,0,1.6,0,2.1-0.1c0.4-0.1,0.7-0.3,0.7-0.5s-0.2-0.3-0.5-0.4s-0.8-0.2-1.6-0.4c-0.7-0.1-1.7-0.3-3-0.5
				c-1.4-0.2-2.6-0.5-3.4-0.7c-0.9-0.3-1.5-0.6-1.9-0.9s-0.6-0.8-0.6-1.3c0-0.8,0.6-1.4,1.8-1.8s2.9-0.7,5.3-0.8v-1L246.9,390.7
				L246.9,390.7z"/>
		</g>
		<g>
			
				<linearGradient id="SVGID_5_" gradientUnits="userSpaceOnUse" x1="274.455" y1="309.3601" x2="225.7515" y2="255.1777" gradientTransform="matrix(1 0 0 -1 0 668)">
				<stop  offset="0" style="stop-color:#3D6CB1;stop-opacity:0.75"/>
				<stop  offset="1" style="stop-color:#5477FF"/>
			</linearGradient>
			<path class="st6" d="M274.7,387.4v5.5c0,6.9-13.3,12.5-29.6,12.5c-16.4,0-29.6-5.6-29.6-12.5v-5.5c0,6.9,13.3,12.5,29.6,12.5
				S274.7,394.3,274.7,387.4z"/>
			<ellipse class="st1" cx="245.1" cy="387.4" rx="29.6" ry="12.5"/>
			
				<linearGradient id="SVGID_6_" gradientUnits="userSpaceOnUse" x1="272.5173" y1="311.1017" x2="223.814" y2="256.9194" gradientTransform="matrix(1 0 0 -1 0 668)">
				<stop  offset="0" style="stop-color:#3D6CB1;stop-opacity:0.75"/>
				<stop  offset="1" style="stop-color:#5477FF"/>
			</linearGradient>
			<ellipse class="st7" cx="245.1" cy="387.4" rx="21.5" ry="9.1"/>
			<path class="st3" d="M246.9,381.5v1c2.2,0.1,4.4,0.3,6.7,0.7l-2,2c-2.3-0.4-4.4-0.7-6.3-0.7c-0.9,0-1.5,0-1.9,0.1
				s-0.5,0.2-0.5,0.4c0,0.2,0.1,0.3,0.4,0.4c0.3,0.1,0.7,0.2,1.4,0.3c0.6,0.1,1.5,0.3,2.7,0.4c2.3,0.3,4,0.7,5,1.2
				c1,0.4,1.5,1,1.5,1.7c0,0.8-0.6,1.4-1.8,1.9s-2.9,0.8-5.2,0.9v1.4h-3.5V392c-2.4,0-4.8-0.3-7-0.7V389c1.3,0.3,2.7,0.5,4.2,0.7
				s2.8,0.3,4,0.3c0.9,0,1.6,0,2.1-0.1c0.4-0.1,0.7-0.3,0.7-0.5s-0.2-0.3-0.5-0.4s-0.8-0.2-1.6-0.4c-0.7-0.1-1.7-0.3-3-0.5
				c-1.4-0.2-2.6-0.5-3.4-0.7c-0.9-0.3-1.5-0.6-1.9-0.9s-0.6-0.8-0.6-1.3c0-0.8,0.6-1.4,1.8-1.8s2.9-0.7,5.3-0.8v-1h3.4V381.5z"/>
		</g>
		<g>
			
				<linearGradient id="SVGID_7_" gradientUnits="userSpaceOnUse" x1="270.1793" y1="313.2034" x2="221.4759" y2="259.0209" gradientTransform="matrix(1 0 0 -1 0 668)">
				<stop  offset="0" style="stop-color:#3D6CB1;stop-opacity:0.75"/>
				<stop  offset="1" style="stop-color:#5477FF"/>
			</linearGradient>
			<path class="st8" d="M274.7,378.8v5.5c0,6.9-13.3,12.5-29.6,12.5c-16.4,0-29.6-5.6-29.6-12.5v-5.5c0,6.9,13.3,12.5,29.6,12.5
				S274.7,385.7,274.7,378.8z"/>
			<ellipse class="st1" cx="245.1" cy="378.8" rx="29.6" ry="12.5"/>
			
				<linearGradient id="SVGID_8_" gradientUnits="userSpaceOnUse" x1="268.2416" y1="314.9451" x2="219.5383" y2="260.7627" gradientTransform="matrix(1 0 0 -1 0 668)">
				<stop  offset="0" style="stop-color:#3D6CB1;stop-opacity:0.75"/>
				<stop  offset="1" style="stop-color:#5477FF"/>
			</linearGradient>
			<ellipse class="st9" cx="245.1" cy="378.8" rx="21.5" ry="9.1"/>
			<path class="st3" d="M246.9,372.9v1c2.2,0.1,4.4,0.3,6.7,0.7l-2,2c-2.3-0.4-4.4-0.7-6.3-0.7c-0.9,0-1.5,0-1.9,0.1
				s-0.5,0.2-0.5,0.4c0,0.2,0.1,0.3,0.4,0.4c0.3,0.1,0.7,0.2,1.4,0.3c0.6,0.1,1.5,0.3,2.7,0.4c2.3,0.3,4,0.7,5,1.2
				c1,0.4,1.5,1,1.5,1.7c0,0.8-0.6,1.4-1.8,1.9s-2.9,0.8-5.2,0.9v1.4h-3.5v-1.3c-2.4,0-4.8-0.3-7-0.7v-2.3c1.3,0.3,2.7,0.5,4.2,0.7
				s2.8,0.3,4,0.3c0.9,0,1.6,0,2.1-0.1c0.4-0.1,0.7-0.3,0.7-0.5s-0.2-0.3-0.5-0.4s-0.8-0.2-1.6-0.4c-0.7-0.1-1.7-0.3-3-0.5
				c-1.4-0.2-2.6-0.5-3.4-0.7c-0.9-0.3-1.5-0.6-1.9-0.9s-0.6-0.8-0.6-1.3c0-0.8,0.6-1.4,1.8-1.8s2.9-0.7,5.3-0.8v-1L246.9,372.9
				L246.9,372.9z"/>
		</g>
		<g>
			
				<linearGradient id="SVGID_9_" gradientUnits="userSpaceOnUse" x1="266.3013" y1="316.6892" x2="217.598" y2="262.5067" gradientTransform="matrix(1 0 0 -1 0 668)">
				<stop  offset="0" style="stop-color:#3D6CB1;stop-opacity:0.75"/>
				<stop  offset="1" style="stop-color:#5477FF"/>
			</linearGradient>
			<path class="st10" d="M274.7,371v5.5c0,6.9-13.3,12.5-29.6,12.5c-16.4,0-29.6-5.6-29.6-12.5V371c0,6.9,13.3,12.5,29.6,12.5
				S274.7,377.9,274.7,371z"/>
			<ellipse class="st1" cx="245.1" cy="371" rx="29.6" ry="12.5"/>
			
				<linearGradient id="SVGID_10_" gradientUnits="userSpaceOnUse" x1="264.3637" y1="318.4309" x2="215.6603" y2="264.2484" gradientTransform="matrix(1 0 0 -1 0 668)">
				<stop  offset="0" style="stop-color:#3D6CB1;stop-opacity:0.75"/>
				<stop  offset="1" style="stop-color:#5477FF"/>
			</linearGradient>
			<ellipse class="st11" cx="245.1" cy="371" rx="21.5" ry="9.1"/>
			<path class="st3" d="M246.9,365.1v1c2.2,0.1,4.4,0.3,6.7,0.7l-2,2c-2.3-0.4-4.4-0.7-6.3-0.7c-0.9,0-1.5,0-1.9,0.1
				s-0.5,0.2-0.5,0.4c0,0.2,0.1,0.3,0.4,0.4c0.3,0.1,0.7,0.2,1.4,0.3c0.6,0.1,1.5,0.3,2.7,0.4c2.3,0.3,4,0.7,5,1.2
				c1,0.4,1.5,1,1.5,1.7c0,0.8-0.6,1.4-1.8,1.9s-2.9,0.8-5.2,0.9v1.4h-3.5v-1.3c-2.4,0-4.8-0.3-7-0.7v-2.3c1.3,0.3,2.7,0.5,4.2,0.7
				s2.8,0.3,4,0.3c0.9,0,1.6,0,2.1-0.1c0.4-0.1,0.7-0.3,0.7-0.5s-0.2-0.3-0.5-0.4s-0.8-0.2-1.6-0.4c-0.7-0.1-1.7-0.3-3-0.5
				c-1.4-0.2-2.6-0.5-3.4-0.7c-0.9-0.3-1.5-0.6-1.9-0.9s-0.6-0.8-0.6-1.3c0-0.8,0.6-1.4,1.8-1.8s2.9-0.7,5.3-0.8v-1L246.9,365.1
				L246.9,365.1z"/>
		</g>
		<g>
			
				<linearGradient id="SVGID_11_" gradientUnits="userSpaceOnUse" x1="262.0256" y1="320.5325" x2="213.3223" y2="266.35" gradientTransform="matrix(1 0 0 -1 0 668)">
				<stop  offset="0" style="stop-color:#3D6CB1;stop-opacity:0.75"/>
				<stop  offset="1" style="stop-color:#5477FF"/>
			</linearGradient>
			<path class="st12" d="M274.7,362.4v5.5c0,6.9-13.3,12.5-29.6,12.5c-16.4,0-29.6-5.6-29.6-12.5v-5.5c0,6.9,13.3,12.5,29.6,12.5
				S274.7,369.3,274.7,362.4z"/>
			<ellipse class="st1" cx="245.1" cy="362.4" rx="29.6" ry="12.5"/>
			<ellipse class="st13" cx="245.1" cy="362.4" rx="25" ry="10.6"/>
		</g>
	</g>
	
		<linearGradient id="SVGID_12_" gradientUnits="userSpaceOnUse" x1="228.5111" y1="300.2337" x2="251.0986" y2="300.2337" gradientTransform="matrix(0.9975 7.042209e-02 7.042209e-02 -0.9975 -14.8484 645.9955)">
		<stop  offset="0" style="stop-color:#3D6CB1"/>
		<stop  offset="1" style="stop-color:#490295"/>
	</linearGradient>
	<path class="st14" d="M234.1,364.9c0.3,1.9,5.6,2.8,11.9,2c6.3-0.8,11.2-3.1,10.9-5s-5.6-2.8-11.9-2
		C238.7,360.8,233.8,363,234.1,364.9z"/>
	<g>
		<g>
			
				<linearGradient id="SVGID_13_" gradientUnits="userSpaceOnUse" x1="223" y1="334.6" x2="270" y2="334.6" gradientTransform="matrix(1 0 0 -1 0 668)">
				<stop  offset="0" style="stop-color:#3D6CB1"/>
				<stop  offset="1" style="stop-color:#490295"/>
			</linearGradient>
			<path class="st15" d="M270,324.8c0,13-10.5,27.3-23.5,32.1s-23.5-2-23.5-14.9c0-13,10.5-27.3,23.5-32.1S270,311.9,270,324.8z"/>
			
				<linearGradient id="SVGID_14_" gradientUnits="userSpaceOnUse" x1="226.9" y1="332.4" x2="269.761" y2="332.4" gradientTransform="matrix(1 0 0 -1 0 668)">
				<stop  offset="0" style="stop-color:#3D6CB1"/>
				<stop  offset="1" style="stop-color:#490295"/>
			</linearGradient>
			<polygon class="st16" points="269.7,316.9 264.9,312.1 226.9,353.5 232.4,359.1 			"/>
			<path class="st1" d="M275,329.8c0,13-10.5,27.3-23.5,32.1s-23.5-2-23.5-14.9c0-13,10.5-27.3,23.5-32.1S275,316.9,275,329.8z"/>
			<path class="st17" d="M272.6,330.7c0,11.7-9.5,24.6-21.1,28.8s-21.1-1.8-21.1-13.4s9.5-24.6,21.1-28.8S272.6,319,272.6,330.7z"/>
		</g>
		<g>
			<path class="st18" d="M251.6,354.6v-3.8c-2.2,1.2-4.5,1.9-5.8,1.7l0.9-3.1c1.4,0.1,3.3-0.3,5.5-1.5c2.7-1.6,4.5-4.2,4.5-6.3
				c0-2.1-1.5-2.5-4.3-2c-3.9,0.7-6.3,0.4-6.3-3c0-3.2,2.2-6.8,5.7-9.4v-3.8l2.4-1.4v3.7c2.3-1.2,3.8-1.5,4.9-1.5l-0.9,3.1
				c-0.8,0-2.4,0.1-4.8,1.5c-2.9,1.7-4,4.1-4,5.6c0,2,1.4,2.2,4.7,1.6c3.9-0.7,5.9,0.2,5.9,3.6c0,3-2.1,7-6,9.9v4L251.6,354.6z"/>
		</g>
	</g>
</g>
</svg>
