<?xml version="1.0" encoding="utf-8"?>
<!-- Generator: Adobe Illustrator 21.0.0, SVG Export Plug-In . SVG Version: 6.00 Build 0)  -->
<svg version="1.1" id="Layer_1" xmlns="http://www.w3.org/2000/svg" xmlns:xlink="http://www.w3.org/1999/xlink" x="0px" y="0px"
	 viewBox="0 0 189 92" style="enable-background:new 0 0 189 92;" xml:space="preserve">
<style type="text/css">
	.st0{opacity:0.75;}
	.st1{fill:none;stroke:#FFFFFF;stroke-width:1.2174;stroke-miterlimit:10;}
	.st2{opacity:5.000000e-02;fill:#2284FF;enable-background:new    ;}
	.st3{fill:none;stroke:#FFFFFF;stroke-width:1.0601;stroke-miterlimit:10;}
	.st4{opacity:0.1;fill:#2284FF;enable-background:new    ;}
	.st5{fill:url(#SVGID_1_);}
	.st6{fill:url(#SVGID_2_);}
	.st7{fill:#B3D2FF;}
	.st8{fill:#FFFFFF;}
	.st9{fill:none;stroke:#FFFFFF;stroke-width:4.5838;stroke-linecap:round;stroke-linejoin:round;stroke-miterlimit:10;}
	.st10{fill:none;stroke:#FFFFFF;stroke-width:4;stroke-linecap:round;stroke-linejoin:round;stroke-miterlimit:10;}
	.st11{fill:none;stroke:#526B84;stroke-miterlimit:10;stroke-dasharray:3,2;}
	.st12{opacity:0.5;fill:#FFFFFF;enable-background:new    ;}
	.st13{fill:url(#SVGID_3_);}
	.st14{fill:#5089CC;}
	.st15{fill:url(#SVGID_4_);}
	.st16{fill:#76A5D3;}
	.st17{fill:url(#SVGID_5_);}
	.st18{fill:url(#SVGID_6_);}
	.st19{fill:#3C91E5;}
	.st20{fill:url(#SVGID_7_);}
	.st21{fill:#FF0000;}
</style>
<g class="st0">
	<g>
		<polygon class="st1" points="174,41.1 174,57.3 160,65.4 146,57.3 146,41.1 160,33 		"/>
		<polygon class="st1" points="188,65.4 188,81.6 174,89.7 160,81.6 160,65.4 174,57.3 		"/>
		<polygon class="st1" points="160,65.4 160,81.6 146,89.7 132,81.6 132,65.4 146,57.3 		"/>
	</g>
	<polygon class="st2" points="179.8,54.4 179.8,61 174,64.3 168.3,61 168.3,54.4 174,51 	"/>
</g>
<g class="st0">
	<g>
		<polygon class="st3" points="21.8,11 21.8,25.1 34,32.2 46.2,25.1 46.2,11 34,4 		"/>
		<polygon class="st3" points="9.6,32.3 9.6,46.4 21.8,53.4 34,46.4 34,32.3 21.8,25.2 		"/>
		<polygon class="st3" points="34,32.3 34,46.4 46.2,53.4 58.4,46.4 58.4,32.3 46.2,25.2 		"/>
	</g>
	<polygon class="st4" points="16.8,22.6 16.8,28.4 21.8,31.2 26.8,28.4 26.8,22.6 21.8,19.7 	"/>
</g>
<linearGradient id="SVGID_1_" gradientUnits="userSpaceOnUse" x1="97.05" y1="8.5" x2="97.05" y2="90.7534" gradientTransform="matrix(1 0 0 1 0 -6)">
	<stop  offset="0" style="stop-color:#E6F0FF"/>
	<stop  offset="0.3214" style="stop-color:#E0ECFF"/>
	<stop  offset="0.7488" style="stop-color:#CFE1FF"/>
	<stop  offset="1" style="stop-color:#C2D9FF"/>
</linearGradient>
<path class="st5" d="M146.3,82H47.7c-2,0-3.7-1.6-3.7-3.7V6.7c0-2,1.6-3.7,3.7-3.7h98.7c2,0,3.7,1.6,3.7,3.7v71.7
	C150,80.4,148.4,82,146.3,82z"/>
<linearGradient id="SVGID_2_" gradientUnits="userSpaceOnUse" x1="171.1" y1="8.5" x2="171.1" y2="90.7534" gradientTransform="matrix(-1 0 0 1 287.1 -6)">
	<stop  offset="0" style="stop-color:#C2DBFF"/>
	<stop  offset="0.2962" style="stop-color:#BCD7FF"/>
	<stop  offset="0.6898" style="stop-color:#ABCCFF"/>
	<stop  offset="1" style="stop-color:#99C0FF"/>
</linearGradient>
<path class="st6" d="M82.1,82h63c2.7,0,4.9-1.6,4.9-3.7V6.7c0-2-2.1-3.7-4.9-3.7H86.9C84.3,3,82,4.6,82,6.7L82.1,82L82.1,82z"/>
<path class="st7" d="M150,18H44V6.7c0-2,1.6-3.7,3.7-3.7h98.7c2,0,3.7,1.6,3.7,3.7L150,18L150,18z"/>
<g>
	<circle class="st8" cx="52" cy="10.5" r="2.5"/>
	<circle class="st8" cx="60.8" cy="10.5" r="2.5"/>
	<circle class="st8" cx="69.5" cy="10.5" r="2.5"/>
</g>
<g>
	<line class="st9" x1="90.5" y1="58" x2="128.6" y2="58"/>
	<line class="st10" x1="90.5" y1="50.5" x2="117.9" y2="50.5"/>
	<line class="st10" x1="90.5" y1="65.5" x2="107.5" y2="65.5"/>
</g>
<line class="st11" x1="89.4" y1="36.3" x2="144.4" y2="36.3"/>
<g>
	<circle class="st12" cx="63.5" cy="36.3" r="11"/>
</g>
<g>
	<g>
		
			<linearGradient id="SVGID_3_" gradientUnits="userSpaceOnUse" x1="26.5" y1="76" x2="63.5" y2="76" gradientTransform="matrix(1 0 0 1 0 -6)">
			<stop  offset="0" style="stop-color:#DBEFFF"/>
			<stop  offset="1" style="stop-color:#DBEFFF"/>
		</linearGradient>
		<path class="st13" d="M45,88.5c-10.2,0-18.5-8.3-18.5-18.5S34.8,51.5,45,51.5S63.5,59.8,63.5,70S55.2,88.5,45,88.5z"/>
		<path class="st14" d="M45,52c9.9,0,18,8.1,18,18s-8.1,18-18,18s-18-8.1-18-18S35.1,52,45,52 M45,51c-10.5,0-19,8.5-19,19
			s8.5,19,19,19s19-8.5,19-19S55.5,51,45,51L45,51z"/>
	</g>
	<g>
		
			<linearGradient id="SVGID_4_" gradientUnits="userSpaceOnUse" x1="31.5" y1="76" x2="58.5" y2="76" gradientTransform="matrix(1 0 0 1 0 -6)">
			<stop  offset="0" style="stop-color:#FFFFFF"/>
			<stop  offset="1" style="stop-color:#FFFFFF"/>
		</linearGradient>
		<path class="st15" d="M45,83.5c-7.4,0-13.5-6.1-13.5-13.5S37.6,56.5,45,56.5S58.5,62.6,58.5,70S52.4,83.5,45,83.5z"/>
		<path class="st16" d="M45,57c7.2,0,13,5.8,13,13s-5.8,13-13,13s-13-5.8-13-13S37.8,57,45,57 M45,56c-7.7,0-14,6.3-14,14
			s6.3,14,14,14s14-6.3,14-14S52.7,56,45,56L45,56z"/>
	</g>
</g>
<g>
	<g>
		
			<linearGradient id="SVGID_5_" gradientUnits="userSpaceOnUse" x1="129.8" y1="23.1" x2="162.2562" y2="23.1" gradientTransform="matrix(1 0 0 1 0 -6)">
			<stop  offset="0" style="stop-color:#DBEFFF"/>
			<stop  offset="1" style="stop-color:#DBEFFF"/>
		</linearGradient>
		<path class="st17" d="M146,33.3c-8.9,0-16.2-7.3-16.2-16.2S137.1,0.9,146,0.9s16.2,7.3,16.2,16.2S154.9,33.3,146,33.3z"/>
		<g>
			<path class="st14" d="M146,1.3c8.7,0,15.8,7.1,15.8,15.8s-7.1,15.8-15.8,15.8s-15.8-7.1-15.8-15.8S137.3,1.3,146,1.3 M146,0.4
				c-9.2,0-16.7,7.5-16.7,16.7s7.5,16.7,16.7,16.7s16.7-7.5,16.7-16.7S155.2,0.4,146,0.4L146,0.4z"/>
		</g>
	</g>
	<g>
		
			<linearGradient id="SVGID_6_" gradientUnits="userSpaceOnUse" x1="134.1579" y1="23.1" x2="157.8421" y2="23.1" gradientTransform="matrix(1 0 0 1 0 -6)">
			<stop  offset="0" style="stop-color:#FFFFFF"/>
			<stop  offset="1" style="stop-color:#FFFFFF"/>
		</linearGradient>
		<path class="st18" d="M146,28.9c-6.5,0-11.8-5.4-11.8-11.8S139.5,5.3,146,5.3s11.8,5.4,11.8,11.8S152.5,28.9,146,28.9z"/>
		<g>
			<path class="st16" d="M146,5.7c6.3,0,11.4,5.1,11.4,11.4s-5.1,11.4-11.4,11.4s-11.4-5.1-11.4-11.4S139.7,5.7,146,5.7 M146,4.8
				c-6.8,0-12.3,5.5-12.3,12.3s5.5,12.3,12.3,12.3s12.3-5.5,12.3-12.3S152.8,4.8,146,4.8L146,4.8z"/>
		</g>
	</g>
</g>
<g>
	<path class="st19" d="M137.1,20.9v-0.5l0.7-0.7c1.7-1.6,2.4-2.4,2.4-3.4c0-0.7-0.3-1.3-1.3-1.3c-0.6,0-1.1,0.3-1.4,0.5l-0.3-0.6
		c0.4-0.4,1.1-0.7,1.8-0.7c1.4,0,2,1,2,1.9c0,1.2-0.9,2.2-2.2,3.5l-0.5,0.5l0,0h2.9v0.7h-4.1V20.9z"/>
	<path class="st19" d="M144.9,20.9v-1.8h-3v-0.6l2.9-4.1h0.9v4h0.9v0.7h-0.9v1.8H144.9z M144.9,18.4v-2.2c0-0.3,0-0.7,0-1l0,0
		c-0.2,0.4-0.4,0.7-0.5,1l-1.6,2.2l0,0H144.9z"/>
	<path class="st19" d="M146.9,21.3l2.8-7.2h0.7l-2.8,7.2H146.9z"/>
	<path class="st19" d="M155,14.4V15l-2.8,5.9h-0.9l2.8-5.7l0,0h-3.2v-0.7h4.1V14.4z"/>
</g>
<g id="row_1">
	<g id="protection">
		
			<linearGradient id="SVGID_7_" gradientUnits="userSpaceOnUse" x1="37.1667" y1="23.35" x2="52.8333" y2="23.35" gradientTransform="matrix(1 0 0 -1 0 94)">
			<stop  offset="0" style="stop-color:#C2DBFF"/>
			<stop  offset="0.2962" style="stop-color:#BCD7FF"/>
			<stop  offset="0.6898" style="stop-color:#ABCCFF"/>
			<stop  offset="1" style="stop-color:#99C0FF"/>
		</linearGradient>
		<path class="st20" d="M52.7,63.2c-1.7-1.7-4.1-2.4-7.7-2.4s-6,0.7-7.7,2.4l-0.1,0.1V70v0.6c0,4.5,3.1,8.5,7.7,9.9H45h0.1
			c4.6-1.4,7.7-5.4,7.7-9.9L52.7,63.2L52.7,63.2z"/>
		<path class="st8" d="M50.8,64.2c-1.3-1-3.1-1.4-5.8-1.4v15.6h0.1c3.5-1.3,5.8-4.4,5.8-7.8L50.8,64.2L50.8,64.2z"/>
		<path class="st8" d="M39.2,64.2L39.2,64.2l-0.1,6.4c0,3.4,2.3,6.5,5.8,7.8H45V62.8C42.3,62.8,40.5,63.3,39.2,64.2z"/>
		<polygon class="st21" points="44.5,74.3 41.2,69.7 42.3,68.9 44.8,72.5 47.7,65.8 48.9,66.3 45.6,74.1 		"/>
	</g>
</g>
</svg>
