<?xml version="1.0" encoding="utf-8"?>
<!-- Generator: Adobe Illustrator 21.0.0, SVG Export Plug-In . SVG Version: 6.00 Build 0)  -->
<svg version="1.1" id="Layer_1" xmlns="http://www.w3.org/2000/svg" xmlns:xlink="http://www.w3.org/1999/xlink" x="0px" y="0px"
	 viewBox="0 0 189 92" style="enable-background:new 0 0 189 92;" xml:space="preserve">
<style type="text/css">
	.st0{opacity:0.75;}
	.st1{fill:none;stroke:#FFFFFF;stroke-width:1.087;stroke-miterlimit:10;}
	.st2{opacity:5.000000e-02;fill:#2284FF;enable-background:new    ;}
	.st3{fill:none;stroke:#FFFFFF;stroke-width:1.0601;stroke-miterlimit:10;}
	.st4{opacity:0.1;fill:#2284FF;enable-background:new    ;}
	.st5{fill:url(#SVGID_1_);}
	.st6{fill:url(#SVGID_2_);}
	.st7{fill:#B3D2FF;}
	.st8{fill:#FFFFFF;}
	.st9{fill:none;stroke:#FFFFFF;stroke-width:4;stroke-linecap:round;stroke-linejoin:round;stroke-miterlimit:10;}
	.st10{fill:url(#SVGID_3_);}
	.st11{fill:#5089CC;}
	.st12{fill:url(#SVGID_4_);}
	.st13{fill:#76A5D3;}
	.st14{opacity:0.5;fill:#FFFFFF;enable-background:new    ;}
	.st15{fill:#3C91E5;}
	.st16{opacity:0.5;fill:#B3D2FF;enable-background:new    ;}
	.st17{opacity:0.3;fill:#B3D2FF;enable-background:new    ;}
	.st18{fill:#FF0000;}
</style>
<g class="st0">
	<g>
		<polygon class="st1" points="171.5,45.2 171.5,59.7 159,66.9 146.5,59.7 146.5,45.2 159,38 		"/>
		<polygon class="st1" points="184,67 184,81.4 171.5,88.7 159,81.4 159,67 171.5,59.7 		"/>
		<polygon class="st1" points="159,67 159,81.4 146.5,88.7 134,81.4 134,67 146.5,59.7 		"/>
	</g>
	<polygon class="st2" points="176.7,57.1 176.7,63 171.5,65.9 166.4,63 166.4,57.1 171.5,54.1 	"/>
</g>
<g class="st0">
	<g>
		<polygon class="st3" points="15.8,10 15.8,24.1 28,31.2 40.2,24.1 40.2,10 28,3 		"/>
		<polygon class="st3" points="3.6,31.3 3.6,45.4 15.8,52.4 28,45.4 28,31.3 15.8,24.2 		"/>
		<polygon class="st3" points="28,31.3 28,45.4 40.2,52.4 52.4,45.4 52.4,31.3 40.2,24.2 		"/>
	</g>
	<polygon class="st4" points="10.8,21.6 10.8,27.4 15.8,30.2 20.8,27.4 20.8,21.6 15.8,18.7 	"/>
</g>
<linearGradient id="SVGID_1_" gradientUnits="userSpaceOnUse" x1="97.05" y1="91.5" x2="97.05" y2="9.2466" gradientTransform="matrix(1 0 0 -1 0 94)">
	<stop  offset="0" style="stop-color:#E6F0FF"/>
	<stop  offset="0.3214" style="stop-color:#E0ECFF"/>
	<stop  offset="0.7488" style="stop-color:#CFE1FF"/>
	<stop  offset="1" style="stop-color:#C2D9FF"/>
</linearGradient>
<path class="st5" d="M146.3,82H47.7c-2,0-3.7-1.6-3.7-3.7V6.7c0-2,1.6-3.7,3.7-3.7h98.7c2,0,3.7,1.6,3.7,3.7v71.7
	C150,80.4,148.4,82,146.3,82z"/>
<linearGradient id="SVGID_2_" gradientUnits="userSpaceOnUse" x1="69.55" y1="91.5" x2="69.55" y2="9.2466" gradientTransform="matrix(1 0 0 -1 0 94)">
	<stop  offset="0" style="stop-color:#C2DBFF"/>
	<stop  offset="0.2962" style="stop-color:#BCD7FF"/>
	<stop  offset="0.6898" style="stop-color:#ABCCFF"/>
	<stop  offset="1" style="stop-color:#99C0FF"/>
</linearGradient>
<path class="st6" d="M95,82H47.7c-2,0-3.7-1.6-3.7-3.7V6.7c0-2,1.6-3.7,3.7-3.7h43.7c2,0,3.7,1.6,3.7,3.7L95,82L95,82z"/>
<path class="st7" d="M150,18H44V6.7c0-2,1.6-3.7,3.7-3.7h98.7c2,0,3.7,1.6,3.7,3.7L150,18L150,18z"/>
<g>
	<circle class="st8" cx="52" cy="10.5" r="2.5"/>
	<circle class="st8" cx="60.8" cy="10.5" r="2.5"/>
	<circle class="st8" cx="69.5" cy="10.5" r="2.5"/>
</g>
<g>
	<line class="st9" x1="56" y1="48" x2="85" y2="48"/>
	<line class="st9" x1="68" y1="56" x2="85" y2="56"/>
</g>
<g>
	<g>
		
			<linearGradient id="SVGID_3_" gradientUnits="userSpaceOnUse" x1="26.5" y1="24" x2="63.5" y2="24" gradientTransform="matrix(1 0 0 -1 0 94)">
			<stop  offset="0" style="stop-color:#DBEFFF"/>
			<stop  offset="1" style="stop-color:#DBEFFF"/>
		</linearGradient>
		<path class="st10" d="M45,88.5c-10.2,0-18.5-8.3-18.5-18.5S34.8,51.5,45,51.5S63.5,59.8,63.5,70S55.2,88.5,45,88.5z"/>
		<path class="st11" d="M45,52c9.9,0,18,8.1,18,18s-8.1,18-18,18s-18-8.1-18-18S35.1,52,45,52 M45,51c-10.5,0-19,8.5-19,19
			s8.5,19,19,19s19-8.5,19-19S55.5,51,45,51L45,51z"/>
	</g>
	<g>
		
			<linearGradient id="SVGID_4_" gradientUnits="userSpaceOnUse" x1="31.5" y1="24" x2="58.5" y2="24" gradientTransform="matrix(1 0 0 -1 0 94)">
			<stop  offset="0" style="stop-color:#FFFFFF"/>
			<stop  offset="1" style="stop-color:#FFFFFF"/>
		</linearGradient>
		<path class="st12" d="M45,83.5c-7.4,0-13.5-6.1-13.5-13.5S37.6,56.5,45,56.5S58.5,62.6,58.5,70S52.4,83.5,45,83.5z"/>
		<path class="st13" d="M45,57c7.2,0,13,5.8,13,13s-5.8,13-13,13s-13-5.8-13-13S37.8,57,45,57 M45,56c-7.7,0-14,6.3-14,14
			s6.3,14,14,14s14-6.3,14-14S52.7,56,45,56L45,56z"/>
	</g>
</g>
<circle class="st14" cx="77.5" cy="32.5" r="9.5"/>
<path class="st14" d="M143.9,42h-42.3c-1.2,0-2.1-1-2.1-2.1V25.1c0-1.2,1-2.1,2.1-2.1h42.3c1.2,0,2.1,1,2.1,2.1v14.8
	C146,41,145,42,143.9,42z"/>
<path class="st14" d="M143.9,66h-42.3c-1.2,0-2.1-1-2.1-2.1V49.1c0-1.2,1-2.1,2.1-2.1h42.3c1.2,0,2.1,1,2.1,2.1v14.8
	C146,65,145,66,143.9,66z"/>
<circle class="st15" cx="159" cy="8" r="4"/>
<circle class="st16" cx="159" cy="21.5" r="4"/>
<circle class="st17" cx="159" cy="35" r="4"/>
<g>
	<path class="st8" d="M65,70.2c0,0.7,0.5,1.2,1.2,1.2h7.7c0.7,0,1.2-0.5,1.2-1.2l0,0c0-0.7-0.5-1.2-1.2-1.2h-7.7
		C65.6,69.1,65,69.6,65,70.2L65,70.2z"/>
	<path class="st18" d="M34.3,52.5c0.6-0.3,0.8-1.1,0.4-1.6l-3.8-6.6c-0.3-0.6-1.1-0.8-1.6-0.4l0,0c-0.6,0.3-0.8,1.1-0.4,1.6l3.8,6.6
		C33,52.6,33.7,52.8,34.3,52.5L34.3,52.5z"/>
	<path class="st18" d="M26.8,60c0.3-0.6,0.1-1.3-0.4-1.6l-6.6-3.8c-0.6-0.3-1.3-0.1-1.6,0.4l0,0c-0.3,0.6-0.1,1.3,0.4,1.6l6.6,3.8
		C25.7,60.8,26.4,60.6,26.8,60L26.8,60z"/>
	<path class="st18" d="M24,70.2c0-0.7-0.5-1.2-1.2-1.2h-7.7c-0.7,0-1.2,0.5-1.2,1.2l0,0c0,0.7,0.5,1.2,1.2,1.2h7.7
		C23.5,71.4,24,70.9,24,70.2L24,70.2z"/>
</g>
<g>
	<path class="st15" d="M48.6,77.8c0-0.3-0.2-0.5-0.5-0.5h-6.2c-0.3,0-0.5,0.2-0.5,0.5l0,0c0,0.3,0.2,0.5,0.5,0.5h6.2
		C48.4,78.3,48.6,78,48.6,77.8L48.6,77.8z"/>
	<path class="st15" d="M48.6,79.2c0-0.3-0.2-0.5-0.5-0.5h-6.2c-0.3,0-0.5,0.2-0.5,0.5l0,0c0,0.3,0.2,0.5,0.5,0.5h6.2
		C48.4,79.8,48.6,79.5,48.6,79.2L48.6,79.2z"/>
	<path class="st15" d="M43.2,80.2c0.3,0.8,1,1.3,1.8,1.3s1.6-0.5,1.8-1.3H43.2z"/>
	<path class="st15" d="M45,60.4c-4.2,0-7.5,3.4-7.5,7.5c0,2.2,1,4.2,2.5,5.6c0,0,0.2,0.2,0.3,0.3c0.7,0.6,1.1,1.6,1.1,2.6h7.2
		c0-1,0.4-2,1.1-2.6c0.1-0.1,0.3-0.3,0.3-0.3c1.5-1.4,2.5-3.4,2.5-5.6C52.5,63.8,49.2,60.4,45,60.4z M45.5,71.5v0.7
		c0,0.1-0.1,0.3-0.2,0.4c-0.1,0.1-0.2,0.2-0.4,0.2h-0.1c-0.1,0-0.3,0-0.4-0.2c-0.1-0.1-0.2-0.2-0.2-0.4v-0.6c-0.8,0-1.5-0.2-2-0.5
		l0.3-1.4c0.5,0.3,1.2,0.5,1.9,0.5s1.1-0.3,1.1-0.7c0-0.4-0.4-0.7-1.2-1c-1.2-0.4-2.1-1-2.1-2.1c0-1,0.7-1.8,2-2.1v-0.6
		c0-0.1,0.1-0.3,0.2-0.4c0.1-0.1,0.2-0.2,0.4-0.2h0.1c0.1,0,0.3,0.1,0.4,0.2c0.1,0.1,0.2,0.2,0.2,0.4v0.5c0.8,0,1.3,0.2,1.7,0.4
		l-0.3,1.3c-0.3-0.1-0.8-0.4-1.7-0.4c-0.8,0-1,0.3-1,0.7c0,0.4,0.4,0.6,1.4,1c1.4,0.5,1.9,1.1,1.9,2.2
		C47.6,70.4,46.9,71.3,45.5,71.5z"/>
</g>
</svg>
