<?xml version="1.0" encoding="utf-8"?>
<!-- Generator: Adobe Illustrator 21.0.0, SVG Export Plug-In . SVG Version: 6.00 Build 0)  -->
<svg version="1.1" id="Layer_1" xmlns="http://www.w3.org/2000/svg" xmlns:xlink="http://www.w3.org/1999/xlink" x="0px" y="0px"
	 viewBox="0 0 189 92" style="enable-background:new 0 0 189 92;" xml:space="preserve">
<style type="text/css">
	.st0{opacity:0.75;fill:none;stroke:#FFFFFF;stroke-width:1.2174;stroke-miterlimit:10;}
	.st1{opacity:5.000000e-02;fill:#2284FF;enable-background:new    ;}
	.st2{fill:none;stroke:#ECF3FB;stroke-width:1.0601;stroke-miterlimit:10;}
	.st3{opacity:0.1;fill:#2284FF;enable-background:new    ;}
	.st4{fill:url(#SVGID_1_);}
	.st5{fill:#B3D2FF;}
	.st6{fill:#FFFFFF;}
	.st7{fill:none;stroke:#FFFFFF;stroke-width:4;stroke-linecap:round;stroke-linejoin:round;stroke-miterlimit:10;}
	.st8{fill:none;stroke:#526B84;stroke-miterlimit:10;stroke-dasharray:3,2;}
	.st9{opacity:0.5;fill:#FFFFFF;enable-background:new    ;}
	.st10{fill:url(#SVGID_2_);}
	.st11{fill:#5089CC;}
	.st12{fill:url(#SVGID_3_);}
	.st13{fill:#76A5D3;}
	.st14{fill:url(#SVGID_4_);}
	.st15{fill:url(#SVGID_5_);}
	.st16{fill:#FF1D25;}
	.st17{fill:#3C91E5;}
</style>
<g>
	<g>
		<polygon class="st0" points="174,41.1 174,57.3 160,65.4 146,57.3 146,41.1 160,33 		"/>
		<polygon class="st0" points="188,65.4 188,81.6 174,89.7 160,81.6 160,65.4 174,57.3 		"/>
		<polygon class="st0" points="160,65.4 160,81.6 146,89.7 132,81.6 132,65.4 146,57.3 		"/>
	</g>
	<polygon class="st1" points="179.8,54.4 179.8,61 174,64.3 168.3,61 168.3,54.4 174,51 	"/>
</g>
<g>
	<g>
		<polygon class="st2" points="21.8,11 21.8,25.1 34,32.2 46.2,25.1 46.2,11 34,4 		"/>
		<polygon class="st2" points="9.6,32.3 9.6,46.4 21.8,53.4 34,46.4 34,32.3 21.8,25.2 		"/>
		<polygon class="st2" points="34,32.3 34,46.4 46.2,53.4 58.4,46.4 58.4,32.3 46.2,25.2 		"/>
	</g>
	<polygon class="st3" points="16.8,22.6 16.8,28.4 21.8,31.2 26.8,28.4 26.8,22.6 21.8,19.7 	"/>
</g>
<linearGradient id="SVGID_1_" gradientUnits="userSpaceOnUse" x1="97.05" y1="91.5" x2="97.05" y2="9.2466" gradientTransform="matrix(1 0 0 -1 0 94)">
	<stop  offset="0" style="stop-color:#E6F0FF"/>
	<stop  offset="0.3214" style="stop-color:#E0ECFF"/>
	<stop  offset="0.7488" style="stop-color:#CFE1FF"/>
	<stop  offset="1" style="stop-color:#C2D9FF"/>
</linearGradient>
<path class="st4" d="M146.3,82H47.7c-2,0-3.7-1.6-3.7-3.7V6.7c0-2,1.6-3.7,3.7-3.7h98.7c2,0,3.7,1.6,3.7,3.7v71.7
	C150,80.4,148.4,82,146.3,82z"/>
<path class="st5" d="M150,18H44V6.7c0-2,1.6-3.7,3.7-3.7h98.7c2,0,3.7,1.6,3.7,3.7L150,18L150,18z"/>
<g>
	<circle class="st6" cx="52" cy="10.5" r="2.5"/>
	<circle class="st6" cx="60.8" cy="10.5" r="2.5"/>
	<circle class="st6" cx="69.5" cy="10.5" r="2.5"/>
</g>
<g>
	<line class="st7" x1="52" y1="29" x2="81" y2="29"/>
	<line class="st7" x1="88" y1="29" x2="105" y2="29"/>
	<line class="st7" x1="100" y1="40" x2="117" y2="40"/>
	<line class="st7" x1="68" y1="40" x2="85" y2="40"/>
</g>
<line class="st8" x1="72" y1="54.5" x2="127" y2="54.5"/>
<g>
	<circle class="st9" cx="124.5" cy="66.5" r="8.5"/>
	<circle class="st9" cx="134.5" cy="66.5" r="8.5"/>
</g>
<g>
	<g>
		
			<linearGradient id="SVGID_2_" gradientUnits="userSpaceOnUse" x1="26.5" y1="24" x2="63.5" y2="24" gradientTransform="matrix(1 0 0 -1 0 94)">
			<stop  offset="0" style="stop-color:#DBEFFF"/>
			<stop  offset="1" style="stop-color:#DBEFFF"/>
		</linearGradient>
		<path class="st10" d="M45,88.5c-10.2,0-18.5-8.3-18.5-18.5S34.8,51.5,45,51.5S63.5,59.8,63.5,70S55.2,88.5,45,88.5z"/>
		<path class="st11" d="M45,52c9.9,0,18,8.1,18,18s-8.1,18-18,18s-18-8.1-18-18S35.1,52,45,52 M45,51c-10.5,0-19,8.5-19,19
			s8.5,19,19,19s19-8.5,19-19S55.5,51,45,51L45,51z"/>
	</g>
	<g>
		
			<linearGradient id="SVGID_3_" gradientUnits="userSpaceOnUse" x1="31.5" y1="24" x2="58.5" y2="24" gradientTransform="matrix(1 0 0 -1 0 94)">
			<stop  offset="0" style="stop-color:#FFFFFF"/>
			<stop  offset="1" style="stop-color:#FFFFFF"/>
		</linearGradient>
		<path class="st12" d="M45,83.5c-7.4,0-13.5-6.1-13.5-13.5S37.6,56.5,45,56.5S58.5,62.6,58.5,70S52.4,83.5,45,83.5z"/>
		<path class="st13" d="M45,57c7.2,0,13,5.8,13,13s-5.8,13-13,13s-13-5.8-13-13S37.8,57,45,57 M45,56c-7.7,0-14,6.3-14,14
			s6.3,14,14,14s14-6.3,14-14S52.7,56,45,56L45,56z"/>
	</g>
</g>
<g>
	<g>
		
			<linearGradient id="SVGID_4_" gradientUnits="userSpaceOnUse" x1="129.5" y1="55" x2="166.5" y2="55" gradientTransform="matrix(1 0 0 -1 0 94)">
			<stop  offset="0" style="stop-color:#DBEFFF"/>
			<stop  offset="1" style="stop-color:#DBEFFF"/>
		</linearGradient>
		<path class="st14" d="M148,57.5c-10.2,0-18.5-8.3-18.5-18.5s8.3-18.5,18.5-18.5s18.5,8.3,18.5,18.5S158.2,57.5,148,57.5z"/>
		<g>
			<path class="st11" d="M148,21c9.9,0,18,8.1,18,18s-8.1,18-18,18s-18-8.1-18-18S138.1,21,148,21 M148,20c-10.5,0-19,8.5-19,19
				s8.5,19,19,19s19-8.5,19-19S158.5,20,148,20L148,20z"/>
		</g>
	</g>
	<g>
		
			<linearGradient id="SVGID_5_" gradientUnits="userSpaceOnUse" x1="134.5" y1="55" x2="161.5" y2="55" gradientTransform="matrix(1 0 0 -1 0 94)">
			<stop  offset="0" style="stop-color:#FFFFFF"/>
			<stop  offset="1" style="stop-color:#FFFFFF"/>
		</linearGradient>
		<path class="st15" d="M148,52.5c-7.4,0-13.5-6.1-13.5-13.5s6.1-13.5,13.5-13.5s13.5,6.1,13.5,13.5S155.4,52.5,148,52.5z"/>
		<g>
			<path class="st13" d="M148,26c7.2,0,13,5.8,13,13s-5.8,13-13,13s-13-5.8-13-13S140.8,26,148,26 M148,25c-7.7,0-14,6.3-14,14
				s6.3,14,14,14s14-6.3,14-14S155.7,25,148,25L148,25z"/>
		</g>
	</g>
</g>
<g>
	<path class="st16" d="M41.4,66h-3.6l-0.4,2.5c0.2,0,0.4-0.1,0.8-0.1c0.7,0,1.5,0.2,2.1,0.5c0.7,0.4,1.4,1.2,1.4,2.5
		c0,1.9-1.5,3.3-3.6,3.3c-1,0-1.9-0.3-2.4-0.6l0.3-1c0.4,0.2,1.2,0.5,2,0.5c1.2,0,2.3-0.8,2.3-2.1c0-1.2-0.8-2.1-2.7-2.1
		c-0.5,0-1,0.1-1.3,0.1l0.6-4.6h4.6L41.4,66L41.4,66z"/>
	<path class="st16" d="M42.5,75.1l4.1-10.7h1l-4.1,10.7H42.5z"/>
	<path class="st16" d="M53.9,66h-3.6l-0.4,2.5c0.2,0,0.4-0.1,0.8-0.1c0.7,0,1.5,0.2,2.1,0.5c0.7,0.4,1.4,1.2,1.4,2.5
		c0,1.9-1.5,3.3-3.6,3.3c-1,0-1.9-0.3-2.4-0.6l0.3-1c0.4,0.2,1.2,0.5,2,0.5c1.2,0,2.3-0.8,2.3-2.1c0-1.2-0.8-2.1-2.7-2.1
		c-0.5,0-1,0.1-1.3,0.1l0.6-4.6H54L53.9,66L53.9,66z"/>
</g>
<polygon class="st17" points="148,31.2 150.2,35.6 155,36.3 151.5,39.7 152.3,44.5 148,42.2 143.7,44.5 144.5,39.7 141,36.3 
	145.8,35.6 "/>
</svg>
