<?xml version="1.0" encoding="utf-8"?>
<!-- Generator: Adobe Illustrator 21.0.0, SVG Export Plug-In . SVG Version: 6.00 Build 0)  -->
<svg version="1.1" id="Layer_1" xmlns="http://www.w3.org/2000/svg" xmlns:xlink="http://www.w3.org/1999/xlink" x="0px" y="0px"
	 viewBox="0 0 30 30" style="enable-background:new 0 0 30 30;" xml:space="preserve">
<style type="text/css">
	.st0{fill:url(#SVGID_1_);}
	.st1{fill:#FCCC6B;}
	.st2{fill:none;stroke:#000000;stroke-width:0.9686;stroke-linecap:round;stroke-miterlimit:10;}
</style>
<linearGradient id="SVGID_1_" gradientUnits="userSpaceOnUse" x1="0.4437" y1="15.5" x2="29.5562" y2="15.5">
	<stop  offset="3.530000e-04" style="stop-color:#7DE7E8"/>
	<stop  offset="0.8914" style="stop-color:#0084E9"/>
</linearGradient>
<path class="st0" d="M22.9,15.5c0,0.3-0.1,0.6-0.4,0.9L12.2,27.2c-0.2,0.3-0.5,0.4-0.9,0.4c-0.3,0-0.6-0.1-0.9-0.4
	c-0.2-0.3-0.4-0.6-0.4-0.9v-5.7H1.7c-0.3,0-0.6-0.1-0.9-0.4c-0.2-0.3-0.4-0.6-0.4-0.9v-7.7c0-0.3,0.1-0.6,0.4-0.9s0.5-0.4,0.9-0.4
	h8.5V4.7c0-0.3,0.1-0.6,0.4-0.9c0.2-0.3,0.5-0.4,0.9-0.4c0.3,0,0.6,0.1,0.9,0.4l10.3,10.8C22.8,14.9,22.9,15.2,22.9,15.5z M29.6,8.5
	v14c0,1.6-0.5,2.9-1.6,4.1c-1.1,1.1-2.4,1.7-3.9,1.7H18c-0.2,0-0.3-0.1-0.4-0.2c-0.1-0.1-0.2-0.3-0.2-0.4c0-0.1,0-0.2,0-0.4
	c0-0.2,0-0.4,0-0.5c0-0.1,0-0.3,0.1-0.5c0-0.2,0.1-0.3,0.2-0.4c0.1-0.1,0.2-0.1,0.4-0.1h6.1c0.8,0,1.5-0.3,2.1-0.9
	c0.6-0.6,0.9-1.4,0.9-2.3v-14c0-0.9-0.3-1.6-0.9-2.3c-0.6-0.6-1.3-0.9-2.1-0.9h-5.9l-0.2,0l-0.2-0.1l-0.2-0.1l-0.1-0.2l0-0.3
	c0-0.1,0-0.2,0-0.4c0-0.2,0-0.4,0-0.5s0-0.3,0.1-0.5s0.1-0.3,0.2-0.4c0.1-0.1,0.2-0.1,0.4-0.1h6.1c1.5,0,2.8,0.6,3.9,1.7
	C29,5.6,29.6,6.9,29.6,8.5z"/>
<g>
	<path class="st1" d="M4.3,7.3L4.3,7.3C3.6,7,3.3,6.1,3.7,5.3l0,0c0.4-0.7,1.3-1.1,2-0.7l0,0c0.7,0.4,1.1,1.3,0.7,2l0,0
		C6,7.4,5.1,7.7,4.3,7.3z"/>
</g>
<g>
	<line class="st2" x1="15.2" y1="14.3" x2="6.8" y2="14.3"/>
	<line class="st2" x1="15.2" y1="16.8" x2="6.8" y2="16.8"/>
</g>
</svg>
