<?xml version="1.0" encoding="utf-8"?>
<!-- Generator: Adobe Illustrator 21.0.0, SVG Export Plug-In . SVG Version: 6.00 Build 0)  -->
<svg version="1.1" id="Layer_1" xmlns="http://www.w3.org/2000/svg" xmlns:xlink="http://www.w3.org/1999/xlink" x="0px" y="0px"
	 viewBox="0 0 545 435" style="enable-background:new 0 0 545 435;" xml:space="preserve">
<style type="text/css">
	.st0{opacity:0.2;fill:#C1E5F7;enable-background:new    ;}
	.st1{opacity:0.1;fill:#C1E5F7;enable-background:new    ;}
	.st2{display:none;fill:#C1E5F7;}
	.st3{opacity:0.2;}
	.st4{fill:#C1E5F7;}
</style>
<g>
	<g>
		<path class="st0" d="M266.7,10c-82.6,0-154.5,48.6-188,119c30.6-54.9,89.4-91.3,156.9-91.3c99.6,0,180.7,81.1,180.7,180.7
			s-81.1,180.2-180.7,180.2c-67,0-126.3-37.4-157.4-91.3c33.5,70,104.9,119,188,119c114.6,0,207.4-93.3,207.4-207.4
			C475.1,102.8,381.8,10,266.7,10L266.7,10z"/>
		<path class="st1" d="M237.5,49.8c67,0,124.8,38.8,151.5,95.7c-25.3-43.7-72.3-73.3-126.3-73.3c-80.1,0-146.2,65.1-146.2,146.2
			c0,79.6,65.1,145.7,146.2,145.7c53.9,0,101.5-29.6,126.3-73.3c-27.2,56.8-84.5,95.7-151.5,95.7C145.3,386.4,70,311.1,70,218.8
			C69,125.1,144.8,49.8,237.5,49.8L237.5,49.8z"/>
		<path class="st2" d="M293.4,84.3c21.4,4.8,40.8,15.1,56.8,27.7c-5.3,5.3-12.1,10.2-19.4,14.1c-1.9-2.9-2.9-5.3-4.8-8.2
			C316.7,102.8,305.5,91.6,293.4,84.3L293.4,84.3z M357.5,119.8c24.3,23.3,39.8,55.9,40.8,92.3h-47.6c-0.9-27.7-6.3-53.9-16-75.3
			C343.4,131.9,351.2,126.1,357.5,119.8L357.5,119.8z M399.3,221.7c-0.9,36.5-16.5,70-40.8,93.3c-6.3-6.3-14.1-12.1-22.3-16.5
			c9.2-21.4,15.1-48.6,16-77.2h47.6L399.3,221.7L399.3,221.7z M350.2,322.3c-16,14.1-35.4,23.3-56.8,27.7
			c12.1-7.3,23.3-18.5,32.6-33.5c1.9-2.9,3.9-5.3,4.8-8.2C338.1,312.1,343.4,317,350.2,322.3L350.2,322.3z M266.7,348.6v-59.8
			c19.4,0.9,38.4,5.3,54.9,14.1c-1.9,2.9-2.9,5.3-4.8,8.2C303.6,332.5,286.1,346.6,266.7,348.6L266.7,348.6z M266.7,278.6v-56.8H341
			c-0.9,27.2-5.8,51.5-15.1,71.9C308.5,285.4,288.1,279.6,266.7,278.6L266.7,278.6z M266.7,211.6v-54.9c21.4-0.9,41.8-5.3,59.8-15.1
			c8.2,20.4,14.1,44.7,15.1,70.9h-74.8L266.7,211.6L266.7,211.6z M266.7,145.5V86.2c19.4,1.9,37.4,16,50,37.4
			c1.9,2.9,2.9,5.3,4.8,8.2C305.5,140.2,287.1,145.5,266.7,145.5L266.7,145.5z M231.3,350.5c-21.4-4.8-40.8-15.1-56.8-27.7
			c5.3-5.3,12.1-10.2,19.4-14.1c1.9,2.9,2.9,5.3,4.8,8.2C207.9,331.5,219.1,343.7,231.3,350.5L231.3,350.5z M167.1,316
			c-24.3-24.3-39.8-56.8-40.8-93.3h47.6c0.9,28.7,6.3,54.9,16,77.2C180.7,303.9,173.4,309.2,167.1,316L167.1,316z M125.9,211.6
			c1.9-36.5,16.5-68.9,40.8-92.3c6.3,6.3,14.1,12.1,22.3,16.5c-9.2,21.4-15.1,47.6-16,75.3h-47.1V211.6z M174.4,112
			c16-14.1,35.4-23.3,56.8-27.7c-12.1,7.3-23.3,18.5-32.6,33.5c-1.9,2.9-3.9,5.3-4.8,8.2C187.5,122.2,180.7,117.8,174.4,112
			L174.4,112z M256,86.2V146c-19.4-0.9-37.4-5.3-53.9-14.1c1.9-2.9,2.9-5.3,4.8-8.2C220.1,102.8,237.5,88.7,256,86.2L256,86.2z
			 M256,155.7v54.9h-72.3c0.9-26.2,5.3-50,15.1-70.9C216.2,150.3,235.6,155.7,256,155.7L256,155.7z M256,221.7v56.8
			c-20.4,0.9-40.8,6.3-57.8,15.1c-8.2-20.4-14.1-44.7-15.1-71.4L256,221.7L256,221.7z M256,288.8v59.8c-18.5-2.9-36.5-16-49.5-37.4
			c-1.9-2.9-2.9-5.3-4.8-8.2C219.1,295.6,237.5,289.7,256,288.8L256,288.8z"/>
	</g>
	<g class="st3">
		<path class="st4" d="M262.8,151.3c7.3,0,14.1,6.3,14.1,14.1s-6.3,14.1-14.1,14.1s-14.1-6.3-14.1-14.1
			C248.7,156.7,254.6,151.3,262.8,151.3L262.8,151.3z"/>
		<path class="st4" d="M262.8,126.1c5.3,0,9.2,4.8,9.2,9.2c0,5.3-4.8,9.2-9.2,9.2c-5.3,0-9.2-4.8-9.2-9.2
			C252.6,130,257,126.1,262.8,126.1L262.8,126.1z"/>
		<path class="st4" d="M262.8,105.7c3.9,0,6.3,2.9,6.3,6.3s-2.9,6.3-6.3,6.3c-3.9,0-6.3-2.9-6.3-6.3
			C255.5,108.6,258.9,105.7,262.8,105.7L262.8,105.7z"/>
		<path class="st4" d="M262.8,88.2c2.9,0,4.8,1.9,4.8,4.8s-1.9,4.8-4.8,4.8S258,95.9,258,93C258,89.6,259.9,88.2,262.8,88.2
			L262.8,88.2z"/>
		<path class="st4" d="M223.5,163.5c6.3-4.8,15.1-2.9,19.4,2.9c4.8,6.3,2.9,15.1-2.9,19.4c-6.3,4.8-15.1,2.9-19.4-2.9
			C216.2,176.1,217.2,167.9,223.5,163.5L223.5,163.5z"/>
		<path class="st4" d="M208.9,143.1c4.8-2.9,10.2-1.9,13.1,1.9c2.9,4.8,1.9,10.2-1.9,13.1c-4.8,2.9-10.2,1.9-13.1-1.9
			C203.1,152.3,204,146.5,208.9,143.1L208.9,143.1z"/>
		<path class="st4" d="M196.8,127c2.9-1.9,7.3-1.9,9.2,1.9c1.9,2.9,1.9,7.3-1.9,9.2c-2.9,1.9-7.3,1.9-9.2-1.9
			C192.9,133.4,193.9,129,196.8,127L196.8,127z"/>
		<path class="st4" d="M186.6,112c1.9-1.9,4.8-0.9,6.3,0.9c1.9,1.9,0.9,4.8-0.9,6.3c-1.9,1.9-4.8,0.9-6.3-0.9
			C183.6,116.8,183.6,114,186.6,112L186.6,112z"/>
		<path class="st4" d="M199.7,197c2.9-7.3,10.2-11.2,17.5-8.2c7.3,2.9,11.2,10.2,8.2,17.5s-10.2,11.2-17.5,8.2
			C200.6,211.6,196.8,204.3,199.7,197L199.7,197z"/>
		<path class="st4" d="M175.4,189.2c1.9-4.8,7.3-7.3,12.1-6.3c4.8,1.9,7.3,7.3,6.3,12.1c-1.9,4.8-7.3,7.3-12.1,6.3
			C176.4,199.4,173.4,194.1,175.4,189.2L175.4,189.2z"/>
		<path class="st4" d="M156,182.9c0.9-3.9,4.8-5.3,8.2-4.8c3.9,0.9,5.3,4.8,4.8,8.2c-0.9,3.9-4.8,5.3-8.2,4.8
			C156.9,190.2,155,186.8,156,182.9L156,182.9z"/>
		<path class="st4" d="M138.9,177.1c0.9-2.9,3.9-3.9,5.3-2.9c2.9,0.9,3.9,3.9,2.9,5.3c-0.9,2.9-3.9,3.9-5.3,2.9
			C138.9,182.9,138,180,138.9,177.1L138.9,177.1z"/>
		<path class="st4" d="M199.7,237.8c-2.9-7.3,1.9-15.1,8.2-17.5c7.3-2.9,15.1,1.9,17.5,8.2c2.9,7.3-1.9,15.1-8.2,17.5
			C208.9,249,201.1,245.1,199.7,237.8L199.7,237.8z"/>
		<path class="st4" d="M175.4,246.1c-1.9-4.8,0.9-10.2,6.3-12.1c4.8-1.9,10.2,0.9,12.1,6.3c1.9,4.8-0.9,10.2-6.3,12.1
			C181.7,253.4,176.4,250.9,175.4,246.1L175.4,246.1z"/>
		<path class="st4" d="M156,251.9c-0.9-3.9,0.9-7.3,4.8-8.2c3.9-0.9,7.3,0.9,8.2,4.8c0.9,3.9-0.9,7.3-4.8,8.2
			C160.4,257.2,156.9,255.3,156,251.9L156,251.9z"/>
		<path class="st4" d="M138.9,257.2c-0.9-1.9,0-4.8,2.9-5.3c2.9-0.9,4.8,0.9,5.3,2.9c0.9,2.9-0.9,4.8-2.9,5.3
			C142.8,261.1,139.9,260.1,138.9,257.2L138.9,257.2z"/>
		<path class="st4" d="M223.5,271.3c-6.3-4.8-7.3-13.1-2.9-19.4c4.8-6.3,13.1-7.3,19.4-2.9c6.3,4.8,7.3,13.1,2.9,19.4
			C237.5,274.2,229.3,275.7,223.5,271.3L223.5,271.3z"/>
		<path class="st4" d="M208.9,291.7c-4.8-2.9-5.3-9.2-1.9-13.1c2.9-4.8,9.2-5.3,13.1-1.9c4.8,2.9,5.3,9.2,1.9,13.1
			C219.1,293.6,212.3,294.6,208.9,291.7L208.9,291.7z"/>
		<path class="st4" d="M196.8,308.2c-2.9-1.9-3.9-6.3-1.9-9.2c1.9-2.9,6.3-3.9,9.2-1.9c2.9,1.9,3.9,6.3,1.9,9.2
			C203.1,309.2,199.7,310.2,196.8,308.2L196.8,308.2z"/>
		<path class="st4" d="M186.6,322.3c-1.9-1.9-2.9-4.8-0.9-6.3c1.9-1.9,4.8-2.9,6.3-0.9c1.9,1.9,2.9,4.8,0.9,6.3
			C190.9,323.3,188.5,324.3,186.6,322.3L186.6,322.3z"/>
		<path class="st4" d="M262.8,284.4c-7.3,0-14.1-6.3-14.1-14.1c0-7.3,6.3-14.1,14.1-14.1c7.8,0,14.1,6.3,14.1,14.1
			C275.9,277.6,270.1,284.4,262.8,284.4L262.8,284.4z"/>
		<path class="st4" d="M262.8,309.2c-5.3,0-9.2-4.8-9.2-9.2c0-5.3,4.8-9.2,9.2-9.2c5.3,0,9.2,4.8,9.2,9.2
			C272,304.8,267.2,309.2,262.8,309.2L262.8,309.2z"/>
		<path class="st4" d="M262.8,329.6c-3.9,0-6.3-2.9-6.3-6.3c0-3.9,2.9-6.3,6.3-6.3c3.9,0,6.3,2.9,6.3,6.3
			C269.2,326.7,266.7,329.6,262.8,329.6L262.8,329.6z"/>
		<path class="st4" d="M262.8,347.6c-2.9,0-4.8-1.9-4.8-4.8s1.9-4.8,4.8-4.8s4.8,1.9,4.8,4.8C267.2,345.6,264.8,347.6,262.8,347.6
			L262.8,347.6z"/>
		<path class="st4" d="M301.7,271.3c-6.3,4.8-15.1,2.9-19.4-2.9c-4.8-6.3-2.9-15.1,2.9-19.4c6.3-4.8,15.1-2.9,19.4,2.9
			C309.4,258.2,307.5,266.4,301.7,271.3L301.7,271.3z"/>
		<path class="st4" d="M316.7,291.7c-4.8,2.9-10.2,1.9-13.1-1.9c-2.9-4.8-1.9-10.2,1.9-13.1c4.8-2.9,10.2-1.9,13.1,1.9
			C321.6,282.5,320.6,288.8,316.7,291.7L316.7,291.7z"/>
		<path class="st4" d="M327.9,308.2c-2.9,1.9-7.3,1.9-9.2-1.9c-1.9-2.9-1.9-7.3,1.9-9.2c2.9-1.9,7.3-1.9,9.2,1.9
			C331.8,301.9,331.8,305.8,327.9,308.2L327.9,308.2z"/>
		<path class="st4" d="M339,322.3c-1.9,1.9-4.8,0.9-6.3-0.9c-1.9-1.9-0.9-4.8,0.9-6.3c1.9-1.9,4.8-0.9,6.3,0.9
			C341,318,341,321.4,339,322.3L339,322.3z"/>
		<path class="st4" d="M326,237.8c-2.9,7.3-10.2,11.2-17.5,8.2c-7.3-2.9-11.2-10.2-8.2-17.5c2.9-7.3,10.2-11.2,17.5-8.2
			C324,222.7,327.9,231,326,237.8L326,237.8z"/>
		<path class="st4" d="M349.3,246.1c-1.9,4.8-7.3,7.3-12.1,6.3c-4.8-1.9-7.3-7.3-6.3-12.1c1.9-4.8,7.3-7.3,12.1-6.3
			C348.3,235.9,351.2,240.7,349.3,246.1L349.3,246.1z"/>
		<path class="st4" d="M368.7,252.9c-0.9,3.9-4.8,5.3-8.2,4.8c-3.9-0.9-5.3-4.8-4.8-8.2c0.9-3.9,4.8-5.3,8.2-4.8
			C367.7,245.1,369.7,249,368.7,252.9L368.7,252.9z"/>
		<path class="st4" d="M385.7,257.2c-0.9,2.9-3.9,3.9-5.3,2.9c-2.9-0.9-3.9-3.9-2.9-5.3c0.9-2.9,3.9-3.9,5.3-2.9
			C385.7,252.9,386.7,255.3,385.7,257.2L385.7,257.2z"/>
		<path class="st4" d="M326,197c2.9,7.3-1.9,15.1-8.2,17.5c-8.2,1.9-16-1.9-17.5-9.2c-2.9-7.3,1.9-15.1,8.2-17.5
			C315.8,185.9,323,189.2,326,197L326,197z"/>
		<path class="st4" d="M349.3,189.2c1.9,4.8-0.9,10.2-6.3,12.1c-4.8,1.9-10.2-0.9-12.1-6.3c-1.9-4.8,0.9-10.2,6.3-12.1
			C342.9,181,348.3,183.9,349.3,189.2L349.3,189.2z"/>
		<path class="st4" d="M368.7,182.9c0.9,3.9-0.9,7.3-4.8,8.2s-7.3-0.9-8.2-4.8c-0.9-3.9,0.9-7.3,4.8-8.2
			C364.3,177.1,367.7,179,368.7,182.9L368.7,182.9z"/>
		<path class="st4" d="M385.7,177.1c0.9,2.9-0.9,4.8-2.9,5.3c-2.9,0.9-4.8-0.9-5.3-2.9c-0.9-2.9,0.9-4.8,2.9-5.3
			C382.8,173.7,384.7,174.7,385.7,177.1L385.7,177.1z"/>
		<path class="st4" d="M301.7,163.5c6.3,4.8,7.3,13.1,2.9,19.4c-4.8,6.3-13.1,7.3-19.4,2.9c-6.3-4.4-7.3-13.1-2.9-19.4
			C287.1,160.6,295.4,159.6,301.7,163.5L301.7,163.5z"/>
		<path class="st4" d="M316.7,143.1c4.8,2.9,5.3,9.2,1.9,13.1c-2.9,4.8-9.2,5.3-13.1,1.9c-4.8-2.9-5.3-9.2-1.9-13.1
			C306.5,141.2,311.9,140.2,316.7,143.1L316.7,143.1z"/>
		<path class="st4" d="M327.9,127c2.9,1.9,3.9,6.3,1.9,9.2c-1.9,2.9-6.3,3.9-9.2,1.9c-2.9-1.9-3.9-6.3-1.9-9.2
			C321.6,125.1,325,124.1,327.9,127L327.9,127z"/>
		<path class="st4" d="M339,112c1.9,1.9,2.9,4.8,0.9,6.3c-1.9,1.9-4.8,2.9-6.3,0.9c-1.4-1.9-2.9-4.8-0.9-6.3
			C333.3,111,336.2,111,339,112L339,112z"/>
		<path class="st4" d="M233.6,130c4.8-1.9,10.2,0.9,12.1,6.3c1.9,4.8-0.9,10.2-6.3,12.1c-4.8,1.9-10.2-0.9-12.1-6.3
			C226.4,137.3,229.3,131.9,233.6,130L233.6,130z"/>
		<path class="st4" d="M227.4,111c3.9-0.9,7.3,0.9,8.2,4.8s-0.9,7.3-4.8,8.2c-3.9,0.9-7.3-0.9-8.2-4.8
			C222,115.9,224.5,112,227.4,111L227.4,111z"/>
		<path class="st4" d="M222,93.5c2.9-0.9,4.8,0.9,5.3,2.9c0.9,2.9-0.9,4.8-2.9,5.3c-2.9,0.9-4.8-0.9-5.3-2.9
			C218.1,97.4,220.1,94.5,222,93.5L222,93.5z"/>
		<path class="st4" d="M208.9,143.1c4.8-2.9,10.2-1.9,13.1,1.9c2.9,4.8,1.9,10.2-1.9,13.1c-4.8,2.9-10.2,1.9-13.1-1.9
			C203.1,152.3,204,146.5,208.9,143.1L208.9,143.1z"/>
		<path class="st4" d="M196.8,127c2.9-1.9,7.3-1.9,9.2,1.9c1.9,2.9,1.9,7.3-1.9,9.2c-2.9,1.9-7.3,1.9-9.2-1.9
			C192.9,133.4,193.9,129,196.8,127L196.8,127z"/>
		<path class="st4" d="M186.6,112c1.9-1.9,4.8-0.9,6.3,0.9c1.9,1.9,0.9,4.8-0.9,6.3c-1.9,1.9-4.8,0.9-6.3-0.9
			C183.6,116.8,183.6,114,186.6,112L186.6,112z"/>
		<path class="st4" d="M188.5,163.5c2.9-4.8,9.2-5.3,13.1-1.9c4.8,2.9,5.3,9.2,1.9,13.1c-2.9,4.8-9.2,5.3-13.1,1.9
			C185.6,173.7,184.6,167.9,188.5,163.5L188.5,163.5z"/>
		<path class="st4" d="M171.5,151.3c1.9-2.9,6.3-3.9,9.2-1.9c2.9,1.9,3.9,6.3,1.9,9.2c-1.9,2.9-6.3,3.9-9.2,1.9
			C169.5,158.6,169.5,154.7,171.5,151.3L171.5,151.3z"/>
		<path class="st4" d="M157.4,141.2c1.9-1.9,4.8-2.9,6.3-0.9c1.9,1.9,2.9,4.8,0.9,6.3c-1.9,1.4-4.8,2.9-6.3,0.9
			C156.9,146.5,156,143.1,157.4,141.2L157.4,141.2z"/>
		<path class="st4" d="M175.4,189.2c1.9-4.8,7.3-7.3,12.1-6.3c4.8,1.9,7.3,7.3,6.3,12.1c-1.9,4.8-7.3,7.3-12.1,6.3
			C176.4,199.4,173.4,194.1,175.4,189.2L175.4,189.2z"/>
		<path class="st4" d="M156,182.9c0.9-3.9,4.8-5.3,8.2-4.8c3.9,0.9,5.3,4.8,4.8,8.2c-0.9,3.9-4.8,5.3-8.2,4.8
			C156.9,190.2,155,186.8,156,182.9L156,182.9z"/>
		<path class="st4" d="M138.9,177.1c0.9-2.9,3.9-3.9,5.3-2.9c2.9,0.9,3.9,3.9,2.9,5.3c-0.9,2.9-3.9,3.9-5.3,2.9
			C138.9,182.9,138,180,138.9,177.1L138.9,177.1z"/>
		<path class="st4" d="M170.5,217.4c0-5.3,4.8-9.2,9.2-9.2c5.3,0,9.2,4.8,9.2,9.2c0,5.3-4.8,9.2-9.2,9.2
			C174.4,227.6,170.5,222.7,170.5,217.4L170.5,217.4z"/>
		<path class="st4" d="M150.1,217.4c0-3.9,2.9-6.3,6.3-6.3c3.4,0,6.3,2.9,6.3,6.3c0,3.9-2.9,6.3-6.3,6.3
			C153.1,223.7,150.1,220.8,150.1,217.4L150.1,217.4z"/>
		<path class="st4" d="M132.6,217.4c0-2.9,1.9-4.8,4.8-4.8s4.8,1.9,4.8,4.8s-1.9,4.8-4.8,4.8C134.6,221.7,132.6,219.9,132.6,217.4
			L132.6,217.4z"/>
		<path class="st4" d="M175.4,246.1c-1.9-4.8,0.9-10.2,6.3-12.1c4.8-1.9,10.2,0.9,12.1,6.3c1.9,4.8-0.9,10.2-6.3,12.1
			C181.7,253.4,176.4,250.9,175.4,246.1L175.4,246.1z"/>
		<path class="st4" d="M156,252.9c-0.9-3.9,0.9-7.3,4.8-8.2c3.9-0.9,7.3,0.9,8.2,4.8c0.9,3.9-0.9,7.3-4.8,8.2
			C160.4,257.2,156.9,255.3,156,252.9L156,252.9z"/>
		<path class="st4" d="M138.9,257.2c-0.9-1.9,0-4.8,2.9-5.3c2.9-0.9,4.8,0.9,5.3,2.9c0.9,2.9-0.9,4.8-2.9,5.3
			C142.8,261.1,139.9,260.1,138.9,257.2L138.9,257.2z"/>
		<path class="st4" d="M188.5,271.3c-2.9-4.8-1.9-10.2,1.9-13.1c4.8-2.9,10.2-1.9,13.1,1.9c2.9,4.8,1.9,10.2-1.9,13.1
			C197.8,276.7,190.9,275.7,188.5,271.3L188.5,271.3z"/>
		<path class="st4" d="M171.5,283.5c-1.9-2.9-1.9-7.3,1.9-9.2c2.9-1.9,7.3-1.9,9.2,1.9c1.9,2.4,1.9,7.3-1.9,9.2
			C178.3,286.9,173.4,285.9,171.5,283.5L171.5,283.5z"/>
		<path class="st4" d="M157.4,293.6c-1.9-1.9-0.9-4.8,0.9-6.3c1.9-1.9,4.8-0.9,6.3,0.9s0.9,4.8-0.9,6.3
			C161.3,296.6,158.4,296.6,157.4,293.6L157.4,293.6z"/>
		<path class="st4" d="M208.9,291.7c-4.8-2.9-5.3-9.2-1.9-13.1c2.9-4.8,9.2-5.3,13.1-1.9c4.8,2.9,5.3,9.2,1.9,13.1
			C219.1,293.6,212.3,294.6,208.9,291.7L208.9,291.7z"/>
		<path class="st4" d="M196.8,308.2c-2.9-1.9-3.9-6.3-1.9-9.2c1.9-2.9,6.3-3.9,9.2-1.9c2.9,1.9,3.9,6.3,1.9,9.2
			C203.1,309.2,199.7,310.2,196.8,308.2L196.8,308.2z"/>
		<path class="st4" d="M186.6,322.3c-1.9-1.9-2.9-4.8-0.9-6.3c1.9-1.9,4.8-2.9,6.3-0.9c1.9,1.9,2.9,4.8,0.9,6.3
			C190.9,323.3,188.5,324.3,186.6,322.3L186.6,322.3z"/>
		<path class="st4" d="M233.6,304.8c-4.8-1.9-7.3-7.3-6.3-12.1c1.9-4.8,7.3-7.3,12.1-6.3c4.8,1.9,7.3,7.3,6.3,12.1
			C244.3,303.9,238.5,306.8,233.6,304.8L233.6,304.8z"/>
		<path class="st4" d="M227.4,324.3c-3.9-0.9-5.3-4.8-4.8-8.2c0.9-3.9,4.8-5.3,8.2-4.8c3.9,0.9,5.3,4.8,4.8,8.2
			C234.7,323.3,231.3,325.3,227.4,324.3L227.4,324.3z"/>
		<path class="st4" d="M222,340.8c-2.9-0.9-3.9-3.9-2.9-5.3c0.9-2.9,3.9-3.9,5.3-2.9c2.9,0.9,3.9,3.9,2.9,5.3
			C227.4,340.3,224.5,341.7,222,340.8L222,340.8z"/>
		<path class="st4" d="M262.8,309.2c-5.3,0-9.2-4.8-9.2-9.2c0-5.3,4.8-9.2,9.2-9.2c5.3,0,9.2,4.8,9.2,9.2
			C272,304.8,267.2,309.2,262.8,309.2L262.8,309.2z"/>
		<path class="st4" d="M262.8,329.6c-3.9,0-6.3-2.9-6.3-6.3c0-3.9,2.9-6.3,6.3-6.3c3.9,0,6.3,2.9,6.3,6.3
			C269.2,326.7,266.7,329.6,262.8,329.6L262.8,329.6z"/>
		<path class="st4" d="M262.8,347.6c-2.9,0-4.8-1.9-4.8-4.8s1.9-4.8,4.8-4.8s4.8,1.9,4.8,4.8C267.2,345.6,264.8,347.6,262.8,347.6
			L262.8,347.6z"/>
		<path class="st4" d="M290.5,304.8c-4.8,1.9-10.2-0.9-12.1-6.3c-1.9-4.8,0.9-10.2,6.3-12.1c4.8-1.9,10.2,0.9,12.1,6.3
			C298.3,298,296.3,302.9,290.5,304.8L290.5,304.8z"/>
		<path class="st4" d="M297.3,324.3c-3.9,0.9-7.3-0.9-8.2-4.8s0.9-7.3,4.8-8.2c3.9-0.9,7.3,0.9,8.2,4.8S300.7,323.3,297.3,324.3
			L297.3,324.3z"/>
		<path class="st4" d="M302.7,340.8c-2.9,0.9-4.8-0.9-5.3-2.9c-0.9-2.9,0.9-4.8,2.9-5.3c2.9-0.9,5.3,0.9,5.3,2.9
			C306.5,337.4,304.6,340.3,302.7,340.8L302.7,340.8z"/>
		<path class="st4" d="M316.7,291.7c-4.8,2.9-10.2,1.9-13.1-1.9c-2.9-4.8-1.9-10.2,1.9-13.1c4.8-2.9,10.2-1.9,13.1,1.9
			C321.6,282.5,320.6,288.8,316.7,291.7L316.7,291.7z"/>
		<path class="st4" d="M327.9,308.2c-2.9,1.9-7.3,1.9-9.2-1.9c-1.9-2.9-1.9-7.3,1.9-9.2c2.9-1.9,7.3-1.9,9.2,1.9
			C331.8,301.9,331.8,305.8,327.9,308.2L327.9,308.2z"/>
		<path class="st4" d="M339,322.3c-1.9,1.9-4.8,0.9-6.3-0.9c-1.9-1.9-0.9-4.8,0.9-6.3c1.9-1.9,4.8-0.9,6.3,0.9
			C341,318,341,321.4,339,322.3L339,322.3z"/>
		<path class="st4" d="M336.2,271.3c-2.9,4.8-9.2,5.3-13.1,1.9c-4.8-2.9-5.3-9.2-1.9-13.1c2.9-4.8,9.2-5.3,13.1-1.9
			C339,261.1,340,267.4,336.2,271.3L336.2,271.3z"/>
		<path class="st4" d="M353.2,283.5c-1.9,2.9-6.3,3.9-9.2,1.9c-2.9-1.9-3.9-6.8-1.9-9.7c1.9-2.9,6.3-3.9,9.2-1.9
			C354.6,275.7,354.6,280.6,353.2,283.5L353.2,283.5z"/>
		<path class="st4" d="M367.7,293.6c-1.9,1.9-4.8,2.9-6.3,0.9c-1.4-1.9-2.9-4.8-0.9-6.3c1.9-1.9,4.8-2.9,6.3-0.9
			C368.7,288.8,368.7,291.7,367.7,293.6L367.7,293.6z"/>
		<path class="st4" d="M349.3,246.1c-1.9,4.8-7.3,7.3-12.1,6.3c-4.8-1.9-7.3-7.3-6.3-12.1c1.9-4.8,7.3-7.3,12.1-6.3
			C348.3,235.9,351.2,240.7,349.3,246.1L349.3,246.1z"/>
		<path class="st4" d="M368.7,251.9c-0.9,3.9-4.8,5.3-8.2,4.8c-3.9-0.9-5.3-4.8-4.8-8.2c0.9-3.9,4.8-5.3,8.2-4.8
			C367.7,245.1,369.7,249,368.7,251.9L368.7,251.9z"/>
		<path class="st4" d="M385.7,257.2c-0.9,2.9-3.9,3.9-5.3,2.9c-2.9-0.9-3.9-3.9-2.9-5.3c0.9-2.9,3.9-3.9,5.3-2.9
			C385.7,252.9,386.7,255.3,385.7,257.2L385.7,257.2z"/>
		<path class="st4" d="M354.1,217.4c0,5.3-4.8,9.2-9.2,9.2c-5.3,0-9.2-4.8-9.2-9.2c0-5.3,4.8-9.2,9.2-9.2
			C350.2,208.2,354.1,212.6,354.1,217.4L354.1,217.4z"/>
		<path class="st4" d="M374.6,217.4c0,3.9-2.9,6.3-6.3,6.3s-6.3-2.9-6.3-6.3c0-3.9,2.9-6.3,6.3-6.3
			C371.6,211.1,374.6,213.5,374.6,217.4L374.6,217.4z"/>
		<path class="st4" d="M392,217.4c0,2.9-1.9,4.8-4.8,4.8s-4.8-1.9-4.8-4.8s1.9-4.8,4.8-4.8S392,214.5,392,217.4L392,217.4z"/>
		<path class="st4" d="M349.3,189.2c1.9,4.8-0.9,10.2-6.3,12.1c-4.8,1.9-10.2-0.9-12.1-6.3c-1.9-4.8,0.9-10.2,6.3-12.1
			C342.9,181,348.3,183.9,349.3,189.2L349.3,189.2z"/>
		<path class="st4" d="M368.7,182.9c0.9,3.9-0.9,7.3-4.8,8.2s-7.3-0.9-8.2-4.8c-0.9-3.9,0.9-7.3,4.8-8.2
			C364.3,177.1,367.7,179,368.7,182.9L368.7,182.9z"/>
		<path class="st4" d="M385.7,177.1c0.9,2.9-0.9,4.8-2.9,5.3c-2.9,0.9-4.8-0.9-5.3-2.9c-0.9-2.9,0.9-4.8,2.9-5.3
			C382.8,173.7,384.7,174.7,385.7,177.1L385.7,177.1z"/>
		<path class="st4" d="M336.2,163.5c2.9,4.8,1.9,10.2-1.9,13.1c-4.8,2.9-10.2,1.9-13.1-1.9c-2.9-4.8-1.9-10.2,1.9-13.1
			C327.9,158.6,333.3,159.6,336.2,163.5L336.2,163.5z"/>
		<path class="st4" d="M353.2,151.3c1.9,2.9,1.9,7.3-1.9,9.2c-2.9,1.9-7.3,1.9-9.2-1.9c-1.9-2.9-1.9-7.3,1.9-9.2
			C346.3,147.5,351.2,148.5,353.2,151.3L353.2,151.3z"/>
		<path class="st4" d="M367.7,141.2c1.9,1.9,0.9,4.8-0.9,6.3c-1.9,1.9-4.8,0.9-6.3-0.9c-1.4-1.9-0.9-4.8,0.9-6.3
			C363.4,138.2,365.8,139.2,367.7,141.2L367.7,141.2z"/>
		<path class="st4" d="M316.7,143.1c4.8,2.9,5.3,9.2,1.9,13.1c-2.9,4.8-9.2,5.3-13.1,1.9c-4.8-2.9-5.3-9.2-1.9-13.1
			C306.5,141.2,311.9,140.2,316.7,143.1L316.7,143.1z"/>
		<path class="st4" d="M327.9,127c2.9,1.9,3.9,6.3,1.9,9.2c-1.9,2.9-6.3,3.9-9.2,1.9c-2.9-1.9-3.9-6.3-1.9-9.2
			C321.6,125.1,325,124.1,327.9,127L327.9,127z"/>
		<path class="st4" d="M339,112c1.9,1.9,2.9,4.8,0.9,6.3c-1.9,1.9-4.8,2.9-6.3,0.9c-1.4-1.9-2.9-4.8-0.9-6.3
			C333.3,111,336.2,111,339,112L339,112z"/>
		<path class="st4" d="M290.5,130c4.8,1.9,7.3,7.3,6.3,12.1c-1.9,4.8-7.3,7.3-12.1,6.3c-4.8-1.9-7.3-7.3-6.3-12.1
			C280.3,131.9,286.1,129,290.5,130L290.5,130z"/>
		<path class="st4" d="M297.3,111c3.9,0.9,5.3,4.8,4.8,8.2c-0.9,3.9-4.8,5.3-8.2,4.8c-3.4-0.5-5.3-4.8-4.8-8.2
			C289.5,111,293.4,109.6,297.3,111L297.3,111z"/>
		<path class="st4" d="M302.7,93.5c2.9,0.9,3.9,3.9,2.9,5.3c-0.9,2.9-3.9,3.9-5.3,2.9c-2.9-0.9-3.9-3.9-2.9-5.3
			C297.3,94.5,299.8,93.5,302.7,93.5L302.7,93.5z"/>
	</g>
</g>
</svg>
