<?xml version="1.0" encoding="utf-8"?>
<!-- Generator: Adobe Illustrator 21.0.0, SVG Export Plug-In . SVG Version: 6.00 Build 0)  -->
<svg version="1.1" id="Layer_1" xmlns="http://www.w3.org/2000/svg" xmlns:xlink="http://www.w3.org/1999/xlink" x="0px" y="0px"
	 viewBox="0 0 1920 2410" style="enable-background:new 0 0 1920 2410;" xml:space="preserve">
<style type="text/css">
	.st0{opacity:0.5;clip-path:url(#SVGID_2_);fill:#C1E5F7;enable-background:new    ;}
	.st1{opacity:0.5;fill:#CFE3FF;enable-background:new    ;}
	.st2{opacity:0.1;fill:#CFE3FF;enable-background:new    ;}
	.st3{fill:#C1E5F7;stroke:#54B1D6;stroke-miterlimit:10;}
	.st4{opacity:8.000000e-02;fill:#7BB7FF;enable-background:new    ;}
	.st5{opacity:8.000000e-02;fill:url(#SVGID_3_);enable-background:new    ;}
</style>
<g id="XMLID_781_">
	<g>
		<g>
			<g>
				<g>
					<defs>
						<circle id="SVGID_1_" cx="82.2" cy="1087.7" r="178"/>
					</defs>
					<clipPath id="SVGID_2_">
						<use xlink:href="#SVGID_1_"  style="overflow:visible;"/>
					</clipPath>
					<path id="XMLID_784_" class="st0" d="M-317.7,1117.5c0.9,1,0.8,2.5-0.1,3.4c-1,0.9-2.5,0.8-3.4-0.1c-0.9-1-0.8-2.5,0.1-3.4
						C-320.1,1116.5-318.7,1116.5-317.7,1117.5z M-288.8,1087.2c-1,0.9-1,2.4-0.1,3.4s2.4,1,3.4,0.1s1-2.4,0.1-3.4
						C-286.5,1086.4-287.9,1086.4-288.8,1087.2z M-256.6,1057.1c-1,0.9-1,2.4-0.1,3.4s2.4,1,3.4,0.1s1-2.4,0.1-3.4
						C-254.3,1056.3-255.7,1056.2-256.6,1057.1z M-224.4,1027c-1,0.9-1,2.4-0.1,3.4s2.4,1,3.4,0.1s1-2.4,0.1-3.4
						C-222.1,1026.1-223.5,1026-224.4,1027z M-192.3,996.8c-1,0.9-1,2.4-0.1,3.4s2.4,1,3.4,0.1s1-2.4,0.1-3.4
						C-189.9,996-191.3,996-192.3,996.8z M-160.1,966.7c-1,0.9-1,2.4-0.1,3.4s2.4,1,3.4,0.1s1-2.4,0.1-3.4
						C-157.7,965.9-159.1,965.8-160.1,966.7z M-127.9,936.6c-1,0.9-1,2.4-0.1,3.4c0.9,1,2.4,1,3.4,0.1s1-2.4,0.1-3.4
						C-125.5,935.7-126.9,935.6-127.9,936.6z M-95.7,906.4c-1,0.9-1,2.4-0.1,3.4s2.4,1,3.4,0.1s1-2.4,0.1-3.4
						C-93.3,905.6-94.7,905.5-95.7,906.4z M-63.5,876.2c-1,0.9-1,2.4-0.1,3.4s2.4,1,3.4,0.1s1-2.4,0.1-3.4
						C-60.9,875.4-62.5,875.4-63.5,876.2z M-31.3,846.1c-1,0.9-1,2.4-0.1,3.4s2.4,1,3.4,0.1s1-2.4,0.1-3.4
						C-28.9,845.3-30.4,845.2-31.3,846.1z M0.9,816c-1,0.9-1,2.4-0.1,3.4s2.4,1,3.4,0.1s1-2.4,0.1-3.4C3.5,815.1,1.8,815.1,0.9,816z
						 M33.1,785.8c-1,0.9-1,2.4-0.1,3.4s2.4,1,3.4,0.1c1-0.8,1-2.4,0.1-3.4C35.5,785,34,784.9,33.1,785.8z M65.3,755.7
						c-1,0.9-1,2.4-0.1,3.4s2.4,1,3.4,0.1s1-2.4,0.1-3.4C67.9,754.8,66.2,754.8,65.3,755.7z M97.5,725.6c-1,0.9-1,2.4-0.1,3.4
						s2.4,1,3.4,0.1s1-2.4,0.1-3.4C99.9,724.7,98.4,724.7,97.5,725.6z M-292.7,1114.3c-1,0.9-1,2.4-0.1,3.4s2.4,1,3.4,0.1
						s1-2.4,0.1-3.4C-290.3,1113.4-291.7,1113.4-292.7,1114.3z M-260.5,1084.1c-1,0.9-1,2.4-0.1,3.4s2.4,1,3.4,0.1s1-2.4,0.1-3.4
						C-258.1,1083.3-259.5,1083.3-260.5,1084.1z M-228.3,1054c-1,0.9-1,2.4-0.1,3.4s2.4,1,3.4,0.1s1-2.4,0.1-3.4
						C-225.9,1053.2-227.3,1053.1-228.3,1054z M-196.1,1023.9c-1,0.9-1,2.4-0.1,3.4s2.4,1,3.4,0.1s1-2.4,0.1-3.4
						C-193.7,1023-195.1,1023-196.1,1023.9z M-163.9,993.7c-1,0.9-1,2.4-0.1,3.4s2.4,1,3.4,0.1s1-2.4,0.1-3.4
						C-161.5,992.9-162.9,992.9-163.9,993.7z M-131.7,963.5c-1,0.9-1,2.4-0.1,3.4c0.8,1,2.4,1,3.4,0.1s1-2.4,0.1-3.4
						C-129.3,962.8-130.7,962.7-131.7,963.5z M-99.5,933.5c-1,0.9-1,2.4-0.1,3.4s2.4,1,3.4,0.1s1-2.4,0.1-3.4
						C-97.1,932.6-98.5,932.5-99.5,933.5z M-67.3,903.3c-1,0.9-1,2.4-0.1,3.4s2.4,1,3.4,0.1s1-2.4,0.1-3.4
						C-64.9,902.5-66.3,902.4-67.3,903.3z M-35.1,873.1c-1,0.9-1,2.4-0.1,3.4s2.4,1,3.4,0.1c1-0.9,1-2.4,0.1-3.4
						C-32.7,872.3-34.1,872.3-35.1,873.1z M-2.9,843.1c-1,0.9-1,2.4-0.1,3.4s2.4,1,3.4,0.1s1-2.4,0.1-3.4
						C-0.5,842.2-1.9,842.1-2.9,843.1z M29.3,812.9c-1,0.9-1,2.4-0.1,3.4s2.4,1,3.4,0.1s1-2.4,0.1-3.4
						C31.7,812.1,30.2,812,29.3,812.9z M61.5,782.7c-1,0.9-1,2.4-0.1,3.4s2.4,1,3.4,0.1s1-2.4,0.1-3.4
						C63.9,781.9,62.4,781.8,61.5,782.7z M93.7,752.6c-1,0.9-1,2.4-0.1,3.4s2.4,1,3.4,0.1s1-2.4,0.1-3.4
						C96.1,751.7,94.6,751.7,93.7,752.6z M125.9,722.5c-1,0.9-1,2.4-0.1,3.4s2.4,1,3.4,0.1s1-2.4,0.1-3.4
						C128.3,721.6,126.8,721.6,125.9,722.5z M-296.4,1143.7c-1,0.9-1,2.4-0.1,3.4s2.4,1,3.4,0.1s1-2.4,0.1-3.4
						C-294,1142.9-295.5,1142.8-296.4,1143.7z M-264.2,1113.6c-1,0.9-1,2.4-0.1,3.4s2.4,1,3.4,0.1s1-2.4,0.1-3.4
						C-261.8,1112.7-263.3,1112.7-264.2,1113.6z M-232,1083.4c-1,0.9-1,2.4-0.1,3.4s2.4,1,3.4,0.1s1-2.4,0.1-3.4
						C-229.6,1082.6-231.1,1082.5-232,1083.4z M-199.8,1053.3c-1,0.9-1,2.4-0.1,3.4s2.4,1,3.4,0.1c1-0.8,1-2.4,0.1-3.4
						C-197.4,1052.4-198.9,1052.4-199.8,1053.3z M-167.6,1023.2c-1,0.9-1,2.4-0.1,3.4s2.4,1,3.4,0.1s1-2.4,0.1-3.4
						C-165.2,1022.3-166.7,1022.3-167.6,1023.2z M-135.4,993c-1,0.9-1,2.4-0.1,3.4s2.4,1,3.4,0.1s1-2.4,0.1-3.4
						C-133,992.2-134.5,992.1-135.4,993z M-103.3,962.8c-1,0.9-1,2.4-0.1,3.4s2.4,1,3.4,0.1s1-2.4,0.1-3.4
						C-100.8,962-102.3,961.9-103.3,962.8z M-71.1,932.7c-1,0.9-1,2.4-0.1,3.4s2.4,1,3.4,0.1s1-2.4,0.1-3.4S-70.1,931.8-71.1,932.7z
						 M-38.9,902.6c-1,0.9-1,2.4-0.1,3.4s2.4,1,3.4,0.1s1-2.4,0.1-3.4C-36.3,901.8-37.9,901.7-38.9,902.6z M-6.7,872.4
						c-1,0.9-1,2.4-0.1,3.4s2.4,1,3.4,0.1s1-2.4,0.1-3.4C-4.2,871.6-5.7,871.5-6.7,872.4z M25.5,842.3c-1,0.9-1,2.4-0.1,3.4
						s2.4,1,3.4,0.1s1-2.4,0.1-3.4C28,841.4,26.5,841.4,25.5,842.3z M57.7,812.1c-1,0.9-1,2.4-0.1,3.4s2.4,1,3.4,0.1s1-2.4,0.1-3.4
						C60.2,811.3,58.7,811.3,57.7,812.1z M89.9,782c-1,0.9-1,2.4-0.1,3.4s2.4,1,3.4,0.1s1-2.4,0.1-3.4
						C92.4,781.2,90.9,781.1,89.9,782z M122.1,751.9c-1,0.9-1,2.4-0.1,3.4s2.4,1,3.4,0.1s1-2.4,0.1-3.4S123.1,751,122.1,751.9z
						 M-268,1140.6c-1,0.9-1,2.4-0.1,3.4s2.4,1,3.4,0.1s1-2.4,0.1-3.4C-265.6,1139.8-267.1,1139.7-268,1140.6z M-235.8,1110.5
						c-1,0.9-1,2.4-0.1,3.4s2.4,1,3.4,0.1c1-0.8,1-2.4,0.1-3.4C-233.4,1109.6-234.9,1109.6-235.8,1110.5z M-203.6,1080.3
						c-1,0.9-1,2.4-0.1,3.4s2.4,1,3.4,0.1s1-2.4,0.1-3.4C-201.3,1079.5-202.7,1079.4-203.6,1080.3z M-171.4,1050.2
						c-1,0.9-1,2.4-0.1,3.4s2.4,1,3.4,0.1s1-2.4,0.1-3.4C-169.1,1049.3-170.5,1049.3-171.4,1050.2z M-139.2,1020.1
						c-1,0.9-1,2.4-0.1,3.4s2.4,1,3.4,0.1s1-2.4,0.1-3.4C-136.9,1019.2-138.3,1019.2-139.2,1020.1z M-107,989.9
						c-1,0.9-1,2.4-0.1,3.4s2.4,1,3.4,0.1s1-2.4,0.1-3.4C-104.7,989.1-106.1,989-107,989.9z M-74.9,959.8c-1,0.9-1,2.4-0.1,3.4
						s2.4,1,3.4,0.1s1-2.4,0.1-3.4C-72.5,958.9-73.9,958.8-74.9,959.8z M-42.7,929.6c-1,0.9-1,2.4-0.1,3.4s2.4,1,3.4,0.1
						s1-2.4,0.1-3.4C-40.3,928.8-41.7,928.8-42.7,929.6z M-10.5,899.5c-1,0.9-1,2.4-0.1,3.4s2.4,1,3.4,0.1s1-2.4,0.1-3.4
						C-8.1,898.7-9.5,898.6-10.5,899.5z M21.7,869.3c-1,0.9-1,2.4-0.1,3.4s2.4,1,3.4,0.1s1-2.4,0.1-3.4
						C24.1,868.5,22.7,868.4,21.7,869.3z M53.9,839.2c-1,0.9-1,2.4-0.1,3.4s2.4,1,3.4,0.1s1-2.4,0.1-3.4
						C56.3,838.3,54.9,838.3,53.9,839.2z M86.1,809c-1,0.9-1,2.4-0.1,3.4s2.4,1,3.4,0.1s1-2.4,0.1-3.4
						C88.5,808.2,87.1,808.2,86.1,809z M118.3,778.9c-1,0.9-1,2.4-0.1,3.4s2.4,1,3.4,0.1s1-2.4,0.1-3.4
						C120.7,778.1,119.2,778,118.3,778.9z M150.5,748.8c-1,0.9-1,2.4-0.1,3.4s2.4,1,3.4,0.1s1-2.4,0.1-3.4
						C152.9,747.9,151.4,747.9,150.5,748.8z M-271.8,1170c-1,0.9-1,2.4-0.1,3.4s2.4,1,3.4,0.1s1-2.4,0.1-3.4
						C-269.4,1169.2-270.8,1169.1-271.8,1170z M-239.6,1139.9c-1,0.9-1,2.4-0.1,3.4s2.4,1,3.4,0.1s1-2.4,0.1-3.4
						C-237.2,1139-238.6,1138.9-239.6,1139.9z M-207.4,1109.7c-1,0.9-1,2.4-0.1,3.4s2.4,1,3.4,0.1s1-2.4,0.1-3.4
						C-205,1108.9-206.5,1108.9-207.4,1109.7z M-175.2,1079.6c-1,0.9-1,2.4-0.1,3.4s2.4,1,3.4,0.1s1-2.4,0.1-3.4
						C-172.8,1078.8-174.3,1078.7-175.2,1079.6z M-143,1049.5c-1,0.9-1,2.4-0.1,3.4s2.4,1,3.4,0.1s1-2.4,0.1-3.4
						C-140.6,1048.6-142.1,1048.5-143,1049.5z M-110.8,1019.3c-1,0.9-1,2.4-0.1,3.4s2.4,1,3.4,0.1s1-2.4,0.1-3.4
						C-108.4,1018.5-109.9,1018.4-110.8,1019.3z M-78.6,989.1c-1,0.9-1,2.4-0.1,3.4s2.4,1,3.4,0.1s1-2.4,0.1-3.4
						C-76.2,988.3-77.7,988.3-78.6,989.1z M-46.4,959.1c-1,0.9-1,2.4-0.1,3.4c0.8,1,2.4,1,3.4,0.1c1-0.8,1-2.4,0.1-3.4
						C-44,958.2-45.5,958.1-46.4,959.1z M-14.3,928.9c-1,0.9-1,2.4-0.1,3.4c0.8,1,2.4,1,3.4,0.1s1-2.4,0.1-3.4
						C-11.8,928-13.3,928-14.3,928.9z M17.9,898.7c-1,0.9-1,2.4-0.1,3.4s2.4,1,3.4,0.1s1-2.4,0.1-3.4
						C20.4,897.9,18.9,897.8,17.9,898.7z M50.1,868.6c-1,0.9-1,2.4-0.1,3.4s2.4,1,3.4,0.1s1-2.4,0.1-3.4
						C52.6,867.7,51.1,867.7,50.1,868.6z M82.3,838.5c-1,0.9-1,2.4-0.1,3.4c0.8,1,2.4,1,3.4,0.1s1-2.4,0.1-3.4
						S83.3,837.6,82.3,838.5z M114.5,808.3c-1,0.9-1,2.4-0.1,3.4s2.4,1,3.4,0.1s1-2.4,0.1-3.4C117,807.5,115.5,807.4,114.5,808.3z
						 M146.7,778.2c-1,0.9-1,2.4-0.1,3.4s2.4,1,3.4,0.1s1-2.4,0.1-3.4S147.7,777.3,146.7,778.2z M-243.4,1166.9
						c-1,0.9-1,2.4-0.1,3.4s2.4,1,3.4,0.1s1-2.4,0.1-3.4C-241,1166.1-242.5,1166-243.4,1166.9z M-211.2,1136.8c-1,0.9-1,2.4-0.1,3.4
						s2.4,1,3.4,0.1c1-0.8,1-2.4,0.1-3.4C-208.8,1135.9-210.3,1135.9-211.2,1136.8z M-179,1106.6c-1,0.9-1,2.4-0.1,3.4
						s2.4,1,3.4,0.1s1-2.4,0.1-3.4C-176.6,1105.8-178.1,1105.8-179,1106.6z M-146.8,1076.5c-1,0.9-1,2.4-0.1,3.4s2.4,1,3.4,0.1
						s1-2.4,0.1-3.4C-144.4,1075.7-145.9,1075.6-146.8,1076.5z M-114.6,1046.4c-1,0.9-1,2.4-0.1,3.4s2.4,1,3.4,0.1s1-2.4,0.1-3.4
						C-112.2,1045.5-113.7,1045.4-114.6,1046.4z M-82.4,1016.2c-1,0.9-1,2.4-0.1,3.4s2.4,1,3.4,0.1s1-2.4,0.1-3.4
						C-80,1015.4-81.5,1015.3-82.4,1016.2z M-50.2,986c-1,0.9-1,2.4-0.1,3.4s2.4,1,3.4,0.1s1-2.4,0.1-3.4
						C-47.8,985.2-49.3,985.2-50.2,986z M-18,956c-1,0.9-1,2.4-0.1,3.4s2.4,1,3.4,0.1s1-2.4,0.1-3.4C-15.6,955.1-17.1,955-18,956z
						 M14.1,925.8c-1,0.9-1,2.4-0.1,3.4s2.4,1,3.4,0.1s1-2.4,0.1-3.4C16.6,925,15.1,924.9,14.1,925.8z M46.3,895.6
						c-1,0.9-1,2.4-0.1,3.4s2.4,1,3.4,0.1c1-0.8,1-2.4,0.1-3.4C48.8,894.8,47.3,894.7,46.3,895.6z M78.5,865.5c-1,0.9-1,2.4-0.1,3.4
						s2.4,1,3.4,0.1s1-2.4,0.1-3.4S79.5,864.6,78.5,865.5z M110.7,835.4c-1,0.9-1,2.4-0.1,3.4s2.4,1,3.4,0.1s1-2.4,0.1-3.4
						S111.7,834.5,110.7,835.4z M142.9,805.2c-1,0.9-1,2.4-0.1,3.4s2.4,1,3.4,0.1s1-2.4,0.1-3.4
						C145.4,804.4,143.9,804.3,142.9,805.2z M175.1,775.1c-1,0.9-1,2.4-0.1,3.4s2.4,1,3.4,0.1s1-2.4,0.1-3.4
						C177.7,774.2,176.1,774.2,175.1,775.1z M-247.2,1196.3c-1,0.9-1,2.4-0.1,3.4s2.4,1,3.4,0.1s1-2.4,0.1-3.4
						C-244.6,1195.5-246.2,1195.5-247.2,1196.3z M-215,1166.2c-1,0.9-1,2.4-0.1,3.4s2.4,1,3.4,0.1s1-2.4,0.1-3.4
						C-212.5,1165.3-214,1165.3-215,1166.2z M-182.8,1136.1c-1,0.9-1,2.4-0.1,3.4s2.4,1,3.4,0.1s1-2.4,0.1-3.4
						S-181.8,1135.2-182.8,1136.1z M-150.6,1105.9c-1,0.9-1,2.4-0.1,3.4s2.4,1,3.4,0.1s1-2.4,0.1-3.4
						C-148.1,1105.1-149.6,1105-150.6,1105.9z M-118.4,1075.7c-1,0.9-1,2.4-0.1,3.4s2.4,1,3.4,0.1s1-2.4,0.1-3.4
						C-115.9,1074.9-117.5,1074.9-118.4,1075.7z M-86.2,1045.6c-1,0.9-1,2.4-0.1,3.4s2.4,1,3.4,0.1s1-2.4,0.1-3.4
						S-85.3,1044.7-86.2,1045.6z M-54,1015.5c-1,0.9-1,2.4-0.1,3.4s2.4,1,3.4,0.1s1-2.4,0.1-3.4C-51.5,1014.7-53.1,1014.6-54,1015.5
						z M-21.8,985.3c-1,0.9-1,2.4-0.1,3.4s2.4,1,3.4,0.1s1-2.4,0.1-3.4C-19.3,984.5-20.9,984.4-21.8,985.3z M10.4,955.2
						c-1,0.9-1,2.4-0.1,3.4s2.4,1,3.4,0.1s1-2.4,0.1-3.4S11.3,954.3,10.4,955.2z M42.6,925c-1,0.9-1,2.4-0.1,3.4s2.4,1,3.4,0.1
						s1-2.4,0.1-3.4C45.1,924.3,43.5,924.2,42.6,925z M74.8,894.9c-1,0.9-1,2.4-0.1,3.4s2.4,1,3.4,0.1s1-2.4,0.1-3.4
						C77.3,894.1,75.7,894,74.8,894.9z M107,864.8c-1,0.9-1,2.4-0.1,3.4s2.4,1,3.4,0.1s1-2.4,0.1-3.4
						C109.5,863.9,107.9,863.9,107,864.8z M139.2,834.6c-1,0.9-1,2.4-0.1,3.4s2.4,1,3.4,0.1s1-2.4,0.1-3.4
						C141.7,833.8,140.1,833.8,139.2,834.6z M171.4,804.5c-1,0.9-1,2.4-0.1,3.4s2.4,1,3.4,0.1s1-2.4,0.1-3.4
						C173.9,803.7,172.3,803.6,171.4,804.5z M-218.8,1193.2c-1,0.9-1,2.4-0.1,3.4s2.4,1,3.4,0.1s1-2.4,0.1-3.4
						C-216.4,1192.4-217.8,1192.3-218.8,1193.2z M-186.6,1163.1c-1,0.9-1,2.4-0.1,3.4s2.4,1,3.4,0.1c1-0.8,1-2.4,0.1-3.4
						C-184.2,1162.2-185.6,1162.2-186.6,1163.1z M-154.4,1133c-1,0.9-1,2.4-0.1,3.4s2.4,1,3.4,0.1s1-2.4,0.1-3.4
						S-153.4,1132.1-154.4,1133z M-122.2,1102.8c-1,0.9-1,2.4-0.1,3.4s2.4,1,3.4,0.1s1-2.4,0.1-3.4
						C-119.8,1102-121.2,1101.9-122.2,1102.8z M-90,1072.7c-1,0.9-1,2.4-0.1,3.4s2.4,1,3.4,0.1s1-2.4,0.1-3.4
						C-87.6,1071.8-89.1,1071.8-90,1072.7z M-57.8,1042.5c-1,0.9-1,2.4-0.1,3.4c0.8,1,2.4,1,3.4,0.1c1-0.8,1-2.4,0.1-3.4
						C-55.4,1041.7-56.9,1041.7-57.8,1042.5z M-25.6,1012.4c-1,0.9-1,2.4-0.1,3.4s2.4,1,3.4,0.1s1-2.4,0.1-3.4
						C-23.2,1011.6-24.7,1011.5-25.6,1012.4z M6.6,982.2c-1,0.9-1,2.4-0.1,3.4s2.4,1,3.4,0.1s1-2.4,0.1-3.4
						C9,981.4,7.5,981.3,6.6,982.2z M38.8,952.1c-1,0.9-1,2.4-0.1,3.4s2.4,1,3.4,0.1s1-2.4,0.1-3.4
						C41.2,951.2,39.7,951.2,38.8,952.1z M71,921.9c-1,0.9-1,2.4-0.1,3.4s2.4,1,3.4,0.1s1-2.4,0.1-3.4
						C73.4,921.2,71.9,921.1,71,921.9z M103.1,891.8c-1,0.9-1,2.4-0.1,3.4s2.4,1,3.4,0.1s1-2.4,0.1-3.4
						C105.6,891,104.1,890.9,103.1,891.8z M135.3,861.7c-1,0.9-1,2.4-0.1,3.4s2.4,1,3.4,0.1s1-2.4,0.1-3.4S136.3,860.8,135.3,861.7z
						 M167.5,831.5c-1,0.9-1,2.4-0.1,3.4s2.4,1,3.4,0.1s1-2.4,0.1-3.4C170,830.7,168.5,830.7,167.5,831.5z M199.7,801.4
						c-1,0.9-1,2.4-0.1,3.4s2.4,1,3.4,0.1s1-2.4,0.1-3.4C202.2,800.6,200.7,800.5,199.7,801.4z M-222.6,1222.7c-1,0.9-1,2.4-0.1,3.4
						s2.4,1,3.4,0.1s1-2.4,0.1-3.4C-220.1,1221.8-221.6,1221.8-222.6,1222.7z M-190.4,1192.5c-1,0.9-1,2.4-0.1,3.4s2.4,1,3.4,0.1
						s1-2.4,0.1-3.4C-187.9,1191.7-189.4,1191.6-190.4,1192.5z M-158.2,1162.4c-1,0.9-1,2.4-0.1,3.4c0.8,1,2.4,1,3.4,0.1
						s1-2.4,0.1-3.4S-157.2,1161.4-158.2,1162.4z M-126,1132.2c-1,0.9-1,2.4-0.1,3.4s2.4,1,3.4,0.1s1-2.4,0.1-3.4
						C-123.5,1131.4-125,1131.4-126,1132.2z M-93.8,1102.1c-1,0.9-1,2.4-0.1,3.4s2.4,1,3.4,0.1s1-2.4,0.1-3.4
						C-91.3,1101.3-92.8,1101.2-93.8,1102.1z M-61.6,1072c-1,0.9-1,2.4-0.1,3.4s2.4,1,3.4,0.1c1-0.8,1-2.4,0.1-3.4
						S-60.6,1071-61.6,1072z M-29.4,1041.8c-1,0.9-1,2.4-0.1,3.4s2.4,1,3.4,0.1c1-0.8,1-2.4,0.1-3.4
						C-26.9,1041-28.4,1040.9-29.4,1041.8z M2.8,1011.6c-1,0.9-1,2.4-0.1,3.4s2.4,1,3.4,0.1s1-2.4,0.1-3.4S3.8,1010.8,2.8,1011.6z
						 M35,981.5c-1,0.9-1,2.4-0.1,3.4s2.4,1,3.4,0.1s1-2.4,0.1-3.4C37.5,980.7,36,980.6,35,981.5z M67.2,951.4c-1,0.9-1,2.4-0.1,3.4
						s2.4,1,3.4,0.1s1-2.4,0.1-3.4S68.2,950.5,67.2,951.4z M99.4,921.2c-1,0.9-1,2.4-0.1,3.4s2.4,1,3.4,0.1s1-2.4,0.1-3.4
						C101.9,920.4,100.4,920.3,99.4,921.2z M131.6,891.1c-1,0.9-1,2.4-0.1,3.4s2.4,1,3.4,0.1s1-2.4,0.1-3.4
						C134.1,890.2,132.6,890.2,131.6,891.1z M163.8,861c-1,0.9-1,2.4-0.1,3.4s2.4,1,3.4,0.1s1-2.4,0.1-3.4S164.8,860.1,163.8,861z
						 M196,830.8c-1,0.9-1,2.4-0.1,3.4s2.4,1,3.4,0.1s1-2.4,0.1-3.4C198.5,830,197,829.9,196,830.8z M-194.1,1219.6
						c-1,0.9-1,2.4-0.1,3.4s2.4,1,3.4,0.1s1-2.4,0.1-3.4C-191.7,1218.7-193.2,1218.7-194.1,1219.6z M-162,1189.4
						c-1,0.9-1,2.4-0.1,3.4s2.4,1,3.4,0.1s1-2.4,0.1-3.4C-159.5,1188.6-161,1188.5-162,1189.4z M-129.8,1159.3c-1,0.9-1,2.4-0.1,3.4
						s2.4,1,3.4,0.1s1-2.4,0.1-3.4C-127.3,1158.4-128.8,1158.4-129.8,1159.3z M-97.6,1129.1c-1,0.9-1,2.4-0.1,3.4s2.4,1,3.4,0.1
						s1-2.4,0.1-3.4C-95.1,1128.3-96.6,1128.3-97.6,1129.1z M-65.4,1099c-1,0.9-1,2.4-0.1,3.4s2.4,1,3.4,0.1s1-2.4,0.1-3.4
						C-62.9,1098.2-64.4,1098.1-65.4,1099z M-33.2,1068.9c-1,0.9-1,2.4-0.1,3.4c0.8,1,2.4,1,3.4,0.1s1-2.4,0.1-3.4
						C-30.7,1068-32.2,1067.9-33.2,1068.9z M-1,1038.7c-1,0.9-1,2.4-0.1,3.4s2.4,1,3.4,0.1s1-2.4,0.1-3.4
						C1.5,1037.9-0.1,1037.8-1,1038.7z M31.2,1008.5c-1,0.9-1,2.4-0.1,3.4s2.4,1,3.4,0.1s1-2.4,0.1-3.4
						C33.7,1007.7,32.1,1007.7,31.2,1008.5z M63.4,978.5c-1,0.9-1,2.4-0.1,3.4c0.8,1,2.4,1,3.4,0.1s1-2.4,0.1-3.4
						S64.3,977.5,63.4,978.5z M95.6,948.3c-1,0.9-1,2.4-0.1,3.4s2.4,1,3.4,0.1s1-2.4,0.1-3.4C98.1,947.5,96.5,947.4,95.6,948.3z
						 M127.8,918.1c-1,0.9-1,2.4-0.1,3.4s2.4,1,3.4,0.1s1-2.4,0.1-3.4C130.3,917.3,128.7,917.2,127.8,918.1z M160,888
						c-1,0.9-1,2.4-0.1,3.4s2.4,1,3.4,0.1s1-2.4,0.1-3.4S160.9,887.1,160,888z M192.2,857.9c-1,0.9-1,2.4-0.1,3.4
						c0.8,1,2.4,1,3.4,0.1c1-0.8,1-2.4,0.1-3.4S193.1,857,192.2,857.9z M224.4,827.7c-1,0.9-1,2.4-0.1,3.4s2.4,1,3.4,0.1
						s1-2.4,0.1-3.4C226.9,826.9,225.3,826.8,224.4,827.7z M-197.9,1249c-1,0.9-1,2.4-0.1,3.4s2.4,1,3.4,0.1s1-2.4,0.1-3.4
						C-195.5,1248.1-197,1248.1-197.9,1249z M-165.7,1218.8c-1,0.9-1,2.4-0.1,3.4s2.4,1,3.4,0.1c1-0.8,1-2.4,0.1-3.4
						C-163.3,1218-164.8,1217.9-165.7,1218.8z M-133.5,1188.7c-1,0.9-1,2.4-0.1,3.4s2.4,1,3.4,0.1s1-2.4,0.1-3.4
						C-131.1,1187.8-132.6,1187.8-133.5,1188.7z M-101.3,1158.6c-1,0.9-1,2.4-0.1,3.4s2.4,1,3.4,0.1s1-2.4,0.1-3.4
						C-98.9,1157.7-100.4,1157.6-101.3,1158.6z M-69.1,1128.4c-1,0.9-1,2.4-0.1,3.4s2.4,1,3.4,0.1s1-2.4,0.1-3.4
						C-66.7,1127.6-68.2,1127.5-69.1,1128.4z M-36.9,1098.2c-1,0.9-1,2.4-0.1,3.4s2.4,1,3.4,0.1s1-2.4,0.1-3.4
						C-34.5,1097.4-36,1097.3-36.9,1098.2z M-4.7,1068.1c-1,0.9-1,2.4-0.1,3.4s2.4,1,3.4,0.1s1-2.4,0.1-3.4
						C-2.3,1067.2-3.8,1067.2-4.7,1068.1z M27.5,1038c-1,0.9-1,2.4-0.1,3.4s2.4,1,3.4,0.1s1-2.4,0.1-3.4
						C29.9,1037.2,28.4,1037.1,27.5,1038z M59.7,1007.8c-1,0.9-1,2.4-0.1,3.4s2.4,1,3.4,0.1c1-0.9,1-2.4,0.1-3.4
						C62.1,1007,60.6,1006.9,59.7,1007.8z M91.9,977.7c-1,0.9-1,2.4-0.1,3.4s2.4,1,3.4,0.1c1-0.8,1-2.4,0.1-3.4
						C94.3,976.8,92.8,976.8,91.9,977.7z M124.1,947.5c-1,0.9-1,2.4-0.1,3.4s2.4,1,3.4,0.1c1-0.9,1-2.4,0.1-3.4
						C126.5,946.7,125,946.7,124.1,947.5z M156.3,917.4c-1,0.9-1,2.4-0.1,3.4s2.4,1,3.4,0.1s1-2.4,0.1-3.4
						C158.8,916.6,157.2,916.5,156.3,917.4z M188.5,887.3c-1,0.9-1,2.4-0.1,3.4s2.4,1,3.4,0.1s1-2.4,0.1-3.4
						C190.9,886.4,189.4,886.4,188.5,887.3z M220.7,857.1c-1,0.9-1,2.4-0.1,3.4s2.4,1,3.4,0.1c1-0.8,1-2.4,0.1-3.4
						C223.1,856.3,221.6,856.2,220.7,857.1z M-169.5,1245.9c-1,0.9-1,2.4-0.1,3.4s2.4,1,3.4,0.1c1-0.8,1-2.4,0.1-3.4
						C-167.1,1245-168.6,1245-169.5,1245.9z M-137.3,1215.7c-1,0.9-1,2.4-0.1,3.4s2.4,1,3.4,0.1s1-2.4,0.1-3.4
						C-134.9,1214.9-136.4,1214.8-137.3,1215.7z M-105.1,1185.6c-1,0.9-1,2.4-0.1,3.4s2.4,1,3.4,0.1s1-2.4,0.1-3.4
						C-102.7,1184.7-104.2,1184.7-105.1,1185.6z M-73,1155.5c-1,0.9-1,2.4-0.1,3.4s2.4,1,3.4,0.1s1-2.4,0.1-3.4
						S-72,1154.6-73,1155.5z M-40.8,1125.3c-1,0.9-1,2.4-0.1,3.4s2.4,1,3.4,0.1s1-2.4,0.1-3.4C-38.3,1124.5-39.8,1124.4-40.8,1125.3
						z M-8.6,1095.2c-1,0.9-1,2.4-0.1,3.4s2.4,1,3.4,0.1s1-2.4,0.1-3.4C-6.1,1094.3-7.6,1094.2-8.6,1095.2z M23.6,1065
						c-1,0.9-1,2.4-0.1,3.4s2.4,1,3.4,0.1s1-2.4,0.1-3.4S24.6,1064.1,23.6,1065z M55.8,1034.9c-1,0.9-1,2.4-0.1,3.4s2.4,1,3.4,0.1
						s1-2.4,0.1-3.4C58.3,1034.1,56.8,1034,55.8,1034.9z M88,1004.7c-1,0.9-1,2.4-0.1,3.4s2.4,1,3.4,0.1s1-2.4,0.1-3.4
						C90.5,1003.9,89,1003.8,88,1004.7z M120.2,974.6c-1,0.9-1,2.4-0.1,3.4s2.4,1,3.4,0.1s1-2.4,0.1-3.4
						C122.7,973.7,121.2,973.7,120.2,974.6z M152.4,944.4c-1,0.9-1,2.4-0.1,3.4s2.4,1,3.4,0.1s1-2.4,0.1-3.4
						C154.9,943.6,153.4,943.6,152.4,944.4z M184.6,914.3c-1,0.9-1,2.4-0.1,3.4s2.4,1,3.4,0.1s1-2.4,0.1-3.4
						C187.1,913.5,185.6,913.4,184.6,914.3z M216.8,884.2c-1,0.9-1,2.4-0.1,3.4s2.4,1,3.4,0.1c1-0.8,1-2.4,0.1-3.4
						S217.8,883.3,216.8,884.2z M249,854c-1,0.9-1,2.4-0.1,3.4s2.4,1,3.4,0.1s1-2.4,0.1-3.4C251.5,853.2,250,853.1,249,854z
						 M-173.3,1275.3c-1,0.9-1,2.4-0.1,3.4s2.4,1,3.4,0.1s1-2.4,0.1-3.4S-172.3,1274.3-173.3,1275.3z M-141.1,1245.1
						c-1,0.9-1,2.4-0.1,3.4s2.4,1,3.4,0.1s1-2.4,0.1-3.4C-138.6,1244.3-140.1,1244.3-141.1,1245.1z M-108.9,1215
						c-1,0.9-1,2.4-0.1,3.4s2.4,1,3.4,0.1s1-2.4,0.1-3.4C-106.4,1214.2-107.9,1214.1-108.9,1215z M-76.7,1184.9
						c-1,0.9-1,2.4-0.1,3.4s2.4,1,3.4,0.1s1-2.4,0.1-3.4S-75.7,1183.9-76.7,1184.9z M-44.5,1154.7c-1,0.9-1,2.4-0.1,3.4
						s2.4,1,3.4,0.1s1-2.4,0.1-3.4C-42,1153.9-43.5,1153.8-44.5,1154.7z M-12.3,1124.5c-1,0.9-1,2.4-0.1,3.4s2.4,1,3.4,0.1
						c1-0.8,1-2.4,0.1-3.4C-9.8,1123.7-11.3,1123.7-12.3,1124.5z M19.9,1094.4c-1,0.9-1,2.4-0.1,3.4c0.8,1,2.4,1,3.4,0.1
						s1-2.4,0.1-3.4C22.4,1093.6,20.9,1093.5,19.9,1094.4z M52.1,1064.3c-1,0.9-1,2.4-0.1,3.4s2.4,1,3.4,0.1s1-2.4,0.1-3.4
						S53.1,1063.4,52.1,1064.3z M84.3,1034.1c-1,0.9-1,2.4-0.1,3.4s2.4,1,3.4,0.1s1-2.4,0.1-3.4
						C86.8,1033.3,85.3,1033.3,84.3,1034.1z M116.5,1004c-1,0.9-1,2.4-0.1,3.4s2.4,1,3.4,0.1s1-2.4,0.1-3.4S117.5,1003.1,116.5,1004
						z M148.7,973.9c-1,0.9-1,2.4-0.1,3.4s2.4,1,3.4,0.1s1-2.4,0.1-3.4S149.7,973,148.7,973.9z M180.9,943.7c-1,0.9-1,2.4-0.1,3.4
						s2.4,1,3.4,0.1s1-2.4,0.1-3.4C183.4,942.9,181.9,942.8,180.9,943.7z M213.1,913.6c-1,0.9-1,2.4-0.1,3.4s2.4,1,3.4,0.1
						s1-2.4,0.1-3.4C215.6,912.7,214.1,912.7,213.1,913.6z M245.3,883.4c-1,0.9-1,2.4-0.1,3.4s2.4,1,3.4,0.1s1-2.4,0.1-3.4
						C247.8,882.6,246.3,882.6,245.3,883.4z M-144.9,1272.2c-1,0.9-1,2.4-0.1,3.4s2.4,1,3.4,0.1s1-2.4,0.1-3.4
						C-142.3,1271.3-144,1271.3-144.9,1272.2z M-112.7,1242c-1,0.9-1,2.4-0.1,3.4s2.4,1,3.4,0.1s1-2.4,0.1-3.4
						C-110.3,1241.2-111.8,1241.2-112.7,1242z M-80.5,1211.9c-1,0.9-1,2.4-0.1,3.4s2.4,1,3.4,0.1s1-2.4,0.1-3.4
						C-78.1,1211.1-79.6,1211-80.5,1211.9z M-48.3,1181.8c-1,0.9-1,2.4-0.1,3.4s2.4,1,3.4,0.1s1-2.4,0.1-3.4
						C-45.9,1180.9-47.4,1180.8-48.3,1181.8z M-16.1,1151.6c-1,0.9-1,2.4-0.1,3.4s2.4,1,3.4,0.1s1-2.4,0.1-3.4
						C-13.7,1150.8-15.2,1150.7-16.1,1151.6z M16.1,1121.4c-1,0.9-1,2.4-0.1,3.4s2.4,1,3.4,0.1s1-2.4,0.1-3.4
						C18.5,1120.6,17,1120.6,16.1,1121.4z M48.3,1091.4c-1,0.9-1,2.4-0.1,3.4s2.4,1,3.4,0.1s1-2.4,0.1-3.4
						C50.7,1090.5,49.2,1090.4,48.3,1091.4z M80.5,1061.2c-1,0.9-1,2.4-0.1,3.4s2.4,1,3.4,0.1c1-0.8,1-2.4,0.1-3.4
						C82.9,1060.4,81.4,1060.3,80.5,1061.2z M112.7,1031c-1,0.9-1,2.4-0.1,3.4s2.4,1,3.4,0.1s1-2.4,0.1-3.4
						C115.1,1030.2,113.6,1030.2,112.7,1031z M144.9,1000.9c-1,0.9-1,2.4-0.1,3.4s2.4,1,3.4,0.1s1-2.4,0.1-3.4
						C147.3,1000,145.8,1000,144.9,1000.9z M177.1,970.8c-1,0.9-1,2.4-0.1,3.4s2.4,1,3.4,0.1s1-2.4,0.1-3.4
						C179.5,969.9,178,969.9,177.1,970.8z M209.3,940.6c-1,0.9-1,2.4-0.1,3.4s2.4,1,3.4,0.1s1-2.4,0.1-3.4
						C211.7,939.8,210.2,939.7,209.3,940.6z M241.5,910.5c-1,0.9-1,2.4-0.1,3.4s2.4,1,3.4,0.1s1-2.4,0.1-3.4
						C243.9,909.6,242.4,909.6,241.5,910.5z M273.7,880.3c-1,0.9-1,2.4-0.1,3.4s2.4,1,3.4,0.1s1-2.4,0.1-3.4
						C276.1,879.5,274.6,879.5,273.7,880.3z M-148.7,1301.6c-1,0.9-1,2.4-0.1,3.4s2.4,1,3.4,0.1s1-2.4,0.1-3.4
						S-147.7,1300.7-148.7,1301.6z M-116.5,1271.5c-1,0.9-1,2.4-0.1,3.4s2.4,1,3.4,0.1s1-2.4,0.1-3.4S-115.5,1270.6-116.5,1271.5z
						 M-84.3,1241.3c-1,0.9-1,2.4-0.1,3.4s2.4,1,3.4,0.1s1-2.4,0.1-3.4C-81.8,1240.5-83.3,1240.4-84.3,1241.3z M-52.1,1211.1
						c-1,0.9-1,2.4-0.1,3.4s2.4,1,3.4,0.1s1-2.4,0.1-3.4C-49.6,1210.3-51.1,1210.3-52.1,1211.1z M-19.9,1181c-1,0.9-1,2.4-0.1,3.4
						s2.4,1,3.4,0.1s1-2.4,0.1-3.4C-17.4,1180.2-18.9,1180.1-19.9,1181z M12.3,1150.9c-1,0.9-1,2.4-0.1,3.4s2.4,1,3.4,0.1
						s1-2.4,0.1-3.4C14.8,1150.1,13.3,1150,12.3,1150.9z M44.5,1120.7c-1,0.9-1,2.4-0.1,3.4s2.4,1,3.4,0.1s1-2.4,0.1-3.4
						C47,1119.9,45.5,1119.8,44.5,1120.7z M76.7,1090.6c-1,0.9-1,2.4-0.1,3.4s2.4,1,3.4,0.1s1-2.4,0.1-3.4S77.7,1089.7,76.7,1090.6z
						 M108.9,1060.5c-1,0.9-1,2.4-0.1,3.4s2.4,1,3.4,0.1s1-2.4,0.1-3.4C111.4,1059.7,109.9,1059.6,108.9,1060.5z M141.1,1030.3
						c-1,0.9-1,2.4-0.1,3.4s2.4,1,3.4,0.1s1-2.4,0.1-3.4C143.6,1029.5,142.1,1029.4,141.1,1030.3z M173.3,1000.2
						c-1,0.9-1,2.4-0.1,3.4s2.4,1,3.4,0.1s1-2.4,0.1-3.4S174.3,999.3,173.3,1000.2z M205.5,970c-1,0.9-1,2.4-0.1,3.4s2.4,1,3.4,0.1
						s1-2.4,0.1-3.4C208,969.2,206.5,969.2,205.5,970z M237.7,939.9c-1,0.9-1,2.4-0.1,3.4s2.4,1,3.4,0.1c1-0.8,1-2.4,0.1-3.4
						C240.2,939.1,238.7,939,237.7,939.9z M269.9,909.8c-1,0.9-1,2.4-0.1,3.4s2.4,1,3.4,0.1s1-2.4,0.1-3.4
						C272.4,908.9,270.9,908.9,269.9,909.8z M-120.3,1298.5c-1,0.9-1,2.4-0.1,3.4s2.4,1,3.4,0.1s1-2.4,0.1-3.4
						S-119.3,1297.6-120.3,1298.5z M-88.1,1268.4c-1,0.9-1,2.4-0.1,3.4s2.4,1,3.4,0.1s1-2.4,0.1-3.4S-87.1,1267.5-88.1,1268.4z
						 M-55.9,1238.2c-1,0.9-1,2.4-0.1,3.4s2.4,1,3.4,0.1s1-2.4,0.1-3.4C-53.4,1237.4-54.9,1237.3-55.9,1238.2z M-23.7,1208.1
						c-1,0.9-1,2.4-0.1,3.4s2.4,1,3.4,0.1s1-2.4,0.1-3.4S-22.7,1207.2-23.7,1208.1z M8.5,1177.9c-1,0.9-1,2.4-0.1,3.4s2.4,1,3.4,0.1
						s1-2.4,0.1-3.4C11,1177.1,9.5,1177.1,8.5,1177.9z M40.7,1147.8c-1,0.9-1,2.4-0.1,3.4s2.4,1,3.4,0.1s1-2.4,0.1-3.4
						C43.2,1147,41.7,1146.9,40.7,1147.8z M72.9,1117.6c-1,0.9-1,2.4-0.1,3.4s2.4,1,3.4,0.1s1-2.4,0.1-3.4
						C75.4,1116.8,73.9,1116.7,72.9,1117.6z M105.1,1087.5c-1,0.9-1,2.4-0.1,3.4s2.4,1,3.4,0.1s1-2.4,0.1-3.4
						S106.1,1086.6,105.1,1087.5z M137.3,1057.4c-1,0.9-1,2.4-0.1,3.4s2.4,1,3.4,0.1s1-2.4,0.1-3.4
						C139.8,1056.6,138.3,1056.5,137.3,1057.4z M169.5,1027.2c-1,0.9-1,2.4-0.1,3.4s2.4,1,3.4,0.1s1-2.4,0.1-3.4
						C172,1026.4,170.5,1026.3,169.5,1027.2z M201.7,997.1c-1,0.9-1,2.4-0.1,3.4s2.4,1,3.4,0.1s1-2.4,0.1-3.4
						C204.2,996.2,202.7,996.2,201.7,997.1z M233.9,966.9c-1,0.9-1,2.4-0.1,3.4s2.4,1,3.4,0.1c1-0.8,1-2.4,0.1-3.4
						C236.4,966.1,234.9,966.1,233.9,966.9z M266.1,936.8c-1,0.9-1,2.4-0.1,3.4s2.4,1,3.4,0.1s1-2.4,0.1-3.4
						C268.6,936,267.1,935.9,266.1,936.8z M298.3,906.7c-1,0.9-1,2.4-0.1,3.4s2.4,1,3.4,0.1s1-2.4,0.1-3.4S299.3,905.8,298.3,906.7z
						 M-124,1327.9c-1,0.9-1,2.4-0.1,3.4s2.4,1,3.4,0.1s1-2.4,0.1-3.4C-121.5,1327.1-123.1,1327-124,1327.9z M-91.8,1297.8
						c-1,0.9-1,2.4-0.1,3.4s2.4,1,3.4,0.1s1-2.4,0.1-3.4S-90.9,1296.8-91.8,1297.8z M-59.6,1267.6c-1,0.9-1,2.4-0.1,3.4
						s2.4,1,3.4,0.1s1-2.4,0.1-3.4C-57.1,1266.8-58.7,1266.8-59.6,1267.6z M-27.4,1237.5c-1,0.9-1,2.4-0.1,3.4s2.4,1,3.4,0.1
						s1-2.4,0.1-3.4C-24.9,1236.7-26.5,1236.6-27.4,1237.5z M4.8,1207.4c-1,0.9-1,2.4-0.1,3.4s2.4,1,3.4,0.1s1-2.4,0.1-3.4
						C7.3,1206.5,5.7,1206.4,4.8,1207.4z M37,1177.2c-1,0.9-1,2.4-0.1,3.4s2.4,1,3.4,0.1s1-2.4,0.1-3.4
						C39.5,1176.3,37.9,1176.3,37,1177.2z M69.2,1147c-1,0.9-1,2.4-0.1,3.4s2.4,1,3.4,0.1s1-2.4,0.1-3.4
						C71.7,1146.2,70.1,1146.2,69.2,1147z M101.4,1116.9c-1,0.9-1,2.4-0.1,3.4s2.4,1,3.4,0.1s1-2.4,0.1-3.4
						C103.9,1116.1,102.3,1116,101.4,1116.9z M133.6,1086.8c-1,0.9-1,2.4-0.1,3.4s2.4,1,3.4,0.1s1-2.4,0.1-3.4
						S134.5,1085.9,133.6,1086.8z M165.8,1056.6c-1,0.9-1,2.4-0.1,3.4s2.4,1,3.4,0.1s1-2.4,0.1-3.4
						C168.2,1055.8,166.7,1055.7,165.8,1056.6z M198,1026.5c-1,0.9-1,2.4-0.1,3.4s2.4,1,3.4,0.1s1-2.4,0.1-3.4
						C200.4,1025.6,198.9,1025.6,198,1026.5z M230.2,996.4c-1,0.9-1,2.4-0.1,3.4s2.4,1,3.4,0.1s1-2.4,0.1-3.4
						C232.6,995.5,231.1,995.5,230.2,996.4z M262.4,966.2c-1,0.9-1,2.4-0.1,3.4s2.4,1,3.4,0.1s1-2.4,0.1-3.4
						C264.8,965.4,263.3,965.3,262.4,966.2z M294.6,936.1c-1,0.9-1,2.4-0.1,3.4s2.4,1,3.4,0.1s1-2.4,0.1-3.4
						C297,935.2,295.5,935.1,294.6,936.1z M-95.7,1324.8c-1,0.9-1,2.4-0.1,3.4s2.4,1,3.4,0.1s1-2.4,0.1-3.4
						C-93.2,1324-94.7,1323.9-95.7,1324.8z M-63.5,1294.7c-1,0.9-1,2.4-0.1,3.4s2.4,1,3.4,0.1s1-2.4,0.1-3.4
						C-61,1293.8-62.5,1293.7-63.5,1294.7z M-31.3,1264.5c-1,0.9-1,2.4-0.1,3.4s2.4,1,3.4,0.1s1-2.4,0.1-3.4
						C-28.8,1263.7-30.3,1263.7-31.3,1264.5z M0.9,1234.4c-1,0.9-1,2.4-0.1,3.4c0.8,1,2.4,1,3.4,0.1s1-2.4,0.1-3.4
						C3.4,1233.6,1.9,1233.5,0.9,1234.4z M33.1,1204.3c-1,0.9-1,2.4-0.1,3.4s2.4,1,3.4,0.1s1-2.4,0.1-3.4S34.1,1203.3,33.1,1204.3z
						 M65.3,1174.1c-1,0.9-1,2.4-0.1,3.4s2.4,1,3.4,0.1s1-2.4,0.1-3.4C67.8,1173.3,66.3,1173.2,65.3,1174.1z M97.5,1143.9
						c-1,0.9-1,2.4-0.1,3.4s2.4,1,3.4,0.1c1-0.8,1-2.4,0.1-3.4C100,1143.1,98.5,1143.1,97.5,1143.9z M129.7,1113.9
						c-1,0.9-1,2.4-0.1,3.4s2.4,1,3.4,0.1s1-2.4,0.1-3.4S130.7,1112.9,129.7,1113.9z M161.9,1083.7c-1,0.9-1,2.4-0.1,3.4
						s2.4,1,3.4,0.1s1-2.4,0.1-3.4C164.4,1082.8,162.9,1082.8,161.9,1083.7z M194.1,1053.5c-1,0.9-1,2.4-0.1,3.4s2.4,1,3.4,0.1
						s1-2.4,0.1-3.4C196.6,1052.7,195.1,1052.6,194.1,1053.5z M226.3,1023.4c-1,0.9-1,2.4-0.1,3.4s2.4,1,3.4,0.1s1-2.4,0.1-3.4
						S227.3,1022.5,226.3,1023.4z M258.5,993.3c-1,0.9-1,2.4-0.1,3.4s2.4,1,3.4,0.1s1-2.4,0.1-3.4
						C261,992.4,259.5,992.4,258.5,993.3z M290.7,963.1c-1,0.9-1,2.4-0.1,3.4s2.4,1,3.4,0.1s1-2.4,0.1-3.4
						C293.2,962.3,291.7,962.2,290.7,963.1z M322.9,933c-1,0.9-1,2.4-0.1,3.4s2.4,1,3.4,0.1s1-2.4,0.1-3.4S323.9,932.1,322.9,933z
						 M-99.4,1354.2c-1,0.9-1,2.4-0.1,3.4s2.4,1,3.4,0.1s1-2.4,0.1-3.4C-96.9,1353.4-98.4,1353.3-99.4,1354.2z M-67.2,1324
						c-1,0.9-1,2.4-0.1,3.4s2.4,1,3.4,0.1s1-2.4,0.1-3.4C-64.7,1323.2-66.2,1323.2-67.2,1324z M-35,1294c-1,0.9-1,2.4-0.1,3.4
						s2.4,1,3.4,0.1c1-0.9,1-2.4,0.1-3.4C-32.5,1293.1-34,1293-35,1294z M-2.8,1263.8c-1,0.9-1,2.4-0.1,3.4s2.4,1,3.4,0.1
						s1-2.4,0.1-3.4C-0.3,1263-1.8,1262.9-2.8,1263.8z M29.4,1233.6c-1,0.9-1,2.4-0.1,3.4s2.4,1,3.4,0.1c1-0.9,1-2.4,0.1-3.4
						C31.9,1232.8,30.4,1232.7,29.4,1233.6z M61.6,1203.5c-1,0.9-1,2.4-0.1,3.4s2.4,1,3.4,0.1s1-2.4,0.1-3.4
						S62.6,1202.6,61.6,1203.5z M93.8,1173.4c-1,0.9-1,2.4-0.1,3.4s2.4,1,3.4,0.1s1-2.4,0.1-3.4
						C96.3,1172.6,94.8,1172.5,93.8,1173.4z M126,1143.2c-1,0.9-1,2.4-0.1,3.4s2.4,1,3.4,0.1s1-2.4,0.1-3.4
						C128.5,1142.4,127,1142.3,126,1143.2z M158.2,1113.1c-1,0.9-1,2.4-0.1,3.4s2.4,1,3.4,0.1s1-2.4,0.1-3.4
						S159.2,1112.2,158.2,1113.1z M190.4,1082.9c-1,0.9-1,2.4-0.1,3.4s2.4,1,3.4,0.1s1-2.4,0.1-3.4
						C192.9,1082.1,191.4,1082.1,190.4,1082.9z M222.6,1052.8c-1,0.9-1,2.4-0.1,3.4s2.4,1,3.4,0.1c1-0.8,1-2.4,0.1-3.4
						C225,1052,223.6,1051.9,222.6,1052.8z M254.8,1022.7c-1,0.9-1,2.4-0.1,3.4s2.4,1,3.4,0.1c1-0.8,1-2.4,0.1-3.4
						C257.2,1021.8,255.8,1021.8,254.8,1022.7z M287,992.5c-1,0.9-1,2.4-0.1,3.4s2.4,1,3.4,0.1s1-2.4,0.1-3.4
						C289.4,991.7,288,991.7,287,992.5z M319.2,962.4c-1,0.9-1,2.4-0.1,3.4s2.4,1,3.4,0.1s1-2.4,0.1-3.4
						C321.6,961.5,320.2,961.5,319.2,962.4z M-71,1351.1c-1,0.9-1,2.4-0.1,3.4s2.4,1,3.4,0.1s1-2.4,0.1-3.4
						C-68.5,1350.3-70.1,1350.2-71,1351.1z M-38.8,1321c-1,0.9-1,2.4-0.1,3.4s2.4,1,3.4,0.1s1-2.4,0.1-3.4S-37.9,1320.1-38.8,1321z
						 M-6.6,1290.9c-1,0.9-1,2.4-0.1,3.4s2.4,1,3.4,0.1s1-2.4,0.1-3.4S-5.7,1290-6.6,1290.9z M25.6,1260.7c-1,0.9-1,2.4-0.1,3.4
						s2.4,1,3.4,0.1s1-2.4,0.1-3.4C28.1,1259.9,26.5,1259.8,25.6,1260.7z M57.8,1230.5c-1,0.9-1,2.4-0.1,3.4s2.4,1,3.4,0.1
						s1-2.4,0.1-3.4C60.3,1229.7,58.7,1229.6,57.8,1230.5z M90,1200.4c-1,0.9-1,2.4-0.1,3.4s2.4,1,3.4,0.1s1-2.4,0.1-3.4
						S90.9,1199.5,90,1200.4z M122.2,1170.3c-1,0.9-1,2.4-0.1,3.4s2.4,1,3.4,0.1s1-2.4,0.1-3.4
						C124.7,1169.5,123.1,1169.4,122.2,1170.3z M154.4,1140.1c-1,0.9-1,2.4-0.1,3.4s2.4,1,3.4,0.1s1-2.4,0.1-3.4
						C156.9,1139.3,155.3,1139.2,154.4,1140.1z M186.6,1110c-1,0.9-1,2.4-0.1,3.4s2.4,1,3.4,0.1s1-2.4,0.1-3.4
						S187.5,1109.1,186.6,1110z M218.8,1079.8c-1,0.9-1,2.4-0.1,3.4s2.4,1,3.4,0.1s1-2.4,0.1-3.4
						C221.3,1079,219.7,1079,218.8,1079.8z M251,1049.7c-1,0.9-1,2.4-0.1,3.4s2.4,1,3.4,0.1c1-0.8,1-2.4,0.1-3.4
						C253.5,1048.9,251.9,1048.8,251,1049.7z M283.2,1019.6c-1,0.9-1,2.4-0.1,3.4s2.4,1,3.4,0.1s1-2.4,0.1-3.4
						C285.6,1018.7,284.1,1018.7,283.2,1019.6z M315.4,989.4c-1,0.9-1,2.4-0.1,3.4s2.4,1,3.4,0.1s1-2.4,0.1-3.4
						C317.8,988.6,316.3,988.5,315.4,989.4z M347.6,959.3c-1,0.9-1,2.4-0.1,3.4s2.4,1,3.4,0.1s1-2.4,0.1-3.4
						C350,958.4,348.5,958.4,347.6,959.3z M-74.7,1380.5c-1,0.9-1,2.4-0.1,3.4s2.4,1,3.4,0.1s1-2.4,0.1-3.4
						C-72.2,1379.7-73.8,1379.7-74.7,1380.5z M-42.5,1350.4c-1,0.9-1,2.4-0.1,3.4s2.4,1,3.4,0.1s1-2.4,0.1-3.4
						C-40.1,1349.6-41.6,1349.5-42.5,1350.4z M-10.3,1320.3c-1,0.9-1,2.4-0.1,3.4s2.4,1,3.4,0.1c1-0.8,1-2.4,0.1-3.4
						C-7.9,1319.4-9.4,1319.3-10.3,1320.3z M21.9,1290.1c-1,0.9-1,2.4-0.1,3.4s2.4,1,3.4,0.1s1-2.4,0.1-3.4
						C24.3,1289.3,22.8,1289.3,21.9,1290.1z M54.1,1259.9c-1,0.9-1,2.4-0.1,3.4s2.4,1,3.4,0.1s1-2.4,0.1-3.4
						C56.5,1259.1,55,1259.1,54.1,1259.9z M86.3,1229.8c-1,0.9-1,2.4-0.1,3.4s2.4,1,3.4,0.1s1-2.4,0.1-3.4
						C88.7,1229,87.2,1228.9,86.3,1229.8z M118.5,1199.7c-1,0.9-1,2.4-0.1,3.4s2.4,1,3.4,0.1s1-2.4,0.1-3.4
						C120.9,1198.8,119.4,1198.8,118.5,1199.7z M150.7,1169.5c-1,0.9-1,2.4-0.1,3.4c0.8,1,2.4,1,3.4,0.1s1-2.4,0.1-3.4
						C153.1,1168.7,151.6,1168.7,150.7,1169.5z M182.9,1139.4c-1,0.9-1,2.4-0.1,3.4s2.4,1,3.4,0.1s1-2.4,0.1-3.4
						C185.3,1138.5,183.8,1138.5,182.9,1139.4z M215.1,1109.3c-1,0.9-1,2.4-0.1,3.4s2.4,1,3.4,0.1s1-2.4,0.1-3.4
						C217.5,1108.4,216,1108.4,215.1,1109.3z M247.3,1079.1c-1,0.9-1,2.4-0.1,3.4s2.4,1,3.4,0.1s1-2.4,0.1-3.4
						C249.7,1078.3,248.2,1078.2,247.3,1079.1z M279.5,1049c-1,0.9-1,2.4-0.1,3.4s2.4,1,3.4,0.1s1-2.4,0.1-3.4
						C281.9,1048.1,280.4,1048.1,279.5,1049z M311.7,1018.9c-1,0.9-1,2.4-0.1,3.4s2.4,1,3.4,0.1s1-2.4,0.1-3.4
						C314,1018,312.6,1018,311.7,1018.9z M343.9,988.7c-1,0.9-1,2.4-0.1,3.4s2.4,1,3.4,0.1s1-2.4,0.1-3.4
						C346.2,987.9,344.8,987.8,343.9,988.7z M-46.4,1377.4c-1,0.9-1,2.4-0.1,3.4s2.4,1,3.4,0.1s1-2.4,0.1-3.4
						C-43.9,1376.6-45.4,1376.6-46.4,1377.4z M-14.2,1347.3c-1,0.9-1,2.4-0.1,3.4s2.4,1,3.4,0.1s1-2.4,0.1-3.4
						C-11.7,1346.5-13.2,1346.4-14.2,1347.3z M18,1317.2c-1,0.9-1,2.4-0.1,3.4s2.4,1,3.4,0.1s1-2.4,0.1-3.4
						C20.5,1316.3,19,1316.2,18,1317.2z M50.2,1287c-1,0.9-1,2.4-0.1,3.4s2.4,1,3.4,0.1s1-2.4,0.1-3.4
						C52.7,1286.2,51.2,1286.2,50.2,1287z M82.4,1256.8c-1,0.9-1,2.4-0.1,3.4s2.4,1,3.4,0.1s1-2.4,0.1-3.4
						C84.9,1256,83.4,1256,82.4,1256.8z M114.6,1226.8c-1,0.9-1,2.4-0.1,3.4s2.4,1,3.4,0.1s1-2.4,0.1-3.4S115.6,1225.8,114.6,1226.8
						z M146.8,1196.6c-1,0.9-1,2.4-0.1,3.4s2.4,1,3.4,0.1s1-2.4,0.1-3.4C149.3,1195.8,147.8,1195.7,146.8,1196.6z M179,1166.4
						c-1,0.9-1,2.4-0.1,3.4s2.4,1,3.4,0.1s1-2.4,0.1-3.4C181.5,1165.6,180,1165.6,179,1166.4z M211.2,1136.3c-1,0.9-1,2.4-0.1,3.4
						s2.4,1,3.4,0.1s1-2.4,0.1-3.4S212.2,1135.4,211.2,1136.3z M243.4,1106.2c-1,0.9-1,2.4-0.1,3.4c0.8,1,2.4,1,3.4,0.1
						s1-2.4,0.1-3.4C245.9,1105.3,244.4,1105.3,243.4,1106.2z M275.6,1076c-1,0.9-1,2.4-0.1,3.4s2.4,1,3.4,0.1s1-2.4,0.1-3.4
						C278.1,1075.2,276.6,1075.1,275.6,1076z M307.8,1045.9c-1,0.9-1,2.4-0.1,3.4s2.4,1,3.4,0.1s1-2.4,0.1-3.4
						S308.8,1045,307.8,1045.9z M340,1015.8c-1,0.9-1,2.4-0.1,3.4s2.4,1,3.4,0.1s1-2.4,0.1-3.4C342.5,1014.9,341,1014.9,340,1015.8z
						 M372.2,985.6c-1,0.9-1,2.4-0.1,3.4s2.4,1,3.4,0.1s1-2.4,0.1-3.4C374.6,984.8,373.2,984.7,372.2,985.6z M-50.1,1406.9
						c-1,0.9-1,2.4-0.1,3.4s2.4,1,3.4,0.1s1-2.4,0.1-3.4S-49.1,1405.9-50.1,1406.9z M-17.9,1376.7c-1,0.9-1,2.4-0.1,3.4
						s2.4,1,3.4,0.1s1-2.4,0.1-3.4C-15.4,1375.9-16.9,1375.8-17.9,1376.7z M14.3,1346.5c-1,0.9-1,2.4-0.1,3.4s2.4,1,3.4,0.1
						s1-2.4,0.1-3.4C16.8,1345.7,15.3,1345.7,14.3,1346.5z M46.5,1316.5c-1,0.9-1,2.4-0.1,3.4s2.4,1,3.4,0.1s1-2.4,0.1-3.4
						C48.9,1315.6,47.5,1315.5,46.5,1316.5z M78.7,1286.3c-1,0.9-1,2.4-0.1,3.4s2.4,1,3.4,0.1s1-2.4,0.1-3.4
						C81.1,1285.5,79.7,1285.4,78.7,1286.3z M110.9,1256.1c-1,0.9-1,2.4-0.1,3.4s2.4,1,3.4,0.1s1-2.4,0.1-3.4
						C113.3,1255.3,111.9,1255.2,110.9,1256.1z M143.1,1226c-1,0.9-1,2.4-0.1,3.4s2.4,1,3.4,0.1c1-0.8,1-2.4,0.1-3.4
						C145.5,1225.1,144.1,1225.1,143.1,1226z M175.3,1195.9c-1,0.9-1,2.4-0.1,3.4c0.8,1,2.4,1,3.4,0.1s1-2.4,0.1-3.4
						C177.7,1195,176.3,1195,175.3,1195.9z M207.5,1165.7c-1,0.9-1,2.4-0.1,3.4s2.4,1,3.4,0.1s1-2.4,0.1-3.4
						C209.9,1164.9,208.5,1164.8,207.5,1165.7z M239.7,1135.6c-1,0.9-1,2.4-0.1,3.4s2.4,1,3.4,0.1c1-0.8,1-2.4,0.1-3.4
						C242.1,1134.7,240.7,1134.7,239.7,1135.6z M271.9,1105.4c-1,0.9-1,2.4-0.1,3.4s2.4,1,3.4,0.1c1-0.8,1-2.4,0.1-3.4
						C274.3,1104.6,272.9,1104.6,271.9,1105.4z M304.1,1075.3c-1,0.9-1,2.4-0.1,3.4s2.4,1,3.4,0.1s1-2.4,0.1-3.4
						C306.5,1074.5,305.1,1074.4,304.1,1075.3z M336.3,1045.2c-1,0.9-1,2.4-0.1,3.4s2.4,1,3.4,0.1s1-2.4,0.1-3.4
						C338.7,1044.3,337.2,1044.3,336.3,1045.2z M368.5,1015c-1,0.9-1,2.4-0.1,3.4s2.4,1,3.4,0.1s1-2.4,0.1-3.4
						C370.9,1014.2,369.4,1014.1,368.5,1015z M-21.7,1403.8c-1,0.9-1,2.4-0.1,3.4s2.4,1,3.4,0.1s1-2.4,0.1-3.4
						C-19.3,1402.9-20.8,1402.9-21.7,1403.8z M10.5,1373.6c-1,0.9-1,2.4-0.1,3.4s2.4,1,3.4,0.1s1-2.4,0.1-3.4
						C12.9,1372.8,11.4,1372.7,10.5,1373.6z M42.7,1343.5c-1,0.9-1,2.4-0.1,3.4s2.4,1,3.4,0.1s1-2.4,0.1-3.4
						C45.1,1342.6,43.6,1342.6,42.7,1343.5z M74.9,1313.4c-1,0.9-1,2.4-0.1,3.4s2.4,1,3.4,0.1s1-2.4,0.1-3.4
						C77.3,1312.5,75.8,1312.4,74.9,1313.4z M107.1,1283.2c-1,0.9-1,2.4-0.1,3.4s2.4,1,3.4,0.1s1-2.4,0.1-3.4
						C109.5,1282.4,108,1282.3,107.1,1283.2z M139.3,1253c-1,0.9-1,2.4-0.1,3.4s2.4,1,3.4,0.1s1-2.4,0.1-3.4
						C141.7,1252.2,140.2,1252.1,139.3,1253z M171.5,1222.9c-1,0.9-1,2.4-0.1,3.4c0.8,1,2.4,1,3.4,0.1s1-2.4,0.1-3.4
						C173.9,1222,172.4,1222,171.5,1222.9z M203.7,1192.8c-1,0.9-1,2.4-0.1,3.4s2.4,1,3.4,0.1s1-2.4,0.1-3.4
						C206.1,1192,204.6,1191.9,203.7,1192.8z M235.9,1162.6c-1,0.9-1,2.4-0.1,3.4s2.4,1,3.4,0.1s1-2.4,0.1-3.4
						C238.3,1161.8,236.8,1161.7,235.9,1162.6z M268.1,1132.5c-1,0.9-1,2.4-0.1,3.4s2.4,1,3.4,0.1s1-2.4,0.1-3.4
						C270.5,1131.6,269,1131.6,268.1,1132.5z M300.3,1102.3c-1,0.9-1,2.4-0.1,3.4s2.4,1,3.4,0.1s1-2.4,0.1-3.4
						C302.7,1101.5,301.2,1101.5,300.3,1102.3z M332.5,1072.2c-1,0.9-1,2.4-0.1,3.4s2.4,1,3.4,0.1s1-2.4,0.1-3.4
						C334.9,1071.4,333.4,1071.3,332.5,1072.2z M364.7,1042.1c-1,0.9-1,2.4-0.1,3.4s2.4,1,3.4,0.1s1-2.4,0.1-3.4
						C367.1,1041.2,365.6,1041.2,364.7,1042.1z M396.9,1011.9c-1,0.9-1,2.4-0.1,3.4s2.4,1,3.4,0.1s1-2.4,0.1-3.4
						C399.3,1011.1,397.8,1011,396.9,1011.9z M-25.4,1433.2c-1,0.9-1,2.4-0.1,3.4s2.4,1,3.4,0.1s1-2.4,0.1-3.4
						C-23,1432.3-24.5,1432.2-25.4,1433.2z M6.7,1403c-1,0.9-1,2.4-0.1,3.4s2.4,1,3.4,0.1c1-0.8,1-2.4,0.1-3.4
						C9.2,1402.2,7.7,1402.2,6.7,1403z M38.9,1372.9c-1,0.9-1,2.4-0.1,3.4s2.4,1,3.4,0.1s1-2.4,0.1-3.4
						C41.4,1372.1,39.9,1372,38.9,1372.9z M71.1,1342.7c-1,0.9-1,2.4-0.1,3.4c0.8,1,2.4,1,3.4,0.1s1-2.4,0.1-3.4
						C73.6,1341.9,72.1,1341.8,71.1,1342.7z M103.3,1312.6c-1,0.9-1,2.4-0.1,3.4s2.4,1,3.4,0.1s1-2.4,0.1-3.4
						S104.3,1311.7,103.3,1312.6z M135.5,1282.4c-1,0.9-1,2.4-0.1,3.4s2.4,1,3.4,0.1s1-2.4,0.1-3.4
						C137.9,1281.6,136.5,1281.6,135.5,1282.4z M167.7,1252.3c-1,0.9-1,2.4-0.1,3.4s2.4,1,3.4,0.1s1-2.4,0.1-3.4
						C170.1,1251.5,168.7,1251.4,167.7,1252.3z M199.9,1222.2c-1,0.9-1,2.4-0.1,3.4s2.4,1,3.4,0.1s1-2.4,0.1-3.4
						C202.3,1221.3,200.9,1221.3,199.9,1222.2z M232.1,1192c-1,0.9-1,2.4-0.1,3.4s2.4,1,3.4,0.1s1-2.4,0.1-3.4
						C234.5,1191.2,233.1,1191.1,232.1,1192z M264.3,1161.9c-1,0.9-1,2.4-0.1,3.4s2.4,1,3.4,0.1s1-2.4,0.1-3.4
						C266.7,1161,265.3,1161,264.3,1161.9z M296.5,1131.8c-1,0.9-1,2.4-0.1,3.4s2.4,1,3.4,0.1s1-2.4,0.1-3.4
						C298.9,1130.9,297.5,1130.9,296.5,1131.8z M328.7,1101.6c-1,0.9-1,2.4-0.1,3.4s2.4,1,3.4,0.1s1-2.4,0.1-3.4
						C331.1,1100.8,329.7,1100.7,328.7,1101.6z M360.9,1071.5c-1,0.9-1,2.4-0.1,3.4s2.4,1,3.4,0.1s1-2.4,0.1-3.4
						C363.3,1070.6,361.9,1070.5,360.9,1071.5z M393.1,1041.3c-1,0.9-1,2.4-0.1,3.4s2.4,1,3.4,0.1s1-2.4,0.1-3.4
						C395.5,1040.5,394.1,1040.5,393.1,1041.3z M2.9,1430.1c-1,0.9-1,2.4-0.1,3.4s2.4,1,3.4,0.1c1-0.8,1-2.4,0.1-3.4
						S3.9,1429.1,2.9,1430.1z M35.1,1399.9c-1,0.9-1,2.4-0.1,3.4s2.4,1,3.4,0.1s1-2.4,0.1-3.4C37.6,1399.1,36.1,1399.1,35.1,1399.9z
						 M67.3,1369.8c-1,0.9-1,2.4-0.1,3.4s2.4,1,3.4,0.1s1-2.4,0.1-3.4C69.8,1369,68.3,1368.9,67.3,1369.8z M99.5,1339.7
						c-1,0.9-1,2.4-0.1,3.4s2.4,1,3.4,0.1s1-2.4,0.1-3.4C102,1338.8,100.5,1338.7,99.5,1339.7z M131.7,1309.5c-1,0.9-1,2.4-0.1,3.4
						s2.4,1,3.4,0.1c1-0.8,1-2.4,0.1-3.4C134.2,1308.7,132.7,1308.6,131.7,1309.5z M163.9,1279.3c-1,0.9-1,2.4-0.1,3.4
						s2.4,1,3.4,0.1s1-2.4,0.1-3.4C166.3,1278.5,164.9,1278.5,163.9,1279.3z M196.1,1249.2c-1,0.9-1,2.4-0.1,3.4s2.4,1,3.4,0.1
						s1-2.4,0.1-3.4C198.5,1248.4,197.1,1248.3,196.1,1249.2z M228.3,1219.1c-1,0.9-1,2.4-0.1,3.4s2.4,1,3.4,0.1s1-2.4,0.1-3.4
						C230.7,1218.2,229.3,1218.2,228.3,1219.1z M260.5,1188.9c-1,0.9-1,2.4-0.1,3.4s2.4,1,3.4,0.1s1-2.4,0.1-3.4
						C262.9,1188.1,261.5,1188,260.5,1188.9z M292.7,1158.8c-1,0.9-1,2.4-0.1,3.4s2.4,1,3.4,0.1s1-2.4,0.1-3.4
						C295.1,1157.9,293.7,1157.9,292.7,1158.8z M324.9,1128.7c-1,0.9-1,2.4-0.1,3.4s2.4,1,3.4,0.1s1-2.4,0.1-3.4
						C327.3,1127.8,325.9,1127.8,324.9,1128.7z M357.1,1098.5c-1,0.9-1,2.4-0.1,3.4s2.4,1,3.4,0.1s1-2.4,0.1-3.4
						C359.5,1097.7,358.1,1097.6,357.1,1098.5z M389.3,1068.4c-1,0.9-1,2.4-0.1,3.4s2.4,1,3.4,0.1s1-2.4,0.1-3.4
						C391.7,1067.5,390.3,1067.5,389.3,1068.4z M421.5,1038.2c-1,0.9-1,2.4-0.1,3.4s2.4,1,3.4,0.1s1-2.4,0.1-3.4
						C423.9,1037.4,422.5,1037.4,421.5,1038.2z"/>
				</g>
			</g>
		</g>
	</g>
</g>
<path class="st1" d="M0,1987c0,0,194,14,310,266c0,0,76,114,316,84s334,44,334,44s347.1,88.3,579.4-98s398.6,160,398.6,160v214H-14
	L0,1987z"/>
<path class="st2" d="M-62.4,1966c0,0,216.5,14,345.9,266c0,0,84.8,114,352.6,84s372.7,44,372.7,44s387.2,88.3,646.5-98
	s444.7,160,444.7,160v214H-78L-62.4,1966z"/>
<circle class="st3" cx="311.1" cy="2255" r="4.9"/>
<circle class="st3" cx="957.1" cy="2378" r="4.9"/>
<circle class="st3" cx="1551.1" cy="2276" r="4.9"/>
<polygon class="st4" points="-33.2,-271.2 -36.8,866.1 1604.6,-45.4 "/>
<polygon class="st4" points="2392.8,845.4 2385.6,52.3 995.9,843.3 "/>
<linearGradient id="SVGID_3_" gradientUnits="userSpaceOnUse" x1="407.1182" y1="1551.4" x2="2434.0188" y2="1551.4" gradientTransform="matrix(1 0 0 -1 0 2410)">
	<stop  offset="0" style="stop-color:#FFFFFF"/>
	<stop  offset="1" style="stop-color:#7BB7FF"/>
</linearGradient>
<rect x="661.7" y="851.1" class="st5" width="1730.7" height="15"/>
</svg>
