<?xml version="1.0" encoding="utf-8"?>
<!-- Generator: Adobe Illustrator 21.0.0, SVG Export Plug-In . SVG Version: 6.00 Build 0)  -->
<svg version="1.1" id="Layer_1" xmlns="http://www.w3.org/2000/svg" xmlns:xlink="http://www.w3.org/1999/xlink" x="0px" y="0px"
	 viewBox="0 0 79 18" style="enable-background:new 0 0 79 18;" xml:space="preserve">
<style type="text/css">
	.st0{fill:#B3D2FF;}
	.st1{fill:#A9D8FF;}
</style>
<g>
	<g>
		<rect x="8.2" y="9.2" class="st0" width="0.8" height="0.8"/>
		<polygon class="st0" points="9.1,9.9 9.1,10.1 8.9,10.1 8.9,10.1 8.9,11.1 10.1,11.1 10.1,9.9 		"/>
		<polygon class="st1" points="5,8.8 5,9 5.5,9 6,8.9 6,8.6 		"/>
		<polygon class="st0" points="6,8.9 5.5,9 6,9 		"/>
		<polygon class="st1" points="6.9,8.5 6.9,8.6 7.4,8.6 8.1,8.5 8.1,8.2 		"/>
		<g>
			<path class="st1" d="M4.2,15.5L4.2,15.5l7.5-1.5c0.3-0.1,0.5-0.3,0.5-0.6v-2.7h-0.3v2.7c0,0.2-0.1,0.4-0.3,0.4l-7.4,1.5
				c0,0,0,0-0.1,0C4.1,15.2,4,15.1,4,15v0.5C4.1,15.5,4.2,15.5,4.2,15.5z"/>
			<path class="st1" d="M4,10.1V9.6c0-0.2,0.1-0.4,0.3-0.4l0.6-0.1V9V8.9L4.2,9C4,9.1,3.8,9.3,3.8,9.6v1C3.8,10.4,3.9,10.2,4,10.1z"
				/>
			<path class="st1" d="M11.8,7.8C11.9,7.8,12,7.9,12,8v2.4h0.3V8c0-0.3-0.2-0.5-0.5-0.5h-0.1L8.3,8.2v0.3L11.8,7.8
				C11.7,7.8,11.7,7.8,11.8,7.8z"/>
		</g>
		<polygon class="st1" points="6.7,8.6 6.7,8.5 6.2,8.6 6.2,8.9 6.7,8.8 		"/>
		<polygon class="st0" points="8.1,8.5 7.4,8.6 8.1,8.6 		"/>
		<g>
			<path class="st0" d="M8.7,10.5l-4.4-0.2l0,0c-0.2,0-0.3,0.1-0.3,0.3V15c0,0.2,0.1,0.3,0.3,0.3l7.4-1.5c0.2,0,0.3-0.2,0.3-0.4
				v-2.7l-1.7-0.1v0.5v0.1h-0.2H8.9H8.7v-0.1V10.5z"/>
			<path class="st0" d="M4.3,10L4.3,10L4.3,10l4.4,0.2V10H8.2H8V9.9V9.2V9h0.1h0.8h0.2v0.2v0.5h1h0.2v0.2v0.5l1.7,0.1V8
				c0-0.2-0.1-0.3-0.3-0.3L8.3,8.4v0.2v0.1H8.1H6.9H6.7l0,0L6.2,8.9V9v0.1H6H5H4.9l0,0L4.3,9.2C4.1,9.3,4,9.5,4,9.6v0.5
				C4.1,10.1,4.2,10,4.3,10z"/>
		</g>
	</g>
	<g>
		<rect x="6.9" y="7.4" class="st0" width="1.3" height="1.3"/>
	</g>
	<rect x="5" y="8" class="st0" width="1" height="1"/>
	<g>
		<rect x="7.1" y="1.1" class="st0" width="0.8" height="0.8"/>
		<path class="st1" d="M7.9,1.1v0.8H7.1V1.1H7.9 M8,1L8,1H7.1H7v0.1v0.8V2h0.2H8l0,0V1.9V1.1V1L8,1z"/>
	</g>
	<g>
		<rect x="9.2" y="2.2" class="st0" width="0.6" height="0.6"/>
		<path class="st1" d="M9.8,2.2v0.6H9.2V2.2H9.8 M9.9,2L9.9,2H9.2H9.1v0.2v0.6V3h0.1h0.6h0.1V2.8V2.2L9.9,2L9.9,2z"/>
	</g>
	<g>
		<rect x="6.2" y="6.2" class="st0" width="0.6" height="0.6"/>
		<path class="st1" d="M6.8,6.2v0.6H6.2V6.2H6.8 M6.9,6.1L6.9,6.1H6.2H6.1v0.1v0.6v0.1h0.1h0.6h0.1V6.8L6.9,6.1L6.9,6.1L6.9,6.1z"/>
	</g>
	<g>
		<rect x="8.2" y="6.7" class="st0" width="0.6" height="0.6"/>
		<path class="st1" d="M8.8,6.7v0.6H8.2V6.7H8.8 M8.9,6.6L8.9,6.6H8.2H8.1v0.1v0.6v0.1h0.1h0.6h0.1V7.3L8.9,6.6L8.9,6.6L8.9,6.6z"/>
	</g>
	<g>
		<rect x="8.9" y="2.8" class="st0" width="0.3" height="0.3"/>
		<path class="st1" d="M9.1,2.8v0.3H8.9V2.8H9.1 M9.3,2.7H9.1H8.9H8.7v0.1v0.3v0.1h0.2h0.3h0.2v0L9.3,2.7L9.3,2.7L9.3,2.7z"/>
	</g>
	<g>
		<rect x="11" y="3" class="st0" width="1" height="1"/>
		<path class="st1" d="M12,3v1h-1V3H12 M12.1,2.8H12h-1h-0.1V3v1v0.2H11h1h0.1V4V3V2.8L12.1,2.8z"/>
	</g>
	<g>
		<rect x="8.9" y="9.9" class="st0" width="1.3" height="1.3"/>
	</g>
	<g>
		<rect x="8.2" y="9.2" class="st0" width="0.8" height="0.8"/>
	</g>
	<g>
		<rect x="5.9" y="2.9" class="st0" width="1.3" height="1.3"/>
		<path class="st1" d="M7.1,2.9v1.3H5.9V2.9H7.1 M7.3,2.7H7.1H5.9H5.7v0.2v1.3v0.2h0.1h1.3h0.2V4.1V2.9L7.3,2.7L7.3,2.7z"/>
	</g>
	<g>
		<rect x="9.9" y="6.4" class="st0" width="1.3" height="1.3"/>
		<path class="st1" d="M11.1,6.4v1.3H9.9V6.4H11.1 M11.3,6.2h-0.1H9.9H9.7v0.2v1.3v0.2h0.1h1.3h0.1V7.6V6.4L11.3,6.2L11.3,6.2z"/>
	</g>
	<g>
		<rect x="8.2" y="4.2" class="st0" width="1.7" height="1.7"/>
		<path class="st1" d="M9.9,4.2v1.7H8.2V4.2H9.9 M10.1,4.1H9.9H8.2H8.1v0.2V6v0.2h0.1h1.7H10V5.9L10.1,4.1L10.1,4.1L10.1,4.1z"/>
	</g>
	<g>
		<path class="st0" d="M12.7,16.7l-8.3-0.4c-0.2,0-0.3-0.2-0.3-0.4v-5.3c0-0.2,0.1-0.3,0.3-0.3l8.3,0.4c0.2,0,0.3,0.2,0.3,0.4v5.3
			C13,16.6,12.9,16.7,12.7,16.7z"/>
	</g>
</g>
<g>
	<path class="st0" d="M20.3,6c-0.1,0.3-0.3,0.5-0.5,0.6s-0.4,0.2-0.7,0.2c0.1-0.1,0.1-0.2,0.1-0.3c0-0.1-0.1-0.2-0.2-0.3
		c-0.1-0.1-0.3-0.1-0.4-0.1c-0.6,0-1.1,0.4-1.4,1.1C17,7.7,16.9,8.3,16.9,9c0,2,0.6,3,1.9,3c0.5,0,1-0.2,1.4-0.5c0,0,0,0.1,0,0.2
		c0,0.8-0.6,1.2-1.7,1.2c-1,0-1.7-0.4-2.2-1.1c-0.4-0.7-0.7-1.5-0.7-2.5c0-1.1,0.3-2,0.8-2.7s1.3-1,2.2-1C19.1,5.4,19.7,5.6,20.3,6z
		"/>
	<path class="st0" d="M23,6.9c0.8,0,1.4,0.3,1.8,0.9c0.3,0.5,0.5,1.2,0.5,2s-0.2,1.5-0.5,2c-0.4,0.6-1,0.9-1.8,0.9s-1.4-0.3-1.8-0.9
		c-0.3-0.5-0.5-1.2-0.5-2s0.2-1.5,0.5-2C21.6,7.2,22.2,6.9,23,6.9z M23,7.6c-0.7,0-1.1,0.8-1.1,2.3s0.4,2.3,1.1,2.3s1.1-0.7,1.1-2.3
		S23.7,7.6,23,7.6z"/>
	<path class="st0" d="M26.8,7h1.1c-0.1,0.3-0.2,0.6-0.2,1.1v3.2c0,0.2,0,0.4,0.1,0.5C27.9,12,28,12,28.2,12
		c-0.1,0.2-0.2,0.4-0.2,0.5c-0.1,0.1-0.3,0.2-0.5,0.2h-1c0.1-0.3,0.2-0.6,0.2-1.1V8.4c0-0.2,0-0.4-0.1-0.5c-0.1-0.2-0.2-0.2-0.4-0.2
		c0.1-0.2,0.2-0.4,0.2-0.5C26.4,7,26.5,7,26.8,7z M27.3,5H28l-0.2,0.7C27.7,5.9,27.4,6,27.1,6h-0.7l0.2-0.7C26.7,5.1,27,5,27.3,5z"
		/>
	<path class="st0" d="M34,12c-0.1,0.3-0.1,0.4-0.2,0.5c-0.1,0.1-0.3,0.2-0.5,0.2h-1.1c0.1-0.3,0.2-0.7,0.2-1.1V8.8
		c0-0.8-0.3-1.3-0.9-1.3c-0.7,0-1,0.5-1,1.4v2.3c0,0.2,0,0.4,0.1,0.5c0.1,0.2,0.2,0.2,0.4,0.2c-0.1,0.2-0.1,0.4-0.2,0.5
		s-0.3,0.2-0.5,0.2h-1.1c0.1-0.3,0.2-0.6,0.2-1.1V8.3c0-0.2,0-0.4-0.1-0.5s-0.2-0.2-0.4-0.2C29,7.3,29.1,7.1,29.1,7
		c0.2,0,0.3,0,0.6,0c0.2,0,0.3,0,0.5,0c0.1,0,0.2,0,0.3-0.1c0,0.1,0,0.4-0.1,0.7c0.4-0.5,0.8-0.7,1.4-0.7c0.6,0,1.1,0.2,1.4,0.7
		c0.2,0.4,0.3,0.9,0.3,1.6v2.2c0,0.3,0,0.4,0.1,0.5C33.7,11.9,33.8,12,34,12z"/>
	<path class="st0" d="M36.6,9.7v1.5c0,0.3,0,0.5,0.1,0.6S37,12,37.3,12c-0.1,0.3-0.2,0.5-0.2,0.6c-0.1,0.1-0.3,0.2-0.6,0.2h-1.3
		c0.1-0.3,0.2-0.7,0.2-1.2V7.1c0-0.3,0-0.5-0.1-0.6s-0.2-0.2-0.5-0.2C34.9,6,35,5.8,35.3,5.6c0.2-0.1,0.8-0.2,1.6-0.2
		c1.9,0,2.8,0.8,2.8,2.3c0,0.6-0.2,1.2-0.6,1.6c-0.4,0.4-0.9,0.6-1.6,0.6C37.2,10,36.9,9.9,36.6,9.7z M36.6,7.9
		c0,0.9,0.3,1.4,0.8,1.4c0.4,0,0.7-0.2,0.8-0.6c0.1-0.3,0.2-0.7,0.2-1.1s-0.1-0.8-0.3-1c-0.2-0.3-0.5-0.5-0.9-0.5
		c-0.3,0-0.5,0.1-0.6,0.3c-0.1,0.2-0.1,0.4-0.1,0.8L36.6,7.9L36.6,7.9z"/>
	<path class="st0" d="M44.9,12.1c-0.1,0.2-0.1,0.4-0.2,0.5c-0.1,0.1-0.3,0.2-0.6,0.2c-0.2,0-0.4,0-0.6,0.1c0-0.2,0-0.4,0-0.7
		c-0.4,0.5-0.9,0.7-1.5,0.7s-1-0.2-1.3-0.6c-0.3-0.4-0.4-0.9-0.4-1.5s0.2-1.1,0.5-1.5s0.8-0.6,1.4-0.6c0.5,0,1,0.2,1.3,0.6
		c0-0.1,0-0.2,0-0.3c0-0.5-0.1-0.9-0.4-1.1S42.5,7.6,42,7.6c-0.4,0-0.8,0.1-1.3,0.2c0.1-0.3,0.3-0.6,0.4-0.7
		c0.2-0.1,0.5-0.2,1.1-0.2c0.8,0,1.4,0.2,1.8,0.6c0.3,0.4,0.5,1,0.5,1.8v2c0,0.3,0,0.4,0.1,0.5C44.5,12,44.7,12,44.9,12.1z
		 M42.4,9.3c-0.4,0-0.6,0.1-0.8,0.4c-0.2,0.2-0.2,0.6-0.2,0.9c0,0.4,0.1,0.7,0.3,1s0.5,0.5,0.8,0.5c0.4,0,0.6-0.2,0.8-0.5
		c0.1-0.3,0.2-0.6,0.2-1s-0.1-0.7-0.2-0.9C43,9.4,42.7,9.3,42.4,9.3z"/>
	<path class="st0" d="M45.9,7h0.9c0,0.1,0,0.3,0,0.3c0,0.1,0,0.3,0.1,0.5l0.8,2.6c0.1,0.2,0.2,0.5,0.2,0.9L49,8.5
		c0.1-0.2,0.1-0.4,0.1-0.5c0-0.2-0.2-0.3-0.6-0.4c0.1-0.2,0.2-0.4,0.3-0.5C48.9,7,49.1,7,49.3,7h1.1c-0.2,0.4-0.3,0.7-0.4,0.9
		l-2.2,5.4c-0.2,0.5-0.4,0.9-0.6,1.1c-0.3,0.3-0.7,0.5-1.1,0.5c-0.4,0-0.8-0.1-1.2-0.3c0.1-0.3,0.3-0.4,0.4-0.4c0.1,0,0.2,0,0.3,0
		s0.2,0,0.3,0c0.6,0,1.1-0.5,1.5-1.6L46,8.4c-0.1-0.2-0.2-0.4-0.3-0.5s-0.3-0.2-0.6-0.2c0.1-0.3,0.2-0.4,0.3-0.5
		C45.5,7,45.7,7,45.9,7z"/>
	<path class="st0" d="M54.9,7.6c0.4-0.5,0.9-0.8,1.5-0.8s1.1,0.2,1.3,0.7C57.9,7.9,58,8.4,58,9.1v2.2c0,0.2,0,0.4,0.1,0.5
		s0.2,0.2,0.4,0.2c-0.1,0.3-0.1,0.4-0.3,0.5c-0.1,0.1-0.3,0.2-0.6,0.2h-1c0.1-0.3,0.2-0.7,0.2-1.1V8.8c0-0.8-0.3-1.3-0.9-1.3
		c-0.6,0-1,0.5-1,1.4v2.3c0,0.2,0,0.4,0.1,0.5c0.1,0.2,0.2,0.2,0.4,0.2c-0.1,0.2-0.2,0.4-0.2,0.5c-0.1,0.1-0.3,0.2-0.5,0.2h-1
		c0.1-0.3,0.2-0.6,0.2-1.1V8.8c0-0.8-0.3-1.3-0.8-1.3c-0.7,0-1,0.5-1,1.4v2.3c0,0.3,0,0.4,0.1,0.5c0.1,0.2,0.2,0.2,0.4,0.2
		c-0.1,0.3-0.2,0.4-0.3,0.5s-0.3,0.2-0.5,0.2h-1c0.1-0.3,0.2-0.6,0.2-1.1V8.3c0-0.2,0-0.4-0.1-0.5s-0.2-0.2-0.4-0.2
		c0.1-0.3,0.2-0.5,0.3-0.6c0.3,0,0.4,0,0.6,0h0.1h0.1c0.2,0,0.4,0,0.6-0.1v0.7c0.3-0.5,0.8-0.7,1.4-0.7S54.6,7.1,54.9,7.6z"/>
	<path class="st0" d="M63.7,8.1c-0.1,0.5-0.2,0.9-0.4,1.2s-0.5,0.5-1,0.7l-1.7,0.8c0.3,0.9,0.8,1.3,1.6,1.3c0.1,0,0.3,0,0.6-0.1
		s0.4-0.1,0.5-0.1c0.2,0,0.3,0.1,0.5,0.4c-0.6,0.4-1.2,0.5-1.9,0.5c-0.8,0-1.5-0.3-2-0.9c-0.4-0.6-0.7-1.3-0.7-2.2
		c0-0.8,0.2-1.4,0.6-2c0.4-0.6,1-0.9,1.8-0.9c0.6,0,1.1,0.2,1.5,0.7C63.3,7.7,63.4,7.9,63.7,8.1z M62.5,8.5c0-0.3-0.1-0.5-0.3-0.6
		c-0.2-0.2-0.4-0.3-0.6-0.3c-0.4,0-0.8,0.2-1,0.7c-0.2,0.4-0.3,0.8-0.3,1.3c0,0.2,0,0.3,0.1,0.6l1.3-0.6C62.2,9.2,62.5,8.9,62.5,8.5
		z"/>
	<path class="st0" d="M69.4,12c-0.1,0.3-0.1,0.4-0.2,0.5s-0.3,0.2-0.5,0.2h-1.1c0.1-0.3,0.2-0.7,0.2-1.1V8.8c0-0.8-0.3-1.3-0.9-1.3
		c-0.7,0-1,0.5-1,1.4v2.3c0,0.2,0,0.4,0.1,0.5c0.1,0.2,0.2,0.2,0.4,0.2c-0.1,0.2-0.1,0.4-0.2,0.5s-0.3,0.2-0.5,0.2h-1.1
		c0.1-0.3,0.2-0.6,0.2-1.1V8.3c0-0.2,0-0.4-0.1-0.5s-0.2-0.2-0.4-0.2c0.1-0.3,0.2-0.5,0.2-0.6c0.2,0,0.3,0,0.5,0s0.3,0,0.5,0
		c0.1,0,0.2,0,0.3-0.1c0,0.1,0,0.4-0.1,0.7c0.4-0.5,0.8-0.7,1.4-0.7s1.1,0.2,1.4,0.7c0.2,0.4,0.3,0.9,0.3,1.6v2.2
		c0,0.3,0,0.4,0.1,0.5C69,11.9,69.2,12,69.4,12z"/>
	<path class="st0" d="M71.8,5.4V7h0.5c0.3,0,0.5,0,0.7-0.1c-0.1,0.4-0.3,0.6-0.4,0.7s-0.4,0.1-0.8,0.1v3.7c0,0.5,0.1,0.7,0.4,0.7
		c0,0,0.1,0,0.2,0s0.1,0,0.2,0s0.2,0.1,0.4,0.3c-0.4,0.3-0.7,0.5-1.1,0.5c-0.7,0-1.1-0.5-1.1-1.4V7.7h-0.3c-0.2,0-0.3,0-0.5,0.1
		c0.1-0.3,0.1-0.4,0.2-0.5C70.3,7.1,70.4,7,70.6,7h0.2V6.3c0-0.2,0.1-0.4,0.4-0.6C71.4,5.6,71.6,5.5,71.8,5.4z"/>
	<path class="st0" d="M76.8,6.9c-0.1,0.3-0.1,0.5-0.2,0.6c-0.1,0.2-0.3,0.2-0.5,0.2c-0.1,0-0.3,0-0.5-0.1c-0.2,0-0.4-0.1-0.5-0.1
		c-0.3,0-0.5,0.1-0.5,0.4c0,0.2,0.2,0.5,0.6,0.8c0.7,0.6,1,0.9,1.1,1c0.4,0.5,0.6,0.9,0.6,1.3c0,0.5-0.2,0.9-0.5,1.1
		c-0.3,0.3-0.7,0.4-1.2,0.4c-0.7,0-1.3-0.3-1.9-0.8c0.1-0.4,0.4-0.7,0.9-0.8V11c0,0.3,0.1,0.5,0.3,0.7c0.2,0.2,0.4,0.2,0.7,0.2
		c0.2,0,0.4-0.1,0.5-0.2c0.2-0.1,0.2-0.3,0.2-0.5s-0.2-0.6-0.6-1s-0.7-0.8-1.1-1.1c-0.4-0.5-0.6-0.9-0.6-1.2c0-0.4,0.1-0.7,0.4-0.9
		c0.3-0.2,0.6-0.3,1-0.3c0.1,0,0.4,0,0.6,0.1C76,7,76.2,7,76.4,7S76.7,7,76.8,6.9z"/>
</g>
</svg>
