<?xml version="1.0" encoding="utf-8"?>
<!-- Generator: Adobe Illustrator 21.0.0, SVG Export Plug-In . SVG Version: 6.00 Build 0)  -->
<svg version="1.1" id="Layer_1" xmlns="http://www.w3.org/2000/svg" xmlns:xlink="http://www.w3.org/1999/xlink" x="0px" y="0px"
	 viewBox="0 0 71 15" style="enable-background:new 0 0 71 15;" xml:space="preserve">
<style type="text/css">
	.st0{fill:#A1D5FF;}
	.st1{fill:#B3D2FF;}
</style>
<g>
	<polygon class="st0" points="5.7,10.2 5.7,6.1 1.6,7.8 	"/>
	<polygon class="st0" points="5.7,5.8 5.7,1 1.8,7.5 	"/>
	<polygon class="st0" points="5.9,1 5.9,5.8 9.8,7.5 	"/>
	<polygon class="st0" points="5.9,6.1 5.9,10.2 9.9,7.9 	"/>
	<polygon class="st0" points="5.7,14.3 5.7,11 1.7,8.7 	"/>
	<polygon class="st0" points="5.9,14.3 9.9,8.7 5.9,11 	"/>
</g>
<g>
	<path class="st1" d="M16.8,11.5c-1.7,0-3-1.2-3-3.2c0-1.9,1.2-3.1,3-3.1c1.7,0,3,1.2,3,3c0,0.2,0,0.4,0,0.6h-4.7
		c0.1,1,0.8,1.6,1.7,1.6c0.8,0,1.2-0.4,1.4-0.9h1.4C19.3,10.6,18.3,11.5,16.8,11.5z M15.1,7.8h3.4c0-0.9-0.8-1.5-1.7-1.5
		C15.9,6.2,15.2,6.8,15.1,7.8z"/>
	<path class="st1" d="M21.2,6.3h-0.7v-1h0.7V3.8h1.3v1.5H24v1h-1.5v3.4c0,0.5,0.2,0.6,0.7,0.6H24v1.1h-1c-1.1,0-1.8-0.5-1.8-1.7V6.3
		z"/>
	<path class="st1" d="M25.1,3.2h1.3V6c0.4-0.5,1.1-0.8,1.9-0.8c1.4,0,2.4,0.9,2.4,2.6v3.6h-1.3V8c0-1.1-0.6-1.7-1.5-1.7
		S26.4,6.9,26.4,8v3.4h-1.3V3.2z"/>
	<path class="st1" d="M34.9,11.5c-1.7,0-3-1.2-3-3.2c0-1.9,1.2-3.1,3-3.1c1.7,0,3,1.2,3,3c0,0.2,0,0.4,0,0.6h-4.7
		c0.1,1,0.8,1.6,1.7,1.6c0.8,0,1.2-0.4,1.4-0.9h1.4C37.4,10.6,36.4,11.5,34.9,11.5z M33.2,7.8h3.4c0-0.9-0.8-1.5-1.7-1.5
		C34,6.2,33.3,6.8,33.2,7.8z"/>
	<path class="st1" d="M40.4,11.4h-1.3V5.3h1.3v0.9c0.4-0.6,1-1,1.8-1v1.3h-0.3c-0.9,0-1.5,0.4-1.5,1.7V11.4z"/>
	<path class="st1" d="M46,11.5c-1.7,0-3-1.2-3-3.2c0-1.9,1.2-3.1,3-3.1c1.7,0,3,1.2,3,3c0,0.2,0,0.4,0,0.6h-4.7
		c0.1,1,0.8,1.6,1.7,1.6c0.8,0,1.2-0.4,1.4-0.9h1.4C48.5,10.6,47.5,11.5,46,11.5z M44.3,7.8h3.4c0-0.9-0.8-1.5-1.7-1.5
		C45.1,6.2,44.4,6.8,44.3,7.8z"/>
	<path class="st1" d="M55.7,11.4h-1.3v-0.7c-0.4,0.5-1.1,0.8-1.8,0.8c-1.4,0-2.5-0.9-2.5-2.6V5.3h1.3v3.4c0,1.1,0.6,1.7,1.5,1.7
		s1.5-0.6,1.5-1.7V5.3h1.3V11.4z"/>
	<path class="st1" d="M66,8c0-1.1-0.6-1.7-1.5-1.7S63,6.9,63,8v3.4h-1.3V8c0-1.1-0.6-1.7-1.5-1.7S58.7,6.9,58.7,8v3.4h-1.3V5.3h1.3
		V6c0.4-0.5,1.1-0.8,1.8-0.8c1,0,1.8,0.4,2.2,1.2c0.4-0.7,1.2-1.2,2.1-1.2c1.4,0,2.5,0.9,2.5,2.6v3.6H66V8z"/>
</g>
</svg>
