<?xml version="1.0" encoding="utf-8"?>
<!-- Generator: Adobe Illustrator 21.0.0, SVG Export Plug-In . SVG Version: 6.00 Build 0)  -->
<svg version="1.1" id="Layer_1" xmlns="http://www.w3.org/2000/svg" xmlns:xlink="http://www.w3.org/1999/xlink" x="0px" y="0px"
	 viewBox="0 0 79 18" style="enable-background:new 0 0 79 18;" xml:space="preserve">
<style type="text/css">
	.st0{fill:#5CAAEA;}
	.st1{fill:#4495CC;}
	.st2{fill:#D4E8FF;}
	.st3{fill:#B3D2FF;}
	.st4{fill:#E26600;}
	.st5{fill:#80BAFF;}
</style>
<g>
	<g>
		<g>
			<g>
				<path class="st0" d="M10.7,9.1l-0.5,2.1c0.6,0.1,2.6,0.8,2.9-0.4C13.4,9.6,11.3,9.3,10.7,9.1z"/>
			</g>
			<g>
				<path class="st1" d="M13.1,10.8c0.3-1.2-1.8-1.5-2.4-1.7l-0.5,2"/>
			</g>
			<g>
				<path class="st0" d="M11.4,6.3l-0.5,1.9c0.5,0.1,2.2,0.7,2.4-0.4C13.6,6.7,11.9,6.4,11.4,6.3z"/>
			</g>
			<g>
				<path class="st1" d="M13.4,7.8c0.3-1.1-1.4-1.4-2-1.5l-0.5,1.9"/>
			</g>
			<g>
				<path class="st2" d="M13.5,0.6C8.9-0.5,4.2,2.3,3.1,6.9c-1.1,4.6,1.6,9.3,6.3,10.4c4.6,1.1,9.3-1.6,10.4-6.3
					C20.9,6.5,18.1,1.8,13.5,0.6z M15.2,7.8C15.1,8.6,14.7,9,14,9.2c0.9,0.4,1.3,1.1,0.9,2.3c-0.5,1.5-1.7,1.6-3.3,1.3l-0.4,1.6
					l-0.9-0.3l0.4-1.5c-0.3-0.1-0.5-0.1-0.8-0.2l-0.4,1.5l-0.9-0.3L8.9,12c-0.2-0.1-0.4-0.1-0.7-0.2L7,11.5l0.5-1.1l0.7,0.2
					c0.3,0.1,0.4-0.1,0.4-0.2L9.2,8c0,0,0.1,0,0.1,0c0,0-0.1,0-0.1,0l0.4-1.8c0-0.2-0.1-0.5-0.4-0.5L8.5,5.5l0.3-1l1.3,0.3l0,0
					c0.2,0,0.4,0.1,0.6,0.1l0.4-1.5L12,3.7l-0.4,1.5c0.3,0.1,0.5,0.1,0.8,0.2l0.4-1.5l0.9,0.3l-0.4,1.5C14.5,6,15.4,6.6,15.2,7.8z"
					/>
			</g>
			<g>
				<path class="st3" d="M3.1,6.9c-1.1,4.6,1.6,9.3,6.3,10.4c4.6,1.1,9.3-1.6,10.4-6.3c1.1-4.6-1.6-9.3-6.3-10.4 M15.2,7.8
					C15.1,8.6,14.7,9,14,9.2c0.9,0.4,1.3,1.1,0.9,2.3c-0.5,1.5-1.7,1.6-3.3,1.3l-0.4,1.6l-0.9-0.3l0.4-1.5c-0.3-0.1-0.5-0.1-0.8-0.2
					l-0.4,1.5l-0.9-0.3L8.9,12c-0.2-0.1-0.4-0.1-0.7-0.2L7,11.5l0.5-1.1l0.7,0.2c0.3,0.1,0.4-0.1,0.4-0.2L9.2,8c0,0,0.1,0,0.1,0
					c0,0-0.1,0-0.1,0l0.4-1.8c0-0.2-0.1-0.5-0.4-0.5L8.5,5.5l0.3-1l1.3,0.3l0,0c0.2,0,0.4,0.1,0.6,0.1l0.4-1.5L12,3.7l-0.4,1.5
					c0.3,0.1,0.5,0.1,0.8,0.2l0.4-1.5l0.9,0.3l-0.4,1.5C14.5,6,15.4,6.6,15.2,7.8z"/>
			</g>
			<g>
				<path class="st0" d="M19.7,11.4l-4.7-4.7c0.2,0.3,0.3,0.6,0.2,1.1c-0.1,0.8-0.6,1.3-1.2,1.4c0.9,0.4,1.3,1.1,0.9,2.3
					c-0.5,1.5-1.7,1.6-3.3,1.3l-0.4,1.6l-1-0.3l0.4-1.5c-0.3-0.1-0.5-0.1-0.8-0.2l-0.4,1.5l-0.2-0.1l3.7,3.7
					C16.1,16.9,18.8,14.6,19.7,11.4z"/>
			</g>
		</g>
	</g>
	<g>
		<g>
			<path class="st3" d="M29.7,6.7c0.5,0,1,0.1,1.4,0.3c0.4,0.2,0.8,0.4,1,0.8c0.2,0.3,0.4,0.8,0.5,1.2c0.1,0.4,0.2,1,0.2,1.4
				c0,0.8-0.1,1.5-0.4,2.3c-0.3,0.8-0.7,1.3-1.2,1.9c-0.5,0.5-1.1,1-1.9,1.2c-0.7,0.3-1.4,0.4-2.3,0.4c-0.1,0-0.3,0-0.5,0
				s-0.5,0-0.9-0.1c-0.3,0-0.7-0.1-1.1-0.2c-0.3-0.1-0.8-0.2-1.1-0.3l3-12.6l2.7-0.4L28.1,7c0.2-0.1,0.4-0.2,0.7-0.2
				C29.2,6.8,29.5,6.7,29.7,6.7 M27.5,14.2c0.4,0,0.8-0.1,1.1-0.3c0.3-0.2,0.7-0.4,0.9-0.8c0.2-0.3,0.4-0.7,0.7-1.1
				c0.1-0.4,0.2-0.9,0.2-1.3c0-0.5-0.1-1-0.3-1.3s-0.5-0.4-1-0.4c-0.1,0-0.3,0-0.7,0.1c-0.2,0.1-0.5,0.2-0.7,0.3L26.7,14
				c0.1,0,0.1,0,0.2,0H27c0.1,0,0.1,0,0.2,0C27.2,14.2,27.3,14.2,27.5,14.2L27.5,14.2z"/>
		</g>
		<g>
			<path class="st3" d="M35.8,16h-2.6l2.2-9.1h2.6L35.8,16 M37.1,5.8c-0.3,0-0.7-0.1-1-0.3c-0.3-0.2-0.4-0.5-0.4-1
				c0-0.2,0-0.4,0.1-0.7c0.1-0.2,0.2-0.4,0.4-0.5C36.3,3.2,36.5,3,36.7,3c0.2-0.1,0.4-0.1,0.7-0.1c0.3,0,0.7,0.1,1,0.3
				c0.3,0.2,0.4,0.5,0.4,1c0,0.2,0,0.4-0.1,0.7c-0.1,0.2-0.2,0.4-0.4,0.5c-0.1,0.1-0.3,0.3-0.5,0.3C37.5,5.7,37.3,5.8,37.1,5.8z"/>
		</g>
		<g>
			<path class="st3" d="M40.2,4.6L43,4.2l-0.7,2.7h2.8L44.6,9h-2.8L41,12.2c-0.1,0.2-0.1,0.5-0.1,0.8c0,0.2,0,0.4,0.1,0.5
				c0.1,0.2,0.2,0.3,0.3,0.4c0.2,0.1,0.4,0.1,0.8,0.1s0.5,0,0.8-0.1c0.2,0,0.5-0.1,0.8-0.2l0.2,2c-0.3,0.1-0.8,0.2-1.1,0.3
				c-0.4,0.2-0.9,0.2-1.4,0.2c-0.8,0-1.4-0.1-1.9-0.3c-0.4-0.2-0.8-0.5-1-1c-0.2-0.4-0.2-0.9-0.2-1.4c0-0.5,0.1-1.1,0.2-1.6
				L40.2,4.6"/>
		</g>
		<g>
			<path class="st3" d="M45.1,12.4c0-0.8,0.1-1.5,0.4-2.2c0.2-0.7,0.7-1.3,1.1-1.9c0.4-0.5,1.1-0.9,1.8-1.2s1.4-0.4,2.3-0.4
				c0.5,0,1,0,1.4,0.1c0.4,0.1,0.8,0.2,1.1,0.4l-0.9,2C52.1,9.1,51.9,9,51.5,9c-0.2-0.1-0.5-0.1-0.9-0.1c-0.9,0-1.5,0.3-2.1,0.9
				c-0.5,0.5-0.8,1.4-0.8,2.4c0,0.5,0.1,1.1,0.4,1.4c0.2,0.3,0.8,0.5,1.4,0.5c0.3,0,0.7,0,1-0.1s0.5-0.1,0.9-0.2l0.2,2.1
				c-0.3,0.1-0.7,0.2-1.1,0.3c-0.4,0.1-0.9,0.1-1.4,0.1c-0.8,0-1.3-0.1-1.9-0.3c-0.5-0.2-0.9-0.4-1.2-0.9c-0.3-0.3-0.5-0.8-0.7-1.2
				C45.1,13.4,45.1,13,45.1,12.4"/>
		</g>
		<g>
			<path class="st3" d="M56.5,16.3c-0.7,0-1.1-0.1-1.6-0.3c-0.4-0.2-0.9-0.4-1.1-0.8c-0.3-0.3-0.5-0.8-0.7-1.2
				c-0.1-0.4-0.2-1-0.2-1.5c0-0.7,0.1-1.4,0.3-2.1c0.2-0.7,0.5-1.3,1-1.9c0.4-0.5,1-1,1.6-1.3c0.7-0.3,1.3-0.5,2.2-0.5
				c0.7,0,1.1,0.1,1.6,0.3c0.4,0.2,0.9,0.4,1.1,0.8c0.3,0.3,0.5,0.8,0.7,1.2c0.1,0.4,0.2,1,0.2,1.5c0,0.7-0.1,1.4-0.3,2.1
				c-0.2,0.7-0.5,1.3-1,1.9c-0.4,0.5-1,1-1.6,1.3C58,16.1,57.3,16.3,56.5,16.3L56.5,16.3 M57.8,8.9c-0.3,0-0.8,0.1-1,0.3
				c-0.3,0.2-0.5,0.5-0.8,0.9c-0.2,0.3-0.3,0.7-0.4,1.1c-0.1,0.4-0.1,0.8-0.1,1.1c0,0.5,0.1,1,0.3,1.3c0.2,0.3,0.5,0.4,1,0.4
				c0.4,0,0.8-0.1,1-0.3c0.3-0.2,0.5-0.5,0.8-0.9s0.3-0.7,0.4-1.1c0.1-0.4,0.1-0.8,0.1-1.1c0-0.5-0.1-1-0.3-1.3
				C58.5,9,58.2,8.9,57.8,8.9z"/>
		</g>
		<g>
			<path class="st3" d="M64.4,16h-2.6L64,6.9h2.6L64.4,16 M65.7,5.8c-0.3,0-0.7-0.1-1-0.3c-0.3-0.2-0.4-0.5-0.4-1
				c0-0.2,0-0.4,0.1-0.7c0.1-0.2,0.2-0.4,0.4-0.5C64.9,3.2,65.1,3,65.3,3c0.2-0.1,0.4-0.1,0.7-0.1c0.3,0,0.7,0.1,1,0.3
				c0.3,0.2,0.4,0.5,0.4,1c0,0.2,0,0.4-0.1,0.7c-0.1,0.2-0.2,0.4-0.4,0.5c-0.1,0.1-0.3,0.3-0.5,0.3S65.9,5.8,65.7,5.8z"/>
		</g>
		<g>
			<path class="st3" d="M68.5,7.4c0.2-0.1,0.4-0.1,0.7-0.2C69.4,7,69.7,7,69.9,6.9c0.3-0.1,0.7-0.1,1-0.1s0.8-0.1,1.2-0.1
				c1.3,0,2.3,0.4,2.8,1.2c0.5,0.8,0.7,1.9,0.2,3.3L74,16.1h-2.5l1.1-4.8c0.1-0.3,0.1-0.5,0.2-0.9c0-0.3,0-0.5,0-0.8
				c0-0.2-0.1-0.4-0.3-0.5C72.2,9,72,8.9,71.7,8.9c-0.3,0-0.7,0-1,0.1L69,16.1h-2.6L68.5,7.4"/>
		</g>
	</g>
	<g>
		<g>
			<path class="st0" d="M7,11.6L7,11.6l1.6,1.6L8.9,12c-0.2-0.1-0.4-0.1-0.7-0.2L7,11.6z"/>
		</g>
		<g>
			<path class="st4" d="M13.5,5.2L13.5,5.2l-0.1,0.5c0.4,0.1,0.8,0.3,1.1,0.5L13.5,5.2z"/>
		</g>
	</g>
	<g>
		<g>
			<path class="st0" d="M12,3.7L12,3.7l-0.4,1.5c0.3,0.1,0.5,0.1,0.8,0.2l0.3-1.1L12,3.7z"/>
		</g>
	</g>
	<g>
		<path class="st5" d="M13.7,4.1L13.7,4.1l-0.4,1.5l0,0c1.1,0.4,1.9,0.9,1.9,1.9l4.3,4.3c0.1-0.3,0.1-0.5,0.2-0.7
			c0.1-0.3,0.1-0.5,0.1-0.8L13.7,4.1z"/>
	</g>
	<g>
		<path class="st5" d="M14.6,17l-3.3-3.3l-0.1,0.5l-0.9-0.3l0.3-1.1l-0.6-0.6l0,0l-0.4,1.5l-0.9-0.3v0l0,0l3.9,3.9
			C13.2,17.5,13.9,17.3,14.6,17z"/>
	</g>
	<g>
		<g>
			<path class="st1" d="M15.5,16.6l-3.9-3.9c0,0,0,0,0,0l-0.4,1.6l-0.9-0.2l3.3,3.3C14.2,17.2,14.8,16.9,15.5,16.6z"/>
		</g>
	</g>
</g>
</svg>
