<?xml version="1.0" encoding="utf-8"?>
<!-- Generator: Adobe Illustrator 21.0.0, SVG Export Plug-In . SVG Version: 6.00 Build 0)  -->
<svg version="1.1" id="Layer_1" xmlns="http://www.w3.org/2000/svg" xmlns:xlink="http://www.w3.org/1999/xlink" x="0px" y="0px"
	 viewBox="0 0 79 18" style="enable-background:new 0 0 79 18;" xml:space="preserve">
<style type="text/css">
	.st0{fill:#B3D2FF;}
	.st1{fill:#80BAFF;}
</style>
<g id="Classic">
	<g id="Iconomi" transform="translate(-2782.000000, -4071.000000)">
		<g transform="translate(2782.000000, 4071.000000)">
			<path id="ICONOMI" class="st0" d="M10.6,3.2h1.8v11.7h-1.8V3.2z M75.8,3.2h1.8v11.7h-1.8V3.2z M23.9,4.7L23,5.8
				c-3.7-2.8-7.6-0.4-7.6,3s3.7,6.3,7.9,3.1l0.8,1.1c-2.5,3.1-10.3,2.5-10.4-4.2C13.7,3,20.9,1.7,23.9,4.7z M37.7,3.2h1.6l6,9.1V3.2
				H47v11.7h-1.6l-6-9v9h-1.6V3.2z M63.2,3.2H65l3.4,7.9l3.4-7.9h1.7l1,11.7h-1.6c-0.4-5.6-0.7-8.6-0.7-9l-3.1,6.9h-1.5l-3-7
				L64,14.9h-1.7L63.2,3.2z"/>
			<path id="Combined-Shape" class="st1" d="M7.6,9.1h1.8v5.8H7.6V9.1z M4.5,6.1h1.8v8.8H4.5V6.1z M1.4,11.9h1.8v2.9H1.4V11.9z"/>
			<path id="Combined-Shape_1_" class="st0" d="M30.3,14.9c-3.3,0-6.2-2.5-6.2-5.9s2.8-5.8,6.2-5.8s6.2,2.5,6.2,5.8
				S33.6,14.9,30.3,14.9z M30.3,13.5c2.6,0,4.4-2,4.4-4.5s-1.8-4.5-4.4-4.5S25.8,6.4,25.8,9S27.7,13.5,30.3,13.5z"/>
			<path id="Combined-Shape_2_" class="st0" d="M54.9,14.9c-3.3,0-6.2-2.5-6.2-5.9s2.8-5.8,6.2-5.8C58.2,3.2,61,5.7,61,9
				S58.2,14.9,54.9,14.9z M54.9,13.5c2.6,0,4.4-2,4.4-4.5s-1.8-4.5-4.4-4.5c-2.6,0-4.5,1.9-4.5,4.5S52.3,13.5,54.9,13.5z"/>
		</g>
	</g>
</g>
</svg>
