<?xml version="1.0" encoding="utf-8"?>
<!-- Generator: Adobe Illustrator 21.0.0, SVG Export Plug-In . SVG Version: 6.00 Build 0)  -->
<svg version="1.1" id="Layer_1" xmlns="http://www.w3.org/2000/svg" xmlns:xlink="http://www.w3.org/1999/xlink" x="0px" y="0px"
	 viewBox="0 0 79 18" style="enable-background:new 0 0 79 18;" xml:space="preserve">
<style type="text/css">
	.st0{fill:#02CCCC;}
	.st1{fill:#80BAFF;}
	.st2{fill:#B3D2FF;}
</style>
<g>
	<g>
		<g>
			<path class="st0" d="M50.6,15.4"/>
			<path class="st0" d="M52.9,15.4L52.9,15.4"/>
			<path class="st0" d="M50.2,16.7"/>
		</g>
		<g>
			<g>
				<path class="st1" d="M17.8,8.2c-0.3,1.3-0.9,2.3-1.8,3c-1,0.7-2.2,1.1-3.7,1.1c-1.4,0-2.5-0.4-3.1-1.1c-0.5-0.5-0.7-1.2-0.7-2
					c0-0.3,0-0.7,0.1-1.1l1.6-7.7h2.4L11,8c0,0.2-0.1,0.4-0.1,0.6c0,0.4,0.1,0.7,0.3,1c0.3,0.4,0.8,0.6,1.4,0.6
					c0.7,0,1.4-0.2,1.8-0.5c0.5-0.4,0.8-0.9,0.9-1.6l1.6-7.6h2.6L17.8,8.2"/>
			</g>
		</g>
		<g>
			<g>
				<path class="st2" d="M17.8,8.2c-0.3,1.3-0.9,2.3-1.8,3c-1,0.7-2.2,1.1-3.7,1.1c-1.4,0-2.5-0.4-3.1-1.1c-0.5-0.5-0.7-1.2-0.7-2
					c0-0.3,0-0.7,0.1-1.1l3.5-7.7h0.5L11,8c0,0.2-0.1,0.4-0.1,0.6c0,0.4,0.1,0.7,0.3,1c0.3,0.4,0.8,0.6,1.4,0.6
					c0.7,0,1.4-0.2,1.8-0.5c0.5-0.4,0.8-0.9,0.9-1.6l3.5-7.6h0.7L17.8,8.2"/>
			</g>
		</g>
		<g>
			<g>
				<path class="st2" d="M20.1,5.2h1.7l-0.2,1l0.2-0.3C22.4,5.3,23,5,23.8,5c0.7,0,1.2,0.2,1.6,0.6c0.3,0.4,0.4,1,0.3,1.7L24.8,12
					H23l0.8-4.3c0.1-0.4,0.1-0.8-0.1-1c-0.1-0.2-0.4-0.3-0.8-0.3c-0.5,0-0.8,0.1-1.1,0.4c-0.3,0.3-0.5,0.7-0.6,1.2l-0.8,4h-1.8
					L20.1,5.2"/>
			</g>
		</g>
		<g>
			<g>
				<path class="st1" d="M39.7,5.2h1.7l-0.2,1l0.2-0.3C42,5.3,42.6,5,43.4,5c0.7,0,1.2,0.2,1.6,0.6c0.3,0.4,0.4,1,0.3,1.7L44.4,12
					h-1.8l0.9-4.3c0.1-0.4,0.1-0.8-0.1-1c-0.1-0.2-0.4-0.3-0.8-0.3c-0.5,0-0.8,0.1-1.1,0.4S41,7.5,40.9,8l-0.8,4h-1.8L39.7,5.2"/>
			</g>
		</g>
		<g>
			<g>
				<path class="st2" d="M28,5.2h1.9l-1.5,6.9h-1.9L28,5.2 M28.6,2.7h1.9l-0.4,1.7h-1.9L28.6,2.7z"/>
			</g>
		</g>
		<g>
			<g>
				<path class="st2" d="M31.6,11.6c-0.5-0.5-0.7-1.1-0.7-1.9c0-0.1,0-0.3,0-0.5s0-0.3,0.1-0.5c0.2-1.1,0.7-2,1.4-2.7
					c0.7-0.7,1.6-1,2.7-1c0.9,0,1.5,0.2,2,0.7s0.7,1.1,0.7,2c0,0.1,0,0.3,0,0.5c0,0.2,0,0.3-0.1,0.5c-0.2,1.1-0.7,2-1.4,2.6
					s-1.6,1-2.7,1C32.8,12.3,32.1,12,31.6,11.6 M35.2,10.2c0.3-0.4,0.6-0.9,0.7-1.6c0-0.1,0-0.2,0.1-0.4c0-0.1,0-0.2,0-0.3
					c0-0.4-0.1-0.8-0.3-1s-0.5-0.4-0.9-0.4c-0.5,0-1,0.2-1.3,0.6S32.9,8,32.8,8.8c0,0.1,0,0.2-0.1,0.3c0,0.1,0,0.2,0,0.3
					c0,0.4,0.1,0.8,0.3,1c0.2,0.2,0.5,0.3,0.9,0.3C34.5,10.7,34.9,10.6,35.2,10.2"/>
			</g>
		</g>
		<g>
			<g>
				<path class="st1" d="M48.2,0.9h5c1,0,1.7,0.2,2.2,0.6s0.8,1,0.8,1.9l0,0c0,0.2,0,0.3,0,0.5c0,0.2-0.1,0.4-0.1,0.6
					c-0.2,1.1-0.7,1.9-1.5,2.6c-0.8,0.6-1.7,1-2.8,1h-2.7l-0.8,4H46L48.2,0.9 M49.4,6.1h2.2c0.6,0,1-0.1,1.4-0.4
					c0.3-0.3,0.5-0.7,0.7-1.2c0-0.1,0-0.2,0-0.3c0-0.1,0-0.2,0-0.2c0-0.4-0.1-0.7-0.4-0.9C53,2.9,52.6,2.8,52,2.8h-1.9L49.4,6.1z"/>
			</g>
		</g>
		<g>
			<g>
				<path class="st2" d="M50.1,0.9h3c1,0,1.7,0.2,2.2,0.6s0.8,1,0.8,1.9l0,0c0,0.2,0,0.3,0,0.5c0,0.2-0.1,0.4-0.1,0.6
					c-0.2,1.1-0.7,1.9-1.5,2.6c-0.8,0.6-1.7,1-2.8,1H49l-0.8,4h-2.3L50.1,0.9 M49.4,6.1h2.2c0.6,0,1-0.1,1.4-0.4
					c0.3-0.3,0.5-0.7,0.7-1.2c0-0.1,0-0.2,0-0.3c0-0.1,0-0.2,0-0.2c0-0.4-0.1-0.7-0.4-0.9C53,2.9,52.6,2.8,52,2.8h-1.9L49.4,6.1z"/>
			</g>
		</g>
		<g>
			<g>
				<path class="st1" d="M66.4,13.4c-0.7,1.6-1.4,2.5-1.8,2.9c-0.4,0.4-1.2,1.4-3.2,1.3l0.2-1.2c1.6-0.5,2.5-2.8,3-3.8L64,5.2h1.3
					h1.1l0.1,4.7l2-4.7h2L66.4,13.4"/>
			</g>
		</g>
		<g>
			<g>
				<path class="st2" d="M60.8,5.7L60,6.3c-0.8-0.7-1.6-1.1-3.1-0.4c-2,0.9-3.7,8.1,1.8,5.7L59,12l2.2,0.1l1.4-6.5L60.8,5.7
					 M59.5,9.3c-0.4,1-1.1,1.7-1.7,1.5c-0.6-0.2-0.8-1.2-0.5-2.2c0.4-1,1.1-1.7,1.7-1.5C59.7,7.3,59.9,8.3,59.5,9.3"/>
			</g>
		</g>
	</g>
	<g>
		<path class="st1" d="M57.2,12.1c0.4-0.1,0.9-0.2,1.5-0.4l0.3,0.4l2.2,0.1l1.4-6.5h-0.5C61.1,8.2,59.3,10.4,57.2,12.1z"/>
	</g>
	<g>
		<path class="st1" d="M37.1,5.7c-0.5-0.5-1.2-0.7-2-0.7c-0.2,0-0.3,0-0.5,0c-0.2,0.6-0.5,1.2-0.8,1.8c0.3-0.2,0.6-0.3,1-0.3
			c0.4,0,0.7,0.1,0.9,0.4c0.2,0.2,0.3,0.6,0.3,1c0,0.1,0,0.2,0,0.3c0,0.1,0,0.2-0.1,0.4c-0.1,0.7-0.4,1.3-0.7,1.6
			c-0.3,0.4-0.8,0.5-1.3,0.5c-0.4,0-0.7-0.1-0.9-0.3c-0.2-0.2-0.3-0.6-0.3-1c0-0.1,0-0.2,0-0.3c0-0.1,0-0.2,0.1-0.3
			c0-0.2,0.1-0.3,0.1-0.4c-0.5,0.8-1.2,1.6-1.9,2.3c0.1,0.4,0.3,0.7,0.6,1c0.5,0.5,1.2,0.7,2,0.7c1,0,1.9-0.3,2.7-1
			c0.7-0.6,1.2-1.5,1.4-2.6c0-0.2,0.1-0.3,0.1-0.5s0-0.3,0-0.5C37.8,6.8,37.6,6.2,37.1,5.7z"/>
	</g>
</g>
</svg>
